<svg width="176" height="126" viewBox="0 0 176 126" fill="none" xmlns="http://www.w3.org/2000/svg">
<path d="M171.839 49.9789L123.238 32.4731L102.922 6.9104C101.156 4.74597 98.9306 3.00285 96.4083 1.80757C93.8859 0.612292 91.1296 -0.00515946 88.3394 3.24731e-05H38.0789C35.0051 8.54685e-05 31.978 0.753123 29.2611 2.19358C26.5442 3.63404 24.2198 5.71826 22.4903 8.26475L5.44343 33.355C1.89722 38.5788 0.000605323 44.7506 0 51.0687V100.789C0 102.46 0.662243 104.062 1.84104 105.244C3.01984 106.425 4.61864 107.089 6.28571 107.089H19.7497C21.1171 112.495 24.2442 117.29 28.6363 120.715C33.0284 124.14 38.4348 126 44 126C49.5652 126 54.9716 124.14 59.3637 120.715C63.7558 117.29 66.8829 112.495 68.2503 107.089H107.75C109.117 112.495 112.244 117.29 116.636 120.715C121.028 124.14 126.435 126 132 126C137.565 126 142.972 124.14 147.364 120.715C151.756 117.29 154.883 112.495 156.25 107.089H169.714C171.381 107.089 172.98 106.425 174.159 105.244C175.338 104.062 176 102.46 176 100.789V55.9066C176 54.6094 175.6 53.3439 174.855 52.2829C174.11 51.222 173.057 50.4174 171.839 49.9789ZM44 113.388C41.5136 113.388 39.083 112.649 37.0157 111.265C34.9483 109.88 33.337 107.913 32.3855 105.611C31.434 103.308 31.1851 100.775 31.6701 98.3314C32.1552 95.8875 33.3525 93.6426 35.1107 91.8807C36.8688 90.1187 39.1088 88.9188 41.5474 88.4327C43.9861 87.9466 46.5137 88.1961 48.8109 89.1496C51.108 90.1032 53.0714 91.718 54.4528 93.7898C55.8341 95.8617 56.5714 98.2975 56.5714 100.789C56.5664 104.129 55.2403 107.331 52.8838 109.692C50.5273 112.054 47.3326 113.383 44 113.388ZM132 113.388C129.514 113.388 127.083 112.649 125.016 111.265C122.948 109.88 121.337 107.913 120.386 105.611C119.434 103.308 119.185 100.775 119.67 98.3314C120.155 95.8875 121.353 93.6426 123.111 91.8807C124.869 90.1187 127.109 88.9188 129.547 88.4327C131.986 87.9466 134.514 88.1961 136.811 89.1496C139.108 90.1032 141.071 91.718 142.453 93.7898C143.834 95.8617 144.571 98.2975 144.571 100.789C144.566 104.129 143.24 107.331 140.884 109.692C138.527 112.054 135.333 113.383 132 113.388ZM163.429 94.49H156.25C154.883 89.0836 151.756 84.2886 147.364 80.8634C142.972 77.4383 137.565 75.5786 132 75.5786C126.435 75.5786 121.028 77.4383 116.636 80.8634C112.244 84.2886 109.117 89.0836 107.75 94.49H68.2503C66.8829 89.0836 63.7558 84.2886 59.3637 80.8634C54.9716 77.4383 49.5652 75.5786 44 75.5786C38.4348 75.5786 33.0284 77.4383 28.6363 80.8634C24.2442 84.2886 21.1171 89.0836 19.7497 94.49H12.5714V51.0687C12.5715 47.2759 13.7104 43.5708 15.84 40.4354L32.8806 15.3578C33.4568 14.5079 34.2317 13.8122 35.1378 13.3312C36.0439 12.8503 37.0536 12.5988 38.0789 12.5987H88.3394C89.254 12.5989 90.1576 12.799 90.987 13.1853C91.8165 13.5715 92.5518 14.1345 93.1417 14.8349L114.513 41.7205C115.24 42.6348 116.206 43.3284 117.304 43.7237L163.429 60.335V94.49Z" fill="#989898"/>
</svg>
