<svg width="205" height="49" viewBox="0 0 205 49" fill="none" xmlns="http://www.w3.org/2000/svg">
<rect y="14" width="122" height="27" rx="13.5" fill="#40A826"/>
<path d="M179 13.8571L173 7" stroke="#40A826" stroke-width="2" stroke-linecap="round"/>
<path d="M181.571 12.1429L179 2.71429" stroke="#40A826" stroke-width="2" stroke-linecap="round"/>
<path d="M185.857 12.1429L186.714 1" stroke="#40A826" stroke-width="2" stroke-linecap="round"/>
<path d="M178.341 46.2544L170.143 37.7802C169.318 36.8386 169.396 35.4638 170.158 34.654L173.836 30.8518C174.082 28.9318 173.708 27.0052 173.911 25.1204C173.984 24.4564 173.944 23.8431 173.792 23.2805C173.18 21.3317 171.341 20.228 171.25 18.2637C172.29 15.5788 175.558 14.4533 177.882 15.5867C179.76 16.5316 180.83 18.3053 181.464 20.2002C183.631 17.9521 185.82 15.7259 188.003 13.4935C189.902 11.8025 192.35 11.7278 194.051 13.4616C195.749 15.2262 195.517 18.0254 193.982 19.6745L191.428 22.3149C191.844 22.9213 192.133 23.563 192.294 24.2399C193.486 25.1759 194.186 26.577 194.294 27.9975C199.999 34.6126 188.466 39.1113 185.401 42.093L181.378 46.2517C180.461 47.1136 179.127 47.0453 178.341 46.2544ZM183.82 40.5907C186.251 38.1832 197.976 33.4897 192.048 28.9756C192.445 27.6073 191.537 25.9839 190.226 25.7191C190.238 24.0745 189.475 22.8134 187.918 22.8061C188.685 22.014 189.438 21.2262 190.179 20.4429C190.92 19.6596 191.673 18.8719 192.44 18.0798C193.298 17.1543 193.264 15.8621 192.506 15.0591C191.579 14.1422 190.314 14.2604 189.52 15.0618C186.548 18.134 183.592 21.1369 180.835 23.9864C179.095 21.6749 178.772 16.4285 174.779 17.3174C174.201 17.5221 173.809 17.7596 173.477 18.2551C173.443 18.3606 173.439 18.4354 173.464 18.4794C173.49 18.5233 173.532 18.5936 173.591 18.6903C174.91 20.5857 176.244 22.4632 176.062 24.8085C175.745 27.2706 176.576 29.7736 175.686 32.0505L175.622 32.1165L183.82 40.5907Z" fill="#40A826"/>
<path d="M13.9 21.8V23.28H9.54V27.48H13.3V28.96H9.54V33.52H14.18L14.04 35H7.2V21.8H13.9ZM23.1495 35L17.8495 25.96V35H15.9695V21.8H17.7495L23.0495 30.84V21.8H24.9295V35H23.1495ZM31.8367 22.8C30.8234 22.8 30.1501 23.3333 29.8167 24.4C29.4967 25.4533 29.3367 26.7733 29.3367 28.36C29.3367 29.9467 29.5101 31.22 29.8567 32.18C30.2034 33.1267 30.9301 33.6 32.0367 33.6C32.7301 33.6 33.3234 33.4067 33.8167 33.02C34.3101 32.6333 34.6634 32.1 34.8767 31.42C35.1567 31.5133 35.3567 31.66 35.4767 31.86C35.5967 32.0467 35.6567 32.2933 35.6567 32.6C35.6567 33.2 35.4701 33.7133 35.0967 34.14C34.7367 34.5667 34.2634 34.8867 33.6767 35.1C33.1034 35.3267 32.4901 35.44 31.8367 35.44C30.0234 35.44 28.7301 34.8133 27.9567 33.56C27.1967 32.3067 26.8167 30.6067 26.8167 28.46C26.8167 26.3267 27.2234 24.62 28.0367 23.34C28.8634 22.0467 30.1901 21.4 32.0167 21.4C33.1901 21.4 34.1234 21.6333 34.8167 22.1C35.5234 22.5667 35.8767 23.3067 35.8767 24.32C35.8767 24.8 35.7367 25.1933 35.4567 25.5C35.1767 25.7933 34.7967 25.94 34.3167 25.94C33.8501 25.94 33.5034 25.8333 33.2767 25.62C33.3834 25.3267 33.4367 24.9933 33.4367 24.62C33.4367 23.4067 32.9034 22.8 31.8367 22.8ZM46.2111 29.52C46.2111 30.8667 46.0911 31.9667 45.8511 32.82C45.6244 33.66 45.1978 34.3067 44.5711 34.76C43.9444 35.2133 43.0378 35.44 41.8511 35.44C40.7044 35.44 39.8111 35.2533 39.1711 34.88C38.5444 34.4933 38.1044 33.92 37.8511 33.16C37.5978 32.4 37.4711 31.4067 37.4711 30.18V21.8H39.8111V29.96C39.8111 30.84 39.8511 31.56 39.9311 32.12C40.0244 32.6667 40.2311 33.1267 40.5511 33.5C40.8711 33.86 41.3578 34.04 42.0111 34.04C42.6644 34.04 43.1511 33.8467 43.4711 33.46C43.7911 33.06 43.9911 32.5667 44.0711 31.98C44.1511 31.3933 44.1911 30.6467 44.1911 29.74V21.8H46.2111V29.52ZM55.2086 21.8V23.28H50.8486V27.48H54.6086V28.96H50.8486V33.52H55.4886L55.3486 35H48.5086V21.8H55.2086ZM54.5686 18.26C54.7419 18.38 54.8819 18.5333 54.9886 18.72C55.0953 18.8933 55.1486 19.08 55.1486 19.28C55.1486 19.76 54.9486 20.0867 54.5486 20.26C54.1486 20.4333 53.6086 20.5467 52.9286 20.6L50.5486 20.78L50.3286 19.94L54.5686 18.26ZM64.4581 35L59.1581 25.96V35H57.2781V21.8H59.0581L64.3581 30.84V21.8H66.2381V35H64.4581ZM75.8453 21.8L75.7053 23.28H72.6253V35H70.2853V23.28H67.1453V21.8H75.8453ZM85.1727 25.42C85.1727 26.3267 84.9393 27.1 84.4727 27.74C84.0193 28.38 83.3927 28.8133 82.5927 29.04L86.0727 35H83.5127L79.9527 28.68C79.8727 28.5333 79.8327 28.4 79.8327 28.28C80.8327 28.28 81.5727 28.06 82.0527 27.62C82.5327 27.1667 82.7727 26.46 82.7727 25.5C82.7727 24.7 82.566 24.1067 82.1527 23.72C81.7527 23.32 81.1327 23.12 80.2927 23.12C79.8793 23.12 79.4527 23.1533 79.0127 23.22V35H76.6727V21.88C78.246 21.7733 79.4993 21.72 80.4327 21.72C83.5927 21.72 85.1727 22.9533 85.1727 25.42ZM92.7377 21.8L96.1577 35H93.7977L92.9977 31.64H89.0777L88.2977 35H86.0977L89.7577 21.8H92.7377ZM89.4377 30.16H92.6577L91.0377 23.3L89.4377 30.16ZM97.3563 21.8H99.6963V33.52H104.056L103.916 35H97.3563V21.8ZM109.984 21.4C113.397 21.4 115.104 23.6733 115.104 28.22C115.104 33.0333 113.397 35.44 109.984 35.44C108.117 35.44 106.791 34.82 106.004 33.58C105.231 32.34 104.844 30.6333 104.844 28.46C104.844 26.3267 105.244 24.62 106.044 23.34C106.857 22.0467 108.171 21.4 109.984 21.4ZM109.984 34.04C111.051 34.04 111.751 33.5133 112.084 32.46C112.417 31.3933 112.584 30.0267 112.584 28.36C112.584 26.7733 112.411 25.4533 112.064 24.4C111.717 23.3333 111.024 22.8 109.984 22.8C108.931 22.8 108.231 23.3333 107.884 24.4C107.537 25.4533 107.364 26.7733 107.364 28.36C107.364 30.0267 107.531 31.3933 107.864 32.46C108.197 33.5133 108.904 34.04 109.984 34.04Z" fill="white"/>
<path d="M136.586 22.8281V23.5312H130.07V27.9844H136.32V28.6875H130.07V34H129.25V22.8281H136.586ZM137.953 31.6797C137.953 30.0495 139.036 29.2344 141.203 29.2344C141.969 29.2344 142.786 29.2865 143.656 29.3906V28.3828C143.656 27.1276 142.867 26.5 141.289 26.5C140.445 26.5 139.581 26.6302 138.695 26.8906V26.1875C139.581 25.9271 140.445 25.7969 141.289 25.7969C143.414 25.7969 144.477 26.6458 144.477 28.3438V34H143.977L143.789 33.1875C142.763 33.7292 141.768 34 140.805 34C138.904 34 137.953 33.2266 137.953 31.6797ZM141.203 29.9375C139.583 29.9375 138.773 30.5104 138.773 31.6562C138.773 32.75 139.451 33.2969 140.805 33.2969C141.805 33.2969 142.755 33.0312 143.656 32.5V30.0938C142.786 29.9896 141.969 29.9375 141.203 29.9375ZM141.969 22.8281H143.211L141.344 24.6953H140.688L141.969 22.8281ZM152.922 33.7656C152.245 33.9219 151.516 34 150.734 34C147.974 34 146.594 32.5807 146.594 29.7422C146.594 27.112 147.974 25.7969 150.734 25.7969C151.516 25.7969 152.245 25.875 152.922 26.0312V26.7344C152.193 26.5781 151.49 26.5 150.812 26.5C148.599 26.5 147.492 27.5807 147.492 29.7422C147.492 32.112 148.599 33.2969 150.812 33.2969C151.49 33.2969 152.193 33.2188 152.922 33.0625V33.7656ZM155.898 22.8281V23.7656H154.922V22.8281H155.898ZM155.82 25.7969V34H155V25.7969H155.82ZM159.461 22.8281V34H158.641V22.8281H159.461Z" fill="black"/>
</svg>
