<svg width="133" height="143" viewBox="0 0 133 143" fill="none" xmlns="http://www.w3.org/2000/svg">
<path d="M55.5 38.5L37 20" stroke="#40A826" stroke-width="4" stroke-linecap="round"/>
<path d="M64.5 33L55.5 6" stroke="#40A826" stroke-width="4" stroke-linecap="round"/>
<path d="M74 33L78 2" stroke="#40A826" stroke-width="4" stroke-linecap="round"/>
<path d="M52.7338 134.859L27.8033 109.928C25.2967 107.158 25.5311 103.114 27.8501 100.731L39.0359 89.5455C39.7819 83.8969 38.6459 78.2289 39.2639 72.6841C39.4855 70.7307 39.3642 68.9263 38.9 67.271C37.0393 61.538 31.4458 58.2908 31.171 52.5122C34.3322 44.6132 44.271 41.3023 51.3374 44.6365C57.0511 47.4165 60.3033 52.6345 62.23 58.209C68.8219 51.5953 75.478 45.046 82.1157 38.4785C87.8917 33.5038 95.3373 33.2839 100.51 38.3848C105.672 43.576 104.966 51.811 100.3 56.6625L92.5319 64.4304C93.798 66.2143 94.6759 68.1022 95.1658 70.0938C98.7896 72.8474 100.92 76.9692 101.249 81.1481C118.597 100.609 83.5241 113.844 74.2038 122.616L61.9695 134.851C59.1822 137.386 55.1239 137.185 52.7338 134.859ZM69.3959 118.197C76.7894 111.114 112.445 97.306 94.4165 84.0257C95.6256 80.0001 92.8637 75.2242 88.8756 74.4454C88.9135 69.607 86.5923 65.897 81.8593 65.8754C84.1896 63.5451 86.4811 61.2276 88.7339 58.9233C90.9866 56.6188 93.2783 54.3014 95.6086 51.9711C98.2195 49.2482 98.1145 45.4467 95.8104 43.0844C92.9909 40.3868 89.1436 40.7348 86.7298 43.0923C77.6905 52.1306 68.7042 60.9648 60.3191 69.348C55.0279 62.5476 54.044 47.113 41.9034 49.7282C40.1431 50.3303 38.9528 51.029 37.9428 52.4868C37.8391 52.7973 37.826 53.0173 37.9034 53.1466C37.9809 53.2758 38.1101 53.4826 38.291 53.767C42.2991 59.3432 46.3588 64.8667 45.8037 71.7664C44.8413 79.0098 47.3664 86.3734 44.6599 93.0717L44.4657 93.2659L69.3959 118.197Z" fill="#40A826"/>
</svg>
