<svg width="152" height="126" viewBox="0 0 152 126" fill="none" xmlns="http://www.w3.org/2000/svg">
<path d="M146.933 115.92H136.8V70.5607L138.282 72.0349C139.234 72.9806 140.525 73.5112 141.871 73.51C143.217 73.5089 144.507 72.976 145.458 72.0286C146.408 71.0812 146.942 69.797 146.941 68.4584C146.939 67.1198 146.404 65.8365 145.451 64.8908L83.163 2.94999C81.2628 1.06108 78.6864 0 76 0C73.3136 0 70.7372 1.06108 68.837 2.94999L6.54867 64.8908C5.59879 65.8365 5.06549 67.1188 5.06609 68.4556C5.06668 69.7925 5.60112 71.0743 6.55183 72.0192C7.50255 72.964 8.79166 73.4945 10.1356 73.4939C11.4795 73.4933 12.7681 72.9617 13.718 72.016L15.2 70.5607V115.92H5.06667C3.7229 115.92 2.43418 116.451 1.48399 117.396C0.533808 118.341 0 119.623 0 120.96C0 122.297 0.533808 123.579 1.48399 124.524C2.43418 125.469 3.7229 126 5.06667 126H146.933C148.277 126 149.566 125.469 150.516 124.524C151.466 123.579 152 122.297 152 120.96C152 119.623 151.466 118.341 150.516 117.396C149.566 116.451 148.277 115.92 146.933 115.92ZM25.3333 60.4809L76 10.0815L126.667 60.4809V115.92H96.2667V80.6406C96.2667 79.3039 95.7329 78.022 94.7827 77.0768C93.8325 76.1316 92.5438 75.6007 91.2 75.6007H60.8C59.4562 75.6007 58.1675 76.1316 57.2173 77.0768C56.2671 78.022 55.7333 79.3039 55.7333 80.6406V115.92H25.3333V60.4809ZM86.1333 115.92H65.8667V85.6805H86.1333V115.92Z" fill="#989898"/>
</svg>
