<svg width="657" height="472" viewBox="0 0 657 472" fill="none" xmlns="http://www.w3.org/2000/svg">
<rect x="0.5" y="0.5" width="656" height="471" fill="white" stroke="#CCCCCC"/>
<path d="M57.1055 58.0703V78.7734H51.9297V58.0703H57.1055ZM57.1055 81.2148V86H51.9297V81.2148H57.1055ZM89.5859 58.0703L77.3398 86H71.7734L60.0547 58.0703H66.207L74.8594 79.457L83.4922 58.0703H89.5859ZM100.68 65.4922C106.904 65.4922 110.016 68.6693 110.016 75.0234C110.016 75.8698 109.957 76.7161 109.84 77.5625H96.2266C96.2266 80.4531 98.349 81.8984 102.594 81.8984C104.664 81.8984 106.734 81.7031 108.805 81.3125V85.4141C106.995 85.8047 104.794 86 102.203 86C94.7682 86 91.0508 82.5039 91.0508 75.5117C91.0508 68.832 94.2604 65.4922 100.68 65.4922ZM96.2266 73.9688H104.977V73.8125C104.977 70.974 103.544 69.5547 100.68 69.5547C97.9453 69.5547 96.4609 71.026 96.2266 73.9688ZM100.523 58.0703H106.754L102.086 63.1289H97.7109L100.523 58.0703ZM113.902 86V65.4922H117.906L118.551 68.5C120.517 66.4948 122.757 65.4922 125.27 65.4922C130.126 65.4922 132.555 68.0182 132.555 73.0703V86H127.379V73.0703C127.379 70.8047 126.253 69.6719 124 69.6719C122.32 69.6719 120.68 70.3424 119.078 71.6836V86H113.902ZM150.445 70.8438C149.378 70.1406 148.036 69.7891 146.422 69.7891C143.206 69.7891 141.598 71.5924 141.598 75.1992C141.598 79.4831 143.271 81.625 146.617 81.625C147.971 81.625 149.247 81.4362 150.445 81.0586V70.8438ZM155.621 84.7695C152.483 85.5898 149.417 86 146.422 86C139.794 86 136.48 82.4453 136.48 75.3359C136.48 68.7734 139.723 65.4922 146.207 65.4922C147.587 65.4922 149 65.8177 150.445 66.4688V58.0703H155.621V84.7695ZM169.156 65.4922C175.38 65.4922 178.492 68.6693 178.492 75.0234C178.492 75.8698 178.434 76.7161 178.316 77.5625H164.703C164.703 80.4531 166.826 81.8984 171.07 81.8984C173.141 81.8984 175.211 81.7031 177.281 81.3125V85.4141C175.471 85.8047 173.271 86 170.68 86C163.245 86 159.527 82.5039 159.527 75.5117C159.527 68.832 162.737 65.4922 169.156 65.4922ZM164.703 73.9688H173.453V73.8125C173.453 70.974 172.021 69.5547 169.156 69.5547C166.422 69.5547 164.938 71.026 164.703 73.9688ZM187.555 58.0703V86H182.379V58.0703H187.555ZM196.656 75.668C196.656 79.9518 198.316 82.0938 201.637 82.0938C204.957 82.0938 206.617 79.9518 206.617 75.668C206.617 71.4883 204.957 69.3984 201.637 69.3984C198.316 69.3984 196.656 71.4883 196.656 75.668ZM191.48 75.7461C191.48 68.8711 194.866 65.4336 201.637 65.4336C208.408 65.4336 211.793 68.8711 211.793 75.7461C211.793 82.6081 208.408 86.0391 201.637 86.0391C194.892 86.0391 191.507 82.6081 191.48 75.7461ZM224.488 86V65.4922C224.488 59.8672 227.561 57.0547 233.707 57.0547C235.387 57.0547 236.91 57.3151 238.277 57.8359V61.9375C236.988 61.4167 235.589 61.1562 234.078 61.1562C231.135 61.1562 229.664 62.6016 229.664 65.4922H235.816V69.5938H229.664V86H224.488ZM238.004 79.6133C238.004 75.5378 240.973 73.5 246.91 73.5C248.303 73.5 249.697 73.6302 251.09 73.8906V72.3477C251.09 70.5117 249.768 69.5938 247.125 69.5938C244.885 69.5938 242.398 69.9193 239.664 70.5703V66.4688C242.398 65.8177 244.885 65.4922 247.125 65.4922C253.219 65.4922 256.266 67.7448 256.266 72.25V86H253.258L251.422 84.1641C249.638 85.388 247.672 86 245.523 86C240.51 86 238.004 83.8711 238.004 79.6133ZM251.09 77.4062C249.788 77.1458 248.395 77.0156 246.91 77.0156C244.423 77.0156 243.18 77.862 243.18 79.5547C243.18 81.3776 244.221 82.2891 246.305 82.2891C248.023 82.2891 249.618 81.7552 251.09 80.6875V77.4062ZM247.125 58.0703H253.355L248.688 63.1289H244.312L247.125 58.0703ZM276.305 85.4141C274.612 85.8047 272.854 86 271.031 86C263.74 86 260.094 82.4518 260.094 75.3555C260.094 68.7799 263.74 65.4922 271.031 65.4922C272.854 65.4922 274.612 65.6875 276.305 66.0781V70.1797C274.612 69.7891 272.984 69.5938 271.422 69.5938C267.32 69.5938 265.27 71.5143 265.27 75.3555C265.27 79.7174 267.32 81.8984 271.422 81.8984C272.984 81.8984 274.612 81.7031 276.305 81.3125V85.4141ZM284.898 58.0703V62.1719H279.723V58.0703H284.898ZM284.898 65.4922V86H279.723V65.4922H284.898ZM294.977 58.0703V86H289.801V58.0703H294.977ZM306.031 82.3867L303.102 90.8828H297.926L300.855 82.3867H306.031ZM317.77 86V65.4922H321.773L322.418 68.5C324.384 66.4948 326.624 65.4922 329.137 65.4922C333.993 65.4922 336.422 68.0182 336.422 73.0703V86H331.246V73.0703C331.246 70.8047 330.12 69.6719 327.867 69.6719C326.188 69.6719 324.547 70.3424 322.945 71.6836V86H317.77ZM345.523 75.668C345.523 79.9518 347.184 82.0938 350.504 82.0938C353.824 82.0938 355.484 79.9518 355.484 75.668C355.484 71.4883 353.824 69.3984 350.504 69.3984C347.184 69.3984 345.523 71.4883 345.523 75.668ZM340.348 75.7461C340.348 68.8711 343.733 65.4336 350.504 65.4336C357.275 65.4336 360.66 68.8711 360.66 75.7461C360.66 82.6081 357.275 86.0391 350.504 86.0391C343.759 86.0391 340.374 82.6081 340.348 75.7461ZM64.4297 115.844C63.362 115.141 62.0208 114.789 60.4062 114.789C57.1901 114.789 55.582 116.592 55.582 120.199C55.582 124.483 57.2552 126.625 60.6016 126.625C61.9557 126.625 63.2318 126.436 64.4297 126.059V115.844ZM69.6055 129.77C66.4674 130.59 63.401 131 60.4062 131C53.7786 131 50.4648 127.445 50.4648 120.336C50.4648 113.773 53.707 110.492 60.1914 110.492C61.5716 110.492 62.9844 110.818 64.4297 111.469V103.07H69.6055V129.77ZM83.1406 110.492C89.3646 110.492 92.4766 113.669 92.4766 120.023C92.4766 120.87 92.418 121.716 92.3008 122.562H78.6875C78.6875 125.453 80.8099 126.898 85.0547 126.898C87.125 126.898 89.1953 126.703 91.2656 126.312V130.414C89.4557 130.805 87.2552 131 84.6641 131C77.2292 131 73.5117 127.504 73.5117 120.512C73.5117 113.832 76.7214 110.492 83.1406 110.492ZM78.6875 118.969H87.4375V118.812C87.4375 115.974 86.0052 114.555 83.1406 114.555C80.4062 114.555 78.9219 116.026 78.6875 118.969ZM96.3633 130.023V125.727C98.6419 126.638 101.272 127.094 104.254 127.094C106.48 127.094 107.594 126.378 107.594 124.945C107.594 123.578 106.845 122.895 105.348 122.895H101.637C97.4701 122.895 95.3867 120.844 95.3867 116.742C95.3867 112.445 98.4271 110.297 104.508 110.297C107.086 110.297 109.514 110.688 111.793 111.469V115.766C109.514 114.854 107.04 114.398 104.371 114.398C101.572 114.398 100.172 115.115 100.172 116.547C100.172 117.914 100.986 118.598 102.613 118.598H105.934C110.491 118.598 112.77 120.648 112.77 124.75C112.77 129.047 109.866 131.195 104.059 131.195C101.207 131.195 98.6419 130.805 96.3633 130.023ZM115.426 124.613C115.426 120.538 118.395 118.5 124.332 118.5C125.725 118.5 127.118 118.63 128.512 118.891V117.348C128.512 115.512 127.19 114.594 124.547 114.594C122.307 114.594 119.82 114.919 117.086 115.57V111.469C119.82 110.818 122.307 110.492 124.547 110.492C130.641 110.492 133.688 112.745 133.688 117.25V131H130.68L128.844 129.164C127.06 130.388 125.094 131 122.945 131C117.932 131 115.426 128.871 115.426 124.613ZM128.512 122.406C127.21 122.146 125.816 122.016 124.332 122.016C121.845 122.016 120.602 122.862 120.602 124.555C120.602 126.378 121.643 127.289 123.727 127.289C125.445 127.289 127.04 126.755 128.512 125.688V122.406ZM143.766 125.648C145.055 126.352 146.441 126.703 147.926 126.703C151.012 126.703 152.555 124.535 152.555 120.199C152.555 116.514 150.849 114.672 147.438 114.672C145.966 114.672 144.742 114.763 143.766 114.945V125.648ZM138.59 111.332C141.311 110.772 144.189 110.492 147.223 110.492C154.189 110.492 157.672 113.741 157.672 120.238C157.672 127.413 154.43 131 147.945 131C146.565 131 145.172 130.674 143.766 130.023V138.422H138.59V111.332ZM161.598 131V110.492H165.602L166.246 113.109C168.043 111.365 169.944 110.492 171.949 110.492V114.672C170.022 114.672 168.297 115.473 166.773 117.074V131H161.598ZM179.078 120.668C179.078 124.952 180.738 127.094 184.059 127.094C187.379 127.094 189.039 124.952 189.039 120.668C189.039 116.488 187.379 114.398 184.059 114.398C180.738 114.398 179.078 116.488 179.078 120.668ZM173.902 120.746C173.902 113.871 177.288 110.434 184.059 110.434C190.829 110.434 194.215 113.871 194.215 120.746C194.215 127.608 190.829 131.039 184.059 131.039C177.314 131.039 173.928 127.608 173.902 120.746ZM195.68 110.492H201.148L206.129 124.828L211.305 110.492H216.773L208.434 131H203.512L195.68 110.492ZM227.867 110.492C234.091 110.492 237.203 113.669 237.203 120.023C237.203 120.87 237.145 121.716 237.027 122.562H223.414C223.414 125.453 225.536 126.898 229.781 126.898C231.852 126.898 233.922 126.703 235.992 126.312V130.414C234.182 130.805 231.982 131 229.391 131C221.956 131 218.238 127.504 218.238 120.512C218.238 113.832 221.448 110.492 227.867 110.492ZM223.414 118.969H232.164V118.812C232.164 115.974 230.732 114.555 227.867 114.555C225.133 114.555 223.648 116.026 223.414 118.969ZM256.227 130.414C254.534 130.805 252.776 131 250.953 131C243.661 131 240.016 127.452 240.016 120.355C240.016 113.78 243.661 110.492 250.953 110.492C252.776 110.492 254.534 110.688 256.227 111.078V115.18C254.534 114.789 252.906 114.594 251.344 114.594C247.242 114.594 245.191 116.514 245.191 120.355C245.191 124.717 247.242 126.898 251.344 126.898C252.906 126.898 254.534 126.703 256.227 126.312V130.414ZM259.645 131V103.07H264.82V113.109C266.435 111.365 268.499 110.492 271.012 110.492C275.868 110.492 278.297 113.018 278.297 118.07V131H273.121V118.07C273.121 115.805 271.995 114.672 269.742 114.672C268.062 114.672 266.422 115.342 264.82 116.684V131H259.645ZM291.852 110.492C298.076 110.492 301.188 113.669 301.188 120.023C301.188 120.87 301.129 121.716 301.012 122.562H287.398C287.398 125.453 289.521 126.898 293.766 126.898C295.836 126.898 297.906 126.703 299.977 126.312V130.414C298.167 130.805 295.966 131 293.375 131C285.94 131 282.223 127.504 282.223 120.512C282.223 113.832 285.432 110.492 291.852 110.492ZM287.398 118.969H296.148V118.812C296.148 115.974 294.716 114.555 291.852 114.555C289.117 114.555 287.633 116.026 287.398 118.969ZM305.074 130.023V125.727C307.353 126.638 309.983 127.094 312.965 127.094C315.191 127.094 316.305 126.378 316.305 124.945C316.305 123.578 315.556 122.895 314.059 122.895H310.348C306.181 122.895 304.098 120.844 304.098 116.742C304.098 112.445 307.138 110.297 313.219 110.297C315.797 110.297 318.225 110.688 320.504 111.469V115.766C318.225 114.854 315.751 114.398 313.082 114.398C310.283 114.398 308.883 115.115 308.883 116.547C308.883 117.914 309.697 118.598 311.324 118.598H314.645C319.202 118.598 321.48 120.648 321.48 124.75C321.48 129.047 318.577 131.195 312.77 131.195C309.918 131.195 307.353 130.805 305.074 130.023ZM333.609 107.172H337.438L338.219 110.492H343.375V114.594H338.785V124.027C338.785 125.941 339.612 126.898 341.266 126.898H343.375V131H338.766C335.328 131 333.609 129.158 333.609 125.473V107.172ZM365.367 110.492V131H361.324L360.699 128.383C358.342 130.128 355.842 131 353.199 131C349.007 131 346.91 128.52 346.91 123.559V110.492H352.086V123.422C352.086 125.688 353.076 126.82 355.055 126.82C356.734 126.82 358.447 126.15 360.191 124.809V110.492H365.367ZM55.6406 165.668C55.6406 169.952 57.3008 172.094 60.6211 172.094C63.9414 172.094 65.6016 169.952 65.6016 165.668C65.6016 161.488 63.9414 159.398 60.6211 159.398C57.3008 159.398 55.6406 161.488 55.6406 165.668ZM50.4648 165.746C50.4648 158.871 53.8503 155.434 60.6211 155.434C67.3919 155.434 70.7773 158.871 70.7773 165.746C70.7773 172.608 67.3919 176.039 60.6211 176.039C53.8763 176.039 50.4909 172.608 50.4648 165.746ZM79.8594 170.648C81.1484 171.352 82.5352 171.703 84.0195 171.703C87.1055 171.703 88.6484 169.535 88.6484 165.199C88.6484 161.514 86.9427 159.672 83.5312 159.672C82.0599 159.672 80.8359 159.763 79.8594 159.945V170.648ZM74.6836 156.332C77.4049 155.772 80.2826 155.492 83.3164 155.492C90.2826 155.492 93.7656 158.741 93.7656 165.238C93.7656 172.413 90.5234 176 84.0391 176C82.6589 176 81.2656 175.674 79.8594 175.023V183.422H74.6836V156.332ZM101.891 165.668C101.891 169.952 103.551 172.094 106.871 172.094C110.191 172.094 111.852 169.952 111.852 165.668C111.852 161.488 110.191 159.398 106.871 159.398C103.551 159.398 101.891 161.488 101.891 165.668ZM96.7148 165.746C96.7148 158.871 100.1 155.434 106.871 155.434C113.642 155.434 117.027 158.871 117.027 165.746C117.027 172.608 113.642 176.039 106.871 176.039C100.126 176.039 96.7409 172.608 96.7148 165.746ZM120.934 176V155.492H124.938L125.582 158.109C127.379 156.365 129.28 155.492 131.285 155.492V159.672C129.358 159.672 127.633 160.473 126.109 162.074V176H120.934ZM133.922 152.172H137.75L138.531 155.492H143.688V159.594H139.098V169.027C139.098 170.941 139.924 171.898 141.578 171.898H143.688V176H139.078C135.641 176 133.922 174.158 133.922 170.473V152.172ZM165.68 155.492V176H161.637L161.012 173.383C158.655 175.128 156.155 176 153.512 176C149.319 176 147.223 173.52 147.223 168.559V155.492H152.398V168.422C152.398 170.688 153.388 171.82 155.367 171.82C157.047 171.82 158.759 171.15 160.504 169.809V155.492H165.68ZM170.582 176V155.492H174.586L175.23 158.5C177.197 156.495 179.436 155.492 181.949 155.492C186.806 155.492 189.234 158.018 189.234 163.07V176H184.059V163.07C184.059 160.805 182.932 159.672 180.68 159.672C179 159.672 177.359 160.342 175.758 161.684V176H170.582ZM199.312 148.07V152.172H194.137V148.07H199.312ZM199.312 155.492V176H194.137V155.492H199.312ZM217.203 160.844C216.135 160.141 214.794 159.789 213.18 159.789C209.964 159.789 208.355 161.592 208.355 165.199C208.355 169.483 210.029 171.625 213.375 171.625C214.729 171.625 216.005 171.436 217.203 171.059V160.844ZM222.379 174.77C219.241 175.59 216.174 176 213.18 176C206.552 176 203.238 172.445 203.238 165.336C203.238 158.773 206.48 155.492 212.965 155.492C214.345 155.492 215.758 155.818 217.203 156.469V148.07H222.379V174.77ZM226.285 169.613C226.285 165.538 229.254 163.5 235.191 163.5C236.585 163.5 237.978 163.63 239.371 163.891V162.348C239.371 160.512 238.049 159.594 235.406 159.594C233.167 159.594 230.68 159.919 227.945 160.57V156.469C230.68 155.818 233.167 155.492 235.406 155.492C241.5 155.492 244.547 157.745 244.547 162.25V176H241.539L239.703 174.164C237.919 175.388 235.953 176 233.805 176C228.792 176 226.285 173.871 226.285 169.613ZM239.371 167.406C238.069 167.146 236.676 167.016 235.191 167.016C232.704 167.016 231.461 167.862 231.461 169.555C231.461 171.378 232.503 172.289 234.586 172.289C236.305 172.289 237.9 171.755 239.371 170.688V167.406ZM262.438 160.844C261.37 160.141 260.029 159.789 258.414 159.789C255.198 159.789 253.59 161.592 253.59 165.199C253.59 169.483 255.263 171.625 258.609 171.625C259.964 171.625 261.24 171.436 262.438 171.059V160.844ZM267.613 174.77C264.475 175.59 261.409 176 258.414 176C251.786 176 248.473 172.445 248.473 165.336C248.473 158.773 251.715 155.492 258.199 155.492C259.579 155.492 260.992 155.818 262.438 156.469V148.07H267.613V174.77ZM272.984 183.422V162.719H278.16V183.422H272.984ZM272.984 160.277V155.492H278.16V160.277H272.984Z" fill="#1E1E1E"/>
<path d="M50.9922 256V239.242H57.7891C61.2109 239.242 62.9219 240.738 62.9219 243.73C62.9219 246.988 60.582 248.977 55.9023 249.695L55.457 247.867C58.8945 247.359 60.6133 246.012 60.6133 243.824C60.6133 241.965 59.6055 241.035 57.5898 241.035H53.1602V256H50.9922ZM76.1758 243.695V256H74.6875L74.3125 254.43C72.8203 255.477 71.3203 256 69.8125 256C66.9844 256 65.5703 254.473 65.5703 251.418V243.695H67.7383V251.453C67.7383 253.281 68.6445 254.195 70.457 254.195C71.6992 254.195 72.8828 253.676 74.0078 252.637V243.695H76.1758ZM81.8711 253.855C82.582 254.082 83.4453 254.195 84.4609 254.195C87.1953 254.195 88.5625 252.637 88.5625 249.52C88.5625 246.887 87.3242 245.57 84.8477 245.57C83.7227 245.57 82.7305 245.781 81.8711 246.203V253.855ZM79.7031 239.242H81.8711V244.281C82.8008 243.891 83.7969 243.695 84.8594 243.695C88.75 243.695 90.6953 245.664 90.6953 249.602C90.6953 253.867 88.6523 256 84.5664 256C82.8008 256 81.1797 255.832 79.7031 255.496V239.242ZM95.9102 239.242V256H93.7422V239.242H95.9102ZM101.957 243.695V256H99.7891V243.695H101.957ZM101.957 239.242V241.293H99.7891V239.242H101.957ZM114.977 255.648C113.961 255.883 112.867 256 111.695 256C107.32 256 105.133 253.871 105.133 249.613C105.133 245.668 107.32 243.695 111.695 243.695C112.867 243.695 113.961 243.812 114.977 244.047V245.805C113.961 245.57 112.828 245.453 111.578 245.453C108.727 245.453 107.301 246.84 107.301 249.613C107.301 252.699 108.727 254.242 111.578 254.242C112.828 254.242 113.961 254.125 114.977 253.891V255.648ZM117.156 252.285C117.156 249.762 118.82 248.5 122.148 248.5C123.219 248.5 124.289 248.578 125.359 248.734V247.574C125.359 246.16 124.254 245.453 122.043 245.453C120.777 245.453 119.48 245.648 118.152 246.039V244.281C119.48 243.891 120.777 243.695 122.043 243.695C125.699 243.695 127.527 244.969 127.527 247.516V256H126.309L125.559 254.781C124.332 255.594 122.996 256 121.551 256C118.621 256 117.156 254.762 117.156 252.285ZM122.148 250.258C120.266 250.258 119.324 250.922 119.324 252.25C119.324 253.578 120.066 254.242 121.551 254.242C123.051 254.242 124.32 253.844 125.359 253.047V250.492C124.289 250.336 123.219 250.258 122.148 250.258ZM136.914 241.703H138.273L138.742 243.695H142.07V245.453H139.082V252.52C139.082 253.668 139.578 254.242 140.57 254.242H142.07V256H140.008C137.945 256 136.914 254.895 136.914 252.684V241.703ZM155.441 243.695V256H153.953L153.578 254.43C152.086 255.477 150.586 256 149.078 256C146.25 256 144.836 254.473 144.836 251.418V243.695H147.004V251.453C147.004 253.281 147.91 254.195 149.723 254.195C150.965 254.195 152.148 253.676 153.273 252.637V243.695H155.441ZM164.242 252.285C164.242 249.762 165.906 248.5 169.234 248.5C170.305 248.5 171.375 248.578 172.445 248.734V247.574C172.445 246.16 171.34 245.453 169.129 245.453C167.863 245.453 166.566 245.648 165.238 246.039V244.281C166.566 243.891 167.863 243.695 169.129 243.695C172.785 243.695 174.613 244.969 174.613 247.516V256H173.395L172.645 254.781C171.418 255.594 170.082 256 168.637 256C165.707 256 164.242 254.762 164.242 252.285ZM169.234 250.258C167.352 250.258 166.41 250.922 166.41 252.25C166.41 253.578 167.152 254.242 168.637 254.242C170.137 254.242 171.406 253.844 172.445 253.047V250.492C171.375 250.336 170.305 250.258 169.234 250.258ZM178.141 256V243.695H179.605L179.992 245.266C181.25 244.219 182.633 243.695 184.141 243.695C187.211 243.695 188.746 245.223 188.746 248.277V256H186.578V248.242C186.578 246.414 185.668 245.5 183.848 245.5C182.605 245.5 181.426 246.02 180.309 247.059V256H178.141ZM202.879 243.695V256H201.391L201.016 254.43C199.523 255.477 198.023 256 196.516 256C193.688 256 192.273 254.473 192.273 251.418V243.695H194.441V251.453C194.441 253.281 195.348 254.195 197.16 254.195C198.402 254.195 199.586 253.676 200.711 252.637V243.695H202.879ZM206.406 256V243.695H207.871L208.258 245.266C209.516 244.219 210.898 243.695 212.406 243.695C215.477 243.695 217.012 245.223 217.012 248.277V256H214.844V248.242C214.844 246.414 213.934 245.5 212.113 245.5C210.871 245.5 209.691 246.02 208.574 247.059V256H206.406ZM229.797 255.648C228.781 255.883 227.688 256 226.516 256C222.141 256 219.953 253.871 219.953 249.613C219.953 245.668 222.141 243.695 226.516 243.695C227.688 243.695 228.781 243.812 229.797 244.047V245.805C228.781 245.57 227.648 245.453 226.398 245.453C223.547 245.453 222.121 246.84 222.121 249.613C222.121 252.699 223.547 254.242 226.398 254.242C227.648 254.242 228.781 254.125 229.797 253.891V255.648ZM234.965 243.695V256H232.797V243.695H234.965ZM234.965 239.242V241.293H232.797V239.242H234.965ZM240.309 249.801C240.309 252.762 241.539 254.242 244 254.242C246.461 254.242 247.691 252.762 247.691 249.801C247.691 246.902 246.461 245.453 244 245.453C241.539 245.453 240.309 246.902 240.309 249.801ZM238.141 249.848C238.141 245.746 240.094 243.695 244 243.695C247.906 243.695 249.859 245.746 249.859 249.848C249.859 253.941 247.906 255.988 244 255.988C240.109 255.988 238.156 253.941 238.141 249.848ZM257.184 243.695H259.539L263.02 253.305L266.617 243.695H268.914L263.805 256.363C262.898 258.598 261.539 259.992 259.727 260.547L258.895 259.012C260.27 258.41 261.27 257.43 261.895 256.07L257.184 243.695ZM285.074 246.203C284.199 245.781 283.199 245.57 282.074 245.57C279.598 245.57 278.359 246.887 278.359 249.52C278.359 252.637 279.598 254.195 282.074 254.195C283.199 254.195 284.199 254.043 285.074 253.738V246.203ZM287.242 255.262C285.75 255.754 283.91 256 281.723 256C278.059 256 276.227 253.867 276.227 249.602C276.227 245.664 278.172 243.695 282.062 243.695C283.125 243.695 284.129 243.891 285.074 244.281V239.242H287.242V255.262ZM290.172 252.285C290.172 249.762 291.836 248.5 295.164 248.5C296.234 248.5 297.305 248.578 298.375 248.734V247.574C298.375 246.16 297.27 245.453 295.059 245.453C293.793 245.453 292.496 245.648 291.168 246.039V244.281C292.496 243.891 293.793 243.695 295.059 243.695C298.715 243.695 300.543 244.969 300.543 247.516V256H299.324L298.574 254.781C297.348 255.594 296.012 256 294.566 256C291.637 256 290.172 254.762 290.172 252.285ZM295.164 250.258C293.281 250.258 292.34 250.922 292.34 252.25C292.34 253.578 293.082 254.242 294.566 254.242C296.066 254.242 297.336 253.844 298.375 253.047V250.492C297.305 250.336 296.234 250.258 295.164 250.258ZM304.07 241.703H305.43L305.898 243.695H309.227V245.453H306.238V252.52C306.238 253.668 306.734 254.242 307.727 254.242H309.227V256H307.164C305.102 256 304.07 254.895 304.07 252.684V241.703ZM317.066 243.695C320.566 243.695 322.316 245.426 322.316 248.887C322.316 249.379 322.281 249.906 322.211 250.469H313.574C313.574 252.984 315.043 254.242 317.98 254.242C319.379 254.242 320.621 254.086 321.707 253.773V255.531C320.621 255.844 319.301 256 317.746 256C313.52 256 311.406 253.902 311.406 249.707C311.406 245.699 313.293 243.695 317.066 243.695ZM313.574 248.664H320.23C320.184 246.508 319.129 245.43 317.066 245.43C314.879 245.43 313.715 246.508 313.574 248.664ZM330.508 252.285C330.508 249.762 332.172 248.5 335.5 248.5C336.57 248.5 337.641 248.578 338.711 248.734V247.574C338.711 246.16 337.605 245.453 335.395 245.453C334.129 245.453 332.832 245.648 331.504 246.039V244.281C332.832 243.891 334.129 243.695 335.395 243.695C339.051 243.695 340.879 244.969 340.879 247.516V256H339.66L338.91 254.781C337.684 255.594 336.348 256 334.902 256C331.973 256 330.508 254.762 330.508 252.285ZM335.5 250.258C333.617 250.258 332.676 250.922 332.676 252.25C332.676 253.578 333.418 254.242 334.902 254.242C336.402 254.242 337.672 253.844 338.711 253.047V250.492C337.641 250.336 336.57 250.258 335.5 250.258ZM60.0156 282.648C59 282.883 57.9062 283 56.7344 283C52.3594 283 50.1719 280.871 50.1719 276.613C50.1719 272.668 52.3594 270.695 56.7344 270.695C57.9062 270.695 59 270.812 60.0156 271.047V272.805C59 272.57 57.8672 272.453 56.6172 272.453C53.7656 272.453 52.3398 273.84 52.3398 276.613C52.3398 279.699 53.7656 281.242 56.6172 281.242C57.8672 281.242 59 281.125 60.0156 280.891V282.648ZM64.3633 276.801C64.3633 279.762 65.5938 281.242 68.0547 281.242C70.5156 281.242 71.7461 279.762 71.7461 276.801C71.7461 273.902 70.5156 272.453 68.0547 272.453C65.5938 272.453 64.3633 273.902 64.3633 276.801ZM62.1953 276.848C62.1953 272.746 64.1484 270.695 68.0547 270.695C71.9609 270.695 73.9141 272.746 73.9141 276.848C73.9141 280.941 71.9609 282.988 68.0547 282.988C64.1641 282.988 62.2109 280.941 62.1953 276.848ZM76.8438 283V270.695H78.3086L78.6953 272.266C79.9531 271.219 81.3359 270.695 82.8438 270.695C85.9141 270.695 87.4492 272.223 87.4492 275.277V283H85.2812V275.242C85.2812 273.414 84.3711 272.5 82.5508 272.5C81.3086 272.5 80.1289 273.02 79.0117 274.059V283H76.8438ZM92.5586 276.801C92.5586 279.762 93.7891 281.242 96.25 281.242C98.7109 281.242 99.9414 279.762 99.9414 276.801C99.9414 273.902 98.7109 272.453 96.25 272.453C93.7891 272.453 92.5586 273.902 92.5586 276.801ZM90.3906 276.848C90.3906 272.746 92.3438 270.695 96.25 270.695C100.156 270.695 102.109 272.746 102.109 276.848C102.109 280.941 100.156 282.988 96.25 282.988C92.3594 282.988 90.4062 280.941 90.3906 276.848ZM114.297 282.648C113.281 282.883 112.188 283 111.016 283C106.641 283 104.453 280.871 104.453 276.613C104.453 272.668 106.641 270.695 111.016 270.695C112.188 270.695 113.281 270.812 114.297 271.047V272.805C113.281 272.57 112.148 272.453 110.898 272.453C108.047 272.453 106.621 273.84 106.621 276.613C106.621 279.699 108.047 281.242 110.898 281.242C112.148 281.242 113.281 281.125 114.297 280.891V282.648ZM122.137 270.695C125.637 270.695 127.387 272.426 127.387 275.887C127.387 276.379 127.352 276.906 127.281 277.469H118.645C118.645 279.984 120.113 281.242 123.051 281.242C124.449 281.242 125.691 281.086 126.777 280.773V282.531C125.691 282.844 124.371 283 122.816 283C118.59 283 116.477 280.902 116.477 276.707C116.477 272.699 118.363 270.695 122.137 270.695ZM118.645 275.664H125.301C125.254 273.508 124.199 272.43 122.137 272.43C119.949 272.43 118.785 273.508 118.645 275.664ZM130.305 283V270.695H131.77L132.156 272.266C133.234 271.219 134.531 270.695 136.047 270.695V272.5C134.578 272.5 133.387 273.02 132.473 274.059V283H130.305ZM143.5 279.285C143.5 276.762 145.164 275.5 148.492 275.5C149.562 275.5 150.633 275.578 151.703 275.734V274.574C151.703 273.16 150.598 272.453 148.387 272.453C147.121 272.453 145.824 272.648 144.496 273.039V271.281C145.824 270.891 147.121 270.695 148.387 270.695C152.043 270.695 153.871 271.969 153.871 274.516V283H152.652L151.902 281.781C150.676 282.594 149.34 283 147.895 283C144.965 283 143.5 281.762 143.5 279.285ZM148.492 277.258C146.609 277.258 145.668 277.922 145.668 279.25C145.668 280.578 146.41 281.242 147.895 281.242C149.395 281.242 150.664 280.844 151.703 280.047V277.492C150.633 277.336 149.562 277.258 148.492 277.258ZM163.258 283V270.695H164.723L165.109 272.266C166.367 271.219 167.75 270.695 169.258 270.695C172.328 270.695 173.863 272.223 173.863 275.277V283H171.695V275.242C171.695 273.414 170.785 272.5 168.965 272.5C167.723 272.5 166.543 273.02 165.426 274.059V283H163.258ZM179.793 270.695V283H177.625V270.695H179.793ZM179.793 266.242V268.293H177.625V266.242H179.793ZM181.797 270.695H184.141L187.668 280.34L191.172 270.695H193.516L188.512 283H186.496L181.797 270.695ZM200.348 270.695C203.848 270.695 205.598 272.426 205.598 275.887C205.598 276.379 205.562 276.906 205.492 277.469H196.855C196.855 279.984 198.324 281.242 201.262 281.242C202.66 281.242 203.902 281.086 204.988 280.773V282.531C203.902 282.844 202.582 283 201.027 283C196.801 283 194.688 280.902 194.688 276.707C194.688 272.699 196.574 270.695 200.348 270.695ZM196.855 275.664H203.512C203.465 273.508 202.41 272.43 200.348 272.43C198.16 272.43 196.996 273.508 196.855 275.664ZM210.801 266.242V283H208.633V266.242H210.801ZM220.305 283V270.695H221.77L222.156 272.266C223.414 271.219 224.797 270.695 226.305 270.695C229.375 270.695 230.91 272.223 230.91 275.277V283H228.742V275.242C228.742 273.414 227.832 272.5 226.012 272.5C224.77 272.5 223.59 273.02 222.473 274.059V283H220.305ZM233.852 279.285C233.852 276.762 235.516 275.5 238.844 275.5C239.914 275.5 240.984 275.578 242.055 275.734V274.574C242.055 273.16 240.949 272.453 238.738 272.453C237.473 272.453 236.176 272.648 234.848 273.039V271.281C236.176 270.891 237.473 270.695 238.738 270.695C242.395 270.695 244.223 271.969 244.223 274.516V283H243.004L242.254 281.781C241.027 282.594 239.691 283 238.246 283C235.316 283 233.852 281.762 233.852 279.285ZM238.844 277.258C236.961 277.258 236.02 277.922 236.02 279.25C236.02 280.578 236.762 281.242 238.246 281.242C239.746 281.242 241.016 280.844 242.055 280.047V277.492C240.984 277.336 239.914 277.258 238.844 277.258ZM257.008 282.648C255.992 282.883 254.898 283 253.727 283C249.352 283 247.164 280.871 247.164 276.613C247.164 272.668 249.352 270.695 253.727 270.695C254.898 270.695 255.992 270.812 257.008 271.047V272.805C255.992 272.57 254.859 272.453 253.609 272.453C250.758 272.453 249.332 273.84 249.332 276.613C249.332 279.699 250.758 281.242 253.609 281.242C254.859 281.242 255.992 281.125 257.008 280.891V282.648ZM262.176 270.695V283H260.008V270.695H262.176ZM262.176 266.242V268.293H260.008V266.242H262.176ZM267.52 276.801C267.52 279.762 268.75 281.242 271.211 281.242C273.672 281.242 274.902 279.762 274.902 276.801C274.902 273.902 273.672 272.453 271.211 272.453C268.75 272.453 267.52 273.902 267.52 276.801ZM265.352 276.848C265.352 272.746 267.305 270.695 271.211 270.695C275.117 270.695 277.07 272.746 277.07 276.848C277.07 280.941 275.117 282.988 271.211 282.988C267.32 282.988 265.367 280.941 265.352 276.848ZM280 283V270.695H281.465L281.852 272.266C283.109 271.219 284.492 270.695 286 270.695C289.07 270.695 290.605 272.223 290.605 275.277V283H288.438V275.242C288.438 273.414 287.527 272.5 285.707 272.5C284.465 272.5 283.285 273.02 282.168 274.059V283H280ZM293.547 279.285C293.547 276.762 295.211 275.5 298.539 275.5C299.609 275.5 300.68 275.578 301.75 275.734V274.574C301.75 273.16 300.645 272.453 298.434 272.453C297.168 272.453 295.871 272.648 294.543 273.039V271.281C295.871 270.891 297.168 270.695 298.434 270.695C302.09 270.695 303.918 271.969 303.918 274.516V283H302.699L301.949 281.781C300.723 282.594 299.387 283 297.941 283C295.012 283 293.547 281.762 293.547 279.285ZM298.539 277.258C296.656 277.258 295.715 277.922 295.715 279.25C295.715 280.578 296.457 281.242 297.941 281.242C299.441 281.242 300.711 280.844 301.75 280.047V277.492C300.68 277.336 299.609 277.258 298.539 277.258ZM309.73 266.242V283H307.562V266.242H309.73ZM315.836 280.832L314.078 285.93H311.91L313.668 280.832H315.836ZM323.758 283V270.695H325.223L325.609 272.266C326.867 271.219 328.25 270.695 329.758 270.695C332.828 270.695 334.363 272.223 334.363 275.277V283H332.195V275.242C332.195 273.414 331.285 272.5 329.465 272.5C328.223 272.5 327.043 273.02 325.926 274.059V283H323.758ZM339.473 276.801C339.473 279.762 340.703 281.242 343.164 281.242C345.625 281.242 346.855 279.762 346.855 276.801C346.855 273.902 345.625 272.453 343.164 272.453C340.703 272.453 339.473 273.902 339.473 276.801ZM337.305 276.848C337.305 272.746 339.258 270.695 343.164 270.695C347.07 270.695 349.023 272.746 349.023 276.848C349.023 280.941 347.07 282.988 343.164 282.988C339.273 282.988 337.32 280.941 337.305 276.848ZM58.9844 299.781C58.2422 299.594 57.3242 299.5 56.2305 299.5C53.6133 299.5 52.3047 300.918 52.3047 303.754C52.3047 306.668 53.543 308.125 56.0195 308.125C57.1445 308.125 58.1328 307.914 58.9844 307.492V299.781ZM61.1523 310C61.1523 312.969 59.2656 314.453 55.4922 314.453C53.9766 314.453 52.6328 314.258 51.4609 313.867V312.109C52.6562 312.5 54.0078 312.695 55.5156 312.695C57.8281 312.695 58.9844 311.797 58.9844 310V309.414C58.0625 309.805 57.0703 310 56.0078 310C52.1172 310 50.1719 307.926 50.1719 303.777C50.1719 299.723 52.2227 297.695 56.3242 297.695C57.9883 297.695 59.5977 297.863 61.1523 298.199V310ZM64.0938 306.285C64.0938 303.762 65.7578 302.5 69.0859 302.5C70.1562 302.5 71.2266 302.578 72.2969 302.734V301.574C72.2969 300.16 71.1914 299.453 68.9805 299.453C67.7148 299.453 66.418 299.648 65.0898 300.039V298.281C66.418 297.891 67.7148 297.695 68.9805 297.695C72.6367 297.695 74.4648 298.969 74.4648 301.516V310H73.2461L72.4961 308.781C71.2695 309.594 69.9336 310 68.4883 310C65.5586 310 64.0938 308.762 64.0938 306.285ZM69.0859 304.258C67.2031 304.258 66.2617 304.922 66.2617 306.25C66.2617 307.578 67.0039 308.242 68.4883 308.242C69.9883 308.242 71.2578 307.844 72.2969 307.047V304.492C71.2266 304.336 70.1562 304.258 69.0859 304.258ZM77.875 309.414V307.539C79.3203 308.008 80.7812 308.242 82.2578 308.242C84.2188 308.242 85.1992 307.656 85.1992 306.484C85.1992 305.391 84.5156 304.844 83.1484 304.844H81.3906C78.7344 304.844 77.4062 303.633 77.4062 301.211C77.4062 298.867 79.1133 297.695 82.5273 297.695C83.9961 297.695 85.4531 297.891 86.8984 298.281V300.156C85.4531 299.688 83.9961 299.453 82.5273 299.453C80.4805 299.453 79.457 300.039 79.457 301.211C79.457 302.305 80.1016 302.852 81.3906 302.852H83.1484C85.9609 302.852 87.3672 304.062 87.3672 306.484C87.3672 308.828 85.6641 310 82.2578 310C80.7812 310 79.3203 309.805 77.875 309.414ZM90.2969 295.703H91.6562L92.125 297.695H95.4531V299.453H92.4648V306.52C92.4648 307.668 92.9609 308.242 93.9531 308.242H95.4531V310H93.3906C91.3281 310 90.2969 308.895 90.2969 306.684V295.703ZM103.293 297.695C106.793 297.695 108.543 299.426 108.543 302.887C108.543 303.379 108.508 303.906 108.438 304.469H99.8008C99.8008 306.984 101.27 308.242 104.207 308.242C105.605 308.242 106.848 308.086 107.934 307.773V309.531C106.848 309.844 105.527 310 103.973 310C99.7461 310 97.6328 307.902 97.6328 303.707C97.6328 299.699 99.5195 297.695 103.293 297.695ZM99.8008 302.664H106.457C106.41 300.508 105.355 299.43 103.293 299.43C101.105 299.43 99.9414 300.508 99.8008 302.664ZM111.344 309.414V307.539C112.789 308.008 114.25 308.242 115.727 308.242C117.688 308.242 118.668 307.656 118.668 306.484C118.668 305.391 117.984 304.844 116.617 304.844H114.859C112.203 304.844 110.875 303.633 110.875 301.211C110.875 298.867 112.582 297.695 115.996 297.695C117.465 297.695 118.922 297.891 120.367 298.281V300.156C118.922 299.688 117.465 299.453 115.996 299.453C113.949 299.453 112.926 300.039 112.926 301.211C112.926 302.305 113.57 302.852 114.859 302.852H116.617C119.43 302.852 120.836 304.062 120.836 306.484C120.836 308.828 119.133 310 115.727 310C114.25 310 112.789 309.805 111.344 309.414ZM137.887 300.203C137.012 299.781 136.012 299.57 134.887 299.57C132.41 299.57 131.172 300.887 131.172 303.52C131.172 306.637 132.41 308.195 134.887 308.195C136.012 308.195 137.012 308.043 137.887 307.738V300.203ZM140.055 309.262C138.562 309.754 136.723 310 134.535 310C130.871 310 129.039 307.867 129.039 303.602C129.039 299.664 130.984 297.695 134.875 297.695C135.938 297.695 136.941 297.891 137.887 298.281V293.242H140.055V309.262ZM148.645 297.695C152.145 297.695 153.895 299.426 153.895 302.887C153.895 303.379 153.859 303.906 153.789 304.469H145.152C145.152 306.984 146.621 308.242 149.559 308.242C150.957 308.242 152.199 308.086 153.285 307.773V309.531C152.199 309.844 150.879 310 149.324 310C145.098 310 142.984 307.902 142.984 303.707C142.984 299.699 144.871 297.695 148.645 297.695ZM145.152 302.664H151.809C151.762 300.508 150.707 299.43 148.645 299.43C146.457 299.43 145.293 300.508 145.152 302.664ZM162.672 310V297.695H164.137L164.5 299.242C165.68 298.211 166.965 297.695 168.355 297.695C170.137 297.695 171.352 298.258 172 299.383C173.336 298.258 174.691 297.695 176.066 297.695C178.895 297.695 180.309 299.254 180.309 302.371V310H178.141V302.254C178.141 300.418 177.367 299.5 175.82 299.5C174.664 299.5 173.582 300.031 172.574 301.094V310H170.406V302.289C170.406 300.43 169.641 299.5 168.109 299.5C166.891 299.5 165.801 300.031 164.84 301.094V310H162.672ZM183.25 306.285C183.25 303.762 184.914 302.5 188.242 302.5C189.312 302.5 190.383 302.578 191.453 302.734V301.574C191.453 300.16 190.348 299.453 188.137 299.453C186.871 299.453 185.574 299.648 184.246 300.039V298.281C185.574 297.891 186.871 297.695 188.137 297.695C191.793 297.695 193.621 298.969 193.621 301.516V310H192.402L191.652 308.781C190.426 309.594 189.09 310 187.645 310C184.715 310 183.25 308.762 183.25 306.285ZM188.242 304.258C186.359 304.258 185.418 304.922 185.418 306.25C185.418 307.578 186.16 308.242 187.645 308.242C189.145 308.242 190.414 307.844 191.453 307.047V304.492C190.383 304.336 189.312 304.258 188.242 304.258ZM188.781 293.242H191.582L188.781 296.043H186.859L188.781 293.242ZM197.031 309.414V307.539C198.477 308.008 199.938 308.242 201.414 308.242C203.375 308.242 204.355 307.656 204.355 306.484C204.355 305.391 203.672 304.844 202.305 304.844H200.547C197.891 304.844 196.562 303.633 196.562 301.211C196.562 298.867 198.27 297.695 201.684 297.695C203.152 297.695 204.609 297.891 206.055 298.281V300.156C204.609 299.688 203.152 299.453 201.684 299.453C199.637 299.453 198.613 300.039 198.613 301.211C198.613 302.305 199.258 302.852 200.547 302.852H202.305C205.117 302.852 206.523 304.062 206.523 306.484C206.523 308.828 204.82 310 201.414 310C199.938 310 198.477 309.805 197.031 309.414ZM220.387 297.695C223.887 297.695 225.637 299.426 225.637 302.887C225.637 303.379 225.602 303.906 225.531 304.469H216.895C216.895 306.984 218.363 308.242 221.301 308.242C222.699 308.242 223.941 308.086 225.027 307.773V309.531C223.941 309.844 222.621 310 221.066 310C216.84 310 214.727 307.902 214.727 303.707C214.727 299.699 216.613 297.695 220.387 297.695ZM216.895 302.664H223.551C223.504 300.508 222.449 299.43 220.387 299.43C218.199 299.43 217.035 300.508 216.895 302.664ZM228.555 310V297.695H230.02L230.406 299.266C231.664 298.219 233.047 297.695 234.555 297.695C237.625 297.695 239.16 299.223 239.16 302.277V310H236.992V302.242C236.992 300.414 236.082 299.5 234.262 299.5C233.02 299.5 231.84 300.02 230.723 301.059V310H228.555ZM52.9258 334.492C53.7773 334.914 54.7266 335.125 55.7734 335.125C58.3281 335.125 59.6055 333.59 59.6055 330.52C59.6055 327.84 58.3359 326.5 55.7969 326.5C54.7031 326.5 53.7461 326.594 52.9258 326.781V334.492ZM50.7578 325.199C52.3906 324.863 54.0781 324.695 55.8203 324.695C59.7656 324.695 61.7383 326.645 61.7383 330.543C61.7383 334.848 59.7539 337 55.7852 337C54.8008 337 53.8477 336.805 52.9258 336.414V341.453H50.7578V325.199ZM75.2852 324.695V337H73.7969L73.4219 335.43C71.9297 336.477 70.4297 337 68.9219 337C66.0938 337 64.6797 335.473 64.6797 332.418V324.695H66.8477V332.453C66.8477 334.281 67.7539 335.195 69.5664 335.195C70.8086 335.195 71.9922 334.676 73.1172 333.637V324.695H75.2852ZM80.9805 334.855C81.6914 335.082 82.5547 335.195 83.5703 335.195C86.3047 335.195 87.6719 333.637 87.6719 330.52C87.6719 327.887 86.4336 326.57 83.957 326.57C82.832 326.57 81.8398 326.781 80.9805 327.203V334.855ZM78.8125 320.242H80.9805V325.281C81.9102 324.891 82.9062 324.695 83.9688 324.695C87.8594 324.695 89.8047 326.664 89.8047 330.602C89.8047 334.867 87.7617 337 83.6758 337C81.9102 337 80.2891 336.832 78.8125 336.496V320.242ZM95.0195 320.242V337H92.8516V320.242H95.0195ZM101.066 324.695V337H98.8984V324.695H101.066ZM101.066 320.242V322.293H98.8984V320.242H101.066ZM114.086 336.648C113.07 336.883 111.977 337 110.805 337C106.43 337 104.242 334.871 104.242 330.613C104.242 326.668 106.43 324.695 110.805 324.695C111.977 324.695 113.07 324.812 114.086 325.047V326.805C113.07 326.57 111.938 326.453 110.688 326.453C107.836 326.453 106.41 327.84 106.41 330.613C106.41 333.699 107.836 335.242 110.688 335.242C111.938 335.242 113.07 335.125 114.086 334.891V336.648ZM119.254 324.695V337H117.086V324.695H119.254ZM119.254 320.242V322.293H117.086V320.242H119.254ZM131.277 327.203C130.402 326.781 129.402 326.57 128.277 326.57C125.801 326.57 124.562 327.887 124.562 330.52C124.562 333.637 125.801 335.195 128.277 335.195C129.402 335.195 130.402 335.043 131.277 334.738V327.203ZM133.445 336.262C131.953 336.754 130.113 337 127.926 337C124.262 337 122.43 334.867 122.43 330.602C122.43 326.664 124.375 324.695 128.266 324.695C129.328 324.695 130.332 324.891 131.277 325.281V320.242H133.445V336.262ZM136.375 333.285C136.375 330.762 138.039 329.5 141.367 329.5C142.438 329.5 143.508 329.578 144.578 329.734V328.574C144.578 327.16 143.473 326.453 141.262 326.453C139.996 326.453 138.699 326.648 137.371 327.039V325.281C138.699 324.891 139.996 324.695 141.262 324.695C144.918 324.695 146.746 325.969 146.746 328.516V337H145.527L144.777 335.781C143.551 336.594 142.215 337 140.77 337C137.84 337 136.375 335.762 136.375 333.285ZM141.367 331.258C139.484 331.258 138.543 331.922 138.543 333.25C138.543 334.578 139.285 335.242 140.77 335.242C142.27 335.242 143.539 334.844 144.578 334.047V331.492C143.508 331.336 142.438 331.258 141.367 331.258ZM158.535 327.203C157.66 326.781 156.66 326.57 155.535 326.57C153.059 326.57 151.82 327.887 151.82 330.52C151.82 333.637 153.059 335.195 155.535 335.195C156.66 335.195 157.66 335.043 158.535 334.738V327.203ZM160.703 336.262C159.211 336.754 157.371 337 155.184 337C151.52 337 149.688 334.867 149.688 330.602C149.688 326.664 151.633 324.695 155.523 324.695C156.586 324.695 157.59 324.891 158.535 325.281V320.242H160.703V336.262ZM166.68 334.832L164.922 339.93H162.754L164.512 334.832H166.68ZM174.016 333.285C174.016 330.762 175.68 329.5 179.008 329.5C180.078 329.5 181.148 329.578 182.219 329.734V328.574C182.219 327.16 181.113 326.453 178.902 326.453C177.637 326.453 176.34 326.648 175.012 327.039V325.281C176.34 324.891 177.637 324.695 178.902 324.695C182.559 324.695 184.387 325.969 184.387 328.516V337H183.168L182.418 335.781C181.191 336.594 179.855 337 178.41 337C175.48 337 174.016 335.762 174.016 333.285ZM179.008 331.258C177.125 331.258 176.184 331.922 176.184 333.25C176.184 334.578 176.926 335.242 178.41 335.242C179.91 335.242 181.18 334.844 182.219 334.047V331.492C181.148 331.336 180.078 331.258 179.008 331.258ZM197.172 336.648C196.156 336.883 195.062 337 193.891 337C189.516 337 187.328 334.871 187.328 330.613C187.328 326.668 189.516 324.695 193.891 324.695C195.062 324.695 196.156 324.812 197.172 325.047V326.805C196.156 326.57 195.023 326.453 193.773 326.453C190.922 326.453 189.496 327.84 189.496 330.613C189.496 333.699 190.922 335.242 193.773 335.242C195.023 335.242 196.156 335.125 197.172 334.891V336.648ZM209.195 336.648C208.18 336.883 207.086 337 205.914 337C201.539 337 199.352 334.871 199.352 330.613C199.352 326.668 201.539 324.695 205.914 324.695C207.086 324.695 208.18 324.812 209.195 325.047V326.805C208.18 326.57 207.047 326.453 205.797 326.453C202.945 326.453 201.52 327.84 201.52 330.613C201.52 333.699 202.945 335.242 205.797 335.242C207.047 335.242 208.18 335.125 209.195 334.891V336.648ZM217.035 324.695C220.535 324.695 222.285 326.426 222.285 329.887C222.285 330.379 222.25 330.906 222.18 331.469H213.543C213.543 333.984 215.012 335.242 217.949 335.242C219.348 335.242 220.59 335.086 221.676 334.773V336.531C220.59 336.844 219.27 337 217.715 337C213.488 337 211.375 334.902 211.375 330.707C211.375 326.699 213.262 324.695 217.035 324.695ZM213.543 329.664H220.199C220.152 327.508 219.098 326.43 217.035 326.43C214.848 326.43 213.684 327.508 213.543 329.664ZM233.465 327.203C232.59 326.781 231.59 326.57 230.465 326.57C227.988 326.57 226.75 327.887 226.75 330.52C226.75 333.637 227.988 335.195 230.465 335.195C231.59 335.195 232.59 335.043 233.465 334.738V327.203ZM235.633 336.262C234.141 336.754 232.301 337 230.113 337C226.449 337 224.617 334.867 224.617 330.602C224.617 326.664 226.562 324.695 230.453 324.695C231.516 324.695 232.52 324.891 233.465 325.281V320.242H235.633V336.262ZM244.223 324.695C247.723 324.695 249.473 326.426 249.473 329.887C249.473 330.379 249.438 330.906 249.367 331.469H240.73C240.73 333.984 242.199 335.242 245.137 335.242C246.535 335.242 247.777 335.086 248.863 334.773V336.531C247.777 336.844 246.457 337 244.902 337C240.676 337 238.562 334.902 238.562 330.707C238.562 326.699 240.449 324.695 244.223 324.695ZM240.73 329.664H247.387C247.34 327.508 246.285 326.43 244.223 326.43C242.035 326.43 240.871 327.508 240.73 329.664ZM257.664 333.285C257.664 330.762 259.328 329.5 262.656 329.5C263.727 329.5 264.797 329.578 265.867 329.734V328.574C265.867 327.16 264.762 326.453 262.551 326.453C261.285 326.453 259.988 326.648 258.66 327.039V325.281C259.988 324.891 261.285 324.695 262.551 324.695C266.207 324.695 268.035 325.969 268.035 328.516V337H266.816L266.066 335.781C264.84 336.594 263.504 337 262.059 337C259.129 337 257.664 335.762 257.664 333.285ZM262.656 331.258C260.773 331.258 259.832 331.922 259.832 333.25C259.832 334.578 260.574 335.242 262.059 335.242C263.559 335.242 264.828 334.844 265.867 334.047V331.492C264.797 331.336 263.727 331.258 262.656 331.258ZM50.7578 364V351.695H52.2227L52.6094 353.266C53.8672 352.219 55.25 351.695 56.7578 351.695C59.8281 351.695 61.3633 353.223 61.3633 356.277V364H59.1953V356.242C59.1953 354.414 58.2852 353.5 56.4648 353.5C55.2227 353.5 54.043 354.02 52.9258 355.059V364H50.7578ZM75.4961 351.695V364H74.0078L73.6328 362.43C72.1406 363.477 70.6406 364 69.1328 364C66.3047 364 64.8906 362.473 64.8906 359.418V351.695H67.0586V359.453C67.0586 361.281 67.9648 362.195 69.7773 362.195C71.0195 362.195 72.2031 361.676 73.3281 360.637V351.695H75.4961ZM84.0977 351.695C87.5977 351.695 89.3477 353.426 89.3477 356.887C89.3477 357.379 89.3125 357.906 89.2422 358.469H80.6055C80.6055 360.984 82.0742 362.242 85.0117 362.242C86.4102 362.242 87.6523 362.086 88.7383 361.773V363.531C87.6523 363.844 86.332 364 84.7773 364C80.5508 364 78.4375 361.902 78.4375 357.707C78.4375 353.699 80.3242 351.695 84.0977 351.695ZM80.6055 356.664H87.2617C87.2148 354.508 86.1602 353.43 84.0977 353.43C81.9102 353.43 80.7461 354.508 80.6055 356.664ZM92.1484 363.414V361.539C93.5938 362.008 95.0547 362.242 96.5312 362.242C98.4922 362.242 99.4727 361.656 99.4727 360.484C99.4727 359.391 98.7891 358.844 97.4219 358.844H95.6641C93.0078 358.844 91.6797 357.633 91.6797 355.211C91.6797 352.867 93.3867 351.695 96.8008 351.695C98.2695 351.695 99.7266 351.891 101.172 352.281V354.156C99.7266 353.688 98.2695 353.453 96.8008 353.453C94.7539 353.453 93.7305 354.039 93.7305 355.211C93.7305 356.305 94.375 356.852 95.6641 356.852H97.4219C100.234 356.852 101.641 358.062 101.641 360.484C101.641 362.828 99.9375 364 96.5312 364C95.0547 364 93.5938 363.805 92.1484 363.414ZM104.57 349.703H105.93L106.398 351.695H109.727V353.453H106.738V360.52C106.738 361.668 107.234 362.242 108.227 362.242H109.727V364H107.664C105.602 364 104.57 362.895 104.57 360.684V349.703ZM112.492 364V351.695H113.957L114.344 353.266C115.422 352.219 116.719 351.695 118.234 351.695V353.5C116.766 353.5 115.574 354.02 114.66 355.059V364H112.492ZM121.996 357.801C121.996 360.762 123.227 362.242 125.688 362.242C128.148 362.242 129.379 360.762 129.379 357.801C129.379 354.902 128.148 353.453 125.688 353.453C123.227 353.453 121.996 354.902 121.996 357.801ZM119.828 357.848C119.828 353.746 121.781 351.695 125.688 351.695C129.594 351.695 131.547 353.746 131.547 357.848C131.547 361.941 129.594 363.988 125.688 363.988C121.797 363.988 119.844 361.941 119.828 357.848ZM134.359 363.414V361.539C135.805 362.008 137.266 362.242 138.742 362.242C140.703 362.242 141.684 361.656 141.684 360.484C141.684 359.391 141 358.844 139.633 358.844H137.875C135.219 358.844 133.891 357.633 133.891 355.211C133.891 352.867 135.598 351.695 139.012 351.695C140.48 351.695 141.938 351.891 143.383 352.281V354.156C141.938 353.688 140.48 353.453 139.012 353.453C136.965 353.453 135.941 354.039 135.941 355.211C135.941 356.305 136.586 356.852 137.875 356.852H139.633C142.445 356.852 143.852 358.062 143.852 360.484C143.852 362.828 142.148 364 138.742 364C137.266 364 135.805 363.805 134.359 363.414ZM154.809 361.492C155.66 361.914 156.609 362.125 157.656 362.125C160.211 362.125 161.488 360.59 161.488 357.52C161.488 354.84 160.219 353.5 157.68 353.5C156.586 353.5 155.629 353.594 154.809 353.781V361.492ZM152.641 352.199C154.273 351.863 155.961 351.695 157.703 351.695C161.648 351.695 163.621 353.645 163.621 357.543C163.621 361.848 161.637 364 157.668 364C156.684 364 155.73 363.805 154.809 363.414V368.453H152.641V352.199ZM165.977 360.285C165.977 357.762 167.641 356.5 170.969 356.5C172.039 356.5 173.109 356.578 174.18 356.734V355.574C174.18 354.16 173.074 353.453 170.863 353.453C169.598 353.453 168.301 353.648 166.973 354.039V352.281C168.301 351.891 169.598 351.695 170.863 351.695C174.52 351.695 176.348 352.969 176.348 355.516V364H175.129L174.379 362.781C173.152 363.594 171.816 364 170.371 364C167.441 364 165.977 362.762 165.977 360.285ZM170.969 358.258C169.086 358.258 168.145 358.922 168.145 360.25C168.145 361.578 168.887 362.242 170.371 362.242C171.871 362.242 173.141 361.844 174.18 361.047V358.492C173.109 358.336 172.039 358.258 170.969 358.258ZM188.102 353.781C187.359 353.594 186.441 353.5 185.348 353.5C182.73 353.5 181.422 354.918 181.422 357.754C181.422 360.668 182.66 362.125 185.137 362.125C186.262 362.125 187.25 361.914 188.102 361.492V353.781ZM190.27 368.453H188.102V363.414C187.18 363.805 186.188 364 185.125 364C181.234 364 179.289 361.926 179.289 357.777C179.289 353.723 181.34 351.695 185.441 351.695C187.105 351.695 188.715 351.863 190.27 352.199V368.453ZM204.402 351.695V364H202.914L202.539 362.43C201.047 363.477 199.547 364 198.039 364C195.211 364 193.797 362.473 193.797 359.418V351.695H195.965V359.453C195.965 361.281 196.871 362.195 198.684 362.195C199.926 362.195 201.109 361.676 202.234 360.637V351.695H204.402ZM213.004 351.695C216.504 351.695 218.254 353.426 218.254 356.887C218.254 357.379 218.219 357.906 218.148 358.469H209.512C209.512 360.984 210.98 362.242 213.918 362.242C215.316 362.242 216.559 362.086 217.645 361.773V363.531C216.559 363.844 215.238 364 213.684 364C209.457 364 207.344 361.902 207.344 357.707C207.344 353.699 209.23 351.695 213.004 351.695ZM209.512 356.664H216.168C216.121 354.508 215.066 353.43 213.004 353.43C210.816 353.43 209.652 354.508 209.512 356.664ZM221.172 349.703H222.531L223 351.695H226.328V353.453H223.34V360.52C223.34 361.668 223.836 362.242 224.828 362.242H226.328V364H224.266C222.203 364 221.172 362.895 221.172 360.684V349.703ZM234.168 351.695C237.668 351.695 239.418 353.426 239.418 356.887C239.418 357.379 239.383 357.906 239.312 358.469H230.676C230.676 360.984 232.145 362.242 235.082 362.242C236.48 362.242 237.723 362.086 238.809 361.773V363.531C237.723 363.844 236.402 364 234.848 364C230.621 364 228.508 361.902 228.508 357.707C228.508 353.699 230.395 351.695 234.168 351.695ZM230.676 356.664H237.332C237.285 354.508 236.23 353.43 234.168 353.43C231.98 353.43 230.816 354.508 230.676 356.664ZM242.219 363.414V361.539C243.664 362.008 245.125 362.242 246.602 362.242C248.562 362.242 249.543 361.656 249.543 360.484C249.543 359.391 248.859 358.844 247.492 358.844H245.734C243.078 358.844 241.75 357.633 241.75 355.211C241.75 352.867 243.457 351.695 246.871 351.695C248.34 351.695 249.797 351.891 251.242 352.281V354.156C249.797 353.688 248.34 353.453 246.871 353.453C244.824 353.453 243.801 354.039 243.801 355.211C243.801 356.305 244.445 356.852 245.734 356.852H247.492C250.305 356.852 251.711 358.062 251.711 360.484C251.711 362.828 250.008 364 246.602 364C245.125 364 243.664 363.805 242.219 363.414ZM52.9258 388.492C53.7773 388.914 54.7266 389.125 55.7734 389.125C58.3281 389.125 59.6055 387.59 59.6055 384.52C59.6055 381.84 58.3359 380.5 55.7969 380.5C54.7031 380.5 53.7461 380.594 52.9258 380.781V388.492ZM50.7578 379.199C52.3906 378.863 54.0781 378.695 55.8203 378.695C59.7656 378.695 61.7383 380.645 61.7383 384.543C61.7383 388.848 59.7539 391 55.7852 391C54.8008 391 53.8477 390.805 52.9258 390.414V395.453H50.7578V379.199ZM64.6797 391V378.695H66.1445L66.5312 380.266C67.6094 379.219 68.9062 378.695 70.4219 378.695V380.5C68.9531 380.5 67.7617 381.02 66.8477 382.059V391H64.6797ZM74.1836 384.801C74.1836 387.762 75.4141 389.242 77.875 389.242C80.3359 389.242 81.5664 387.762 81.5664 384.801C81.5664 381.902 80.3359 380.453 77.875 380.453C75.4141 380.453 74.1836 381.902 74.1836 384.801ZM72.0156 384.848C72.0156 380.746 73.9688 378.695 77.875 378.695C81.7812 378.695 83.7344 380.746 83.7344 384.848C83.7344 388.941 81.7812 390.988 77.875 390.988C73.9844 390.988 72.0312 388.941 72.0156 384.848ZM86.6641 391V378.695H88.1289L88.4922 380.242C89.6719 379.211 90.957 378.695 92.3477 378.695C94.1289 378.695 95.3438 379.258 95.9922 380.383C97.3281 379.258 98.6836 378.695 100.059 378.695C102.887 378.695 104.301 380.254 104.301 383.371V391H102.133V383.254C102.133 381.418 101.359 380.5 99.8125 380.5C98.6562 380.5 97.5742 381.031 96.5664 382.094V391H94.3984V383.289C94.3984 381.43 93.6328 380.5 92.1016 380.5C90.8828 380.5 89.793 381.031 88.832 382.094V391H86.6641ZM109.41 384.801C109.41 387.762 110.641 389.242 113.102 389.242C115.562 389.242 116.793 387.762 116.793 384.801C116.793 381.902 115.562 380.453 113.102 380.453C110.641 380.453 109.41 381.902 109.41 384.801ZM107.242 384.848C107.242 380.746 109.195 378.695 113.102 378.695C117.008 378.695 118.961 380.746 118.961 384.848C118.961 388.941 117.008 390.988 113.102 390.988C109.211 390.988 107.258 388.941 107.242 384.848ZM131.148 390.648C130.133 390.883 129.039 391 127.867 391C123.492 391 121.305 388.871 121.305 384.613C121.305 380.668 123.492 378.695 127.867 378.695C129.039 378.695 130.133 378.812 131.148 379.047V380.805C130.133 380.57 129 380.453 127.75 380.453C124.898 380.453 123.473 381.84 123.473 384.613C123.473 387.699 124.898 389.242 127.75 389.242C129 389.242 130.133 389.125 131.148 388.891V390.648ZM136.316 378.695V391H134.148V378.695H136.316ZM136.316 374.242V376.293H134.148V374.242H136.316ZM141.66 384.801C141.66 387.762 142.891 389.242 145.352 389.242C147.812 389.242 149.043 387.762 149.043 384.801C149.043 381.902 147.812 380.453 145.352 380.453C142.891 380.453 141.66 381.902 141.66 384.801ZM139.492 384.848C139.492 380.746 141.445 378.695 145.352 378.695C149.258 378.695 151.211 380.746 151.211 384.848C151.211 388.941 149.258 390.988 145.352 390.988C141.461 390.988 139.508 388.941 139.492 384.848ZM154.141 391V378.695H155.605L155.992 380.266C157.25 379.219 158.633 378.695 160.141 378.695C163.211 378.695 164.746 380.223 164.746 383.277V391H162.578V383.242C162.578 381.414 161.668 380.5 159.848 380.5C158.605 380.5 157.426 381.02 156.309 382.059V391H154.141ZM167.688 387.285C167.688 384.762 169.352 383.5 172.68 383.5C173.75 383.5 174.82 383.578 175.891 383.734V382.574C175.891 381.16 174.785 380.453 172.574 380.453C171.309 380.453 170.012 380.648 168.684 381.039V379.281C170.012 378.891 171.309 378.695 172.574 378.695C176.23 378.695 178.059 379.969 178.059 382.516V391H176.84L176.09 389.781C174.863 390.594 173.527 391 172.082 391C169.152 391 167.688 389.762 167.688 387.285ZM172.68 385.258C170.797 385.258 169.855 385.922 169.855 387.25C169.855 388.578 170.598 389.242 172.082 389.242C173.582 389.242 174.852 388.844 175.891 388.047V385.492C174.82 385.336 173.75 385.258 172.68 385.258ZM183.871 374.242V391H181.703V374.242H183.871ZM192.59 378.695C196.09 378.695 197.84 380.426 197.84 383.887C197.84 384.379 197.805 384.906 197.734 385.469H189.098C189.098 387.984 190.566 389.242 193.504 389.242C194.902 389.242 196.145 389.086 197.23 388.773V390.531C196.145 390.844 194.824 391 193.27 391C189.043 391 186.93 388.902 186.93 384.707C186.93 380.699 188.816 378.695 192.59 378.695ZM189.098 383.664H195.754C195.707 381.508 194.652 380.43 192.59 380.43C190.402 380.43 189.238 381.508 189.098 383.664ZM200.641 390.414V388.539C202.086 389.008 203.547 389.242 205.023 389.242C206.984 389.242 207.965 388.656 207.965 387.484C207.965 386.391 207.281 385.844 205.914 385.844H204.156C201.5 385.844 200.172 384.633 200.172 382.211C200.172 379.867 201.879 378.695 205.293 378.695C206.762 378.695 208.219 378.891 209.664 379.281V381.156C208.219 380.688 206.762 380.453 205.293 380.453C203.246 380.453 202.223 381.039 202.223 382.211C202.223 383.305 202.867 383.852 204.156 383.852H205.914C208.727 383.852 210.133 385.062 210.133 387.484C210.133 389.828 208.43 391 205.023 391C203.547 391 202.086 390.805 200.641 390.414ZM218.336 387.285C218.336 384.762 220 383.5 223.328 383.5C224.398 383.5 225.469 383.578 226.539 383.734V382.574C226.539 381.16 225.434 380.453 223.223 380.453C221.957 380.453 220.66 380.648 219.332 381.039V379.281C220.66 378.891 221.957 378.695 223.223 378.695C226.879 378.695 228.707 379.969 228.707 382.516V391H227.488L226.738 389.781C225.512 390.594 224.176 391 222.73 391C219.801 391 218.336 389.762 218.336 387.285ZM223.328 385.258C221.445 385.258 220.504 385.922 220.504 387.25C220.504 388.578 221.246 389.242 222.73 389.242C224.23 389.242 225.5 388.844 226.539 388.047V385.492C225.469 385.336 224.398 385.258 223.328 385.258ZM234.52 374.242V391H232.352V374.242H234.52ZM244.023 391V378.695H245.488L245.852 380.242C247.031 379.211 248.316 378.695 249.707 378.695C251.488 378.695 252.703 379.258 253.352 380.383C254.688 379.258 256.043 378.695 257.418 378.695C260.246 378.695 261.66 380.254 261.66 383.371V391H259.492V383.254C259.492 381.418 258.719 380.5 257.172 380.5C256.016 380.5 254.934 381.031 253.926 382.094V391H251.758V383.289C251.758 381.43 250.992 380.5 249.461 380.5C248.242 380.5 247.152 381.031 246.191 382.094V391H244.023ZM270.262 378.695C273.762 378.695 275.512 380.426 275.512 383.887C275.512 384.379 275.477 384.906 275.406 385.469H266.77C266.77 387.984 268.238 389.242 271.176 389.242C272.574 389.242 273.816 389.086 274.902 388.773V390.531C273.816 390.844 272.496 391 270.941 391C266.715 391 264.602 388.902 264.602 384.707C264.602 380.699 266.488 378.695 270.262 378.695ZM266.77 383.664H273.426C273.379 381.508 272.324 380.43 270.262 380.43C268.074 380.43 266.91 381.508 266.77 383.664ZM280.832 378.695V390.062C280.832 392.547 280.227 394.414 279.016 395.664L277.199 394.434C278.176 393.379 278.664 391.922 278.664 390.062V378.695H280.832ZM280.832 374.242V376.293H278.664V374.242H280.832ZM286.176 384.801C286.176 387.762 287.406 389.242 289.867 389.242C292.328 389.242 293.559 387.762 293.559 384.801C293.559 381.902 292.328 380.453 289.867 380.453C287.406 380.453 286.176 381.902 286.176 384.801ZM284.008 384.848C284.008 380.746 285.961 378.695 289.867 378.695C293.773 378.695 295.727 380.746 295.727 384.848C295.727 388.941 293.773 390.988 289.867 390.988C285.977 390.988 284.023 388.941 284.008 384.848ZM298.656 391V378.695H300.121L300.508 380.266C301.586 379.219 302.883 378.695 304.398 378.695V380.5C302.93 380.5 301.738 381.02 300.824 382.059V391H298.656ZM60.0156 417.648C59 417.883 57.9062 418 56.7344 418C52.3594 418 50.1719 415.871 50.1719 411.613C50.1719 407.668 52.3594 405.695 56.7344 405.695C57.9062 405.695 59 405.812 60.0156 406.047V407.805C59 407.57 57.8672 407.453 56.6172 407.453C53.7656 407.453 52.3398 408.84 52.3398 411.613C52.3398 414.699 53.7656 416.242 56.6172 416.242C57.8672 416.242 59 416.125 60.0156 415.891V417.648ZM64.3633 411.801C64.3633 414.762 65.5938 416.242 68.0547 416.242C70.5156 416.242 71.7461 414.762 71.7461 411.801C71.7461 408.902 70.5156 407.453 68.0547 407.453C65.5938 407.453 64.3633 408.902 64.3633 411.801ZM62.1953 411.848C62.1953 407.746 64.1484 405.695 68.0547 405.695C71.9609 405.695 73.9141 407.746 73.9141 411.848C73.9141 415.941 71.9609 417.988 68.0547 417.988C64.1641 417.988 62.2109 415.941 62.1953 411.848ZM76.7266 417.414V415.539C78.1719 416.008 79.6328 416.242 81.1094 416.242C83.0703 416.242 84.0508 415.656 84.0508 414.484C84.0508 413.391 83.3672 412.844 82 412.844H80.2422C77.5859 412.844 76.2578 411.633 76.2578 409.211C76.2578 406.867 77.9648 405.695 81.3789 405.695C82.8477 405.695 84.3047 405.891 85.75 406.281V408.156C84.3047 407.688 82.8477 407.453 81.3789 407.453C79.332 407.453 78.3086 408.039 78.3086 409.211C78.3086 410.305 78.9531 410.852 80.2422 410.852H82C84.8125 410.852 86.2188 412.062 86.2188 414.484C86.2188 416.828 84.5156 418 81.1094 418C79.6328 418 78.1719 417.805 76.7266 417.414ZM89.1484 403.703H90.5078L90.9766 405.695H94.3047V407.453H91.3164V414.52C91.3164 415.668 91.8125 416.242 92.8047 416.242H94.3047V418H92.2422C90.1797 418 89.1484 416.895 89.1484 414.684V403.703ZM98.6523 411.801C98.6523 414.762 99.8828 416.242 102.344 416.242C104.805 416.242 106.035 414.762 106.035 411.801C106.035 408.902 104.805 407.453 102.344 407.453C99.8828 407.453 98.6523 408.902 98.6523 411.801ZM96.4844 411.848C96.4844 407.746 98.4375 405.695 102.344 405.695C106.25 405.695 108.203 407.746 108.203 411.848C108.203 415.941 106.25 417.988 102.344 417.988C98.4531 417.988 96.5 415.941 96.4844 411.848ZM112.715 415.832V418H110.547V415.832H112.715Z" fill="#1E1E1E"/>
<path d="M572.349 194.058V314.146M572.349 314.146V356.177H430.256V314.146M572.349 314.146H610.605V194.058C610.605 176.044 599.674 155.029 583.279 140.018C566.884 125.007 534.093 116 534.093 116H468.512C468.512 116 435.721 125.007 419.326 140.018C402.93 155.029 392 176.044 392 194.058V314.146H430.256M430.256 314.146V194.058" stroke="black" stroke-width="4" stroke-linecap="round" stroke-linejoin="round"/>
<path d="M534.088 116C534.088 125.555 530.634 134.718 524.484 141.475C518.335 148.231 509.994 152.027 501.298 152.027C492.601 152.027 484.26 148.231 478.111 141.475C471.962 134.718 468.507 125.555 468.507 116" stroke="black" stroke-width="4" stroke-linecap="round" stroke-linejoin="round"/>
</svg>
