<svg width="51" height="57" viewBox="0 0 51 57" fill="none" xmlns="http://www.w3.org/2000/svg">
<path d="M21 16L14 8" stroke="black" stroke-width="2" stroke-linecap="round"/>
<path d="M24 14L21 3" stroke="black" stroke-width="2" stroke-linecap="round"/>
<path d="M29 14L30 1" stroke="black" stroke-width="2" stroke-linecap="round"/>
<path d="M20.2309 53.7968L10.6665 43.9102C9.7049 42.8117 9.79483 41.2078 10.6845 40.263L14.9758 35.8271C15.2621 33.5871 14.8262 31.3394 15.0633 29.1405C15.1484 28.3658 15.1018 27.6503 14.9237 26.9939C14.2099 24.7204 12.064 23.4326 11.9585 21.141C13.1713 18.0086 16.9843 16.6956 19.6952 18.0178C21.8872 19.1202 23.1349 21.1895 23.8741 23.4002C26.4031 20.7774 28.9566 18.1802 31.5031 15.5757C33.719 13.6029 36.5755 13.5157 38.5599 15.5386C40.5402 17.5972 40.2693 20.8629 38.4793 22.7869L35.4992 25.8674C35.9849 26.5748 36.3218 27.3235 36.5097 28.1133C37.8999 29.2053 38.7172 30.8398 38.8434 32.4971C45.499 40.2147 32.0435 45.4631 28.4678 48.9419L23.7742 53.7936C22.7048 54.7992 21.1479 54.7195 20.2309 53.7968ZM26.6233 47.1892C29.4597 44.3805 43.1389 38.9047 36.2222 33.6382C36.6861 32.0418 35.6265 30.1478 34.0965 29.839C34.1111 27.9202 33.2205 26.449 31.4047 26.4404C32.2987 25.5163 33.1779 24.5973 34.0421 23.6834C34.9064 22.7696 35.7856 21.8506 36.6796 20.9264C37.6812 19.8466 37.6409 18.3391 36.757 17.4023C35.6753 16.3325 34.1993 16.4705 33.2733 17.4054C29.8054 20.9897 26.3579 24.493 23.141 27.8175C21.1111 25.1207 20.7336 18.9999 16.076 20.037C15.4006 20.2758 14.944 20.5528 14.5565 21.131C14.5167 21.2541 14.5117 21.3413 14.5414 21.3926C14.5711 21.4439 14.6207 21.5259 14.6901 21.6387C16.2278 23.85 17.7852 26.0404 17.5723 28.7766C17.2031 31.6491 18.1718 34.5692 17.1335 37.2256L17.059 37.3026L26.6233 47.1892Z" fill="black"/>
</svg>
