<svg width="146" height="49" viewBox="0 0 146 49" fill="none" xmlns="http://www.w3.org/2000/svg">
<path d="M120 13.8571L114 7" stroke="black" stroke-width="2" stroke-linecap="round"/>
<path d="M122.571 12.1429L120 2.71436" stroke="black" stroke-width="2" stroke-linecap="round"/>
<path d="M126.857 12.1429L127.714 1" stroke="black" stroke-width="2" stroke-linecap="round"/>
<path d="M119.341 46.2545L111.143 37.7803C110.318 36.8387 110.396 35.4639 111.158 34.6541L114.836 30.8519C115.082 28.9319 114.708 27.0053 114.911 25.1205C114.984 24.4565 114.944 23.8432 114.792 23.2806C114.18 21.3318 112.341 20.2281 112.25 18.2638C113.29 15.5789 116.558 14.4535 118.882 15.5868C120.76 16.5317 121.83 18.3054 122.464 20.2003C124.631 17.9522 126.82 15.726 129.003 13.4936C130.902 11.8026 133.35 11.7279 135.051 13.4618C136.749 15.2263 136.517 18.0255 134.982 19.6746L132.428 22.315C132.844 22.9214 133.133 23.5631 133.294 24.2401C134.486 25.176 135.186 26.5771 135.294 27.9976C140.999 34.6127 129.466 39.1114 126.401 42.0931L122.378 46.2518C121.461 47.1137 120.127 47.0454 119.341 46.2545ZM124.82 40.5908C127.251 38.1834 138.976 33.4899 133.048 28.9757C133.445 27.6074 132.537 25.984 131.226 25.7192C131.238 24.0746 130.475 22.8135 128.918 22.8062C129.685 22.0141 130.438 21.2263 131.179 20.4431C131.92 19.6597 132.673 18.872 133.44 18.0799C134.298 17.1544 134.264 15.8622 133.506 15.0592C132.579 14.1423 131.314 14.2605 130.52 15.0619C127.548 18.1341 124.592 21.137 121.835 23.9866C120.095 21.675 119.772 16.4286 115.779 17.3175C115.201 17.5222 114.809 17.7597 114.477 18.2552C114.443 18.3607 114.439 18.4355 114.464 18.4795C114.49 18.5234 114.532 18.5937 114.591 18.6904C115.91 20.5858 117.244 22.4633 117.062 24.8086C116.745 27.2707 117.576 29.7737 116.686 32.0506L116.622 32.1166L124.82 40.5908Z" fill="#181818"/>
<path d="M7.9 28H2V15H7.7V16.2H3.4V20.8H6.9V22H3.4V26.8H7.9V28ZM12.3063 28H10.9063V15H12.3063L16.6463 25V15H18.0463V28H16.6463L12.3063 18V28ZM26.9391 25.5V24.4H28.3391V25.5C28.3391 26.3933 28.0657 27.0867 27.5191 27.58C26.9724 28.06 26.1524 28.3 25.0591 28.3C23.9657 28.3 23.1391 28.06 22.5791 27.58C22.0191 27.0867 21.7391 26.3933 21.7391 25.5V17.5C21.7391 16.6067 22.0124 15.92 22.5591 15.44C23.1057 14.9467 23.9257 14.7 25.0191 14.7C26.1124 14.7 26.9391 14.9467 27.4991 15.44C28.0591 15.92 28.3391 16.6067 28.3391 17.5V19.4H26.9391V17.5C26.9391 16.4333 26.3057 15.9 25.0391 15.9C23.7724 15.9 23.1391 16.4333 23.1391 17.5V25.5C23.1391 26.5667 23.7724 27.1 25.0391 27.1C26.3057 27.1 26.9391 26.5667 26.9391 25.5ZM37.0438 25.5V15H38.4438V25.5C38.4438 26.3933 38.1571 27.0867 37.5838 27.58C37.0238 28.06 36.1771 28.3 35.0438 28.3C33.9238 28.3 33.0771 28.06 32.5038 27.58C31.9304 27.0867 31.6438 26.3933 31.6438 25.5V15H33.0438V25.5C33.0438 26.5667 33.7104 27.1 35.0438 27.1C36.3771 27.1 37.0438 26.5667 37.0438 25.5ZM48.1344 28H42.2344V15H47.9344V16.2H43.6344V20.8H47.1344V22H43.6344V26.8H48.1344V28ZM47.0544 12.14L46.2944 12.9L44.0344 14.04L43.5144 13.52L45.9744 11.06L47.0544 12.14ZM52.5406 28H51.1406V15H52.5406L56.8806 25V15H58.2806V28H56.8806L52.5406 18V28ZM67.4734 15V16.2H64.8734V28H63.4734V16.2H60.8734V15H67.4734ZM71.4664 28H70.0664V15H73.0864C74.1264 15 74.9131 15.2467 75.4464 15.74C75.9931 16.2333 76.2664 16.92 76.2664 17.8V20.6C76.2664 21.96 75.6797 22.8267 74.5064 23.2L76.9664 28H75.4264L73.0864 23.4H71.4664V28ZM74.8664 20.6V17.8C74.8664 17.2933 74.7131 16.9 74.4064 16.62C74.0997 16.34 73.6597 16.2 73.0864 16.2H71.4664V22.2H73.0864C74.2731 22.2 74.8664 21.6667 74.8664 20.6ZM81.5134 15H83.6134L86.5534 28H85.1534L84.4734 25H80.6534L79.9734 28H78.5734L81.5134 15ZM82.5534 16.56L80.9134 23.8H84.1934L82.5534 16.56ZM89.3438 28V15H90.7438V26.8H94.4038V28H89.3438ZM103.305 17.5V25.5C103.305 26.3933 103.018 27.0867 102.445 27.58C101.885 28.06 101.038 28.3 99.9047 28.3C98.7847 28.3 97.938 28.06 97.3647 27.58C96.7914 27.0867 96.5047 26.3933 96.5047 25.5V17.5C96.5047 16.6067 96.7847 15.92 97.3447 15.44C97.918 14.9467 98.7647 14.7 99.8847 14.7C101.018 14.7 101.871 14.9467 102.445 15.44C103.018 15.92 103.305 16.6067 103.305 17.5ZM101.905 25.5V17.5C101.905 16.4333 101.238 15.9 99.9047 15.9C98.5714 15.9 97.9047 16.4333 97.9047 17.5V25.5C97.9047 26.5667 98.5714 27.1 99.9047 27.1C101.238 27.1 101.905 26.5667 101.905 25.5Z" fill="black"/>
<path d="M74.72 43H73.6V32.6H78V33.56H74.72V37.24H77.36V38.2H74.72V43ZM85.2006 43H84.7206L84.3046 41.976C84.0806 42.36 83.7873 42.6693 83.4246 42.904C83.062 43.128 82.662 43.24 82.2246 43.24C80.6886 43.24 79.9206 42.4933 79.9206 41V39.4C79.9206 37.9067 80.6886 37.16 82.2246 37.16H84.0806V34.536C84.0806 34.152 83.958 33.8533 83.7126 33.64C83.4673 33.4267 83.1046 33.32 82.6246 33.32C81.6753 33.32 81.2006 33.7253 81.2006 34.536V35.48H80.0806V34.6C80.0806 33.8853 80.2886 33.336 80.7046 32.952C81.1313 32.5573 81.7713 32.36 82.6246 32.36C83.478 32.36 84.118 32.5573 84.5446 32.952C84.982 33.336 85.2006 33.8853 85.2006 34.6V43ZM84.0806 38.12H82.2246C81.7766 38.12 81.4673 38.232 81.2966 38.456C81.126 38.68 81.0406 38.9947 81.0406 39.4V41C81.0406 41.4053 81.126 41.72 81.2966 41.944C81.4673 42.168 81.7766 42.28 82.2246 42.28C82.6726 42.28 83.0886 42.1093 83.4726 41.768C83.8566 41.416 84.0593 41.0693 84.0806 40.728V38.12ZM84.5446 30.312L83.9366 30.92L82.1286 31.832L81.7126 31.416L83.6806 29.448L84.5446 30.312ZM92.1606 41V40.12H93.2806V41C93.2806 41.7147 93.062 42.2693 92.6246 42.664C92.1873 43.048 91.5313 43.24 90.6566 43.24C89.782 43.24 89.1206 43.048 88.6726 42.664C88.2246 42.2693 88.0006 41.7147 88.0006 41V34.6C88.0006 33.8853 88.2193 33.336 88.6566 32.952C89.094 32.5573 89.75 32.36 90.6246 32.36C91.4993 32.36 92.1606 32.5573 92.6086 32.952C93.0566 33.336 93.2806 33.8853 93.2806 34.6V36.12H92.1606V34.6C92.1606 33.7467 91.654 33.32 90.6406 33.32C89.6273 33.32 89.1206 33.7467 89.1206 34.6V41C89.1206 41.8533 89.6273 42.28 90.6406 42.28C91.654 42.28 92.1606 41.8533 92.1606 41ZM97.2044 43H96.0844V32.6H97.2044V43ZM100.397 43V32.6H101.517V42.04H104.445V43H100.397Z" fill="black"/>
</svg>
