<svg width="778" height="492" viewBox="0 0 778 492" fill="none" xmlns="http://www.w3.org/2000/svg">
<mask id="path-1-inside-1_358_196" fill="white">
<path d="M0 0H778V492H0V0Z"/>
</mask>
<path d="M0 0H778V492H0V0Z" fill="white"/>
<path d="M0 1H778V-1H0V1ZM778 491H0V493H778V491Z" fill="#CCCCCC" mask="url(#path-1-inside-1_358_196)"/>
<path d="M60.8672 102.508C66.6615 102.508 69.5586 99.0964 69.5586 92.2734C69.5586 86.4661 66.6615 83.5625 60.8672 83.5625H55.1055V102.508H60.8672ZM49.9297 107V79.0703H60.8672C70.112 79.0703 74.7344 83.4714 74.7344 92.2734C74.7344 102.091 70.112 107 60.8672 107H49.9297ZM87.3125 86.4922C93.5365 86.4922 96.6484 89.6693 96.6484 96.0234C96.6484 96.8698 96.5898 97.7161 96.4727 98.5625H82.8594C82.8594 101.453 84.9818 102.898 89.2266 102.898C91.2969 102.898 93.3672 102.703 95.4375 102.312V106.414C93.6276 106.805 91.4271 107 88.8359 107C81.401 107 77.6836 103.504 77.6836 96.5117C77.6836 89.832 80.8932 86.4922 87.3125 86.4922ZM82.8594 94.9688H91.6094V94.8125C91.6094 91.974 90.1771 90.5547 87.3125 90.5547C84.5781 90.5547 83.0938 92.026 82.8594 94.9688ZM100.535 106.023V101.727C102.814 102.638 105.444 103.094 108.426 103.094C110.652 103.094 111.766 102.378 111.766 100.945C111.766 99.5781 111.017 98.8945 109.52 98.8945H105.809C101.642 98.8945 99.5586 96.8438 99.5586 92.7422C99.5586 88.4453 102.599 86.2969 108.68 86.2969C111.258 86.2969 113.686 86.6875 115.965 87.4688V91.7656C113.686 90.8542 111.212 90.3984 108.543 90.3984C105.743 90.3984 104.344 91.1146 104.344 92.5469C104.344 93.9141 105.158 94.5977 106.785 94.5977H110.105C114.663 94.5977 116.941 96.6484 116.941 100.75C116.941 105.047 114.038 107.195 108.23 107.195C105.379 107.195 102.814 106.805 100.535 106.023ZM135.711 106.414C134.018 106.805 132.26 107 130.438 107C123.146 107 119.5 103.452 119.5 96.3555C119.5 89.7799 123.146 86.4922 130.438 86.4922C132.26 86.4922 134.018 86.6875 135.711 87.0781V91.1797C134.018 90.7891 132.391 90.5938 130.828 90.5938C126.727 90.5938 124.676 92.5143 124.676 96.3555C124.676 100.717 126.727 102.898 130.828 102.898C132.391 102.898 134.018 102.703 135.711 102.312V106.414ZM157.586 86.4922V107H153.543L152.918 104.383C150.561 106.128 148.061 107 145.418 107C141.225 107 139.129 104.52 139.129 99.5586V86.4922H144.305V99.4219C144.305 101.688 145.294 102.82 147.273 102.82C148.953 102.82 150.665 102.15 152.41 100.809V86.4922H157.586ZM167.664 102.254C168.849 102.632 170.223 102.82 171.785 102.82C174.91 102.82 176.473 100.613 176.473 96.1992C176.473 92.5924 175.125 90.7891 172.43 90.7891C170.685 90.7891 169.096 91.1406 167.664 91.8438V102.254ZM162.488 79.0703H167.664V88.0547C169.214 87.013 170.939 86.4922 172.84 86.4922C178.673 86.4922 181.59 89.7734 181.59 96.3359C181.59 103.445 178.25 107 171.57 107C168.758 107 165.73 106.72 162.488 106.16V79.0703ZM185.496 107V86.4922H189.5L190.145 89.1094C191.941 87.3646 193.842 86.4922 195.848 86.4922V90.6719C193.921 90.6719 192.195 91.4727 190.672 93.0742V107H185.496ZM207.43 86.4922C213.654 86.4922 216.766 89.6693 216.766 96.0234C216.766 96.8698 216.707 97.7161 216.59 98.5625H202.977C202.977 101.453 205.099 102.898 209.344 102.898C211.414 102.898 213.484 102.703 215.555 102.312V106.414C213.745 106.805 211.544 107 208.953 107C201.518 107 197.801 103.504 197.801 96.5117C197.801 89.832 201.01 86.4922 207.43 86.4922ZM202.977 94.9688H211.727V94.8125C211.727 91.974 210.294 90.5547 207.43 90.5547C204.695 90.5547 203.211 92.026 202.977 94.9688ZM247.898 86.4922V107H243.855L243.23 104.383C240.874 106.128 238.374 107 235.73 107C231.538 107 229.441 104.52 229.441 99.5586V86.4922H234.617V99.4219C234.617 101.688 235.607 102.82 237.586 102.82C239.266 102.82 240.978 102.15 242.723 100.809V86.4922H247.898ZM252.801 107V86.4922H256.805L257.449 89.5C259.415 87.4948 261.655 86.4922 264.168 86.4922C269.025 86.4922 271.453 89.0182 271.453 94.0703V107H266.277V94.0703C266.277 91.8047 265.151 90.6719 262.898 90.6719C261.219 90.6719 259.578 91.3424 257.977 92.6836V107H252.801ZM275.379 100.613C275.379 96.5378 278.348 94.5 284.285 94.5C285.678 94.5 287.072 94.6302 288.465 94.8906V93.3477C288.465 91.5117 287.143 90.5938 284.5 90.5938C282.26 90.5938 279.773 90.9193 277.039 91.5703V87.4688C279.773 86.8177 282.26 86.4922 284.5 86.4922C290.594 86.4922 293.641 88.7448 293.641 93.25V107H290.633L288.797 105.164C287.013 106.388 285.047 107 282.898 107C277.885 107 275.379 104.871 275.379 100.613ZM288.465 98.4062C287.163 98.1458 285.77 98.0156 284.285 98.0156C281.798 98.0156 280.555 98.862 280.555 100.555C280.555 102.378 281.596 103.289 283.68 103.289C285.398 103.289 286.993 102.755 288.465 101.688V98.4062ZM320.457 91.1406C319.611 90.8281 318.406 90.6719 316.844 90.6719C313.263 90.6719 311.473 92.6445 311.473 96.5898C311.473 100.405 313.016 102.312 316.102 102.312C317.586 102.312 319.038 101.961 320.457 101.258V91.1406ZM325.633 105.438C325.633 111.427 322.033 114.422 314.832 114.422C312.306 114.422 310.066 114.096 308.113 113.445V109.344C310.105 109.995 312.358 110.32 314.871 110.32C318.595 110.32 320.457 108.758 320.457 105.633C318.921 106.284 317.267 106.609 315.496 106.609C309.402 106.609 306.355 103.283 306.355 96.6289C306.355 89.8711 309.904 86.4922 317 86.4922C319.383 86.4922 322.26 86.7721 325.633 87.332V105.438ZM329.559 100.613C329.559 96.5378 332.527 94.5 338.465 94.5C339.858 94.5 341.251 94.6302 342.645 94.8906V93.3477C342.645 91.5117 341.323 90.5938 338.68 90.5938C336.44 90.5938 333.953 90.9193 331.219 91.5703V87.4688C333.953 86.8177 336.44 86.4922 338.68 86.4922C344.773 86.4922 347.82 88.7448 347.82 93.25V107H344.812L342.977 105.164C341.193 106.388 339.227 107 337.078 107C332.065 107 329.559 104.871 329.559 100.613ZM342.645 98.4062C341.342 98.1458 339.949 98.0156 338.465 98.0156C335.978 98.0156 334.734 98.862 334.734 100.555C334.734 102.378 335.776 103.289 337.859 103.289C339.578 103.289 341.173 102.755 342.645 101.688V98.4062ZM352.723 107V86.4922H356.727L357.332 89.4609C359.168 87.4818 361.375 86.4922 363.953 86.4922C366.531 86.4922 368.296 87.4297 369.246 89.3047C371.342 87.4297 373.536 86.4922 375.828 86.4922C380.542 86.4922 382.898 89.0898 382.898 94.2852V107H377.723V94.0898C377.723 91.8112 376.694 90.6719 374.637 90.6719C373.1 90.6719 371.622 91.362 370.203 92.7422V107H365.027V94.1484C365.027 91.8307 364.077 90.6719 362.176 90.6719C360.665 90.6719 359.24 91.362 357.898 92.7422V107H352.723ZM386.824 100.613C386.824 96.5378 389.793 94.5 395.73 94.5C397.124 94.5 398.517 94.6302 399.91 94.8906V93.3477C399.91 91.5117 398.589 90.5938 395.945 90.5938C393.706 90.5938 391.219 90.9193 388.484 91.5703V87.4688C391.219 86.8177 393.706 86.4922 395.945 86.4922C402.039 86.4922 405.086 88.7448 405.086 93.25V107H402.078L400.242 105.164C398.458 106.388 396.492 107 394.344 107C389.331 107 386.824 104.871 386.824 100.613ZM399.91 98.4062C398.608 98.1458 397.215 98.0156 395.73 98.0156C393.243 98.0156 392 98.862 392 100.555C392 102.378 393.042 103.289 395.125 103.289C396.844 103.289 398.439 102.755 399.91 101.688V98.4062ZM433.914 106.414C432.221 106.805 430.464 107 428.641 107C421.349 107 417.703 103.452 417.703 96.3555C417.703 89.7799 421.349 86.4922 428.641 86.4922C430.464 86.4922 432.221 86.6875 433.914 87.0781V91.1797C432.221 90.7891 430.594 90.5938 429.031 90.5938C424.93 90.5938 422.879 92.5143 422.879 96.3555C422.879 100.717 424.93 102.898 429.031 102.898C430.594 102.898 432.221 102.703 433.914 102.312V106.414ZM441.531 96.668C441.531 100.952 443.191 103.094 446.512 103.094C449.832 103.094 451.492 100.952 451.492 96.668C451.492 92.4883 449.832 90.3984 446.512 90.3984C443.191 90.3984 441.531 92.4883 441.531 96.668ZM436.355 96.7461C436.355 89.8711 439.741 86.4336 446.512 86.4336C453.283 86.4336 456.668 89.8711 456.668 96.7461C456.668 103.608 453.283 107.039 446.512 107.039C439.767 107.039 436.382 103.608 436.355 96.7461ZM460.574 107V86.4922H464.578L465.184 89.4609C467.02 87.4818 469.227 86.4922 471.805 86.4922C474.383 86.4922 476.147 87.4297 477.098 89.3047C479.194 87.4297 481.388 86.4922 483.68 86.4922C488.393 86.4922 490.75 89.0898 490.75 94.2852V107H485.574V94.0898C485.574 91.8112 484.546 90.6719 482.488 90.6719C480.952 90.6719 479.474 91.362 478.055 92.7422V107H472.879V94.1484C472.879 91.8307 471.928 90.6719 470.027 90.6719C468.517 90.6719 467.091 91.362 465.75 92.7422V107H460.574ZM500.828 101.648C502.117 102.352 503.504 102.703 504.988 102.703C508.074 102.703 509.617 100.535 509.617 96.1992C509.617 92.5143 507.911 90.6719 504.5 90.6719C503.029 90.6719 501.805 90.763 500.828 90.9453V101.648ZM495.652 87.332C498.374 86.7721 501.251 86.4922 504.285 86.4922C511.251 86.4922 514.734 89.7409 514.734 96.2383C514.734 103.413 511.492 107 505.008 107C503.628 107 502.234 106.674 500.828 106.023V114.422H495.652V87.332ZM523.836 79.0703V107H518.66V79.0703H523.836ZM537.391 86.4922C543.615 86.4922 546.727 89.6693 546.727 96.0234C546.727 96.8698 546.668 97.7161 546.551 98.5625H532.938C532.938 101.453 535.06 102.898 539.305 102.898C541.375 102.898 543.445 102.703 545.516 102.312V106.414C543.706 106.805 541.505 107 538.914 107C531.479 107 527.762 103.504 527.762 96.5117C527.762 89.832 530.971 86.4922 537.391 86.4922ZM532.938 94.9688H541.688V94.8125C541.688 91.974 540.255 90.5547 537.391 90.5547C534.656 90.5547 533.172 92.026 532.938 94.9688ZM550.32 83.1719H554.148L554.93 86.4922H560.086V90.5938H555.496V100.027C555.496 101.941 556.323 102.898 557.977 102.898H560.086V107H555.477C552.039 107 550.32 105.158 550.32 101.473V83.1719ZM562.645 100.613C562.645 96.5378 565.613 94.5 571.551 94.5C572.944 94.5 574.337 94.6302 575.73 94.8906V93.3477C575.73 91.5117 574.409 90.5938 571.766 90.5938C569.526 90.5938 567.039 90.9193 564.305 91.5703V87.4688C567.039 86.8177 569.526 86.4922 571.766 86.4922C577.859 86.4922 580.906 88.7448 580.906 93.25V107H577.898L576.062 105.164C574.279 106.388 572.312 107 570.164 107C565.151 107 562.645 104.871 562.645 100.613ZM575.73 98.4062C574.428 98.1458 573.035 98.0156 571.551 98.0156C569.064 98.0156 567.82 98.862 567.82 100.555C567.82 102.378 568.862 103.289 570.945 103.289C572.664 103.289 574.259 102.755 575.73 101.688V98.4062ZM607.586 91.8438C606.518 91.1406 605.177 90.7891 603.562 90.7891C600.346 90.7891 598.738 92.5924 598.738 96.1992C598.738 100.483 600.411 102.625 603.758 102.625C605.112 102.625 606.388 102.436 607.586 102.059V91.8438ZM612.762 105.77C609.624 106.59 606.557 107 603.562 107C596.935 107 593.621 103.445 593.621 96.3359C593.621 89.7734 596.863 86.4922 603.348 86.4922C604.728 86.4922 606.141 86.8177 607.586 87.4688V79.0703H612.762V105.77ZM626.297 86.4922C632.521 86.4922 635.633 89.6693 635.633 96.0234C635.633 96.8698 635.574 97.7161 635.457 98.5625H621.844C621.844 101.453 623.966 102.898 628.211 102.898C630.281 102.898 632.352 102.703 634.422 102.312V106.414C632.612 106.805 630.411 107 627.82 107C620.385 107 616.668 103.504 616.668 96.5117C616.668 89.832 619.878 86.4922 626.297 86.4922ZM621.844 94.9688H630.594V94.8125C630.594 91.974 629.161 90.5547 626.297 90.5547C623.562 90.5547 622.078 92.026 621.844 94.9688ZM49.4414 151.023V146.727C51.7201 147.638 54.3503 148.094 57.332 148.094C59.5586 148.094 60.6719 147.378 60.6719 145.945C60.6719 144.578 59.9232 143.895 58.4258 143.895H54.7148C50.5482 143.895 48.4648 141.844 48.4648 137.742C48.4648 133.445 51.5052 131.297 57.5859 131.297C60.1641 131.297 62.5924 131.688 64.8711 132.469V136.766C62.5924 135.854 60.1185 135.398 57.4492 135.398C54.6497 135.398 53.25 136.115 53.25 137.547C53.25 138.914 54.0638 139.598 55.6914 139.598H59.0117C63.569 139.598 65.8477 141.648 65.8477 145.75C65.8477 150.047 62.944 152.195 57.1367 152.195C54.2852 152.195 51.7201 151.805 49.4414 151.023ZM78.1328 131.492C84.3568 131.492 87.4688 134.669 87.4688 141.023C87.4688 141.87 87.4102 142.716 87.293 143.562H73.6797C73.6797 146.453 75.8021 147.898 80.0469 147.898C82.1172 147.898 84.1875 147.703 86.2578 147.312V151.414C84.4479 151.805 82.2474 152 79.6562 152C72.2214 152 68.5039 148.504 68.5039 141.512C68.5039 134.832 71.7135 131.492 78.1328 131.492ZM73.6797 139.969H82.4297V139.812C82.4297 136.974 80.9974 135.555 78.1328 135.555C75.3984 135.555 73.9141 137.026 73.6797 139.969ZM91.3555 152V131.492H95.3594L96.0039 134.109C97.8008 132.365 99.7018 131.492 101.707 131.492V135.672C99.7799 135.672 98.0547 136.473 96.5312 138.074V152H91.3555ZM102.195 131.492H107.664L112.645 145.828L117.82 131.492H123.289L114.949 152H110.027L102.195 131.492ZM130.906 124.07V128.172H125.73V124.07H130.906ZM130.906 131.492V152H125.73V131.492H130.906ZM150.945 151.414C149.253 151.805 147.495 152 145.672 152C138.38 152 134.734 148.452 134.734 141.355C134.734 134.78 138.38 131.492 145.672 131.492C147.495 131.492 149.253 131.688 150.945 132.078V136.18C149.253 135.789 147.625 135.594 146.062 135.594C141.961 135.594 139.91 137.514 139.91 141.355C139.91 145.717 141.961 147.898 146.062 147.898C147.625 147.898 149.253 147.703 150.945 147.312V151.414ZM159.539 124.07V128.172H154.363V124.07H159.539ZM159.539 131.492V152H154.363V131.492H159.539ZM168.641 141.668C168.641 145.952 170.301 148.094 173.621 148.094C176.941 148.094 178.602 145.952 178.602 141.668C178.602 137.488 176.941 135.398 173.621 135.398C170.301 135.398 168.641 137.488 168.641 141.668ZM163.465 141.746C163.465 134.871 166.85 131.434 173.621 131.434C180.392 131.434 183.777 134.871 183.777 141.746C183.777 148.608 180.392 152.039 173.621 152.039C166.876 152.039 163.491 148.608 163.465 141.746ZM187.684 151.023V146.727C189.962 147.638 192.592 148.094 195.574 148.094C197.801 148.094 198.914 147.378 198.914 145.945C198.914 144.578 198.165 143.895 196.668 143.895H192.957C188.79 143.895 186.707 141.844 186.707 137.742C186.707 133.445 189.747 131.297 195.828 131.297C198.406 131.297 200.835 131.688 203.113 132.469V136.766C200.835 135.854 198.361 135.398 195.691 135.398C192.892 135.398 191.492 136.115 191.492 137.547C191.492 138.914 192.306 139.598 193.934 139.598H197.254C201.811 139.598 204.09 141.648 204.09 145.75C204.09 150.047 201.186 152.195 195.379 152.195C192.527 152.195 189.962 151.805 187.684 151.023ZM221.688 146.648C222.977 147.352 224.363 147.703 225.848 147.703C228.934 147.703 230.477 145.535 230.477 141.199C230.477 137.514 228.771 135.672 225.359 135.672C223.888 135.672 222.664 135.763 221.688 135.945V146.648ZM216.512 132.332C219.233 131.772 222.111 131.492 225.145 131.492C232.111 131.492 235.594 134.741 235.594 141.238C235.594 148.413 232.352 152 225.867 152C224.487 152 223.094 151.674 221.688 151.023V159.422H216.512V132.332ZM238.543 145.613C238.543 141.538 241.512 139.5 247.449 139.5C248.842 139.5 250.236 139.63 251.629 139.891V138.348C251.629 136.512 250.307 135.594 247.664 135.594C245.424 135.594 242.938 135.919 240.203 136.57V132.469C242.938 131.818 245.424 131.492 247.664 131.492C253.758 131.492 256.805 133.745 256.805 138.25V152H253.797L251.961 150.164C250.177 151.388 248.211 152 246.062 152C241.049 152 238.543 149.871 238.543 145.613ZM251.629 143.406C250.327 143.146 248.934 143.016 247.449 143.016C244.962 143.016 243.719 143.862 243.719 145.555C243.719 147.378 244.76 148.289 246.844 148.289C248.562 148.289 250.158 147.755 251.629 146.688V143.406ZM261.707 152V131.492H265.711L266.355 134.109C268.152 132.365 270.053 131.492 272.059 131.492V135.672C270.132 135.672 268.406 136.473 266.883 138.074V152H261.707ZM274.012 145.613C274.012 141.538 276.98 139.5 282.918 139.5C284.311 139.5 285.704 139.63 287.098 139.891V138.348C287.098 136.512 285.776 135.594 283.133 135.594C280.893 135.594 278.406 135.919 275.672 136.57V132.469C278.406 131.818 280.893 131.492 283.133 131.492C289.227 131.492 292.273 133.745 292.273 138.25V152H289.266L287.43 150.164C285.646 151.388 283.68 152 281.531 152C276.518 152 274.012 149.871 274.012 145.613ZM287.098 143.406C285.796 143.146 284.402 143.016 282.918 143.016C280.431 143.016 279.188 143.862 279.188 145.555C279.188 147.378 280.229 148.289 282.312 148.289C284.031 148.289 285.626 147.755 287.098 146.688V143.406ZM305.672 128.172H309.5L310.281 131.492H315.438V135.594H310.848V145.027C310.848 146.941 311.674 147.898 313.328 147.898H315.438V152H310.828C307.391 152 305.672 150.158 305.672 146.473V128.172ZM337.43 131.492V152H333.387L332.762 149.383C330.405 151.128 327.905 152 325.262 152C321.069 152 318.973 149.52 318.973 144.559V131.492H324.148V144.422C324.148 146.688 325.138 147.82 327.117 147.82C328.797 147.82 330.509 147.15 332.254 145.809V131.492H337.43ZM366.258 151.414C364.565 151.805 362.807 152 360.984 152C353.693 152 350.047 148.452 350.047 141.355C350.047 134.78 353.693 131.492 360.984 131.492C362.807 131.492 364.565 131.688 366.258 132.078V136.18C364.565 135.789 362.938 135.594 361.375 135.594C357.273 135.594 355.223 137.514 355.223 141.355C355.223 145.717 357.273 147.898 361.375 147.898C362.938 147.898 364.565 147.703 366.258 147.312V151.414ZM373.875 141.668C373.875 145.952 375.535 148.094 378.855 148.094C382.176 148.094 383.836 145.952 383.836 141.668C383.836 137.488 382.176 135.398 378.855 135.398C375.535 135.398 373.875 137.488 373.875 141.668ZM368.699 141.746C368.699 134.871 372.085 131.434 378.855 131.434C385.626 131.434 389.012 134.871 389.012 141.746C389.012 148.608 385.626 152.039 378.855 152.039C372.111 152.039 368.725 148.608 368.699 141.746ZM392.918 152V131.492H396.922L397.527 134.461C399.363 132.482 401.57 131.492 404.148 131.492C406.727 131.492 408.491 132.43 409.441 134.305C411.538 132.43 413.732 131.492 416.023 131.492C420.737 131.492 423.094 134.09 423.094 139.285V152H417.918V139.09C417.918 136.811 416.889 135.672 414.832 135.672C413.296 135.672 411.818 136.362 410.398 137.742V152H405.223V139.148C405.223 136.831 404.272 135.672 402.371 135.672C400.861 135.672 399.435 136.362 398.094 137.742V152H392.918ZM432.195 141.668C432.195 145.952 433.855 148.094 437.176 148.094C440.496 148.094 442.156 145.952 442.156 141.668C442.156 137.488 440.496 135.398 437.176 135.398C433.855 135.398 432.195 137.488 432.195 141.668ZM427.02 141.746C427.02 134.871 430.405 131.434 437.176 131.434C443.947 131.434 447.332 134.871 447.332 141.746C447.332 148.608 443.947 152.039 437.176 152.039C430.431 152.039 427.046 148.608 427.02 141.746ZM464.227 136.844C463.159 136.141 461.818 135.789 460.203 135.789C456.987 135.789 455.379 137.592 455.379 141.199C455.379 145.483 457.052 147.625 460.398 147.625C461.753 147.625 463.029 147.436 464.227 147.059V136.844ZM469.402 150.77C466.264 151.59 463.198 152 460.203 152C453.576 152 450.262 148.445 450.262 141.336C450.262 134.773 453.504 131.492 459.988 131.492C461.368 131.492 462.781 131.818 464.227 132.469V124.07H469.402V150.77ZM479.461 124.07V128.172H474.285V124.07H479.461ZM479.461 131.492V152H474.285V131.492H479.461ZM497.352 136.844C496.284 136.141 494.943 135.789 493.328 135.789C490.112 135.789 488.504 137.592 488.504 141.199C488.504 145.483 490.177 147.625 493.523 147.625C494.878 147.625 496.154 147.436 497.352 147.059V136.844ZM502.527 150.77C499.389 151.59 496.323 152 493.328 152C486.701 152 483.387 148.445 483.387 141.336C483.387 134.773 486.629 131.492 493.113 131.492C494.493 131.492 495.906 131.818 497.352 132.469V124.07H502.527V150.77ZM506.434 145.613C506.434 141.538 509.402 139.5 515.34 139.5C516.733 139.5 518.126 139.63 519.52 139.891V138.348C519.52 136.512 518.198 135.594 515.555 135.594C513.315 135.594 510.828 135.919 508.094 136.57V132.469C510.828 131.818 513.315 131.492 515.555 131.492C521.648 131.492 524.695 133.745 524.695 138.25V152H521.688L519.852 150.164C518.068 151.388 516.102 152 513.953 152C508.94 152 506.434 149.871 506.434 145.613ZM519.52 143.406C518.217 143.146 516.824 143.016 515.34 143.016C512.853 143.016 511.609 143.862 511.609 145.555C511.609 147.378 512.651 148.289 514.734 148.289C516.453 148.289 518.048 147.755 519.52 146.688V143.406ZM542.586 136.844C541.518 136.141 540.177 135.789 538.562 135.789C535.346 135.789 533.738 137.592 533.738 141.199C533.738 145.483 535.411 147.625 538.758 147.625C540.112 147.625 541.388 147.436 542.586 147.059V136.844ZM547.762 150.77C544.624 151.59 541.557 152 538.562 152C531.935 152 528.621 148.445 528.621 141.336C528.621 134.773 531.863 131.492 538.348 131.492C539.728 131.492 541.141 131.818 542.586 132.469V124.07H547.762V150.77Z" fill="#1E1E1E"/>
<path d="M59.1289 205.363C65.2812 205.363 68.3574 201.824 68.3574 194.746C68.3574 188.582 65.2812 185.5 59.1289 185.5H53.2402V205.363H59.1289ZM49.9883 208V182.863H59.1289C67.4492 182.863 71.6094 186.824 71.6094 194.746C71.6094 203.582 67.4492 208 59.1289 208H49.9883ZM83.6152 189.543C88.8652 189.543 91.4902 192.139 91.4902 197.33C91.4902 198.068 91.4375 198.859 91.332 199.703H78.377C78.377 203.477 80.5801 205.363 84.9863 205.363C87.084 205.363 88.9473 205.129 90.5762 204.66V207.297C88.9473 207.766 86.9668 208 84.6348 208C78.2949 208 75.125 204.854 75.125 198.561C75.125 192.549 77.9551 189.543 83.6152 189.543ZM78.377 196.996H88.3613C88.291 193.762 86.709 192.145 83.6152 192.145C80.334 192.145 78.5879 193.762 78.377 196.996ZM95.6914 207.121V204.309C97.8594 205.012 100.051 205.363 102.266 205.363C105.207 205.363 106.678 204.484 106.678 202.727C106.678 201.086 105.652 200.266 103.602 200.266H100.965C96.9805 200.266 94.9883 198.449 94.9883 194.816C94.9883 191.301 97.5488 189.543 102.67 189.543C104.873 189.543 107.059 189.836 109.227 190.422V193.234C107.059 192.531 104.873 192.18 102.67 192.18C99.5996 192.18 98.0645 193.059 98.0645 194.816C98.0645 196.457 99.0312 197.277 100.965 197.277H103.602C107.82 197.277 109.93 199.094 109.93 202.727C109.93 206.242 107.375 208 102.266 208C100.051 208 97.8594 207.707 95.6914 207.121ZM126.717 193.305C125.404 192.672 123.904 192.355 122.217 192.355C118.502 192.355 116.645 194.33 116.645 198.279C116.645 202.955 118.502 205.293 122.217 205.293C123.904 205.293 125.404 205.064 126.717 204.607V193.305ZM129.969 206.893C127.73 207.631 124.971 208 121.689 208C116.193 208 113.445 204.801 113.445 198.402C113.445 192.496 116.363 189.543 122.199 189.543C123.793 189.543 125.299 189.836 126.717 190.422V182.863H129.969V206.893ZM142.854 189.543C148.104 189.543 150.729 192.139 150.729 197.33C150.729 198.068 150.676 198.859 150.57 199.703H137.615C137.615 203.477 139.818 205.363 144.225 205.363C146.322 205.363 148.186 205.129 149.814 204.66V207.297C148.186 207.766 146.205 208 143.873 208C137.533 208 134.363 204.854 134.363 198.561C134.363 192.549 137.193 189.543 142.854 189.543ZM137.615 196.996H147.6C147.529 193.762 145.947 192.145 142.854 192.145C139.572 192.145 137.826 193.762 137.615 196.996ZM198.506 182.863V208H195.254V182.863H198.506ZM207.576 189.543V208H204.324V189.543H207.576ZM207.576 182.863V185.939H204.324V182.863H207.576ZM213.219 208V189.543H215.416L215.961 191.863C217.73 190.316 219.658 189.543 221.744 189.543C224.416 189.543 226.238 190.387 227.211 192.074C229.215 190.387 231.248 189.543 233.311 189.543C237.553 189.543 239.674 191.881 239.674 196.557V208H236.422V196.381C236.422 193.627 235.262 192.25 232.941 192.25C231.207 192.25 229.584 193.047 228.072 194.641V208H224.82V196.434C224.82 193.645 223.672 192.25 221.375 192.25C219.547 192.25 217.912 193.047 216.471 194.641V208H213.219ZM248.217 204.238C249.494 204.871 250.918 205.188 252.488 205.188C256.32 205.188 258.236 202.885 258.236 198.279C258.236 194.26 256.332 192.25 252.523 192.25C250.883 192.25 249.447 192.391 248.217 192.672V204.238ZM244.965 190.299C247.414 189.795 249.945 189.543 252.559 189.543C258.477 189.543 261.436 192.467 261.436 198.314C261.436 204.771 258.459 208 252.506 208C251.029 208 249.6 207.707 248.217 207.121V214.68H244.965V190.299ZM269.451 189.543V208H266.199V189.543H269.451ZM269.451 182.863V185.939H266.199V182.863H269.451ZM282.705 189.543C287.955 189.543 290.58 192.139 290.58 197.33C290.58 198.068 290.527 198.859 290.422 199.703H277.467C277.467 203.477 279.67 205.363 284.076 205.363C286.174 205.363 288.037 205.129 289.666 204.66V207.297C288.037 207.766 286.057 208 283.725 208C277.385 208 274.215 204.854 274.215 198.561C274.215 192.549 277.045 189.543 282.705 189.543ZM277.467 196.996H287.451C287.381 193.762 285.799 192.145 282.705 192.145C279.424 192.145 277.678 193.762 277.467 196.996ZM294.43 189.543H308.844V192.18L297.822 205.539H308.492V208H294.078V205.539L305.24 192.18H294.43V189.543ZM312.359 202.428C312.359 198.643 314.855 196.75 319.848 196.75C321.453 196.75 323.059 196.867 324.664 197.102V195.361C324.664 193.24 323.006 192.18 319.689 192.18C317.791 192.18 315.846 192.473 313.854 193.059V190.422C315.846 189.836 317.791 189.543 319.689 189.543C325.174 189.543 327.916 191.453 327.916 195.273V208H326.088L324.963 206.172C323.123 207.391 321.119 208 318.951 208C314.557 208 312.359 206.143 312.359 202.428ZM319.848 199.387C317.023 199.387 315.611 200.383 315.611 202.375C315.611 204.367 316.725 205.363 318.951 205.363C321.201 205.363 323.105 204.766 324.664 203.57V199.738C323.059 199.504 321.453 199.387 319.848 199.387ZM370.982 189.543H374.516L379.736 203.957L385.133 189.543H388.578L380.914 208.545C379.555 211.896 377.516 213.988 374.797 214.82L373.549 212.518C375.611 211.615 377.111 210.145 378.049 208.105L370.982 189.543ZM49.6367 248V229.543H51.834L52.4141 231.898C54.0312 230.328 55.9766 229.543 58.25 229.543V232.25C56.0469 232.25 54.2598 233.029 52.8887 234.588V248H49.6367ZM69.1309 229.543C74.3809 229.543 77.0059 232.139 77.0059 237.33C77.0059 238.068 76.9531 238.859 76.8477 239.703H63.8926C63.8926 243.477 66.0957 245.363 70.502 245.363C72.5996 245.363 74.4629 245.129 76.0918 244.66V247.297C74.4629 247.766 72.4824 248 70.1504 248C63.8105 248 60.6406 244.854 60.6406 238.561C60.6406 232.549 63.4707 229.543 69.1309 229.543ZM63.8926 236.996H73.877C73.8066 233.762 72.2246 232.145 69.1309 232.145C65.8496 232.145 64.1035 233.762 63.8926 236.996ZM84.6348 244.238C85.9121 244.871 87.3359 245.188 88.9062 245.188C92.7383 245.188 94.6543 242.885 94.6543 238.279C94.6543 234.26 92.75 232.25 88.9414 232.25C87.3008 232.25 85.8652 232.391 84.6348 232.672V244.238ZM81.3828 230.299C83.832 229.795 86.3633 229.543 88.9766 229.543C94.8945 229.543 97.8535 232.467 97.8535 238.314C97.8535 244.771 94.877 248 88.9238 248C87.4473 248 86.0176 247.707 84.6348 247.121V254.68H81.3828V230.299ZM101.387 242.428C101.387 238.643 103.883 236.75 108.875 236.75C110.48 236.75 112.086 236.867 113.691 237.102V235.361C113.691 233.24 112.033 232.18 108.717 232.18C106.818 232.18 104.873 232.473 102.881 233.059V230.422C104.873 229.836 106.818 229.543 108.717 229.543C114.201 229.543 116.943 231.453 116.943 235.273V248H115.115L113.99 246.172C112.15 247.391 110.146 248 107.979 248C103.584 248 101.387 246.143 101.387 242.428ZM108.875 239.387C106.051 239.387 104.639 240.383 104.639 242.375C104.639 244.367 105.752 245.363 107.979 245.363C110.229 245.363 112.133 244.766 113.691 243.57V239.738C112.086 239.504 110.48 239.387 108.875 239.387ZM122.234 248V229.543H124.432L125.012 231.898C126.629 230.328 128.574 229.543 130.848 229.543V232.25C128.645 232.25 126.857 233.029 125.486 234.588V248H122.234ZM133.238 242.428C133.238 238.643 135.734 236.75 140.727 236.75C142.332 236.75 143.938 236.867 145.543 237.102V235.361C145.543 233.24 143.885 232.18 140.568 232.18C138.67 232.18 136.725 232.473 134.732 233.059V230.422C136.725 229.836 138.67 229.543 140.568 229.543C146.053 229.543 148.795 231.453 148.795 235.273V248H146.967L145.842 246.172C144.002 247.391 141.998 248 139.83 248C135.436 248 133.238 246.143 133.238 242.428ZM140.727 239.387C137.902 239.387 136.49 240.383 136.49 242.375C136.49 244.367 137.604 245.363 139.83 245.363C142.08 245.363 143.984 244.766 145.543 243.57V239.738C143.938 239.504 142.332 239.387 140.727 239.387ZM167.973 247.473C166.449 247.824 164.809 248 163.051 248C156.488 248 153.207 244.807 153.207 238.42C153.207 232.502 156.488 229.543 163.051 229.543C164.809 229.543 166.449 229.719 167.973 230.07V232.707C166.449 232.355 164.75 232.18 162.875 232.18C158.598 232.18 156.459 234.26 156.459 238.42C156.459 243.049 158.598 245.363 162.875 245.363C164.75 245.363 166.449 245.188 167.973 244.836V247.473ZM175.725 229.543V248H172.473V229.543H175.725ZM175.725 222.863V225.939H172.473V222.863H175.725ZM183.74 238.701C183.74 243.143 185.586 245.363 189.277 245.363C192.969 245.363 194.814 243.143 194.814 238.701C194.814 234.354 192.969 232.18 189.277 232.18C185.586 232.18 183.74 234.354 183.74 238.701ZM180.488 238.771C180.488 232.619 183.418 229.543 189.277 229.543C195.137 229.543 198.066 232.619 198.066 238.771C198.066 244.912 195.137 247.982 189.277 247.982C183.441 247.982 180.512 244.912 180.488 238.771ZM202.461 248V229.543H204.658L205.238 231.898C207.125 230.328 209.199 229.543 211.461 229.543C216.066 229.543 218.369 231.834 218.369 236.416V248H215.117V236.363C215.117 233.621 213.752 232.25 211.021 232.25C209.158 232.25 207.389 233.029 205.713 234.588V248H202.461ZM231.271 229.543C236.521 229.543 239.146 232.139 239.146 237.33C239.146 238.068 239.094 238.859 238.988 239.703H226.033C226.033 243.477 228.236 245.363 232.643 245.363C234.74 245.363 236.604 245.129 238.232 244.66V247.297C236.604 247.766 234.623 248 232.291 248C225.951 248 222.781 244.854 222.781 238.561C222.781 232.549 225.611 229.543 231.271 229.543ZM226.033 236.996H236.018C235.947 233.762 234.365 232.145 231.271 232.145C227.99 232.145 226.244 233.762 226.033 236.996ZM243.348 247.121V244.309C245.516 245.012 247.707 245.363 249.922 245.363C252.863 245.363 254.334 244.484 254.334 242.727C254.334 241.086 253.309 240.266 251.258 240.266H248.621C244.637 240.266 242.645 238.449 242.645 234.816C242.645 231.301 245.205 229.543 250.326 229.543C252.529 229.543 254.715 229.836 256.883 230.422V233.234C254.715 232.531 252.529 232.18 250.326 232.18C247.256 232.18 245.721 233.059 245.721 234.816C245.721 236.457 246.688 237.277 248.621 237.277H251.258C255.477 237.277 257.586 239.094 257.586 242.727C257.586 246.242 255.031 248 249.922 248C247.707 248 245.516 247.707 243.348 247.121ZM300.16 248V222.863H303.412V231.547C304.982 230.211 306.898 229.543 309.16 229.543C313.766 229.543 316.068 231.834 316.068 236.416V248H312.816V236.363C312.816 233.621 311.451 232.25 308.721 232.25C306.857 232.25 305.088 233.029 303.412 234.588V248H300.16ZM320.48 242.428C320.48 238.643 322.977 236.75 327.969 236.75C329.574 236.75 331.18 236.867 332.785 237.102V235.361C332.785 233.24 331.127 232.18 327.811 232.18C325.912 232.18 323.967 232.473 321.975 233.059V230.422C323.967 229.836 325.912 229.543 327.811 229.543C333.295 229.543 336.037 231.453 336.037 235.273V248H334.209L333.084 246.172C331.244 247.391 329.24 248 327.072 248C322.678 248 320.48 246.143 320.48 242.428ZM327.969 239.387C325.145 239.387 323.732 240.383 323.732 242.375C323.732 244.367 324.846 245.363 327.072 245.363C329.322 245.363 331.227 244.766 332.785 243.57V239.738C331.18 239.504 329.574 239.387 327.969 239.387ZM341.152 247.121V244.309C343.32 245.012 345.512 245.363 347.727 245.363C350.668 245.363 352.139 244.484 352.139 242.727C352.139 241.086 351.113 240.266 349.062 240.266H346.426C342.441 240.266 340.449 238.449 340.449 234.816C340.449 231.301 343.01 229.543 348.131 229.543C350.334 229.543 352.52 229.836 354.688 230.422V233.234C352.52 232.531 350.334 232.18 348.131 232.18C345.061 232.18 343.525 233.059 343.525 234.816C343.525 236.457 344.492 237.277 346.426 237.277H349.062C353.281 237.277 355.391 239.094 355.391 242.727C355.391 246.242 352.836 248 347.727 248C345.512 248 343.32 247.707 341.152 247.121ZM359.785 226.555H361.824L362.527 229.543H367.52V232.18H363.037V242.779C363.037 244.502 363.781 245.363 365.27 245.363H367.52V248H364.426C361.332 248 359.785 246.342 359.785 243.025V226.555ZM370.789 242.428C370.789 238.643 373.285 236.75 378.277 236.75C379.883 236.75 381.488 236.867 383.094 237.102V235.361C383.094 233.24 381.436 232.18 378.119 232.18C376.221 232.18 374.275 232.473 372.283 233.059V230.422C374.275 229.836 376.221 229.543 378.119 229.543C383.604 229.543 386.346 231.453 386.346 235.273V248H384.518L383.393 246.172C381.553 247.391 379.549 248 377.381 248C372.986 248 370.789 246.143 370.789 242.428ZM378.277 239.387C375.453 239.387 374.041 240.383 374.041 242.375C374.041 244.367 375.154 245.363 377.381 245.363C379.631 245.363 381.535 244.766 383.094 243.57V239.738C381.488 239.504 379.883 239.387 378.277 239.387ZM49.4609 287.121V284.309C51.6289 285.012 53.8203 285.363 56.0352 285.363C58.9766 285.363 60.4473 284.484 60.4473 282.727C60.4473 281.086 59.4219 280.266 57.3711 280.266H54.7344C50.75 280.266 48.7578 278.449 48.7578 274.816C48.7578 271.301 51.3184 269.543 56.4395 269.543C58.6426 269.543 60.8281 269.836 62.9961 270.422V273.234C60.8281 272.531 58.6426 272.18 56.4395 272.18C53.3691 272.18 51.834 273.059 51.834 274.816C51.834 276.457 52.8008 277.277 54.7344 277.277H57.3711C61.5898 277.277 63.6992 279.094 63.6992 282.727C63.6992 286.242 61.1445 288 56.0352 288C53.8203 288 51.6289 287.707 49.4609 287.121ZM75.7051 269.543C80.9551 269.543 83.5801 272.139 83.5801 277.33C83.5801 278.068 83.5273 278.859 83.4219 279.703H70.4668C70.4668 283.477 72.6699 285.363 77.0762 285.363C79.1738 285.363 81.0371 285.129 82.666 284.66V287.297C81.0371 287.766 79.0566 288 76.7246 288C70.3848 288 67.2148 284.854 67.2148 278.561C67.2148 272.549 70.0449 269.543 75.7051 269.543ZM70.4668 276.996H80.4512C80.3809 273.762 78.7988 272.145 75.7051 272.145C72.4238 272.145 70.6777 273.762 70.4668 276.996ZM87.957 288V269.543H90.1543L90.7344 271.898C92.3516 270.328 94.2969 269.543 96.5703 269.543V272.25C94.3672 272.25 92.5801 273.029 91.209 274.588V288H87.957ZM97.2031 269.543H100.719L106.01 284.01L111.266 269.543H114.781L107.275 288H104.252L97.2031 269.543ZM121.021 269.543V288H117.77V269.543H121.021ZM121.021 262.863V265.939H117.77V262.863H121.021ZM140.551 287.473C139.027 287.824 137.387 288 135.629 288C129.066 288 125.785 284.807 125.785 278.42C125.785 272.502 129.066 269.543 135.629 269.543C137.387 269.543 139.027 269.719 140.551 270.07V272.707C139.027 272.355 137.328 272.18 135.453 272.18C131.176 272.18 129.037 274.26 129.037 278.42C129.037 283.049 131.176 285.363 135.453 285.363C137.328 285.363 139.027 285.188 140.551 284.836V287.473ZM148.303 269.543V288H145.051V269.543H148.303ZM148.303 262.863V265.939H145.051V262.863H148.303ZM156.318 278.701C156.318 283.143 158.164 285.363 161.855 285.363C165.547 285.363 167.393 283.143 167.393 278.701C167.393 274.354 165.547 272.18 161.855 272.18C158.164 272.18 156.318 274.354 156.318 278.701ZM153.066 278.771C153.066 272.619 155.996 269.543 161.855 269.543C167.715 269.543 170.645 272.619 170.645 278.771C170.645 284.912 167.715 287.982 161.855 287.982C156.02 287.982 153.09 284.912 153.066 278.771ZM174.863 287.121V284.309C177.031 285.012 179.223 285.363 181.438 285.363C184.379 285.363 185.85 284.484 185.85 282.727C185.85 281.086 184.824 280.266 182.773 280.266H180.137C176.152 280.266 174.16 278.449 174.16 274.816C174.16 271.301 176.721 269.543 181.842 269.543C184.045 269.543 186.23 269.836 188.398 270.422V273.234C186.23 272.531 184.045 272.18 181.842 272.18C178.771 272.18 177.236 273.059 177.236 274.816C177.236 276.457 178.203 277.277 180.137 277.277H182.773C186.992 277.277 189.102 279.094 189.102 282.727C189.102 286.242 186.547 288 181.438 288C179.223 288 177.031 287.707 174.863 287.121ZM57.248 309.543C62.498 309.543 65.123 312.139 65.123 317.33C65.123 318.068 65.0703 318.859 64.9648 319.703H52.0098C52.0098 323.477 54.2129 325.363 58.6191 325.363C60.7168 325.363 62.5801 325.129 64.209 324.66V327.297C62.5801 327.766 60.5996 328 58.2676 328C51.9277 328 48.7578 324.854 48.7578 318.561C48.7578 312.549 51.5879 309.543 57.248 309.543ZM52.0098 316.996H61.9941C61.9238 313.762 60.3418 312.145 57.248 312.145C53.9668 312.145 52.2207 313.762 52.0098 316.996ZM69.3242 327.121V324.309C71.4922 325.012 73.6836 325.363 75.8984 325.363C78.8398 325.363 80.3105 324.484 80.3105 322.727C80.3105 321.086 79.2852 320.266 77.2344 320.266H74.5977C70.6133 320.266 68.6211 318.449 68.6211 314.816C68.6211 311.301 71.1816 309.543 76.3027 309.543C78.5059 309.543 80.6914 309.836 82.8594 310.422V313.234C80.6914 312.531 78.5059 312.18 76.3027 312.18C73.2324 312.18 71.6973 313.059 71.6973 314.816C71.6973 316.457 72.6641 317.277 74.5977 317.277H77.2344C81.4531 317.277 83.5625 319.094 83.5625 322.727C83.5625 326.242 81.0078 328 75.8984 328C73.6836 328 71.4922 327.707 69.3242 327.121ZM91.209 324.238C92.4863 324.871 93.9102 325.188 95.4805 325.188C99.3125 325.188 101.229 322.885 101.229 318.279C101.229 314.26 99.3242 312.25 95.5156 312.25C93.875 312.25 92.4395 312.391 91.209 312.672V324.238ZM87.957 310.299C90.4062 309.795 92.9375 309.543 95.5508 309.543C101.469 309.543 104.428 312.467 104.428 318.314C104.428 324.771 101.451 328 95.498 328C94.0215 328 92.5918 327.707 91.209 327.121V334.68H87.957V310.299ZM116.451 309.543C121.701 309.543 124.326 312.139 124.326 317.33C124.326 318.068 124.273 318.859 124.168 319.703H111.213C111.213 323.477 113.416 325.363 117.822 325.363C119.92 325.363 121.783 325.129 123.412 324.66V327.297C121.783 327.766 119.803 328 117.471 328C111.131 328 107.961 324.854 107.961 318.561C107.961 312.549 110.791 309.543 116.451 309.543ZM111.213 316.996H121.197C121.127 313.762 119.545 312.145 116.451 312.145C113.17 312.145 111.424 313.762 111.213 316.996ZM142.59 327.473C141.066 327.824 139.426 328 137.668 328C131.105 328 127.824 324.807 127.824 318.42C127.824 312.502 131.105 309.543 137.668 309.543C139.426 309.543 141.066 309.719 142.59 310.07V312.707C141.066 312.355 139.367 312.18 137.492 312.18C133.215 312.18 131.076 314.26 131.076 318.42C131.076 323.049 133.215 325.363 137.492 325.363C139.367 325.363 141.066 325.188 142.59 324.836V327.473ZM150.342 309.543V328H147.09V309.543H150.342ZM150.342 302.863V305.939H147.09V302.863H150.342ZM155.105 322.428C155.105 318.643 157.602 316.75 162.594 316.75C164.199 316.75 165.805 316.867 167.41 317.102V315.361C167.41 313.24 165.752 312.18 162.436 312.18C160.537 312.18 158.592 312.473 156.6 313.059V310.422C158.592 309.836 160.537 309.543 162.436 309.543C167.92 309.543 170.662 311.453 170.662 315.273V328H168.834L167.709 326.172C165.869 327.391 163.865 328 161.697 328C157.303 328 155.105 326.143 155.105 322.428ZM162.594 319.387C159.77 319.387 158.357 320.383 158.357 322.375C158.357 324.367 159.471 325.363 161.697 325.363C163.947 325.363 165.852 324.766 167.41 323.57V319.738C165.805 319.504 164.199 319.387 162.594 319.387ZM179.381 302.863V328H176.129V302.863H179.381ZM188.451 309.543V328H185.199V309.543H188.451ZM188.451 302.863V305.939H185.199V302.863H188.451ZM193.566 309.543H207.98V312.18L196.959 325.539H207.629V328H193.215V325.539L204.377 312.18H193.566V309.543ZM211.496 322.428C211.496 318.643 213.992 316.75 218.984 316.75C220.59 316.75 222.195 316.867 223.801 317.102V315.361C223.801 313.24 222.143 312.18 218.826 312.18C216.928 312.18 214.982 312.473 212.99 313.059V310.422C214.982 309.836 216.928 309.543 218.826 309.543C224.311 309.543 227.053 311.453 227.053 315.273V328H225.225L224.1 326.172C222.26 327.391 220.256 328 218.088 328C213.693 328 211.496 326.143 211.496 322.428ZM218.984 319.387C216.16 319.387 214.748 320.383 214.748 322.375C214.748 324.367 215.861 325.363 218.088 325.363C220.338 325.363 222.242 324.766 223.801 323.57V319.738C222.195 319.504 220.59 319.387 218.984 319.387ZM244.736 313.305C243.424 312.672 241.924 312.355 240.236 312.355C236.521 312.355 234.664 314.33 234.664 318.279C234.664 322.955 236.521 325.293 240.236 325.293C241.924 325.293 243.424 325.064 244.736 324.607V313.305ZM247.988 326.893C245.75 327.631 242.99 328 239.709 328C234.213 328 231.465 324.801 231.465 318.402C231.465 312.496 234.383 309.543 240.219 309.543C241.812 309.543 243.318 309.836 244.736 310.422V302.863H247.988V326.893ZM255.635 318.701C255.635 323.143 257.48 325.363 261.172 325.363C264.863 325.363 266.709 323.143 266.709 318.701C266.709 314.354 264.863 312.18 261.172 312.18C257.48 312.18 255.635 314.354 255.635 318.701ZM252.383 318.771C252.383 312.619 255.312 309.543 261.172 309.543C267.031 309.543 269.961 312.619 269.961 318.771C269.961 324.912 267.031 327.982 261.172 327.982C255.336 327.982 252.406 324.912 252.383 318.771ZM274.18 327.121V324.309C276.348 325.012 278.539 325.363 280.754 325.363C283.695 325.363 285.166 324.484 285.166 322.727C285.166 321.086 284.141 320.266 282.09 320.266H279.453C275.469 320.266 273.477 318.449 273.477 314.816C273.477 311.301 276.037 309.543 281.158 309.543C283.361 309.543 285.547 309.836 287.715 310.422V313.234C285.547 312.531 283.361 312.18 281.158 312.18C278.088 312.18 276.553 313.059 276.553 314.816C276.553 316.457 277.52 317.277 279.453 317.277H282.09C286.309 317.277 288.418 319.094 288.418 322.727C288.418 326.242 285.863 328 280.754 328C278.539 328 276.348 327.707 274.18 327.121ZM296.504 324.748L293.867 332.395H290.615L293.252 324.748H296.504ZM316.648 306.555H318.688L319.391 309.543H324.383V312.18H319.9V322.779C319.9 324.502 320.645 325.363 322.133 325.363H324.383V328H321.289C318.195 328 316.648 326.342 316.648 323.025V306.555ZM330.904 318.701C330.904 323.143 332.75 325.363 336.441 325.363C340.133 325.363 341.979 323.143 341.979 318.701C341.979 314.354 340.133 312.18 336.441 312.18C332.75 312.18 330.904 314.354 330.904 318.701ZM327.652 318.771C327.652 312.619 330.582 309.543 336.441 309.543C342.301 309.543 345.23 312.619 345.23 318.771C345.23 324.912 342.301 327.982 336.441 327.982C330.605 327.982 327.676 324.912 327.652 318.771ZM362.018 313.305C360.705 312.672 359.205 312.355 357.518 312.355C353.803 312.355 351.945 314.33 351.945 318.279C351.945 322.955 353.803 325.293 357.518 325.293C359.205 325.293 360.705 325.064 362.018 324.607V313.305ZM365.27 326.893C363.031 327.631 360.271 328 356.99 328C351.494 328 348.746 324.801 348.746 318.402C348.746 312.496 351.664 309.543 357.5 309.543C359.094 309.543 360.6 309.836 362.018 310.422V302.863H365.27V326.893ZM372.916 318.701C372.916 323.143 374.762 325.363 378.453 325.363C382.145 325.363 383.99 323.143 383.99 318.701C383.99 314.354 382.145 312.18 378.453 312.18C374.762 312.18 372.916 314.354 372.916 318.701ZM369.664 318.771C369.664 312.619 372.594 309.543 378.453 309.543C384.312 309.543 387.242 312.619 387.242 318.771C387.242 324.912 384.312 327.982 378.453 327.982C372.617 327.982 369.688 324.912 369.664 318.771ZM48.7578 362.428C48.7578 358.643 51.2539 356.75 56.2461 356.75C57.8516 356.75 59.457 356.867 61.0625 357.102V355.361C61.0625 353.24 59.4043 352.18 56.0879 352.18C54.1895 352.18 52.2441 352.473 50.252 353.059V350.422C52.2441 349.836 54.1895 349.543 56.0879 349.543C61.5723 349.543 64.3145 351.453 64.3145 355.273V368H62.4863L61.3613 366.172C59.5215 367.391 57.5176 368 55.3496 368C50.9551 368 48.7578 366.143 48.7578 362.428ZM56.2461 359.387C53.4219 359.387 52.0098 360.383 52.0098 362.375C52.0098 364.367 53.123 365.363 55.3496 365.363C57.5996 365.363 59.5039 364.766 61.0625 363.57V359.738C59.457 359.504 57.8516 359.387 56.2461 359.387ZM147.061 349.543V368H144.828L144.266 365.645C142.027 367.215 139.777 368 137.516 368C133.273 368 131.152 365.709 131.152 361.127V349.543H134.404V361.18C134.404 363.922 135.764 365.293 138.482 365.293C140.346 365.293 142.121 364.514 143.809 362.955V349.543H147.061ZM152.352 368V349.543H154.549L155.129 351.898C157.016 350.328 159.09 349.543 161.352 349.543C165.957 349.543 168.26 351.834 168.26 356.416V368H165.008V356.363C165.008 353.621 163.643 352.25 160.912 352.25C159.049 352.25 157.279 353.029 155.604 354.588V368H152.352ZM248.984 367.473C247.461 367.824 245.82 368 244.062 368C237.5 368 234.219 364.807 234.219 358.42C234.219 352.502 237.5 349.543 244.062 349.543C245.82 349.543 247.461 349.719 248.984 350.07V352.707C247.461 352.355 245.762 352.18 243.887 352.18C239.609 352.18 237.471 354.26 237.471 358.42C237.471 363.049 239.609 365.363 243.887 365.363C245.762 365.363 247.461 365.188 248.984 364.836V367.473ZM256.561 342.863V368H253.309V342.863H256.561ZM265.631 349.543V368H262.379V349.543H265.631ZM265.631 342.863V345.939H262.379V342.863H265.631ZM285.16 367.473C283.637 367.824 281.996 368 280.238 368C273.676 368 270.395 364.807 270.395 358.42C270.395 352.502 273.676 349.543 280.238 349.543C281.996 349.543 283.637 349.719 285.16 350.07V352.707C283.637 352.355 281.938 352.18 280.062 352.18C275.785 352.18 273.646 354.26 273.646 358.42C273.646 363.049 275.785 365.363 280.062 365.363C281.938 365.363 283.637 365.188 285.16 364.836V367.473ZM363.248 353.305C361.936 352.672 360.436 352.355 358.748 352.355C355.033 352.355 353.176 354.33 353.176 358.279C353.176 362.955 355.033 365.293 358.748 365.293C360.436 365.293 361.936 365.064 363.248 364.607V353.305ZM366.5 366.893C364.262 367.631 361.502 368 358.221 368C352.725 368 349.977 364.801 349.977 358.402C349.977 352.496 352.895 349.543 358.73 349.543C360.324 349.543 361.83 349.836 363.248 350.422V342.863H366.5V366.893ZM379.385 349.543C384.635 349.543 387.26 352.139 387.26 357.33C387.26 358.068 387.207 358.859 387.102 359.703H374.146C374.146 363.477 376.35 365.363 380.756 365.363C382.854 365.363 384.717 365.129 386.346 364.66V367.297C384.717 367.766 382.736 368 380.404 368C374.064 368 370.895 364.854 370.895 358.561C370.895 352.549 373.725 349.543 379.385 349.543ZM374.146 356.996H384.131C384.061 353.762 382.479 352.145 379.385 352.145C376.104 352.145 374.357 353.762 374.146 356.996ZM62.0293 393.305C60.7168 392.672 59.2168 392.355 57.5293 392.355C53.8145 392.355 51.957 394.33 51.957 398.279C51.957 402.955 53.8145 405.293 57.5293 405.293C59.2168 405.293 60.7168 405.064 62.0293 404.607V393.305ZM65.2812 406.893C63.043 407.631 60.2832 408 57.002 408C51.5059 408 48.7578 404.801 48.7578 398.402C48.7578 392.496 51.6758 389.543 57.5117 389.543C59.1055 389.543 60.6113 389.836 62.0293 390.422V382.863H65.2812V406.893ZM74.1582 389.543V408H70.9062V389.543H74.1582ZM74.1582 382.863V385.939H70.9062V382.863H74.1582ZM79.625 407.121V404.309C81.793 405.012 83.9844 405.363 86.1992 405.363C89.1406 405.363 90.6113 404.484 90.6113 402.727C90.6113 401.086 89.5859 400.266 87.5352 400.266H84.8984C80.9141 400.266 78.9219 398.449 78.9219 394.816C78.9219 391.301 81.4824 389.543 86.6035 389.543C88.8066 389.543 90.9922 389.836 93.1602 390.422V393.234C90.9922 392.531 88.8066 392.18 86.6035 392.18C83.5332 392.18 81.998 393.059 81.998 394.816C81.998 396.457 82.9648 397.277 84.8984 397.277H87.5352C91.7539 397.277 93.8633 399.094 93.8633 402.727C93.8633 406.242 91.3086 408 86.1992 408C83.9844 408 81.793 407.707 79.625 407.121ZM98.2578 386.555H100.297L101 389.543H105.992V392.18H101.51V402.779C101.51 404.502 102.254 405.363 103.742 405.363H105.992V408H102.898C99.8047 408 98.2578 406.342 98.2578 403.025V386.555ZM109.262 402.428C109.262 398.643 111.758 396.75 116.75 396.75C118.355 396.75 119.961 396.867 121.566 397.102V395.361C121.566 393.24 119.908 392.18 116.592 392.18C114.693 392.18 112.748 392.473 110.756 393.059V390.422C112.748 389.836 114.693 389.543 116.592 389.543C122.076 389.543 124.818 391.453 124.818 395.273V408H122.99L121.865 406.172C120.025 407.391 118.021 408 115.854 408C111.459 408 109.262 406.143 109.262 402.428ZM116.75 399.387C113.926 399.387 112.514 400.383 112.514 402.375C112.514 404.367 113.627 405.363 115.854 405.363C118.104 405.363 120.008 404.766 121.566 403.57V399.738C119.961 399.504 118.355 399.387 116.75 399.387ZM130.109 408V389.543H132.307L132.887 391.898C134.773 390.328 136.848 389.543 139.109 389.543C143.715 389.543 146.018 391.834 146.018 396.416V408H142.766V396.363C142.766 393.621 141.4 392.25 138.67 392.25C136.807 392.25 135.037 393.029 133.361 394.588V408H130.109ZM165.195 407.473C163.672 407.824 162.031 408 160.273 408C153.711 408 150.43 404.807 150.43 398.42C150.43 392.502 153.711 389.543 160.273 389.543C162.031 389.543 163.672 389.719 165.195 390.07V392.707C163.672 392.355 161.973 392.18 160.098 392.18C155.82 392.18 153.682 394.26 153.682 398.42C153.682 403.049 155.82 405.363 160.098 405.363C161.973 405.363 163.672 405.188 165.195 404.836V407.473ZM172.947 389.543V408H169.695V389.543H172.947ZM172.947 382.863V385.939H169.695V382.863H172.947ZM177.711 402.428C177.711 398.643 180.207 396.75 185.199 396.75C186.805 396.75 188.41 396.867 190.016 397.102V395.361C190.016 393.24 188.357 392.18 185.041 392.18C183.143 392.18 181.197 392.473 179.205 393.059V390.422C181.197 389.836 183.143 389.543 185.041 389.543C190.525 389.543 193.268 391.453 193.268 395.273V408H191.439L190.314 406.172C188.475 407.391 186.471 408 184.303 408C179.908 408 177.711 406.143 177.711 402.428ZM185.199 399.387C182.375 399.387 180.963 400.383 180.963 402.375C180.963 404.367 182.076 405.363 184.303 405.363C186.553 405.363 188.457 404.766 190.016 403.57V399.738C188.41 399.504 186.805 399.387 185.199 399.387ZM200.932 404.748V408H197.68V404.748H200.932Z" fill="#1E1E1E"/>
<path d="M436 412V396.267H703V412H436ZM473.127 380.533C467.124 380.533 462.113 378.105 458.093 373.249C454.065 368.403 452.051 362.356 452.051 355.108V201.394C452.051 194.156 454.065 188.115 458.093 183.269C462.121 178.423 467.133 176 473.127 176H665.873C671.876 176 676.887 178.423 680.907 183.269C684.935 188.125 686.949 194.172 686.949 201.409V355.124C686.949 362.361 684.939 368.403 680.92 373.249C676.9 378.095 671.885 380.523 665.873 380.533H473.127ZM473.127 364.8H665.873C667.874 364.8 669.714 363.788 671.393 361.763C673.064 359.75 673.899 357.531 673.899 355.108V201.394C673.899 198.981 673.064 196.768 671.393 194.754C669.714 192.74 667.874 191.733 665.873 191.733H473.127C471.126 191.733 469.286 192.74 467.607 194.754C465.936 196.768 465.101 198.986 465.101 201.409V355.124C465.101 357.536 465.936 359.75 467.607 361.763C469.286 363.788 471.126 364.8 473.127 364.8Z" fill="black"/>
<path d="M655.581 333.501L626.826 303.585C629.631 296.289 628.228 286.803 621.916 280.966C615.604 274.399 606.487 272.94 598.772 276.588L612.097 290.451L602.279 300.667L588.252 286.073C584.745 294.1 586.148 303.585 592.46 310.882C598.772 317.449 607.188 318.908 614.201 315.989L642.956 345.906C644.359 347.365 646.463 347.365 647.164 345.906L654.178 338.609C656.282 336.42 656.282 334.231 655.581 333.501ZM586.148 324.745H509V310.152C509 294.1 534.248 280.966 565.107 280.966C568.614 280.966 572.121 280.966 574.926 281.696C572.822 286.073 572.121 290.451 572.121 295.559C572.121 307.234 577.732 318.178 586.148 324.745ZM565.107 208C549.678 208 537.054 221.134 537.054 237.186C537.054 253.239 549.678 266.373 565.107 266.373C580.537 266.373 593.161 253.239 593.161 237.186C593.161 221.134 580.537 208 565.107 208Z" fill="black"/>
</svg>
