<svg width="1372" height="342" viewBox="0 0 1372 342" fill="none" xmlns="http://www.w3.org/2000/svg">
<mask id="path-1-inside-1_319_27" fill="white">
<path d="M0 0H1372V342H0V0Z"/>
</mask>
<path d="M0 0H1372V342H0V0Z" fill="white"/>
<path d="M0 1H1372V-1H0V1ZM1372 341H0V343H1372V341Z" fill="#CCCCCC" mask="url(#path-1-inside-1_319_27)"/>
<path d="M158.191 65.0703V69.5625H150.184V93H145.008V69.5625H137V65.0703H158.191ZM179.109 72.4922V93H175.066L174.441 90.3828C172.085 92.1276 169.585 93 166.941 93C162.749 93 160.652 90.5195 160.652 85.5586V72.4922H165.828V85.4219C165.828 87.6875 166.818 88.8203 168.797 88.8203C170.477 88.8203 172.189 88.1497 173.934 86.8086V72.4922H179.109ZM197.977 87.6484C199.266 88.3516 200.652 88.7031 202.137 88.7031C205.223 88.7031 206.766 86.5352 206.766 82.1992C206.766 78.5143 205.06 76.6719 201.648 76.6719C200.177 76.6719 198.953 76.763 197.977 76.9453V87.6484ZM192.801 73.332C195.522 72.7721 198.4 72.4922 201.434 72.4922C208.4 72.4922 211.883 75.7409 211.883 82.2383C211.883 89.4128 208.641 93 202.156 93C200.776 93 199.383 92.6745 197.977 92.0234V100.422H192.801V73.332ZM215.809 93V72.4922H219.812L220.457 75.1094C222.254 73.3646 224.155 72.4922 226.16 72.4922V76.6719C224.233 76.6719 222.508 77.4727 220.984 79.0742V93H215.809ZM233.289 82.668C233.289 86.9518 234.949 89.0938 238.27 89.0938C241.59 89.0938 243.25 86.9518 243.25 82.668C243.25 78.4883 241.59 76.3984 238.27 76.3984C234.949 76.3984 233.289 78.4883 233.289 82.668ZM228.113 82.7461C228.113 75.8711 231.499 72.4336 238.27 72.4336C245.04 72.4336 248.426 75.8711 248.426 82.7461C248.426 89.6081 245.04 93.0391 238.27 93.0391C231.525 93.0391 228.139 89.6081 228.113 82.7461ZM238.074 65.0703H244.305L239.637 70.1289H235.262L238.074 65.0703ZM257.566 82.7461L249.891 72.4922H255.652L260.438 78.8984L265.223 72.4922H270.984L263.328 82.7461L270.984 93H265.223L260.438 86.5938L255.652 93H249.891L257.566 82.7461ZM278.602 65.0703V69.1719H273.426V65.0703H278.602ZM278.602 72.4922V93H273.426V72.4922H278.602ZM283.504 93V72.4922H287.508L288.113 75.4609C289.949 73.4818 292.156 72.4922 294.734 72.4922C297.312 72.4922 299.077 73.4297 300.027 75.3047C302.124 73.4297 304.318 72.4922 306.609 72.4922C311.323 72.4922 313.68 75.0898 313.68 80.2852V93H308.504V80.0898C308.504 77.8112 307.475 76.6719 305.418 76.6719C303.882 76.6719 302.404 77.362 300.984 78.7422V93H295.809V80.1484C295.809 77.8307 294.858 76.6719 292.957 76.6719C291.447 76.6719 290.021 77.362 288.68 78.7422V93H283.504ZM322.781 82.668C322.781 86.9518 324.441 89.0938 327.762 89.0938C331.082 89.0938 332.742 86.9518 332.742 82.668C332.742 78.4883 331.082 76.3984 327.762 76.3984C324.441 76.3984 322.781 78.4883 322.781 82.668ZM317.605 82.7461C317.605 75.8711 320.991 72.4336 327.762 72.4336C334.533 72.4336 337.918 75.8711 337.918 82.7461C337.918 89.6081 334.533 93.0391 327.762 93.0391C321.017 93.0391 317.632 89.6081 317.605 82.7461ZM349.637 86.6133C349.637 82.5378 352.605 80.5 358.543 80.5C359.936 80.5 361.329 80.6302 362.723 80.8906V79.3477C362.723 77.5117 361.401 76.5938 358.758 76.5938C356.518 76.5938 354.031 76.9193 351.297 77.5703V73.4688C354.031 72.8177 356.518 72.4922 358.758 72.4922C364.852 72.4922 367.898 74.7448 367.898 79.25V93H364.891L363.055 91.1641C361.271 92.388 359.305 93 357.156 93C352.143 93 349.637 90.8711 349.637 86.6133ZM362.723 84.4062C361.421 84.1458 360.027 84.0156 358.543 84.0156C356.056 84.0156 354.812 84.862 354.812 86.5547C354.812 88.3776 355.854 89.2891 357.938 89.2891C359.656 89.2891 361.251 88.7552 362.723 87.6875V84.4062ZM391.258 72.4922V93H387.215L386.59 90.3828C384.233 92.1276 381.733 93 379.09 93C374.897 93 372.801 90.5195 372.801 85.5586V72.4922H377.977V85.4219C377.977 87.6875 378.966 88.8203 380.945 88.8203C382.625 88.8203 384.337 88.1497 386.082 86.8086V72.4922H391.258ZM395.867 69.1719H399.695L400.477 72.4922H405.633V76.5938H401.043V86.0273C401.043 87.9414 401.87 88.8984 403.523 88.8984H405.633V93H401.023C397.586 93 395.867 91.1576 395.867 87.4727V69.1719ZM413.367 82.668C413.367 86.9518 415.027 89.0938 418.348 89.0938C421.668 89.0938 423.328 86.9518 423.328 82.668C423.328 78.4883 421.668 76.3984 418.348 76.3984C415.027 76.3984 413.367 78.4883 413.367 82.668ZM408.191 82.7461C408.191 75.8711 411.577 72.4336 418.348 72.4336C425.118 72.4336 428.504 75.8711 428.504 82.7461C428.504 89.6081 425.118 93.0391 418.348 93.0391C411.603 93.0391 408.217 89.6081 408.191 82.7461ZM440.223 86.6133C440.223 82.5378 443.191 80.5 449.129 80.5C450.522 80.5 451.915 80.6302 453.309 80.8906V79.3477C453.309 77.5117 451.987 76.5938 449.344 76.5938C447.104 76.5938 444.617 76.9193 441.883 77.5703V73.4688C444.617 72.8177 447.104 72.4922 449.344 72.4922C455.438 72.4922 458.484 74.7448 458.484 79.25V93H455.477L453.641 91.1641C451.857 92.388 449.891 93 447.742 93C442.729 93 440.223 90.8711 440.223 86.6133ZM453.309 84.4062C452.007 84.1458 450.613 84.0156 449.129 84.0156C446.642 84.0156 445.398 84.862 445.398 86.5547C445.398 88.3776 446.44 89.2891 448.523 89.2891C450.242 89.2891 451.837 88.7552 453.309 87.6875V84.4062ZM490.633 72.4922V93H486.59L485.965 90.3828C483.608 92.1276 481.108 93 478.465 93C474.272 93 472.176 90.5195 472.176 85.5586V72.4922H477.352V85.4219C477.352 87.6875 478.341 88.8203 480.32 88.8203C482 88.8203 483.712 88.1497 485.457 86.8086V72.4922H490.633ZM495.535 93V72.4922H499.539L500.184 75.5C502.15 73.4948 504.389 72.4922 506.902 72.4922C511.759 72.4922 514.188 75.0182 514.188 80.0703V93H509.012V80.0703C509.012 77.8047 507.885 76.6719 505.633 76.6719C503.953 76.6719 502.312 77.3424 500.711 78.6836V93H495.535ZM543.016 92.4141C541.323 92.8047 539.565 93 537.742 93C530.451 93 526.805 89.4518 526.805 82.3555C526.805 75.7799 530.451 72.4922 537.742 72.4922C539.565 72.4922 541.323 72.6875 543.016 73.0781V77.1797C541.323 76.7891 539.695 76.5938 538.133 76.5938C534.031 76.5938 531.98 78.5143 531.98 82.3555C531.98 86.7174 534.031 88.8984 538.133 88.8984C539.695 88.8984 541.323 88.7031 543.016 88.3125V92.4141ZM551.609 65.0703V93H546.434V65.0703H551.609ZM561.688 65.0703V69.1719H556.512V65.0703H561.688ZM561.688 72.4922V93H556.512V72.4922H561.688ZM581.727 92.4141C580.034 92.8047 578.276 93 576.453 93C569.161 93 565.516 89.4518 565.516 82.3555C565.516 75.7799 569.161 72.4922 576.453 72.4922C578.276 72.4922 580.034 72.6875 581.727 73.0781V77.1797C580.034 76.7891 578.406 76.5938 576.844 76.5938C572.742 76.5938 570.691 78.5143 570.691 82.3555C570.691 86.7174 572.742 88.8984 576.844 88.8984C578.406 88.8984 580.034 88.7031 581.727 88.3125V92.4141ZM606.922 77.8438C605.854 77.1406 604.513 76.7891 602.898 76.7891C599.682 76.7891 598.074 78.5924 598.074 82.1992C598.074 86.4831 599.747 88.625 603.094 88.625C604.448 88.625 605.724 88.4362 606.922 88.0586V77.8438ZM612.098 91.7695C608.96 92.5898 605.893 93 602.898 93C596.271 93 592.957 89.4453 592.957 82.3359C592.957 75.7734 596.199 72.4922 602.684 72.4922C604.064 72.4922 605.477 72.8177 606.922 73.4688V65.0703H612.098V91.7695ZM625.633 72.4922C631.857 72.4922 634.969 75.6693 634.969 82.0234C634.969 82.8698 634.91 83.7161 634.793 84.5625H621.18C621.18 87.4531 623.302 88.8984 627.547 88.8984C629.617 88.8984 631.688 88.7031 633.758 88.3125V92.4141C631.948 92.8047 629.747 93 627.156 93C619.721 93 616.004 89.5039 616.004 82.5117C616.004 75.832 619.214 72.4922 625.633 72.4922ZM621.18 80.9688H629.93V80.8125C629.93 77.974 628.497 76.5547 625.633 76.5547C622.898 76.5547 621.414 78.026 621.18 80.9688ZM152.43 122.844C151.362 122.141 150.021 121.789 148.406 121.789C145.19 121.789 143.582 123.592 143.582 127.199C143.582 131.483 145.255 133.625 148.602 133.625C149.956 133.625 151.232 133.436 152.43 133.059V122.844ZM157.605 136.77C154.467 137.59 151.401 138 148.406 138C141.779 138 138.465 134.445 138.465 127.336C138.465 120.773 141.707 117.492 148.191 117.492C149.572 117.492 150.984 117.818 152.43 118.469V110.07H157.605V136.77ZM167.664 110.07V114.172H162.488V110.07H167.664ZM167.664 117.492V138H162.488V117.492H167.664ZM172.566 137.023V132.727C174.845 133.638 177.475 134.094 180.457 134.094C182.684 134.094 183.797 133.378 183.797 131.945C183.797 130.578 183.048 129.895 181.551 129.895H177.84C173.673 129.895 171.59 127.844 171.59 123.742C171.59 119.445 174.63 117.297 180.711 117.297C183.289 117.297 185.717 117.688 187.996 118.469V122.766C185.717 121.854 183.243 121.398 180.574 121.398C177.775 121.398 176.375 122.115 176.375 123.547C176.375 124.914 177.189 125.598 178.816 125.598H182.137C186.694 125.598 188.973 127.648 188.973 131.75C188.973 136.047 186.069 138.195 180.262 138.195C177.41 138.195 174.845 137.805 172.566 137.023ZM192.312 114.172H196.141L196.922 117.492H202.078V121.594H197.488V131.027C197.488 132.941 198.315 133.898 199.969 133.898H202.078V138H197.469C194.031 138 192.312 136.158 192.312 132.473V114.172ZM204.637 131.613C204.637 127.538 207.605 125.5 213.543 125.5C214.936 125.5 216.329 125.63 217.723 125.891V124.348C217.723 122.512 216.401 121.594 213.758 121.594C211.518 121.594 209.031 121.919 206.297 122.57V118.469C209.031 117.818 211.518 117.492 213.758 117.492C219.852 117.492 222.898 119.745 222.898 124.25V138H219.891L218.055 136.164C216.271 137.388 214.305 138 212.156 138C207.143 138 204.637 135.871 204.637 131.613ZM217.723 129.406C216.421 129.146 215.027 129.016 213.543 129.016C211.056 129.016 209.812 129.862 209.812 131.555C209.812 133.378 210.854 134.289 212.938 134.289C214.656 134.289 216.251 133.755 217.723 132.688V129.406ZM227.801 138V117.492H231.805L232.449 120.5C234.415 118.495 236.655 117.492 239.168 117.492C244.025 117.492 246.453 120.018 246.453 125.07V138H241.277V125.07C241.277 122.805 240.151 121.672 237.898 121.672C236.219 121.672 234.578 122.342 232.977 123.684V138H227.801ZM266.492 137.414C264.799 137.805 263.042 138 261.219 138C253.927 138 250.281 134.452 250.281 127.355C250.281 120.78 253.927 117.492 261.219 117.492C263.042 117.492 264.799 117.688 266.492 118.078V122.18C264.799 121.789 263.172 121.594 261.609 121.594C257.508 121.594 255.457 123.514 255.457 127.355C255.457 131.717 257.508 133.898 261.609 133.898C263.172 133.898 264.799 133.703 266.492 133.312V137.414ZM275.086 110.07V114.172H269.91V110.07H275.086ZM275.086 117.492V138H269.91V117.492H275.086ZM279.012 131.613C279.012 127.538 281.98 125.5 287.918 125.5C289.311 125.5 290.704 125.63 292.098 125.891V124.348C292.098 122.512 290.776 121.594 288.133 121.594C285.893 121.594 283.406 121.919 280.672 122.57V118.469C283.406 117.818 285.893 117.492 288.133 117.492C294.227 117.492 297.273 119.745 297.273 124.25V138H294.266L292.43 136.164C290.646 137.388 288.68 138 286.531 138C281.518 138 279.012 135.871 279.012 131.613ZM292.098 129.406C290.796 129.146 289.402 129.016 287.918 129.016C285.431 129.016 284.188 129.862 284.188 131.555C284.188 133.378 285.229 134.289 287.312 134.289C289.031 134.289 290.626 133.755 292.098 132.688V129.406Z" fill="#1E1E1E"/>
<path d="M149.949 167.242V169H141.16V174.625H149.539V176.383H141.16V182.242H150.125V184H138.992V167.242H149.949ZM156.312 177.848L151.707 171.695H154.227L157.566 176.16L160.906 171.695H163.426L158.832 177.848L163.426 184H160.906L157.566 179.535L154.227 184H151.707L156.312 177.848ZM167.645 181.492C168.496 181.914 169.445 182.125 170.492 182.125C173.047 182.125 174.324 180.59 174.324 177.52C174.324 174.84 173.055 173.5 170.516 173.5C169.422 173.5 168.465 173.594 167.645 173.781V181.492ZM165.477 172.199C167.109 171.863 168.797 171.695 170.539 171.695C174.484 171.695 176.457 173.645 176.457 177.543C176.457 181.848 174.473 184 170.504 184C169.52 184 168.566 183.805 167.645 183.414V188.453H165.477V172.199ZM181.684 167.242V184H179.516V167.242H181.684ZM186.91 177.801C186.91 180.762 188.141 182.242 190.602 182.242C193.062 182.242 194.293 180.762 194.293 177.801C194.293 174.902 193.062 173.453 190.602 173.453C188.141 173.453 186.91 174.902 186.91 177.801ZM184.742 177.848C184.742 173.746 186.695 171.695 190.602 171.695C194.508 171.695 196.461 173.746 196.461 177.848C196.461 181.941 194.508 183.988 190.602 183.988C186.711 183.988 184.758 181.941 184.742 177.848ZM199.391 184V171.695H200.855L201.242 173.266C202.32 172.219 203.617 171.695 205.133 171.695V173.5C203.664 173.5 202.473 174.02 201.559 175.059V184H199.391ZM206.727 180.285C206.727 177.762 208.391 176.5 211.719 176.5C212.789 176.5 213.859 176.578 214.93 176.734V175.574C214.93 174.16 213.824 173.453 211.613 173.453C210.348 173.453 209.051 173.648 207.723 174.039V172.281C209.051 171.891 210.348 171.695 211.613 171.695C215.27 171.695 217.098 172.969 217.098 175.516V184H215.879L215.129 182.781C213.902 183.594 212.566 184 211.121 184C208.191 184 206.727 182.762 206.727 180.285ZM211.719 178.258C209.836 178.258 208.895 178.922 208.895 180.25C208.895 181.578 209.637 182.242 211.121 182.242C212.621 182.242 213.891 181.844 214.93 181.047V178.492C213.859 178.336 212.789 178.258 211.719 178.258ZM238.133 171.695V184H236.645L236.27 182.43C234.777 183.477 233.277 184 231.77 184C228.941 184 227.527 182.473 227.527 179.418V171.695H229.695V179.453C229.695 181.281 230.602 182.195 232.414 182.195C233.656 182.195 234.84 181.676 235.965 180.637V171.695H238.133ZM241.66 184V171.695H243.125L243.512 173.266C244.77 172.219 246.152 171.695 247.66 171.695C250.73 171.695 252.266 173.223 252.266 176.277V184H250.098V176.242C250.098 174.414 249.188 173.5 247.367 173.5C246.125 173.5 244.945 174.02 243.828 175.059V184H241.66ZM255.207 180.285C255.207 177.762 256.871 176.5 260.199 176.5C261.27 176.5 262.34 176.578 263.41 176.734V175.574C263.41 174.16 262.305 173.453 260.094 173.453C258.828 173.453 257.531 173.648 256.203 174.039V172.281C257.531 171.891 258.828 171.695 260.094 171.695C263.75 171.695 265.578 172.969 265.578 175.516V184H264.359L263.609 182.781C262.383 183.594 261.047 184 259.602 184C256.672 184 255.207 182.762 255.207 180.285ZM260.199 178.258C258.316 178.258 257.375 178.922 257.375 180.25C257.375 181.578 258.117 182.242 259.602 182.242C261.102 182.242 262.371 181.844 263.41 181.047V178.492C262.34 178.336 261.27 178.258 260.199 178.258ZM275.422 180.285C275.422 177.762 277.086 176.5 280.414 176.5C281.484 176.5 282.555 176.578 283.625 176.734V175.574C283.625 174.16 282.52 173.453 280.309 173.453C279.043 173.453 277.746 173.648 276.418 174.039V172.281C277.746 171.891 279.043 171.695 280.309 171.695C283.965 171.695 285.793 172.969 285.793 175.516V184H284.574L283.824 182.781C282.598 183.594 281.262 184 279.816 184C276.887 184 275.422 182.762 275.422 180.285ZM280.414 178.258C278.531 178.258 277.59 178.922 277.59 180.25C277.59 181.578 278.332 182.242 279.816 182.242C281.316 182.242 282.586 181.844 283.625 181.047V178.492C282.555 178.336 281.484 178.258 280.414 178.258ZM289.32 184V171.695H290.785L291.148 173.242C292.328 172.211 293.613 171.695 295.004 171.695C296.785 171.695 298 172.258 298.648 173.383C299.984 172.258 301.34 171.695 302.715 171.695C305.543 171.695 306.957 173.254 306.957 176.371V184H304.789V176.254C304.789 174.418 304.016 173.5 302.469 173.5C301.312 173.5 300.23 174.031 299.223 175.094V184H297.055V176.289C297.055 174.43 296.289 173.5 294.758 173.5C293.539 173.5 292.449 174.031 291.488 175.094V184H289.32ZM312.652 181.492C313.504 181.914 314.453 182.125 315.5 182.125C318.055 182.125 319.332 180.59 319.332 177.52C319.332 174.84 318.062 173.5 315.523 173.5C314.43 173.5 313.473 173.594 312.652 173.781V181.492ZM310.484 172.199C312.117 171.863 313.805 171.695 315.547 171.695C319.492 171.695 321.465 173.645 321.465 177.543C321.465 181.848 319.48 184 315.512 184C314.527 184 313.574 183.805 312.652 183.414V188.453H310.484V172.199ZM326.691 167.242V184H324.523V167.242H326.691ZM332.738 171.695V184H330.57V171.695H332.738ZM332.738 167.242V169.293H330.57V167.242H332.738ZM335.914 180.285C335.914 177.762 337.578 176.5 340.906 176.5C341.977 176.5 343.047 176.578 344.117 176.734V175.574C344.117 174.16 343.012 173.453 340.801 173.453C339.535 173.453 338.238 173.648 336.91 174.039V172.281C338.238 171.891 339.535 171.695 340.801 171.695C344.457 171.695 346.285 172.969 346.285 175.516V184H345.066L344.316 182.781C343.09 183.594 341.754 184 340.309 184C337.379 184 335.914 182.762 335.914 180.285ZM340.906 178.258C339.023 178.258 338.082 178.922 338.082 180.25C338.082 181.578 338.824 182.242 340.309 182.242C341.809 182.242 343.078 181.844 344.117 181.047V178.492C343.047 178.336 341.977 178.258 340.906 178.258ZM356.598 183.414V181.539C358.043 182.008 359.504 182.242 360.98 182.242C362.941 182.242 363.922 181.656 363.922 180.484C363.922 179.391 363.238 178.844 361.871 178.844H360.113C357.457 178.844 356.129 177.633 356.129 175.211C356.129 172.867 357.836 171.695 361.25 171.695C362.719 171.695 364.176 171.891 365.621 172.281V174.156C364.176 173.688 362.719 173.453 361.25 173.453C359.203 173.453 358.18 174.039 358.18 175.211C358.18 176.305 358.824 176.852 360.113 176.852H361.871C364.684 176.852 366.09 178.062 366.09 180.484C366.09 182.828 364.387 184 360.98 184C359.504 184 358.043 183.805 356.598 183.414ZM374.094 171.695C377.594 171.695 379.344 173.426 379.344 176.887C379.344 177.379 379.309 177.906 379.238 178.469H370.602C370.602 180.984 372.07 182.242 375.008 182.242C376.406 182.242 377.648 182.086 378.734 181.773V183.531C377.648 183.844 376.328 184 374.773 184C370.547 184 368.434 181.902 368.434 177.707C368.434 173.699 370.32 171.695 374.094 171.695ZM370.602 176.664H377.258C377.211 174.508 376.156 173.43 374.094 173.43C371.906 173.43 370.742 174.508 370.602 176.664ZM384.547 167.242V184H382.379V167.242H384.547ZM393.266 171.695C396.766 171.695 398.516 173.426 398.516 176.887C398.516 177.379 398.48 177.906 398.41 178.469H389.773C389.773 180.984 391.242 182.242 394.18 182.242C395.578 182.242 396.82 182.086 397.906 181.773V183.531C396.82 183.844 395.5 184 393.945 184C389.719 184 387.605 181.902 387.605 177.707C387.605 173.699 389.492 171.695 393.266 171.695ZM389.773 176.664H396.43C396.383 174.508 395.328 173.43 393.266 173.43C391.078 173.43 389.914 174.508 389.773 176.664ZM410.691 183.648C409.676 183.883 408.582 184 407.41 184C403.035 184 400.848 181.871 400.848 177.613C400.848 173.668 403.035 171.695 407.41 171.695C408.582 171.695 409.676 171.812 410.691 172.047V173.805C409.676 173.57 408.543 173.453 407.293 173.453C404.441 173.453 403.016 174.84 403.016 177.613C403.016 180.699 404.441 182.242 407.293 182.242C408.543 182.242 409.676 182.125 410.691 181.891V183.648ZM422.715 183.648C421.699 183.883 420.605 184 419.434 184C415.059 184 412.871 181.871 412.871 177.613C412.871 173.668 415.059 171.695 419.434 171.695C420.605 171.695 421.699 171.812 422.715 172.047V173.805C421.699 173.57 420.566 173.453 419.316 173.453C416.465 173.453 415.039 174.84 415.039 177.613C415.039 180.699 416.465 182.242 419.316 182.242C420.566 182.242 421.699 182.125 422.715 181.891V183.648ZM427.883 171.695V184H425.715V171.695H427.883ZM427.883 167.242V169.293H425.715V167.242H427.883ZM433.227 177.801C433.227 180.762 434.457 182.242 436.918 182.242C439.379 182.242 440.609 180.762 440.609 177.801C440.609 174.902 439.379 173.453 436.918 173.453C434.457 173.453 433.227 174.902 433.227 177.801ZM431.059 177.848C431.059 173.746 433.012 171.695 436.918 171.695C440.824 171.695 442.777 173.746 442.777 177.848C442.777 181.941 440.824 183.988 436.918 183.988C433.027 183.988 431.074 181.941 431.059 177.848ZM437.27 167.242H440.07L437.27 170.043H435.348L437.27 167.242ZM445.707 184V171.695H447.172L447.559 173.266C448.816 172.219 450.199 171.695 451.707 171.695C454.777 171.695 456.312 173.223 456.312 176.277V184H454.145V176.242C454.145 174.414 453.234 173.5 451.414 173.5C450.172 173.5 448.992 174.02 447.875 175.059V184H445.707ZM475.004 174.203C474.129 173.781 473.129 173.57 472.004 173.57C469.527 173.57 468.289 174.887 468.289 177.52C468.289 180.637 469.527 182.195 472.004 182.195C473.129 182.195 474.129 182.043 475.004 181.738V174.203ZM477.172 183.262C475.68 183.754 473.84 184 471.652 184C467.988 184 466.156 181.867 466.156 177.602C466.156 173.664 468.102 171.695 471.992 171.695C473.055 171.695 474.059 171.891 475.004 172.281V167.242H477.172V183.262ZM485.762 171.695C489.262 171.695 491.012 173.426 491.012 176.887C491.012 177.379 490.977 177.906 490.906 178.469H482.27C482.27 180.984 483.738 182.242 486.676 182.242C488.074 182.242 489.316 182.086 490.402 181.773V183.531C489.316 183.844 487.996 184 486.441 184C482.215 184 480.102 181.902 480.102 177.707C480.102 173.699 481.988 171.695 485.762 171.695ZM482.27 176.664H488.926C488.879 174.508 487.824 173.43 485.762 173.43C483.574 173.43 482.41 174.508 482.27 176.664ZM500.246 180.285C500.246 177.762 501.91 176.5 505.238 176.5C506.309 176.5 507.379 176.578 508.449 176.734V175.574C508.449 174.16 507.344 173.453 505.133 173.453C503.867 173.453 502.57 173.648 501.242 174.039V172.281C502.57 171.891 503.867 171.695 505.133 171.695C508.789 171.695 510.617 172.969 510.617 175.516V184H509.398L508.648 182.781C507.422 183.594 506.086 184 504.641 184C501.711 184 500.246 182.762 500.246 180.285ZM505.238 178.258C503.355 178.258 502.414 178.922 502.414 180.25C502.414 181.578 503.156 182.242 504.641 182.242C506.141 182.242 507.41 181.844 508.449 181.047V178.492C507.379 178.336 506.309 178.258 505.238 178.258ZM524.75 171.695V184H523.262L522.887 182.43C521.395 183.477 519.895 184 518.387 184C515.559 184 514.145 182.473 514.145 179.418V171.695H516.312V179.453C516.312 181.281 517.219 182.195 519.031 182.195C520.273 182.195 521.457 181.676 522.582 180.637V171.695H524.75ZM528.277 169.703H529.637L530.105 171.695H533.434V173.453H530.445V180.52C530.445 181.668 530.941 182.242 531.934 182.242H533.434V184H531.371C529.309 184 528.277 182.895 528.277 180.684V169.703ZM537.781 177.801C537.781 180.762 539.012 182.242 541.473 182.242C543.934 182.242 545.164 180.762 545.164 177.801C545.164 174.902 543.934 173.453 541.473 173.453C539.012 173.453 537.781 174.902 537.781 177.801ZM535.613 177.848C535.613 173.746 537.566 171.695 541.473 171.695C545.379 171.695 547.332 173.746 547.332 177.848C547.332 181.941 545.379 183.988 541.473 183.988C537.582 183.988 535.629 181.941 535.613 177.848ZM550.145 183.414V181.539C551.59 182.008 553.051 182.242 554.527 182.242C556.488 182.242 557.469 181.656 557.469 180.484C557.469 179.391 556.785 178.844 555.418 178.844H553.66C551.004 178.844 549.676 177.633 549.676 175.211C549.676 172.867 551.383 171.695 554.797 171.695C556.266 171.695 557.723 171.891 559.168 172.281V174.156C557.723 173.688 556.266 173.453 554.797 173.453C552.75 173.453 551.727 174.039 551.727 175.211C551.727 176.305 552.371 176.852 553.66 176.852H555.418C558.23 176.852 559.637 178.062 559.637 180.484C559.637 182.828 557.934 184 554.527 184C553.051 184 551.59 183.805 550.145 183.414ZM569.469 184V171.695H570.934L571.32 173.266C572.578 172.219 573.961 171.695 575.469 171.695C578.539 171.695 580.074 173.223 580.074 176.277V184H577.906V176.242C577.906 174.414 576.996 173.5 575.176 173.5C573.934 173.5 572.754 174.02 571.637 175.059V184H569.469ZM594.207 171.695V184H592.719L592.344 182.43C590.852 183.477 589.352 184 587.844 184C585.016 184 583.602 182.473 583.602 179.418V171.695H585.77V179.453C585.77 181.281 586.676 182.195 588.488 182.195C589.73 182.195 590.914 181.676 592.039 180.637V171.695H594.207ZM602.809 171.695C606.309 171.695 608.059 173.426 608.059 176.887C608.059 177.379 608.023 177.906 607.953 178.469H599.316C599.316 180.984 600.785 182.242 603.723 182.242C605.121 182.242 606.363 182.086 607.449 181.773V183.531C606.363 183.844 605.043 184 603.488 184C599.262 184 597.148 181.902 597.148 177.707C597.148 173.699 599.035 171.695 602.809 171.695ZM599.316 176.664H605.973C605.926 174.508 604.871 173.43 602.809 173.43C600.621 173.43 599.457 174.508 599.316 176.664ZM609.219 171.695H611.562L615.09 181.34L618.594 171.695H620.938L615.934 184H613.918L609.219 171.695ZM624.277 177.801C624.277 180.762 625.508 182.242 627.969 182.242C630.43 182.242 631.66 180.762 631.66 177.801C631.66 174.902 630.43 173.453 627.969 173.453C625.508 173.453 624.277 174.902 624.277 177.801ZM622.109 177.848C622.109 173.746 624.062 171.695 627.969 171.695C631.875 171.695 633.828 173.746 633.828 177.848C633.828 181.941 631.875 183.988 627.969 183.988C624.078 183.988 622.125 181.941 622.109 177.848ZM636.641 183.414V181.539C638.086 182.008 639.547 182.242 641.023 182.242C642.984 182.242 643.965 181.656 643.965 180.484C643.965 179.391 643.281 178.844 641.914 178.844H640.156C637.5 178.844 636.172 177.633 636.172 175.211C636.172 172.867 637.879 171.695 641.293 171.695C642.762 171.695 644.219 171.891 645.664 172.281V174.156C644.219 173.688 642.762 173.453 641.293 173.453C639.246 173.453 638.223 174.039 638.223 175.211C638.223 176.305 638.867 176.852 640.156 176.852H641.914C644.727 176.852 646.133 178.062 646.133 180.484C646.133 182.828 644.43 184 641.023 184C639.547 184 638.086 183.805 636.641 183.414ZM654.5 171.695H656.855L660.336 181.305L663.934 171.695H666.23L661.121 184.363C660.215 186.598 658.855 187.992 657.043 188.547L656.211 187.012C657.586 186.41 658.586 185.43 659.211 184.07L654.5 171.695ZM685.777 171.695V184H684.289L683.914 182.43C682.422 183.477 680.922 184 679.414 184C676.586 184 675.172 182.473 675.172 179.418V171.695H677.34V179.453C677.34 181.281 678.246 182.195 680.059 182.195C681.301 182.195 682.484 181.676 683.609 180.637V171.695H685.777ZM689.188 183.414V181.539C690.633 182.008 692.094 182.242 693.57 182.242C695.531 182.242 696.512 181.656 696.512 180.484C696.512 179.391 695.828 178.844 694.461 178.844H692.703C690.047 178.844 688.719 177.633 688.719 175.211C688.719 172.867 690.426 171.695 693.84 171.695C695.309 171.695 696.766 171.891 698.211 172.281V174.156C696.766 173.688 695.309 173.453 693.84 173.453C691.793 173.453 690.77 174.039 690.77 175.211C690.77 176.305 691.414 176.852 692.703 176.852H694.461C697.273 176.852 698.68 178.062 698.68 180.484C698.68 182.828 696.977 184 693.57 184C692.094 184 690.633 183.805 689.188 183.414ZM701.023 180.285C701.023 177.762 702.688 176.5 706.016 176.5C707.086 176.5 708.156 176.578 709.227 176.734V175.574C709.227 174.16 708.121 173.453 705.91 173.453C704.645 173.453 703.348 173.648 702.02 174.039V172.281C703.348 171.891 704.645 171.695 705.91 171.695C709.566 171.695 711.395 172.969 711.395 175.516V184H710.176L709.426 182.781C708.199 183.594 706.863 184 705.418 184C702.488 184 701.023 182.762 701.023 180.285ZM706.016 178.258C704.133 178.258 703.191 178.922 703.191 180.25C703.191 181.578 703.934 182.242 705.418 182.242C706.918 182.242 708.188 181.844 709.227 181.047V178.492C708.156 178.336 707.086 178.258 706.016 178.258ZM723.184 174.203C722.309 173.781 721.309 173.57 720.184 173.57C717.707 173.57 716.469 174.887 716.469 177.52C716.469 180.637 717.707 182.195 720.184 182.195C721.309 182.195 722.309 182.043 723.184 181.738V174.203ZM725.352 183.262C723.859 183.754 722.02 184 719.832 184C716.168 184 714.336 181.867 714.336 177.602C714.336 173.664 716.281 171.695 720.172 171.695C721.234 171.695 722.238 171.891 723.184 172.281V167.242H725.352V183.262ZM730.449 177.801C730.449 180.762 731.68 182.242 734.141 182.242C736.602 182.242 737.832 180.762 737.832 177.801C737.832 174.902 736.602 173.453 734.141 173.453C731.68 173.453 730.449 174.902 730.449 177.801ZM728.281 177.848C728.281 173.746 730.234 171.695 734.141 171.695C738.047 171.695 740 173.746 740 177.848C740 181.941 738.047 183.988 734.141 183.988C730.25 183.988 728.297 181.941 728.281 177.848ZM742.812 183.414V181.539C744.258 182.008 745.719 182.242 747.195 182.242C749.156 182.242 750.137 181.656 750.137 180.484C750.137 179.391 749.453 178.844 748.086 178.844H746.328C743.672 178.844 742.344 177.633 742.344 175.211C742.344 172.867 744.051 171.695 747.465 171.695C748.934 171.695 750.391 171.891 751.836 172.281V174.156C750.391 173.688 748.934 173.453 747.465 173.453C745.418 173.453 744.395 174.039 744.395 175.211C744.395 176.305 745.039 176.852 746.328 176.852H748.086C750.898 176.852 752.305 178.062 752.305 180.484C752.305 182.828 750.602 184 747.195 184C745.719 184 744.258 183.805 742.812 183.414ZM757.695 181.832L755.938 186.93H753.77L755.527 181.832H757.695ZM148.016 210.648C147 210.883 145.906 211 144.734 211C140.359 211 138.172 208.871 138.172 204.613C138.172 200.668 140.359 198.695 144.734 198.695C145.906 198.695 147 198.812 148.016 199.047V200.805C147 200.57 145.867 200.453 144.617 200.453C141.766 200.453 140.34 201.84 140.34 204.613C140.34 207.699 141.766 209.242 144.617 209.242C145.867 209.242 147 209.125 148.016 208.891V210.648ZM152.363 204.801C152.363 207.762 153.594 209.242 156.055 209.242C158.516 209.242 159.746 207.762 159.746 204.801C159.746 201.902 158.516 200.453 156.055 200.453C153.594 200.453 152.363 201.902 152.363 204.801ZM150.195 204.848C150.195 200.746 152.148 198.695 156.055 198.695C159.961 198.695 161.914 200.746 161.914 204.848C161.914 208.941 159.961 210.988 156.055 210.988C152.164 210.988 150.211 208.941 150.195 204.848ZM164.844 211V198.695H166.309L166.695 200.266C167.953 199.219 169.336 198.695 170.844 198.695C173.914 198.695 175.449 200.223 175.449 203.277V211H173.281V203.242C173.281 201.414 172.371 200.5 170.551 200.5C169.309 200.5 168.129 201.02 167.012 202.059V211H164.844ZM187.121 194.242V211H184.953V194.242H187.121ZM192.348 204.801C192.348 207.762 193.578 209.242 196.039 209.242C198.5 209.242 199.73 207.762 199.73 204.801C199.73 201.902 198.5 200.453 196.039 200.453C193.578 200.453 192.348 201.902 192.348 204.801ZM190.18 204.848C190.18 200.746 192.133 198.695 196.039 198.695C199.945 198.695 201.898 200.746 201.898 204.848C201.898 208.941 199.945 210.988 196.039 210.988C192.148 210.988 190.195 208.941 190.18 204.848ZM204.711 210.414V208.539C206.156 209.008 207.617 209.242 209.094 209.242C211.055 209.242 212.035 208.656 212.035 207.484C212.035 206.391 211.352 205.844 209.984 205.844H208.227C205.57 205.844 204.242 204.633 204.242 202.211C204.242 199.867 205.949 198.695 209.363 198.695C210.832 198.695 212.289 198.891 213.734 199.281V201.156C212.289 200.688 210.832 200.453 209.363 200.453C207.316 200.453 206.293 201.039 206.293 202.211C206.293 203.305 206.938 203.852 208.227 203.852H209.984C212.797 203.852 214.203 205.062 214.203 207.484C214.203 209.828 212.5 211 209.094 211C207.617 211 206.156 210.805 204.711 210.414ZM222.992 211V198.695H224.457L224.82 200.242C226 199.211 227.285 198.695 228.676 198.695C230.457 198.695 231.672 199.258 232.32 200.383C233.656 199.258 235.012 198.695 236.387 198.695C239.215 198.695 240.629 200.254 240.629 203.371V211H238.461V203.254C238.461 201.418 237.688 200.5 236.141 200.5C234.984 200.5 233.902 201.031 232.895 202.094V211H230.727V203.289C230.727 201.43 229.961 200.5 228.43 200.5C227.211 200.5 226.121 201.031 225.16 202.094V211H222.992ZM249.23 198.695C252.73 198.695 254.48 200.426 254.48 203.887C254.48 204.379 254.445 204.906 254.375 205.469H245.738C245.738 207.984 247.207 209.242 250.145 209.242C251.543 209.242 252.785 209.086 253.871 208.773V210.531C252.785 210.844 251.465 211 249.91 211C245.684 211 243.57 208.902 243.57 204.707C243.57 200.699 245.457 198.695 249.23 198.695ZM245.738 203.664H252.395C252.348 201.508 251.293 200.43 249.23 200.43C247.043 200.43 245.879 201.508 245.738 203.664ZM259.801 198.695V210.062C259.801 212.547 259.195 214.414 257.984 215.664L256.168 214.434C257.145 213.379 257.633 211.922 257.633 210.062V198.695H259.801ZM259.801 194.242V196.293H257.633V194.242H259.801ZM265.145 204.801C265.145 207.762 266.375 209.242 268.836 209.242C271.297 209.242 272.527 207.762 272.527 204.801C272.527 201.902 271.297 200.453 268.836 200.453C266.375 200.453 265.145 201.902 265.145 204.801ZM262.977 204.848C262.977 200.746 264.93 198.695 268.836 198.695C272.742 198.695 274.695 200.746 274.695 204.848C274.695 208.941 272.742 210.988 268.836 210.988C264.945 210.988 262.992 208.941 262.977 204.848ZM277.625 211V198.695H279.09L279.477 200.266C280.555 199.219 281.852 198.695 283.367 198.695V200.5C281.898 200.5 280.707 201.02 279.793 202.059V211H277.625ZM290.621 198.695C294.121 198.695 295.871 200.426 295.871 203.887C295.871 204.379 295.836 204.906 295.766 205.469H287.129C287.129 207.984 288.598 209.242 291.535 209.242C292.934 209.242 294.176 209.086 295.262 208.773V210.531C294.176 210.844 292.855 211 291.301 211C287.074 211 284.961 208.902 284.961 204.707C284.961 200.699 286.848 198.695 290.621 198.695ZM287.129 203.664H293.785C293.738 201.508 292.684 200.43 290.621 200.43C288.434 200.43 287.27 201.508 287.129 203.664ZM298.672 210.414V208.539C300.117 209.008 301.578 209.242 303.055 209.242C305.016 209.242 305.996 208.656 305.996 207.484C305.996 206.391 305.312 205.844 303.945 205.844H302.188C299.531 205.844 298.203 204.633 298.203 202.211C298.203 199.867 299.91 198.695 303.324 198.695C304.793 198.695 306.25 198.891 307.695 199.281V201.156C306.25 200.688 304.793 200.453 303.324 200.453C301.277 200.453 300.254 201.039 300.254 202.211C300.254 203.305 300.898 203.852 302.188 203.852H303.945C306.758 203.852 308.164 205.062 308.164 207.484C308.164 209.828 306.461 211 303.055 211C301.578 211 300.117 210.805 298.672 210.414ZM319.121 208.492C319.973 208.914 320.922 209.125 321.969 209.125C324.523 209.125 325.801 207.59 325.801 204.52C325.801 201.84 324.531 200.5 321.992 200.5C320.898 200.5 319.941 200.594 319.121 200.781V208.492ZM316.953 199.199C318.586 198.863 320.273 198.695 322.016 198.695C325.961 198.695 327.934 200.645 327.934 204.543C327.934 208.848 325.949 211 321.98 211C320.996 211 320.043 210.805 319.121 210.414V215.453H316.953V199.199ZM330.875 211V198.695H332.34L332.727 200.266C333.805 199.219 335.102 198.695 336.617 198.695V200.5C335.148 200.5 333.957 201.02 333.043 202.059V211H330.875ZM343.871 198.695C347.371 198.695 349.121 200.426 349.121 203.887C349.121 204.379 349.086 204.906 349.016 205.469H340.379C340.379 207.984 341.848 209.242 344.785 209.242C346.184 209.242 347.426 209.086 348.512 208.773V210.531C347.426 210.844 346.105 211 344.551 211C340.324 211 338.211 208.902 338.211 204.707C338.211 200.699 340.098 198.695 343.871 198.695ZM340.379 203.664H347.035C346.988 201.508 345.934 200.43 343.871 200.43C341.684 200.43 340.52 201.508 340.379 203.664ZM361.297 210.648C360.281 210.883 359.188 211 358.016 211C353.641 211 351.453 208.871 351.453 204.613C351.453 200.668 353.641 198.695 358.016 198.695C359.188 198.695 360.281 198.812 361.297 199.047V200.805C360.281 200.57 359.148 200.453 357.898 200.453C355.047 200.453 353.621 201.84 353.621 204.613C353.621 207.699 355.047 209.242 357.898 209.242C359.148 209.242 360.281 209.125 361.297 208.891V210.648ZM366.465 198.695V211H364.297V198.695H366.465ZM366.465 194.242V196.293H364.297V194.242H366.465ZM371.809 204.801C371.809 207.762 373.039 209.242 375.5 209.242C377.961 209.242 379.191 207.762 379.191 204.801C379.191 201.902 377.961 200.453 375.5 200.453C373.039 200.453 371.809 201.902 371.809 204.801ZM369.641 204.848C369.641 200.746 371.594 198.695 375.5 198.695C379.406 198.695 381.359 200.746 381.359 204.848C381.359 208.941 379.406 210.988 375.5 210.988C371.609 210.988 369.656 208.941 369.641 204.848ZM384.172 210.414V208.539C385.617 209.008 387.078 209.242 388.555 209.242C390.516 209.242 391.496 208.656 391.496 207.484C391.496 206.391 390.812 205.844 389.445 205.844H387.688C385.031 205.844 383.703 204.633 383.703 202.211C383.703 199.867 385.41 198.695 388.824 198.695C390.293 198.695 391.75 198.891 393.195 199.281V201.156C391.75 200.688 390.293 200.453 388.824 200.453C386.777 200.453 385.754 201.039 385.754 202.211C385.754 203.305 386.398 203.852 387.688 203.852H389.445C392.258 203.852 393.664 205.062 393.664 207.484C393.664 209.828 391.961 211 388.555 211C387.078 211 385.617 210.805 384.172 210.414ZM399.055 208.832L397.297 213.93H395.129L396.887 208.832H399.055ZM406.977 196.703H408.336L408.805 198.695H412.133V200.453H409.145V207.52C409.145 208.668 409.641 209.242 410.633 209.242H412.133V211H410.07C408.008 211 406.977 209.895 406.977 207.684V196.703ZM416.48 204.801C416.48 207.762 417.711 209.242 420.172 209.242C422.633 209.242 423.863 207.762 423.863 204.801C423.863 201.902 422.633 200.453 420.172 200.453C417.711 200.453 416.48 201.902 416.48 204.801ZM414.312 204.848C414.312 200.746 416.266 198.695 420.172 198.695C424.078 198.695 426.031 200.746 426.031 204.848C426.031 208.941 424.078 210.988 420.172 210.988C416.281 210.988 414.328 208.941 414.312 204.848ZM437.223 201.203C436.348 200.781 435.348 200.57 434.223 200.57C431.746 200.57 430.508 201.887 430.508 204.52C430.508 207.637 431.746 209.195 434.223 209.195C435.348 209.195 436.348 209.043 437.223 208.738V201.203ZM439.391 210.262C437.898 210.754 436.059 211 433.871 211C430.207 211 428.375 208.867 428.375 204.602C428.375 200.664 430.32 198.695 434.211 198.695C435.273 198.695 436.277 198.891 437.223 199.281V194.242H439.391V210.262ZM444.488 204.801C444.488 207.762 445.719 209.242 448.18 209.242C450.641 209.242 451.871 207.762 451.871 204.801C451.871 201.902 450.641 200.453 448.18 200.453C445.719 200.453 444.488 201.902 444.488 204.801ZM442.32 204.848C442.32 200.746 444.273 198.695 448.18 198.695C452.086 198.695 454.039 200.746 454.039 204.848C454.039 208.941 452.086 210.988 448.18 210.988C444.289 210.988 442.336 208.941 442.32 204.848ZM467.902 198.695C471.402 198.695 473.152 200.426 473.152 203.887C473.152 204.379 473.117 204.906 473.047 205.469H464.41C464.41 207.984 465.879 209.242 468.816 209.242C470.215 209.242 471.457 209.086 472.543 208.773V210.531C471.457 210.844 470.137 211 468.582 211C464.355 211 462.242 208.902 462.242 204.707C462.242 200.699 464.129 198.695 467.902 198.695ZM464.41 203.664H471.066C471.02 201.508 469.965 200.43 467.902 200.43C465.715 200.43 464.551 201.508 464.41 203.664ZM476.07 211V198.695H477.535L477.922 200.266C479.18 199.219 480.562 198.695 482.07 198.695C485.141 198.695 486.676 200.223 486.676 203.277V211H484.508V203.242C484.508 201.414 483.598 200.5 481.777 200.5C480.535 200.5 479.355 201.02 478.238 202.059V211H476.07ZM506.668 198.695V211H505.18L504.805 209.43C503.312 210.477 501.812 211 500.305 211C497.477 211 496.062 209.473 496.062 206.418V198.695H498.23V206.453C498.23 208.281 499.137 209.195 500.949 209.195C502.191 209.195 503.375 208.676 504.5 207.637V198.695H506.668ZM510.195 211V198.695H511.66L512.047 200.266C513.305 199.219 514.688 198.695 516.195 198.695C519.266 198.695 520.801 200.223 520.801 203.277V211H518.633V203.242C518.633 201.414 517.723 200.5 515.902 200.5C514.66 200.5 513.48 201.02 512.363 202.059V211H510.195ZM530.07 210.414V208.539C531.516 209.008 532.977 209.242 534.453 209.242C536.414 209.242 537.395 208.656 537.395 207.484C537.395 206.391 536.711 205.844 535.344 205.844H533.586C530.93 205.844 529.602 204.633 529.602 202.211C529.602 199.867 531.309 198.695 534.723 198.695C536.191 198.695 537.648 198.891 539.094 199.281V201.156C537.648 200.688 536.191 200.453 534.723 200.453C532.676 200.453 531.652 201.039 531.652 202.211C531.652 203.305 532.297 203.852 533.586 203.852H535.344C538.156 203.852 539.562 205.062 539.562 207.484C539.562 209.828 537.859 211 534.453 211C532.977 211 531.516 210.805 530.07 210.414ZM544.074 204.801C544.074 207.762 545.305 209.242 547.766 209.242C550.227 209.242 551.457 207.762 551.457 204.801C551.457 201.902 550.227 200.453 547.766 200.453C545.305 200.453 544.074 201.902 544.074 204.801ZM541.906 204.848C541.906 200.746 543.859 198.695 547.766 198.695C551.672 198.695 553.625 200.746 553.625 204.848C553.625 208.941 551.672 210.988 547.766 210.988C543.875 210.988 541.922 208.941 541.906 204.848ZM558.84 194.242V211H556.672V194.242H558.84ZM564.066 204.801C564.066 207.762 565.297 209.242 567.758 209.242C570.219 209.242 571.449 207.762 571.449 204.801C571.449 201.902 570.219 200.453 567.758 200.453C565.297 200.453 564.066 201.902 564.066 204.801ZM561.898 204.848C561.898 200.746 563.852 198.695 567.758 198.695C571.664 198.695 573.617 200.746 573.617 204.848C573.617 208.941 571.664 210.988 567.758 210.988C563.867 210.988 561.914 208.941 561.898 204.848ZM584.691 194.242V211H582.523V194.242H584.691ZM598.941 198.695V211H597.453L597.078 209.43C595.586 210.477 594.086 211 592.578 211C589.75 211 588.336 209.473 588.336 206.418V198.695H590.504V206.453C590.504 208.281 591.41 209.195 593.223 209.195C594.465 209.195 595.648 208.676 596.773 207.637V198.695H598.941ZM610.695 200.781C609.953 200.594 609.035 200.5 607.941 200.5C605.324 200.5 604.016 201.918 604.016 204.754C604.016 207.668 605.254 209.125 607.73 209.125C608.855 209.125 609.844 208.914 610.695 208.492V200.781ZM612.863 211C612.863 213.969 610.977 215.453 607.203 215.453C605.688 215.453 604.344 215.258 603.172 214.867V213.109C604.367 213.5 605.719 213.695 607.227 213.695C609.539 213.695 610.695 212.797 610.695 211V210.414C609.773 210.805 608.781 211 607.719 211C603.828 211 601.883 208.926 601.883 204.777C601.883 200.723 603.934 198.695 608.035 198.695C609.699 198.695 611.309 198.863 612.863 199.199V211ZM615.805 207.285C615.805 204.762 617.469 203.5 620.797 203.5C621.867 203.5 622.938 203.578 624.008 203.734V202.574C624.008 201.16 622.902 200.453 620.691 200.453C619.426 200.453 618.129 200.648 616.801 201.039V199.281C618.129 198.891 619.426 198.695 620.691 198.695C624.348 198.695 626.176 199.969 626.176 202.516V211H624.957L624.207 209.781C622.98 210.594 621.645 211 620.199 211C617.27 211 615.805 209.762 615.805 207.285ZM620.797 205.258C618.914 205.258 617.973 205.922 617.973 207.25C617.973 208.578 618.715 209.242 620.199 209.242C621.699 209.242 622.969 208.844 624.008 208.047V205.492C622.938 205.336 621.867 205.258 620.797 205.258ZM629.703 211V198.695H631.168L631.555 200.266C632.633 199.219 633.93 198.695 635.445 198.695V200.5C633.977 200.5 632.785 201.02 631.871 202.059V211H629.703ZM639.207 208.832V211H637.039V208.832H639.207Z" fill="#1E1E1E"/>
<path d="M1029.49 135.939L1000.22 125.102L987.987 109.278C986.923 107.938 985.583 106.859 984.064 106.119C982.545 105.379 980.885 104.997 979.204 105H948.934C947.083 104.999 945.259 105.465 943.623 106.357C941.986 107.249 940.586 108.539 939.545 110.116L929.278 125.648C927.14 128.881 925.998 132.702 926 136.614V167.393C926 168.428 926.399 169.419 927.109 170.151C927.819 170.882 928.782 171.293 929.786 171.293H937.895C938.718 174.64 940.602 177.608 943.247 179.728C945.892 181.849 949.148 183 952.5 183C955.852 183 959.108 181.849 961.753 179.728C964.398 177.608 966.282 174.64 967.105 171.293H990.895C991.718 174.64 993.602 177.608 996.247 179.728C998.892 181.849 1002.15 183 1005.5 183C1008.85 183 1012.11 181.849 1014.75 179.728C1017.4 177.608 1019.28 174.64 1020.11 171.293H1028.21C1029.22 171.293 1030.18 170.882 1030.89 170.151C1031.6 169.419 1032 168.428 1032 167.393V139.609C1032 138.806 1031.76 138.022 1031.31 137.366C1030.86 136.709 1030.23 136.211 1029.49 135.939ZM952.5 175.193C951.003 175.193 949.539 174.735 948.294 173.878C947.048 173.021 946.078 171.803 945.505 170.378C944.932 168.953 944.782 167.385 945.074 165.872C945.366 164.359 946.087 162.969 947.146 161.879C948.205 160.788 949.554 160.045 951.023 159.744C952.492 159.443 954.014 159.598 955.397 160.188C956.781 160.778 957.963 161.778 958.795 163.06C959.627 164.343 960.071 165.851 960.071 167.393C960.068 169.461 959.27 171.443 957.85 172.905C956.431 174.367 954.507 175.189 952.5 175.193ZM1005.5 175.193C1004 175.193 1002.54 174.735 1001.29 173.878C1000.05 173.021 999.078 171.803 998.505 170.378C997.932 168.953 997.782 167.385 998.074 165.872C998.366 164.359 999.087 162.969 1000.15 161.879C1001.21 160.788 1002.55 160.045 1004.02 159.744C1005.49 159.443 1007.01 159.598 1008.4 160.188C1009.78 160.778 1010.96 161.778 1011.8 163.06C1012.63 164.343 1013.07 165.851 1013.07 167.393C1013.07 169.461 1012.27 171.443 1010.85 172.905C1009.43 174.367 1007.51 175.189 1005.5 175.193ZM1024.43 163.494H1020.11C1019.28 160.147 1017.4 157.179 1014.75 155.058C1012.11 152.938 1008.85 151.787 1005.5 151.787C1002.15 151.787 998.892 152.938 996.247 155.058C993.602 157.179 991.718 160.147 990.895 163.494H967.105C966.282 160.147 964.398 157.179 961.753 155.058C959.108 152.938 955.852 151.787 952.5 151.787C949.148 151.787 945.892 152.938 943.247 155.058C940.602 157.179 938.718 160.147 937.895 163.494H933.571V136.614C933.571 134.266 934.257 131.972 935.54 130.031L945.803 114.507C946.15 113.981 946.617 113.55 947.163 113.253C947.708 112.955 948.316 112.799 948.934 112.799H979.204C979.756 112.797 980.3 112.921 980.8 113.16C981.3 113.399 981.743 113.749 982.097 114.184L994.968 130.827C995.406 131.393 995.988 131.822 996.649 132.067L1024.43 142.35V163.494Z" fill="black"/>
<path d="M1231.56 152.453L1214.71 146.34L1207.67 137.413C1207.06 136.657 1206.29 136.049 1205.41 135.631C1204.54 135.214 1203.58 134.998 1202.62 135H1185.2C1184.13 135 1183.08 135.262 1182.14 135.766C1181.2 136.269 1180.39 136.997 1179.79 137.886L1173.89 146.648C1172.66 148.471 1172 150.627 1172 152.834V170.196C1172 170.78 1172.23 171.339 1172.64 171.752C1173.05 172.164 1173.6 172.396 1174.18 172.396H1178.85C1179.32 174.284 1180.4 175.958 1181.93 177.154C1183.45 178.351 1185.32 179 1187.25 179C1189.18 179 1191.05 178.351 1192.57 177.154C1194.1 175.958 1195.18 174.284 1195.65 172.396H1209.35C1209.82 174.284 1210.9 175.958 1212.43 177.154C1213.95 178.351 1215.82 179 1217.75 179C1219.68 179 1221.55 178.351 1223.07 177.154C1224.6 175.958 1225.68 174.284 1226.15 172.396H1230.82C1231.4 172.396 1231.95 172.164 1232.36 171.752C1232.77 171.339 1233 170.78 1233 170.196V154.523C1233 154.07 1232.86 153.628 1232.6 153.258C1232.35 152.887 1231.98 152.606 1231.56 152.453ZM1187.25 174.596C1186.39 174.596 1185.55 174.338 1184.83 173.854C1184.11 173.371 1183.55 172.684 1183.22 171.88C1182.89 171.076 1182.81 170.191 1182.98 169.338C1183.14 168.485 1183.56 167.701 1184.17 167.085C1184.78 166.47 1185.55 166.051 1186.4 165.881C1187.25 165.712 1188.12 165.799 1188.92 166.132C1189.71 166.465 1190.39 167.029 1190.87 167.752C1191.35 168.476 1191.61 169.326 1191.61 170.196C1191.61 171.363 1191.15 172.481 1190.33 173.305C1189.51 174.13 1188.41 174.594 1187.25 174.596ZM1217.75 174.596C1216.89 174.596 1216.05 174.338 1215.33 173.854C1214.61 173.371 1214.05 172.684 1213.72 171.88C1213.39 171.076 1213.31 170.191 1213.48 169.338C1213.64 168.485 1214.06 167.701 1214.67 167.085C1215.28 166.47 1216.05 166.051 1216.9 165.881C1217.75 165.712 1218.62 165.799 1219.42 166.132C1220.21 166.465 1220.89 167.029 1221.37 167.752C1221.85 168.476 1222.11 169.326 1222.11 170.196C1222.11 171.363 1221.65 172.481 1220.83 173.305C1220.01 174.13 1218.91 174.594 1217.75 174.596ZM1228.64 167.996H1226.15C1225.68 166.109 1224.6 164.434 1223.07 163.238C1221.55 162.042 1219.68 161.393 1217.75 161.393C1215.82 161.393 1213.95 162.042 1212.43 163.238C1210.9 164.434 1209.82 166.109 1209.35 167.996H1195.65C1195.18 166.109 1194.1 164.434 1192.57 163.238C1191.05 162.042 1189.18 161.393 1187.25 161.393C1185.32 161.393 1183.45 162.042 1181.93 163.238C1180.4 164.434 1179.32 166.109 1178.85 167.996H1176.36V152.834C1176.36 151.509 1176.75 150.215 1177.49 149.12L1183.4 140.363C1183.6 140.066 1183.86 139.823 1184.18 139.655C1184.49 139.487 1184.84 139.4 1185.2 139.4H1202.62C1202.93 139.399 1203.25 139.468 1203.54 139.603C1203.82 139.738 1204.08 139.935 1204.28 140.18L1211.69 149.569C1211.94 149.888 1212.28 150.131 1212.66 150.269L1228.64 156.069V167.996Z" fill="black"/>
<path d="M875 234V223.733H1084V234H875ZM904.062 213.467C899.363 213.467 895.44 211.882 892.294 208.713C889.141 205.551 887.565 201.605 887.565 196.876V96.5704C887.565 91.8477 889.141 87.9053 892.294 84.7432C895.447 81.5811 899.37 80 904.062 80H1054.94C1059.64 80 1063.56 81.5811 1066.71 84.7432C1069.86 87.9122 1071.44 91.858 1071.44 96.5807V196.886C1071.44 201.609 1069.86 205.551 1066.72 208.713C1063.57 211.875 1059.64 213.46 1054.94 213.467H904.062ZM904.062 203.2H1054.94C1056.5 203.2 1057.94 202.539 1059.26 201.219C1060.57 199.904 1061.22 198.457 1061.22 196.876V96.5704C1061.22 94.9962 1060.57 93.552 1059.26 92.2379C1057.94 90.9237 1056.5 90.2667 1054.94 90.2667H904.062C902.496 90.2667 901.055 90.9237 899.741 92.2379C898.433 93.552 897.78 94.9996 897.78 96.5807V196.886C897.78 198.46 898.433 199.904 899.741 201.219C901.055 202.539 902.496 203.2 904.062 203.2Z" fill="black"/>
<path d="M1233.75 90.25C1236.47 90.25 1239.08 91.3299 1241 93.2522C1242.92 95.1744 1244 97.7815 1244 100.5V223.5C1244 226.218 1242.92 228.826 1241 230.748C1239.08 232.67 1236.47 233.75 1233.75 233.75H1172.25C1169.53 233.75 1166.92 232.67 1165 230.748C1163.08 228.826 1162 226.218 1162 223.5V100.5C1162 97.7815 1163.08 95.1744 1165 93.2522C1166.92 91.3299 1169.53 90.25 1172.25 90.25H1233.75ZM1172.25 80C1166.81 80 1161.6 82.1598 1157.75 86.0043C1153.91 89.8488 1151.75 95.0631 1151.75 100.5V223.5C1151.75 228.937 1153.91 234.151 1157.75 237.996C1161.6 241.84 1166.81 244 1172.25 244H1233.75C1239.19 244 1244.4 241.84 1248.25 237.996C1252.09 234.151 1254.25 228.937 1254.25 223.5V100.5C1254.25 95.0631 1252.09 89.8488 1248.25 86.0043C1244.4 82.1598 1239.19 80 1233.75 80H1172.25Z" fill="black"/>
<path d="M1203 223.5C1205.72 223.5 1208.33 222.42 1210.25 220.498C1212.17 218.576 1213.25 215.968 1213.25 213.25C1213.25 210.532 1212.17 207.924 1210.25 206.002C1208.33 204.08 1205.72 203 1203 203C1200.28 203 1197.67 204.08 1195.75 206.002C1193.83 207.924 1192.75 210.532 1192.75 213.25C1192.75 215.968 1193.83 218.576 1195.75 220.498C1197.67 222.42 1200.28 223.5 1203 223.5Z" fill="black"/>
</svg>
