<svg width="778" height="492" viewBox="0 0 778 492" fill="none" xmlns="http://www.w3.org/2000/svg">
<mask id="path-1-inside-1_358_171" fill="white">
<path d="M0 0H778V492H0V0Z"/>
</mask>
<path d="M0 0H778V492H0V0Z" fill="white"/>
<path d="M0 1H778V-1H0V1ZM778 491H0V493H778V491Z" fill="#CCCCCC" mask="url(#path-1-inside-1_358_171)"/>
<path d="M69.0508 79.0703V83.5234H55.0664V90.5547H68.3867V95.1836H55.0078V102.508H69.3242V107H49.9297V79.0703H69.0508ZM73.6211 107V86.4922H77.625L78.2695 89.5C80.2357 87.4948 82.4753 86.4922 84.9883 86.4922C89.8451 86.4922 92.2734 89.0182 92.2734 94.0703V107H87.0977V94.0703C87.0977 91.8047 85.9714 90.6719 83.7188 90.6719C82.0391 90.6719 80.3984 91.3424 78.7969 92.6836V107H73.6211ZM112.312 106.414C110.62 106.805 108.862 107 107.039 107C99.7474 107 96.1016 103.452 96.1016 96.3555C96.1016 89.7799 99.7474 86.4922 107.039 86.4922C108.862 86.4922 110.62 86.6875 112.312 87.0781V91.1797C110.62 90.7891 108.992 90.5938 107.43 90.5938C103.328 90.5938 101.277 92.5143 101.277 96.3555C101.277 100.717 103.328 102.898 107.43 102.898C108.992 102.898 110.62 102.703 112.312 102.312V106.414ZM134.188 86.4922V107H130.145L129.52 104.383C127.163 106.128 124.663 107 122.02 107C117.827 107 115.73 104.52 115.73 99.5586V86.4922H120.906V99.4219C120.906 101.688 121.896 102.82 123.875 102.82C125.555 102.82 127.267 102.15 129.012 100.809V86.4922H134.188ZM147.742 86.4922C153.966 86.4922 157.078 89.6693 157.078 96.0234C157.078 96.8698 157.02 97.7161 156.902 98.5625H143.289C143.289 101.453 145.411 102.898 149.656 102.898C151.727 102.898 153.797 102.703 155.867 102.312V106.414C154.057 106.805 151.857 107 149.266 107C141.831 107 138.113 103.504 138.113 96.5117C138.113 89.832 141.323 86.4922 147.742 86.4922ZM143.289 94.9688H152.039V94.8125C152.039 91.974 150.607 90.5547 147.742 90.5547C145.008 90.5547 143.523 92.026 143.289 94.9688ZM160.965 107V86.4922H164.969L165.613 89.5C167.579 87.4948 169.819 86.4922 172.332 86.4922C177.189 86.4922 179.617 89.0182 179.617 94.0703V107H174.441V94.0703C174.441 91.8047 173.315 90.6719 171.062 90.6719C169.383 90.6719 167.742 91.3424 166.141 92.6836V107H160.965ZM184.227 83.1719H188.055L188.836 86.4922H193.992V90.5938H189.402V100.027C189.402 101.941 190.229 102.898 191.883 102.898H193.992V107H189.383C185.945 107 184.227 105.158 184.227 101.473V83.1719ZM197.527 107V86.4922H201.531L202.176 89.1094C203.973 87.3646 205.874 86.4922 207.879 86.4922V90.6719C205.952 90.6719 204.227 91.4727 202.703 93.0742V107H197.527ZM209.832 100.613C209.832 96.5378 212.801 94.5 218.738 94.5C220.132 94.5 221.525 94.6302 222.918 94.8906V93.3477C222.918 91.5117 221.596 90.5938 218.953 90.5938C216.714 90.5938 214.227 90.9193 211.492 91.5703V87.4688C214.227 86.8177 216.714 86.4922 218.953 86.4922C225.047 86.4922 228.094 88.7448 228.094 93.25V107H225.086L223.25 105.164C221.466 106.388 219.5 107 217.352 107C212.339 107 209.832 104.871 209.832 100.613ZM222.918 98.4062C221.616 98.1458 220.223 98.0156 218.738 98.0156C216.251 98.0156 215.008 98.862 215.008 100.555C215.008 102.378 216.049 103.289 218.133 103.289C219.852 103.289 221.447 102.755 222.918 101.688V98.4062ZM241.492 83.1719H245.32L246.102 86.4922H251.258V90.5938H246.668V100.027C246.668 101.941 247.495 102.898 249.148 102.898H251.258V107H246.648C243.211 107 241.492 105.158 241.492 101.473V83.1719ZM273.25 86.4922V107H269.207L268.582 104.383C266.225 106.128 263.725 107 261.082 107C256.889 107 254.793 104.52 254.793 99.5586V86.4922H259.969V99.4219C259.969 101.688 260.958 102.82 262.938 102.82C264.617 102.82 266.329 102.15 268.074 100.809V86.4922H273.25ZM286.941 107V79.0703H292.117V89.1094C293.732 87.3646 295.796 86.4922 298.309 86.4922C303.165 86.4922 305.594 89.0182 305.594 94.0703V107H300.418V94.0703C300.418 91.8047 299.292 90.6719 297.039 90.6719C295.359 90.6719 293.719 91.3424 292.117 92.6836V107H286.941ZM314.695 96.668C314.695 100.952 316.355 103.094 319.676 103.094C322.996 103.094 324.656 100.952 324.656 96.668C324.656 92.4883 322.996 90.3984 319.676 90.3984C316.355 90.3984 314.695 92.4883 314.695 96.668ZM309.52 96.7461C309.52 89.8711 312.905 86.4336 319.676 86.4336C326.447 86.4336 329.832 89.8711 329.832 96.7461C329.832 103.608 326.447 107.039 319.676 107.039C312.931 107.039 309.546 103.608 309.52 96.7461ZM346.863 91.1406C346.017 90.8281 344.812 90.6719 343.25 90.6719C339.669 90.6719 337.879 92.6445 337.879 96.5898C337.879 100.405 339.422 102.312 342.508 102.312C343.992 102.312 345.444 101.961 346.863 101.258V91.1406ZM352.039 105.438C352.039 111.427 348.439 114.422 341.238 114.422C338.712 114.422 336.473 114.096 334.52 113.445V109.344C336.512 109.995 338.764 110.32 341.277 110.32C345.001 110.32 346.863 108.758 346.863 105.633C345.327 106.284 343.673 106.609 341.902 106.609C335.809 106.609 332.762 103.283 332.762 96.6289C332.762 89.8711 336.31 86.4922 343.406 86.4922C345.789 86.4922 348.667 86.7721 352.039 87.332V105.438ZM355.965 100.613C355.965 96.5378 358.934 94.5 364.871 94.5C366.264 94.5 367.658 94.6302 369.051 94.8906V93.3477C369.051 91.5117 367.729 90.5938 365.086 90.5938C362.846 90.5938 360.359 90.9193 357.625 91.5703V87.4688C360.359 86.8177 362.846 86.4922 365.086 86.4922C371.18 86.4922 374.227 88.7448 374.227 93.25V107H371.219L369.383 105.164C367.599 106.388 365.633 107 363.484 107C358.471 107 355.965 104.871 355.965 100.613ZM369.051 98.4062C367.749 98.1458 366.355 98.0156 364.871 98.0156C362.384 98.0156 361.141 98.862 361.141 100.555C361.141 102.378 362.182 103.289 364.266 103.289C365.984 103.289 367.579 102.755 369.051 101.688V98.4062ZM379.129 107V86.4922H383.133L383.777 89.1094C385.574 87.3646 387.475 86.4922 389.48 86.4922V90.6719C387.553 90.6719 385.828 91.4727 384.305 93.0742V107H379.129ZM406.375 101.648C407.664 102.352 409.051 102.703 410.535 102.703C413.621 102.703 415.164 100.535 415.164 96.1992C415.164 92.5143 413.458 90.6719 410.047 90.6719C408.576 90.6719 407.352 90.763 406.375 90.9453V101.648ZM401.199 87.332C403.921 86.7721 406.798 86.4922 409.832 86.4922C416.798 86.4922 420.281 89.7409 420.281 96.2383C420.281 103.413 417.039 107 410.555 107C409.174 107 407.781 106.674 406.375 106.023V114.422H401.199V87.332ZM432.859 86.4922C439.083 86.4922 442.195 89.6693 442.195 96.0234C442.195 96.8698 442.137 97.7161 442.02 98.5625H428.406C428.406 101.453 430.529 102.898 434.773 102.898C436.844 102.898 438.914 102.703 440.984 102.312V106.414C439.174 106.805 436.974 107 434.383 107C426.948 107 423.23 103.504 423.23 96.5117C423.23 89.832 426.44 86.4922 432.859 86.4922ZM428.406 94.9688H437.156V94.8125C437.156 91.974 435.724 90.5547 432.859 90.5547C430.125 90.5547 428.641 92.026 428.406 94.9688ZM446.082 107V86.4922H450.086L450.73 89.1094C452.527 87.3646 454.428 86.4922 456.434 86.4922V90.6719C454.507 90.6719 452.781 91.4727 451.258 93.0742V107H446.082ZM459.363 107V86.4922C459.363 80.8672 462.436 78.0547 468.582 78.0547C470.262 78.0547 471.785 78.3151 473.152 78.8359V82.9375C471.863 82.4167 470.464 82.1562 468.953 82.1562C466.01 82.1562 464.539 83.6016 464.539 86.4922H470.691V90.5938H464.539V107H459.363ZM482.508 86.4922C488.732 86.4922 491.844 89.6693 491.844 96.0234C491.844 96.8698 491.785 97.7161 491.668 98.5625H478.055C478.055 101.453 480.177 102.898 484.422 102.898C486.492 102.898 488.562 102.703 490.633 102.312V106.414C488.823 106.805 486.622 107 484.031 107C476.596 107 472.879 103.504 472.879 96.5117C472.879 89.832 476.089 86.4922 482.508 86.4922ZM478.055 94.9688H486.805V94.8125C486.805 91.974 485.372 90.5547 482.508 90.5547C479.773 90.5547 478.289 92.026 478.055 94.9688ZM510.867 106.414C509.174 106.805 507.417 107 505.594 107C498.302 107 494.656 103.452 494.656 96.3555C494.656 89.7799 498.302 86.4922 505.594 86.4922C507.417 86.4922 509.174 86.6875 510.867 87.0781V91.1797C509.174 90.7891 507.547 90.5938 505.984 90.5938C501.883 90.5938 499.832 92.5143 499.832 96.3555C499.832 100.717 501.883 102.898 505.984 102.898C507.547 102.898 509.174 102.703 510.867 102.312V106.414ZM513.992 83.1719H517.82L518.602 86.4922H523.758V90.5938H519.168V100.027C519.168 101.941 519.995 102.898 521.648 102.898H523.758V107H519.148C515.711 107 513.992 105.158 513.992 101.473V83.1719ZM531.492 96.668C531.492 100.952 533.152 103.094 536.473 103.094C539.793 103.094 541.453 100.952 541.453 96.668C541.453 92.4883 539.793 90.3984 536.473 90.3984C533.152 90.3984 531.492 92.4883 531.492 96.668ZM526.316 96.7461C526.316 89.8711 529.702 86.4336 536.473 86.4336C543.243 86.4336 546.629 89.8711 546.629 96.7461C546.629 103.608 543.243 107.039 536.473 107.039C529.728 107.039 526.342 103.608 526.316 96.7461ZM564.5 101.648C565.789 102.352 567.176 102.703 568.66 102.703C571.746 102.703 573.289 100.535 573.289 96.1992C573.289 92.5143 571.583 90.6719 568.172 90.6719C566.701 90.6719 565.477 90.763 564.5 90.9453V101.648ZM559.324 87.332C562.046 86.7721 564.923 86.4922 567.957 86.4922C574.923 86.4922 578.406 89.7409 578.406 96.2383C578.406 103.413 575.164 107 568.68 107C567.299 107 565.906 106.674 564.5 106.023V114.422H559.324V87.332ZM581.355 100.613C581.355 96.5378 584.324 94.5 590.262 94.5C591.655 94.5 593.048 94.6302 594.441 94.8906V93.3477C594.441 91.5117 593.12 90.5938 590.477 90.5938C588.237 90.5938 585.75 90.9193 583.016 91.5703V87.4688C585.75 86.8177 588.237 86.4922 590.477 86.4922C596.57 86.4922 599.617 88.7448 599.617 93.25V107H596.609L594.773 105.164C592.99 106.388 591.023 107 588.875 107C583.862 107 581.355 104.871 581.355 100.613ZM594.441 98.4062C593.139 98.1458 591.746 98.0156 590.262 98.0156C587.775 98.0156 586.531 98.862 586.531 100.555C586.531 102.378 587.573 103.289 589.656 103.289C591.375 103.289 592.97 102.755 594.441 101.688V98.4062ZM604.52 107V86.4922H608.523L609.168 89.1094C610.965 87.3646 612.866 86.4922 614.871 86.4922V90.6719C612.944 90.6719 611.219 91.4727 609.695 93.0742V107H604.52ZM616.824 100.613C616.824 96.5378 619.793 94.5 625.73 94.5C627.124 94.5 628.517 94.6302 629.91 94.8906V93.3477C629.91 91.5117 628.589 90.5938 625.945 90.5938C623.706 90.5938 621.219 90.9193 618.484 91.5703V87.4688C621.219 86.8177 623.706 86.4922 625.945 86.4922C632.039 86.4922 635.086 88.7448 635.086 93.25V107H632.078L630.242 105.164C628.458 106.388 626.492 107 624.344 107C619.331 107 616.824 104.871 616.824 100.613ZM629.91 98.4062C628.608 98.1458 627.215 98.0156 625.73 98.0156C623.243 98.0156 622 98.862 622 100.555C622 102.378 623.042 103.289 625.125 103.289C626.844 103.289 628.439 102.755 629.91 101.688V98.4062ZM646.336 86.4922H651.805L656.785 100.828L661.961 86.4922H667.43L659.09 107H654.168L646.336 86.4922ZM675.047 79.0703V83.1719H669.871V79.0703H675.047ZM675.047 86.4922V107H669.871V86.4922H675.047ZM677.508 86.4922H682.977L687.957 100.828L693.133 86.4922H698.602L690.262 107H685.34L677.508 86.4922ZM706.219 79.0703V83.1719H701.043V79.0703H706.219ZM706.219 86.4922V107H701.043V86.4922H706.219ZM711.121 107V86.4922H715.125L715.77 89.1094C717.566 87.3646 719.467 86.4922 721.473 86.4922V90.6719C719.546 90.6719 717.82 91.4727 716.297 93.0742V107H711.121Z" fill="#1E1E1E"/>
<path d="M66.4238 182.863V185.5H53.2402V193.938H65.8086V196.574H53.2402V205.363H66.6875V208H49.9883V182.863H66.4238ZM71.2578 208V189.543H73.4551L74.0352 191.898C75.9219 190.328 77.9961 189.543 80.2578 189.543C84.8633 189.543 87.166 191.834 87.166 196.416V208H83.9141V196.363C83.9141 193.621 82.5488 192.25 79.8184 192.25C77.9551 192.25 76.1855 193.029 74.5098 194.588V208H71.2578ZM106.344 207.473C104.82 207.824 103.18 208 101.422 208C94.8594 208 91.5781 204.807 91.5781 198.42C91.5781 192.502 94.8594 189.543 101.422 189.543C103.18 189.543 104.82 189.719 106.344 190.07V192.707C104.82 192.355 103.121 192.18 101.246 192.18C96.9688 192.18 94.8301 194.26 94.8301 198.42C94.8301 203.049 96.9688 205.363 101.246 205.363C103.121 205.363 104.82 205.188 106.344 204.836V207.473ZM126.4 189.543V208H124.168L123.605 205.645C121.367 207.215 119.117 208 116.855 208C112.613 208 110.492 205.709 110.492 201.127V189.543H113.744V201.18C113.744 203.922 115.104 205.293 117.822 205.293C119.686 205.293 121.461 204.514 123.148 202.955V189.543H126.4ZM139.303 189.543C144.553 189.543 147.178 192.139 147.178 197.33C147.178 198.068 147.125 198.859 147.02 199.703H134.064C134.064 203.477 136.268 205.363 140.674 205.363C142.771 205.363 144.635 205.129 146.264 204.66V207.297C144.635 207.766 142.654 208 140.322 208C133.982 208 130.812 204.854 130.812 198.561C130.812 192.549 133.643 189.543 139.303 189.543ZM134.064 196.996H144.049C143.979 193.762 142.396 192.145 139.303 192.145C136.021 192.145 134.275 193.762 134.064 196.996ZM151.555 208V189.543H153.752L154.332 191.898C156.219 190.328 158.293 189.543 160.555 189.543C165.16 189.543 167.463 191.834 167.463 196.416V208H164.211V196.363C164.211 193.621 162.846 192.25 160.115 192.25C158.252 192.25 156.482 193.029 154.807 194.588V208H151.555ZM172.754 186.555H174.793L175.496 189.543H180.488V192.18H176.006V202.779C176.006 204.502 176.75 205.363 178.238 205.363H180.488V208H177.395C174.301 208 172.754 206.342 172.754 203.025V186.555ZM184.637 208V189.543H186.834L187.414 191.898C189.031 190.328 190.977 189.543 193.25 189.543V192.25C191.047 192.25 189.26 193.029 187.889 194.588V208H184.637ZM195.641 202.428C195.641 198.643 198.137 196.75 203.129 196.75C204.734 196.75 206.34 196.867 207.945 197.102V195.361C207.945 193.24 206.287 192.18 202.971 192.18C201.072 192.18 199.127 192.473 197.135 193.059V190.422C199.127 189.836 201.072 189.543 202.971 189.543C208.455 189.543 211.197 191.453 211.197 195.273V208H209.369L208.244 206.172C206.404 207.391 204.4 208 202.232 208C197.838 208 195.641 206.143 195.641 202.428ZM203.129 199.387C200.305 199.387 198.893 200.383 198.893 202.375C198.893 204.367 200.006 205.363 202.232 205.363C204.482 205.363 206.387 204.766 207.945 203.57V199.738C206.34 199.504 204.734 199.387 203.129 199.387ZM246.107 186.555H248.146L248.85 189.543H253.842V192.18H249.359V202.779C249.359 204.502 250.104 205.363 251.592 205.363H253.842V208H250.748C247.654 208 246.107 206.342 246.107 203.025V186.555ZM273.898 189.543V208H271.666L271.104 205.645C268.865 207.215 266.615 208 264.354 208C260.111 208 257.99 205.709 257.99 201.127V189.543H261.242V201.18C261.242 203.922 262.602 205.293 265.32 205.293C267.184 205.293 268.959 204.514 270.646 202.955V189.543H273.898ZM312.236 182.863V208H308.984V182.863H312.236ZM333.611 189.543V208H331.379L330.816 205.645C328.578 207.215 326.328 208 324.066 208C319.824 208 317.703 205.709 317.703 201.127V189.543H320.955V201.18C320.955 203.922 322.314 205.293 325.033 205.293C326.896 205.293 328.672 204.514 330.359 202.955V189.543H333.611ZM351.242 192.672C350.129 192.391 348.752 192.25 347.111 192.25C343.186 192.25 341.223 194.377 341.223 198.631C341.223 203.002 343.08 205.188 346.795 205.188C348.482 205.188 349.965 204.871 351.242 204.238V192.672ZM354.494 208C354.494 212.453 351.664 214.68 346.004 214.68C343.73 214.68 341.715 214.387 339.957 213.801V211.164C341.75 211.75 343.777 212.043 346.039 212.043C349.508 212.043 351.242 210.695 351.242 208V207.121C349.859 207.707 348.371 208 346.777 208C340.941 208 338.023 204.889 338.023 198.666C338.023 192.584 341.1 189.543 347.252 189.543C349.748 189.543 352.162 189.795 354.494 190.299V208ZM358.906 202.428C358.906 198.643 361.402 196.75 366.395 196.75C368 196.75 369.605 196.867 371.211 197.102V195.361C371.211 193.24 369.553 192.18 366.236 192.18C364.338 192.18 362.393 192.473 360.4 193.059V190.422C362.393 189.836 364.338 189.543 366.236 189.543C371.721 189.543 374.463 191.453 374.463 195.273V208H372.635L371.51 206.172C369.67 207.391 367.666 208 365.498 208C361.104 208 358.906 206.143 358.906 202.428ZM366.395 199.387C363.57 199.387 362.158 200.383 362.158 202.375C362.158 204.367 363.271 205.363 365.498 205.363C367.748 205.363 369.652 204.766 371.211 203.57V199.738C369.605 199.504 368 199.387 366.395 199.387ZM379.754 208V189.543H381.951L382.531 191.898C384.148 190.328 386.094 189.543 388.367 189.543V192.25C386.164 192.25 384.377 193.029 383.006 194.588V208H379.754ZM53.2402 229.543V248H49.9883V229.543H53.2402ZM53.2402 222.863V225.939H49.9883V222.863H53.2402ZM71.2754 233.305C69.9629 232.672 68.4629 232.355 66.7754 232.355C63.0605 232.355 61.2031 234.33 61.2031 238.279C61.2031 242.955 63.0605 245.293 66.7754 245.293C68.4629 245.293 69.9629 245.064 71.2754 244.607V233.305ZM74.5273 246.893C72.2891 247.631 69.5293 248 66.248 248C60.752 248 58.0039 244.801 58.0039 238.402C58.0039 232.496 60.9219 229.543 66.7578 229.543C68.3516 229.543 69.8574 229.836 71.2754 230.422V222.863H74.5273V246.893ZM87.4121 229.543C92.6621 229.543 95.2871 232.139 95.2871 237.33C95.2871 238.068 95.2344 238.859 95.1289 239.703H82.1738C82.1738 243.477 84.377 245.363 88.7832 245.363C90.8809 245.363 92.7441 245.129 94.373 244.66V247.297C92.7441 247.766 90.7637 248 88.4316 248C82.0918 248 78.9219 244.854 78.9219 238.561C78.9219 232.549 81.752 229.543 87.4121 229.543ZM82.1738 236.996H92.1582C92.0879 233.762 90.5059 232.145 87.4121 232.145C84.1309 232.145 82.3848 233.762 82.1738 236.996ZM98.7852 242.428C98.7852 238.643 101.281 236.75 106.273 236.75C107.879 236.75 109.484 236.867 111.09 237.102V235.361C111.09 233.24 109.432 232.18 106.115 232.18C104.217 232.18 102.271 232.473 100.279 233.059V230.422C102.271 229.836 104.217 229.543 106.115 229.543C111.6 229.543 114.342 231.453 114.342 235.273V248H112.514L111.389 246.172C109.549 247.391 107.545 248 105.377 248C100.982 248 98.7852 246.143 98.7852 242.428ZM106.273 239.387C103.449 239.387 102.037 240.383 102.037 242.375C102.037 244.367 103.15 245.363 105.377 245.363C107.627 245.363 109.531 244.766 111.09 243.57V239.738C109.484 239.504 107.879 239.387 106.273 239.387ZM123.061 222.863V248H119.809V222.863H123.061ZM184.936 229.543C190.186 229.543 192.811 232.139 192.811 237.33C192.811 238.068 192.758 238.859 192.652 239.703H179.697C179.697 243.477 181.9 245.363 186.307 245.363C188.404 245.363 190.268 245.129 191.896 244.66V247.297C190.268 247.766 188.287 248 185.955 248C179.615 248 176.445 244.854 176.445 238.561C176.445 232.549 179.275 229.543 184.936 229.543ZM179.697 236.996H189.682C189.611 233.762 188.029 232.145 184.936 232.145C181.654 232.145 179.908 233.762 179.697 236.996ZM197.188 248V229.543H199.385L199.965 231.898C201.852 230.328 203.926 229.543 206.188 229.543C210.793 229.543 213.096 231.834 213.096 236.416V248H209.844V236.363C209.844 233.621 208.479 232.25 205.748 232.25C203.885 232.25 202.115 233.029 200.439 234.588V248H197.188ZM267.184 248V229.543H269.381L269.961 231.898C271.848 230.328 273.922 229.543 276.184 229.543C280.789 229.543 283.092 231.834 283.092 236.416V248H279.84V236.363C279.84 233.621 278.475 232.25 275.744 232.25C273.881 232.25 272.111 233.029 270.436 234.588V248H267.184ZM304.291 229.543V248H302.059L301.496 245.645C299.258 247.215 297.008 248 294.746 248C290.504 248 288.383 245.709 288.383 241.127V229.543H291.635V241.18C291.635 243.922 292.994 245.293 295.713 245.293C297.576 245.293 299.352 244.514 301.039 242.955V229.543H304.291ZM317.193 229.543C322.443 229.543 325.068 232.139 325.068 237.33C325.068 238.068 325.016 238.859 324.91 239.703H311.955C311.955 243.477 314.158 245.363 318.564 245.363C320.662 245.363 322.525 245.129 324.154 244.66V247.297C322.525 247.766 320.545 248 318.213 248C311.873 248 308.703 244.854 308.703 238.561C308.703 232.549 311.533 229.543 317.193 229.543ZM311.955 236.996H321.939C321.869 233.762 320.287 232.145 317.193 232.145C313.912 232.145 312.166 233.762 311.955 236.996ZM329.27 247.121V244.309C331.438 245.012 333.629 245.363 335.844 245.363C338.785 245.363 340.256 244.484 340.256 242.727C340.256 241.086 339.23 240.266 337.18 240.266H334.543C330.559 240.266 328.566 238.449 328.566 234.816C328.566 231.301 331.127 229.543 336.248 229.543C338.451 229.543 340.637 229.836 342.805 230.422V233.234C340.637 232.531 338.451 232.18 336.248 232.18C333.178 232.18 331.643 233.059 331.643 234.816C331.643 236.457 332.609 237.277 334.543 237.277H337.18C341.398 237.277 343.508 239.094 343.508 242.727C343.508 246.242 340.953 248 335.844 248C333.629 248 331.438 247.707 329.27 247.121ZM347.902 226.555H349.941L350.645 229.543H355.637V232.18H351.154V242.779C351.154 244.502 351.898 245.363 353.387 245.363H355.637V248H352.543C349.449 248 347.902 246.342 347.902 243.025V226.555ZM359.785 248V229.543H361.982L362.562 231.898C364.18 230.328 366.125 229.543 368.398 229.543V232.25C366.195 232.25 364.408 233.029 363.037 234.588V248H359.785ZM370.789 242.428C370.789 238.643 373.285 236.75 378.277 236.75C379.883 236.75 381.488 236.867 383.094 237.102V235.361C383.094 233.24 381.436 232.18 378.119 232.18C376.221 232.18 374.275 232.473 372.283 233.059V230.422C374.275 229.836 376.221 229.543 378.119 229.543C383.604 229.543 386.346 231.453 386.346 235.273V248H384.518L383.393 246.172C381.553 247.391 379.549 248 377.381 248C372.986 248 370.789 246.143 370.789 242.428ZM378.277 239.387C375.453 239.387 374.041 240.383 374.041 242.375C374.041 244.367 375.154 245.363 377.381 245.363C379.631 245.363 381.535 244.766 383.094 243.57V239.738C381.488 239.504 379.883 239.387 378.277 239.387ZM48.7578 282.428C48.7578 278.643 51.2539 276.75 56.2461 276.75C57.8516 276.75 59.457 276.867 61.0625 277.102V275.361C61.0625 273.24 59.4043 272.18 56.0879 272.18C54.1895 272.18 52.2441 272.473 50.252 273.059V270.422C52.2441 269.836 54.1895 269.543 56.0879 269.543C61.5723 269.543 64.3145 271.453 64.3145 275.273V288H62.4863L61.3613 286.172C59.5215 287.391 57.5176 288 55.3496 288C50.9551 288 48.7578 286.143 48.7578 282.428ZM56.2461 279.387C53.4219 279.387 52.0098 280.383 52.0098 282.375C52.0098 284.367 53.123 285.363 55.3496 285.363C57.5996 285.363 59.5039 284.766 61.0625 283.57V279.738C59.457 279.504 57.8516 279.387 56.2461 279.387ZM69.6055 288V269.543H71.8027L72.3477 271.863C74.1172 270.316 76.0449 269.543 78.1309 269.543C80.8027 269.543 82.625 270.387 83.5977 272.074C85.6016 270.387 87.6348 269.543 89.6973 269.543C93.9395 269.543 96.0605 271.881 96.0605 276.557V288H92.8086V276.381C92.8086 273.627 91.6484 272.25 89.3281 272.25C87.5938 272.25 85.9707 273.047 84.459 274.641V288H81.207V276.434C81.207 273.645 80.0586 272.25 77.7617 272.25C75.9336 272.25 74.2988 273.047 72.8574 274.641V288H69.6055ZM104.604 284.238C105.881 284.871 107.305 285.188 108.875 285.188C112.707 285.188 114.623 282.885 114.623 278.279C114.623 274.26 112.719 272.25 108.91 272.25C107.27 272.25 105.834 272.391 104.604 272.672V284.238ZM101.352 270.299C103.801 269.795 106.332 269.543 108.945 269.543C114.863 269.543 117.822 272.467 117.822 278.314C117.822 284.771 114.846 288 108.893 288C107.416 288 105.986 287.707 104.604 287.121V294.68H101.352V270.299ZM125.662 262.863V288H122.41V262.863H125.662ZM134.732 269.543V288H131.48V269.543H134.732ZM134.732 262.863V265.939H131.48V262.863H134.732ZM139.496 282.428C139.496 278.643 141.992 276.75 146.984 276.75C148.59 276.75 150.195 276.867 151.801 277.102V275.361C151.801 273.24 150.143 272.18 146.826 272.18C144.928 272.18 142.982 272.473 140.99 273.059V270.422C142.982 269.836 144.928 269.543 146.826 269.543C152.311 269.543 155.053 271.453 155.053 275.273V288H153.225L152.1 286.172C150.26 287.391 148.256 288 146.088 288C141.693 288 139.496 286.143 139.496 282.428ZM146.984 279.387C144.16 279.387 142.748 280.383 142.748 282.375C142.748 284.367 143.861 285.363 146.088 285.363C148.338 285.363 150.242 284.766 151.801 283.57V279.738C150.195 279.504 148.59 279.387 146.984 279.387ZM178.08 287.121V284.309C180.248 285.012 182.439 285.363 184.654 285.363C187.596 285.363 189.066 284.484 189.066 282.727C189.066 281.086 188.041 280.266 185.99 280.266H183.354C179.369 280.266 177.377 278.449 177.377 274.816C177.377 271.301 179.938 269.543 185.059 269.543C187.262 269.543 189.447 269.836 191.615 270.422V273.234C189.447 272.531 187.262 272.18 185.059 272.18C181.988 272.18 180.453 273.059 180.453 274.816C180.453 276.457 181.42 277.277 183.354 277.277H185.99C190.209 277.277 192.318 279.094 192.318 282.727C192.318 286.242 189.764 288 184.654 288C182.439 288 180.248 287.707 178.08 287.121ZM204.324 269.543C209.574 269.543 212.199 272.139 212.199 277.33C212.199 278.068 212.146 278.859 212.041 279.703H199.086C199.086 283.477 201.289 285.363 205.695 285.363C207.793 285.363 209.656 285.129 211.285 284.66V287.297C209.656 287.766 207.676 288 205.344 288C199.004 288 195.834 284.854 195.834 278.561C195.834 272.549 198.664 269.543 204.324 269.543ZM199.086 276.996H209.07C209 273.762 207.418 272.145 204.324 272.145C201.043 272.145 199.297 273.762 199.086 276.996ZM220.004 262.863V288H216.752V262.863H220.004ZM233.082 269.543C238.332 269.543 240.957 272.139 240.957 277.33C240.957 278.068 240.904 278.859 240.799 279.703H227.844C227.844 283.477 230.047 285.363 234.453 285.363C236.551 285.363 238.414 285.129 240.043 284.66V287.297C238.414 287.766 236.434 288 234.102 288C227.762 288 224.592 284.854 224.592 278.561C224.592 272.549 227.422 269.543 233.082 269.543ZM227.844 276.996H237.828C237.758 273.762 236.176 272.145 233.082 272.145C229.801 272.145 228.055 273.762 227.844 276.996ZM259.221 287.473C257.697 287.824 256.057 288 254.299 288C247.736 288 244.455 284.807 244.455 278.42C244.455 272.502 247.736 269.543 254.299 269.543C256.057 269.543 257.697 269.719 259.221 270.07V272.707C257.697 272.355 255.998 272.18 254.123 272.18C249.846 272.18 247.707 274.26 247.707 278.42C247.707 283.049 249.846 285.363 254.123 285.363C255.998 285.363 257.697 285.188 259.221 284.836V287.473ZM277.256 287.473C275.732 287.824 274.092 288 272.334 288C265.771 288 262.49 284.807 262.49 278.42C262.49 272.502 265.771 269.543 272.334 269.543C274.092 269.543 275.732 269.719 277.256 270.07V272.707C275.732 272.355 274.033 272.18 272.158 272.18C267.881 272.18 265.742 274.26 265.742 278.42C265.742 283.049 267.881 285.363 272.158 285.363C274.033 285.363 275.732 285.188 277.256 284.836V287.473ZM285.008 269.543V288H281.756V269.543H285.008ZM285.008 262.863V265.939H281.756V262.863H285.008ZM293.023 278.701C293.023 283.143 294.869 285.363 298.561 285.363C302.252 285.363 304.098 283.143 304.098 278.701C304.098 274.354 302.252 272.18 298.561 272.18C294.869 272.18 293.023 274.354 293.023 278.701ZM289.771 278.771C289.771 272.619 292.701 269.543 298.561 269.543C304.42 269.543 307.35 272.619 307.35 278.771C307.35 284.912 304.42 287.982 298.561 287.982C292.725 287.982 289.795 284.912 289.771 278.771ZM299.088 262.863H303.289L299.088 267.064H296.205L299.088 262.863ZM311.744 288V269.543H313.941L314.521 271.898C316.408 270.328 318.482 269.543 320.744 269.543C325.35 269.543 327.652 271.834 327.652 276.416V288H324.4V276.363C324.4 273.621 323.035 272.25 320.305 272.25C318.441 272.25 316.672 273.029 314.996 274.588V288H311.744ZM363.248 273.305C361.936 272.672 360.436 272.355 358.748 272.355C355.033 272.355 353.176 274.33 353.176 278.279C353.176 282.955 355.033 285.293 358.748 285.293C360.436 285.293 361.936 285.064 363.248 284.607V273.305ZM366.5 286.893C364.262 287.631 361.502 288 358.221 288C352.725 288 349.977 284.801 349.977 278.402C349.977 272.496 352.895 269.543 358.73 269.543C360.324 269.543 361.83 269.836 363.248 270.422V262.863H366.5V286.893ZM379.385 269.543C384.635 269.543 387.26 272.139 387.26 277.33C387.26 278.068 387.207 278.859 387.102 279.703H374.146C374.146 283.477 376.35 285.363 380.756 285.363C382.854 285.363 384.717 285.129 386.346 284.66V287.297C384.717 287.766 382.736 288 380.404 288C374.064 288 370.895 284.854 370.895 278.561C370.895 272.549 373.725 269.543 379.385 269.543ZM374.146 276.996H384.131C384.061 273.762 382.479 272.145 379.385 272.145C376.104 272.145 374.357 273.762 374.146 276.996ZM48.7578 322.428C48.7578 318.643 51.2539 316.75 56.2461 316.75C57.8516 316.75 59.457 316.867 61.0625 317.102V315.361C61.0625 313.24 59.4043 312.18 56.0879 312.18C54.1895 312.18 52.2441 312.473 50.252 313.059V310.422C52.2441 309.836 54.1895 309.543 56.0879 309.543C61.5723 309.543 64.3145 311.453 64.3145 315.273V328H62.4863L61.3613 326.172C59.5215 327.391 57.5176 328 55.3496 328C50.9551 328 48.7578 326.143 48.7578 322.428ZM56.2461 319.387C53.4219 319.387 52.0098 320.383 52.0098 322.375C52.0098 324.367 53.123 325.363 55.3496 325.363C57.5996 325.363 59.5039 324.766 61.0625 323.57V319.738C59.457 319.504 57.8516 319.387 56.2461 319.387ZM72.8574 324.238C74.1348 324.871 75.5586 325.188 77.1289 325.188C80.9609 325.188 82.877 322.885 82.877 318.279C82.877 314.26 80.9727 312.25 77.1641 312.25C75.5234 312.25 74.0879 312.391 72.8574 312.672V324.238ZM69.6055 310.299C72.0547 309.795 74.5859 309.543 77.1992 309.543C83.1172 309.543 86.0762 312.467 86.0762 318.314C86.0762 324.771 83.0996 328 77.1465 328C75.6699 328 74.2402 327.707 72.8574 327.121V334.68H69.6055V310.299ZM89.6094 322.428C89.6094 318.643 92.1055 316.75 97.0977 316.75C98.7031 316.75 100.309 316.867 101.914 317.102V315.361C101.914 313.24 100.256 312.18 96.9395 312.18C95.041 312.18 93.0957 312.473 91.1035 313.059V310.422C93.0957 309.836 95.041 309.543 96.9395 309.543C102.424 309.543 105.166 311.453 105.166 315.273V328H103.338L102.213 326.172C100.373 327.391 98.3691 328 96.2012 328C91.8066 328 89.6094 326.143 89.6094 322.428ZM97.0977 319.387C94.2734 319.387 92.8613 320.383 92.8613 322.375C92.8613 324.367 93.9746 325.363 96.2012 325.363C98.4512 325.363 100.355 324.766 101.914 323.57V319.738C100.309 319.504 98.7031 319.387 97.0977 319.387ZM110.457 328V309.543H112.654L113.234 311.898C114.852 310.328 116.797 309.543 119.07 309.543V312.25C116.867 312.25 115.08 313.029 113.709 314.588V328H110.457ZM122.34 306.555H124.379L125.082 309.543H130.074V312.18H125.592V322.779C125.592 324.502 126.336 325.363 127.824 325.363H130.074V328H126.98C123.887 328 122.34 326.342 122.34 323.025V306.555ZM133.344 322.428C133.344 318.643 135.84 316.75 140.832 316.75C142.438 316.75 144.043 316.867 145.648 317.102V315.361C145.648 313.24 143.99 312.18 140.674 312.18C138.775 312.18 136.83 312.473 134.838 313.059V310.422C136.83 309.836 138.775 309.543 140.674 309.543C146.158 309.543 148.9 311.453 148.9 315.273V328H147.072L145.947 326.172C144.107 327.391 142.104 328 139.936 328C135.541 328 133.344 326.143 133.344 322.428ZM140.832 319.387C138.008 319.387 136.596 320.383 136.596 322.375C136.596 324.367 137.709 325.363 139.936 325.363C142.186 325.363 144.09 324.766 145.648 323.57V319.738C144.043 319.504 142.438 319.387 140.832 319.387ZM154.191 328V309.543H156.389L156.934 311.863C158.703 310.316 160.631 309.543 162.717 309.543C165.389 309.543 167.211 310.387 168.184 312.074C170.188 310.387 172.221 309.543 174.283 309.543C178.525 309.543 180.646 311.881 180.646 316.557V328H177.395V316.381C177.395 313.627 176.234 312.25 173.914 312.25C172.18 312.25 170.557 313.047 169.045 314.641V328H165.793V316.434C165.793 313.645 164.645 312.25 162.348 312.25C160.52 312.25 158.885 313.047 157.443 314.641V328H154.191ZM193.549 309.543C198.799 309.543 201.424 312.139 201.424 317.33C201.424 318.068 201.371 318.859 201.266 319.703H188.311C188.311 323.477 190.514 325.363 194.92 325.363C197.018 325.363 198.881 325.129 200.51 324.66V327.297C198.881 327.766 196.9 328 194.568 328C188.229 328 185.059 324.854 185.059 318.561C185.059 312.549 187.889 309.543 193.549 309.543ZM188.311 316.996H198.295C198.225 313.762 196.643 312.145 193.549 312.145C190.268 312.145 188.521 313.762 188.311 316.996ZM205.801 328V309.543H207.998L208.578 311.898C210.465 310.328 212.539 309.543 214.801 309.543C219.406 309.543 221.709 311.834 221.709 316.416V328H218.457V316.363C218.457 313.621 217.092 312.25 214.361 312.25C212.498 312.25 210.729 313.029 209.053 314.588V328H205.801ZM227 306.555H229.039L229.742 309.543H234.734V312.18H230.252V322.779C230.252 324.502 230.996 325.363 232.484 325.363H234.734V328H231.641C228.547 328 227 326.342 227 323.025V306.555ZM241.256 318.701C241.256 323.143 243.102 325.363 246.793 325.363C250.484 325.363 252.33 323.143 252.33 318.701C252.33 314.354 250.484 312.18 246.793 312.18C243.102 312.18 241.256 314.354 241.256 318.701ZM238.004 318.771C238.004 312.619 240.934 309.543 246.793 309.543C252.652 309.543 255.582 312.619 255.582 318.771C255.582 324.912 252.652 327.982 246.793 327.982C240.957 327.982 238.027 324.912 238.004 318.771ZM259.801 327.121V324.309C261.969 325.012 264.16 325.363 266.375 325.363C269.316 325.363 270.787 324.484 270.787 322.727C270.787 321.086 269.762 320.266 267.711 320.266H265.074C261.09 320.266 259.098 318.449 259.098 314.816C259.098 311.301 261.658 309.543 266.779 309.543C268.982 309.543 271.168 309.836 273.336 310.422V313.234C271.168 312.531 268.982 312.18 266.779 312.18C263.709 312.18 262.174 313.059 262.174 314.816C262.174 316.457 263.141 317.277 265.074 317.277H267.711C271.93 317.277 274.039 319.094 274.039 322.727C274.039 326.242 271.484 328 266.375 328C264.16 328 261.969 327.707 259.801 327.121ZM370.982 309.543H374.516L379.736 323.957L385.133 309.543H388.578L380.914 328.545C379.555 331.896 377.516 333.988 374.797 334.82L373.549 332.518C375.611 331.615 377.111 330.145 378.049 328.105L370.982 309.543ZM63.5234 367.473C62 367.824 60.3594 368 58.6016 368C52.0391 368 48.7578 364.807 48.7578 358.42C48.7578 352.502 52.0391 349.543 58.6016 349.543C60.3594 349.543 62 349.719 63.5234 350.07V352.707C62 352.355 60.3008 352.18 58.4258 352.18C54.1484 352.18 52.0098 354.26 52.0098 358.42C52.0098 363.049 54.1484 365.363 58.4258 365.363C60.3008 365.363 62 365.188 63.5234 364.836V367.473ZM66.793 362.428C66.793 358.643 69.2891 356.75 74.2812 356.75C75.8867 356.75 77.4922 356.867 79.0977 357.102V355.361C79.0977 353.24 77.4395 352.18 74.123 352.18C72.2246 352.18 70.2793 352.473 68.2871 353.059V350.422C70.2793 349.836 72.2246 349.543 74.123 349.543C79.6074 349.543 82.3496 351.453 82.3496 355.273V368H80.5215L79.3965 366.172C77.5566 367.391 75.5527 368 73.3848 368C68.9902 368 66.793 366.143 66.793 362.428ZM74.2812 359.387C71.457 359.387 70.0449 360.383 70.0449 362.375C70.0449 364.367 71.1582 365.363 73.3848 365.363C75.6348 365.363 77.5391 364.766 79.0977 363.57V359.738C77.4922 359.504 75.8867 359.387 74.2812 359.387ZM87.4648 367.121V364.309C89.6328 365.012 91.8242 365.363 94.0391 365.363C96.9805 365.363 98.4512 364.484 98.4512 362.727C98.4512 361.086 97.4258 360.266 95.375 360.266H92.7383C88.7539 360.266 86.7617 358.449 86.7617 354.816C86.7617 351.301 89.3223 349.543 94.4434 349.543C96.6465 349.543 98.832 349.836 101 350.422V353.234C98.832 352.531 96.6465 352.18 94.4434 352.18C91.373 352.18 89.8379 353.059 89.8379 354.816C89.8379 356.457 90.8047 357.277 92.7383 357.277H95.375C99.5938 357.277 101.703 359.094 101.703 362.727C101.703 366.242 99.1484 368 94.0391 368C91.8242 368 89.6328 367.707 87.4648 367.121ZM105.219 362.428C105.219 358.643 107.715 356.75 112.707 356.75C114.312 356.75 115.918 356.867 117.523 357.102V355.361C117.523 353.24 115.865 352.18 112.549 352.18C110.65 352.18 108.705 352.473 106.713 353.059V350.422C108.705 349.836 110.65 349.543 112.549 349.543C118.033 349.543 120.775 351.453 120.775 355.273V368H118.947L117.822 366.172C115.982 367.391 113.979 368 111.811 368C107.416 368 105.219 366.143 105.219 362.428ZM112.707 359.387C109.883 359.387 108.471 360.383 108.471 362.375C108.471 364.367 109.584 365.363 111.811 365.363C114.061 365.363 115.965 364.766 117.523 363.57V359.738C115.918 359.504 114.312 359.387 112.707 359.387ZM125.891 367.121V364.309C128.059 365.012 130.25 365.363 132.465 365.363C135.406 365.363 136.877 364.484 136.877 362.727C136.877 361.086 135.852 360.266 133.801 360.266H131.164C127.18 360.266 125.188 358.449 125.188 354.816C125.188 351.301 127.748 349.543 132.869 349.543C135.072 349.543 137.258 349.836 139.426 350.422V353.234C137.258 352.531 135.072 352.18 132.869 352.18C129.799 352.18 128.264 353.059 128.264 354.816C128.264 356.457 129.23 357.277 131.164 357.277H133.801C138.02 357.277 140.129 359.094 140.129 362.727C140.129 366.242 137.574 368 132.465 368C130.25 368 128.059 367.707 125.891 367.121ZM214.889 353.305C213.576 352.672 212.076 352.355 210.389 352.355C206.674 352.355 204.816 354.33 204.816 358.279C204.816 362.955 206.674 365.293 210.389 365.293C212.076 365.293 213.576 365.064 214.889 364.607V353.305ZM218.141 366.893C215.902 367.631 213.143 368 209.861 368C204.365 368 201.617 364.801 201.617 358.402C201.617 352.496 204.535 349.543 210.371 349.543C211.965 349.543 213.471 349.836 214.889 350.422V342.863H218.141V366.893ZM227.018 349.543V368H223.766V349.543H227.018ZM227.018 342.863V345.939H223.766V342.863H227.018ZM232.484 367.121V364.309C234.652 365.012 236.844 365.363 239.059 365.363C242 365.363 243.471 364.484 243.471 362.727C243.471 361.086 242.445 360.266 240.395 360.266H237.758C233.773 360.266 231.781 358.449 231.781 354.816C231.781 351.301 234.342 349.543 239.463 349.543C241.666 349.543 243.852 349.836 246.02 350.422V353.234C243.852 352.531 241.666 352.18 239.463 352.18C236.393 352.18 234.857 353.059 234.857 354.816C234.857 356.457 235.824 357.277 237.758 357.277H240.395C244.613 357.277 246.723 359.094 246.723 362.727C246.723 366.242 244.168 368 239.059 368C236.844 368 234.652 367.707 232.484 367.121ZM254.369 364.238C255.646 364.871 257.07 365.188 258.641 365.188C262.473 365.188 264.389 362.885 264.389 358.279C264.389 354.26 262.484 352.25 258.676 352.25C257.035 352.25 255.6 352.391 254.369 352.672V364.238ZM251.117 350.299C253.566 349.795 256.098 349.543 258.711 349.543C264.629 349.543 267.588 352.467 267.588 358.314C267.588 364.771 264.611 368 258.658 368C257.182 368 255.752 367.707 254.369 367.121V374.68H251.117V350.299ZM274.373 358.701C274.373 363.143 276.219 365.363 279.91 365.363C283.602 365.363 285.447 363.143 285.447 358.701C285.447 354.354 283.602 352.18 279.91 352.18C276.219 352.18 274.373 354.354 274.373 358.701ZM271.121 358.771C271.121 352.619 274.051 349.543 279.91 349.543C285.77 349.543 288.699 352.619 288.699 358.771C288.699 364.912 285.77 367.982 279.91 367.982C274.074 367.982 271.145 364.912 271.121 358.771ZM293.094 368V349.543H295.291L295.871 351.898C297.758 350.328 299.832 349.543 302.094 349.543C306.699 349.543 309.002 351.834 309.002 356.416V368H305.75V356.363C305.75 353.621 304.385 352.25 301.654 352.25C299.791 352.25 298.021 353.029 296.346 354.588V368H293.094ZM317.896 349.543V368H314.645V349.543H317.896ZM317.896 342.863V345.939H314.645V342.863H317.896ZM326.791 364.783C327.857 365.123 329.152 365.293 330.676 365.293C334.777 365.293 336.828 362.955 336.828 358.279C336.828 354.33 334.971 352.355 331.256 352.355C329.568 352.355 328.08 352.672 326.791 353.305V364.783ZM323.539 342.863H326.791V350.422C328.186 349.836 329.68 349.543 331.273 349.543C337.109 349.543 340.027 352.496 340.027 358.402C340.027 364.801 336.963 368 330.834 368C328.186 368 325.754 367.748 323.539 367.244V342.863ZM347.85 342.863V368H344.598V342.863H347.85ZM360.928 349.543C366.178 349.543 368.803 352.139 368.803 357.33C368.803 358.068 368.75 358.859 368.645 359.703H355.689C355.689 363.477 357.893 365.363 362.299 365.363C364.396 365.363 366.26 365.129 367.889 364.66V367.297C366.26 367.766 364.279 368 361.947 368C355.607 368 352.438 364.854 352.438 358.561C352.438 352.549 355.268 349.543 360.928 349.543ZM355.689 356.996H365.674C365.604 353.762 364.021 352.145 360.928 352.145C357.646 352.145 355.9 353.762 355.689 356.996ZM373.004 367.121V364.309C375.172 365.012 377.363 365.363 379.578 365.363C382.52 365.363 383.99 364.484 383.99 362.727C383.99 361.086 382.965 360.266 380.914 360.266H378.277C374.293 360.266 372.301 358.449 372.301 354.816C372.301 351.301 374.861 349.543 379.982 349.543C382.186 349.543 384.371 349.836 386.539 350.422V353.234C384.371 352.531 382.186 352.18 379.982 352.18C376.912 352.18 375.377 353.059 375.377 354.816C375.377 356.457 376.344 357.277 378.277 357.277H380.914C385.133 357.277 387.242 359.094 387.242 362.727C387.242 366.242 384.688 368 379.578 368C377.363 368 375.172 367.707 373.004 367.121ZM52.8887 404.238C54.166 404.871 55.5898 405.188 57.1602 405.188C60.9922 405.188 62.9082 402.885 62.9082 398.279C62.9082 394.26 61.0039 392.25 57.1953 392.25C55.5547 392.25 54.1191 392.391 52.8887 392.672V404.238ZM49.6367 390.299C52.0859 389.795 54.6172 389.543 57.2305 389.543C63.1484 389.543 66.1074 392.467 66.1074 398.314C66.1074 404.771 63.1309 408 57.1777 408C55.7012 408 54.2715 407.707 52.8887 407.121V414.68H49.6367V390.299ZM69.6406 402.428C69.6406 398.643 72.1367 396.75 77.1289 396.75C78.7344 396.75 80.3398 396.867 81.9453 397.102V395.361C81.9453 393.24 80.2871 392.18 76.9707 392.18C75.0723 392.18 73.127 392.473 71.1348 393.059V390.422C73.127 389.836 75.0723 389.543 76.9707 389.543C82.4551 389.543 85.1973 391.453 85.1973 395.273V408H83.3691L82.2441 406.172C80.4043 407.391 78.4004 408 76.2324 408C71.8379 408 69.6406 406.143 69.6406 402.428ZM77.1289 399.387C74.3047 399.387 72.8926 400.383 72.8926 402.375C72.8926 404.367 74.0059 405.363 76.2324 405.363C78.4824 405.363 80.3867 404.766 81.9453 403.57V399.738C80.3398 399.504 78.7344 399.387 77.1289 399.387ZM90.4883 408V389.543H92.6855L93.2656 391.898C94.8828 390.328 96.8281 389.543 99.1016 389.543V392.25C96.8984 392.25 95.1113 393.029 93.7402 394.588V408H90.4883ZM101.492 402.428C101.492 398.643 103.988 396.75 108.98 396.75C110.586 396.75 112.191 396.867 113.797 397.102V395.361C113.797 393.24 112.139 392.18 108.822 392.18C106.924 392.18 104.979 392.473 102.986 393.059V390.422C104.979 389.836 106.924 389.543 108.822 389.543C114.307 389.543 117.049 391.453 117.049 395.273V408H115.221L114.096 406.172C112.256 407.391 110.252 408 108.084 408C103.689 408 101.492 406.143 101.492 402.428ZM108.98 399.387C106.156 399.387 104.744 400.383 104.744 402.375C104.744 404.367 105.857 405.363 108.084 405.363C110.334 405.363 112.238 404.766 113.797 403.57V399.738C112.191 399.504 110.586 399.387 108.98 399.387ZM130.25 402.428C130.25 398.643 132.746 396.75 137.738 396.75C139.344 396.75 140.949 396.867 142.555 397.102V395.361C142.555 393.24 140.896 392.18 137.58 392.18C135.682 392.18 133.736 392.473 131.744 393.059V390.422C133.736 389.836 135.682 389.543 137.58 389.543C143.064 389.543 145.807 391.453 145.807 395.273V408H143.979L142.854 406.172C141.014 407.391 139.01 408 136.842 408C132.447 408 130.25 406.143 130.25 402.428ZM137.738 399.387C134.914 399.387 133.502 400.383 133.502 402.375C133.502 404.367 134.615 405.363 136.842 405.363C139.092 405.363 140.996 404.766 142.555 403.57V399.738C140.949 399.504 139.344 399.387 137.738 399.387ZM154.525 382.863V408H151.273V382.863H154.525ZM172.332 392.672C171.219 392.391 169.842 392.25 168.201 392.25C164.275 392.25 162.312 394.377 162.312 398.631C162.312 403.002 164.17 405.188 167.885 405.188C169.572 405.188 171.055 404.871 172.332 404.238V392.672ZM175.584 414.68H172.332V407.121C170.949 407.707 169.461 408 167.867 408C162.031 408 159.113 404.889 159.113 398.666C159.113 392.584 162.189 389.543 168.342 389.543C170.838 389.543 173.252 389.795 175.584 390.299V414.68ZM196.783 389.543V408H194.551L193.988 405.645C191.75 407.215 189.5 408 187.238 408C182.996 408 180.875 405.709 180.875 401.127V389.543H184.127V401.18C184.127 403.922 185.486 405.293 188.205 405.293C190.068 405.293 191.844 404.514 193.531 402.955V389.543H196.783ZM205.678 389.543V408H202.426V389.543H205.678ZM205.678 382.863V385.939H202.426V382.863H205.678ZM214.748 382.863V408H211.496V382.863H214.748ZM219.336 402.428C219.336 398.643 221.832 396.75 226.824 396.75C228.43 396.75 230.035 396.867 231.641 397.102V395.361C231.641 393.24 229.982 392.18 226.666 392.18C224.768 392.18 222.822 392.473 220.83 393.059V390.422C222.822 389.836 224.768 389.543 226.666 389.543C232.15 389.543 234.893 391.453 234.893 395.273V408H233.064L231.939 406.172C230.1 407.391 228.096 408 225.928 408C221.533 408 219.336 406.143 219.336 402.428ZM226.824 399.387C224 399.387 222.588 400.383 222.588 402.375C222.588 404.367 223.701 405.363 225.928 405.363C228.178 405.363 230.082 404.766 231.641 403.57V399.738C230.035 399.504 228.43 399.387 226.824 399.387ZM240.184 408V389.543H242.381L242.961 391.898C244.578 390.328 246.523 389.543 248.797 389.543V392.25C246.594 392.25 244.807 393.029 243.436 394.588V408H240.184ZM254.439 404.748V408H251.188V404.748H254.439Z" fill="#1E1E1E"/>
<path d="M436 412V396.267H703V412H436ZM473.127 380.533C467.124 380.533 462.113 378.105 458.093 373.249C454.065 368.403 452.051 362.356 452.051 355.108V201.394C452.051 194.156 454.065 188.115 458.093 183.269C462.121 178.423 467.133 176 473.127 176H665.873C671.876 176 676.887 178.423 680.907 183.269C684.935 188.125 686.949 194.172 686.949 201.409V355.124C686.949 362.361 684.939 368.403 680.92 373.249C676.9 378.095 671.885 380.523 665.873 380.533H473.127ZM473.127 364.8H665.873C667.874 364.8 669.714 363.788 671.393 361.763C673.064 359.75 673.899 357.531 673.899 355.108V201.394C673.899 198.981 673.064 196.768 671.393 194.754C669.714 192.74 667.874 191.733 665.873 191.733H473.127C471.126 191.733 469.286 192.74 467.607 194.754C465.936 196.768 465.101 198.986 465.101 201.409V355.124C465.101 357.536 465.936 359.75 467.607 361.763C469.286 363.788 471.126 364.8 473.127 364.8Z" fill="black"/>
<path d="M640.9 327.599H630.7V267.502C630.7 266.062 630.407 264.638 629.84 263.32C629.273 262.002 628.443 260.818 627.404 259.844L576.404 210.778C576.379 210.756 576.356 210.732 576.334 210.706C574.456 208.965 572.009 208 569.471 208C566.933 208 564.486 208.965 562.609 210.706L562.538 210.778L511.596 259.844C510.557 260.818 509.727 262.002 509.16 263.32C508.593 264.638 508.3 266.062 508.3 267.502V327.599H498.1C496.747 327.599 495.45 328.147 494.494 329.122C493.537 330.098 493 331.42 493 332.8C493 334.179 493.537 335.502 494.494 336.477C495.45 337.452 496.747 338 498.1 338H640.9C642.253 338 643.55 337.452 644.506 336.477C645.463 335.502 646 334.179 646 332.8C646 331.42 645.463 330.098 644.506 329.122C643.55 328.147 642.253 327.599 640.9 327.599ZM518.5 267.502L518.57 267.436L569.5 218.39L620.436 267.424L620.506 267.489V327.599H589.9V296.396C589.9 293.638 588.825 290.992 586.912 289.042C585 287.091 582.405 285.996 579.7 285.996H559.3C556.595 285.996 554 287.091 552.088 289.042C550.175 290.992 549.1 293.638 549.1 296.396V327.599H518.5V267.502ZM579.7 327.599H559.3V296.396H579.7V327.599Z" fill="black"/>
</svg>
