<svg width="778" height="492" viewBox="0 0 778 492" fill="none" xmlns="http://www.w3.org/2000/svg">
<mask id="path-1-inside-1_358_195" fill="white">
<path d="M0 0H778V492H0V0Z"/>
</mask>
<path d="M0 0H778V492H0V0Z" fill="white"/>
<path d="M0 1H778V-1H0V1ZM778 491H0V493H778V491Z" fill="#CCCCCC" mask="url(#path-1-inside-1_358_195)"/>
<path d="M72.1953 105.711C69.9427 106.701 67.1237 107.195 63.7383 107.195C53.8815 107.195 48.9531 102.345 48.9531 92.6445C48.9531 83.4648 53.9661 78.875 63.9922 78.875C67.0521 78.875 69.7865 79.3307 72.1953 80.2422V84.9297C69.7865 83.888 67.1823 83.3672 64.3828 83.3672C57.6771 83.3672 54.3242 86.4596 54.3242 92.6445C54.3242 99.3503 57.4883 102.703 63.8164 102.703C64.7539 102.703 65.8216 102.547 67.0195 102.234V94.1094H72.1953V105.711ZM85.2422 86.4922C91.4661 86.4922 94.5781 89.6693 94.5781 96.0234C94.5781 96.8698 94.5195 97.7161 94.4023 98.5625H80.7891C80.7891 101.453 82.9115 102.898 87.1562 102.898C89.2266 102.898 91.2969 102.703 93.3672 102.312V106.414C91.5573 106.805 89.3568 107 86.7656 107C79.3307 107 75.6133 103.504 75.6133 96.5117C75.6133 89.832 78.8229 86.4922 85.2422 86.4922ZM80.7891 94.9688H89.5391V94.8125C89.5391 91.974 88.1068 90.5547 85.2422 90.5547C82.5078 90.5547 81.0234 92.026 80.7891 94.9688ZM98.4648 107V86.4922H102.469L103.113 89.5C105.079 87.4948 107.319 86.4922 109.832 86.4922C114.689 86.4922 117.117 89.0182 117.117 94.0703V107H111.941V94.0703C111.941 91.8047 110.815 90.6719 108.562 90.6719C106.883 90.6719 105.242 91.3424 103.641 92.6836V107H98.4648ZM130.672 86.4922C136.896 86.4922 140.008 89.6693 140.008 96.0234C140.008 96.8698 139.949 97.7161 139.832 98.5625H126.219C126.219 101.453 128.341 102.898 132.586 102.898C134.656 102.898 136.727 102.703 138.797 102.312V106.414C136.987 106.805 134.786 107 132.195 107C124.76 107 121.043 103.504 121.043 96.5117C121.043 89.832 124.253 86.4922 130.672 86.4922ZM126.219 94.9688H134.969V94.8125C134.969 91.974 133.536 90.5547 130.672 90.5547C127.938 90.5547 126.453 92.026 126.219 94.9688ZM143.895 107V86.4922H147.898L148.543 89.1094C150.34 87.3646 152.241 86.4922 154.246 86.4922V90.6719C152.319 90.6719 150.594 91.4727 149.07 93.0742V107H143.895ZM156.199 100.613C156.199 96.5378 159.168 94.5 165.105 94.5C166.499 94.5 167.892 94.6302 169.285 94.8906V93.3477C169.285 91.5117 167.964 90.5938 165.32 90.5938C163.081 90.5938 160.594 90.9193 157.859 91.5703V87.4688C160.594 86.8177 163.081 86.4922 165.32 86.4922C171.414 86.4922 174.461 88.7448 174.461 93.25V107H171.453L169.617 105.164C167.833 106.388 165.867 107 163.719 107C158.706 107 156.199 104.871 156.199 100.613ZM169.285 98.4062C167.983 98.1458 166.59 98.0156 165.105 98.0156C162.618 98.0156 161.375 98.862 161.375 100.555C161.375 102.378 162.417 103.289 164.5 103.289C166.219 103.289 167.814 102.755 169.285 101.688V98.4062ZM193.328 79.0703V83.1719H188.152V79.0703H193.328ZM193.328 86.4922V107H188.152V86.4922H193.328ZM198.23 107V86.4922H202.234L202.879 89.5C204.845 87.4948 207.085 86.4922 209.598 86.4922C214.454 86.4922 216.883 89.0182 216.883 94.0703V107H211.707V94.0703C211.707 91.8047 210.581 90.6719 208.328 90.6719C206.648 90.6719 205.008 91.3424 203.406 92.6836V107H198.23ZM234.91 91.1406C234.064 90.8281 232.859 90.6719 231.297 90.6719C227.716 90.6719 225.926 92.6445 225.926 96.5898C225.926 100.405 227.469 102.312 230.555 102.312C232.039 102.312 233.491 101.961 234.91 101.258V91.1406ZM240.086 105.438C240.086 111.427 236.486 114.422 229.285 114.422C226.759 114.422 224.52 114.096 222.566 113.445V109.344C224.559 109.995 226.811 110.32 229.324 110.32C233.048 110.32 234.91 108.758 234.91 105.633C233.374 106.284 231.72 106.609 229.949 106.609C223.855 106.609 220.809 103.283 220.809 96.6289C220.809 89.8711 224.357 86.4922 231.453 86.4922C233.836 86.4922 236.714 86.7721 240.086 87.332V105.438ZM244.988 107V86.4922H248.992L249.637 89.1094C251.434 87.3646 253.335 86.4922 255.34 86.4922V90.6719C253.413 90.6719 251.688 91.4727 250.164 93.0742V107H244.988ZM266.922 86.4922C273.146 86.4922 276.258 89.6693 276.258 96.0234C276.258 96.8698 276.199 97.7161 276.082 98.5625H262.469C262.469 101.453 264.591 102.898 268.836 102.898C270.906 102.898 272.977 102.703 275.047 102.312V106.414C273.237 106.805 271.036 107 268.445 107C261.01 107 257.293 103.504 257.293 96.5117C257.293 89.832 260.503 86.4922 266.922 86.4922ZM262.469 94.9688H271.219V94.8125C271.219 91.974 269.786 90.5547 266.922 90.5547C264.188 90.5547 262.703 92.026 262.469 94.9688ZM280.145 106.023V101.727C282.423 102.638 285.053 103.094 288.035 103.094C290.262 103.094 291.375 102.378 291.375 100.945C291.375 99.5781 290.626 98.8945 289.129 98.8945H285.418C281.251 98.8945 279.168 96.8438 279.168 92.7422C279.168 88.4453 282.208 86.2969 288.289 86.2969C290.867 86.2969 293.296 86.6875 295.574 87.4688V91.7656C293.296 90.8542 290.822 90.3984 288.152 90.3984C285.353 90.3984 283.953 91.1146 283.953 92.5469C283.953 93.9141 284.767 94.5977 286.395 94.5977H289.715C294.272 94.5977 296.551 96.6484 296.551 100.75C296.551 105.047 293.647 107.195 287.84 107.195C284.988 107.195 282.423 106.805 280.145 106.023ZM304.383 96.668C304.383 100.952 306.043 103.094 309.363 103.094C312.684 103.094 314.344 100.952 314.344 96.668C314.344 92.4883 312.684 90.3984 309.363 90.3984C306.043 90.3984 304.383 92.4883 304.383 96.668ZM299.207 96.7461C299.207 89.8711 302.592 86.4336 309.363 86.4336C316.134 86.4336 319.52 89.8711 319.52 96.7461C319.52 103.608 316.134 107.039 309.363 107.039C302.618 107.039 299.233 103.608 299.207 96.7461ZM323.426 106.023V101.727C325.704 102.638 328.335 103.094 331.316 103.094C333.543 103.094 334.656 102.378 334.656 100.945C334.656 99.5781 333.908 98.8945 332.41 98.8945H328.699C324.533 98.8945 322.449 96.8438 322.449 92.7422C322.449 88.4453 325.49 86.2969 331.57 86.2969C334.148 86.2969 336.577 86.6875 338.855 87.4688V91.7656C336.577 90.8542 334.103 90.3984 331.434 90.3984C328.634 90.3984 327.234 91.1146 327.234 92.5469C327.234 93.9141 328.048 94.5977 329.676 94.5977H332.996C337.553 94.5977 339.832 96.6484 339.832 100.75C339.832 105.047 336.928 107.195 331.121 107.195C328.27 107.195 325.704 106.805 323.426 106.023ZM360.906 86.4922C367.13 86.4922 370.242 89.6693 370.242 96.0234C370.242 96.8698 370.184 97.7161 370.066 98.5625H356.453C356.453 101.453 358.576 102.898 362.82 102.898C364.891 102.898 366.961 102.703 369.031 102.312V106.414C367.221 106.805 365.021 107 362.43 107C354.995 107 351.277 103.504 351.277 96.5117C351.277 89.832 354.487 86.4922 360.906 86.4922ZM356.453 94.9688H365.203V94.8125C365.203 91.974 363.771 90.5547 360.906 90.5547C358.172 90.5547 356.688 92.026 356.453 94.9688ZM379.363 96.7461L371.688 86.4922H377.449L382.234 92.8984L387.02 86.4922H392.781L385.125 96.7461L392.781 107H387.02L382.234 100.594L377.449 107H371.688L379.363 96.7461ZM394.93 83.1719H398.758L399.539 86.4922H404.695V90.5938H400.105V100.027C400.105 101.941 400.932 102.898 402.586 102.898H404.695V107H400.086C396.648 107 394.93 105.158 394.93 101.473V83.1719ZM408.23 107V86.4922H412.234L412.879 89.1094C414.676 87.3646 416.577 86.4922 418.582 86.4922V90.6719C416.655 90.6719 414.93 91.4727 413.406 93.0742V107H408.23ZM420.535 100.613C420.535 96.5378 423.504 94.5 429.441 94.5C430.835 94.5 432.228 94.6302 433.621 94.8906V93.3477C433.621 91.5117 432.299 90.5938 429.656 90.5938C427.417 90.5938 424.93 90.9193 422.195 91.5703V87.4688C424.93 86.8177 427.417 86.4922 429.656 86.4922C435.75 86.4922 438.797 88.7448 438.797 93.25V107H435.789L433.953 105.164C432.169 106.388 430.203 107 428.055 107C423.042 107 420.535 104.871 420.535 100.613ZM433.621 98.4062C432.319 98.1458 430.926 98.0156 429.441 98.0156C426.954 98.0156 425.711 98.862 425.711 100.555C425.711 102.378 426.753 103.289 428.836 103.289C430.555 103.289 432.15 102.755 433.621 101.688V98.4062ZM443.699 106.023V101.727C445.978 102.638 448.608 103.094 451.59 103.094C453.816 103.094 454.93 102.378 454.93 100.945C454.93 99.5781 454.181 98.8945 452.684 98.8945H448.973C444.806 98.8945 442.723 96.8438 442.723 92.7422C442.723 88.4453 445.763 86.2969 451.844 86.2969C454.422 86.2969 456.85 86.6875 459.129 87.4688V91.7656C456.85 90.8542 454.376 90.3984 451.707 90.3984C448.908 90.3984 447.508 91.1146 447.508 92.5469C447.508 93.9141 448.322 94.5977 449.949 94.5977H453.27C457.827 94.5977 460.105 96.6484 460.105 100.75C460.105 105.047 457.202 107.195 451.395 107.195C448.543 107.195 445.978 106.805 443.699 106.023ZM477.703 101.648C478.992 102.352 480.379 102.703 481.863 102.703C484.949 102.703 486.492 100.535 486.492 96.1992C486.492 92.5143 484.786 90.6719 481.375 90.6719C479.904 90.6719 478.68 90.763 477.703 90.9453V101.648ZM472.527 87.332C475.249 86.7721 478.126 86.4922 481.16 86.4922C488.126 86.4922 491.609 89.7409 491.609 96.2383C491.609 103.413 488.367 107 481.883 107C480.503 107 479.109 106.674 477.703 106.023V114.422H472.527V87.332ZM513.992 86.4922V107H509.949L509.324 104.383C506.967 106.128 504.467 107 501.824 107C497.632 107 495.535 104.52 495.535 99.5586V86.4922H500.711V99.4219C500.711 101.688 501.701 102.82 503.68 102.82C505.359 102.82 507.072 102.15 508.816 100.809V86.4922H513.992ZM524.07 102.254C525.255 102.632 526.629 102.82 528.191 102.82C531.316 102.82 532.879 100.613 532.879 96.1992C532.879 92.5924 531.531 90.7891 528.836 90.7891C527.091 90.7891 525.503 91.1406 524.07 91.8438V102.254ZM518.895 79.0703H524.07V88.0547C525.62 87.013 527.345 86.4922 529.246 86.4922C535.079 86.4922 537.996 89.7734 537.996 96.3359C537.996 103.445 534.656 107 527.977 107C525.164 107 522.137 106.72 518.895 106.16V79.0703ZM547.078 79.0703V107H541.902V79.0703H547.078ZM557.156 79.0703V83.1719H551.98V79.0703H557.156ZM557.156 86.4922V107H551.98V86.4922H557.156ZM577.195 106.414C575.503 106.805 573.745 107 571.922 107C564.63 107 560.984 103.452 560.984 96.3555C560.984 89.7799 564.63 86.4922 571.922 86.4922C573.745 86.4922 575.503 86.6875 577.195 87.0781V91.1797C575.503 90.7891 573.875 90.5938 572.312 90.5938C568.211 90.5938 566.16 92.5143 566.16 96.3555C566.16 100.717 568.211 102.898 572.312 102.898C573.875 102.898 575.503 102.703 577.195 102.312V106.414ZM579.637 100.613C579.637 96.5378 582.605 94.5 588.543 94.5C589.936 94.5 591.329 94.6302 592.723 94.8906V93.3477C592.723 91.5117 591.401 90.5938 588.758 90.5938C586.518 90.5938 584.031 90.9193 581.297 91.5703V87.4688C584.031 86.8177 586.518 86.4922 588.758 86.4922C594.852 86.4922 597.898 88.7448 597.898 93.25V107H594.891L593.055 105.164C591.271 106.388 589.305 107 587.156 107C582.143 107 579.637 104.871 579.637 100.613ZM592.723 98.4062C591.421 98.1458 590.027 98.0156 588.543 98.0156C586.056 98.0156 584.812 98.862 584.812 100.555C584.812 102.378 585.854 103.289 587.938 103.289C589.656 103.289 591.251 102.755 592.723 101.688V98.4062ZM602.801 107V86.4922H606.805L607.449 89.5C609.415 87.4948 611.655 86.4922 614.168 86.4922C619.025 86.4922 621.453 89.0182 621.453 94.0703V107H616.277V94.0703C616.277 91.8047 615.151 90.6719 612.898 90.6719C611.219 90.6719 609.578 91.3424 607.977 92.6836V107H602.801ZM639.344 91.8438C638.276 91.1406 636.935 90.7891 635.32 90.7891C632.104 90.7891 630.496 92.5924 630.496 96.1992C630.496 100.483 632.169 102.625 635.516 102.625C636.87 102.625 638.146 102.436 639.344 102.059V91.8438ZM644.52 105.77C641.382 106.59 638.315 107 635.32 107C628.693 107 625.379 103.445 625.379 96.3359C625.379 89.7734 628.621 86.4922 635.105 86.4922C636.486 86.4922 637.898 86.8177 639.344 87.4688V79.0703H644.52V105.77ZM653.602 96.668C653.602 100.952 655.262 103.094 658.582 103.094C661.902 103.094 663.562 100.952 663.562 96.668C663.562 92.4883 661.902 90.3984 658.582 90.3984C655.262 90.3984 653.602 92.4883 653.602 96.668ZM648.426 96.7461C648.426 89.8711 651.811 86.4336 658.582 86.4336C665.353 86.4336 668.738 89.8711 668.738 96.7461C668.738 103.608 665.353 107.039 658.582 107.039C651.837 107.039 648.452 103.608 648.426 96.7461ZM681.141 83.1719H684.969L685.75 86.4922H690.906V90.5938H686.316V100.027C686.316 101.941 687.143 102.898 688.797 102.898H690.906V107H686.297C682.859 107 681.141 105.158 681.141 101.473V83.1719ZM712.898 86.4922V107H708.855L708.23 104.383C705.874 106.128 703.374 107 700.73 107C696.538 107 694.441 104.52 694.441 99.5586V86.4922H699.617V99.4219C699.617 101.688 700.607 102.82 702.586 102.82C704.266 102.82 705.978 102.15 707.723 100.809V86.4922H712.898ZM717.801 106.023V101.727C720.079 102.638 722.71 103.094 725.691 103.094C727.918 103.094 729.031 102.378 729.031 100.945C729.031 99.5781 728.283 98.8945 726.785 98.8945H723.074C718.908 98.8945 716.824 96.8438 716.824 92.7422C716.824 88.4453 719.865 86.2969 725.945 86.2969C728.523 86.2969 730.952 86.6875 733.23 87.4688V91.7656C730.952 90.8542 728.478 90.3984 725.809 90.3984C723.009 90.3984 721.609 91.1146 721.609 92.5469C721.609 93.9141 722.423 94.5977 724.051 94.5977H727.371C731.928 94.5977 734.207 96.6484 734.207 100.75C734.207 105.047 731.303 107.195 725.496 107.195C722.645 107.195 720.079 106.805 717.801 106.023ZM49.4414 151.023V146.727C51.7201 147.638 54.3503 148.094 57.332 148.094C59.5586 148.094 60.6719 147.378 60.6719 145.945C60.6719 144.578 59.9232 143.895 58.4258 143.895H54.7148C50.5482 143.895 48.4648 141.844 48.4648 137.742C48.4648 133.445 51.5052 131.297 57.5859 131.297C60.1641 131.297 62.5924 131.688 64.8711 132.469V136.766C62.5924 135.854 60.1185 135.398 57.4492 135.398C54.6497 135.398 53.25 136.115 53.25 137.547C53.25 138.914 54.0638 139.598 55.6914 139.598H59.0117C63.569 139.598 65.8477 141.648 65.8477 145.75C65.8477 150.047 62.944 152.195 57.1367 152.195C54.2852 152.195 51.7201 151.805 49.4414 151.023ZM78.1328 131.492C84.3568 131.492 87.4688 134.669 87.4688 141.023C87.4688 141.87 87.4102 142.716 87.293 143.562H73.6797C73.6797 146.453 75.8021 147.898 80.0469 147.898C82.1172 147.898 84.1875 147.703 86.2578 147.312V151.414C84.4479 151.805 82.2474 152 79.6562 152C72.2214 152 68.5039 148.504 68.5039 141.512C68.5039 134.832 71.7135 131.492 78.1328 131.492ZM73.6797 139.969H82.4297V139.812C82.4297 136.974 80.9974 135.555 78.1328 135.555C75.3984 135.555 73.9141 137.026 73.6797 139.969ZM91.3555 152V131.492H95.3594L96.0039 134.109C97.8008 132.365 99.7018 131.492 101.707 131.492V135.672C99.7799 135.672 98.0547 136.473 96.5312 138.074V152H91.3555ZM102.195 131.492H107.664L112.645 145.828L117.82 131.492H123.289L114.949 152H110.027L102.195 131.492ZM130.906 124.07V128.172H125.73V124.07H130.906ZM130.906 131.492V152H125.73V131.492H130.906ZM150.945 151.414C149.253 151.805 147.495 152 145.672 152C138.38 152 134.734 148.452 134.734 141.355C134.734 134.78 138.38 131.492 145.672 131.492C147.495 131.492 149.253 131.688 150.945 132.078V136.18C149.253 135.789 147.625 135.594 146.062 135.594C141.961 135.594 139.91 137.514 139.91 141.355C139.91 145.717 141.961 147.898 146.062 147.898C147.625 147.898 149.253 147.703 150.945 147.312V151.414ZM159.539 124.07V128.172H154.363V124.07H159.539ZM159.539 131.492V152H154.363V131.492H159.539ZM168.641 141.668C168.641 145.952 170.301 148.094 173.621 148.094C176.941 148.094 178.602 145.952 178.602 141.668C178.602 137.488 176.941 135.398 173.621 135.398C170.301 135.398 168.641 137.488 168.641 141.668ZM163.465 141.746C163.465 134.871 166.85 131.434 173.621 131.434C180.392 131.434 183.777 134.871 183.777 141.746C183.777 148.608 180.392 152.039 173.621 152.039C166.876 152.039 163.491 148.608 163.465 141.746ZM187.684 151.023V146.727C189.962 147.638 192.592 148.094 195.574 148.094C197.801 148.094 198.914 147.378 198.914 145.945C198.914 144.578 198.165 143.895 196.668 143.895H192.957C188.79 143.895 186.707 141.844 186.707 137.742C186.707 133.445 189.747 131.297 195.828 131.297C198.406 131.297 200.835 131.688 203.113 132.469V136.766C200.835 135.854 198.361 135.398 195.691 135.398C192.892 135.398 191.492 136.115 191.492 137.547C191.492 138.914 192.306 139.598 193.934 139.598H197.254C201.811 139.598 204.09 141.648 204.09 145.75C204.09 150.047 201.186 152.195 195.379 152.195C192.527 152.195 189.962 151.805 187.684 151.023Z" fill="#1E1E1E"/>
<path d="M57.248 189.543C62.498 189.543 65.123 192.139 65.123 197.33C65.123 198.068 65.0703 198.859 64.9648 199.703H52.0098C52.0098 203.477 54.2129 205.363 58.6191 205.363C60.7168 205.363 62.5801 205.129 64.209 204.66V207.297C62.5801 207.766 60.5996 208 58.2676 208C51.9277 208 48.7578 204.854 48.7578 198.561C48.7578 192.549 51.5879 189.543 57.248 189.543ZM52.0098 196.996H61.9941C61.9238 193.762 60.3418 192.145 57.248 192.145C53.9668 192.145 52.2207 193.762 52.0098 196.996ZM73.1035 189.543V206.594C73.1035 210.32 72.1953 213.121 70.3789 214.996L67.6543 213.15C69.1191 211.568 69.8516 209.383 69.8516 206.594V189.543H73.1035ZM73.1035 182.863V185.939H69.8516V182.863H73.1035ZM77.8672 202.428C77.8672 198.643 80.3633 196.75 85.3555 196.75C86.9609 196.75 88.5664 196.867 90.1719 197.102V195.361C90.1719 193.24 88.5137 192.18 85.1973 192.18C83.2988 192.18 81.3535 192.473 79.3613 193.059V190.422C81.3535 189.836 83.2988 189.543 85.1973 189.543C90.6816 189.543 93.4238 191.453 93.4238 195.273V208H91.5957L90.4707 206.172C88.6309 207.391 86.627 208 84.459 208C80.0645 208 77.8672 206.143 77.8672 202.428ZM85.3555 199.387C82.5312 199.387 81.1191 200.383 81.1191 202.375C81.1191 204.367 82.2324 205.363 84.459 205.363C86.709 205.363 88.6133 204.766 90.1719 203.57V199.738C88.5664 199.504 86.9609 199.387 85.3555 199.387ZM139.742 192.672C138.629 192.391 137.252 192.25 135.611 192.25C131.686 192.25 129.723 194.377 129.723 198.631C129.723 203.002 131.58 205.188 135.295 205.188C136.982 205.188 138.465 204.871 139.742 204.238V192.672ZM142.994 214.68H139.742V207.121C138.359 207.707 136.871 208 135.277 208C129.441 208 126.523 204.889 126.523 198.666C126.523 192.584 129.6 189.543 135.752 189.543C138.248 189.543 140.662 189.795 142.994 190.299V214.68ZM164.193 189.543V208H161.961L161.398 205.645C159.16 207.215 156.91 208 154.648 208C150.406 208 148.285 205.709 148.285 201.127V189.543H151.537V201.18C151.537 203.922 152.896 205.293 155.615 205.293C157.479 205.293 159.254 204.514 160.941 202.955V189.543H164.193ZM177.096 189.543C182.346 189.543 184.971 192.139 184.971 197.33C184.971 198.068 184.918 198.859 184.812 199.703H171.857C171.857 203.477 174.061 205.363 178.467 205.363C180.564 205.363 182.428 205.129 184.057 204.66V207.297C182.428 207.766 180.447 208 178.115 208C171.775 208 168.605 204.854 168.605 198.561C168.605 192.549 171.436 189.543 177.096 189.543ZM171.857 196.996H181.842C181.771 193.762 180.189 192.145 177.096 192.145C173.814 192.145 172.068 193.762 171.857 196.996ZM225.646 189.543C230.896 189.543 233.521 192.139 233.521 197.33C233.521 198.068 233.469 198.859 233.363 199.703H220.408C220.408 203.477 222.611 205.363 227.018 205.363C229.115 205.363 230.979 205.129 232.607 204.66V207.297C230.979 207.766 228.998 208 226.666 208C220.326 208 217.156 204.854 217.156 198.561C217.156 192.549 219.986 189.543 225.646 189.543ZM220.408 196.996H230.393C230.322 193.762 228.74 192.145 225.646 192.145C222.365 192.145 220.619 193.762 220.408 196.996ZM241.326 182.863V208H238.074V182.863H241.326ZM275.48 208V189.543H277.678L278.223 191.863C279.992 190.316 281.92 189.543 284.006 189.543C286.678 189.543 288.5 190.387 289.473 192.074C291.477 190.387 293.51 189.543 295.572 189.543C299.814 189.543 301.936 191.881 301.936 196.557V208H298.684V196.381C298.684 193.627 297.523 192.25 295.203 192.25C293.469 192.25 291.846 193.047 290.334 194.641V208H287.082V196.434C287.082 193.645 285.934 192.25 283.637 192.25C281.809 192.25 280.174 193.047 278.732 194.641V208H275.48ZM323.135 189.543V208H320.902L320.34 205.645C318.102 207.215 315.852 208 313.59 208C309.348 208 307.227 205.709 307.227 201.127V189.543H310.479V201.18C310.479 203.922 311.838 205.293 314.557 205.293C316.42 205.293 318.195 204.514 319.883 202.955V189.543H323.135ZM328.426 208V189.543H330.623L331.203 191.898C333.09 190.328 335.164 189.543 337.426 189.543C342.031 189.543 344.334 191.834 344.334 196.416V208H341.082V196.363C341.082 193.621 339.717 192.25 336.986 192.25C335.123 192.25 333.354 193.029 331.678 194.588V208H328.426ZM362.018 193.305C360.705 192.672 359.205 192.355 357.518 192.355C353.803 192.355 351.945 194.33 351.945 198.279C351.945 202.955 353.803 205.293 357.518 205.293C359.205 205.293 360.705 205.064 362.018 204.607V193.305ZM365.27 206.893C363.031 207.631 360.271 208 356.99 208C351.494 208 348.746 204.801 348.746 198.402C348.746 192.496 351.664 189.543 357.5 189.543C359.094 189.543 360.6 189.836 362.018 190.422V182.863H365.27V206.893ZM372.916 198.701C372.916 203.143 374.762 205.363 378.453 205.363C382.145 205.363 383.99 203.143 383.99 198.701C383.99 194.354 382.145 192.18 378.453 192.18C374.762 192.18 372.916 194.354 372.916 198.701ZM369.664 198.771C369.664 192.619 372.594 189.543 378.453 189.543C384.312 189.543 387.242 192.619 387.242 198.771C387.242 204.912 384.312 207.982 378.453 207.982C372.617 207.982 369.688 204.912 369.664 198.771ZM63.5234 247.473C62 247.824 60.3594 248 58.6016 248C52.0391 248 48.7578 244.807 48.7578 238.42C48.7578 232.502 52.0391 229.543 58.6016 229.543C60.3594 229.543 62 229.719 63.5234 230.07V232.707C62 232.355 60.3008 232.18 58.4258 232.18C54.1484 232.18 52.0098 234.26 52.0098 238.42C52.0098 243.049 54.1484 245.363 58.4258 245.363C60.3008 245.363 62 245.188 63.5234 244.836V247.473ZM70.0449 238.701C70.0449 243.143 71.8906 245.363 75.582 245.363C79.2734 245.363 81.1191 243.143 81.1191 238.701C81.1191 234.354 79.2734 232.18 75.582 232.18C71.8906 232.18 70.0449 234.354 70.0449 238.701ZM66.793 238.771C66.793 232.619 69.7227 229.543 75.582 229.543C81.4414 229.543 84.3711 232.619 84.3711 238.771C84.3711 244.912 81.4414 247.982 75.582 247.982C69.7461 247.982 66.8164 244.912 66.793 238.771ZM88.7656 248V229.543H90.9629L91.543 231.898C93.4297 230.328 95.5039 229.543 97.7656 229.543C102.371 229.543 104.674 231.834 104.674 236.416V248H101.422V236.363C101.422 233.621 100.057 232.25 97.3262 232.25C95.4629 232.25 93.6934 233.029 92.0176 234.588V248H88.7656ZM112.338 238.701C112.338 243.143 114.184 245.363 117.875 245.363C121.566 245.363 123.412 243.143 123.412 238.701C123.412 234.354 121.566 232.18 117.875 232.18C114.184 232.18 112.338 234.354 112.338 238.701ZM109.086 238.771C109.086 232.619 112.016 229.543 117.875 229.543C123.734 229.543 126.664 232.619 126.664 238.771C126.664 244.912 123.734 247.982 117.875 247.982C112.039 247.982 109.109 244.912 109.086 238.771ZM130.531 229.543H144.945V232.18L133.924 245.539H144.594V248H130.18V245.539L141.342 232.18H130.531V229.543ZM163.227 247.473C161.703 247.824 160.062 248 158.305 248C151.742 248 148.461 244.807 148.461 238.42C148.461 232.502 151.742 229.543 158.305 229.543C160.062 229.543 161.703 229.719 163.227 230.07V232.707C161.703 232.355 160.004 232.18 158.129 232.18C153.852 232.18 151.713 234.26 151.713 238.42C151.713 243.049 153.852 245.363 158.129 245.363C160.004 245.363 161.703 245.188 163.227 244.836V247.473ZM166.496 242.428C166.496 238.643 168.992 236.75 173.984 236.75C175.59 236.75 177.195 236.867 178.801 237.102V235.361C178.801 233.24 177.143 232.18 173.826 232.18C171.928 232.18 169.982 232.473 167.99 233.059V230.422C169.982 229.836 171.928 229.543 173.826 229.543C179.311 229.543 182.053 231.453 182.053 235.273V248H180.225L179.1 246.172C177.26 247.391 175.256 248 173.088 248C168.693 248 166.496 246.143 166.496 242.428ZM173.984 239.387C171.16 239.387 169.748 240.383 169.748 242.375C169.748 244.367 170.861 245.363 173.088 245.363C175.338 245.363 177.242 244.766 178.801 243.57V239.738C177.195 239.504 175.59 239.387 173.984 239.387ZM340.098 226.555H342.137L342.84 229.543H347.832V232.18H343.35V242.779C343.35 244.502 344.094 245.363 345.582 245.363H347.832V248H344.738C341.645 248 340.098 246.342 340.098 243.025V226.555ZM367.889 229.543V248H365.656L365.094 245.645C362.855 247.215 360.605 248 358.344 248C354.102 248 351.98 245.709 351.98 241.127V229.543H355.232V241.18C355.232 243.922 356.592 245.293 359.311 245.293C361.174 245.293 362.949 244.514 364.637 242.955V229.543H367.889ZM373.004 247.121V244.309C375.172 245.012 377.363 245.363 379.578 245.363C382.52 245.363 383.99 244.484 383.99 242.727C383.99 241.086 382.965 240.266 380.914 240.266H378.277C374.293 240.266 372.301 238.449 372.301 234.816C372.301 231.301 374.861 229.543 379.982 229.543C382.186 229.543 384.371 229.836 386.539 230.422V233.234C384.371 232.531 382.186 232.18 379.982 232.18C376.912 232.18 375.377 233.059 375.377 234.816C375.377 236.457 376.344 237.277 378.277 237.277H380.914C385.133 237.277 387.242 239.094 387.242 242.727C387.242 246.242 384.688 248 379.578 248C377.363 248 375.172 247.707 373.004 247.121ZM49.6367 288V262.863H52.8887V271.547C54.459 270.211 56.375 269.543 58.6367 269.543C63.2422 269.543 65.5449 271.834 65.5449 276.416V288H62.293V276.363C62.293 273.621 60.9277 272.25 58.1973 272.25C56.334 272.25 54.5645 273.029 52.8887 274.588V288H49.6367ZM69.957 282.428C69.957 278.643 72.4531 276.75 77.4453 276.75C79.0508 276.75 80.6562 276.867 82.2617 277.102V275.361C82.2617 273.24 80.6035 272.18 77.2871 272.18C75.3887 272.18 73.4434 272.473 71.4512 273.059V270.422C73.4434 269.836 75.3887 269.543 77.2871 269.543C82.7715 269.543 85.5137 271.453 85.5137 275.273V288H83.6855L82.5605 286.172C80.7207 287.391 78.7168 288 76.5488 288C72.1543 288 69.957 286.143 69.957 282.428ZM77.4453 279.387C74.6211 279.387 73.209 280.383 73.209 282.375C73.209 284.367 74.3223 285.363 76.5488 285.363C78.7988 285.363 80.7031 284.766 82.2617 283.57V279.738C80.6562 279.504 79.0508 279.387 77.4453 279.387ZM94.0566 284.783C95.123 285.123 96.418 285.293 97.9414 285.293C102.043 285.293 104.094 282.955 104.094 278.279C104.094 274.33 102.236 272.355 98.5215 272.355C96.834 272.355 95.3457 272.672 94.0566 273.305V284.783ZM90.8047 262.863H94.0566V270.422C95.4512 269.836 96.9453 269.543 98.5391 269.543C104.375 269.543 107.293 272.496 107.293 278.402C107.293 284.801 104.229 288 98.0996 288C95.4512 288 93.0195 287.748 90.8047 287.244V262.863ZM115.291 269.543V288H112.039V269.543H115.291ZM115.291 262.863V265.939H112.039V262.863H115.291ZM124.361 262.863V288H121.109V262.863H124.361ZM133.432 269.543V288H130.18V269.543H133.432ZM133.432 262.863V265.939H130.18V262.863H133.432ZM151.467 273.305C150.154 272.672 148.654 272.355 146.967 272.355C143.252 272.355 141.395 274.33 141.395 278.279C141.395 282.955 143.252 285.293 146.967 285.293C148.654 285.293 150.154 285.064 151.467 284.607V273.305ZM154.719 286.893C152.48 287.631 149.721 288 146.439 288C140.943 288 138.195 284.801 138.195 278.402C138.195 272.496 141.113 269.543 146.949 269.543C148.543 269.543 150.049 269.836 151.467 270.422V262.863H154.719V286.893ZM159.113 282.428C159.113 278.643 161.609 276.75 166.602 276.75C168.207 276.75 169.812 276.867 171.418 277.102V275.361C171.418 273.24 169.76 272.18 166.443 272.18C164.545 272.18 162.6 272.473 160.607 273.059V270.422C162.6 269.836 164.545 269.543 166.443 269.543C171.928 269.543 174.67 271.453 174.67 275.273V288H172.842L171.717 286.172C169.877 287.391 167.873 288 165.705 288C161.311 288 159.113 286.143 159.113 282.428ZM166.602 279.387C163.777 279.387 162.365 280.383 162.365 282.375C162.365 284.367 163.479 285.363 165.705 285.363C167.955 285.363 169.859 284.766 171.418 283.57V279.738C169.812 279.504 168.207 279.387 166.602 279.387ZM192.354 273.305C191.041 272.672 189.541 272.355 187.854 272.355C184.139 272.355 182.281 274.33 182.281 278.279C182.281 282.955 184.139 285.293 187.854 285.293C189.541 285.293 191.041 285.064 192.354 284.607V273.305ZM195.605 286.893C193.367 287.631 190.607 288 187.326 288C181.83 288 179.082 284.801 179.082 278.402C179.082 272.496 182 269.543 187.836 269.543C189.43 269.543 190.936 269.836 192.354 270.422V262.863H195.605V286.893ZM208.49 269.543C213.74 269.543 216.365 272.139 216.365 277.33C216.365 278.068 216.312 278.859 216.207 279.703H203.252C203.252 283.477 205.455 285.363 209.861 285.363C211.959 285.363 213.822 285.129 215.451 284.66V287.297C213.822 287.766 211.842 288 209.51 288C203.17 288 200 284.854 200 278.561C200 272.549 202.83 269.543 208.49 269.543ZM203.252 276.996H213.236C213.166 273.762 211.584 272.145 208.49 272.145C205.209 272.145 203.463 273.762 203.252 276.996ZM220.566 287.121V284.309C222.734 285.012 224.926 285.363 227.141 285.363C230.082 285.363 231.553 284.484 231.553 282.727C231.553 281.086 230.527 280.266 228.477 280.266H225.84C221.855 280.266 219.863 278.449 219.863 274.816C219.863 271.301 222.424 269.543 227.545 269.543C229.748 269.543 231.934 269.836 234.102 270.422V273.234C231.934 272.531 229.748 272.18 227.545 272.18C224.475 272.18 222.939 273.059 222.939 274.816C222.939 276.457 223.906 277.277 225.84 277.277H228.477C232.695 277.277 234.805 279.094 234.805 282.727C234.805 286.242 232.25 288 227.141 288C224.926 288 222.734 287.707 220.566 287.121ZM247.162 269.543H250.695L255.916 283.957L261.312 269.543H264.758L257.094 288.545C255.734 291.896 253.695 293.988 250.977 294.82L249.729 292.518C251.791 291.615 253.291 290.145 254.229 288.105L247.162 269.543ZM290.316 272.672C289.203 272.391 287.826 272.25 286.186 272.25C282.26 272.25 280.297 274.377 280.297 278.631C280.297 283.002 282.154 285.188 285.869 285.188C287.557 285.188 289.039 284.871 290.316 284.238V272.672ZM293.568 288C293.568 292.453 290.738 294.68 285.078 294.68C282.805 294.68 280.789 294.387 279.031 293.801V291.164C280.824 291.75 282.852 292.043 285.113 292.043C288.582 292.043 290.316 290.695 290.316 288V287.121C288.934 287.707 287.445 288 285.852 288C280.016 288 277.098 284.889 277.098 278.666C277.098 272.584 280.174 269.543 286.326 269.543C288.822 269.543 291.236 269.795 293.568 270.299V288ZM306.471 269.543C311.721 269.543 314.346 272.139 314.346 277.33C314.346 278.068 314.293 278.859 314.188 279.703H301.232C301.232 283.477 303.436 285.363 307.842 285.363C309.939 285.363 311.803 285.129 313.432 284.66V287.297C311.803 287.766 309.822 288 307.49 288C301.15 288 297.98 284.854 297.98 278.561C297.98 272.549 300.811 269.543 306.471 269.543ZM301.232 276.996H311.217C311.146 273.762 309.564 272.145 306.471 272.145C303.189 272.145 301.443 273.762 301.232 276.996ZM318.723 288V269.543H320.92L321.5 271.898C323.387 270.328 325.461 269.543 327.723 269.543C332.328 269.543 334.631 271.834 334.631 276.416V288H331.379V276.363C331.379 273.621 330.014 272.25 327.283 272.25C325.42 272.25 323.65 273.029 321.975 274.588V288H318.723ZM347.533 269.543C352.783 269.543 355.408 272.139 355.408 277.33C355.408 278.068 355.355 278.859 355.25 279.703H342.295C342.295 283.477 344.498 285.363 348.904 285.363C351.002 285.363 352.865 285.129 354.494 284.66V287.297C352.865 287.766 350.885 288 348.553 288C342.213 288 339.043 284.854 339.043 278.561C339.043 272.549 341.873 269.543 347.533 269.543ZM342.295 276.996H352.279C352.209 273.762 350.627 272.145 347.533 272.145C344.252 272.145 342.506 273.762 342.295 276.996ZM359.785 288V269.543H361.982L362.562 271.898C364.18 270.328 366.125 269.543 368.398 269.543V272.25C366.195 272.25 364.408 273.029 363.037 274.588V288H359.785ZM370.789 282.428C370.789 278.643 373.285 276.75 378.277 276.75C379.883 276.75 381.488 276.867 383.094 277.102V275.361C383.094 273.24 381.436 272.18 378.119 272.18C376.221 272.18 374.275 272.473 372.283 273.059V270.422C374.275 269.836 376.221 269.543 378.119 269.543C383.604 269.543 386.346 271.453 386.346 275.273V288H384.518L383.393 286.172C381.553 287.391 379.549 288 377.381 288C372.986 288 370.789 286.143 370.789 282.428ZM378.277 279.387C375.453 279.387 374.041 280.383 374.041 282.375C374.041 284.367 375.154 285.363 377.381 285.363C379.631 285.363 381.535 284.766 383.094 283.57V279.738C381.488 279.504 379.883 279.387 378.277 279.387ZM53.2402 309.543V328H49.9883V309.543H53.2402ZM53.2402 302.863V305.939H49.9883V302.863H53.2402ZM58.8828 328V309.543H61.0801L61.6602 311.898C63.5469 310.328 65.6211 309.543 67.8828 309.543C72.4883 309.543 74.791 311.834 74.791 316.416V328H71.5391V316.363C71.5391 313.621 70.1738 312.25 67.4434 312.25C65.5801 312.25 63.8105 313.029 62.1348 314.588V328H58.8828ZM92.4219 312.672C91.3086 312.391 89.9316 312.25 88.291 312.25C84.3652 312.25 82.4023 314.377 82.4023 318.631C82.4023 323.002 84.2598 325.188 87.9746 325.188C89.6621 325.188 91.1445 324.871 92.4219 324.238V312.672ZM95.6738 328C95.6738 332.453 92.8438 334.68 87.1836 334.68C84.9102 334.68 82.8945 334.387 81.1367 333.801V331.164C82.9297 331.75 84.957 332.043 87.2188 332.043C90.6875 332.043 92.4219 330.695 92.4219 328V327.121C91.0391 327.707 89.5508 328 87.957 328C82.1211 328 79.2031 324.889 79.2031 318.666C79.2031 312.584 82.2793 309.543 88.4316 309.543C90.9277 309.543 93.3418 309.795 95.6738 310.299V328ZM100.965 328V309.543H103.162L103.742 311.898C105.359 310.328 107.305 309.543 109.578 309.543V312.25C107.375 312.25 105.588 313.029 104.217 314.588V328H100.965ZM120.459 309.543C125.709 309.543 128.334 312.139 128.334 317.33C128.334 318.068 128.281 318.859 128.176 319.703H115.221C115.221 323.477 117.424 325.363 121.83 325.363C123.928 325.363 125.791 325.129 127.42 324.66V327.297C125.791 327.766 123.811 328 121.479 328C115.139 328 111.969 324.854 111.969 318.561C111.969 312.549 114.799 309.543 120.459 309.543ZM115.221 316.996H125.205C125.135 313.762 123.553 312.145 120.459 312.145C117.178 312.145 115.432 313.762 115.221 316.996ZM132.535 327.121V324.309C134.703 325.012 136.895 325.363 139.109 325.363C142.051 325.363 143.521 324.484 143.521 322.727C143.521 321.086 142.496 320.266 140.445 320.266H137.809C133.824 320.266 131.832 318.449 131.832 314.816C131.832 311.301 134.393 309.543 139.514 309.543C141.717 309.543 143.902 309.836 146.07 310.422V313.234C143.902 312.531 141.717 312.18 139.514 312.18C136.443 312.18 134.908 313.059 134.908 314.816C134.908 316.457 135.875 317.277 137.809 317.277H140.445C144.664 317.277 146.773 319.094 146.773 322.727C146.773 326.242 144.219 328 139.109 328C136.895 328 134.703 327.707 132.535 327.121ZM153.541 318.701C153.541 323.143 155.387 325.363 159.078 325.363C162.77 325.363 164.615 323.143 164.615 318.701C164.615 314.354 162.77 312.18 159.078 312.18C155.387 312.18 153.541 314.354 153.541 318.701ZM150.289 318.771C150.289 312.619 153.219 309.543 159.078 309.543C164.938 309.543 167.867 312.619 167.867 318.771C167.867 324.912 164.938 327.982 159.078 327.982C153.242 327.982 150.312 324.912 150.289 318.771ZM172.086 327.121V324.309C174.254 325.012 176.445 325.363 178.66 325.363C181.602 325.363 183.072 324.484 183.072 322.727C183.072 321.086 182.047 320.266 179.996 320.266H177.359C173.375 320.266 171.383 318.449 171.383 314.816C171.383 311.301 173.943 309.543 179.064 309.543C181.268 309.543 183.453 309.836 185.621 310.422V313.234C183.453 312.531 181.268 312.18 179.064 312.18C175.994 312.18 174.459 313.059 174.459 314.816C174.459 316.457 175.426 317.277 177.359 317.277H179.996C184.215 317.277 186.324 319.094 186.324 322.727C186.324 326.242 183.77 328 178.66 328C176.445 328 174.254 327.707 172.086 327.121ZM219.723 322.428C219.723 318.643 222.219 316.75 227.211 316.75C228.816 316.75 230.422 316.867 232.027 317.102V315.361C232.027 313.24 230.369 312.18 227.053 312.18C225.154 312.18 223.209 312.473 221.217 313.059V310.422C223.209 309.836 225.154 309.543 227.053 309.543C232.537 309.543 235.279 311.453 235.279 315.273V328H233.451L232.326 326.172C230.486 327.391 228.482 328 226.314 328C221.92 328 219.723 326.143 219.723 322.428ZM227.211 319.387C224.387 319.387 222.975 320.383 222.975 322.375C222.975 324.367 224.088 325.363 226.314 325.363C228.564 325.363 230.469 324.766 232.027 323.57V319.738C230.422 319.504 228.816 319.387 227.211 319.387ZM243.998 302.863V328H240.746V302.863H243.998ZM279.348 328V309.543H281.545L282.09 311.863C283.859 310.316 285.787 309.543 287.873 309.543C290.545 309.543 292.367 310.387 293.34 312.074C295.344 310.387 297.377 309.543 299.439 309.543C303.682 309.543 305.803 311.881 305.803 316.557V328H302.551V316.381C302.551 313.627 301.391 312.25 299.07 312.25C297.336 312.25 295.713 313.047 294.201 314.641V328H290.949V316.434C290.949 313.645 289.801 312.25 287.504 312.25C285.676 312.25 284.041 313.047 282.6 314.641V328H279.348ZM314.697 309.543V328H311.445V309.543H314.697ZM314.697 302.863V305.939H311.445V302.863H314.697ZM320.164 327.121V324.309C322.332 325.012 324.523 325.363 326.738 325.363C329.68 325.363 331.15 324.484 331.15 322.727C331.15 321.086 330.125 320.266 328.074 320.266H325.438C321.453 320.266 319.461 318.449 319.461 314.816C319.461 311.301 322.021 309.543 327.143 309.543C329.346 309.543 331.531 309.836 333.699 310.422V313.234C331.531 312.531 329.346 312.18 327.143 312.18C324.072 312.18 322.537 313.059 322.537 314.816C322.537 316.457 323.504 317.277 325.438 317.277H328.074C332.293 317.277 334.402 319.094 334.402 322.727C334.402 326.242 331.848 328 326.738 328C324.523 328 322.332 327.707 320.164 327.121ZM338.797 328V309.543H340.994L341.539 311.863C343.309 310.316 345.236 309.543 347.322 309.543C349.994 309.543 351.816 310.387 352.789 312.074C354.793 310.387 356.826 309.543 358.889 309.543C363.131 309.543 365.252 311.881 365.252 316.557V328H362V316.381C362 313.627 360.84 312.25 358.52 312.25C356.785 312.25 355.162 313.047 353.65 314.641V328H350.398V316.434C350.398 313.645 349.25 312.25 346.953 312.25C345.125 312.25 343.49 313.047 342.049 314.641V328H338.797ZM372.916 318.701C372.916 323.143 374.762 325.363 378.453 325.363C382.145 325.363 383.99 323.143 383.99 318.701C383.99 314.354 382.145 312.18 378.453 312.18C374.762 312.18 372.916 314.354 372.916 318.701ZM369.664 318.771C369.664 312.619 372.594 309.543 378.453 309.543C384.312 309.543 387.242 312.619 387.242 318.771C387.242 324.912 384.312 327.982 378.453 327.982C372.617 327.982 369.688 324.912 369.664 318.771ZM49.6367 346.555H51.6758L52.3789 349.543H57.3711V352.18H52.8887V362.779C52.8887 364.502 53.6328 365.363 55.1211 365.363H57.3711V368H54.2773C51.1836 368 49.6367 366.342 49.6367 363.025V346.555ZM65.123 349.543V368H61.8711V349.543H65.123ZM65.123 342.863V345.939H61.8711V342.863H65.123ZM78.377 349.543C83.627 349.543 86.252 352.139 86.252 357.33C86.252 358.068 86.1992 358.859 86.0938 359.703H73.1387C73.1387 363.477 75.3418 365.363 79.748 365.363C81.8457 365.363 83.709 365.129 85.3379 364.66V367.297C83.709 367.766 81.7285 368 79.3965 368C73.0566 368 69.8867 364.854 69.8867 358.561C69.8867 352.549 72.7168 349.543 78.377 349.543ZM73.1387 356.996H83.123C83.0527 353.762 81.4707 352.145 78.377 352.145C75.0957 352.145 73.3496 353.762 73.1387 356.996ZM90.6289 368V349.543H92.8262L93.3711 351.863C95.1406 350.316 97.0684 349.543 99.1543 349.543C101.826 349.543 103.648 350.387 104.621 352.074C106.625 350.387 108.658 349.543 110.721 349.543C114.963 349.543 117.084 351.881 117.084 356.557V368H113.832V356.381C113.832 353.627 112.672 352.25 110.352 352.25C108.617 352.25 106.994 353.047 105.482 354.641V368H102.23V356.434C102.23 353.645 101.082 352.25 98.7852 352.25C96.957 352.25 95.3223 353.047 93.8809 354.641V368H90.6289ZM125.627 364.238C126.904 364.871 128.328 365.188 129.898 365.188C133.73 365.188 135.646 362.885 135.646 358.279C135.646 354.26 133.742 352.25 129.934 352.25C128.293 352.25 126.857 352.391 125.627 352.672V364.238ZM122.375 350.299C124.824 349.795 127.355 349.543 129.969 349.543C135.887 349.543 138.846 352.467 138.846 358.314C138.846 364.771 135.869 368 129.916 368C128.439 368 127.01 367.707 125.627 367.121V374.68H122.375V350.299ZM145.631 358.701C145.631 363.143 147.477 365.363 151.168 365.363C154.859 365.363 156.705 363.143 156.705 358.701C156.705 354.354 154.859 352.18 151.168 352.18C147.477 352.18 145.631 354.354 145.631 358.701ZM142.379 358.771C142.379 352.619 145.309 349.543 151.168 349.543C157.027 349.543 159.957 352.619 159.957 358.771C159.957 364.912 157.027 367.982 151.168 367.982C145.332 367.982 142.402 364.912 142.379 358.771ZM166.725 364.748V368H163.473V364.748H166.725Z" fill="#1E1E1E"/>
<path d="M735.309 362.373L687.971 312.226C692.59 299.995 690.28 284.094 679.889 274.31C669.498 263.302 654.488 260.856 641.788 266.971L663.725 290.21L647.561 307.333L624.469 282.871C618.696 296.325 621.005 312.226 631.396 324.457C641.788 335.465 655.643 337.911 667.189 333.018L714.527 383.165C716.836 385.612 720.3 385.612 721.454 383.165L733 370.934C736.464 367.265 736.464 363.596 735.309 362.373ZM621.005 347.696H494V323.234C494 296.325 535.565 274.31 586.367 274.31C592.14 274.31 597.913 274.31 602.532 275.533C599.068 282.871 597.913 290.21 597.913 298.772C597.913 318.341 607.15 336.688 621.005 347.696ZM586.367 152C560.966 152 540.184 174.016 540.184 200.924C540.184 227.832 560.966 249.848 586.367 249.848C611.768 249.848 632.551 227.832 632.551 200.924C632.551 174.016 611.768 152 586.367 152Z" fill="black"/>
</svg>
