<svg width="778" height="492" viewBox="0 0 778 492" fill="none" xmlns="http://www.w3.org/2000/svg">
<mask id="path-1-inside-1_358_228" fill="white">
<path d="M0 0H778V492H0V0Z"/>
</mask>
<path d="M0 0H778V492H0V0Z" fill="white"/>
<path d="M0 1H778V-1H0V1ZM778 491H0V493H778V491Z" fill="#CCCCCC" mask="url(#path-1-inside-1_358_228)"/>
<path d="M69.0508 47.0703V51.5234H55.0664V58.5547H68.3867V63.1836H55.0078V70.5078H69.3242V75H49.9297V47.0703H69.0508ZM71.1797 54.4922H76.6484L81.6289 68.8281L86.8047 54.4922H92.2734L83.9336 75H79.0117L71.1797 54.4922ZM99.8906 47.0703V51.1719H94.7148V47.0703H99.8906ZM99.8906 54.4922V75H94.7148V54.4922H99.8906ZM104.5 51.1719H108.328L109.109 54.4922H114.266V58.5938H109.676V68.0273C109.676 69.9414 110.503 70.8984 112.156 70.8984H114.266V75H109.656C106.219 75 104.5 73.1576 104.5 69.4727V51.1719ZM116.824 68.6133C116.824 64.5378 119.793 62.5 125.73 62.5C127.124 62.5 128.517 62.6302 129.91 62.8906V61.3477C129.91 59.5117 128.589 58.5938 125.945 58.5938C123.706 58.5938 121.219 58.9193 118.484 59.5703V55.4688C121.219 54.8177 123.706 54.4922 125.945 54.4922C132.039 54.4922 135.086 56.7448 135.086 61.25V75H132.078L130.242 73.1641C128.458 74.388 126.492 75 124.344 75C119.331 75 116.824 72.8711 116.824 68.6133ZM129.91 66.4062C128.608 66.1458 127.215 66.0156 125.73 66.0156C123.243 66.0156 122 66.862 122 68.5547C122 70.3776 123.042 71.2891 125.125 71.2891C126.844 71.2891 128.439 70.7552 129.91 69.6875V66.4062ZM161.902 59.1406C161.056 58.8281 159.852 58.6719 158.289 58.6719C154.708 58.6719 152.918 60.6445 152.918 64.5898C152.918 68.4049 154.461 70.3125 157.547 70.3125C159.031 70.3125 160.483 69.9609 161.902 69.2578V59.1406ZM167.078 73.4375C167.078 79.4271 163.478 82.4219 156.277 82.4219C153.751 82.4219 151.512 82.0964 149.559 81.4453V77.3438C151.551 77.9948 153.803 78.3203 156.316 78.3203C160.04 78.3203 161.902 76.7578 161.902 73.6328C160.366 74.2839 158.712 74.6094 156.941 74.6094C150.848 74.6094 147.801 71.2826 147.801 64.6289C147.801 57.8711 151.349 54.4922 158.445 54.4922C160.828 54.4922 163.706 54.7721 167.078 55.332V73.4375ZM171.004 68.6133C171.004 64.5378 173.973 62.5 179.91 62.5C181.303 62.5 182.697 62.6302 184.09 62.8906V61.3477C184.09 59.5117 182.768 58.5938 180.125 58.5938C177.885 58.5938 175.398 58.9193 172.664 59.5703V55.4688C175.398 54.8177 177.885 54.4922 180.125 54.4922C186.219 54.4922 189.266 56.7448 189.266 61.25V75H186.258L184.422 73.1641C182.638 74.388 180.672 75 178.523 75C173.51 75 171.004 72.8711 171.004 68.6133ZM184.09 66.4062C182.788 66.1458 181.395 66.0156 179.91 66.0156C177.423 66.0156 176.18 66.862 176.18 68.5547C176.18 70.3776 177.221 71.2891 179.305 71.2891C181.023 71.2891 182.618 70.7552 184.09 69.6875V66.4062ZM194.168 74.0234V69.7266C196.447 70.638 199.077 71.0938 202.059 71.0938C204.285 71.0938 205.398 70.3776 205.398 68.9453C205.398 67.5781 204.65 66.8945 203.152 66.8945H199.441C195.275 66.8945 193.191 64.8438 193.191 60.7422C193.191 56.4453 196.232 54.2969 202.312 54.2969C204.891 54.2969 207.319 54.6875 209.598 55.4688V59.7656C207.319 58.8542 204.845 58.3984 202.176 58.3984C199.376 58.3984 197.977 59.1146 197.977 60.5469C197.977 61.9141 198.79 62.5977 200.418 62.5977H203.738C208.296 62.5977 210.574 64.6484 210.574 68.75C210.574 73.0469 207.671 75.1953 201.863 75.1953C199.012 75.1953 196.447 74.8047 194.168 74.0234ZM213.914 51.1719H217.742L218.523 54.4922H223.68V58.5938H219.09V68.0273C219.09 69.9414 219.917 70.8984 221.57 70.8984H223.68V75H219.07C215.633 75 213.914 73.1576 213.914 69.4727V51.1719ZM231.414 64.668C231.414 68.9518 233.074 71.0938 236.395 71.0938C239.715 71.0938 241.375 68.9518 241.375 64.668C241.375 60.4883 239.715 58.3984 236.395 58.3984C233.074 58.3984 231.414 60.4883 231.414 64.668ZM226.238 64.7461C226.238 57.8711 229.624 54.4336 236.395 54.4336C243.165 54.4336 246.551 57.8711 246.551 64.7461C246.551 71.6081 243.165 75.0391 236.395 75.0391C229.65 75.0391 226.264 71.6081 226.238 64.7461ZM250.457 74.0234V69.7266C252.736 70.638 255.366 71.0938 258.348 71.0938C260.574 71.0938 261.688 70.3776 261.688 68.9453C261.688 67.5781 260.939 66.8945 259.441 66.8945H255.73C251.564 66.8945 249.48 64.8438 249.48 60.7422C249.48 56.4453 252.521 54.2969 258.602 54.2969C261.18 54.2969 263.608 54.6875 265.887 55.4688V59.7656C263.608 58.8542 261.134 58.3984 258.465 58.3984C255.665 58.3984 254.266 59.1146 254.266 60.5469C254.266 61.9141 255.079 62.5977 256.707 62.5977H260.027C264.585 62.5977 266.863 64.6484 266.863 68.75C266.863 73.0469 263.96 75.1953 258.152 75.1953C255.301 75.1953 252.736 74.8047 250.457 74.0234ZM284.461 47.0703V51.1719H279.285V47.0703H284.461ZM284.461 54.4922V75H279.285V54.4922H284.461ZM289.363 75V54.4922H293.367L294.012 57.5C295.978 55.4948 298.217 54.4922 300.73 54.4922C305.587 54.4922 308.016 57.0182 308.016 62.0703V75H302.84V62.0703C302.84 59.8047 301.714 58.6719 299.461 58.6719C297.781 58.6719 296.141 59.3424 294.539 60.6836V75H289.363ZM312.918 75V54.4922H316.922L317.566 57.5C319.533 55.4948 321.772 54.4922 324.285 54.4922C329.142 54.4922 331.57 57.0182 331.57 62.0703V75H326.395V62.0703C326.395 59.8047 325.268 58.6719 323.016 58.6719C321.336 58.6719 319.695 59.3424 318.094 60.6836V75H312.918ZM345.125 54.4922C351.349 54.4922 354.461 57.6693 354.461 64.0234C354.461 64.8698 354.402 65.7161 354.285 66.5625H340.672C340.672 69.4531 342.794 70.8984 347.039 70.8984C349.109 70.8984 351.18 70.7031 353.25 70.3125V74.4141C351.44 74.8047 349.24 75 346.648 75C339.214 75 335.496 71.5039 335.496 64.5117C335.496 57.832 338.706 54.4922 345.125 54.4922ZM340.672 62.9688H349.422V62.8125C349.422 59.974 347.99 58.5547 345.125 58.5547C342.391 58.5547 340.906 60.026 340.672 62.9688ZM373.484 74.4141C371.792 74.8047 370.034 75 368.211 75C360.919 75 357.273 71.4518 357.273 64.3555C357.273 57.7799 360.919 54.4922 368.211 54.4922C370.034 54.4922 371.792 54.6875 373.484 55.0781V59.1797C371.792 58.7891 370.164 58.5938 368.602 58.5938C364.5 58.5938 362.449 60.5143 362.449 64.3555C362.449 68.7174 364.5 70.8984 368.602 70.8984C370.164 70.8984 371.792 70.7031 373.484 70.3125V74.4141ZM385.555 54.4922C391.779 54.4922 394.891 57.6693 394.891 64.0234C394.891 64.8698 394.832 65.7161 394.715 66.5625H381.102C381.102 69.4531 383.224 70.8984 387.469 70.8984C389.539 70.8984 391.609 70.7031 393.68 70.3125V74.4141C391.87 74.8047 389.669 75 387.078 75C379.643 75 375.926 71.5039 375.926 64.5117C375.926 57.832 379.135 54.4922 385.555 54.4922ZM381.102 62.9688H389.852V62.8125C389.852 59.974 388.419 58.5547 385.555 58.5547C382.82 58.5547 381.336 60.026 381.102 62.9688ZM398.777 74.0234V69.7266C401.056 70.638 403.686 71.0938 406.668 71.0938C408.895 71.0938 410.008 70.3776 410.008 68.9453C410.008 67.5781 409.259 66.8945 407.762 66.8945H404.051C399.884 66.8945 397.801 64.8438 397.801 60.7422C397.801 56.4453 400.841 54.2969 406.922 54.2969C409.5 54.2969 411.928 54.6875 414.207 55.4688V59.7656C411.928 58.8542 409.454 58.3984 406.785 58.3984C403.986 58.3984 402.586 59.1146 402.586 60.5469C402.586 61.9141 403.4 62.5977 405.027 62.5977H408.348C412.905 62.5977 415.184 64.6484 415.184 68.75C415.184 73.0469 412.28 75.1953 406.473 75.1953C403.621 75.1953 401.056 74.8047 398.777 74.0234ZM417.84 68.6133C417.84 64.5378 420.809 62.5 426.746 62.5C428.139 62.5 429.533 62.6302 430.926 62.8906V61.3477C430.926 59.5117 429.604 58.5938 426.961 58.5938C424.721 58.5938 422.234 58.9193 419.5 59.5703V55.4688C422.234 54.8177 424.721 54.4922 426.961 54.4922C433.055 54.4922 436.102 56.7448 436.102 61.25V75H433.094L431.258 73.1641C429.474 74.388 427.508 75 425.359 75C420.346 75 417.84 72.8711 417.84 68.6133ZM430.926 66.4062C429.624 66.1458 428.23 66.0156 426.746 66.0156C424.259 66.0156 423.016 66.862 423.016 68.5547C423.016 70.3776 424.057 71.2891 426.141 71.2891C427.859 71.2891 429.454 70.7552 430.926 69.6875V66.4062ZM441.004 75V54.4922H445.008L445.652 57.1094C447.449 55.3646 449.35 54.4922 451.355 54.4922V58.6719C449.428 58.6719 447.703 59.4727 446.18 61.0742V75H441.004ZM459.461 47.0703V51.1719H454.285V47.0703H459.461ZM459.461 54.4922V75H454.285V54.4922H459.461ZM468.562 64.668C468.562 68.9518 470.223 71.0938 473.543 71.0938C476.863 71.0938 478.523 68.9518 478.523 64.668C478.523 60.4883 476.863 58.3984 473.543 58.3984C470.223 58.3984 468.562 60.4883 468.562 64.668ZM463.387 64.7461C463.387 57.8711 466.772 54.4336 473.543 54.4336C480.314 54.4336 483.699 57.8711 483.699 64.7461C483.699 71.6081 480.314 75.0391 473.543 75.0391C466.798 75.0391 463.413 71.6081 463.387 64.7461ZM487.605 74.0234V69.7266C489.884 70.638 492.514 71.0938 495.496 71.0938C497.723 71.0938 498.836 70.3776 498.836 68.9453C498.836 67.5781 498.087 66.8945 496.59 66.8945H492.879C488.712 66.8945 486.629 64.8438 486.629 60.7422C486.629 56.4453 489.669 54.2969 495.75 54.2969C498.328 54.2969 500.757 54.6875 503.035 55.4688V59.7656C500.757 58.8542 498.283 58.3984 495.613 58.3984C492.814 58.3984 491.414 59.1146 491.414 60.5469C491.414 61.9141 492.228 62.5977 493.855 62.5977H497.176C501.733 62.5977 504.012 64.6484 504.012 68.75C504.012 73.0469 501.108 75.1953 495.301 75.1953C492.449 75.1953 489.884 74.8047 487.605 74.0234ZM512.332 70.2148V75H507.156V70.2148H512.332ZM521.434 70.2148V75H516.258V70.2148H521.434ZM530.535 70.2148V75H525.359V70.2148H530.535ZM544.227 82.4219V61.7188H549.402V82.4219H544.227ZM544.227 59.2773V54.4922H549.402V59.2773H544.227ZM558.152 75H552.84L564.695 47.0703H570.262L582.371 75H576.805L573.621 67.3828H564.344L566.121 62.8906H571.746L567.352 52.4023L558.152 75ZM585.301 75V54.4922H589.305L589.949 57.5C591.915 55.4948 594.155 54.4922 596.668 54.4922C601.525 54.4922 603.953 57.0182 603.953 62.0703V75H598.777V62.0703C598.777 59.8047 597.651 58.6719 595.398 58.6719C593.719 58.6719 592.078 59.3424 590.477 60.6836V75H585.301ZM627.312 54.4922V75H623.27L622.645 72.3828C620.288 74.1276 617.788 75 615.145 75C610.952 75 608.855 72.5195 608.855 67.5586V54.4922H614.031V67.4219C614.031 69.6875 615.021 70.8203 617 70.8203C618.68 70.8203 620.392 70.1497 622.137 68.8086V54.4922H627.312ZM632.215 75V54.4922H636.219L636.863 57.5C638.829 55.4948 641.069 54.4922 643.582 54.4922C648.439 54.4922 650.867 57.0182 650.867 62.0703V75H645.691V62.0703C645.691 59.8047 644.565 58.6719 642.312 58.6719C640.633 58.6719 638.992 59.3424 637.391 60.6836V75H632.215ZM670.906 74.4141C669.214 74.8047 667.456 75 665.633 75C658.341 75 654.695 71.4518 654.695 64.3555C654.695 57.7799 658.341 54.4922 665.633 54.4922C667.456 54.4922 669.214 54.6875 670.906 55.0781V59.1797C669.214 58.7891 667.586 58.5938 666.023 58.5938C661.922 58.5938 659.871 60.5143 659.871 64.3555C659.871 68.7174 661.922 70.8984 666.023 70.8984C667.586 70.8984 669.214 70.7031 670.906 70.3125V74.4141ZM679.5 47.0703V51.1719H674.324V47.0703H679.5ZM679.5 54.4922V75H674.324V54.4922H679.5ZM683.426 68.6133C683.426 64.5378 686.395 62.5 692.332 62.5C693.725 62.5 695.118 62.6302 696.512 62.8906V61.3477C696.512 59.5117 695.19 58.5938 692.547 58.5938C690.307 58.5938 687.82 58.9193 685.086 59.5703V55.4688C687.82 54.8177 690.307 54.4922 692.547 54.4922C698.641 54.4922 701.688 56.7448 701.688 61.25V75H698.68L696.844 73.1641C695.06 74.388 693.094 75 690.945 75C685.932 75 683.426 72.8711 683.426 68.6133ZM696.512 66.4062C695.21 66.1458 693.816 66.0156 692.332 66.0156C689.845 66.0156 688.602 66.862 688.602 68.5547C688.602 70.3776 689.643 71.2891 691.727 71.2891C693.445 71.2891 695.04 70.7552 696.512 69.6875V66.4062ZM715.086 51.1719H718.914L719.695 54.4922H724.852V58.5938H720.262V68.0273C720.262 69.9414 721.089 70.8984 722.742 70.8984H724.852V75H720.242C716.805 75 715.086 73.1576 715.086 69.4727V51.1719ZM746.844 54.4922V75H742.801L742.176 72.3828C739.819 74.1276 737.319 75 734.676 75C730.483 75 728.387 72.5195 728.387 67.5586V54.4922H733.562V67.4219C733.562 69.6875 734.552 70.8203 736.531 70.8203C738.211 70.8203 739.923 70.1497 741.668 68.8086V54.4922H746.844ZM54.6172 114.648C55.9062 115.352 57.293 115.703 58.7773 115.703C61.8633 115.703 63.4062 113.535 63.4062 109.199C63.4062 105.514 61.7005 103.672 58.2891 103.672C56.8177 103.672 55.5938 103.763 54.6172 103.945V114.648ZM49.4414 100.332C52.1628 99.7721 55.0404 99.4922 58.0742 99.4922C65.0404 99.4922 68.5234 102.741 68.5234 109.238C68.5234 116.413 65.2812 120 58.7969 120C57.4167 120 56.0234 119.674 54.6172 119.023V127.422H49.4414V100.332ZM72.4492 120V99.4922H76.4531L77.0977 102.109C78.8945 100.365 80.7956 99.4922 82.8008 99.4922V103.672C80.8737 103.672 79.1484 104.473 77.625 106.074V120H72.4492ZM89.9297 109.668C89.9297 113.952 91.5898 116.094 94.9102 116.094C98.2305 116.094 99.8906 113.952 99.8906 109.668C99.8906 105.488 98.2305 103.398 94.9102 103.398C91.5898 103.398 89.9297 105.488 89.9297 109.668ZM84.7539 109.746C84.7539 102.871 88.1393 99.4336 94.9102 99.4336C101.681 99.4336 105.066 102.871 105.066 109.746C105.066 116.608 101.681 120.039 94.9102 120.039C88.1654 120.039 84.7799 116.608 84.7539 109.746ZM121.961 104.844C120.893 104.141 119.552 103.789 117.938 103.789C114.721 103.789 113.113 105.592 113.113 109.199C113.113 113.483 114.786 115.625 118.133 115.625C119.487 115.625 120.763 115.436 121.961 115.059V104.844ZM127.137 118.77C123.999 119.59 120.932 120 117.938 120C111.31 120 107.996 116.445 107.996 109.336C107.996 102.773 111.238 99.4922 117.723 99.4922C119.103 99.4922 120.516 99.8177 121.961 100.469V92.0703H127.137V118.77ZM150.477 99.4922V120H146.434L145.809 117.383C143.452 119.128 140.952 120 138.309 120C134.116 120 132.02 117.52 132.02 112.559V99.4922H137.195V112.422C137.195 114.688 138.185 115.82 140.164 115.82C141.844 115.82 143.556 115.15 145.301 113.809V99.4922H150.477ZM170.516 119.414C168.823 119.805 167.065 120 165.242 120C157.951 120 154.305 116.452 154.305 109.355C154.305 102.78 157.951 99.4922 165.242 99.4922C167.065 99.4922 168.823 99.6875 170.516 100.078V104.18C168.823 103.789 167.195 103.594 165.633 103.594C161.531 103.594 159.48 105.514 159.48 109.355C159.48 113.717 161.531 115.898 165.633 115.898C167.195 115.898 168.823 115.703 170.516 115.312V119.414ZM173.641 96.1719H177.469L178.25 99.4922H183.406V103.594H178.816V113.027C178.816 114.941 179.643 115.898 181.297 115.898H183.406V120H178.797C175.359 120 173.641 118.158 173.641 114.473V96.1719ZM191.141 109.668C191.141 113.952 192.801 116.094 196.121 116.094C199.441 116.094 201.102 113.952 201.102 109.668C201.102 105.488 199.441 103.398 196.121 103.398C192.801 103.398 191.141 105.488 191.141 109.668ZM185.965 109.746C185.965 102.871 189.35 99.4336 196.121 99.4336C202.892 99.4336 206.277 102.871 206.277 109.746C206.277 116.608 202.892 120.039 196.121 120.039C189.376 120.039 185.991 116.608 185.965 109.746ZM216.336 116.387L213.406 124.883H208.23L211.16 116.387H216.336ZM225.633 99.4922H231.102L236.082 113.828L241.258 99.4922H246.727L238.387 120H233.465L225.633 99.4922ZM257.82 99.4922C264.044 99.4922 267.156 102.669 267.156 109.023C267.156 109.87 267.098 110.716 266.98 111.562H253.367C253.367 114.453 255.49 115.898 259.734 115.898C261.805 115.898 263.875 115.703 265.945 115.312V119.414C264.135 119.805 261.935 120 259.344 120C251.909 120 248.191 116.504 248.191 109.512C248.191 102.832 251.401 99.4922 257.82 99.4922ZM253.367 107.969H262.117V107.812C262.117 104.974 260.685 103.555 257.82 103.555C255.086 103.555 253.602 105.026 253.367 107.969ZM271.043 120V92.0703H276.219V102.109C277.833 100.365 279.897 99.4922 282.41 99.4922C287.267 99.4922 289.695 102.018 289.695 107.07V120H284.52V107.07C284.52 104.805 283.393 103.672 281.141 103.672C279.461 103.672 277.82 104.342 276.219 105.684V120H271.043ZM299.773 99.4922V120H294.598V99.4922H299.773ZM296.98 92.0703H303.211L298.543 97.1289H294.168L296.98 92.0703ZM319.812 119.414C318.12 119.805 316.362 120 314.539 120C307.247 120 303.602 116.452 303.602 109.355C303.602 102.78 307.247 99.4922 314.539 99.4922C316.362 99.4922 318.12 99.6875 319.812 100.078V104.18C318.12 103.789 316.492 103.594 314.93 103.594C310.828 103.594 308.777 105.514 308.777 109.355C308.777 113.717 310.828 115.898 314.93 115.898C316.492 115.898 318.12 115.703 319.812 115.312V119.414ZM341.688 99.4922V120H337.645L337.02 117.383C334.663 119.128 332.163 120 329.52 120C325.327 120 323.23 117.52 323.23 112.559V99.4922H328.406V112.422C328.406 114.688 329.396 115.82 331.375 115.82C333.055 115.82 334.767 115.15 336.512 113.809V99.4922H341.688ZM351.766 92.0703V120H346.59V92.0703H351.766ZM360.867 109.668C360.867 113.952 362.527 116.094 365.848 116.094C369.168 116.094 370.828 113.952 370.828 109.668C370.828 105.488 369.168 103.398 365.848 103.398C362.527 103.398 360.867 105.488 360.867 109.668ZM355.691 109.746C355.691 102.871 359.077 99.4336 365.848 99.4336C372.618 99.4336 376.004 102.871 376.004 109.746C376.004 116.608 372.618 120.039 365.848 120.039C359.103 120.039 355.717 116.608 355.691 109.746ZM386.062 116.387L383.133 124.883H377.957L380.887 116.387H386.062ZM402.977 114.648C404.266 115.352 405.652 115.703 407.137 115.703C410.223 115.703 411.766 113.535 411.766 109.199C411.766 105.514 410.06 103.672 406.648 103.672C405.177 103.672 403.953 103.763 402.977 103.945V114.648ZM397.801 100.332C400.522 99.7721 403.4 99.4922 406.434 99.4922C413.4 99.4922 416.883 102.741 416.883 109.238C416.883 116.413 413.641 120 407.156 120C405.776 120 404.383 119.674 402.977 119.023V127.422H397.801V100.332ZM420.809 120V99.4922H424.812L425.457 102.109C427.254 100.365 429.155 99.4922 431.16 99.4922V103.672C429.233 103.672 427.508 104.473 425.984 106.074V120H420.809ZM438.289 109.668C438.289 113.952 439.949 116.094 443.27 116.094C446.59 116.094 448.25 113.952 448.25 109.668C448.25 105.488 446.59 103.398 443.27 103.398C439.949 103.398 438.289 105.488 438.289 109.668ZM433.113 109.746C433.113 102.871 436.499 99.4336 443.27 99.4336C450.04 99.4336 453.426 102.871 453.426 109.746C453.426 116.608 450.04 120.039 443.27 120.039C436.525 120.039 433.139 116.608 433.113 109.746ZM462.508 114.648C463.797 115.352 465.184 115.703 466.668 115.703C469.754 115.703 471.297 113.535 471.297 109.199C471.297 105.514 469.591 103.672 466.18 103.672C464.708 103.672 463.484 103.763 462.508 103.945V114.648ZM457.332 100.332C460.053 99.7721 462.931 99.4922 465.965 99.4922C472.931 99.4922 476.414 102.741 476.414 109.238C476.414 116.413 473.172 120 466.688 120C465.307 120 463.914 119.674 462.508 119.023V127.422H457.332V100.332ZM485.516 92.0703V96.1719H480.34V92.0703H485.516ZM485.516 99.4922V120H480.34V99.4922H485.516ZM499.07 99.4922C505.294 99.4922 508.406 102.669 508.406 109.023C508.406 109.87 508.348 110.716 508.23 111.562H494.617C494.617 114.453 496.74 115.898 500.984 115.898C503.055 115.898 505.125 115.703 507.195 115.312V119.414C505.385 119.805 503.185 120 500.594 120C493.159 120 489.441 116.504 489.441 109.512C489.441 102.832 492.651 99.4922 499.07 99.4922ZM494.617 107.969H503.367V107.812C503.367 104.974 501.935 103.555 499.07 103.555C496.336 103.555 494.852 105.026 494.617 107.969ZM525.281 104.844C524.214 104.141 522.872 103.789 521.258 103.789C518.042 103.789 516.434 105.592 516.434 109.199C516.434 113.483 518.107 115.625 521.453 115.625C522.807 115.625 524.083 115.436 525.281 115.059V104.844ZM530.457 118.77C527.319 119.59 524.253 120 521.258 120C514.63 120 511.316 116.445 511.316 109.336C511.316 102.773 514.559 99.4922 521.043 99.4922C522.423 99.4922 523.836 99.8177 525.281 100.469V92.0703H530.457V118.77ZM534.363 113.613C534.363 109.538 537.332 107.5 543.27 107.5C544.663 107.5 546.056 107.63 547.449 107.891V106.348C547.449 104.512 546.128 103.594 543.484 103.594C541.245 103.594 538.758 103.919 536.023 104.57V100.469C538.758 99.8177 541.245 99.4922 543.484 99.4922C549.578 99.4922 552.625 101.745 552.625 106.25V120H549.617L547.781 118.164C545.997 119.388 544.031 120 541.883 120C536.87 120 534.363 117.871 534.363 113.613ZM547.449 111.406C546.147 111.146 544.754 111.016 543.27 111.016C540.783 111.016 539.539 111.862 539.539 113.555C539.539 115.378 540.581 116.289 542.664 116.289C544.383 116.289 545.978 115.755 547.449 114.688V111.406ZM570.516 104.844C569.448 104.141 568.107 103.789 566.492 103.789C563.276 103.789 561.668 105.592 561.668 109.199C561.668 113.483 563.341 115.625 566.688 115.625C568.042 115.625 569.318 115.436 570.516 115.059V104.844ZM575.691 118.77C572.553 119.59 569.487 120 566.492 120C559.865 120 556.551 116.445 556.551 109.336C556.551 102.773 559.793 99.4922 566.277 99.4922C567.658 99.4922 569.07 99.8177 570.516 100.469V92.0703H575.691V118.77ZM593.562 109.668C593.562 113.952 595.223 116.094 598.543 116.094C601.863 116.094 603.523 113.952 603.523 109.668C603.523 105.488 601.863 103.398 598.543 103.398C595.223 103.398 593.562 105.488 593.562 109.668ZM588.387 109.746C588.387 102.871 591.772 99.4336 598.543 99.4336C605.314 99.4336 608.699 102.871 608.699 109.746C608.699 116.608 605.314 120.039 598.543 120.039C591.798 120.039 588.413 116.608 588.387 109.746ZM49.4414 164.023V159.727C51.7201 160.638 54.3503 161.094 57.332 161.094C59.5586 161.094 60.6719 160.378 60.6719 158.945C60.6719 157.578 59.9232 156.895 58.4258 156.895H54.7148C50.5482 156.895 48.4648 154.844 48.4648 150.742C48.4648 146.445 51.5052 144.297 57.5859 144.297C60.1641 144.297 62.5924 144.688 64.8711 145.469V149.766C62.5924 148.854 60.1185 148.398 57.4492 148.398C54.6497 148.398 53.25 149.115 53.25 150.547C53.25 151.914 54.0638 152.598 55.6914 152.598H59.0117C63.569 152.598 65.8477 154.648 65.8477 158.75C65.8477 163.047 62.944 165.195 57.1367 165.195C54.2852 165.195 51.7201 164.805 49.4414 164.023ZM78.1328 144.492C84.3568 144.492 87.4688 147.669 87.4688 154.023C87.4688 154.87 87.4102 155.716 87.293 156.562H73.6797C73.6797 159.453 75.8021 160.898 80.0469 160.898C82.1172 160.898 84.1875 160.703 86.2578 160.312V164.414C84.4479 164.805 82.2474 165 79.6562 165C72.2214 165 68.5039 161.504 68.5039 154.512C68.5039 147.832 71.7135 144.492 78.1328 144.492ZM73.6797 152.969H82.4297V152.812C82.4297 149.974 80.9974 148.555 78.1328 148.555C75.3984 148.555 73.9141 150.026 73.6797 152.969ZM91.3555 165V144.492H95.3594L96.0039 147.109C97.8008 145.365 99.7018 144.492 101.707 144.492V148.672C99.7799 148.672 98.0547 149.473 96.5312 151.074V165H91.3555ZM102.195 144.492H107.664L112.645 158.828L117.82 144.492H123.289L114.949 165H110.027L102.195 144.492ZM130.906 137.07V141.172H125.73V137.07H130.906ZM130.906 144.492V165H125.73V144.492H130.906ZM150.945 164.414C149.253 164.805 147.495 165 145.672 165C138.38 165 134.734 161.452 134.734 154.355C134.734 147.78 138.38 144.492 145.672 144.492C147.495 144.492 149.253 144.688 150.945 145.078V149.18C149.253 148.789 147.625 148.594 146.062 148.594C141.961 148.594 139.91 150.514 139.91 154.355C139.91 158.717 141.961 160.898 146.062 160.898C147.625 160.898 149.253 160.703 150.945 160.312V164.414ZM159.539 137.07V141.172H154.363V137.07H159.539ZM159.539 144.492V165H154.363V144.492H159.539ZM168.641 154.668C168.641 158.952 170.301 161.094 173.621 161.094C176.941 161.094 178.602 158.952 178.602 154.668C178.602 150.488 176.941 148.398 173.621 148.398C170.301 148.398 168.641 150.488 168.641 154.668ZM163.465 154.746C163.465 147.871 166.85 144.434 173.621 144.434C180.392 144.434 183.777 147.871 183.777 154.746C183.777 161.608 180.392 165.039 173.621 165.039C166.876 165.039 163.491 161.608 163.465 154.746ZM211.609 164.414C209.917 164.805 208.159 165 206.336 165C199.044 165 195.398 161.452 195.398 154.355C195.398 147.78 199.044 144.492 206.336 144.492C208.159 144.492 209.917 144.688 211.609 145.078V149.18C209.917 148.789 208.289 148.594 206.727 148.594C202.625 148.594 200.574 150.514 200.574 154.355C200.574 158.717 202.625 160.898 206.727 160.898C208.289 160.898 209.917 160.703 211.609 160.312V164.414ZM219.227 154.668C219.227 158.952 220.887 161.094 224.207 161.094C227.527 161.094 229.188 158.952 229.188 154.668C229.188 150.488 227.527 148.398 224.207 148.398C220.887 148.398 219.227 150.488 219.227 154.668ZM214.051 154.746C214.051 147.871 217.436 144.434 224.207 144.434C230.978 144.434 234.363 147.871 234.363 154.746C234.363 161.608 230.978 165.039 224.207 165.039C217.462 165.039 214.077 161.608 214.051 154.746ZM238.27 165V144.492H242.273L242.918 147.5C244.884 145.495 247.124 144.492 249.637 144.492C254.493 144.492 256.922 147.018 256.922 152.07V165H251.746V152.07C251.746 149.805 250.62 148.672 248.367 148.672C246.688 148.672 245.047 149.342 243.445 150.684V165H238.27ZM270.613 165V144.492H274.617L275.262 147.5C277.228 145.495 279.467 144.492 281.98 144.492C286.837 144.492 289.266 147.018 289.266 152.07V165H284.09V152.07C284.09 149.805 282.964 148.672 280.711 148.672C279.031 148.672 277.391 149.342 275.789 150.684V165H270.613ZM298.367 154.668C298.367 158.952 300.027 161.094 303.348 161.094C306.668 161.094 308.328 158.952 308.328 154.668C308.328 150.488 306.668 148.398 303.348 148.398C300.027 148.398 298.367 150.488 298.367 154.668ZM293.191 154.746C293.191 147.871 296.577 144.434 303.348 144.434C310.118 144.434 313.504 147.871 313.504 154.746C313.504 161.608 310.118 165.039 303.348 165.039C296.603 165.039 293.217 161.608 293.191 154.746ZM317.41 164.023V159.727C319.689 160.638 322.319 161.094 325.301 161.094C327.527 161.094 328.641 160.378 328.641 158.945C328.641 157.578 327.892 156.895 326.395 156.895H322.684C318.517 156.895 316.434 154.844 316.434 150.742C316.434 146.445 319.474 144.297 325.555 144.297C328.133 144.297 330.561 144.688 332.84 145.469V149.766C330.561 148.854 328.087 148.398 325.418 148.398C322.618 148.398 321.219 149.115 321.219 150.547C321.219 151.914 322.033 152.598 323.66 152.598H326.98C331.538 152.598 333.816 154.648 333.816 158.75C333.816 163.047 330.913 165.195 325.105 165.195C322.254 165.195 319.689 164.805 317.41 164.023ZM341.648 154.668C341.648 158.952 343.309 161.094 346.629 161.094C349.949 161.094 351.609 158.952 351.609 154.668C351.609 150.488 349.949 148.398 346.629 148.398C343.309 148.398 341.648 150.488 341.648 154.668ZM336.473 154.746C336.473 147.871 339.858 144.434 346.629 144.434C353.4 144.434 356.785 147.871 356.785 154.746C356.785 161.608 353.4 165.039 346.629 165.039C339.884 165.039 336.499 161.608 336.473 154.746ZM360.398 141.172H364.227L365.008 144.492H370.164V148.594H365.574V158.027C365.574 159.941 366.401 160.898 368.055 160.898H370.164V165H365.555C362.117 165 360.398 163.158 360.398 159.473V141.172ZM373.699 165V144.492H377.703L378.348 147.109C380.145 145.365 382.046 144.492 384.051 144.492V148.672C382.124 148.672 380.398 149.473 378.875 151.074V165H373.699ZM391.18 154.668C391.18 158.952 392.84 161.094 396.16 161.094C399.48 161.094 401.141 158.952 401.141 154.668C401.141 150.488 399.48 148.398 396.16 148.398C392.84 148.398 391.18 150.488 391.18 154.668ZM386.004 154.746C386.004 147.871 389.389 144.434 396.16 144.434C402.931 144.434 406.316 147.871 406.316 154.746C406.316 161.608 402.931 165.039 396.16 165.039C389.415 165.039 386.03 161.608 386.004 154.746ZM410.223 164.023V159.727C412.501 160.638 415.132 161.094 418.113 161.094C420.34 161.094 421.453 160.378 421.453 158.945C421.453 157.578 420.704 156.895 419.207 156.895H415.496C411.329 156.895 409.246 154.844 409.246 150.742C409.246 146.445 412.286 144.297 418.367 144.297C420.945 144.297 423.374 144.688 425.652 145.469V149.766C423.374 148.854 420.9 148.398 418.23 148.398C415.431 148.398 414.031 149.115 414.031 150.547C414.031 151.914 414.845 152.598 416.473 152.598H419.793C424.35 152.598 426.629 154.648 426.629 158.75C426.629 163.047 423.725 165.195 417.918 165.195C415.066 165.195 412.501 164.805 410.223 164.023ZM436.609 144.492H442.098L447.273 159.258L452.332 144.492H457.723L449.207 165.605C447.697 169.329 445.281 171.979 441.961 173.555L439.461 170.02C441.753 169.017 443.419 167.383 444.461 165.117L436.609 144.492ZM467.996 158.613C467.996 154.538 470.965 152.5 476.902 152.5C478.296 152.5 479.689 152.63 481.082 152.891V151.348C481.082 149.512 479.76 148.594 477.117 148.594C474.878 148.594 472.391 148.919 469.656 149.57V145.469C472.391 144.818 474.878 144.492 477.117 144.492C483.211 144.492 486.258 146.745 486.258 151.25V165H483.25L481.414 163.164C479.63 164.388 477.664 165 475.516 165C470.503 165 467.996 162.871 467.996 158.613ZM481.082 156.406C479.78 156.146 478.387 156.016 476.902 156.016C474.415 156.016 473.172 156.862 473.172 158.555C473.172 160.378 474.214 161.289 476.297 161.289C478.016 161.289 479.611 160.755 481.082 159.688V156.406ZM491.16 165V137.07H496.336V147.109C497.951 145.365 500.014 144.492 502.527 144.492C507.384 144.492 509.812 147.018 509.812 152.07V165H504.637V152.07C504.637 149.805 503.51 148.672 501.258 148.672C499.578 148.672 497.938 149.342 496.336 150.684V165H491.16ZM518.914 154.668C518.914 158.952 520.574 161.094 523.895 161.094C527.215 161.094 528.875 158.952 528.875 154.668C528.875 150.488 527.215 148.398 523.895 148.398C520.574 148.398 518.914 150.488 518.914 154.668ZM513.738 154.746C513.738 147.871 517.124 144.434 523.895 144.434C530.665 144.434 534.051 147.871 534.051 154.746C534.051 161.608 530.665 165.039 523.895 165.039C517.15 165.039 513.764 161.608 513.738 154.746ZM537.957 165V144.492H541.961L542.605 147.109C544.402 145.365 546.303 144.492 548.309 144.492V148.672C546.382 148.672 544.656 149.473 543.133 151.074V165H537.957ZM551.238 165V144.492H555.242L555.887 147.109C557.684 145.365 559.585 144.492 561.59 144.492V148.672C559.663 148.672 557.938 149.473 556.414 151.074V165H551.238ZM563.543 158.613C563.543 154.538 566.512 152.5 572.449 152.5C573.842 152.5 575.236 152.63 576.629 152.891V151.348C576.629 149.512 575.307 148.594 572.664 148.594C570.424 148.594 567.938 148.919 565.203 149.57V145.469C567.938 144.818 570.424 144.492 572.664 144.492C578.758 144.492 581.805 146.745 581.805 151.25V165H578.797L576.961 163.164C575.177 164.388 573.211 165 571.062 165C566.049 165 563.543 162.871 563.543 158.613ZM576.629 156.406C575.327 156.146 573.934 156.016 572.449 156.016C569.962 156.016 568.719 156.862 568.719 158.555C568.719 160.378 569.76 161.289 571.844 161.289C573.562 161.289 575.158 160.755 576.629 159.688V156.406ZM592.371 137.07V157.773H587.195V137.07H592.371ZM592.371 160.215V165H587.195V160.215H592.371Z" fill="#1E1E1E"/>
<path d="M49.9883 248V222.863H60.1836C65.3164 222.863 67.8828 225.107 67.8828 229.596C67.8828 234.482 64.373 237.465 57.3535 238.543L56.6855 235.801C61.8418 235.039 64.4199 233.018 64.4199 229.736C64.4199 226.947 62.9082 225.553 59.8848 225.553H53.2402V248H49.9883ZM87.7637 229.543V248H85.5312L84.9688 245.645C82.7305 247.215 80.4805 248 78.2188 248C73.9766 248 71.8555 245.709 71.8555 241.127V229.543H75.1074V241.18C75.1074 243.922 76.4668 245.293 79.1855 245.293C81.0488 245.293 82.8242 244.514 84.5117 242.955V229.543H87.7637ZM100.666 229.543C105.916 229.543 108.541 232.139 108.541 237.33C108.541 238.068 108.488 238.859 108.383 239.703H95.4277C95.4277 243.477 97.6309 245.363 102.037 245.363C104.135 245.363 105.998 245.129 107.627 244.66V247.297C105.998 247.766 104.018 248 101.686 248C95.3457 248 92.1758 244.854 92.1758 238.561C92.1758 232.549 95.0059 229.543 100.666 229.543ZM95.4277 236.996H105.412C105.342 233.762 103.76 232.145 100.666 232.145C97.3848 232.145 95.6387 233.762 95.4277 236.996ZM125.311 233.305C123.998 232.672 122.498 232.355 120.811 232.355C117.096 232.355 115.238 234.33 115.238 238.279C115.238 242.955 117.096 245.293 120.811 245.293C122.498 245.293 123.998 245.064 125.311 244.607V233.305ZM128.562 246.893C126.324 247.631 123.564 248 120.283 248C114.787 248 112.039 244.801 112.039 238.402C112.039 232.496 114.957 229.543 120.793 229.543C122.387 229.543 123.893 229.836 125.311 230.422V222.863H128.562V246.893ZM141.447 229.543C146.697 229.543 149.322 232.139 149.322 237.33C149.322 238.068 149.27 238.859 149.164 239.703H136.209C136.209 243.477 138.412 245.363 142.818 245.363C144.916 245.363 146.779 245.129 148.408 244.66V247.297C146.779 247.766 144.799 248 142.467 248C136.127 248 132.957 244.854 132.957 238.561C132.957 232.549 135.787 229.543 141.447 229.543ZM136.209 236.996H146.193C146.123 233.762 144.541 232.145 141.447 232.145C138.166 232.145 136.42 233.762 136.209 236.996ZM153.523 247.121V244.309C155.691 245.012 157.883 245.363 160.098 245.363C163.039 245.363 164.51 244.484 164.51 242.727C164.51 241.086 163.484 240.266 161.434 240.266H158.797C154.812 240.266 152.82 238.449 152.82 234.816C152.82 231.301 155.381 229.543 160.502 229.543C162.705 229.543 164.891 229.836 167.059 230.422V233.234C164.891 232.531 162.705 232.18 160.502 232.18C157.432 232.18 155.896 233.059 155.896 234.816C155.896 236.457 156.863 237.277 158.797 237.277H161.434C165.652 237.277 167.762 239.094 167.762 242.727C167.762 246.242 165.207 248 160.098 248C157.883 248 155.691 247.707 153.523 247.121ZM204.658 244.238C205.936 244.871 207.359 245.188 208.93 245.188C212.762 245.188 214.678 242.885 214.678 238.279C214.678 234.26 212.773 232.25 208.965 232.25C207.324 232.25 205.889 232.391 204.658 232.672V244.238ZM201.406 230.299C203.855 229.795 206.387 229.543 209 229.543C214.918 229.543 217.877 232.467 217.877 238.314C217.877 244.771 214.9 248 208.947 248C207.471 248 206.041 247.707 204.658 247.121V254.68H201.406V230.299ZM238.197 229.543V248H235.965L235.402 245.645C233.164 247.215 230.914 248 228.652 248C224.41 248 222.289 245.709 222.289 241.127V229.543H225.541V241.18C225.541 243.922 226.9 245.293 229.619 245.293C231.482 245.293 233.258 244.514 234.945 242.955V229.543H238.197ZM246.74 244.783C247.807 245.123 249.102 245.293 250.625 245.293C254.727 245.293 256.777 242.955 256.777 238.279C256.777 234.33 254.92 232.355 251.205 232.355C249.518 232.355 248.029 232.672 246.74 233.305V244.783ZM243.488 222.863H246.74V230.422C248.135 229.836 249.629 229.543 251.223 229.543C257.059 229.543 259.977 232.496 259.977 238.402C259.977 244.801 256.912 248 250.783 248C248.135 248 245.703 247.748 243.488 247.244V222.863ZM267.799 222.863V248H264.547V222.863H267.799ZM276.869 229.543V248H273.617V229.543H276.869ZM276.869 222.863V225.939H273.617V222.863H276.869ZM296.398 247.473C294.875 247.824 293.234 248 291.477 248C284.914 248 281.633 244.807 281.633 238.42C281.633 232.502 284.914 229.543 291.477 229.543C293.234 229.543 294.875 229.719 296.398 230.07V232.707C294.875 232.355 293.176 232.18 291.301 232.18C287.023 232.18 284.885 234.26 284.885 238.42C284.885 243.049 287.023 245.363 291.301 245.363C293.176 245.363 294.875 245.188 296.398 244.836V247.473ZM299.668 242.428C299.668 238.643 302.164 236.75 307.156 236.75C308.762 236.75 310.367 236.867 311.973 237.102V235.361C311.973 233.24 310.314 232.18 306.998 232.18C305.1 232.18 303.154 232.473 301.162 233.059V230.422C303.154 229.836 305.1 229.543 306.998 229.543C312.482 229.543 315.225 231.453 315.225 235.273V248H313.396L312.271 246.172C310.432 247.391 308.428 248 306.26 248C301.865 248 299.668 246.143 299.668 242.428ZM307.156 239.387C304.332 239.387 302.92 240.383 302.92 242.375C302.92 244.367 304.033 245.363 306.26 245.363C308.51 245.363 310.414 244.766 311.973 243.57V239.738C310.367 239.504 308.762 239.387 307.156 239.387ZM320.516 248V229.543H322.713L323.293 231.898C324.91 230.328 326.855 229.543 329.129 229.543V232.25C326.926 232.25 325.139 233.029 323.768 234.588V248H320.516ZM365.076 222.863V248H361.824V222.863H365.076ZM372.916 238.701C372.916 243.143 374.762 245.363 378.453 245.363C382.145 245.363 383.99 243.143 383.99 238.701C383.99 234.354 382.145 232.18 378.453 232.18C374.762 232.18 372.916 234.354 372.916 238.701ZM369.664 238.771C369.664 232.619 372.594 229.543 378.453 229.543C384.312 229.543 387.242 232.619 387.242 238.771C387.242 244.912 384.312 247.982 378.453 247.982C372.617 247.982 369.688 244.912 369.664 238.771ZM61.9766 272.672C60.8633 272.391 59.4863 272.25 57.8457 272.25C53.9199 272.25 51.957 274.377 51.957 278.631C51.957 283.002 53.8145 285.188 57.5293 285.188C59.2168 285.188 60.6992 284.871 61.9766 284.238V272.672ZM65.2285 294.68H61.9766V287.121C60.5938 287.707 59.1055 288 57.5117 288C51.6758 288 48.7578 284.889 48.7578 278.666C48.7578 272.584 51.834 269.543 57.9863 269.543C60.4824 269.543 62.8965 269.795 65.2285 270.299V294.68ZM86.4277 269.543V288H84.1953L83.6328 285.645C81.3945 287.215 79.1445 288 76.8828 288C72.6406 288 70.5195 285.709 70.5195 281.127V269.543H73.7715V281.18C73.7715 283.922 75.1309 285.293 77.8496 285.293C79.7129 285.293 81.4883 284.514 83.1758 282.955V269.543H86.4277ZM99.3301 269.543C104.58 269.543 107.205 272.139 107.205 277.33C107.205 278.068 107.152 278.859 107.047 279.703H94.0918C94.0918 283.477 96.2949 285.363 100.701 285.363C102.799 285.363 104.662 285.129 106.291 284.66V287.297C104.662 287.766 102.682 288 100.35 288C94.0098 288 90.8398 284.854 90.8398 278.561C90.8398 272.549 93.6699 269.543 99.3301 269.543ZM94.0918 276.996H104.076C104.006 273.762 102.424 272.145 99.3301 272.145C96.0488 272.145 94.3027 273.762 94.0918 276.996ZM147.547 272.672C146.434 272.391 145.057 272.25 143.416 272.25C139.49 272.25 137.527 274.377 137.527 278.631C137.527 283.002 139.385 285.188 143.1 285.188C144.787 285.188 146.27 284.871 147.547 284.238V272.672ZM150.799 294.68H147.547V287.121C146.164 287.707 144.676 288 143.082 288C137.246 288 134.328 284.889 134.328 278.666C134.328 272.584 137.404 269.543 143.557 269.543C146.053 269.543 148.467 269.795 150.799 270.299V294.68ZM171.998 269.543V288H169.766L169.203 285.645C166.965 287.215 164.715 288 162.453 288C158.211 288 156.09 285.709 156.09 281.127V269.543H159.342V281.18C159.342 283.922 160.701 285.293 163.42 285.293C165.283 285.293 167.059 284.514 168.746 282.955V269.543H171.998ZM180.893 269.543V288H177.641V269.543H180.893ZM180.893 262.863V265.939H177.641V262.863H180.893ZM194.146 269.543C199.396 269.543 202.021 272.139 202.021 277.33C202.021 278.068 201.969 278.859 201.863 279.703H188.908C188.908 283.477 191.111 285.363 195.518 285.363C197.615 285.363 199.479 285.129 201.107 284.66V287.297C199.479 287.766 197.498 288 195.166 288C188.826 288 185.656 284.854 185.656 278.561C185.656 272.549 188.486 269.543 194.146 269.543ZM188.908 276.996H198.893C198.822 273.762 197.24 272.145 194.146 272.145C190.865 272.145 189.119 273.762 188.908 276.996ZM206.398 288V269.543H208.596L209.176 271.898C210.793 270.328 212.738 269.543 215.012 269.543V272.25C212.809 272.25 211.021 273.029 209.65 274.588V288H206.398ZM217.402 282.428C217.402 278.643 219.898 276.75 224.891 276.75C226.496 276.75 228.102 276.867 229.707 277.102V275.361C229.707 273.24 228.049 272.18 224.732 272.18C222.834 272.18 220.889 272.473 218.896 273.059V270.422C220.889 269.836 222.834 269.543 224.732 269.543C230.217 269.543 232.959 271.453 232.959 275.273V288H231.131L230.006 286.172C228.166 287.391 226.162 288 223.994 288C219.6 288 217.402 286.143 217.402 282.428ZM224.891 279.387C222.066 279.387 220.654 280.383 220.654 282.375C220.654 284.367 221.768 285.363 223.994 285.363C226.244 285.363 228.148 284.766 229.707 283.57V279.738C228.102 279.504 226.496 279.387 224.891 279.387ZM238.074 287.121V284.309C240.242 285.012 242.434 285.363 244.648 285.363C247.59 285.363 249.061 284.484 249.061 282.727C249.061 281.086 248.035 280.266 245.984 280.266H243.348C239.363 280.266 237.371 278.449 237.371 274.816C237.371 271.301 239.932 269.543 245.053 269.543C247.256 269.543 249.441 269.836 251.609 270.422V273.234C249.441 272.531 247.256 272.18 245.053 272.18C241.982 272.18 240.447 273.059 240.447 274.816C240.447 276.457 241.414 277.277 243.348 277.277H245.984C250.203 277.277 252.312 279.094 252.312 282.727C252.312 286.242 249.758 288 244.648 288C242.434 288 240.242 287.707 238.074 287.121ZM277.695 269.543H281.211L286.502 284.01L291.758 269.543H295.273L287.768 288H284.744L277.695 269.543ZM305.521 269.543C310.771 269.543 313.396 272.139 313.396 277.33C313.396 278.068 313.344 278.859 313.238 279.703H300.283C300.283 283.477 302.486 285.363 306.893 285.363C308.99 285.363 310.854 285.129 312.482 284.66V287.297C310.854 287.766 308.873 288 306.541 288C300.201 288 297.031 284.854 297.031 278.561C297.031 272.549 299.861 269.543 305.521 269.543ZM300.283 276.996H310.268C310.197 273.762 308.615 272.145 305.521 272.145C302.24 272.145 300.494 273.762 300.283 276.996ZM317.773 288V269.543H319.971L320.551 271.898C322.438 270.328 324.512 269.543 326.773 269.543C331.379 269.543 333.682 271.834 333.682 276.416V288H330.43V276.363C330.43 273.621 329.064 272.25 326.334 272.25C324.471 272.25 322.701 273.029 321.025 274.588V288H317.773ZM351.365 273.305C350.053 272.672 348.553 272.355 346.865 272.355C343.15 272.355 341.293 274.33 341.293 278.279C341.293 282.955 343.15 285.293 346.865 285.293C348.553 285.293 350.053 285.064 351.365 284.607V273.305ZM354.617 286.893C352.379 287.631 349.619 288 346.338 288C340.842 288 338.094 284.801 338.094 278.402C338.094 272.496 341.012 269.543 346.848 269.543C348.441 269.543 349.947 269.836 351.365 270.422V262.863H354.617V286.893ZM367.502 269.543C372.752 269.543 375.377 272.139 375.377 277.33C375.377 278.068 375.324 278.859 375.219 279.703H362.264C362.264 283.477 364.467 285.363 368.873 285.363C370.971 285.363 372.834 285.129 374.463 284.66V287.297C372.834 287.766 370.854 288 368.521 288C362.182 288 359.012 284.854 359.012 278.561C359.012 272.549 361.842 269.543 367.502 269.543ZM362.264 276.996H372.248C372.178 273.762 370.596 272.145 367.502 272.145C364.221 272.145 362.475 273.762 362.264 276.996ZM379.754 288V269.543H381.951L382.531 271.898C384.148 270.328 386.094 269.543 388.367 269.543V272.25C386.164 272.25 384.377 273.029 383.006 274.588V288H379.754ZM57.248 309.543C62.498 309.543 65.123 312.139 65.123 317.33C65.123 318.068 65.0703 318.859 64.9648 319.703H52.0098C52.0098 323.477 54.2129 325.363 58.6191 325.363C60.7168 325.363 62.5801 325.129 64.209 324.66V327.297C62.5801 327.766 60.5996 328 58.2676 328C51.9277 328 48.7578 324.854 48.7578 318.561C48.7578 312.549 51.5879 309.543 57.248 309.543ZM52.0098 316.996H61.9941C61.9238 313.762 60.3418 312.145 57.248 312.145C53.9668 312.145 52.2207 313.762 52.0098 316.996ZM69.5 328V309.543H71.6973L72.2773 311.898C74.1641 310.328 76.2383 309.543 78.5 309.543C83.1055 309.543 85.4082 311.834 85.4082 316.416V328H82.1562V316.363C82.1562 313.621 80.791 312.25 78.0605 312.25C76.1973 312.25 74.4277 313.029 72.752 314.588V328H69.5ZM99.4883 328V309.543H101.686L102.266 311.898C104.152 310.328 106.227 309.543 108.488 309.543C113.094 309.543 115.396 311.834 115.396 316.416V328H112.145V316.363C112.145 313.621 110.779 312.25 108.049 312.25C106.186 312.25 104.416 313.029 102.74 314.588V328H99.4883ZM136.596 309.543V328H134.363L133.801 325.645C131.562 327.215 129.312 328 127.051 328C122.809 328 120.688 325.709 120.688 321.127V309.543H123.939V321.18C123.939 323.922 125.299 325.293 128.018 325.293C129.881 325.293 131.656 324.514 133.344 322.955V309.543H136.596ZM149.498 309.543C154.748 309.543 157.373 312.139 157.373 317.33C157.373 318.068 157.32 318.859 157.215 319.703H144.26C144.26 323.477 146.463 325.363 150.869 325.363C152.967 325.363 154.83 325.129 156.459 324.66V327.297C154.83 327.766 152.85 328 150.518 328C144.178 328 141.008 324.854 141.008 318.561C141.008 312.549 143.838 309.543 149.498 309.543ZM144.26 316.996H154.244C154.174 313.762 152.592 312.145 149.498 312.145C146.217 312.145 144.471 313.762 144.26 316.996ZM161.574 327.121V324.309C163.742 325.012 165.934 325.363 168.148 325.363C171.09 325.363 172.561 324.484 172.561 322.727C172.561 321.086 171.535 320.266 169.484 320.266H166.848C162.863 320.266 160.871 318.449 160.871 314.816C160.871 311.301 163.432 309.543 168.553 309.543C170.756 309.543 172.941 309.836 175.109 310.422V313.234C172.941 312.531 170.756 312.18 168.553 312.18C165.482 312.18 163.947 313.059 163.947 314.816C163.947 316.457 164.914 317.277 166.848 317.277H169.484C173.703 317.277 175.812 319.094 175.812 322.727C175.812 326.242 173.258 328 168.148 328C165.934 328 163.742 327.707 161.574 327.121ZM180.207 306.555H182.246L182.949 309.543H187.941V312.18H183.459V322.779C183.459 324.502 184.203 325.363 185.691 325.363H187.941V328H184.848C181.754 328 180.207 326.342 180.207 323.025V306.555ZM192.09 328V309.543H194.287L194.867 311.898C196.484 310.328 198.43 309.543 200.703 309.543V312.25C198.5 312.25 196.713 313.029 195.342 314.588V328H192.09ZM203.094 322.428C203.094 318.643 205.59 316.75 210.582 316.75C212.188 316.75 213.793 316.867 215.398 317.102V315.361C215.398 313.24 213.74 312.18 210.424 312.18C208.525 312.18 206.58 312.473 204.588 313.059V310.422C206.58 309.836 208.525 309.543 210.424 309.543C215.908 309.543 218.65 311.453 218.65 315.273V328H216.822L215.697 326.172C213.857 327.391 211.854 328 209.686 328C205.291 328 203.094 326.143 203.094 322.428ZM210.582 319.387C207.758 319.387 206.346 320.383 206.346 322.375C206.346 324.367 207.459 325.363 209.686 325.363C211.936 325.363 213.84 324.766 215.398 323.57V319.738C213.793 319.504 212.188 319.387 210.582 319.387ZM235.982 324.238C237.26 324.871 238.684 325.188 240.254 325.188C244.086 325.188 246.002 322.885 246.002 318.279C246.002 314.26 244.098 312.25 240.289 312.25C238.648 312.25 237.213 312.391 235.982 312.672V324.238ZM232.73 310.299C235.18 309.795 237.711 309.543 240.324 309.543C246.242 309.543 249.201 312.467 249.201 318.314C249.201 324.771 246.225 328 240.271 328C238.795 328 237.365 327.707 235.982 327.121V334.68H232.73V310.299ZM252.734 322.428C252.734 318.643 255.23 316.75 260.223 316.75C261.828 316.75 263.434 316.867 265.039 317.102V315.361C265.039 313.24 263.381 312.18 260.064 312.18C258.166 312.18 256.221 312.473 254.229 313.059V310.422C256.221 309.836 258.166 309.543 260.064 309.543C265.549 309.543 268.291 311.453 268.291 315.273V328H266.463L265.338 326.172C263.498 327.391 261.494 328 259.326 328C254.932 328 252.734 326.143 252.734 322.428ZM260.223 319.387C257.398 319.387 255.986 320.383 255.986 322.375C255.986 324.367 257.1 325.363 259.326 325.363C261.576 325.363 263.48 324.766 265.039 323.57V319.738C263.434 319.504 261.828 319.387 260.223 319.387ZM261.031 302.863H265.232L261.031 307.064H258.148L261.031 302.863ZM285.922 312.672C284.809 312.391 283.432 312.25 281.791 312.25C277.865 312.25 275.902 314.377 275.902 318.631C275.902 323.002 277.76 325.188 281.475 325.188C283.162 325.188 284.645 324.871 285.922 324.238V312.672ZM289.174 328C289.174 332.453 286.344 334.68 280.684 334.68C278.41 334.68 276.395 334.387 274.637 333.801V331.164C276.43 331.75 278.457 332.043 280.719 332.043C284.188 332.043 285.922 330.695 285.922 328V327.121C284.539 327.707 283.051 328 281.457 328C275.621 328 272.703 324.889 272.703 318.666C272.703 312.584 275.779 309.543 281.932 309.543C284.428 309.543 286.842 309.795 289.174 310.299V328ZM298.068 309.543V328H294.816V309.543H298.068ZM298.068 302.863V305.939H294.816V302.863H298.068ZM303.711 328V309.543H305.908L306.488 311.898C308.375 310.328 310.449 309.543 312.711 309.543C317.316 309.543 319.619 311.834 319.619 316.416V328H316.367V316.363C316.367 313.621 315.002 312.25 312.271 312.25C310.408 312.25 308.639 313.029 306.963 314.588V328H303.711ZM324.031 322.428C324.031 318.643 326.527 316.75 331.52 316.75C333.125 316.75 334.73 316.867 336.336 317.102V315.361C336.336 313.24 334.678 312.18 331.361 312.18C329.463 312.18 327.518 312.473 325.525 313.059V310.422C327.518 309.836 329.463 309.543 331.361 309.543C336.846 309.543 339.588 311.453 339.588 315.273V328H337.76L336.635 326.172C334.795 327.391 332.791 328 330.623 328C326.229 328 324.031 326.143 324.031 322.428ZM331.52 319.387C328.695 319.387 327.283 320.383 327.283 322.375C327.283 324.367 328.396 325.363 330.623 325.363C332.873 325.363 334.777 324.766 336.336 323.57V319.738C334.73 319.504 333.125 319.387 331.52 319.387ZM347.252 324.748V328H344V324.748H347.252Z" fill="#1E1E1E"/>
<rect x="425" y="202" width="115.238" height="120" fill="#EDEDED"/>
<rect x="425" y="333" width="115.238" height="120" fill="#EDEDED"/>
<path d="M528.754 377.973L502.52 368.525L491.555 354.729C490.601 353.561 489.4 352.621 488.039 351.976C486.677 351.33 485.189 350.997 483.683 351H456.554C454.895 350.999 453.261 351.406 451.794 352.183C450.327 352.96 449.073 354.086 448.14 355.46L438.938 369.001C437.022 371.819 435.998 375.151 436 378.561V405.394C436 406.296 436.357 407.161 436.994 407.798C437.63 408.436 438.493 408.794 439.393 408.794H446.66C447.398 411.712 449.086 414.299 451.457 416.148C453.828 417.996 456.746 419 459.75 419C462.754 419 465.672 417.996 468.043 416.148C470.414 414.299 472.102 411.712 472.84 408.794H494.16C494.898 411.712 496.586 414.299 498.957 416.148C501.328 417.996 504.246 419 507.25 419C510.254 419 513.172 417.996 515.543 416.148C517.914 414.299 519.602 411.712 520.34 408.794H527.607C528.507 408.794 529.37 408.436 530.006 407.798C530.643 407.161 531 406.296 531 405.394V381.172C531 380.472 530.784 379.789 530.382 379.216C529.98 378.644 529.411 378.209 528.754 377.973ZM459.75 412.193C458.408 412.193 457.096 411.795 455.98 411.048C454.864 410.3 453.994 409.239 453.481 407.996C452.967 406.754 452.833 405.387 453.095 404.068C453.357 402.749 454.003 401.537 454.952 400.586C455.901 399.636 457.11 398.988 458.426 398.726C459.742 398.463 461.107 398.598 462.347 399.113C463.587 399.627 464.646 400.499 465.392 401.617C466.138 402.735 466.536 404.049 466.536 405.394C466.533 407.197 465.817 408.925 464.545 410.199C463.273 411.474 461.549 412.191 459.75 412.193ZM507.25 412.193C505.908 412.193 504.596 411.795 503.48 411.048C502.364 410.3 501.494 409.239 500.981 407.996C500.467 406.754 500.333 405.387 500.595 404.068C500.856 402.749 501.503 401.537 502.452 400.586C503.401 399.636 504.61 398.988 505.926 398.726C507.242 398.463 508.607 398.598 509.847 399.113C511.087 399.627 512.146 400.499 512.892 401.617C513.638 402.735 514.036 404.049 514.036 405.394C514.033 407.197 513.317 408.925 512.045 410.199C510.773 411.474 509.049 412.191 507.25 412.193ZM524.214 401.995H520.34C519.602 399.077 517.914 396.489 515.543 394.641C513.172 392.792 510.254 391.788 507.25 391.788C504.246 391.788 501.328 392.792 498.957 394.641C496.586 396.489 494.898 399.077 494.16 401.995H472.84C472.102 399.077 470.414 396.489 468.043 394.641C465.672 392.792 462.754 391.788 459.75 391.788C456.746 391.788 453.828 392.792 451.457 394.641C449.086 396.489 447.398 399.077 446.66 401.995H442.786V378.561C442.785 376.514 443.4 374.514 444.55 372.822L453.748 359.288C454.059 358.83 454.477 358.454 454.966 358.195C455.455 357.935 456 357.799 456.554 357.799H483.683C484.177 357.798 484.665 357.905 485.113 358.114C485.561 358.322 485.958 358.627 486.275 359.006L497.811 373.516C498.203 374.009 498.725 374.384 499.318 374.597L524.214 383.562V401.995Z" fill="black"/>
<rect x="575" y="202" width="115.238" height="120" fill="#EDEDED"/>
<path d="M673.167 285.32H667.5V252.497C667.5 251.711 667.337 250.933 667.022 250.213C666.707 249.493 666.246 248.847 665.669 248.315L637.336 221.517C637.322 221.505 637.309 221.492 637.297 221.478C636.253 220.527 634.894 220 633.484 220C632.074 220 630.715 220.527 629.671 221.478L629.632 221.517L601.331 248.315C600.754 248.847 600.293 249.493 599.978 250.213C599.663 250.933 599.5 251.711 599.5 252.497V285.32H593.833C593.082 285.32 592.361 285.619 591.83 286.151C591.299 286.684 591 287.406 591 288.16C591 288.913 591.299 289.635 591.83 290.168C592.361 290.701 593.082 291 593.833 291H673.167C673.918 291 674.639 290.701 675.17 290.168C675.701 289.635 676 288.913 676 288.16C676 287.406 675.701 286.684 675.17 286.151C674.639 285.619 673.918 285.32 673.167 285.32ZM605.167 252.497L605.206 252.461L633.5 225.674L661.798 252.454L661.837 252.49V285.32H644.833V268.278C644.833 266.772 644.236 265.327 643.174 264.261C642.111 263.196 640.67 262.598 639.167 262.598H627.833C626.33 262.598 624.889 263.196 623.826 264.261C622.764 265.327 622.167 266.772 622.167 268.278V285.32H605.167V252.497ZM639.167 285.32H627.833V268.278H639.167V285.32Z" fill="black"/>
<rect x="575" y="333" width="115.238" height="120" fill="#EDEDED"/>
<path d="M650 354.5C651.459 354.5 652.858 355.079 653.889 356.111C654.921 357.142 655.5 358.541 655.5 360V426C655.5 427.459 654.921 428.858 653.889 429.889C652.858 430.921 651.459 431.5 650 431.5H617C615.541 431.5 614.142 430.921 613.111 429.889C612.079 428.858 611.5 427.459 611.5 426V360C611.5 358.541 612.079 357.142 613.111 356.111C614.142 355.079 615.541 354.5 617 354.5H650ZM617 349C614.083 349 611.285 350.159 609.222 352.222C607.159 354.285 606 357.083 606 360V426C606 428.917 607.159 431.715 609.222 433.778C611.285 435.841 614.083 437 617 437H650C652.917 437 655.715 435.841 657.778 433.778C659.841 431.715 661 428.917 661 426V360C661 357.083 659.841 354.285 657.778 352.222C655.715 350.159 652.917 349 650 349H617Z" fill="black"/>
<path d="M633.5 426C634.959 426 636.358 425.421 637.389 424.389C638.421 423.358 639 421.959 639 420.5C639 419.041 638.421 417.642 637.389 416.611C636.358 415.579 634.959 415 633.5 415C632.041 415 630.642 415.579 629.611 416.611C628.579 417.642 628 419.041 628 420.5C628 421.959 628.579 423.358 629.611 424.389C630.642 425.421 632.041 426 633.5 426Z" fill="black"/>
<path d="M509.825 246.325V286.825M509.825 286.825V301H457.175V286.825M509.825 286.825H524V246.325C524 240.25 519.95 233.163 513.875 228.1C507.8 223.038 495.65 220 495.65 220H471.35C471.35 220 459.2 223.038 453.125 228.1C447.05 233.163 443 240.25 443 246.325V286.825H457.175M457.175 286.825V246.325" stroke="black" stroke-width="4" stroke-linecap="round" stroke-linejoin="round"/>
<path d="M495.65 220C495.65 223.222 494.37 226.313 492.091 228.591C489.813 230.87 486.722 232.15 483.5 232.15C480.278 232.15 477.187 230.87 474.909 228.591C472.63 226.313 471.35 223.222 471.35 220" stroke="black" stroke-width="4" stroke-linecap="round" stroke-linejoin="round"/>
</svg>
