<svg width="778" height="492" viewBox="0 0 778 492" fill="none" xmlns="http://www.w3.org/2000/svg">
<mask id="path-1-inside-1_358_172" fill="white">
<path d="M0 0H778V492H0V0Z"/>
</mask>
<path d="M0 0H778V492H0V0Z" fill="white"/>
<path d="M0 1H778V-1H0V1ZM778 491H0V493H778V491Z" fill="#CCCCCC" mask="url(#path-1-inside-1_358_172)"/>
<path d="M72.1953 105.711C69.9427 106.701 67.1237 107.195 63.7383 107.195C53.8815 107.195 48.9531 102.345 48.9531 92.6445C48.9531 83.4648 53.9661 78.875 63.9922 78.875C67.0521 78.875 69.7865 79.3307 72.1953 80.2422V84.9297C69.7865 83.888 67.1823 83.3672 64.3828 83.3672C57.6771 83.3672 54.3242 86.4596 54.3242 92.6445C54.3242 99.3503 57.4883 102.703 63.8164 102.703C64.7539 102.703 65.8216 102.547 67.0195 102.234V94.1094H72.1953V105.711ZM85.2422 86.4922C91.4661 86.4922 94.5781 89.6693 94.5781 96.0234C94.5781 96.8698 94.5195 97.7161 94.4023 98.5625H80.7891C80.7891 101.453 82.9115 102.898 87.1562 102.898C89.2266 102.898 91.2969 102.703 93.3672 102.312V106.414C91.5573 106.805 89.3568 107 86.7656 107C79.3307 107 75.6133 103.504 75.6133 96.5117C75.6133 89.832 78.8229 86.4922 85.2422 86.4922ZM80.7891 94.9688H89.5391V94.8125C89.5391 91.974 88.1068 90.5547 85.2422 90.5547C82.5078 90.5547 81.0234 92.026 80.7891 94.9688ZM98.4648 107V86.4922H102.469L103.113 89.5C105.079 87.4948 107.319 86.4922 109.832 86.4922C114.689 86.4922 117.117 89.0182 117.117 94.0703V107H111.941V94.0703C111.941 91.8047 110.815 90.6719 108.562 90.6719C106.883 90.6719 105.242 91.3424 103.641 92.6836V107H98.4648ZM130.672 86.4922C136.896 86.4922 140.008 89.6693 140.008 96.0234C140.008 96.8698 139.949 97.7161 139.832 98.5625H126.219C126.219 101.453 128.341 102.898 132.586 102.898C134.656 102.898 136.727 102.703 138.797 102.312V106.414C136.987 106.805 134.786 107 132.195 107C124.76 107 121.043 103.504 121.043 96.5117C121.043 89.832 124.253 86.4922 130.672 86.4922ZM126.219 94.9688H134.969V94.8125C134.969 91.974 133.536 90.5547 130.672 90.5547C127.938 90.5547 126.453 92.026 126.219 94.9688ZM143.895 107V86.4922H147.898L148.543 89.1094C150.34 87.3646 152.241 86.4922 154.246 86.4922V90.6719C152.319 90.6719 150.594 91.4727 149.07 93.0742V107H143.895ZM156.199 100.613C156.199 96.5378 159.168 94.5 165.105 94.5C166.499 94.5 167.892 94.6302 169.285 94.8906V93.3477C169.285 91.5117 167.964 90.5938 165.32 90.5938C163.081 90.5938 160.594 90.9193 157.859 91.5703V87.4688C160.594 86.8177 163.081 86.4922 165.32 86.4922C171.414 86.4922 174.461 88.7448 174.461 93.25V107H171.453L169.617 105.164C167.833 106.388 165.867 107 163.719 107C158.706 107 156.199 104.871 156.199 100.613ZM169.285 98.4062C167.983 98.1458 166.59 98.0156 165.105 98.0156C162.618 98.0156 161.375 98.862 161.375 100.555C161.375 102.378 162.417 103.289 164.5 103.289C166.219 103.289 167.814 102.755 169.285 101.688V98.4062ZM193.328 79.0703V83.1719H188.152V79.0703H193.328ZM193.328 86.4922V107H188.152V86.4922H193.328ZM198.23 107V86.4922H202.234L202.879 89.5C204.845 87.4948 207.085 86.4922 209.598 86.4922C214.454 86.4922 216.883 89.0182 216.883 94.0703V107H211.707V94.0703C211.707 91.8047 210.581 90.6719 208.328 90.6719C206.648 90.6719 205.008 91.3424 203.406 92.6836V107H198.23ZM234.91 91.1406C234.064 90.8281 232.859 90.6719 231.297 90.6719C227.716 90.6719 225.926 92.6445 225.926 96.5898C225.926 100.405 227.469 102.312 230.555 102.312C232.039 102.312 233.491 101.961 234.91 101.258V91.1406ZM240.086 105.438C240.086 111.427 236.486 114.422 229.285 114.422C226.759 114.422 224.52 114.096 222.566 113.445V109.344C224.559 109.995 226.811 110.32 229.324 110.32C233.048 110.32 234.91 108.758 234.91 105.633C233.374 106.284 231.72 106.609 229.949 106.609C223.855 106.609 220.809 103.283 220.809 96.6289C220.809 89.8711 224.357 86.4922 231.453 86.4922C233.836 86.4922 236.714 86.7721 240.086 87.332V105.438ZM244.988 107V86.4922H248.992L249.637 89.1094C251.434 87.3646 253.335 86.4922 255.34 86.4922V90.6719C253.413 90.6719 251.688 91.4727 250.164 93.0742V107H244.988ZM266.922 86.4922C273.146 86.4922 276.258 89.6693 276.258 96.0234C276.258 96.8698 276.199 97.7161 276.082 98.5625H262.469C262.469 101.453 264.591 102.898 268.836 102.898C270.906 102.898 272.977 102.703 275.047 102.312V106.414C273.237 106.805 271.036 107 268.445 107C261.01 107 257.293 103.504 257.293 96.5117C257.293 89.832 260.503 86.4922 266.922 86.4922ZM262.469 94.9688H271.219V94.8125C271.219 91.974 269.786 90.5547 266.922 90.5547C264.188 90.5547 262.703 92.026 262.469 94.9688ZM280.145 106.023V101.727C282.423 102.638 285.053 103.094 288.035 103.094C290.262 103.094 291.375 102.378 291.375 100.945C291.375 99.5781 290.626 98.8945 289.129 98.8945H285.418C281.251 98.8945 279.168 96.8438 279.168 92.7422C279.168 88.4453 282.208 86.2969 288.289 86.2969C290.867 86.2969 293.296 86.6875 295.574 87.4688V91.7656C293.296 90.8542 290.822 90.3984 288.152 90.3984C285.353 90.3984 283.953 91.1146 283.953 92.5469C283.953 93.9141 284.767 94.5977 286.395 94.5977H289.715C294.272 94.5977 296.551 96.6484 296.551 100.75C296.551 105.047 293.647 107.195 287.84 107.195C284.988 107.195 282.423 106.805 280.145 106.023ZM304.383 96.668C304.383 100.952 306.043 103.094 309.363 103.094C312.684 103.094 314.344 100.952 314.344 96.668C314.344 92.4883 312.684 90.3984 309.363 90.3984C306.043 90.3984 304.383 92.4883 304.383 96.668ZM299.207 96.7461C299.207 89.8711 302.592 86.4336 309.363 86.4336C316.134 86.4336 319.52 89.8711 319.52 96.7461C319.52 103.608 316.134 107.039 309.363 107.039C302.618 107.039 299.233 103.608 299.207 96.7461ZM323.426 106.023V101.727C325.704 102.638 328.335 103.094 331.316 103.094C333.543 103.094 334.656 102.378 334.656 100.945C334.656 99.5781 333.908 98.8945 332.41 98.8945H328.699C324.533 98.8945 322.449 96.8438 322.449 92.7422C322.449 88.4453 325.49 86.2969 331.57 86.2969C334.148 86.2969 336.577 86.6875 338.855 87.4688V91.7656C336.577 90.8542 334.103 90.3984 331.434 90.3984C328.634 90.3984 327.234 91.1146 327.234 92.5469C327.234 93.9141 328.048 94.5977 329.676 94.5977H332.996C337.553 94.5977 339.832 96.6484 339.832 100.75C339.832 105.047 336.928 107.195 331.121 107.195C328.27 107.195 325.704 106.805 323.426 106.023ZM360.906 86.4922C367.13 86.4922 370.242 89.6693 370.242 96.0234C370.242 96.8698 370.184 97.7161 370.066 98.5625H356.453C356.453 101.453 358.576 102.898 362.82 102.898C364.891 102.898 366.961 102.703 369.031 102.312V106.414C367.221 106.805 365.021 107 362.43 107C354.995 107 351.277 103.504 351.277 96.5117C351.277 89.832 354.487 86.4922 360.906 86.4922ZM356.453 94.9688H365.203V94.8125C365.203 91.974 363.771 90.5547 360.906 90.5547C358.172 90.5547 356.688 92.026 356.453 94.9688ZM379.363 96.7461L371.688 86.4922H377.449L382.234 92.8984L387.02 86.4922H392.781L385.125 96.7461L392.781 107H387.02L382.234 100.594L377.449 107H371.688L379.363 96.7461ZM394.93 83.1719H398.758L399.539 86.4922H404.695V90.5938H400.105V100.027C400.105 101.941 400.932 102.898 402.586 102.898H404.695V107H400.086C396.648 107 394.93 105.158 394.93 101.473V83.1719ZM408.23 107V86.4922H412.234L412.879 89.1094C414.676 87.3646 416.577 86.4922 418.582 86.4922V90.6719C416.655 90.6719 414.93 91.4727 413.406 93.0742V107H408.23ZM420.535 100.613C420.535 96.5378 423.504 94.5 429.441 94.5C430.835 94.5 432.228 94.6302 433.621 94.8906V93.3477C433.621 91.5117 432.299 90.5938 429.656 90.5938C427.417 90.5938 424.93 90.9193 422.195 91.5703V87.4688C424.93 86.8177 427.417 86.4922 429.656 86.4922C435.75 86.4922 438.797 88.7448 438.797 93.25V107H435.789L433.953 105.164C432.169 106.388 430.203 107 428.055 107C423.042 107 420.535 104.871 420.535 100.613ZM433.621 98.4062C432.319 98.1458 430.926 98.0156 429.441 98.0156C426.954 98.0156 425.711 98.862 425.711 100.555C425.711 102.378 426.753 103.289 428.836 103.289C430.555 103.289 432.15 102.755 433.621 101.688V98.4062ZM443.699 106.023V101.727C445.978 102.638 448.608 103.094 451.59 103.094C453.816 103.094 454.93 102.378 454.93 100.945C454.93 99.5781 454.181 98.8945 452.684 98.8945H448.973C444.806 98.8945 442.723 96.8438 442.723 92.7422C442.723 88.4453 445.763 86.2969 451.844 86.2969C454.422 86.2969 456.85 86.6875 459.129 87.4688V91.7656C456.85 90.8542 454.376 90.3984 451.707 90.3984C448.908 90.3984 447.508 91.1146 447.508 92.5469C447.508 93.9141 448.322 94.5977 449.949 94.5977H453.27C457.827 94.5977 460.105 96.6484 460.105 100.75C460.105 105.047 457.202 107.195 451.395 107.195C448.543 107.195 445.978 106.805 443.699 106.023ZM471.551 100.613C471.551 96.5378 474.52 94.5 480.457 94.5C481.85 94.5 483.243 94.6302 484.637 94.8906V93.3477C484.637 91.5117 483.315 90.5938 480.672 90.5938C478.432 90.5938 475.945 90.9193 473.211 91.5703V87.4688C475.945 86.8177 478.432 86.4922 480.672 86.4922C486.766 86.4922 489.812 88.7448 489.812 93.25V107H486.805L484.969 105.164C483.185 106.388 481.219 107 479.07 107C474.057 107 471.551 104.871 471.551 100.613ZM484.637 98.4062C483.335 98.1458 481.941 98.0156 480.457 98.0156C477.97 98.0156 476.727 98.862 476.727 100.555C476.727 102.378 477.768 103.289 479.852 103.289C481.57 103.289 483.165 102.755 484.637 101.688V98.4062ZM494.715 107V86.4922H498.719L499.363 89.1094C501.16 87.3646 503.061 86.4922 505.066 86.4922V90.6719C503.139 90.6719 501.414 91.4727 499.891 93.0742V107H494.715ZM507.996 107V86.4922H512L512.645 89.1094C514.441 87.3646 516.342 86.4922 518.348 86.4922V90.6719C516.421 90.6719 514.695 91.4727 513.172 93.0742V107H507.996ZM529.93 86.4922C536.154 86.4922 539.266 89.6693 539.266 96.0234C539.266 96.8698 539.207 97.7161 539.09 98.5625H525.477C525.477 101.453 527.599 102.898 531.844 102.898C533.914 102.898 535.984 102.703 538.055 102.312V106.414C536.245 106.805 534.044 107 531.453 107C524.018 107 520.301 103.504 520.301 96.5117C520.301 89.832 523.51 86.4922 529.93 86.4922ZM525.477 94.9688H534.227V94.8125C534.227 91.974 532.794 90.5547 529.93 90.5547C527.195 90.5547 525.711 92.026 525.477 94.9688ZM543.152 107V86.4922H547.156L547.801 89.5C549.767 87.4948 552.007 86.4922 554.52 86.4922C559.376 86.4922 561.805 89.0182 561.805 94.0703V107H556.629V94.0703C556.629 91.8047 555.503 90.6719 553.25 90.6719C551.57 90.6719 549.93 91.3424 548.328 92.6836V107H543.152ZM579.695 91.8438C578.628 91.1406 577.286 90.7891 575.672 90.7891C572.456 90.7891 570.848 92.5924 570.848 96.1992C570.848 100.483 572.521 102.625 575.867 102.625C577.221 102.625 578.497 102.436 579.695 102.059V91.8438ZM584.871 105.77C581.733 106.59 578.667 107 575.672 107C569.044 107 565.73 103.445 565.73 96.3359C565.73 89.7734 568.973 86.4922 575.457 86.4922C576.837 86.4922 578.25 86.8177 579.695 87.4688V79.0703H584.871V105.77ZM588.777 100.613C588.777 96.5378 591.746 94.5 597.684 94.5C599.077 94.5 600.47 94.6302 601.863 94.8906V93.3477C601.863 91.5117 600.542 90.5938 597.898 90.5938C595.659 90.5938 593.172 90.9193 590.438 91.5703V87.4688C593.172 86.8177 595.659 86.4922 597.898 86.4922C603.992 86.4922 607.039 88.7448 607.039 93.25V107H604.031L602.195 105.164C600.411 106.388 598.445 107 596.297 107C591.284 107 588.777 104.871 588.777 100.613ZM601.863 98.4062C600.561 98.1458 599.168 98.0156 597.684 98.0156C595.197 98.0156 593.953 98.862 593.953 100.555C593.953 102.378 594.995 103.289 597.078 103.289C598.797 103.289 600.392 102.755 601.863 101.688V98.4062ZM611.941 107V86.4922H615.945L616.59 89.5C618.556 87.4948 620.796 86.4922 623.309 86.4922C628.165 86.4922 630.594 89.0182 630.594 94.0703V107H625.418V94.0703C625.418 91.8047 624.292 90.6719 622.039 90.6719C620.359 90.6719 618.719 91.3424 617.117 92.6836V107H611.941ZM648.484 91.8438C647.417 91.1406 646.076 90.7891 644.461 90.7891C641.245 90.7891 639.637 92.5924 639.637 96.1992C639.637 100.483 641.31 102.625 644.656 102.625C646.01 102.625 647.286 102.436 648.484 102.059V91.8438ZM653.66 105.77C650.522 106.59 647.456 107 644.461 107C637.833 107 634.52 103.445 634.52 96.3359C634.52 89.7734 637.762 86.4922 644.246 86.4922C645.626 86.4922 647.039 86.8177 648.484 87.4688V79.0703H653.66V105.77ZM662.742 96.668C662.742 100.952 664.402 103.094 667.723 103.094C671.043 103.094 672.703 100.952 672.703 96.668C672.703 92.4883 671.043 90.3984 667.723 90.3984C664.402 90.3984 662.742 92.4883 662.742 96.668ZM657.566 96.7461C657.566 89.8711 660.952 86.4336 667.723 86.4336C674.493 86.4336 677.879 89.8711 677.879 96.7461C677.879 103.608 674.493 107.039 667.723 107.039C660.978 107.039 657.592 103.608 657.566 96.7461ZM690.281 83.1719H694.109L694.891 86.4922H700.047V90.5938H695.457V100.027C695.457 101.941 696.284 102.898 697.938 102.898H700.047V107H695.438C692 107 690.281 105.158 690.281 101.473V83.1719ZM722.039 86.4922V107H717.996L717.371 104.383C715.014 106.128 712.514 107 709.871 107C705.678 107 703.582 104.52 703.582 99.5586V86.4922H708.758V99.4219C708.758 101.688 709.747 102.82 711.727 102.82C713.406 102.82 715.118 102.15 716.863 100.809V86.4922H722.039ZM64.5781 151.414C62.8854 151.805 61.1276 152 59.3047 152C52.013 152 48.3672 148.452 48.3672 141.355C48.3672 134.78 52.013 131.492 59.3047 131.492C61.1276 131.492 62.8854 131.688 64.5781 132.078V136.18C62.8854 135.789 61.2578 135.594 59.6953 135.594C55.5938 135.594 53.543 137.514 53.543 141.355C53.543 145.717 55.5938 147.898 59.6953 147.898C61.2578 147.898 62.8854 147.703 64.5781 147.312V151.414ZM67.0195 145.613C67.0195 141.538 69.9883 139.5 75.9258 139.5C77.319 139.5 78.7122 139.63 80.1055 139.891V138.348C80.1055 136.512 78.7839 135.594 76.1406 135.594C73.901 135.594 71.4141 135.919 68.6797 136.57V132.469C71.4141 131.818 73.901 131.492 76.1406 131.492C82.2344 131.492 85.2812 133.745 85.2812 138.25V152H82.2734L80.4375 150.164C78.6536 151.388 76.6875 152 74.5391 152C69.526 152 67.0195 149.871 67.0195 145.613ZM80.1055 143.406C78.8034 143.146 77.4102 143.016 75.9258 143.016C73.4388 143.016 72.1953 143.862 72.1953 145.555C72.1953 147.378 73.237 148.289 75.3203 148.289C77.0391 148.289 78.6341 147.755 80.1055 146.688V143.406ZM90.1836 151.023V146.727C92.4622 147.638 95.0924 148.094 98.0742 148.094C100.301 148.094 101.414 147.378 101.414 145.945C101.414 144.578 100.665 143.895 99.168 143.895H95.457C91.2904 143.895 89.207 141.844 89.207 137.742C89.207 133.445 92.2474 131.297 98.3281 131.297C100.906 131.297 103.335 131.688 105.613 132.469V136.766C103.335 135.854 100.861 135.398 98.1914 135.398C95.3919 135.398 93.9922 136.115 93.9922 137.547C93.9922 138.914 94.806 139.598 96.4336 139.598H99.7539C104.311 139.598 106.59 141.648 106.59 145.75C106.59 150.047 103.686 152.195 97.8789 152.195C95.0273 152.195 92.4622 151.805 90.1836 151.023ZM109.246 145.613C109.246 141.538 112.215 139.5 118.152 139.5C119.546 139.5 120.939 139.63 122.332 139.891V138.348C122.332 136.512 121.01 135.594 118.367 135.594C116.128 135.594 113.641 135.919 110.906 136.57V132.469C113.641 131.818 116.128 131.492 118.367 131.492C124.461 131.492 127.508 133.745 127.508 138.25V152H124.5L122.664 150.164C120.88 151.388 118.914 152 116.766 152C111.753 152 109.246 149.871 109.246 145.613ZM122.332 143.406C121.03 143.146 119.637 143.016 118.152 143.016C115.665 143.016 114.422 143.862 114.422 145.555C114.422 147.378 115.464 148.289 117.547 148.289C119.266 148.289 120.861 147.755 122.332 146.688V143.406ZM136.023 152H130.457L144.617 124.07H150.184L136.023 152ZM152.137 145.613C152.137 141.538 155.105 139.5 161.043 139.5C162.436 139.5 163.829 139.63 165.223 139.891V138.348C165.223 136.512 163.901 135.594 161.258 135.594C159.018 135.594 156.531 135.919 153.797 136.57V132.469C156.531 131.818 159.018 131.492 161.258 131.492C167.352 131.492 170.398 133.745 170.398 138.25V152H167.391L165.555 150.164C163.771 151.388 161.805 152 159.656 152C154.643 152 152.137 149.871 152.137 145.613ZM165.223 143.406C163.921 143.146 162.527 143.016 161.043 143.016C158.556 143.016 157.312 143.862 157.312 145.555C157.312 147.378 158.354 148.289 160.438 148.289C162.156 148.289 163.751 147.755 165.223 146.688V143.406ZM180.477 146.648C181.766 147.352 183.152 147.703 184.637 147.703C187.723 147.703 189.266 145.535 189.266 141.199C189.266 137.514 187.56 135.672 184.148 135.672C182.677 135.672 181.453 135.763 180.477 135.945V146.648ZM175.301 132.332C178.022 131.772 180.9 131.492 183.934 131.492C190.9 131.492 194.383 134.741 194.383 141.238C194.383 148.413 191.141 152 184.656 152C183.276 152 181.883 151.674 180.477 151.023V159.422H175.301V132.332ZM197.332 145.613C197.332 141.538 200.301 139.5 206.238 139.5C207.632 139.5 209.025 139.63 210.418 139.891V138.348C210.418 136.512 209.096 135.594 206.453 135.594C204.214 135.594 201.727 135.919 198.992 136.57V132.469C201.727 131.818 204.214 131.492 206.453 131.492C212.547 131.492 215.594 133.745 215.594 138.25V152H212.586L210.75 150.164C208.966 151.388 207 152 204.852 152C199.839 152 197.332 149.871 197.332 145.613ZM210.418 143.406C209.116 143.146 207.723 143.016 206.238 143.016C203.751 143.016 202.508 143.862 202.508 145.555C202.508 147.378 203.549 148.289 205.633 148.289C207.352 148.289 208.947 147.755 210.418 146.688V143.406ZM220.496 152V131.492H224.5L225.145 134.109C226.941 132.365 228.842 131.492 230.848 131.492V135.672C228.921 135.672 227.195 136.473 225.672 138.074V152H220.496ZM233.484 128.172H237.312L238.094 131.492H243.25V135.594H238.66V145.027C238.66 146.941 239.487 147.898 241.141 147.898H243.25V152H238.641C235.203 152 233.484 150.158 233.484 146.473V128.172ZM245.809 145.613C245.809 141.538 248.777 139.5 254.715 139.5C256.108 139.5 257.501 139.63 258.895 139.891V138.348C258.895 136.512 257.573 135.594 254.93 135.594C252.69 135.594 250.203 135.919 247.469 136.57V132.469C250.203 131.818 252.69 131.492 254.93 131.492C261.023 131.492 264.07 133.745 264.07 138.25V152H261.062L259.227 150.164C257.443 151.388 255.477 152 253.328 152C248.315 152 245.809 149.871 245.809 145.613ZM258.895 143.406C257.592 143.146 256.199 143.016 254.715 143.016C252.228 143.016 250.984 143.862 250.984 145.555C250.984 147.378 252.026 148.289 254.109 148.289C255.828 148.289 257.423 147.755 258.895 146.688V143.406ZM268.973 152V131.492H272.977L273.582 134.461C275.418 132.482 277.625 131.492 280.203 131.492C282.781 131.492 284.546 132.43 285.496 134.305C287.592 132.43 289.786 131.492 292.078 131.492C296.792 131.492 299.148 134.09 299.148 139.285V152H293.973V139.09C293.973 136.811 292.944 135.672 290.887 135.672C289.35 135.672 287.872 136.362 286.453 137.742V152H281.277V139.148C281.277 136.831 280.327 135.672 278.426 135.672C276.915 135.672 275.49 136.362 274.148 137.742V152H268.973ZM312.703 131.492C318.927 131.492 322.039 134.669 322.039 141.023C322.039 141.87 321.98 142.716 321.863 143.562H308.25C308.25 146.453 310.372 147.898 314.617 147.898C316.688 147.898 318.758 147.703 320.828 147.312V151.414C319.018 151.805 316.818 152 314.227 152C306.792 152 303.074 148.504 303.074 141.512C303.074 134.832 306.284 131.492 312.703 131.492ZM308.25 139.969H317V139.812C317 136.974 315.568 135.555 312.703 135.555C309.969 135.555 308.484 137.026 308.25 139.969ZM325.926 152V131.492H329.93L330.574 134.5C332.54 132.495 334.78 131.492 337.293 131.492C342.15 131.492 344.578 134.018 344.578 139.07V152H339.402V139.07C339.402 136.805 338.276 135.672 336.023 135.672C334.344 135.672 332.703 136.342 331.102 137.684V152H325.926ZM349.188 128.172H353.016L353.797 131.492H358.953V135.594H354.363V145.027C354.363 146.941 355.19 147.898 356.844 147.898H358.953V152H354.344C350.906 152 349.188 150.158 349.188 146.473V128.172ZM366.688 141.668C366.688 145.952 368.348 148.094 371.668 148.094C374.988 148.094 376.648 145.952 376.648 141.668C376.648 137.488 374.988 135.398 371.668 135.398C368.348 135.398 366.688 137.488 366.688 141.668ZM361.512 141.746C361.512 134.871 364.897 131.434 371.668 131.434C378.439 131.434 381.824 134.871 381.824 141.746C381.824 148.608 378.439 152.039 371.668 152.039C364.923 152.039 361.538 148.608 361.512 141.746Z" fill="#1E1E1E"/>
<path d="M49.9883 208V182.863H53.2402L68.6211 203.113V182.863H71.6973V208H68.4453L53.0645 187.574V208H49.9883ZM79.7129 198.701C79.7129 203.143 81.5586 205.363 85.25 205.363C88.9414 205.363 90.7871 203.143 90.7871 198.701C90.7871 194.354 88.9414 192.18 85.25 192.18C81.5586 192.18 79.7129 194.354 79.7129 198.701ZM76.4609 198.771C76.4609 192.619 79.3906 189.543 85.25 189.543C91.1094 189.543 94.0391 192.619 94.0391 198.771C94.0391 204.912 91.1094 207.982 85.25 207.982C79.4141 207.982 76.4844 204.912 76.4609 198.771ZM149.533 189.543C154.783 189.543 157.408 192.139 157.408 197.33C157.408 198.068 157.355 198.859 157.25 199.703H144.295C144.295 203.477 146.498 205.363 150.904 205.363C153.002 205.363 154.865 205.129 156.494 204.66V207.297C154.865 207.766 152.885 208 150.553 208C144.213 208 141.043 204.854 141.043 198.561C141.043 192.549 143.873 189.543 149.533 189.543ZM144.295 196.996H154.279C154.209 193.762 152.627 192.145 149.533 192.145C146.252 192.145 144.506 193.762 144.295 196.996ZM161.609 207.121V204.309C163.777 205.012 165.969 205.363 168.184 205.363C171.125 205.363 172.596 204.484 172.596 202.727C172.596 201.086 171.57 200.266 169.52 200.266H166.883C162.898 200.266 160.906 198.449 160.906 194.816C160.906 191.301 163.467 189.543 168.588 189.543C170.791 189.543 172.977 189.836 175.145 190.422V193.234C172.977 192.531 170.791 192.18 168.588 192.18C165.518 192.18 163.982 193.059 163.982 194.816C163.982 196.457 164.949 197.277 166.883 197.277H169.52C173.738 197.277 175.848 199.094 175.848 202.727C175.848 206.242 173.293 208 168.184 208C165.969 208 163.777 207.707 161.609 207.121ZM183.494 204.238C184.771 204.871 186.195 205.188 187.766 205.188C191.598 205.188 193.514 202.885 193.514 198.279C193.514 194.26 191.609 192.25 187.801 192.25C186.16 192.25 184.725 192.391 183.494 192.672V204.238ZM180.242 190.299C182.691 189.795 185.223 189.543 187.836 189.543C193.754 189.543 196.713 192.467 196.713 198.314C196.713 204.771 193.736 208 187.783 208C186.307 208 184.877 207.707 183.494 207.121V214.68H180.242V190.299ZM208.736 189.543C213.986 189.543 216.611 192.139 216.611 197.33C216.611 198.068 216.559 198.859 216.453 199.703H203.498C203.498 203.477 205.701 205.363 210.107 205.363C212.205 205.363 214.068 205.129 215.697 204.66V207.297C214.068 207.766 212.088 208 209.756 208C203.416 208 200.246 204.854 200.246 198.561C200.246 192.549 203.076 189.543 208.736 189.543ZM203.498 196.996H213.482C213.412 193.762 211.83 192.145 208.736 192.145C205.455 192.145 203.709 193.762 203.498 196.996ZM220.988 208V189.543H223.186L223.766 191.898C225.383 190.328 227.328 189.543 229.602 189.543V192.25C227.398 192.25 225.611 193.029 224.24 194.588V208H220.988ZM240.482 189.543C245.732 189.543 248.357 192.139 248.357 197.33C248.357 198.068 248.305 198.859 248.199 199.703H235.244C235.244 203.477 237.447 205.363 241.854 205.363C243.951 205.363 245.814 205.129 247.443 204.66V207.297C245.814 207.766 243.834 208 241.502 208C235.162 208 231.992 204.854 231.992 198.561C231.992 192.549 234.822 189.543 240.482 189.543ZM235.244 196.996H245.229C245.158 193.762 243.576 192.145 240.482 192.145C237.201 192.145 235.455 193.762 235.244 196.996ZM252.559 207.121V204.309C254.727 205.012 256.918 205.363 259.133 205.363C262.074 205.363 263.545 204.484 263.545 202.727C263.545 201.086 262.52 200.266 260.469 200.266H257.832C253.848 200.266 251.855 198.449 251.855 194.816C251.855 191.301 254.416 189.543 259.537 189.543C261.74 189.543 263.926 189.836 266.094 190.422V193.234C263.926 192.531 261.74 192.18 259.537 192.18C256.467 192.18 254.932 193.059 254.932 194.816C254.932 196.457 255.898 197.277 257.832 197.277H260.469C264.688 197.277 266.797 199.094 266.797 202.727C266.797 206.242 264.242 208 259.133 208C256.918 208 254.727 207.707 252.559 207.121ZM314.68 208V189.543H316.877L317.422 191.863C319.191 190.316 321.119 189.543 323.205 189.543C325.877 189.543 327.699 190.387 328.672 192.074C330.676 190.387 332.709 189.543 334.771 189.543C339.014 189.543 341.135 191.881 341.135 196.557V208H337.883V196.381C337.883 193.627 336.723 192.25 334.402 192.25C332.668 192.25 331.045 193.047 329.533 194.641V208H326.281V196.434C326.281 193.645 325.133 192.25 322.836 192.25C321.008 192.25 319.373 193.047 317.932 194.641V208H314.68ZM345.547 202.428C345.547 198.643 348.043 196.75 353.035 196.75C354.641 196.75 356.246 196.867 357.852 197.102V195.361C357.852 193.24 356.193 192.18 352.877 192.18C350.979 192.18 349.033 192.473 347.041 193.059V190.422C349.033 189.836 350.979 189.543 352.877 189.543C358.361 189.543 361.104 191.453 361.104 195.273V208H359.275L358.15 206.172C356.311 207.391 354.307 208 352.139 208C347.744 208 345.547 206.143 345.547 202.428ZM353.035 199.387C350.211 199.387 348.799 200.383 348.799 202.375C348.799 204.367 349.912 205.363 352.139 205.363C354.389 205.363 356.293 204.766 357.852 203.57V199.738C356.246 199.504 354.641 199.387 353.035 199.387ZM353.844 182.863H358.045L353.844 187.064H350.961L353.844 182.863ZM366.219 207.121V204.309C368.387 205.012 370.578 205.363 372.793 205.363C375.734 205.363 377.205 204.484 377.205 202.727C377.205 201.086 376.18 200.266 374.129 200.266H371.492C367.508 200.266 365.516 198.449 365.516 194.816C365.516 191.301 368.076 189.543 373.197 189.543C375.4 189.543 377.586 189.836 379.754 190.422V193.234C377.586 192.531 375.4 192.18 373.197 192.18C370.127 192.18 368.592 193.059 368.592 194.816C368.592 196.457 369.559 197.277 371.492 197.277H374.129C378.348 197.277 380.457 199.094 380.457 202.727C380.457 206.242 377.902 208 372.793 208C370.578 208 368.387 207.707 366.219 207.121ZM388.543 204.748L385.906 212.395H382.654L385.291 204.748H388.543ZM49.9883 248V222.863H54.1191L63.3477 243.834L72.4004 222.863H76.3555V248H73.4551V227.381L64.5254 248H61.959L52.8887 227.381V248H49.9883ZM81.1016 242.428C81.1016 238.643 83.5977 236.75 88.5898 236.75C90.1953 236.75 91.8008 236.867 93.4062 237.102V235.361C93.4062 233.24 91.748 232.18 88.4316 232.18C86.5332 232.18 84.5879 232.473 82.5957 233.059V230.422C84.5879 229.836 86.5332 229.543 88.4316 229.543C93.916 229.543 96.6582 231.453 96.6582 235.273V248H94.8301L93.7051 246.172C91.8652 247.391 89.8613 248 87.6934 248C83.2988 248 81.1016 246.143 81.1016 242.428ZM88.5898 239.387C85.7656 239.387 84.3535 240.383 84.3535 242.375C84.3535 244.367 85.4668 245.363 87.6934 245.363C89.9434 245.363 91.8477 244.766 93.4062 243.57V239.738C91.8008 239.504 90.1953 239.387 88.5898 239.387ZM106.66 238.771L99.752 229.543H103.531L108.541 236.24L113.551 229.543H117.33L110.439 238.771L117.33 248H113.551L108.541 241.303L103.531 248H99.752L106.66 238.771ZM124.01 229.543V248H120.758V229.543H124.01ZM124.01 222.863V225.939H120.758V222.863H124.01ZM129.652 248V229.543H131.85L132.395 231.863C134.164 230.316 136.092 229.543 138.178 229.543C140.85 229.543 142.672 230.387 143.645 232.074C145.648 230.387 147.682 229.543 149.744 229.543C153.986 229.543 156.107 231.881 156.107 236.557V248H152.855V236.381C152.855 233.627 151.695 232.25 149.375 232.25C147.641 232.25 146.018 233.047 144.506 234.641V248H141.254V236.434C141.254 233.645 140.105 232.25 137.809 232.25C135.98 232.25 134.346 233.047 132.904 234.641V248H129.652ZM165.002 229.543V248H161.75V229.543H165.002ZM165.002 222.863V225.939H161.75V222.863H165.002ZM170.117 229.543H184.531V232.18L173.51 245.539H184.18V248H169.766V245.539L180.928 232.18H170.117V229.543ZM188.047 242.428C188.047 238.643 190.543 236.75 195.535 236.75C197.141 236.75 198.746 236.867 200.352 237.102V235.361C200.352 233.24 198.693 232.18 195.377 232.18C193.479 232.18 191.533 232.473 189.541 233.059V230.422C191.533 229.836 193.479 229.543 195.377 229.543C200.861 229.543 203.604 231.453 203.604 235.273V248H201.775L200.65 246.172C198.811 247.391 196.807 248 194.639 248C190.244 248 188.047 246.143 188.047 242.428ZM195.535 239.387C192.711 239.387 191.299 240.383 191.299 242.375C191.299 244.367 192.412 245.363 194.639 245.363C196.889 245.363 198.793 244.766 200.352 243.57V239.738C198.746 239.504 197.141 239.387 195.535 239.387ZM340.098 226.555H342.137L342.84 229.543H347.832V232.18H343.35V242.779C343.35 244.502 344.094 245.363 345.582 245.363H347.832V248H344.738C341.645 248 340.098 246.342 340.098 243.025V226.555ZM367.889 229.543V248H365.656L365.094 245.645C362.855 247.215 360.605 248 358.344 248C354.102 248 351.98 245.709 351.98 241.127V229.543H355.232V241.18C355.232 243.922 356.592 245.293 359.311 245.293C361.174 245.293 362.949 244.514 364.637 242.955V229.543H367.889ZM373.004 247.121V244.309C375.172 245.012 377.363 245.363 379.578 245.363C382.52 245.363 383.99 244.484 383.99 242.727C383.99 241.086 382.965 240.266 380.914 240.266H378.277C374.293 240.266 372.301 238.449 372.301 234.816C372.301 231.301 374.861 229.543 379.982 229.543C382.186 229.543 384.371 229.836 386.539 230.422V233.234C384.371 232.531 382.186 232.18 379.982 232.18C376.912 232.18 375.377 233.059 375.377 234.816C375.377 236.457 376.344 237.277 378.277 237.277H380.914C385.133 237.277 387.242 239.094 387.242 242.727C387.242 246.242 384.688 248 379.578 248C377.363 248 375.172 247.707 373.004 247.121ZM53.2402 269.543V288H49.9883V269.543H53.2402ZM53.2402 262.863V265.939H49.9883V262.863H53.2402ZM58.8828 288V269.543H61.0801L61.6602 271.898C63.5469 270.328 65.6211 269.543 67.8828 269.543C72.4883 269.543 74.791 271.834 74.791 276.416V288H71.5391V276.363C71.5391 273.621 70.1738 272.25 67.4434 272.25C65.5801 272.25 63.8105 273.029 62.1348 274.588V288H58.8828ZM92.4219 272.672C91.3086 272.391 89.9316 272.25 88.291 272.25C84.3652 272.25 82.4023 274.377 82.4023 278.631C82.4023 283.002 84.2598 285.188 87.9746 285.188C89.6621 285.188 91.1445 284.871 92.4219 284.238V272.672ZM95.6738 288C95.6738 292.453 92.8438 294.68 87.1836 294.68C84.9102 294.68 82.8945 294.387 81.1367 293.801V291.164C82.9297 291.75 84.957 292.043 87.2188 292.043C90.6875 292.043 92.4219 290.695 92.4219 288V287.121C91.0391 287.707 89.5508 288 87.957 288C82.1211 288 79.2031 284.889 79.2031 278.666C79.2031 272.584 82.2793 269.543 88.4316 269.543C90.9277 269.543 93.3418 269.795 95.6738 270.299V288ZM100.965 288V269.543H103.162L103.742 271.898C105.359 270.328 107.305 269.543 109.578 269.543V272.25C107.375 272.25 105.588 273.029 104.217 274.588V288H100.965ZM120.459 269.543C125.709 269.543 128.334 272.139 128.334 277.33C128.334 278.068 128.281 278.859 128.176 279.703H115.221C115.221 283.477 117.424 285.363 121.83 285.363C123.928 285.363 125.791 285.129 127.42 284.66V287.297C125.791 287.766 123.811 288 121.479 288C115.139 288 111.969 284.854 111.969 278.561C111.969 272.549 114.799 269.543 120.459 269.543ZM115.221 276.996H125.205C125.135 273.762 123.553 272.145 120.459 272.145C117.178 272.145 115.432 273.762 115.221 276.996ZM132.535 287.121V284.309C134.703 285.012 136.895 285.363 139.109 285.363C142.051 285.363 143.521 284.484 143.521 282.727C143.521 281.086 142.496 280.266 140.445 280.266H137.809C133.824 280.266 131.832 278.449 131.832 274.816C131.832 271.301 134.393 269.543 139.514 269.543C141.717 269.543 143.902 269.836 146.07 270.422V273.234C143.902 272.531 141.717 272.18 139.514 272.18C136.443 272.18 134.908 273.059 134.908 274.816C134.908 276.457 135.875 277.277 137.809 277.277H140.445C144.664 277.277 146.773 279.094 146.773 282.727C146.773 286.242 144.219 288 139.109 288C136.895 288 134.703 287.707 132.535 287.121ZM153.541 278.701C153.541 283.143 155.387 285.363 159.078 285.363C162.77 285.363 164.615 283.143 164.615 278.701C164.615 274.354 162.77 272.18 159.078 272.18C155.387 272.18 153.541 274.354 153.541 278.701ZM150.289 278.771C150.289 272.619 153.219 269.543 159.078 269.543C164.938 269.543 167.867 272.619 167.867 278.771C167.867 284.912 164.938 287.982 159.078 287.982C153.242 287.982 150.312 284.912 150.289 278.771ZM172.086 287.121V284.309C174.254 285.012 176.445 285.363 178.66 285.363C181.602 285.363 183.072 284.484 183.072 282.727C183.072 281.086 182.047 280.266 179.996 280.266H177.359C173.375 280.266 171.383 278.449 171.383 274.816C171.383 271.301 173.943 269.543 179.064 269.543C181.268 269.543 183.453 269.836 185.621 270.422V273.234C183.453 272.531 181.268 272.18 179.064 272.18C175.994 272.18 174.459 273.059 174.459 274.816C174.459 276.457 175.426 277.277 177.359 277.277H179.996C184.215 277.277 186.324 279.094 186.324 282.727C186.324 286.242 183.77 288 178.66 288C176.445 288 174.254 287.707 172.086 287.121ZM216.312 282.428C216.312 278.643 218.809 276.75 223.801 276.75C225.406 276.75 227.012 276.867 228.617 277.102V275.361C228.617 273.24 226.959 272.18 223.643 272.18C221.744 272.18 219.799 272.473 217.807 273.059V270.422C219.799 269.836 221.744 269.543 223.643 269.543C229.127 269.543 231.869 271.453 231.869 275.273V288H230.041L228.916 286.172C227.076 287.391 225.072 288 222.904 288C218.51 288 216.312 286.143 216.312 282.428ZM223.801 279.387C220.977 279.387 219.564 280.383 219.564 282.375C219.564 284.367 220.678 285.363 222.904 285.363C225.154 285.363 227.059 284.766 228.617 283.57V279.738C227.012 279.504 225.406 279.387 223.801 279.387ZM240.588 262.863V288H237.336V262.863H240.588ZM275.779 284.238C277.057 284.871 278.48 285.188 280.051 285.188C283.883 285.188 285.799 282.885 285.799 278.279C285.799 274.26 283.895 272.25 280.086 272.25C278.445 272.25 277.01 272.391 275.779 272.672V284.238ZM272.527 270.299C274.977 269.795 277.508 269.543 280.121 269.543C286.039 269.543 288.998 272.467 288.998 278.314C288.998 284.771 286.021 288 280.068 288C278.592 288 277.162 287.707 275.779 287.121V294.68H272.527V270.299ZM309.318 269.543V288H307.086L306.523 285.645C304.285 287.215 302.035 288 299.773 288C295.531 288 293.41 285.709 293.41 281.127V269.543H296.662V281.18C296.662 283.922 298.021 285.293 300.74 285.293C302.604 285.293 304.379 284.514 306.066 282.955V269.543H309.318ZM317.861 284.783C318.928 285.123 320.223 285.293 321.746 285.293C325.848 285.293 327.898 282.955 327.898 278.279C327.898 274.33 326.041 272.355 322.326 272.355C320.639 272.355 319.15 272.672 317.861 273.305V284.783ZM314.609 262.863H317.861V270.422C319.256 269.836 320.75 269.543 322.344 269.543C328.18 269.543 331.098 272.496 331.098 278.402C331.098 284.801 328.033 288 321.904 288C319.256 288 316.824 287.748 314.609 287.244V262.863ZM338.92 262.863V288H335.668V262.863H338.92ZM347.99 269.543V288H344.738V269.543H347.99ZM347.99 262.863V265.939H344.738V262.863H347.99ZM367.52 287.473C365.996 287.824 364.355 288 362.598 288C356.035 288 352.754 284.807 352.754 278.42C352.754 272.502 356.035 269.543 362.598 269.543C364.355 269.543 365.996 269.719 367.52 270.07V272.707C365.996 272.355 364.297 272.18 362.422 272.18C358.145 272.18 356.006 274.26 356.006 278.42C356.006 283.049 358.145 285.363 362.422 285.363C364.297 285.363 365.996 285.188 367.52 284.836V287.473ZM370.789 282.428C370.789 278.643 373.285 276.75 378.277 276.75C379.883 276.75 381.488 276.867 383.094 277.102V275.361C383.094 273.24 381.436 272.18 378.119 272.18C376.221 272.18 374.275 272.473 372.283 273.059V270.422C374.275 269.836 376.221 269.543 378.119 269.543C383.604 269.543 386.346 271.453 386.346 275.273V288H384.518L383.393 286.172C381.553 287.391 379.549 288 377.381 288C372.986 288 370.789 286.143 370.789 282.428ZM378.277 279.387C375.453 279.387 374.041 280.383 374.041 282.375C374.041 284.367 375.154 285.363 377.381 285.363C379.631 285.363 381.535 284.766 383.094 283.57V279.738C381.488 279.504 379.883 279.387 378.277 279.387ZM49.6367 306.555H51.6758L52.3789 309.543H57.3711V312.18H52.8887V322.779C52.8887 324.502 53.6328 325.363 55.1211 325.363H57.3711V328H54.2773C51.1836 328 49.6367 326.342 49.6367 323.025V306.555ZM77.4277 309.543V328H75.1953L74.6328 325.645C72.3945 327.215 70.1445 328 67.8828 328C63.6406 328 61.5195 325.709 61.5195 321.127V309.543H64.7715V321.18C64.7715 323.922 66.1309 325.293 68.8496 325.293C70.7129 325.293 72.4883 324.514 74.1758 322.955V309.543H77.4277ZM202.303 327.473C200.779 327.824 199.139 328 197.381 328C190.818 328 187.537 324.807 187.537 318.42C187.537 312.502 190.818 309.543 197.381 309.543C199.139 309.543 200.779 309.719 202.303 310.07V312.707C200.779 312.355 199.08 312.18 197.205 312.18C192.928 312.18 190.789 314.26 190.789 318.42C190.789 323.049 192.928 325.363 197.205 325.363C199.08 325.363 200.779 325.188 202.303 324.836V327.473ZM205.572 322.428C205.572 318.643 208.068 316.75 213.061 316.75C214.666 316.75 216.271 316.867 217.877 317.102V315.361C217.877 313.24 216.219 312.18 212.902 312.18C211.004 312.18 209.059 312.473 207.066 313.059V310.422C209.059 309.836 211.004 309.543 212.902 309.543C218.387 309.543 221.129 311.453 221.129 315.273V328H219.301L218.176 326.172C216.336 327.391 214.332 328 212.164 328C207.77 328 205.572 326.143 205.572 322.428ZM213.061 319.387C210.236 319.387 208.824 320.383 208.824 322.375C208.824 324.367 209.938 325.363 212.164 325.363C214.414 325.363 216.318 324.766 217.877 323.57V319.738C216.271 319.504 214.666 319.387 213.061 319.387ZM226.244 327.121V324.309C228.412 325.012 230.604 325.363 232.818 325.363C235.76 325.363 237.23 324.484 237.23 322.727C237.23 321.086 236.205 320.266 234.154 320.266H231.518C227.533 320.266 225.541 318.449 225.541 314.816C225.541 311.301 228.102 309.543 233.223 309.543C235.426 309.543 237.611 309.836 239.779 310.422V313.234C237.611 312.531 235.426 312.18 233.223 312.18C230.152 312.18 228.617 313.059 228.617 314.816C228.617 316.457 229.584 317.277 231.518 317.277H234.154C238.373 317.277 240.482 319.094 240.482 322.727C240.482 326.242 237.928 328 232.818 328C230.604 328 228.412 327.707 226.244 327.121ZM243.998 322.428C243.998 318.643 246.494 316.75 251.486 316.75C253.092 316.75 254.697 316.867 256.303 317.102V315.361C256.303 313.24 254.645 312.18 251.328 312.18C249.43 312.18 247.484 312.473 245.492 313.059V310.422C247.484 309.836 249.43 309.543 251.328 309.543C256.812 309.543 259.555 311.453 259.555 315.273V328H257.727L256.602 326.172C254.762 327.391 252.758 328 250.59 328C246.195 328 243.998 326.143 243.998 322.428ZM251.486 319.387C248.662 319.387 247.25 320.383 247.25 322.375C247.25 324.367 248.363 325.363 250.59 325.363C252.84 325.363 254.744 324.766 256.303 323.57V319.738C254.697 319.504 253.092 319.387 251.486 319.387ZM372.916 318.701C372.916 323.143 374.762 325.363 378.453 325.363C382.145 325.363 383.99 323.143 383.99 318.701C383.99 314.354 382.145 312.18 378.453 312.18C374.762 312.18 372.916 314.354 372.916 318.701ZM369.664 318.771C369.664 312.619 372.594 309.543 378.453 309.543C384.312 309.543 387.242 312.619 387.242 318.771C387.242 324.912 384.312 327.982 378.453 327.982C372.617 327.982 369.688 324.912 369.664 318.771ZM48.7578 362.428C48.7578 358.643 51.2539 356.75 56.2461 356.75C57.8516 356.75 59.457 356.867 61.0625 357.102V355.361C61.0625 353.24 59.4043 352.18 56.0879 352.18C54.1895 352.18 52.2441 352.473 50.252 353.059V350.422C52.2441 349.836 54.1895 349.543 56.0879 349.543C61.5723 349.543 64.3145 351.453 64.3145 355.273V368H62.4863L61.3613 366.172C59.5215 367.391 57.5176 368 55.3496 368C50.9551 368 48.7578 366.143 48.7578 362.428ZM56.2461 359.387C53.4219 359.387 52.0098 360.383 52.0098 362.375C52.0098 364.367 53.123 365.363 55.3496 365.363C57.5996 365.363 59.5039 364.766 61.0625 363.57V359.738C59.457 359.504 57.8516 359.387 56.2461 359.387ZM72.8574 364.238C74.1348 364.871 75.5586 365.188 77.1289 365.188C80.9609 365.188 82.877 362.885 82.877 358.279C82.877 354.26 80.9727 352.25 77.1641 352.25C75.5234 352.25 74.0879 352.391 72.8574 352.672V364.238ZM69.6055 350.299C72.0547 349.795 74.5859 349.543 77.1992 349.543C83.1172 349.543 86.0762 352.467 86.0762 358.314C86.0762 364.771 83.0996 368 77.1465 368C75.6699 368 74.2402 367.707 72.8574 367.121V374.68H69.6055V350.299ZM89.6094 362.428C89.6094 358.643 92.1055 356.75 97.0977 356.75C98.7031 356.75 100.309 356.867 101.914 357.102V355.361C101.914 353.24 100.256 352.18 96.9395 352.18C95.041 352.18 93.0957 352.473 91.1035 353.059V350.422C93.0957 349.836 95.041 349.543 96.9395 349.543C102.424 349.543 105.166 351.453 105.166 355.273V368H103.338L102.213 366.172C100.373 367.391 98.3691 368 96.2012 368C91.8066 368 89.6094 366.143 89.6094 362.428ZM97.0977 359.387C94.2734 359.387 92.8613 360.383 92.8613 362.375C92.8613 364.367 93.9746 365.363 96.2012 365.363C98.4512 365.363 100.355 364.766 101.914 363.57V359.738C100.309 359.504 98.7031 359.387 97.0977 359.387ZM110.457 368V349.543H112.654L113.234 351.898C114.852 350.328 116.797 349.543 119.07 349.543V352.25C116.867 352.25 115.08 353.029 113.709 354.588V368H110.457ZM122.34 346.555H124.379L125.082 349.543H130.074V352.18H125.592V362.779C125.592 364.502 126.336 365.363 127.824 365.363H130.074V368H126.98C123.887 368 122.34 366.342 122.34 363.025V346.555ZM133.344 362.428C133.344 358.643 135.84 356.75 140.832 356.75C142.438 356.75 144.043 356.867 145.648 357.102V355.361C145.648 353.24 143.99 352.18 140.674 352.18C138.775 352.18 136.83 352.473 134.838 353.059V350.422C136.83 349.836 138.775 349.543 140.674 349.543C146.158 349.543 148.9 351.453 148.9 355.273V368H147.072L145.947 366.172C144.107 367.391 142.104 368 139.936 368C135.541 368 133.344 366.143 133.344 362.428ZM140.832 359.387C138.008 359.387 136.596 360.383 136.596 362.375C136.596 364.367 137.709 365.363 139.936 365.363C142.186 365.363 144.09 364.766 145.648 363.57V359.738C144.043 359.504 142.438 359.387 140.832 359.387ZM154.191 368V349.543H156.389L156.934 351.863C158.703 350.316 160.631 349.543 162.717 349.543C165.389 349.543 167.211 350.387 168.184 352.074C170.188 350.387 172.221 349.543 174.283 349.543C178.525 349.543 180.646 351.881 180.646 356.557V368H177.395V356.381C177.395 353.627 176.234 352.25 173.914 352.25C172.18 352.25 170.557 353.047 169.045 354.641V368H165.793V356.434C165.793 353.645 164.645 352.25 162.348 352.25C160.52 352.25 158.885 353.047 157.443 354.641V368H154.191ZM193.549 349.543C198.799 349.543 201.424 352.139 201.424 357.33C201.424 358.068 201.371 358.859 201.266 359.703H188.311C188.311 363.477 190.514 365.363 194.92 365.363C197.018 365.363 198.881 365.129 200.51 364.66V367.297C198.881 367.766 196.9 368 194.568 368C188.229 368 185.059 364.854 185.059 358.561C185.059 352.549 187.889 349.543 193.549 349.543ZM188.311 356.996H198.295C198.225 353.762 196.643 352.145 193.549 352.145C190.268 352.145 188.521 353.762 188.311 356.996ZM205.801 368V349.543H207.998L208.578 351.898C210.465 350.328 212.539 349.543 214.801 349.543C219.406 349.543 221.709 351.834 221.709 356.416V368H218.457V356.363C218.457 353.621 217.092 352.25 214.361 352.25C212.498 352.25 210.729 353.029 209.053 354.588V368H205.801ZM227 346.555H229.039L229.742 349.543H234.734V352.18H230.252V362.779C230.252 364.502 230.996 365.363 232.484 365.363H234.734V368H231.641C228.547 368 227 366.342 227 363.025V346.555ZM241.256 358.701C241.256 363.143 243.102 365.363 246.793 365.363C250.484 365.363 252.33 363.143 252.33 358.701C252.33 354.354 250.484 352.18 246.793 352.18C243.102 352.18 241.256 354.354 241.256 358.701ZM238.004 358.771C238.004 352.619 240.934 349.543 246.793 349.543C252.652 349.543 255.582 352.619 255.582 358.771C255.582 364.912 252.652 367.982 246.793 367.982C240.957 367.982 238.027 364.912 238.004 358.771ZM345.195 367.473C343.672 367.824 342.031 368 340.273 368C333.711 368 330.43 364.807 330.43 358.42C330.43 352.502 333.711 349.543 340.273 349.543C342.031 349.543 343.672 349.719 345.195 350.07V352.707C343.672 352.355 341.973 352.18 340.098 352.18C335.82 352.18 333.682 354.26 333.682 358.42C333.682 363.049 335.82 365.363 340.098 365.363C341.973 365.363 343.672 365.188 345.195 364.836V367.473ZM351.717 358.701C351.717 363.143 353.562 365.363 357.254 365.363C360.945 365.363 362.791 363.143 362.791 358.701C362.791 354.354 360.945 352.18 357.254 352.18C353.562 352.18 351.717 354.354 351.717 358.701ZM348.465 358.771C348.465 352.619 351.395 349.543 357.254 349.543C363.113 349.543 366.043 352.619 366.043 358.771C366.043 364.912 363.113 367.982 357.254 367.982C351.418 367.982 348.488 364.912 348.465 358.771ZM370.438 368V349.543H372.635L373.215 351.898C375.102 350.328 377.176 349.543 379.438 349.543C384.043 349.543 386.346 351.834 386.346 356.416V368H383.094V356.363C383.094 353.621 381.729 352.25 378.998 352.25C377.135 352.25 375.365 353.029 373.689 354.588V368H370.438ZM49.6367 408V389.543H51.834L52.4141 391.898C54.3008 390.328 56.375 389.543 58.6367 389.543C63.2422 389.543 65.5449 391.834 65.5449 396.416V408H62.293V396.363C62.293 393.621 60.9277 392.25 58.1973 392.25C56.334 392.25 54.5645 393.029 52.8887 394.588V408H49.6367ZM73.209 398.701C73.209 403.143 75.0547 405.363 78.7461 405.363C82.4375 405.363 84.2832 403.143 84.2832 398.701C84.2832 394.354 82.4375 392.18 78.7461 392.18C75.0547 392.18 73.209 394.354 73.209 398.701ZM69.957 398.771C69.957 392.619 72.8867 389.543 78.7461 389.543C84.6055 389.543 87.5352 392.619 87.5352 398.771C87.5352 404.912 84.6055 407.982 78.7461 407.982C72.9102 407.982 69.9805 404.912 69.957 398.771ZM91.7539 407.121V404.309C93.9219 405.012 96.1133 405.363 98.3281 405.363C101.27 405.363 102.74 404.484 102.74 402.727C102.74 401.086 101.715 400.266 99.6641 400.266H97.0273C93.043 400.266 91.0508 398.449 91.0508 394.816C91.0508 391.301 93.6113 389.543 98.7324 389.543C100.936 389.543 103.121 389.836 105.289 390.422V393.234C103.121 392.531 100.936 392.18 98.7324 392.18C95.6621 392.18 94.127 393.059 94.127 394.816C94.127 396.457 95.0938 397.277 97.0273 397.277H99.6641C103.883 397.277 105.992 399.094 105.992 402.727C105.992 406.242 103.438 408 98.3281 408C96.1133 408 93.9219 407.707 91.7539 407.121ZM112.76 398.701C112.76 403.143 114.605 405.363 118.297 405.363C121.988 405.363 123.834 403.143 123.834 398.701C123.834 394.354 121.988 392.18 118.297 392.18C114.605 392.18 112.76 394.354 112.76 398.701ZM109.508 398.771C109.508 392.619 112.438 389.543 118.297 389.543C124.156 389.543 127.086 392.619 127.086 398.771C127.086 404.912 124.156 407.982 118.297 407.982C112.461 407.982 109.531 404.912 109.508 398.771ZM131.48 386.555H133.52L134.223 389.543H139.215V392.18H134.732V402.779C134.732 404.502 135.477 405.363 136.965 405.363H139.215V408H136.121C133.027 408 131.48 406.342 131.48 403.025V386.555ZM143.363 408V389.543H145.561L146.141 391.898C147.758 390.328 149.703 389.543 151.977 389.543V392.25C149.773 392.25 147.986 393.029 146.615 394.588V408H143.363ZM157.619 398.701C157.619 403.143 159.465 405.363 163.156 405.363C166.848 405.363 168.693 403.143 168.693 398.701C168.693 394.354 166.848 392.18 163.156 392.18C159.465 392.18 157.619 394.354 157.619 398.701ZM154.367 398.771C154.367 392.619 157.297 389.543 163.156 389.543C169.016 389.543 171.945 392.619 171.945 398.771C171.945 404.912 169.016 407.982 163.156 407.982C157.32 407.982 154.391 404.912 154.367 398.771ZM176.164 407.121V404.309C178.332 405.012 180.523 405.363 182.738 405.363C185.68 405.363 187.15 404.484 187.15 402.727C187.15 401.086 186.125 400.266 184.074 400.266H181.438C177.453 400.266 175.461 398.449 175.461 394.816C175.461 391.301 178.021 389.543 183.143 389.543C185.346 389.543 187.531 389.836 189.699 390.422V393.234C187.531 392.531 185.346 392.18 183.143 392.18C180.072 392.18 178.537 393.059 178.537 394.816C178.537 396.457 179.504 397.277 181.438 397.277H184.074C188.293 397.277 190.402 399.094 190.402 402.727C190.402 406.242 187.848 408 182.738 408C180.523 408 178.332 407.707 176.164 407.121ZM197.17 404.748V408H193.918V404.748H197.17Z" fill="#1E1E1E"/>
<path d="M643 281.5C643 322.093 610.093 355 569.5 355C528.907 355 496 322.093 496 281.5C496 240.907 528.907 208 569.5 208C610.093 208 643 240.907 643 281.5Z" fill="white"/>
<path d="M669.8 352.559H655.4V274.894C655.4 273.034 654.987 271.194 654.186 269.491C653.385 267.787 652.214 266.257 650.747 264.998L578.747 201.59C578.712 201.561 578.679 201.53 578.648 201.497C575.997 199.247 572.543 198 568.959 198C565.376 198 561.922 199.247 559.271 201.497L559.172 201.59L487.253 264.998C485.786 266.257 484.615 267.787 483.814 269.491C483.013 271.194 482.6 273.034 482.6 274.894V352.559H468.2C466.29 352.559 464.459 353.267 463.109 354.527C461.759 355.788 461 357.497 461 359.279C461 361.062 461.759 362.771 463.109 364.032C464.459 365.292 466.29 366 468.2 366H669.8C671.71 366 673.541 365.292 674.891 364.032C676.241 362.771 677 361.062 677 359.279C677 357.497 676.241 355.788 674.891 354.527C673.541 353.267 671.71 352.559 669.8 352.559ZM497 274.894L497.099 274.81L569 211.427L640.91 274.793L641.009 274.877V352.559H597.8V312.235C597.8 308.671 596.283 305.252 593.582 302.731C590.882 300.21 587.219 298.794 583.4 298.794H554.6C550.781 298.794 547.118 300.21 544.418 302.731C541.717 305.252 540.2 308.671 540.2 312.235V352.559H497V274.894ZM583.4 352.559H554.6V312.235H583.4V352.559Z" fill="black"/>
</svg>
