<svg width="1372" height="342" viewBox="0 0 1372 342" fill="none" xmlns="http://www.w3.org/2000/svg">
<mask id="path-1-inside-1_320_55" fill="white">
<path d="M0 0H1372V342H0V0Z"/>
</mask>
<path d="M0 0H1372V342H0V0Z" fill="white"/>
<path d="M0 1H1372V-1H0V1ZM1372 341H0V343H1372V341Z" fill="#CCCCCC" mask="url(#path-1-inside-1_320_55)"/>
<path d="M162.195 91.7109C159.943 92.7005 157.124 93.1953 153.738 93.1953C143.882 93.1953 138.953 88.3451 138.953 78.6445C138.953 69.4648 143.966 64.875 153.992 64.875C157.052 64.875 159.786 65.3307 162.195 66.2422V70.9297C159.786 69.888 157.182 69.3672 154.383 69.3672C147.677 69.3672 144.324 72.4596 144.324 78.6445C144.324 85.3503 147.488 88.7031 153.816 88.7031C154.754 88.7031 155.822 88.5469 157.02 88.2344V80.1094H162.195V91.7109ZM175.242 72.4922C181.466 72.4922 184.578 75.6693 184.578 82.0234C184.578 82.8698 184.52 83.7161 184.402 84.5625H170.789C170.789 87.4531 172.911 88.8984 177.156 88.8984C179.227 88.8984 181.297 88.7031 183.367 88.3125V92.4141C181.557 92.8047 179.357 93 176.766 93C169.331 93 165.613 89.5039 165.613 82.5117C165.613 75.832 168.823 72.4922 175.242 72.4922ZM170.789 80.9688H179.539V80.8125C179.539 77.974 178.107 76.5547 175.242 76.5547C172.508 76.5547 171.023 78.026 170.789 80.9688ZM188.465 93V72.4922H192.469L193.113 75.5C195.079 73.4948 197.319 72.4922 199.832 72.4922C204.689 72.4922 207.117 75.0182 207.117 80.0703V93H201.941V80.0703C201.941 77.8047 200.815 76.6719 198.562 76.6719C196.883 76.6719 195.242 77.3424 193.641 78.6836V93H188.465ZM220.672 72.4922C226.896 72.4922 230.008 75.6693 230.008 82.0234C230.008 82.8698 229.949 83.7161 229.832 84.5625H216.219C216.219 87.4531 218.341 88.8984 222.586 88.8984C224.656 88.8984 226.727 88.7031 228.797 88.3125V92.4141C226.987 92.8047 224.786 93 222.195 93C214.76 93 211.043 89.5039 211.043 82.5117C211.043 75.832 214.253 72.4922 220.672 72.4922ZM216.219 80.9688H224.969V80.8125C224.969 77.974 223.536 76.5547 220.672 76.5547C217.938 76.5547 216.453 78.026 216.219 80.9688ZM233.895 93V72.4922H237.898L238.543 75.1094C240.34 73.3646 242.241 72.4922 244.246 72.4922V76.6719C242.319 76.6719 240.594 77.4727 239.07 79.0742V93H233.895ZM246.199 86.6133C246.199 82.5378 249.168 80.5 255.105 80.5C256.499 80.5 257.892 80.6302 259.285 80.8906V79.3477C259.285 77.5117 257.964 76.5938 255.32 76.5938C253.081 76.5938 250.594 76.9193 247.859 77.5703V73.4688C250.594 72.8177 253.081 72.4922 255.32 72.4922C261.414 72.4922 264.461 74.7448 264.461 79.25V93H261.453L259.617 91.1641C257.833 92.388 255.867 93 253.719 93C248.706 93 246.199 90.8711 246.199 86.6133ZM259.285 84.4062C257.983 84.1458 256.59 84.0156 255.105 84.0156C252.618 84.0156 251.375 84.862 251.375 86.5547C251.375 88.3776 252.417 89.2891 254.5 89.2891C256.219 89.2891 257.814 88.7552 259.285 87.6875V84.4062ZM283.328 65.0703V69.1719H278.152V65.0703H283.328ZM283.328 72.4922V93H278.152V72.4922H283.328ZM288.23 93V72.4922H292.234L292.879 75.5C294.845 73.4948 297.085 72.4922 299.598 72.4922C304.454 72.4922 306.883 75.0182 306.883 80.0703V93H301.707V80.0703C301.707 77.8047 300.581 76.6719 298.328 76.6719C296.648 76.6719 295.008 77.3424 293.406 78.6836V93H288.23ZM324.91 77.1406C324.064 76.8281 322.859 76.6719 321.297 76.6719C317.716 76.6719 315.926 78.6445 315.926 82.5898C315.926 86.4049 317.469 88.3125 320.555 88.3125C322.039 88.3125 323.491 87.9609 324.91 87.2578V77.1406ZM330.086 91.4375C330.086 97.4271 326.486 100.422 319.285 100.422C316.759 100.422 314.52 100.096 312.566 99.4453V95.3438C314.559 95.9948 316.811 96.3203 319.324 96.3203C323.048 96.3203 324.91 94.7578 324.91 91.6328C323.374 92.2839 321.72 92.6094 319.949 92.6094C313.855 92.6094 310.809 89.2826 310.809 82.6289C310.809 75.8711 314.357 72.4922 321.453 72.4922C323.836 72.4922 326.714 72.7721 330.086 73.332V91.4375ZM334.988 93V72.4922H338.992L339.637 75.1094C341.434 73.3646 343.335 72.4922 345.34 72.4922V76.6719C343.413 76.6719 341.688 77.4727 340.164 79.0742V93H334.988ZM356.922 72.4922C363.146 72.4922 366.258 75.6693 366.258 82.0234C366.258 82.8698 366.199 83.7161 366.082 84.5625H352.469C352.469 87.4531 354.591 88.8984 358.836 88.8984C360.906 88.8984 362.977 88.7031 365.047 88.3125V92.4141C363.237 92.8047 361.036 93 358.445 93C351.01 93 347.293 89.5039 347.293 82.5117C347.293 75.832 350.503 72.4922 356.922 72.4922ZM352.469 80.9688H361.219V80.8125C361.219 77.974 359.786 76.5547 356.922 76.5547C354.188 76.5547 352.703 78.026 352.469 80.9688ZM370.145 92.0234V87.7266C372.423 88.638 375.053 89.0938 378.035 89.0938C380.262 89.0938 381.375 88.3776 381.375 86.9453C381.375 85.5781 380.626 84.8945 379.129 84.8945H375.418C371.251 84.8945 369.168 82.8438 369.168 78.7422C369.168 74.4453 372.208 72.2969 378.289 72.2969C380.867 72.2969 383.296 72.6875 385.574 73.4688V77.7656C383.296 76.8542 380.822 76.3984 378.152 76.3984C375.353 76.3984 373.953 77.1146 373.953 78.5469C373.953 79.9141 374.767 80.5977 376.395 80.5977H379.715C384.272 80.5977 386.551 82.6484 386.551 86.75C386.551 91.0469 383.647 93.1953 377.84 93.1953C374.988 93.1953 372.423 92.8047 370.145 92.0234ZM394.383 82.668C394.383 86.9518 396.043 89.0938 399.363 89.0938C402.684 89.0938 404.344 86.9518 404.344 82.668C404.344 78.4883 402.684 76.3984 399.363 76.3984C396.043 76.3984 394.383 78.4883 394.383 82.668ZM389.207 82.7461C389.207 75.8711 392.592 72.4336 399.363 72.4336C406.134 72.4336 409.52 75.8711 409.52 82.7461C409.52 89.6081 406.134 93.0391 399.363 93.0391C392.618 93.0391 389.233 89.6081 389.207 82.7461ZM413.426 92.0234V87.7266C415.704 88.638 418.335 89.0938 421.316 89.0938C423.543 89.0938 424.656 88.3776 424.656 86.9453C424.656 85.5781 423.908 84.8945 422.41 84.8945H418.699C414.533 84.8945 412.449 82.8438 412.449 78.7422C412.449 74.4453 415.49 72.2969 421.57 72.2969C424.148 72.2969 426.577 72.6875 428.855 73.4688V77.7656C426.577 76.8542 424.103 76.3984 421.434 76.3984C418.634 76.3984 417.234 77.1146 417.234 78.5469C417.234 79.9141 418.048 80.5977 419.676 80.5977H422.996C427.553 80.5977 429.832 82.6484 429.832 86.75C429.832 91.0469 426.928 93.1953 421.121 93.1953C418.27 93.1953 415.704 92.8047 413.426 92.0234ZM450.906 72.4922C457.13 72.4922 460.242 75.6693 460.242 82.0234C460.242 82.8698 460.184 83.7161 460.066 84.5625H446.453C446.453 87.4531 448.576 88.8984 452.82 88.8984C454.891 88.8984 456.961 88.7031 459.031 88.3125V92.4141C457.221 92.8047 455.021 93 452.43 93C444.995 93 441.277 89.5039 441.277 82.5117C441.277 75.832 444.487 72.4922 450.906 72.4922ZM446.453 80.9688H455.203V80.8125C455.203 77.974 453.771 76.5547 450.906 76.5547C448.172 76.5547 446.688 78.026 446.453 80.9688ZM469.363 82.7461L461.688 72.4922H467.449L472.234 78.8984L477.02 72.4922H482.781L475.125 82.7461L482.781 93H477.02L472.234 86.5938L467.449 93H461.688L469.363 82.7461ZM484.93 69.1719H488.758L489.539 72.4922H494.695V76.5938H490.105V86.0273C490.105 87.9414 490.932 88.8984 492.586 88.8984H494.695V93H490.086C486.648 93 484.93 91.1576 484.93 87.4727V69.1719ZM498.23 93V72.4922H502.234L502.879 75.1094C504.676 73.3646 506.577 72.4922 508.582 72.4922V76.6719C506.655 76.6719 504.93 77.4727 503.406 79.0742V93H498.23ZM510.535 86.6133C510.535 82.5378 513.504 80.5 519.441 80.5C520.835 80.5 522.228 80.6302 523.621 80.8906V79.3477C523.621 77.5117 522.299 76.5938 519.656 76.5938C517.417 76.5938 514.93 76.9193 512.195 77.5703V73.4688C514.93 72.8177 517.417 72.4922 519.656 72.4922C525.75 72.4922 528.797 74.7448 528.797 79.25V93H525.789L523.953 91.1641C522.169 92.388 520.203 93 518.055 93C513.042 93 510.535 90.8711 510.535 86.6133ZM523.621 84.4062C522.319 84.1458 520.926 84.0156 519.441 84.0156C516.954 84.0156 515.711 84.862 515.711 86.5547C515.711 88.3776 516.753 89.2891 518.836 89.2891C520.555 89.2891 522.15 88.7552 523.621 87.6875V84.4062ZM533.699 92.0234V87.7266C535.978 88.638 538.608 89.0938 541.59 89.0938C543.816 89.0938 544.93 88.3776 544.93 86.9453C544.93 85.5781 544.181 84.8945 542.684 84.8945H538.973C534.806 84.8945 532.723 82.8438 532.723 78.7422C532.723 74.4453 535.763 72.2969 541.844 72.2969C544.422 72.2969 546.85 72.6875 549.129 73.4688V77.7656C546.85 76.8542 544.376 76.3984 541.707 76.3984C538.908 76.3984 537.508 77.1146 537.508 78.5469C537.508 79.9141 538.322 80.5977 539.949 80.5977H543.27C547.827 80.5977 550.105 82.6484 550.105 86.75C550.105 91.0469 547.202 93.1953 541.395 93.1953C538.543 93.1953 535.978 92.8047 533.699 92.0234ZM138.465 131.613C138.465 127.538 141.434 125.5 147.371 125.5C148.764 125.5 150.158 125.63 151.551 125.891V124.348C151.551 122.512 150.229 121.594 147.586 121.594C145.346 121.594 142.859 121.919 140.125 122.57V118.469C142.859 117.818 145.346 117.492 147.586 117.492C153.68 117.492 156.727 119.745 156.727 124.25V138H153.719L151.883 136.164C150.099 137.388 148.133 138 145.984 138C140.971 138 138.465 135.871 138.465 131.613ZM151.551 129.406C150.249 129.146 148.855 129.016 147.371 129.016C144.884 129.016 143.641 129.862 143.641 131.555C143.641 133.378 144.682 134.289 146.766 134.289C148.484 134.289 150.079 133.755 151.551 132.688V129.406ZM161.629 138V117.492H165.633L166.277 120.109C168.074 118.365 169.975 117.492 171.98 117.492V121.672C170.053 121.672 168.328 122.473 166.805 124.074V138H161.629ZM174.91 138V117.492H178.914L179.559 120.109C181.355 118.365 183.257 117.492 185.262 117.492V121.672C183.335 121.672 181.609 122.473 180.086 124.074V138H174.91ZM196.844 117.492C203.068 117.492 206.18 120.669 206.18 127.023C206.18 127.87 206.121 128.716 206.004 129.562H192.391C192.391 132.453 194.513 133.898 198.758 133.898C200.828 133.898 202.898 133.703 204.969 133.312V137.414C203.159 137.805 200.958 138 198.367 138C190.932 138 187.215 134.504 187.215 127.512C187.215 120.832 190.424 117.492 196.844 117.492ZM192.391 125.969H201.141V125.812C201.141 122.974 199.708 121.555 196.844 121.555C194.109 121.555 192.625 123.026 192.391 125.969ZM210.066 138V117.492H214.07L214.715 120.5C216.681 118.495 218.921 117.492 221.434 117.492C226.29 117.492 228.719 120.018 228.719 125.07V138H223.543V125.07C223.543 122.805 222.417 121.672 220.164 121.672C218.484 121.672 216.844 122.342 215.242 123.684V138H210.066ZM246.609 122.844C245.542 122.141 244.201 121.789 242.586 121.789C239.37 121.789 237.762 123.592 237.762 127.199C237.762 131.483 239.435 133.625 242.781 133.625C244.135 133.625 245.411 133.436 246.609 133.059V122.844ZM251.785 136.77C248.647 137.59 245.581 138 242.586 138C235.958 138 232.645 134.445 232.645 127.336C232.645 120.773 235.887 117.492 242.371 117.492C243.751 117.492 245.164 117.818 246.609 118.469V110.07H251.785V136.77ZM255.691 131.613C255.691 127.538 258.66 125.5 264.598 125.5C265.991 125.5 267.384 125.63 268.777 125.891V124.348C268.777 122.512 267.456 121.594 264.812 121.594C262.573 121.594 260.086 121.919 257.352 122.57V118.469C260.086 117.818 262.573 117.492 264.812 117.492C270.906 117.492 273.953 119.745 273.953 124.25V138H270.945L269.109 136.164C267.326 137.388 265.359 138 263.211 138C258.198 138 255.691 135.871 255.691 131.613ZM268.777 129.406C267.475 129.146 266.082 129.016 264.598 129.016C262.111 129.016 260.867 129.862 260.867 131.555C260.867 133.378 261.909 134.289 263.992 134.289C265.711 134.289 267.306 133.755 268.777 132.688V129.406ZM278.855 138V117.492H282.859L283.504 120.5C285.47 118.495 287.71 117.492 290.223 117.492C295.079 117.492 297.508 120.018 297.508 125.07V138H292.332V125.07C292.332 122.805 291.206 121.672 288.953 121.672C287.273 121.672 285.633 122.342 284.031 123.684V138H278.855ZM315.398 122.844C314.331 122.141 312.99 121.789 311.375 121.789C308.159 121.789 306.551 123.592 306.551 127.199C306.551 131.483 308.224 133.625 311.57 133.625C312.924 133.625 314.201 133.436 315.398 133.059V122.844ZM320.574 136.77C317.436 137.59 314.37 138 311.375 138C304.747 138 301.434 134.445 301.434 127.336C301.434 120.773 304.676 117.492 311.16 117.492C312.54 117.492 313.953 117.818 315.398 118.469V110.07H320.574V136.77ZM329.656 127.668C329.656 131.952 331.316 134.094 334.637 134.094C337.957 134.094 339.617 131.952 339.617 127.668C339.617 123.488 337.957 121.398 334.637 121.398C331.316 121.398 329.656 123.488 329.656 127.668ZM324.48 127.746C324.48 120.871 327.866 117.434 334.637 117.434C341.408 117.434 344.793 120.871 344.793 127.746C344.793 134.608 341.408 138.039 334.637 138.039C327.892 138.039 324.507 134.608 324.48 127.746ZM357.195 114.172H361.023L361.805 117.492H366.961V121.594H362.371V131.027C362.371 132.941 363.198 133.898 364.852 133.898H366.961V138H362.352C358.914 138 357.195 136.158 357.195 132.473V114.172ZM388.953 117.492V138H384.91L384.285 135.383C381.928 137.128 379.428 138 376.785 138C372.592 138 370.496 135.52 370.496 130.559V117.492H375.672V130.422C375.672 132.688 376.661 133.82 378.641 133.82C380.32 133.82 382.033 133.15 383.777 131.809V117.492H388.953ZM417.781 137.414C416.089 137.805 414.331 138 412.508 138C405.216 138 401.57 134.452 401.57 127.355C401.57 120.78 405.216 117.492 412.508 117.492C414.331 117.492 416.089 117.688 417.781 118.078V122.18C416.089 121.789 414.461 121.594 412.898 121.594C408.797 121.594 406.746 123.514 406.746 127.355C406.746 131.717 408.797 133.898 412.898 133.898C414.461 133.898 416.089 133.703 417.781 133.312V137.414ZM420.223 131.613C420.223 127.538 423.191 125.5 429.129 125.5C430.522 125.5 431.915 125.63 433.309 125.891V124.348C433.309 122.512 431.987 121.594 429.344 121.594C427.104 121.594 424.617 121.919 421.883 122.57V118.469C424.617 117.818 427.104 117.492 429.344 117.492C435.438 117.492 438.484 119.745 438.484 124.25V138H435.477L433.641 136.164C431.857 137.388 429.891 138 427.742 138C422.729 138 420.223 135.871 420.223 131.613ZM433.309 129.406C432.007 129.146 430.613 129.016 429.129 129.016C426.642 129.016 425.398 129.862 425.398 131.555C425.398 133.378 426.44 134.289 428.523 134.289C430.242 134.289 431.837 133.755 433.309 132.688V129.406ZM443.387 137.023V132.727C445.665 133.638 448.296 134.094 451.277 134.094C453.504 134.094 454.617 133.378 454.617 131.945C454.617 130.578 453.868 129.895 452.371 129.895H448.66C444.493 129.895 442.41 127.844 442.41 123.742C442.41 119.445 445.451 117.297 451.531 117.297C454.109 117.297 456.538 117.688 458.816 118.469V122.766C456.538 121.854 454.064 121.398 451.395 121.398C448.595 121.398 447.195 122.115 447.195 123.547C447.195 124.914 448.009 125.598 449.637 125.598H452.957C457.514 125.598 459.793 127.648 459.793 131.75C459.793 136.047 456.889 138.195 451.082 138.195C448.23 138.195 445.665 137.805 443.387 137.023ZM462.449 131.613C462.449 127.538 465.418 125.5 471.355 125.5C472.749 125.5 474.142 125.63 475.535 125.891V124.348C475.535 122.512 474.214 121.594 471.57 121.594C469.331 121.594 466.844 121.919 464.109 122.57V118.469C466.844 117.818 469.331 117.492 471.57 117.492C477.664 117.492 480.711 119.745 480.711 124.25V138H477.703L475.867 136.164C474.083 137.388 472.117 138 469.969 138C464.956 138 462.449 135.871 462.449 131.613ZM475.535 129.406C474.233 129.146 472.84 129.016 471.355 129.016C468.868 129.016 467.625 129.862 467.625 131.555C467.625 133.378 468.667 134.289 470.75 134.289C472.469 134.289 474.064 133.755 475.535 132.688V129.406ZM489.227 138H483.66L497.82 110.07H503.387L489.227 138ZM505.34 131.613C505.34 127.538 508.309 125.5 514.246 125.5C515.639 125.5 517.033 125.63 518.426 125.891V124.348C518.426 122.512 517.104 121.594 514.461 121.594C512.221 121.594 509.734 121.919 507 122.57V118.469C509.734 117.818 512.221 117.492 514.461 117.492C520.555 117.492 523.602 119.745 523.602 124.25V138H520.594L518.758 136.164C516.974 137.388 515.008 138 512.859 138C507.846 138 505.34 135.871 505.34 131.613ZM518.426 129.406C517.124 129.146 515.73 129.016 514.246 129.016C511.759 129.016 510.516 129.862 510.516 131.555C510.516 133.378 511.557 134.289 513.641 134.289C515.359 134.289 516.954 133.755 518.426 132.688V129.406ZM533.68 132.648C534.969 133.352 536.355 133.703 537.84 133.703C540.926 133.703 542.469 131.535 542.469 127.199C542.469 123.514 540.763 121.672 537.352 121.672C535.88 121.672 534.656 121.763 533.68 121.945V132.648ZM528.504 118.332C531.225 117.772 534.103 117.492 537.137 117.492C544.103 117.492 547.586 120.741 547.586 127.238C547.586 134.413 544.344 138 537.859 138C536.479 138 535.086 137.674 533.68 137.023V145.422H528.504V118.332ZM550.535 131.613C550.535 127.538 553.504 125.5 559.441 125.5C560.835 125.5 562.228 125.63 563.621 125.891V124.348C563.621 122.512 562.299 121.594 559.656 121.594C557.417 121.594 554.93 121.919 552.195 122.57V118.469C554.93 117.818 557.417 117.492 559.656 117.492C565.75 117.492 568.797 119.745 568.797 124.25V138H565.789L563.953 136.164C562.169 137.388 560.203 138 558.055 138C553.042 138 550.535 135.871 550.535 131.613ZM563.621 129.406C562.319 129.146 560.926 129.016 559.441 129.016C556.954 129.016 555.711 129.862 555.711 131.555C555.711 133.378 556.753 134.289 558.836 134.289C560.555 134.289 562.15 133.755 563.621 132.688V129.406ZM573.699 138V117.492H577.703L578.348 120.109C580.145 118.365 582.046 117.492 584.051 117.492V121.672C582.124 121.672 580.398 122.473 578.875 124.074V138H573.699ZM586.688 114.172H590.516L591.297 117.492H596.453V121.594H591.863V131.027C591.863 132.941 592.69 133.898 594.344 133.898H596.453V138H591.844C588.406 138 586.688 136.158 586.688 132.473V114.172ZM599.012 131.613C599.012 127.538 601.98 125.5 607.918 125.5C609.311 125.5 610.704 125.63 612.098 125.891V124.348C612.098 122.512 610.776 121.594 608.133 121.594C605.893 121.594 603.406 121.919 600.672 122.57V118.469C603.406 117.818 605.893 117.492 608.133 117.492C614.227 117.492 617.273 119.745 617.273 124.25V138H614.266L612.43 136.164C610.646 137.388 608.68 138 606.531 138C601.518 138 599.012 135.871 599.012 131.613ZM612.098 129.406C610.796 129.146 609.402 129.016 607.918 129.016C605.431 129.016 604.188 129.862 604.188 131.555C604.188 133.378 605.229 134.289 607.312 134.289C609.031 134.289 610.626 133.755 612.098 132.688V129.406ZM622.176 138V117.492H626.18L626.785 120.461C628.621 118.482 630.828 117.492 633.406 117.492C635.984 117.492 637.749 118.43 638.699 120.305C640.796 118.43 642.99 117.492 645.281 117.492C649.995 117.492 652.352 120.09 652.352 125.285V138H647.176V125.09C647.176 122.811 646.147 121.672 644.09 121.672C642.553 121.672 641.076 122.362 639.656 123.742V138H634.48V125.148C634.48 122.831 633.53 121.672 631.629 121.672C630.118 121.672 628.693 122.362 627.352 123.742V138H622.176ZM665.906 117.492C672.13 117.492 675.242 120.669 675.242 127.023C675.242 127.87 675.184 128.716 675.066 129.562H661.453C661.453 132.453 663.576 133.898 667.82 133.898C669.891 133.898 671.961 133.703 674.031 133.312V137.414C672.221 137.805 670.021 138 667.43 138C659.995 138 656.277 134.504 656.277 127.512C656.277 120.832 659.487 117.492 665.906 117.492ZM661.453 125.969H670.203V125.812C670.203 122.974 668.771 121.555 665.906 121.555C663.172 121.555 661.688 123.026 661.453 125.969ZM679.129 138V117.492H683.133L683.777 120.5C685.743 118.495 687.983 117.492 690.496 117.492C695.353 117.492 697.781 120.018 697.781 125.07V138H692.605V125.07C692.605 122.805 691.479 121.672 689.227 121.672C687.547 121.672 685.906 122.342 684.305 123.684V138H679.129ZM702.391 114.172H706.219L707 117.492H712.156V121.594H707.566V131.027C707.566 132.941 708.393 133.898 710.047 133.898H712.156V138H707.547C704.109 138 702.391 136.158 702.391 132.473V114.172ZM719.891 127.668C719.891 131.952 721.551 134.094 724.871 134.094C728.191 134.094 729.852 131.952 729.852 127.668C729.852 123.488 728.191 121.398 724.871 121.398C721.551 121.398 719.891 123.488 719.891 127.668ZM714.715 127.746C714.715 120.871 718.1 117.434 724.871 117.434C731.642 117.434 735.027 120.871 735.027 127.746C735.027 134.608 731.642 138.039 724.871 138.039C718.126 138.039 714.741 134.608 714.715 127.746Z" fill="#1E1E1E"/>
<path d="M138.992 184V167.242H141.746L147.898 181.223L153.934 167.242H156.57V184H154.637V170.254L148.684 184H146.973L140.926 170.254V184H138.992ZM159.734 180.285C159.734 177.762 161.398 176.5 164.727 176.5C165.797 176.5 166.867 176.578 167.938 176.734V175.574C167.938 174.16 166.832 173.453 164.621 173.453C163.355 173.453 162.059 173.648 160.73 174.039V172.281C162.059 171.891 163.355 171.695 164.621 171.695C168.277 171.695 170.105 172.969 170.105 175.516V184H168.887L168.137 182.781C166.91 183.594 165.574 184 164.129 184C161.199 184 159.734 182.762 159.734 180.285ZM164.727 178.258C162.844 178.258 161.902 178.922 161.902 180.25C161.902 181.578 162.645 182.242 164.129 182.242C165.629 182.242 166.898 181.844 167.938 181.047V178.492C166.867 178.336 165.797 178.258 164.727 178.258ZM176.773 177.848L172.168 171.695H174.688L178.027 176.16L181.367 171.695H183.887L179.293 177.848L183.887 184H181.367L178.027 179.535L174.688 184H172.168L176.773 177.848ZM188.34 171.695V184H186.172V171.695H188.34ZM188.34 167.242V169.293H186.172V167.242H188.34ZM192.102 184V171.695H193.566L193.93 173.242C195.109 172.211 196.395 171.695 197.785 171.695C199.566 171.695 200.781 172.258 201.43 173.383C202.766 172.258 204.121 171.695 205.496 171.695C208.324 171.695 209.738 173.254 209.738 176.371V184H207.57V176.254C207.57 174.418 206.797 173.5 205.25 173.5C204.094 173.5 203.012 174.031 202.004 175.094V184H199.836V176.289C199.836 174.43 199.07 173.5 197.539 173.5C196.32 173.5 195.23 174.031 194.27 175.094V184H192.102ZM215.668 171.695V184H213.5V171.695H215.668ZM215.668 167.242V169.293H213.5V167.242H215.668ZM219.078 171.695H228.688V173.453L221.34 182.359H228.453V184H218.844V182.359L226.285 173.453H219.078V171.695ZM231.031 180.285C231.031 177.762 232.695 176.5 236.023 176.5C237.094 176.5 238.164 176.578 239.234 176.734V175.574C239.234 174.16 238.129 173.453 235.918 173.453C234.652 173.453 233.355 173.648 232.027 174.039V172.281C233.355 171.891 234.652 171.695 235.918 171.695C239.574 171.695 241.402 172.969 241.402 175.516V184H240.184L239.434 182.781C238.207 183.594 236.871 184 235.426 184C232.496 184 231.031 182.762 231.031 180.285ZM236.023 178.258C234.141 178.258 233.199 178.922 233.199 180.25C233.199 181.578 233.941 182.242 235.426 182.242C236.926 182.242 238.195 181.844 239.234 181.047V178.492C238.164 178.336 237.094 178.258 236.023 178.258ZM252.488 169.703H253.848L254.316 171.695H257.645V173.453H254.656V180.52C254.656 181.668 255.152 182.242 256.145 182.242H257.645V184H255.582C253.52 184 252.488 182.895 252.488 180.684V169.703ZM271.016 171.695V184H269.527L269.152 182.43C267.66 183.477 266.16 184 264.652 184C261.824 184 260.41 182.473 260.41 179.418V171.695H262.578V179.453C262.578 181.281 263.484 182.195 265.297 182.195C266.539 182.195 267.723 181.676 268.848 180.637V171.695H271.016ZM274.426 183.414V181.539C275.871 182.008 277.332 182.242 278.809 182.242C280.77 182.242 281.75 181.656 281.75 180.484C281.75 179.391 281.066 178.844 279.699 178.844H277.941C275.285 178.844 273.957 177.633 273.957 175.211C273.957 172.867 275.664 171.695 279.078 171.695C280.547 171.695 282.004 171.891 283.449 172.281V174.156C282.004 173.688 280.547 173.453 279.078 173.453C277.031 173.453 276.008 174.039 276.008 175.211C276.008 176.305 276.652 176.852 277.941 176.852H279.699C282.512 176.852 283.918 178.062 283.918 180.484C283.918 182.828 282.215 184 278.809 184C277.332 184 275.871 183.805 274.426 183.414ZM296.809 171.695V184H294.641V171.695H296.809ZM296.809 167.242V169.293H294.641V167.242H296.809ZM300.57 184V171.695H302.035L302.422 173.266C303.68 172.219 305.062 171.695 306.57 171.695C309.641 171.695 311.176 173.223 311.176 176.277V184H309.008V176.242C309.008 174.414 308.098 173.5 306.277 173.5C305.035 173.5 303.855 174.02 302.738 175.059V184H300.57ZM322.93 173.781C322.188 173.594 321.27 173.5 320.176 173.5C317.559 173.5 316.25 174.918 316.25 177.754C316.25 180.668 317.488 182.125 319.965 182.125C321.09 182.125 322.078 181.914 322.93 181.492V173.781ZM325.098 184C325.098 186.969 323.211 188.453 319.438 188.453C317.922 188.453 316.578 188.258 315.406 187.867V186.109C316.602 186.5 317.953 186.695 319.461 186.695C321.773 186.695 322.93 185.797 322.93 184V183.414C322.008 183.805 321.016 184 319.953 184C316.062 184 314.117 181.926 314.117 177.777C314.117 173.723 316.168 171.695 320.27 171.695C321.934 171.695 323.543 171.863 325.098 172.199V184ZM328.625 184V171.695H330.09L330.477 173.266C331.555 172.219 332.852 171.695 334.367 171.695V173.5C332.898 173.5 331.707 174.02 330.793 175.059V184H328.625ZM341.621 171.695C345.121 171.695 346.871 173.426 346.871 176.887C346.871 177.379 346.836 177.906 346.766 178.469H338.129C338.129 180.984 339.598 182.242 342.535 182.242C343.934 182.242 345.176 182.086 346.262 181.773V183.531C345.176 183.844 343.855 184 342.301 184C338.074 184 335.961 181.902 335.961 177.707C335.961 173.699 337.848 171.695 341.621 171.695ZM338.129 176.664H344.785C344.738 174.508 343.684 173.43 341.621 173.43C339.434 173.43 338.27 174.508 338.129 176.664ZM349.672 183.414V181.539C351.117 182.008 352.578 182.242 354.055 182.242C356.016 182.242 356.996 181.656 356.996 180.484C356.996 179.391 356.312 178.844 354.945 178.844H353.188C350.531 178.844 349.203 177.633 349.203 175.211C349.203 172.867 350.91 171.695 354.324 171.695C355.793 171.695 357.25 171.891 358.695 172.281V174.156C357.25 173.688 355.793 173.453 354.324 173.453C352.277 173.453 351.254 174.039 351.254 175.211C351.254 176.305 351.898 176.852 353.188 176.852H354.945C357.758 176.852 359.164 178.062 359.164 180.484C359.164 182.828 357.461 184 354.055 184C352.578 184 351.117 183.805 349.672 183.414ZM363.676 177.801C363.676 180.762 364.906 182.242 367.367 182.242C369.828 182.242 371.059 180.762 371.059 177.801C371.059 174.902 369.828 173.453 367.367 173.453C364.906 173.453 363.676 174.902 363.676 177.801ZM361.508 177.848C361.508 173.746 363.461 171.695 367.367 171.695C371.273 171.695 373.227 173.746 373.227 177.848C373.227 181.941 371.273 183.988 367.367 183.988C363.477 183.988 361.523 181.941 361.508 177.848ZM376.039 183.414V181.539C377.484 182.008 378.945 182.242 380.422 182.242C382.383 182.242 383.363 181.656 383.363 180.484C383.363 179.391 382.68 178.844 381.312 178.844H379.555C376.898 178.844 375.57 177.633 375.57 175.211C375.57 172.867 377.277 171.695 380.691 171.695C382.16 171.695 383.617 171.891 385.062 172.281V174.156C383.617 173.688 382.16 173.453 380.691 173.453C378.645 173.453 377.621 174.039 377.621 175.211C377.621 176.305 378.266 176.852 379.555 176.852H381.312C384.125 176.852 385.531 178.062 385.531 180.484C385.531 182.828 383.828 184 380.422 184C378.945 184 377.484 183.805 376.039 183.414ZM395.434 180.285C395.434 177.762 397.098 176.5 400.426 176.5C401.496 176.5 402.566 176.578 403.637 176.734V175.574C403.637 174.16 402.531 173.453 400.32 173.453C399.055 173.453 397.758 173.648 396.43 174.039V172.281C397.758 171.891 399.055 171.695 400.32 171.695C403.977 171.695 405.805 172.969 405.805 175.516V184H404.586L403.836 182.781C402.609 183.594 401.273 184 399.828 184C396.898 184 395.434 182.762 395.434 180.285ZM400.426 178.258C398.543 178.258 397.602 178.922 397.602 180.25C397.602 181.578 398.344 182.242 399.828 182.242C401.328 182.242 402.598 181.844 403.637 181.047V178.492C402.566 178.336 401.496 178.258 400.426 178.258ZM411.617 167.242V184H409.449V167.242H411.617ZM424.988 181.492C425.84 181.914 426.789 182.125 427.836 182.125C430.391 182.125 431.668 180.59 431.668 177.52C431.668 174.84 430.398 173.5 427.859 173.5C426.766 173.5 425.809 173.594 424.988 173.781V181.492ZM422.82 172.199C424.453 171.863 426.141 171.695 427.883 171.695C431.828 171.695 433.801 173.645 433.801 177.543C433.801 181.848 431.816 184 427.848 184C426.863 184 425.91 183.805 424.988 183.414V188.453H422.82V172.199ZM447.348 171.695V184H445.859L445.484 182.43C443.992 183.477 442.492 184 440.984 184C438.156 184 436.742 182.473 436.742 179.418V171.695H438.91V179.453C438.91 181.281 439.816 182.195 441.629 182.195C442.871 182.195 444.055 181.676 445.18 180.637V171.695H447.348ZM453.043 181.855C453.754 182.082 454.617 182.195 455.633 182.195C458.367 182.195 459.734 180.637 459.734 177.52C459.734 174.887 458.496 173.57 456.02 173.57C454.895 173.57 453.902 173.781 453.043 174.203V181.855ZM450.875 167.242H453.043V172.281C453.973 171.891 454.969 171.695 456.031 171.695C459.922 171.695 461.867 173.664 461.867 177.602C461.867 181.867 459.824 184 455.738 184C453.973 184 452.352 183.832 450.875 183.496V167.242ZM467.082 167.242V184H464.914V167.242H467.082ZM473.129 171.695V184H470.961V171.695H473.129ZM473.129 167.242V169.293H470.961V167.242H473.129ZM486.148 183.648C485.133 183.883 484.039 184 482.867 184C478.492 184 476.305 181.871 476.305 177.613C476.305 173.668 478.492 171.695 482.867 171.695C484.039 171.695 485.133 171.812 486.148 172.047V173.805C485.133 173.57 484 173.453 482.75 173.453C479.898 173.453 478.473 174.84 478.473 177.613C478.473 180.699 479.898 182.242 482.75 182.242C484 182.242 485.133 182.125 486.148 181.891V183.648ZM488.328 180.285C488.328 177.762 489.992 176.5 493.32 176.5C494.391 176.5 495.461 176.578 496.531 176.734V175.574C496.531 174.16 495.426 173.453 493.215 173.453C491.949 173.453 490.652 173.648 489.324 174.039V172.281C490.652 171.891 491.949 171.695 493.215 171.695C496.871 171.695 498.699 172.969 498.699 175.516V184H497.48L496.73 182.781C495.504 183.594 494.168 184 492.723 184C489.793 184 488.328 182.762 488.328 180.285ZM493.32 178.258C491.438 178.258 490.496 178.922 490.496 180.25C490.496 181.578 491.238 182.242 492.723 182.242C494.223 182.242 495.492 181.844 496.531 181.047V178.492C495.461 178.336 494.391 178.258 493.32 178.258ZM509.785 169.703H511.145L511.613 171.695H514.941V173.453H511.953V180.52C511.953 181.668 512.449 182.242 513.441 182.242H514.941V184H512.879C510.816 184 509.785 182.895 509.785 180.684V169.703ZM528.312 171.695V184H526.824L526.449 182.43C524.957 183.477 523.457 184 521.949 184C519.121 184 517.707 182.473 517.707 179.418V171.695H519.875V179.453C519.875 181.281 520.781 182.195 522.594 182.195C523.836 182.195 525.02 181.676 526.145 180.637V171.695H528.312ZM548.656 183.648C547.641 183.883 546.547 184 545.375 184C541 184 538.812 181.871 538.812 177.613C538.812 173.668 541 171.695 545.375 171.695C546.547 171.695 547.641 171.812 548.656 172.047V173.805C547.641 173.57 546.508 173.453 545.258 173.453C542.406 173.453 540.98 174.84 540.98 177.613C540.98 180.699 542.406 182.242 545.258 182.242C546.508 182.242 547.641 182.125 548.656 181.891V183.648ZM550.836 180.285C550.836 177.762 552.5 176.5 555.828 176.5C556.898 176.5 557.969 176.578 559.039 176.734V175.574C559.039 174.16 557.934 173.453 555.723 173.453C554.457 173.453 553.16 173.648 551.832 174.039V172.281C553.16 171.891 554.457 171.695 555.723 171.695C559.379 171.695 561.207 172.969 561.207 175.516V184H559.988L559.238 182.781C558.012 183.594 556.676 184 555.23 184C552.301 184 550.836 182.762 550.836 180.285ZM555.828 178.258C553.945 178.258 553.004 178.922 553.004 180.25C553.004 181.578 553.746 182.242 555.23 182.242C556.73 182.242 558 181.844 559.039 181.047V178.492C557.969 178.336 556.898 178.258 555.828 178.258ZM564.617 183.414V181.539C566.062 182.008 567.523 182.242 569 182.242C570.961 182.242 571.941 181.656 571.941 180.484C571.941 179.391 571.258 178.844 569.891 178.844H568.133C565.477 178.844 564.148 177.633 564.148 175.211C564.148 172.867 565.855 171.695 569.27 171.695C570.738 171.695 572.195 171.891 573.641 172.281V174.156C572.195 173.688 570.738 173.453 569.27 173.453C567.223 173.453 566.199 174.039 566.199 175.211C566.199 176.305 566.844 176.852 568.133 176.852H569.891C572.703 176.852 574.109 178.062 574.109 180.484C574.109 182.828 572.406 184 569 184C567.523 184 566.062 183.805 564.617 183.414ZM576.453 180.285C576.453 177.762 578.117 176.5 581.445 176.5C582.516 176.5 583.586 176.578 584.656 176.734V175.574C584.656 174.16 583.551 173.453 581.34 173.453C580.074 173.453 578.777 173.648 577.449 174.039V172.281C578.777 171.891 580.074 171.695 581.34 171.695C584.996 171.695 586.824 172.969 586.824 175.516V184H585.605L584.855 182.781C583.629 183.594 582.293 184 580.848 184C577.918 184 576.453 182.762 576.453 180.285ZM581.445 178.258C579.562 178.258 578.621 178.922 578.621 180.25C578.621 181.578 579.363 182.242 580.848 182.242C582.348 182.242 583.617 181.844 584.656 181.047V178.492C583.586 178.336 582.516 178.258 581.445 178.258ZM599.492 177.801C599.492 180.762 600.723 182.242 603.184 182.242C605.645 182.242 606.875 180.762 606.875 177.801C606.875 174.902 605.645 173.453 603.184 173.453C600.723 173.453 599.492 174.902 599.492 177.801ZM597.324 177.848C597.324 173.746 599.277 171.695 603.184 171.695C607.09 171.695 609.043 173.746 609.043 177.848C609.043 181.941 607.09 183.988 603.184 183.988C599.293 183.988 597.34 181.941 597.324 177.848ZM618.945 180.285C618.945 177.762 620.609 176.5 623.938 176.5C625.008 176.5 626.078 176.578 627.148 176.734V175.574C627.148 174.16 626.043 173.453 623.832 173.453C622.566 173.453 621.27 173.648 619.941 174.039V172.281C621.27 171.891 622.566 171.695 623.832 171.695C627.488 171.695 629.316 172.969 629.316 175.516V184H628.098L627.348 182.781C626.121 183.594 624.785 184 623.34 184C620.41 184 618.945 182.762 618.945 180.285ZM623.938 178.258C622.055 178.258 621.113 178.922 621.113 180.25C621.113 181.578 621.855 182.242 623.34 182.242C624.84 182.242 626.109 181.844 627.148 181.047V178.492C626.078 178.336 625.008 178.258 623.938 178.258ZM635.012 181.492C635.863 181.914 636.812 182.125 637.859 182.125C640.414 182.125 641.691 180.59 641.691 177.52C641.691 174.84 640.422 173.5 637.883 173.5C636.789 173.5 635.832 173.594 635.012 173.781V181.492ZM632.844 172.199C634.477 171.863 636.164 171.695 637.906 171.695C641.852 171.695 643.824 173.645 643.824 177.543C643.824 181.848 641.84 184 637.871 184C636.887 184 635.934 183.805 635.012 183.414V188.453H632.844V172.199ZM646.18 180.285C646.18 177.762 647.844 176.5 651.172 176.5C652.242 176.5 653.312 176.578 654.383 176.734V175.574C654.383 174.16 653.277 173.453 651.066 173.453C649.801 173.453 648.504 173.648 647.176 174.039V172.281C648.504 171.891 649.801 171.695 651.066 171.695C654.723 171.695 656.551 172.969 656.551 175.516V184H655.332L654.582 182.781C653.355 183.594 652.02 184 650.574 184C647.645 184 646.18 182.762 646.18 180.285ZM651.172 178.258C649.289 178.258 648.348 178.922 648.348 180.25C648.348 181.578 649.09 182.242 650.574 182.242C652.074 182.242 653.344 181.844 654.383 181.047V178.492C653.312 178.336 652.242 178.258 651.172 178.258ZM660.078 184V171.695H661.543L661.93 173.266C663.008 172.219 664.305 171.695 665.82 171.695V173.5C664.352 173.5 663.16 174.02 662.246 175.059V184H660.078ZM668 169.703H669.359L669.828 171.695H673.156V173.453H670.168V180.52C670.168 181.668 670.664 182.242 671.656 182.242H673.156V184H671.094C669.031 184 668 182.895 668 180.684V169.703ZM675.336 180.285C675.336 177.762 677 176.5 680.328 176.5C681.398 176.5 682.469 176.578 683.539 176.734V175.574C683.539 174.16 682.434 173.453 680.223 173.453C678.957 173.453 677.66 173.648 676.332 174.039V172.281C677.66 171.891 678.957 171.695 680.223 171.695C683.879 171.695 685.707 172.969 685.707 175.516V184H684.488L683.738 182.781C682.512 183.594 681.176 184 679.73 184C676.801 184 675.336 182.762 675.336 180.285ZM680.328 178.258C678.445 178.258 677.504 178.922 677.504 180.25C677.504 181.578 678.246 182.242 679.73 182.242C681.23 182.242 682.5 181.844 683.539 181.047V178.492C682.469 178.336 681.398 178.258 680.328 178.258ZM689.234 184V171.695H690.699L691.062 173.242C692.242 172.211 693.527 171.695 694.918 171.695C696.699 171.695 697.914 172.258 698.562 173.383C699.898 172.258 701.254 171.695 702.629 171.695C705.457 171.695 706.871 173.254 706.871 176.371V184H704.703V176.254C704.703 174.418 703.93 173.5 702.383 173.5C701.227 173.5 700.145 174.031 699.137 175.094V184H696.969V176.289C696.969 174.43 696.203 173.5 694.672 173.5C693.453 173.5 692.363 174.031 691.402 175.094V184H689.234ZM715.473 171.695C718.973 171.695 720.723 173.426 720.723 176.887C720.723 177.379 720.688 177.906 720.617 178.469H711.98C711.98 180.984 713.449 182.242 716.387 182.242C717.785 182.242 719.027 182.086 720.113 181.773V183.531C719.027 183.844 717.707 184 716.152 184C711.926 184 709.812 181.902 709.812 177.707C709.812 173.699 711.699 171.695 715.473 171.695ZM711.98 176.664H718.637C718.59 174.508 717.535 173.43 715.473 173.43C713.285 173.43 712.121 174.508 711.98 176.664ZM723.641 184V171.695H725.105L725.492 173.266C726.75 172.219 728.133 171.695 729.641 171.695C732.711 171.695 734.246 173.223 734.246 176.277V184H732.078V176.242C732.078 174.414 731.168 173.5 729.348 173.5C728.105 173.5 726.926 174.02 725.809 175.059V184H723.641ZM737.773 169.703H739.133L739.602 171.695H742.93V173.453H739.941V180.52C739.941 181.668 740.438 182.242 741.43 182.242H742.93V184H740.867C738.805 184 737.773 182.895 737.773 180.684V169.703ZM747.277 177.801C747.277 180.762 748.508 182.242 750.969 182.242C753.43 182.242 754.66 180.762 754.66 177.801C754.66 174.902 753.43 173.453 750.969 173.453C748.508 173.453 747.277 174.902 747.277 177.801ZM745.109 177.848C745.109 173.746 747.062 171.695 750.969 171.695C754.875 171.695 756.828 173.746 756.828 177.848C756.828 181.941 754.875 183.988 750.969 183.988C747.078 183.988 745.125 181.941 745.109 177.848ZM148.016 210.648C147 210.883 145.906 211 144.734 211C140.359 211 138.172 208.871 138.172 204.613C138.172 200.668 140.359 198.695 144.734 198.695C145.906 198.695 147 198.812 148.016 199.047V200.805C147 200.57 145.867 200.453 144.617 200.453C141.766 200.453 140.34 201.84 140.34 204.613C140.34 207.699 141.766 209.242 144.617 209.242C145.867 209.242 147 209.125 148.016 208.891V210.648ZM152.363 204.801C152.363 207.762 153.594 209.242 156.055 209.242C158.516 209.242 159.746 207.762 159.746 204.801C159.746 201.902 158.516 200.453 156.055 200.453C153.594 200.453 152.363 201.902 152.363 204.801ZM150.195 204.848C150.195 200.746 152.148 198.695 156.055 198.695C159.961 198.695 161.914 200.746 161.914 204.848C161.914 208.941 159.961 210.988 156.055 210.988C152.164 210.988 150.211 208.941 150.195 204.848ZM164.844 211V198.695H166.309L166.695 200.266C167.953 199.219 169.336 198.695 170.844 198.695C173.914 198.695 175.449 200.223 175.449 203.277V211H173.281V203.242C173.281 201.414 172.371 200.5 170.551 200.5C169.309 200.5 168.129 201.02 167.012 202.059V211H164.844ZM199.789 211V198.695H201.254L201.641 200.266C202.898 199.219 204.281 198.695 205.789 198.695C208.859 198.695 210.395 200.223 210.395 203.277V211H208.227V203.242C208.227 201.414 207.316 200.5 205.496 200.5C204.254 200.5 203.074 201.02 201.957 202.059V211H199.789ZM215.504 204.801C215.504 207.762 216.734 209.242 219.195 209.242C221.656 209.242 222.887 207.762 222.887 204.801C222.887 201.902 221.656 200.453 219.195 200.453C216.734 200.453 215.504 201.902 215.504 204.801ZM213.336 204.848C213.336 200.746 215.289 198.695 219.195 198.695C223.102 198.695 225.055 200.746 225.055 204.848C225.055 208.941 223.102 210.988 219.195 210.988C215.305 210.988 213.352 208.941 213.336 204.848ZM227.867 210.414V208.539C229.312 209.008 230.773 209.242 232.25 209.242C234.211 209.242 235.191 208.656 235.191 207.484C235.191 206.391 234.508 205.844 233.141 205.844H231.383C228.727 205.844 227.398 204.633 227.398 202.211C227.398 199.867 229.105 198.695 232.52 198.695C233.988 198.695 235.445 198.891 236.891 199.281V201.156C235.445 200.688 233.988 200.453 232.52 200.453C230.473 200.453 229.449 201.039 229.449 202.211C229.449 203.305 230.094 203.852 231.383 203.852H233.141C235.953 203.852 237.359 205.062 237.359 207.484C237.359 209.828 235.656 211 232.25 211C230.773 211 229.312 210.805 227.867 210.414ZM241.871 204.801C241.871 207.762 243.102 209.242 245.562 209.242C248.023 209.242 249.254 207.762 249.254 204.801C249.254 201.902 248.023 200.453 245.562 200.453C243.102 200.453 241.871 201.902 241.871 204.801ZM239.703 204.848C239.703 200.746 241.656 198.695 245.562 198.695C249.469 198.695 251.422 200.746 251.422 204.848C251.422 208.941 249.469 210.988 245.562 210.988C241.672 210.988 239.719 208.941 239.703 204.848ZM254.352 196.703H255.711L256.18 198.695H259.508V200.453H256.52V207.52C256.52 208.668 257.016 209.242 258.008 209.242H259.508V211H257.445C255.383 211 254.352 209.895 254.352 207.684V196.703ZM262.273 211V198.695H263.738L264.125 200.266C265.203 199.219 266.5 198.695 268.016 198.695V200.5C266.547 200.5 265.355 201.02 264.441 202.059V211H262.273ZM271.777 204.801C271.777 207.762 273.008 209.242 275.469 209.242C277.93 209.242 279.16 207.762 279.16 204.801C279.16 201.902 277.93 200.453 275.469 200.453C273.008 200.453 271.777 201.902 271.777 204.801ZM269.609 204.848C269.609 200.746 271.562 198.695 275.469 198.695C279.375 198.695 281.328 200.746 281.328 204.848C281.328 208.941 279.375 210.988 275.469 210.988C271.578 210.988 269.625 208.941 269.609 204.848ZM284.141 210.414V208.539C285.586 209.008 287.047 209.242 288.523 209.242C290.484 209.242 291.465 208.656 291.465 207.484C291.465 206.391 290.781 205.844 289.414 205.844H287.656C285 205.844 283.672 204.633 283.672 202.211C283.672 199.867 285.379 198.695 288.793 198.695C290.262 198.695 291.719 198.891 293.164 199.281V201.156C291.719 200.688 290.262 200.453 288.793 200.453C286.746 200.453 285.723 201.039 285.723 202.211C285.723 203.305 286.367 203.852 287.656 203.852H289.414C292.227 203.852 293.633 205.062 293.633 207.484C293.633 209.828 291.93 211 288.523 211C287.047 211 285.586 210.805 284.141 210.414ZM298.145 208.832V211H295.977V208.832H298.145ZM322.133 211V194.242H324.301L334.555 207.742V194.242H336.605V211H334.438L324.184 197.383V211H322.133ZM350.973 198.695V211H349.484L349.109 209.43C347.617 210.477 346.117 211 344.609 211C341.781 211 340.367 209.473 340.367 206.418V198.695H342.535V206.453C342.535 208.281 343.441 209.195 345.254 209.195C346.496 209.195 347.68 208.676 348.805 207.637V198.695H350.973ZM359.574 198.695C363.074 198.695 364.824 200.426 364.824 203.887C364.824 204.379 364.789 204.906 364.719 205.469H356.082C356.082 207.984 357.551 209.242 360.488 209.242C361.887 209.242 363.129 209.086 364.215 208.773V210.531C363.129 210.844 361.809 211 360.254 211C356.027 211 353.914 208.902 353.914 204.707C353.914 200.699 355.801 198.695 359.574 198.695ZM356.082 203.664H362.738C362.691 201.508 361.637 200.43 359.574 200.43C357.387 200.43 356.223 201.508 356.082 203.664ZM367.625 210.414V208.539C369.07 209.008 370.531 209.242 372.008 209.242C373.969 209.242 374.949 208.656 374.949 207.484C374.949 206.391 374.266 205.844 372.898 205.844H371.141C368.484 205.844 367.156 204.633 367.156 202.211C367.156 199.867 368.863 198.695 372.277 198.695C373.746 198.695 375.203 198.891 376.648 199.281V201.156C375.203 200.688 373.746 200.453 372.277 200.453C370.23 200.453 369.207 201.039 369.207 202.211C369.207 203.305 369.852 203.852 371.141 203.852H372.898C375.711 203.852 377.117 205.062 377.117 207.484C377.117 209.828 375.414 211 372.008 211C370.531 211 369.07 210.805 367.625 210.414ZM380.047 196.703H381.406L381.875 198.695H385.203V200.453H382.215V207.52C382.215 208.668 382.711 209.242 383.703 209.242H385.203V211H383.141C381.078 211 380.047 209.895 380.047 207.684V196.703ZM387.969 211V198.695H389.434L389.82 200.266C390.898 199.219 392.195 198.695 393.711 198.695V200.5C392.242 200.5 391.051 201.02 390.137 202.059V211H387.969ZM395.305 207.285C395.305 204.762 396.969 203.5 400.297 203.5C401.367 203.5 402.438 203.578 403.508 203.734V202.574C403.508 201.16 402.402 200.453 400.191 200.453C398.926 200.453 397.629 200.648 396.301 201.039V199.281C397.629 198.891 398.926 198.695 400.191 198.695C403.848 198.695 405.676 199.969 405.676 202.516V211H404.457L403.707 209.781C402.48 210.594 401.145 211 399.699 211C396.77 211 395.305 209.762 395.305 207.285ZM400.297 205.258C398.414 205.258 397.473 205.922 397.473 207.25C397.473 208.578 398.215 209.242 399.699 209.242C401.199 209.242 402.469 208.844 403.508 208.047V205.492C402.438 205.336 401.367 205.258 400.297 205.258ZM432.184 208.492C433.035 208.914 433.984 209.125 435.031 209.125C437.586 209.125 438.863 207.59 438.863 204.52C438.863 201.84 437.594 200.5 435.055 200.5C433.961 200.5 433.004 200.594 432.184 200.781V208.492ZM430.016 199.199C431.648 198.863 433.336 198.695 435.078 198.695C439.023 198.695 440.996 200.645 440.996 204.543C440.996 208.848 439.012 211 435.043 211C434.059 211 433.105 210.805 432.184 210.414V215.453H430.016V199.199ZM446.223 194.242V211H444.055V194.242H446.223ZM449.281 207.285C449.281 204.762 450.945 203.5 454.273 203.5C455.344 203.5 456.414 203.578 457.484 203.734V202.574C457.484 201.16 456.379 200.453 454.168 200.453C452.902 200.453 451.605 200.648 450.277 201.039V199.281C451.605 198.891 452.902 198.695 454.168 198.695C457.824 198.695 459.652 199.969 459.652 202.516V211H458.434L457.684 209.781C456.457 210.594 455.121 211 453.676 211C450.746 211 449.281 209.762 449.281 207.285ZM454.273 205.258C452.391 205.258 451.449 205.922 451.449 207.25C451.449 208.578 452.191 209.242 453.676 209.242C455.176 209.242 456.445 208.844 457.484 208.047V205.492C456.414 205.336 455.344 205.258 454.273 205.258ZM463.18 196.703H464.539L465.008 198.695H468.336V200.453H465.348V207.52C465.348 208.668 465.844 209.242 466.836 209.242H468.336V211H466.273C464.211 211 463.18 209.895 463.18 207.684V196.703ZM470.516 207.285C470.516 204.762 472.18 203.5 475.508 203.5C476.578 203.5 477.648 203.578 478.719 203.734V202.574C478.719 201.16 477.613 200.453 475.402 200.453C474.137 200.453 472.84 200.648 471.512 201.039V199.281C472.84 198.891 474.137 198.695 475.402 198.695C479.059 198.695 480.887 199.969 480.887 202.516V211H479.668L478.918 209.781C477.691 210.594 476.355 211 474.91 211C471.98 211 470.516 209.762 470.516 207.285ZM475.508 205.258C473.625 205.258 472.684 205.922 472.684 207.25C472.684 208.578 473.426 209.242 474.91 209.242C476.41 209.242 477.68 208.844 478.719 208.047V205.492C477.648 205.336 476.578 205.258 475.508 205.258ZM484.414 211V198.098C484.414 195.121 486.102 193.633 489.477 193.633C490.406 193.633 491.281 193.789 492.102 194.102V195.859C491.328 195.547 490.449 195.391 489.465 195.391C487.543 195.391 486.582 196.262 486.582 198.004V198.695H490.391V200.453H486.582V211H484.414ZM494.34 204.801C494.34 207.762 495.57 209.242 498.031 209.242C500.492 209.242 501.723 207.762 501.723 204.801C501.723 201.902 500.492 200.453 498.031 200.453C495.57 200.453 494.34 201.902 494.34 204.801ZM492.172 204.848C492.172 200.746 494.125 198.695 498.031 198.695C501.938 198.695 503.891 200.746 503.891 204.848C503.891 208.941 501.938 210.988 498.031 210.988C494.141 210.988 492.188 208.941 492.172 204.848ZM506.82 211V198.695H508.285L508.672 200.266C509.75 199.219 511.047 198.695 512.562 198.695V200.5C511.094 200.5 509.902 201.02 508.988 202.059V211H506.82ZM514.742 211V198.695H516.207L516.57 200.242C517.75 199.211 519.035 198.695 520.426 198.695C522.207 198.695 523.422 199.258 524.07 200.383C525.406 199.258 526.762 198.695 528.137 198.695C530.965 198.695 532.379 200.254 532.379 203.371V211H530.211V203.254C530.211 201.418 529.438 200.5 527.891 200.5C526.734 200.5 525.652 201.031 524.645 202.094V211H522.477V203.289C522.477 201.43 521.711 200.5 520.18 200.5C518.961 200.5 517.871 201.031 516.91 202.094V211H514.742ZM535.32 207.285C535.32 204.762 536.984 203.5 540.312 203.5C541.383 203.5 542.453 203.578 543.523 203.734V202.574C543.523 201.16 542.418 200.453 540.207 200.453C538.941 200.453 537.645 200.648 536.316 201.039V199.281C537.645 198.891 538.941 198.695 540.207 198.695C543.863 198.695 545.691 199.969 545.691 202.516V211H544.473L543.723 209.781C542.496 210.594 541.16 211 539.715 211C536.785 211 535.32 209.762 535.32 207.285ZM540.312 205.258C538.43 205.258 537.488 205.922 537.488 207.25C537.488 208.578 538.23 209.242 539.715 209.242C541.215 209.242 542.484 208.844 543.523 208.047V205.492C542.453 205.336 541.383 205.258 540.312 205.258ZM570.031 196.703H571.391L571.859 198.695H575.188V200.453H572.199V207.52C572.199 208.668 572.695 209.242 573.688 209.242H575.188V211H573.125C571.062 211 570.031 209.895 570.031 207.684V196.703ZM583.027 198.695C586.527 198.695 588.277 200.426 588.277 203.887C588.277 204.379 588.242 204.906 588.172 205.469H579.535C579.535 207.984 581.004 209.242 583.941 209.242C585.34 209.242 586.582 209.086 587.668 208.773V210.531C586.582 210.844 585.262 211 583.707 211C579.48 211 577.367 208.902 577.367 204.707C577.367 200.699 579.254 198.695 583.027 198.695ZM579.535 203.664H586.191C586.145 201.508 585.09 200.43 583.027 200.43C580.84 200.43 579.676 201.508 579.535 203.664ZM621.266 210.648C620.25 210.883 619.156 211 617.984 211C613.609 211 611.422 208.871 611.422 204.613C611.422 200.668 613.609 198.695 617.984 198.695C619.156 198.695 620.25 198.812 621.266 199.047V200.805C620.25 200.57 619.117 200.453 617.867 200.453C615.016 200.453 613.59 201.84 613.59 204.613C613.59 207.699 615.016 209.242 617.867 209.242C619.117 209.242 620.25 209.125 621.266 208.891V210.648ZM625.613 204.801C625.613 207.762 626.844 209.242 629.305 209.242C631.766 209.242 632.996 207.762 632.996 204.801C632.996 201.902 631.766 200.453 629.305 200.453C626.844 200.453 625.613 201.902 625.613 204.801ZM623.445 204.848C623.445 200.746 625.398 198.695 629.305 198.695C633.211 198.695 635.164 200.746 635.164 204.848C635.164 208.941 633.211 210.988 629.305 210.988C625.414 210.988 623.461 208.941 623.445 204.848ZM638.094 211V198.695H639.559L639.945 200.266C641.203 199.219 642.586 198.695 644.094 198.695C647.164 198.695 648.699 200.223 648.699 203.277V211H646.531V203.242C646.531 201.414 645.621 200.5 643.801 200.5C642.559 200.5 641.379 201.02 640.262 202.059V211H638.094ZM657.301 198.695C660.801 198.695 662.551 200.426 662.551 203.887C662.551 204.379 662.516 204.906 662.445 205.469H653.809C653.809 207.984 655.277 209.242 658.215 209.242C659.613 209.242 660.855 209.086 661.941 208.773V210.531C660.855 210.844 659.535 211 657.98 211C653.754 211 651.641 208.902 651.641 204.707C651.641 200.699 653.527 198.695 657.301 198.695ZM653.809 203.664H660.465C660.418 201.508 659.363 200.43 657.301 200.43C655.113 200.43 653.949 201.508 653.809 203.664ZM674.727 210.648C673.711 210.883 672.617 211 671.445 211C667.07 211 664.883 208.871 664.883 204.613C664.883 200.668 667.07 198.695 671.445 198.695C672.617 198.695 673.711 198.812 674.727 199.047V200.805C673.711 200.57 672.578 200.453 671.328 200.453C668.477 200.453 667.051 201.84 667.051 204.613C667.051 207.699 668.477 209.242 671.328 209.242C672.578 209.242 673.711 209.125 674.727 208.891V210.648ZM677.492 196.703H678.852L679.32 198.695H682.648V200.453H679.66V207.52C679.66 208.668 680.156 209.242 681.148 209.242H682.648V211H680.586C678.523 211 677.492 209.895 677.492 207.684V196.703ZM684.828 207.285C684.828 204.762 686.492 203.5 689.82 203.5C690.891 203.5 691.961 203.578 693.031 203.734V202.574C693.031 201.16 691.926 200.453 689.715 200.453C688.449 200.453 687.152 200.648 685.824 201.039V199.281C687.152 198.891 688.449 198.695 689.715 198.695C693.371 198.695 695.199 199.969 695.199 202.516V211H693.98L693.23 209.781C692.004 210.594 690.668 211 689.223 211C686.293 211 684.828 209.762 684.828 207.285ZM689.82 205.258C687.938 205.258 686.996 205.922 686.996 207.25C686.996 208.578 687.738 209.242 689.223 209.242C690.723 209.242 691.992 208.844 693.031 208.047V205.492C691.961 205.336 690.891 205.258 689.82 205.258ZM728.797 210.648C727.781 210.883 726.688 211 725.516 211C721.141 211 718.953 208.871 718.953 204.613C718.953 200.668 721.141 198.695 725.516 198.695C726.688 198.695 727.781 198.812 728.797 199.047V200.805C727.781 200.57 726.648 200.453 725.398 200.453C722.547 200.453 721.121 201.84 721.121 204.613C721.121 207.699 722.547 209.242 725.398 209.242C726.648 209.242 727.781 209.125 728.797 208.891V210.648ZM733.145 204.801C733.145 207.762 734.375 209.242 736.836 209.242C739.297 209.242 740.527 207.762 740.527 204.801C740.527 201.902 739.297 200.453 736.836 200.453C734.375 200.453 733.145 201.902 733.145 204.801ZM730.977 204.848C730.977 200.746 732.93 198.695 736.836 198.695C740.742 198.695 742.695 200.746 742.695 204.848C742.695 208.941 740.742 210.988 736.836 210.988C732.945 210.988 730.992 208.941 730.977 204.848ZM745.625 211V198.695H747.09L747.477 200.266C748.734 199.219 750.117 198.695 751.625 198.695C754.695 198.695 756.23 200.223 756.23 203.277V211H754.062V203.242C754.062 201.414 753.152 200.5 751.332 200.5C750.09 200.5 748.91 201.02 747.793 202.059V211H745.625ZM141.16 225.695V238H138.992V225.695H141.16ZM141.16 221.242V223.293H138.992V221.242H141.16ZM144.922 238V225.695H146.387L146.773 227.266C148.031 226.219 149.414 225.695 150.922 225.695C153.992 225.695 155.527 227.223 155.527 230.277V238H153.359V230.242C153.359 228.414 152.449 227.5 150.629 227.5C149.387 227.5 148.207 228.02 147.09 229.059V238H144.922ZM167.281 227.781C166.539 227.594 165.621 227.5 164.527 227.5C161.91 227.5 160.602 228.918 160.602 231.754C160.602 234.668 161.84 236.125 164.316 236.125C165.441 236.125 166.43 235.914 167.281 235.492V227.781ZM169.449 242.453H167.281V237.414C166.359 237.805 165.367 238 164.305 238C160.414 238 158.469 235.926 158.469 231.777C158.469 227.723 160.52 225.695 164.621 225.695C166.285 225.695 167.895 225.863 169.449 226.199V242.453ZM183.582 225.695V238H182.094L181.719 236.43C180.227 237.477 178.727 238 177.219 238C174.391 238 172.977 236.473 172.977 233.418V225.695H175.145V233.453C175.145 235.281 176.051 236.195 177.863 236.195C179.105 236.195 180.289 235.676 181.414 234.637V225.695H183.582ZM189.512 225.695V238H187.344V225.695H189.512ZM189.512 221.242V223.293H187.344V221.242H189.512ZM195.559 221.242V238H193.391V221.242H195.559ZM201.605 225.695V238H199.438V225.695H201.605ZM201.605 221.242V223.293H199.438V221.242H201.605ZM205.367 238V225.695H206.832L207.219 227.266C208.477 226.219 209.859 225.695 211.367 225.695C214.438 225.695 215.973 227.223 215.973 230.277V238H213.805V230.242C213.805 228.414 212.895 227.5 211.074 227.5C209.832 227.5 208.652 228.02 207.535 229.059V238H205.367ZM221.082 231.801C221.082 234.762 222.312 236.242 224.773 236.242C227.234 236.242 228.465 234.762 228.465 231.801C228.465 228.902 227.234 227.453 224.773 227.453C222.312 227.453 221.082 228.902 221.082 231.801ZM218.914 231.848C218.914 227.746 220.867 225.695 224.773 225.695C228.68 225.695 230.633 227.746 230.633 231.848C230.633 235.941 228.68 237.988 224.773 237.988C220.883 237.988 218.93 235.941 218.914 231.848ZM233.445 237.414V235.539C234.891 236.008 236.352 236.242 237.828 236.242C239.789 236.242 240.77 235.656 240.77 234.484C240.77 233.391 240.086 232.844 238.719 232.844H236.961C234.305 232.844 232.977 231.633 232.977 229.211C232.977 226.867 234.684 225.695 238.098 225.695C239.566 225.695 241.023 225.891 242.469 226.281V228.156C241.023 227.688 239.566 227.453 238.098 227.453C236.051 227.453 235.027 228.039 235.027 229.211C235.027 230.305 235.672 230.852 236.961 230.852H238.719C241.531 230.852 242.938 232.062 242.938 234.484C242.938 236.828 241.234 238 237.828 238C236.352 238 234.891 237.805 233.445 237.414ZM262.265 237.648C261.249 237.883 260.155 238 258.983 238C254.608 238 252.421 235.871 252.421 231.613C252.421 227.668 254.608 225.695 258.983 225.695C260.155 225.695 261.249 225.812 262.265 226.047V227.805C261.249 227.57 260.116 227.453 258.866 227.453C256.015 227.453 254.589 228.84 254.589 231.613C254.589 234.699 256.015 236.242 258.866 236.242C260.116 236.242 261.249 236.125 262.265 235.891V237.648ZM266.612 231.801C266.612 234.762 267.843 236.242 270.304 236.242C272.765 236.242 273.995 234.762 273.995 231.801C273.995 228.902 272.765 227.453 270.304 227.453C267.843 227.453 266.612 228.902 266.612 231.801ZM264.444 231.848C264.444 227.746 266.397 225.695 270.304 225.695C274.21 225.695 276.163 227.746 276.163 231.848C276.163 235.941 274.21 237.988 270.304 237.988C266.413 237.988 264.46 235.941 264.444 231.848ZM279.093 238V225.695H280.558L280.944 227.266C282.202 226.219 283.585 225.695 285.093 225.695C288.163 225.695 289.698 227.223 289.698 230.277V238H287.53V230.242C287.53 228.414 286.62 227.5 284.8 227.5C283.558 227.5 282.378 228.02 281.261 229.059V238H279.093ZM295.394 227.453V238H293.226V225.098C293.226 221.965 294.952 220.398 298.405 220.398C299.491 220.398 300.64 220.633 301.851 221.102V222.859C300.687 222.391 299.534 222.156 298.394 222.156C296.394 222.156 295.394 223.066 295.394 224.887V225.695H302.729V238H300.562V227.453H295.394ZM305.905 234.285C305.905 231.762 307.569 230.5 310.897 230.5C311.968 230.5 313.038 230.578 314.108 230.734V229.574C314.108 228.16 313.003 227.453 310.792 227.453C309.526 227.453 308.229 227.648 306.901 228.039V226.281C308.229 225.891 309.526 225.695 310.792 225.695C314.448 225.695 316.276 226.969 316.276 229.516V238H315.058L314.308 236.781C313.081 237.594 311.745 238 310.3 238C307.37 238 305.905 236.762 305.905 234.285ZM310.897 232.258C309.015 232.258 308.073 232.922 308.073 234.25C308.073 235.578 308.815 236.242 310.3 236.242C311.8 236.242 313.069 235.844 314.108 235.047V232.492C313.038 232.336 311.968 232.258 310.897 232.258ZM321.972 235.855C322.683 236.082 323.546 236.195 324.562 236.195C327.296 236.195 328.663 234.637 328.663 231.52C328.663 228.887 327.425 227.57 324.948 227.57C323.823 227.57 322.831 227.781 321.972 228.203V235.855ZM319.804 221.242H321.972V226.281C322.901 225.891 323.897 225.695 324.96 225.695C328.851 225.695 330.796 227.664 330.796 231.602C330.796 235.867 328.753 238 324.667 238C322.901 238 321.28 237.832 319.804 237.496V221.242ZM336.011 221.242V238H333.843V221.242H336.011ZM344.729 225.695C348.229 225.695 349.979 227.426 349.979 230.887C349.979 231.379 349.944 231.906 349.874 232.469H341.237C341.237 234.984 342.706 236.242 345.644 236.242C347.042 236.242 348.284 236.086 349.37 235.773V237.531C348.284 237.844 346.964 238 345.409 238C341.183 238 339.069 235.902 339.069 231.707C339.069 227.699 340.956 225.695 344.729 225.695ZM341.237 230.664H347.894C347.847 228.508 346.792 227.43 344.729 227.43C342.542 227.43 341.378 228.508 341.237 230.664ZM352.78 237.414V235.539C354.226 236.008 355.687 236.242 357.163 236.242C359.124 236.242 360.104 235.656 360.104 234.484C360.104 233.391 359.421 232.844 358.054 232.844H356.296C353.64 232.844 352.312 231.633 352.312 229.211C352.312 226.867 354.019 225.695 357.433 225.695C358.901 225.695 360.358 225.891 361.804 226.281V228.156C360.358 227.688 358.901 227.453 357.433 227.453C355.386 227.453 354.362 228.039 354.362 229.211C354.362 230.305 355.007 230.852 356.296 230.852H358.054C360.866 230.852 362.272 232.062 362.272 234.484C362.272 236.828 360.569 238 357.163 238C355.687 238 354.226 237.805 352.78 237.414ZM370.877 225.695H373.232L376.713 235.305L380.311 225.695H382.607L377.498 238.363C376.592 240.598 375.232 241.992 373.42 242.547L372.588 241.012C373.963 240.41 374.963 239.43 375.588 238.07L370.877 225.695ZM391.786 223.703H393.146L393.614 225.695H396.942V227.453H393.954V234.52C393.954 235.668 394.45 236.242 395.442 236.242H396.942V238H394.88C392.817 238 391.786 236.895 391.786 234.684V223.703ZM404.782 225.695C408.282 225.695 410.032 227.426 410.032 230.887C410.032 231.379 409.997 231.906 409.927 232.469H401.29C401.29 234.984 402.759 236.242 405.696 236.242C407.095 236.242 408.337 236.086 409.423 235.773V237.531C408.337 237.844 407.017 238 405.462 238C401.235 238 399.122 235.902 399.122 231.707C399.122 227.699 401.009 225.695 404.782 225.695ZM401.29 230.664H407.946C407.899 228.508 406.845 227.43 404.782 227.43C402.595 227.43 401.431 228.508 401.29 230.664ZM422.258 235.855C422.969 236.082 423.832 236.195 424.848 236.195C427.582 236.195 428.949 234.637 428.949 231.52C428.949 228.887 427.711 227.57 425.234 227.57C424.109 227.57 423.117 227.781 422.258 228.203V235.855ZM420.09 221.242H422.258V226.281C423.188 225.891 424.184 225.695 425.246 225.695C429.137 225.695 431.082 227.664 431.082 231.602C431.082 235.867 429.039 238 424.953 238C423.188 238 421.566 237.832 420.09 237.496V221.242ZM434.012 238V225.695H435.477L435.863 227.266C436.941 226.219 438.238 225.695 439.754 225.695V227.5C438.285 227.5 437.094 228.02 436.18 229.059V238H434.012ZM444.336 225.695V238H442.168V225.695H444.336ZM444.336 221.242V223.293H442.168V221.242H444.336ZM448.098 238V225.695H449.562L449.949 227.266C451.207 226.219 452.59 225.695 454.098 225.695C457.168 225.695 458.703 227.223 458.703 230.277V238H456.535V230.242C456.535 228.414 455.625 227.5 453.805 227.5C452.562 227.5 451.383 228.02 450.266 229.059V238H448.098ZM470.492 228.203C469.617 227.781 468.617 227.57 467.492 227.57C465.016 227.57 463.777 228.887 463.777 231.52C463.777 234.637 465.016 236.195 467.492 236.195C468.617 236.195 469.617 236.043 470.492 235.738V228.203ZM472.66 237.262C471.168 237.754 469.328 238 467.141 238C463.477 238 461.645 235.867 461.645 231.602C461.645 227.664 463.59 225.695 467.48 225.695C468.543 225.695 469.547 225.891 470.492 226.281V221.242H472.66V237.262ZM475.59 234.285C475.59 231.762 477.254 230.5 480.582 230.5C481.652 230.5 482.723 230.578 483.793 230.734V229.574C483.793 228.16 482.688 227.453 480.477 227.453C479.211 227.453 477.914 227.648 476.586 228.039V226.281C477.914 225.891 479.211 225.695 480.477 225.695C484.133 225.695 485.961 226.969 485.961 229.516V238H484.742L483.992 236.781C482.766 237.594 481.43 238 479.984 238C477.055 238 475.59 236.762 475.59 234.285ZM480.582 232.258C478.699 232.258 477.758 232.922 477.758 234.25C477.758 235.578 478.5 236.242 479.984 236.242C481.484 236.242 482.754 235.844 483.793 235.047V232.492C482.723 232.336 481.652 232.258 480.582 232.258ZM501.702 225.695C505.202 225.695 506.952 227.426 506.952 230.887C506.952 231.379 506.917 231.906 506.847 232.469H498.21C498.21 234.984 499.679 236.242 502.616 236.242C504.015 236.242 505.257 236.086 506.343 235.773V237.531C505.257 237.844 503.937 238 502.382 238C498.155 238 496.042 235.902 496.042 231.707C496.042 227.699 497.929 225.695 501.702 225.695ZM498.21 230.664H504.866C504.819 228.508 503.765 227.43 501.702 227.43C499.515 227.43 498.351 228.508 498.21 230.664ZM512.155 221.242V238H509.987V221.242H512.155ZM522.354 234.285C522.354 231.762 524.018 230.5 527.346 230.5C528.416 230.5 529.486 230.578 530.557 230.734V229.574C530.557 228.16 529.451 227.453 527.24 227.453C525.975 227.453 524.678 227.648 523.35 228.039V226.281C524.678 225.891 525.975 225.695 527.24 225.695C530.896 225.695 532.725 226.969 532.725 229.516V238H531.506L530.756 236.781C529.529 237.594 528.193 238 526.748 238C523.818 238 522.354 236.762 522.354 234.285ZM527.346 232.258C525.463 232.258 524.521 232.922 524.521 234.25C524.521 235.578 525.264 236.242 526.748 236.242C528.248 236.242 529.518 235.844 530.557 235.047V232.492C529.486 232.336 528.416 232.258 527.346 232.258ZM538.42 235.492C539.271 235.914 540.221 236.125 541.268 236.125C543.822 236.125 545.1 234.59 545.1 231.52C545.1 228.84 543.83 227.5 541.291 227.5C540.197 227.5 539.24 227.594 538.42 227.781V235.492ZM536.252 226.199C537.885 225.863 539.572 225.695 541.314 225.695C545.26 225.695 547.232 227.645 547.232 231.543C547.232 235.848 545.248 238 541.279 238C540.295 238 539.342 237.805 538.42 237.414V242.453H536.252V226.199ZM551.756 231.801C551.756 234.762 552.986 236.242 555.447 236.242C557.908 236.242 559.139 234.762 559.139 231.801C559.139 228.902 557.908 227.453 555.447 227.453C552.986 227.453 551.756 228.902 551.756 231.801ZM549.588 231.848C549.588 227.746 551.541 225.695 555.447 225.695C559.354 225.695 561.307 227.746 561.307 231.848C561.307 235.941 559.354 237.988 555.447 237.988C551.557 237.988 549.604 235.941 549.588 231.848ZM562.771 225.695H565.127L568.607 235.305L572.205 225.695H574.502L569.393 238.363C568.486 240.598 567.127 241.992 565.314 242.547L564.482 241.012C565.857 240.41 566.857 239.43 567.482 238.07L562.771 225.695ZM578.123 231.801C578.123 234.762 579.354 236.242 581.814 236.242C584.275 236.242 585.506 234.762 585.506 231.801C585.506 228.902 584.275 227.453 581.814 227.453C579.354 227.453 578.123 228.902 578.123 231.801ZM575.955 231.848C575.955 227.746 577.908 225.695 581.814 225.695C585.721 225.695 587.674 227.746 587.674 231.848C587.674 235.941 585.721 237.988 581.814 237.988C577.924 237.988 575.971 235.941 575.955 231.848ZM597.743 238V225.695H599.208L599.595 227.266C600.853 226.219 602.235 225.695 603.743 225.695C606.813 225.695 608.349 227.223 608.349 230.277V238H606.181V230.242C606.181 228.414 605.271 227.5 603.45 227.5C602.208 227.5 601.028 228.02 599.911 229.059V238H597.743ZM616.95 225.695C620.45 225.695 622.2 227.426 622.2 230.887C622.2 231.379 622.165 231.906 622.095 232.469H613.458C613.458 234.984 614.927 236.242 617.864 236.242C619.263 236.242 620.505 236.086 621.591 235.773V237.531C620.505 237.844 619.185 238 617.63 238C613.403 238 611.29 235.902 611.29 231.707C611.29 227.699 613.177 225.695 616.95 225.695ZM613.458 230.664H620.114C620.067 228.508 619.013 227.43 616.95 227.43C614.763 227.43 613.599 228.508 613.458 230.664ZM634.376 237.648C633.36 237.883 632.267 238 631.095 238C626.72 238 624.532 235.871 624.532 231.613C624.532 227.668 626.72 225.695 631.095 225.695C632.267 225.695 633.36 225.812 634.376 226.047V227.805C633.36 227.57 632.228 227.453 630.978 227.453C628.126 227.453 626.7 228.84 626.7 231.613C626.7 234.699 628.126 236.242 630.978 236.242C632.228 236.242 633.36 236.125 634.376 235.891V237.648ZM642.216 225.695C645.716 225.695 647.466 227.426 647.466 230.887C647.466 231.379 647.431 231.906 647.36 232.469H638.724C638.724 234.984 640.192 236.242 643.13 236.242C644.528 236.242 645.771 236.086 646.856 235.773V237.531C645.771 237.844 644.45 238 642.896 238C638.669 238 636.556 235.902 636.556 231.707C636.556 227.699 638.442 225.695 642.216 225.695ZM638.724 230.664H645.38C645.333 228.508 644.278 227.43 642.216 227.43C640.028 227.43 638.864 228.508 638.724 230.664ZM650.267 237.414V235.539C651.712 236.008 653.173 236.242 654.649 236.242C656.61 236.242 657.591 235.656 657.591 234.484C657.591 233.391 656.907 232.844 655.54 232.844H653.782C651.126 232.844 649.798 231.633 649.798 229.211C649.798 226.867 651.505 225.695 654.919 225.695C656.388 225.695 657.845 225.891 659.29 226.281V228.156C657.845 227.688 656.388 227.453 654.919 227.453C652.872 227.453 651.849 228.039 651.849 229.211C651.849 230.305 652.493 230.852 653.782 230.852H655.54C658.353 230.852 659.759 232.062 659.759 234.484C659.759 236.828 658.056 238 654.649 238C653.173 238 651.712 237.805 650.267 237.414ZM662.103 234.285C662.103 231.762 663.767 230.5 667.095 230.5C668.165 230.5 669.235 230.578 670.306 230.734V229.574C670.306 228.16 669.2 227.453 666.989 227.453C665.724 227.453 664.427 227.648 663.099 228.039V226.281C664.427 225.891 665.724 225.695 666.989 225.695C670.646 225.695 672.474 226.969 672.474 229.516V238H671.255L670.505 236.781C669.278 237.594 667.942 238 666.497 238C663.567 238 662.103 236.762 662.103 234.285ZM667.095 232.258C665.212 232.258 664.271 232.922 664.271 234.25C664.271 235.578 665.013 236.242 666.497 236.242C667.997 236.242 669.267 235.844 670.306 235.047V232.492C669.235 232.336 668.165 232.258 667.095 232.258ZM676.001 238V225.695H677.466L677.853 227.266C678.931 226.219 680.228 225.695 681.743 225.695V227.5C680.274 227.5 679.083 228.02 678.169 229.059V238H676.001ZM686.325 225.695V238H684.157V225.695H686.325ZM686.325 221.242V223.293H684.157V221.242H686.325ZM691.669 231.801C691.669 234.762 692.899 236.242 695.36 236.242C697.821 236.242 699.052 234.762 699.052 231.801C699.052 228.902 697.821 227.453 695.36 227.453C692.899 227.453 691.669 228.902 691.669 231.801ZM689.501 231.848C689.501 227.746 691.454 225.695 695.36 225.695C699.267 225.695 701.22 227.746 701.22 231.848C701.22 235.941 699.267 237.988 695.36 237.988C691.47 237.988 689.517 235.941 689.501 231.848ZM713.457 235.492C714.309 235.914 715.258 236.125 716.305 236.125C718.859 236.125 720.137 234.59 720.137 231.52C720.137 228.84 718.867 227.5 716.328 227.5C715.234 227.5 714.277 227.594 713.457 227.781V235.492ZM711.289 226.199C712.922 225.863 714.609 225.695 716.352 225.695C720.297 225.695 722.27 227.645 722.27 231.543C722.27 235.848 720.285 238 716.316 238C715.332 238 714.379 237.805 713.457 237.414V242.453H711.289V226.199ZM724.625 234.285C724.625 231.762 726.289 230.5 729.617 230.5C730.688 230.5 731.758 230.578 732.828 230.734V229.574C732.828 228.16 731.723 227.453 729.512 227.453C728.246 227.453 726.949 227.648 725.621 228.039V226.281C726.949 225.891 728.246 225.695 729.512 225.695C733.168 225.695 734.996 226.969 734.996 229.516V238H733.777L733.027 236.781C731.801 237.594 730.465 238 729.02 238C726.09 238 724.625 236.762 724.625 234.285ZM729.617 232.258C727.734 232.258 726.793 232.922 726.793 234.25C726.793 235.578 727.535 236.242 729.02 236.242C730.52 236.242 731.789 235.844 732.828 235.047V232.492C731.758 232.336 730.688 232.258 729.617 232.258ZM738.523 238V225.695H739.988L740.375 227.266C741.453 226.219 742.75 225.695 744.266 225.695V227.5C742.797 227.5 741.605 228.02 740.691 229.059V238H738.523ZM745.859 234.285C745.859 231.762 747.523 230.5 750.852 230.5C751.922 230.5 752.992 230.578 754.062 230.734V229.574C754.062 228.16 752.957 227.453 750.746 227.453C749.48 227.453 748.184 227.648 746.855 228.039V226.281C748.184 225.891 749.48 225.695 750.746 225.695C754.402 225.695 756.23 226.969 756.23 229.516V238H755.012L754.262 236.781C753.035 237.594 751.699 238 750.254 238C747.324 238 745.859 236.762 745.859 234.285ZM750.852 232.258C748.969 232.258 748.027 232.922 748.027 234.25C748.027 235.578 748.77 236.242 750.254 236.242C751.754 236.242 753.023 235.844 754.062 235.047V232.492C752.992 232.336 751.922 232.258 750.852 232.258ZM140.34 258.801C140.34 261.762 141.57 263.242 144.031 263.242C146.492 263.242 147.723 261.762 147.723 258.801C147.723 255.902 146.492 254.453 144.031 254.453C141.57 254.453 140.34 255.902 140.34 258.801ZM138.172 258.848C138.172 254.746 140.125 252.695 144.031 252.695C147.938 252.695 149.891 254.746 149.891 258.848C149.891 262.941 147.938 264.988 144.031 264.988C140.141 264.988 138.188 262.941 138.172 258.848ZM154.988 262.855C155.699 263.082 156.562 263.195 157.578 263.195C160.312 263.195 161.68 261.637 161.68 258.52C161.68 255.887 160.441 254.57 157.965 254.57C156.84 254.57 155.848 254.781 154.988 255.203V262.855ZM152.82 248.242H154.988V253.281C155.918 252.891 156.914 252.695 157.977 252.695C161.867 252.695 163.812 254.664 163.812 258.602C163.812 262.867 161.77 265 157.684 265C155.918 265 154.297 264.832 152.82 264.496V248.242ZM166.742 250.703H168.102L168.57 252.695H171.898V254.453H168.91V261.52C168.91 262.668 169.406 263.242 170.398 263.242H171.898V265H169.836C167.773 265 166.742 263.895 166.742 261.684V250.703ZM179.738 252.695C183.238 252.695 184.988 254.426 184.988 257.887C184.988 258.379 184.953 258.906 184.883 259.469H176.246C176.246 261.984 177.715 263.242 180.652 263.242C182.051 263.242 183.293 263.086 184.379 262.773V264.531C183.293 264.844 181.973 265 180.418 265C176.191 265 174.078 262.902 174.078 258.707C174.078 254.699 175.965 252.695 179.738 252.695ZM176.246 257.664H182.902C182.855 255.508 181.801 254.43 179.738 254.43C177.551 254.43 176.387 255.508 176.246 257.664ZM187.906 265V252.695H189.371L189.758 254.266C191.016 253.219 192.398 252.695 193.906 252.695C196.977 252.695 198.512 254.223 198.512 257.277V265H196.344V257.242C196.344 255.414 195.434 254.5 193.613 254.5C192.371 254.5 191.191 255.02 190.074 256.059V265H187.906ZM207.113 252.695C210.613 252.695 212.363 254.426 212.363 257.887C212.363 258.379 212.328 258.906 212.258 259.469H203.621C203.621 261.984 205.09 263.242 208.027 263.242C209.426 263.242 210.668 263.086 211.754 262.773V264.531C210.668 264.844 209.348 265 207.793 265C203.566 265 201.453 262.902 201.453 258.707C201.453 254.699 203.34 252.695 207.113 252.695ZM203.621 257.664H210.277C210.23 255.508 209.176 254.43 207.113 254.43C204.926 254.43 203.762 255.508 203.621 257.664ZM215.281 265V252.695H216.746L217.133 254.266C218.211 253.219 219.508 252.695 221.023 252.695V254.5C219.555 254.5 218.363 255.02 217.449 256.059V265H215.281ZM234.137 252.695C237.637 252.695 239.387 254.426 239.387 257.887C239.387 258.379 239.352 258.906 239.281 259.469H230.645C230.645 261.984 232.113 263.242 235.051 263.242C236.449 263.242 237.691 263.086 238.777 262.773V264.531C237.691 264.844 236.371 265 234.816 265C230.59 265 228.477 262.902 228.477 258.707C228.477 254.699 230.363 252.695 234.137 252.695ZM230.645 257.664H237.301C237.254 255.508 236.199 254.43 234.137 254.43C231.949 254.43 230.785 255.508 230.645 257.664ZM244.59 248.242V265H242.422V248.242H244.59ZM254.094 265V252.695H255.559L255.922 254.242C257.102 253.211 258.387 252.695 259.777 252.695C261.559 252.695 262.773 253.258 263.422 254.383C264.758 253.258 266.113 252.695 267.488 252.695C270.316 252.695 271.73 254.254 271.73 257.371V265H269.562V257.254C269.562 255.418 268.789 254.5 267.242 254.5C266.086 254.5 265.004 255.031 263.996 256.094V265H261.828V257.289C261.828 255.43 261.062 254.5 259.531 254.5C258.312 254.5 257.223 255.031 256.262 256.094V265H254.094ZM274.672 261.285C274.672 258.762 276.336 257.5 279.664 257.5C280.734 257.5 281.805 257.578 282.875 257.734V256.574C282.875 255.16 281.77 254.453 279.559 254.453C278.293 254.453 276.996 254.648 275.668 255.039V253.281C276.996 252.891 278.293 252.695 279.559 252.695C283.215 252.695 285.043 253.969 285.043 256.516V265H283.824L283.074 263.781C281.848 264.594 280.512 265 279.066 265C276.137 265 274.672 263.762 274.672 261.285ZM279.664 259.258C277.781 259.258 276.84 259.922 276.84 261.25C276.84 262.578 277.582 263.242 279.066 263.242C280.566 263.242 281.836 262.844 282.875 262.047V259.492C281.805 259.336 280.734 259.258 279.664 259.258ZM280.203 248.242H283.004L280.203 251.043H278.281L280.203 248.242ZM291.711 258.848L287.105 252.695H289.625L292.965 257.16L296.305 252.695H298.824L294.23 258.848L298.824 265H296.305L292.965 260.535L289.625 265H287.105L291.711 258.848ZM303.277 252.695V265H301.109V252.695H303.277ZM303.277 248.242V250.293H301.109V248.242H303.277ZM307.039 265V252.695H308.504L308.867 254.242C310.047 253.211 311.332 252.695 312.723 252.695C314.504 252.695 315.719 253.258 316.367 254.383C317.703 253.258 319.059 252.695 320.434 252.695C323.262 252.695 324.676 254.254 324.676 257.371V265H322.508V257.254C322.508 255.418 321.734 254.5 320.188 254.5C319.031 254.5 317.949 255.031 316.941 256.094V265H314.773V257.289C314.773 255.43 314.008 254.5 312.477 254.5C311.258 254.5 310.168 255.031 309.207 256.094V265H307.039ZM329.785 258.801C329.785 261.762 331.016 263.242 333.477 263.242C335.938 263.242 337.168 261.762 337.168 258.801C337.168 255.902 335.938 254.453 333.477 254.453C331.016 254.453 329.785 255.902 329.785 258.801ZM327.617 258.848C327.617 254.746 329.57 252.695 333.477 252.695C337.383 252.695 339.336 254.746 339.336 258.848C339.336 262.941 337.383 264.988 333.477 264.988C329.586 264.988 327.633 262.941 327.617 258.848ZM350.293 262.492C351.145 262.914 352.094 263.125 353.141 263.125C355.695 263.125 356.973 261.59 356.973 258.52C356.973 255.84 355.703 254.5 353.164 254.5C352.07 254.5 351.113 254.594 350.293 254.781V262.492ZM348.125 253.199C349.758 252.863 351.445 252.695 353.188 252.695C357.133 252.695 359.105 254.645 359.105 258.543C359.105 262.848 357.121 265 353.152 265C352.168 265 351.215 264.805 350.293 264.414V269.453H348.125V253.199ZM362.047 265V252.695H363.512L363.898 254.266C364.977 253.219 366.273 252.695 367.789 252.695V254.5C366.32 254.5 365.129 255.02 364.215 256.059V265H362.047ZM371.551 258.801C371.551 261.762 372.781 263.242 375.242 263.242C377.703 263.242 378.934 261.762 378.934 258.801C378.934 255.902 377.703 254.453 375.242 254.453C372.781 254.453 371.551 255.902 371.551 258.801ZM369.383 258.848C369.383 254.746 371.336 252.695 375.242 252.695C379.148 252.695 381.102 254.746 381.102 258.848C381.102 262.941 379.148 264.988 375.242 264.988C371.352 264.988 369.398 262.941 369.383 258.848ZM382.273 252.695H384.617L388.145 262.34L391.648 252.695H393.992L388.988 265H386.973L382.273 252.695ZM400.824 252.695C404.324 252.695 406.074 254.426 406.074 257.887C406.074 258.379 406.039 258.906 405.969 259.469H397.332C397.332 261.984 398.801 263.242 401.738 263.242C403.137 263.242 404.379 263.086 405.465 262.773V264.531C404.379 264.844 403.059 265 401.504 265C397.277 265 395.164 262.902 395.164 258.707C395.164 254.699 397.051 252.695 400.824 252.695ZM397.332 257.664H403.988C403.941 255.508 402.887 254.43 400.824 254.43C398.637 254.43 397.473 255.508 397.332 257.664ZM418.25 264.648C417.234 264.883 416.141 265 414.969 265C410.594 265 408.406 262.871 408.406 258.613C408.406 254.668 410.594 252.695 414.969 252.695C416.141 252.695 417.234 252.812 418.25 253.047V254.805C417.234 254.57 416.102 254.453 414.852 254.453C412 254.453 410.574 255.84 410.574 258.613C410.574 261.699 412 263.242 414.852 263.242C416.102 263.242 417.234 263.125 418.25 262.891V264.648ZM421.016 265V248.242H423.184V254.031C424.23 253.141 425.508 252.695 427.016 252.695C430.086 252.695 431.621 254.223 431.621 257.277V265H429.453V257.242C429.453 255.414 428.543 254.5 426.723 254.5C425.48 254.5 424.301 255.02 423.184 256.059V265H421.016ZM436.73 258.801C436.73 261.762 437.961 263.242 440.422 263.242C442.883 263.242 444.113 261.762 444.113 258.801C444.113 255.902 442.883 254.453 440.422 254.453C437.961 254.453 436.73 255.902 436.73 258.801ZM434.562 258.848C434.562 254.746 436.516 252.695 440.422 252.695C444.328 252.695 446.281 254.746 446.281 258.848C446.281 262.941 444.328 264.988 440.422 264.988C436.531 264.988 434.578 262.941 434.562 258.848ZM463.332 255.203C462.457 254.781 461.457 254.57 460.332 254.57C457.855 254.57 456.617 255.887 456.617 258.52C456.617 261.637 457.855 263.195 460.332 263.195C461.457 263.195 462.457 263.043 463.332 262.738V255.203ZM465.5 264.262C464.008 264.754 462.168 265 459.98 265C456.316 265 454.484 262.867 454.484 258.602C454.484 254.664 456.43 252.695 460.32 252.695C461.383 252.695 462.387 252.891 463.332 253.281V248.242H465.5V264.262ZM474.09 252.695C477.59 252.695 479.34 254.426 479.34 257.887C479.34 258.379 479.305 258.906 479.234 259.469H470.598C470.598 261.984 472.066 263.242 475.004 263.242C476.402 263.242 477.645 263.086 478.73 262.773V264.531C477.645 264.844 476.324 265 474.77 265C470.543 265 468.43 262.902 468.43 258.707C468.43 254.699 470.316 252.695 474.09 252.695ZM470.598 257.664H477.254C477.207 255.508 476.152 254.43 474.09 254.43C471.902 254.43 470.738 255.508 470.598 257.664ZM488.117 250.703H489.477L489.945 252.695H493.273V254.453H490.285V261.52C490.285 262.668 490.781 263.242 491.773 263.242H493.273V265H491.211C489.148 265 488.117 263.895 488.117 261.684V250.703ZM506.645 252.695V265H505.156L504.781 263.43C503.289 264.477 501.789 265 500.281 265C497.453 265 496.039 263.473 496.039 260.418V252.695H498.207V260.453C498.207 262.281 499.113 263.195 500.926 263.195C502.168 263.195 503.352 262.676 504.477 261.637V252.695H506.645ZM518.199 262.492C519.051 262.914 520 263.125 521.047 263.125C523.602 263.125 524.879 261.59 524.879 258.52C524.879 255.84 523.609 254.5 521.07 254.5C519.977 254.5 519.02 254.594 518.199 254.781V262.492ZM516.031 253.199C517.664 252.863 519.352 252.695 521.094 252.695C525.039 252.695 527.012 254.645 527.012 258.543C527.012 262.848 525.027 265 521.059 265C520.074 265 519.121 264.805 518.199 264.414V269.453H516.031V253.199ZM529.953 265V252.695H531.418L531.805 254.266C532.883 253.219 534.18 252.695 535.695 252.695V254.5C534.227 254.5 533.035 255.02 532.121 256.059V265H529.953ZM539.457 258.801C539.457 261.762 540.688 263.242 543.148 263.242C545.609 263.242 546.84 261.762 546.84 258.801C546.84 255.902 545.609 254.453 543.148 254.453C540.688 254.453 539.457 255.902 539.457 258.801ZM537.289 258.848C537.289 254.746 539.242 252.695 543.148 252.695C547.055 252.695 549.008 254.746 549.008 258.848C549.008 262.941 547.055 264.988 543.148 264.988C539.258 264.988 537.305 262.941 537.289 258.848ZM554.105 262.492C554.957 262.914 555.906 263.125 556.953 263.125C559.508 263.125 560.785 261.59 560.785 258.52C560.785 255.84 559.516 254.5 556.977 254.5C555.883 254.5 554.926 254.594 554.105 254.781V262.492ZM551.938 253.199C553.57 252.863 555.258 252.695 557 252.695C560.945 252.695 562.918 254.645 562.918 258.543C562.918 262.848 560.934 265 556.965 265C555.98 265 555.027 264.805 554.105 264.414V269.453H551.938V253.199ZM568.262 252.695V265H566.094V252.695H568.262ZM568.262 248.242V250.293H566.094V248.242H568.262ZM577.098 252.695C580.598 252.695 582.348 254.426 582.348 257.887C582.348 258.379 582.312 258.906 582.242 259.469H573.605C573.605 261.984 575.074 263.242 578.012 263.242C579.41 263.242 580.652 263.086 581.738 262.773V264.531C580.652 264.844 579.332 265 577.777 265C573.551 265 571.438 262.902 571.438 258.707C571.438 254.699 573.324 252.695 577.098 252.695ZM573.605 257.664H580.262C580.215 255.508 579.16 254.43 577.098 254.43C574.91 254.43 573.746 255.508 573.605 257.664ZM593.527 255.203C592.652 254.781 591.652 254.57 590.527 254.57C588.051 254.57 586.812 255.887 586.812 258.52C586.812 261.637 588.051 263.195 590.527 263.195C591.652 263.195 592.652 263.043 593.527 262.738V255.203ZM595.695 264.262C594.203 264.754 592.363 265 590.176 265C586.512 265 584.68 262.867 584.68 258.602C584.68 254.664 586.625 252.695 590.516 252.695C591.578 252.695 592.582 252.891 593.527 253.281V248.242H595.695V264.262ZM598.625 261.285C598.625 258.762 600.289 257.5 603.617 257.5C604.688 257.5 605.758 257.578 606.828 257.734V256.574C606.828 255.16 605.723 254.453 603.512 254.453C602.246 254.453 600.949 254.648 599.621 255.039V253.281C600.949 252.891 602.246 252.695 603.512 252.695C607.168 252.695 608.996 253.969 608.996 256.516V265H607.777L607.027 263.781C605.801 264.594 604.465 265 603.02 265C600.09 265 598.625 263.762 598.625 261.285ZM603.617 259.258C601.734 259.258 600.793 259.922 600.793 261.25C600.793 262.578 601.535 263.242 603.02 263.242C604.52 263.242 605.789 262.844 606.828 262.047V259.492C605.758 259.336 604.688 259.258 603.617 259.258ZM620.785 255.203C619.91 254.781 618.91 254.57 617.785 254.57C615.309 254.57 614.07 255.887 614.07 258.52C614.07 261.637 615.309 263.195 617.785 263.195C618.91 263.195 619.91 263.043 620.785 262.738V255.203ZM622.953 264.262C621.461 264.754 619.621 265 617.434 265C613.77 265 611.938 262.867 611.938 258.602C611.938 254.664 613.883 252.695 617.773 252.695C618.836 252.695 619.84 252.891 620.785 253.281V248.242H622.953V264.262Z" fill="#1E1E1E"/>
<path d="M1264 140.5C1264 181.645 1228.63 215 1185 215C1141.37 215 1106 181.645 1106 140.5C1106 99.3548 1141.37 66 1185 66C1228.63 66 1264 99.3548 1264 140.5Z" fill="white"/>
<path d="M1175.33 110.092L1155.44 91.3403" stroke="black" stroke-width="4" stroke-linecap="round"/>
<path d="M1185 104.517L1175.33 77.1499" stroke="black" stroke-width="4" stroke-linecap="round"/>
<path d="M1195.21 104.517L1199.51 73.0952" stroke="black" stroke-width="4" stroke-linecap="round"/>
<path d="M1168.63 206.273L1141.83 181.004C1139.14 178.196 1139.39 174.097 1141.88 171.682L1153.9 160.344C1154.7 154.618 1153.48 148.873 1154.15 143.253C1154.39 141.273 1154.26 139.444 1153.76 137.766C1151.76 131.955 1145.74 128.664 1145.45 122.807C1148.85 114.8 1159.53 111.444 1167.12 114.824C1173.27 117.642 1176.76 122.931 1178.83 128.581C1185.92 121.877 1193.07 115.239 1200.21 108.582C1206.41 103.54 1214.42 103.317 1219.98 108.487C1225.52 113.749 1224.77 122.096 1219.75 127.013L1211.4 134.887C1212.76 136.695 1213.71 138.609 1214.23 140.627C1218.13 143.419 1220.42 147.596 1220.77 151.832C1239.42 171.558 1201.72 184.973 1191.7 193.864L1178.55 206.265C1175.56 208.836 1171.19 208.632 1168.63 206.273ZM1186.53 189.385C1194.48 182.206 1232.81 168.21 1213.43 154.749C1214.73 150.669 1211.76 145.828 1207.47 145.038C1207.51 140.134 1205.02 136.374 1199.93 136.352C1202.44 133.99 1204.9 131.641 1207.32 129.305C1209.74 126.969 1212.2 124.62 1214.71 122.258C1217.52 119.498 1217.4 115.645 1214.93 113.251C1211.9 110.516 1207.76 110.869 1205.17 113.259C1195.45 122.42 1185.79 131.374 1176.78 139.872C1171.09 132.979 1170.03 117.334 1156.98 119.985C1155.09 120.595 1153.81 121.303 1152.73 122.781C1152.62 123.096 1152.6 123.319 1152.69 123.45C1152.77 123.581 1152.91 123.79 1153.1 124.079C1157.41 129.731 1161.77 135.329 1161.18 142.323C1160.14 149.665 1162.86 157.129 1159.95 163.918L1159.74 164.115L1186.53 189.385Z" fill="black"/>
<path d="M1081.8 208.559H1067.4V130.894C1067.4 129.034 1066.99 127.194 1066.19 125.491C1065.39 123.787 1064.21 122.257 1062.75 120.998L990.747 57.5896C990.712 57.561 990.679 57.5301 990.648 57.4972C987.997 55.2469 984.543 54 980.959 54C977.376 54 973.922 55.2469 971.271 57.4972L971.172 57.5896L899.253 120.998C897.786 122.257 896.615 123.787 895.814 125.491C895.013 127.194 894.6 129.034 894.6 130.894V208.559H880.2C878.29 208.559 876.459 209.267 875.109 210.527C873.759 211.788 873 213.497 873 215.279C873 217.062 873.759 218.771 875.109 220.032C876.459 221.292 878.29 222 880.2 222H1081.8C1083.71 222 1085.54 221.292 1086.89 220.032C1088.24 218.771 1089 217.062 1089 215.279C1089 213.497 1088.24 211.788 1086.89 210.527C1085.54 209.267 1083.71 208.559 1081.8 208.559ZM909 130.894L909.099 130.81L981 67.4269L1052.91 130.793L1053.01 130.877V208.559H1009.8V168.235C1009.8 164.671 1008.28 161.252 1005.58 158.731C1002.88 156.21 999.219 154.794 995.4 154.794H966.6C962.781 154.794 959.118 156.21 956.418 158.731C953.717 161.252 952.2 164.671 952.2 168.235V208.559H909V130.894ZM995.4 208.559H966.6V168.235H995.4V208.559Z" fill="black"/>
</svg>
