<svg width="778" height="492" viewBox="0 0 778 492" fill="none" xmlns="http://www.w3.org/2000/svg">
<mask id="path-1-inside-1_358_121" fill="white">
<path d="M0 0H778V492H0V0Z"/>
</mask>
<path d="M0 0H778V492H0V0Z" fill="white"/>
<path d="M0 1H778V-1H0V1ZM778 491H0V493H778V491Z" fill="#CCCCCC" mask="url(#path-1-inside-1_358_121)"/>
<path d="M66.251 79.6738V84.3906H57.8428V109H52.4082V84.3906H44V79.6738H66.251ZM88.2148 87.4668V109H83.9697L83.3135 106.252C80.8389 108.084 78.2139 109 75.4385 109C71.0361 109 68.835 106.396 68.835 101.187V87.4668H74.2695V101.043C74.2695 103.422 75.3086 104.611 77.3867 104.611C79.1504 104.611 80.9482 103.907 82.7803 102.499V87.4668H88.2148ZM108.025 103.381C109.379 104.119 110.835 104.488 112.394 104.488C115.634 104.488 117.254 102.212 117.254 97.6592C117.254 93.79 115.463 91.8555 111.881 91.8555C110.336 91.8555 109.051 91.9512 108.025 92.1426V103.381ZM102.591 88.3486C105.448 87.7607 108.47 87.4668 111.655 87.4668C118.97 87.4668 122.627 90.8779 122.627 97.7002C122.627 105.233 119.223 109 112.414 109C110.965 109 109.502 108.658 108.025 107.975V116.793H102.591V88.3486ZM126.749 109V87.4668H130.953L131.63 90.2148C133.517 88.3828 135.513 87.4668 137.618 87.4668V91.8555C135.595 91.8555 133.783 92.6963 132.184 94.3779V109H126.749ZM145.104 98.1514C145.104 102.649 146.847 104.898 150.333 104.898C153.819 104.898 155.562 102.649 155.562 98.1514C155.562 93.7627 153.819 91.5684 150.333 91.5684C146.847 91.5684 145.104 93.7627 145.104 98.1514ZM139.669 98.2334C139.669 91.0146 143.224 87.4053 150.333 87.4053C157.442 87.4053 160.997 91.0146 160.997 98.2334C160.997 105.438 157.442 109.041 150.333 109.041C143.251 109.041 139.696 105.438 139.669 98.2334ZM150.128 79.6738H156.67L151.769 84.9854H147.175L150.128 79.6738ZM170.595 98.2334L162.535 87.4668H168.585L173.609 94.1934L178.634 87.4668H184.684L176.645 98.2334L184.684 109H178.634L173.609 102.273L168.585 109H162.535L170.595 98.2334ZM192.682 79.6738V83.9805H187.247V79.6738H192.682ZM192.682 87.4668V109H187.247V87.4668H192.682ZM197.829 109V87.4668H202.033L202.669 90.584C204.597 88.5059 206.914 87.4668 209.621 87.4668C212.328 87.4668 214.181 88.4512 215.179 90.4199C217.38 88.4512 219.684 87.4668 222.09 87.4668C227.039 87.4668 229.514 90.1943 229.514 95.6494V109H224.079V95.4443C224.079 93.0518 222.999 91.8555 220.839 91.8555C219.226 91.8555 217.674 92.5801 216.184 94.0293V109H210.749V95.5059C210.749 93.0723 209.751 91.8555 207.755 91.8555C206.169 91.8555 204.672 92.5801 203.264 94.0293V109H197.829ZM239.07 98.1514C239.07 102.649 240.813 104.898 244.3 104.898C247.786 104.898 249.529 102.649 249.529 98.1514C249.529 93.7627 247.786 91.5684 244.3 91.5684C240.813 91.5684 239.07 93.7627 239.07 98.1514ZM233.636 98.2334C233.636 91.0146 237.19 87.4053 244.3 87.4053C251.409 87.4053 254.964 91.0146 254.964 98.2334C254.964 105.438 251.409 109.041 244.3 109.041C237.218 109.041 233.663 105.438 233.636 98.2334ZM267.269 102.294C267.269 98.0146 270.386 95.875 276.62 95.875C278.083 95.875 279.546 96.0117 281.009 96.2852V94.665C281.009 92.7373 279.621 91.7734 276.846 91.7734C274.494 91.7734 271.883 92.1152 269.012 92.7988V88.4922C271.883 87.8086 274.494 87.4668 276.846 87.4668C283.244 87.4668 286.443 89.832 286.443 94.5625V109H283.285L281.357 107.072C279.484 108.357 277.42 109 275.164 109C269.9 109 267.269 106.765 267.269 102.294ZM281.009 99.9766C279.642 99.7031 278.179 99.5664 276.62 99.5664C274.009 99.5664 272.703 100.455 272.703 102.232C272.703 104.146 273.797 105.104 275.984 105.104C277.789 105.104 279.464 104.543 281.009 103.422V99.9766ZM310.971 87.4668V109H306.726L306.069 106.252C303.595 108.084 300.97 109 298.194 109C293.792 109 291.591 106.396 291.591 101.187V87.4668H297.025V101.043C297.025 103.422 298.064 104.611 300.143 104.611C301.906 104.611 303.704 103.907 305.536 102.499V87.4668H310.971ZM315.811 83.9805H319.83L320.65 87.4668H326.064V91.7734H321.245V101.679C321.245 103.688 322.113 104.693 323.85 104.693H326.064V109H321.225C317.615 109 315.811 107.065 315.811 103.196V83.9805ZM334.186 98.1514C334.186 102.649 335.929 104.898 339.415 104.898C342.901 104.898 344.645 102.649 344.645 98.1514C344.645 93.7627 342.901 91.5684 339.415 91.5684C335.929 91.5684 334.186 93.7627 334.186 98.1514ZM328.751 98.2334C328.751 91.0146 332.306 87.4053 339.415 87.4053C346.524 87.4053 350.079 91.0146 350.079 98.2334C350.079 105.438 346.524 109.041 339.415 109.041C332.333 109.041 328.778 105.438 328.751 98.2334ZM362.384 102.294C362.384 98.0146 365.501 95.875 371.735 95.875C373.198 95.875 374.661 96.0117 376.124 96.2852V94.665C376.124 92.7373 374.736 91.7734 371.961 91.7734C369.609 91.7734 366.998 92.1152 364.127 92.7988V88.4922C366.998 87.8086 369.609 87.4668 371.961 87.4668C378.359 87.4668 381.559 89.832 381.559 94.5625V109H378.4L376.473 107.072C374.6 108.357 372.535 109 370.279 109C365.016 109 362.384 106.765 362.384 102.294ZM376.124 99.9766C374.757 99.7031 373.294 99.5664 371.735 99.5664C369.124 99.5664 367.818 100.455 367.818 102.232C367.818 104.146 368.912 105.104 371.1 105.104C372.904 105.104 374.579 104.543 376.124 103.422V99.9766ZM415.314 87.4668V109H411.069L410.413 106.252C407.938 108.084 405.313 109 402.538 109C398.136 109 395.935 106.396 395.935 101.187V87.4668H401.369V101.043C401.369 103.422 402.408 104.611 404.486 104.611C406.25 104.611 408.048 103.907 409.88 102.499V87.4668H415.314ZM420.462 109V87.4668H424.666L425.343 90.625C427.407 88.5195 429.759 87.4668 432.397 87.4668C437.497 87.4668 440.047 90.1191 440.047 95.4238V109H434.612V95.4238C434.612 93.0449 433.43 91.8555 431.064 91.8555C429.301 91.8555 427.578 92.5596 425.896 93.9678V109H420.462ZM470.316 108.385C468.539 108.795 466.693 109 464.779 109C457.123 109 453.295 105.274 453.295 97.8232C453.295 90.9189 457.123 87.4668 464.779 87.4668C466.693 87.4668 468.539 87.6719 470.316 88.082V92.3887C468.539 91.9785 466.83 91.7734 465.189 91.7734C460.883 91.7734 458.729 93.79 458.729 97.8232C458.729 102.403 460.883 104.693 465.189 104.693C466.83 104.693 468.539 104.488 470.316 104.078V108.385ZM479.34 79.6738V109H473.905V79.6738H479.34ZM489.922 79.6738V83.9805H484.487V79.6738H489.922ZM489.922 87.4668V109H484.487V87.4668H489.922ZM510.963 108.385C509.186 108.795 507.34 109 505.426 109C497.77 109 493.941 105.274 493.941 97.8232C493.941 90.9189 497.77 87.4668 505.426 87.4668C507.34 87.4668 509.186 87.6719 510.963 88.082V92.3887C509.186 91.9785 507.477 91.7734 505.836 91.7734C501.529 91.7734 499.376 93.79 499.376 97.8232C499.376 102.403 501.529 104.693 505.836 104.693C507.477 104.693 509.186 104.488 510.963 104.078V108.385ZM537.418 93.0859C536.297 92.3477 534.889 91.9785 533.193 91.9785C529.816 91.9785 528.128 93.8721 528.128 97.6592C528.128 102.157 529.885 104.406 533.398 104.406C534.82 104.406 536.16 104.208 537.418 103.812V93.0859ZM542.853 107.708C539.558 108.569 536.338 109 533.193 109C526.234 109 522.755 105.268 522.755 97.8027C522.755 90.9121 526.159 87.4668 532.968 87.4668C534.417 87.4668 535.9 87.8086 537.418 88.4922V79.6738H542.853V107.708ZM557.064 87.4668C563.6 87.4668 566.867 90.8027 566.867 97.4746C566.867 98.3633 566.806 99.252 566.683 100.141H552.389C552.389 103.176 554.617 104.693 559.074 104.693C561.248 104.693 563.422 104.488 565.596 104.078V108.385C563.695 108.795 561.385 109 558.664 109C550.857 109 546.954 105.329 546.954 97.9873C546.954 90.9736 550.324 87.4668 557.064 87.4668ZM552.389 96.3672H561.576V96.2031C561.576 93.2227 560.072 91.7324 557.064 91.7324C554.193 91.7324 552.635 93.2773 552.389 96.3672ZM593.814 93.0859C592.693 92.3477 591.285 91.9785 589.59 91.9785C586.213 91.9785 584.524 93.8721 584.524 97.6592C584.524 102.157 586.281 104.406 589.795 104.406C591.217 104.406 592.557 104.208 593.814 103.812V93.0859ZM599.249 107.708C595.954 108.569 592.734 109 589.59 109C582.631 109 579.151 105.268 579.151 97.8027C579.151 90.9121 582.556 87.4668 589.364 87.4668C590.813 87.4668 592.297 87.8086 593.814 88.4922V79.6738H599.249V107.708ZM609.811 79.6738V83.9805H604.376V79.6738H609.811ZM609.811 87.4668V109H604.376V87.4668H609.811ZM614.958 107.975V103.463C617.351 104.42 620.112 104.898 623.243 104.898C625.581 104.898 626.75 104.146 626.75 102.643C626.75 101.207 625.964 100.489 624.392 100.489H620.495C616.12 100.489 613.933 98.3359 613.933 94.0293C613.933 89.5176 617.125 87.2617 623.51 87.2617C626.217 87.2617 628.767 87.6719 631.159 88.4922V93.0039C628.767 92.0469 626.169 91.5684 623.366 91.5684C620.427 91.5684 618.957 92.3203 618.957 93.8242C618.957 95.2598 619.812 95.9775 621.521 95.9775H625.007C629.792 95.9775 632.185 98.1309 632.185 102.438C632.185 106.949 629.136 109.205 623.038 109.205C620.044 109.205 617.351 108.795 614.958 107.975ZM635.691 83.9805H639.711L640.531 87.4668H645.945V91.7734H641.126V101.679C641.126 103.688 641.994 104.693 643.73 104.693H645.945V109H641.105C637.496 109 635.691 107.065 635.691 103.196V83.9805ZM648.632 102.294C648.632 98.0146 651.749 95.875 657.983 95.875C659.446 95.875 660.909 96.0117 662.372 96.2852V94.665C662.372 92.7373 660.984 91.7734 658.209 91.7734C655.857 91.7734 653.246 92.1152 650.375 92.7988V88.4922C653.246 87.8086 655.857 87.4668 658.209 87.4668C664.607 87.4668 667.807 89.832 667.807 94.5625V109H664.648L662.721 107.072C660.848 108.357 658.783 109 656.527 109C651.264 109 648.632 106.765 648.632 102.294ZM662.372 99.9766C661.005 99.7031 659.542 99.5664 657.983 99.5664C655.372 99.5664 654.066 100.455 654.066 102.232C654.066 104.146 655.16 105.104 657.348 105.104C659.152 105.104 660.827 104.543 662.372 103.422V99.9766ZM672.954 109V87.4668H677.158L677.835 90.625C679.899 88.5195 682.251 87.4668 684.89 87.4668C689.989 87.4668 692.539 90.1191 692.539 95.4238V109H687.104V95.4238C687.104 93.0449 685.922 91.8555 683.557 91.8555C681.793 91.8555 680.07 92.5596 678.389 93.9678V109H672.954ZM713.58 108.385C711.803 108.795 709.957 109 708.043 109C700.387 109 696.559 105.274 696.559 97.8232C696.559 90.9189 700.387 87.4668 708.043 87.4668C709.957 87.4668 711.803 87.6719 713.58 88.082V92.3887C711.803 91.9785 710.094 91.7734 708.453 91.7734C704.146 91.7734 701.993 93.79 701.993 97.8232C701.993 102.403 704.146 104.693 708.453 104.693C710.094 104.693 711.803 104.488 713.58 104.078V108.385ZM722.604 79.6738V83.9805H717.169V79.6738H722.604ZM722.604 87.4668V109H717.169V87.4668H722.604ZM726.726 102.294C726.726 98.0146 729.843 95.875 736.077 95.875C737.54 95.875 739.003 96.0117 740.466 96.2852V94.665C740.466 92.7373 739.078 91.7734 736.303 91.7734C733.951 91.7734 731.34 92.1152 728.469 92.7988V88.4922C731.34 87.8086 733.951 87.4668 736.303 87.4668C742.701 87.4668 745.9 89.832 745.9 94.5625V109H742.742L740.814 107.072C738.941 108.357 736.877 109 734.621 109C729.357 109 726.726 106.765 726.726 102.294ZM740.466 99.9766C739.099 99.7031 737.636 99.5664 736.077 99.5664C733.466 99.5664 732.16 100.455 732.16 102.232C732.16 104.146 733.254 105.104 735.441 105.104C737.246 105.104 738.921 104.543 740.466 103.422V99.9766Z" fill="#1E1E1E"/>
<path d="M63.4238 182.863V185.5H50.2402V193.938H62.8086V196.574H50.2402V205.363H63.6875V208H46.9883V182.863H63.4238ZM72.9688 198.771L66.0605 189.543H69.8398L74.8496 196.24L79.8594 189.543H83.6387L76.748 198.771L83.6387 208H79.8594L74.8496 201.303L69.8398 208H66.0605L72.9688 198.771ZM89.9668 204.238C91.2441 204.871 92.668 205.188 94.2383 205.188C98.0703 205.188 99.9863 202.885 99.9863 198.279C99.9863 194.26 98.082 192.25 94.2734 192.25C92.6328 192.25 91.1973 192.391 89.9668 192.672V204.238ZM86.7148 190.299C89.1641 189.795 91.6953 189.543 94.3086 189.543C100.227 189.543 103.186 192.467 103.186 198.314C103.186 204.771 100.209 208 94.2559 208C92.7793 208 91.3496 207.707 89.9668 207.121V214.68H86.7148V190.299ZM111.025 182.863V208H107.773V182.863H111.025ZM118.865 198.701C118.865 203.143 120.711 205.363 124.402 205.363C128.094 205.363 129.939 203.143 129.939 198.701C129.939 194.354 128.094 192.18 124.402 192.18C120.711 192.18 118.865 194.354 118.865 198.701ZM115.613 198.771C115.613 192.619 118.543 189.543 124.402 189.543C130.262 189.543 133.191 192.619 133.191 198.771C133.191 204.912 130.262 207.982 124.402 207.982C118.566 207.982 115.637 204.912 115.613 198.771ZM137.586 208V189.543H139.783L140.363 191.898C141.98 190.328 143.926 189.543 146.199 189.543V192.25C143.996 192.25 142.209 193.029 140.838 194.588V208H137.586ZM148.59 202.428C148.59 198.643 151.086 196.75 156.078 196.75C157.684 196.75 159.289 196.867 160.895 197.102V195.361C160.895 193.24 159.236 192.18 155.92 192.18C154.021 192.18 152.076 192.473 150.084 193.059V190.422C152.076 189.836 154.021 189.543 155.92 189.543C161.404 189.543 164.146 191.453 164.146 195.273V208H162.318L161.193 206.172C159.354 207.391 157.35 208 155.182 208C150.787 208 148.59 206.143 148.59 202.428ZM156.078 199.387C153.254 199.387 151.842 200.383 151.842 202.375C151.842 204.367 152.955 205.363 155.182 205.363C157.432 205.363 159.336 204.766 160.895 203.57V199.738C159.289 199.504 157.684 199.387 156.078 199.387ZM208.408 189.543V208H206.176L205.613 205.645C203.375 207.215 201.125 208 198.863 208C194.621 208 192.5 205.709 192.5 201.127V189.543H195.752V201.18C195.752 203.922 197.111 205.293 199.83 205.293C201.693 205.293 203.469 204.514 205.156 202.955V189.543H208.408ZM213.699 208V189.543H215.896L216.477 191.898C218.363 190.328 220.438 189.543 222.699 189.543C227.305 189.543 229.607 191.834 229.607 196.416V208H226.355V196.363C226.355 193.621 224.99 192.25 222.26 192.25C220.396 192.25 218.627 193.029 216.951 194.588V208H213.699ZM234.02 202.428C234.02 198.643 236.516 196.75 241.508 196.75C243.113 196.75 244.719 196.867 246.324 197.102V195.361C246.324 193.24 244.666 192.18 241.35 192.18C239.451 192.18 237.506 192.473 235.514 193.059V190.422C237.506 189.836 239.451 189.543 241.35 189.543C246.834 189.543 249.576 191.453 249.576 195.273V208H247.748L246.623 206.172C244.783 207.391 242.779 208 240.611 208C236.217 208 234.02 206.143 234.02 202.428ZM241.508 199.387C238.684 199.387 237.271 200.383 237.271 202.375C237.271 204.367 238.385 205.363 240.611 205.363C242.861 205.363 244.766 204.766 246.324 203.57V199.738C244.719 199.504 243.113 199.387 241.508 199.387ZM277.051 202.428C277.051 198.643 279.547 196.75 284.539 196.75C286.145 196.75 287.75 196.867 289.355 197.102V195.361C289.355 193.24 287.697 192.18 284.381 192.18C282.482 192.18 280.537 192.473 278.545 193.059V190.422C280.537 189.836 282.482 189.543 284.381 189.543C289.865 189.543 292.607 191.453 292.607 195.273V208H290.779L289.654 206.172C287.814 207.391 285.811 208 283.643 208C279.248 208 277.051 206.143 277.051 202.428ZM284.539 199.387C281.715 199.387 280.303 200.383 280.303 202.375C280.303 204.367 281.416 205.363 283.643 205.363C285.893 205.363 287.797 204.766 289.355 203.57V199.738C287.75 199.504 286.145 199.387 284.539 199.387ZM297.898 208V189.543H300.096L300.641 191.863C302.41 190.316 304.338 189.543 306.424 189.543C309.096 189.543 310.918 190.387 311.891 192.074C313.895 190.387 315.928 189.543 317.99 189.543C322.232 189.543 324.354 191.881 324.354 196.557V208H321.102V196.381C321.102 193.627 319.941 192.25 317.621 192.25C315.887 192.25 314.264 193.047 312.752 194.641V208H309.5V196.434C309.5 193.645 308.352 192.25 306.055 192.25C304.227 192.25 302.592 193.047 301.15 194.641V208H297.898ZM332.896 204.238C334.174 204.871 335.598 205.188 337.168 205.188C341 205.188 342.916 202.885 342.916 198.279C342.916 194.26 341.012 192.25 337.203 192.25C335.562 192.25 334.127 192.391 332.896 192.672V204.238ZM329.645 190.299C332.094 189.795 334.625 189.543 337.238 189.543C343.156 189.543 346.115 192.467 346.115 198.314C346.115 204.771 343.139 208 337.186 208C335.709 208 334.279 207.707 332.896 207.121V214.68H329.645V190.299ZM353.955 182.863V208H350.703V182.863H353.955ZM363.025 189.543V208H359.773V189.543H363.025ZM363.025 182.863V185.939H359.773V182.863H363.025ZM367.789 202.428C367.789 198.643 370.285 196.75 375.277 196.75C376.883 196.75 378.488 196.867 380.094 197.102V195.361C380.094 193.24 378.436 192.18 375.119 192.18C373.221 192.18 371.275 192.473 369.283 193.059V190.422C371.275 189.836 373.221 189.543 375.119 189.543C380.604 189.543 383.346 191.453 383.346 195.273V208H381.518L380.393 206.172C378.553 207.391 376.549 208 374.381 208C369.986 208 367.789 206.143 367.789 202.428ZM375.277 199.387C372.453 199.387 371.041 200.383 371.041 202.375C371.041 204.367 372.154 205.363 374.381 205.363C376.631 205.363 378.535 204.766 380.094 203.57V199.738C378.488 199.504 376.883 199.387 375.277 199.387ZM46.4609 247.121V244.309C48.6289 245.012 50.8203 245.363 53.0352 245.363C55.9766 245.363 57.4473 244.484 57.4473 242.727C57.4473 241.086 56.4219 240.266 54.3711 240.266H51.7344C47.75 240.266 45.7578 238.449 45.7578 234.816C45.7578 231.301 48.3184 229.543 53.4395 229.543C55.6426 229.543 57.8281 229.836 59.9961 230.422V233.234C57.8281 232.531 55.6426 232.18 53.4395 232.18C50.3691 232.18 48.834 233.059 48.834 234.816C48.834 236.457 49.8008 237.277 51.7344 237.277H54.3711C58.5898 237.277 60.6992 239.094 60.6992 242.727C60.6992 246.242 58.1445 248 53.0352 248C50.8203 248 48.6289 247.707 46.4609 247.121ZM72.7051 229.543C77.9551 229.543 80.5801 232.139 80.5801 237.33C80.5801 238.068 80.5273 238.859 80.4219 239.703H67.4668C67.4668 243.477 69.6699 245.363 74.0762 245.363C76.1738 245.363 78.0371 245.129 79.666 244.66V247.297C78.0371 247.766 76.0566 248 73.7246 248C67.3848 248 64.2148 244.854 64.2148 238.561C64.2148 232.549 67.0449 229.543 72.7051 229.543ZM67.4668 236.996H77.4512C77.3809 233.762 75.7988 232.145 72.7051 232.145C69.4238 232.145 67.6777 233.762 67.4668 236.996ZM88.3848 222.863V248H85.1328V222.863H88.3848ZM101.463 229.543C106.713 229.543 109.338 232.139 109.338 237.33C109.338 238.068 109.285 238.859 109.18 239.703H96.2246C96.2246 243.477 98.4277 245.363 102.834 245.363C104.932 245.363 106.795 245.129 108.424 244.66V247.297C106.795 247.766 104.814 248 102.482 248C96.1426 248 92.9727 244.854 92.9727 238.561C92.9727 232.549 95.8027 229.543 101.463 229.543ZM96.2246 236.996H106.209C106.139 233.762 104.557 232.145 101.463 232.145C98.1816 232.145 96.4355 233.762 96.2246 236.996ZM127.602 247.473C126.078 247.824 124.438 248 122.68 248C116.117 248 112.836 244.807 112.836 238.42C112.836 232.502 116.117 229.543 122.68 229.543C124.438 229.543 126.078 229.719 127.602 230.07V232.707C126.078 232.355 124.379 232.18 122.504 232.18C118.227 232.18 116.088 234.26 116.088 238.42C116.088 243.049 118.227 245.363 122.504 245.363C124.379 245.363 126.078 245.188 127.602 244.836V247.473ZM145.637 247.473C144.113 247.824 142.473 248 140.715 248C134.152 248 130.871 244.807 130.871 238.42C130.871 232.502 134.152 229.543 140.715 229.543C142.473 229.543 144.113 229.719 145.637 230.07V232.707C144.113 232.355 142.414 232.18 140.539 232.18C136.262 232.18 134.123 234.26 134.123 238.42C134.123 243.049 136.262 245.363 140.539 245.363C142.414 245.363 144.113 245.188 145.637 244.836V247.473ZM153.389 229.543V248H150.137V229.543H153.389ZM153.389 222.863V225.939H150.137V222.863H153.389ZM161.404 238.701C161.404 243.143 163.25 245.363 166.941 245.363C170.633 245.363 172.479 243.143 172.479 238.701C172.479 234.354 170.633 232.18 166.941 232.18C163.25 232.18 161.404 234.354 161.404 238.701ZM158.152 238.771C158.152 232.619 161.082 229.543 166.941 229.543C172.801 229.543 175.73 232.619 175.73 238.771C175.73 244.912 172.801 247.982 166.941 247.982C161.105 247.982 158.176 244.912 158.152 238.771ZM167.469 222.863H171.67L167.469 227.064H164.586L167.469 222.863ZM180.125 248V229.543H182.322L182.902 231.898C184.789 230.328 186.863 229.543 189.125 229.543C193.73 229.543 196.033 231.834 196.033 236.416V248H192.781V236.363C192.781 233.621 191.416 232.25 188.686 232.25C186.822 232.25 185.053 233.029 183.377 234.588V248H180.125ZM240.682 233.305C239.369 232.672 237.869 232.355 236.182 232.355C232.467 232.355 230.609 234.33 230.609 238.279C230.609 242.955 232.467 245.293 236.182 245.293C237.869 245.293 239.369 245.064 240.682 244.607V233.305ZM243.934 246.893C241.695 247.631 238.936 248 235.654 248C230.158 248 227.41 244.801 227.41 238.402C227.41 232.496 230.328 229.543 236.164 229.543C237.758 229.543 239.264 229.836 240.682 230.422V222.863H243.934V246.893ZM256.818 229.543C262.068 229.543 264.693 232.139 264.693 237.33C264.693 238.068 264.641 238.859 264.535 239.703H251.58C251.58 243.477 253.783 245.363 258.189 245.363C260.287 245.363 262.15 245.129 263.779 244.66V247.297C262.15 247.766 260.17 248 257.838 248C251.498 248 248.328 244.854 248.328 238.561C248.328 232.549 251.158 229.543 256.818 229.543ZM251.58 236.996H261.564C261.494 233.762 259.912 232.145 256.818 232.145C253.537 232.145 251.791 233.762 251.58 236.996ZM295.156 242.428C295.156 238.643 297.652 236.75 302.645 236.75C304.25 236.75 305.855 236.867 307.461 237.102V235.361C307.461 233.24 305.803 232.18 302.486 232.18C300.588 232.18 298.643 232.473 296.65 233.059V230.422C298.643 229.836 300.588 229.543 302.486 229.543C307.971 229.543 310.713 231.453 310.713 235.273V248H308.885L307.76 246.172C305.92 247.391 303.916 248 301.748 248C297.354 248 295.156 246.143 295.156 242.428ZM302.645 239.387C299.82 239.387 298.408 240.383 298.408 242.375C298.408 244.367 299.521 245.363 301.748 245.363C303.998 245.363 305.902 244.766 307.461 243.57V239.738C305.855 239.504 304.25 239.387 302.645 239.387ZM331.912 229.543V248H329.68L329.117 245.645C326.879 247.215 324.629 248 322.367 248C318.125 248 316.004 245.709 316.004 241.127V229.543H319.256V241.18C319.256 243.922 320.615 245.293 323.334 245.293C325.197 245.293 326.973 244.514 328.66 242.955V229.543H331.912ZM337.203 226.555H339.242L339.945 229.543H344.938V232.18H340.455V242.779C340.455 244.502 341.199 245.363 342.688 245.363H344.938V248H341.844C338.75 248 337.203 246.342 337.203 243.025V226.555ZM351.459 238.701C351.459 243.143 353.305 245.363 356.996 245.363C360.688 245.363 362.533 243.143 362.533 238.701C362.533 234.354 360.688 232.18 356.996 232.18C353.305 232.18 351.459 234.354 351.459 238.701ZM348.207 238.771C348.207 232.619 351.137 229.543 356.996 229.543C362.855 229.543 365.785 232.619 365.785 238.771C365.785 244.912 362.855 247.982 356.996 247.982C351.16 247.982 348.23 244.912 348.207 238.771ZM370.004 247.121V244.309C372.172 245.012 374.363 245.363 376.578 245.363C379.52 245.363 380.99 244.484 380.99 242.727C380.99 241.086 379.965 240.266 377.914 240.266H375.277C371.293 240.266 369.301 238.449 369.301 234.816C369.301 231.301 371.861 229.543 376.982 229.543C379.186 229.543 381.371 229.836 383.539 230.422V233.234C381.371 232.531 379.186 232.18 376.982 232.18C373.912 232.18 372.377 233.059 372.377 234.816C372.377 236.457 373.344 237.277 375.277 237.277H377.914C382.133 237.277 384.242 239.094 384.242 242.727C384.242 246.242 381.688 248 376.578 248C374.363 248 372.172 247.707 370.004 247.121ZM46.6367 288V269.543H48.834L49.4141 271.898C51.3008 270.328 53.375 269.543 55.6367 269.543C60.2422 269.543 62.5449 271.834 62.5449 276.416V288H59.293V276.363C59.293 273.621 57.9277 272.25 55.1973 272.25C53.334 272.25 51.5645 273.029 49.8887 274.588V288H46.6367ZM83.7441 269.543V288H81.5117L80.9492 285.645C78.7109 287.215 76.4609 288 74.1992 288C69.957 288 67.8359 285.709 67.8359 281.127V269.543H71.0879V281.18C71.0879 283.922 72.4473 285.293 75.166 285.293C77.0293 285.293 78.8047 284.514 80.4922 282.955V269.543H83.7441ZM96.6465 269.543C101.896 269.543 104.521 272.139 104.521 277.33C104.521 278.068 104.469 278.859 104.363 279.703H91.4082C91.4082 283.477 93.6113 285.363 98.0176 285.363C100.115 285.363 101.979 285.129 103.607 284.66V287.297C101.979 287.766 99.998 288 97.666 288C91.3262 288 88.1562 284.854 88.1562 278.561C88.1562 272.549 90.9863 269.543 96.6465 269.543ZM91.4082 276.996H101.393C101.322 273.762 99.7402 272.145 96.6465 272.145C93.3652 272.145 91.6191 273.762 91.4082 276.996ZM106.262 269.543H109.777L115.068 284.01L120.324 269.543H123.84L116.334 288H113.311L106.262 269.543ZM128.85 278.701C128.85 283.143 130.695 285.363 134.387 285.363C138.078 285.363 139.924 283.143 139.924 278.701C139.924 274.354 138.078 272.18 134.387 272.18C130.695 272.18 128.85 274.354 128.85 278.701ZM125.598 278.771C125.598 272.619 128.527 269.543 134.387 269.543C140.246 269.543 143.176 272.619 143.176 278.771C143.176 284.912 140.246 287.982 134.387 287.982C128.551 287.982 125.621 284.912 125.598 278.771ZM147.395 287.121V284.309C149.562 285.012 151.754 285.363 153.969 285.363C156.91 285.363 158.381 284.484 158.381 282.727C158.381 281.086 157.355 280.266 155.305 280.266H152.668C148.684 280.266 146.691 278.449 146.691 274.816C146.691 271.301 149.252 269.543 154.373 269.543C156.576 269.543 158.762 269.836 160.93 270.422V273.234C158.762 272.531 156.576 272.18 154.373 272.18C151.303 272.18 149.768 273.059 149.768 274.816C149.768 276.457 150.734 277.277 152.668 277.277H155.305C159.523 277.277 161.633 279.094 161.633 282.727C161.633 286.242 159.078 288 153.969 288C151.754 288 149.562 287.707 147.395 287.121ZM202.467 269.543H206L211.221 283.957L216.617 269.543H220.062L212.398 288.545C211.039 291.896 209 293.988 206.281 294.82L205.033 292.518C207.096 291.615 208.596 290.145 209.533 288.105L202.467 269.543ZM277.666 269.543V288H275.434L274.871 285.645C272.633 287.215 270.383 288 268.121 288C263.879 288 261.758 285.709 261.758 281.127V269.543H265.01V281.18C265.01 283.922 266.369 285.293 269.088 285.293C270.951 285.293 272.727 284.514 274.414 282.955V269.543H277.666ZM282.781 287.121V284.309C284.949 285.012 287.141 285.363 289.355 285.363C292.297 285.363 293.768 284.484 293.768 282.727C293.768 281.086 292.742 280.266 290.691 280.266H288.055C284.07 280.266 282.078 278.449 282.078 274.816C282.078 271.301 284.639 269.543 289.76 269.543C291.963 269.543 294.148 269.836 296.316 270.422V273.234C294.148 272.531 291.963 272.18 289.76 272.18C286.689 272.18 285.154 273.059 285.154 274.816C285.154 276.457 286.121 277.277 288.055 277.277H290.691C294.91 277.277 297.02 279.094 297.02 282.727C297.02 286.242 294.465 288 289.355 288C287.141 288 284.949 287.707 282.781 287.121ZM300.535 282.428C300.535 278.643 303.031 276.75 308.023 276.75C309.629 276.75 311.234 276.867 312.84 277.102V275.361C312.84 273.24 311.182 272.18 307.865 272.18C305.967 272.18 304.021 272.473 302.029 273.059V270.422C304.021 269.836 305.967 269.543 307.865 269.543C313.35 269.543 316.092 271.453 316.092 275.273V288H314.264L313.139 286.172C311.299 287.391 309.295 288 307.127 288C302.732 288 300.535 286.143 300.535 282.428ZM308.023 279.387C305.199 279.387 303.787 280.383 303.787 282.375C303.787 284.367 304.9 285.363 307.127 285.363C309.377 285.363 311.281 284.766 312.84 283.57V279.738C311.234 279.504 309.629 279.387 308.023 279.387ZM333.775 273.305C332.463 272.672 330.963 272.355 329.275 272.355C325.561 272.355 323.703 274.33 323.703 278.279C323.703 282.955 325.561 285.293 329.275 285.293C330.963 285.293 332.463 285.064 333.775 284.607V273.305ZM337.027 286.893C334.789 287.631 332.029 288 328.748 288C323.252 288 320.504 284.801 320.504 278.402C320.504 272.496 323.422 269.543 329.258 269.543C330.852 269.543 332.357 269.836 333.775 270.422V262.863H337.027V286.893ZM344.674 278.701C344.674 283.143 346.52 285.363 350.211 285.363C353.902 285.363 355.748 283.143 355.748 278.701C355.748 274.354 353.902 272.18 350.211 272.18C346.52 272.18 344.674 274.354 344.674 278.701ZM341.422 278.771C341.422 272.619 344.352 269.543 350.211 269.543C356.07 269.543 359 272.619 359 278.771C359 284.912 356.07 287.982 350.211 287.982C344.375 287.982 341.445 284.912 341.422 278.771ZM363.219 287.121V284.309C365.387 285.012 367.578 285.363 369.793 285.363C372.734 285.363 374.205 284.484 374.205 282.727C374.205 281.086 373.18 280.266 371.129 280.266H368.492C364.508 280.266 362.516 278.449 362.516 274.816C362.516 271.301 365.076 269.543 370.197 269.543C372.4 269.543 374.586 269.836 376.754 270.422V273.234C374.586 272.531 372.4 272.18 370.197 272.18C367.127 272.18 365.592 273.059 365.592 274.816C365.592 276.457 366.559 277.277 368.492 277.277H371.129C375.348 277.277 377.457 279.094 377.457 282.727C377.457 286.242 374.902 288 369.793 288C367.578 288 365.387 287.707 363.219 287.121ZM385.543 284.748L382.906 292.395H379.654L382.291 284.748H385.543ZM60.5234 327.473C59 327.824 57.3594 328 55.6016 328C49.0391 328 45.7578 324.807 45.7578 318.42C45.7578 312.502 49.0391 309.543 55.6016 309.543C57.3594 309.543 59 309.719 60.5234 310.07V312.707C59 312.355 57.3008 312.18 55.4258 312.18C51.1484 312.18 49.0098 314.26 49.0098 318.42C49.0098 323.049 51.1484 325.363 55.4258 325.363C57.3008 325.363 59 325.188 60.5234 324.836V327.473ZM67.0449 318.701C67.0449 323.143 68.8906 325.363 72.582 325.363C76.2734 325.363 78.1191 323.143 78.1191 318.701C78.1191 314.354 76.2734 312.18 72.582 312.18C68.8906 312.18 67.0449 314.354 67.0449 318.701ZM63.793 318.771C63.793 312.619 66.7227 309.543 72.582 309.543C78.4414 309.543 81.3711 312.619 81.3711 318.771C81.3711 324.912 78.4414 327.982 72.582 327.982C66.7461 327.982 63.8164 324.912 63.793 318.771ZM85.7656 328V309.543H87.9629L88.543 311.898C90.4297 310.328 92.5039 309.543 94.7656 309.543C99.3711 309.543 101.674 311.834 101.674 316.416V328H98.4219V316.363C98.4219 313.621 97.0566 312.25 94.3262 312.25C92.4629 312.25 90.6934 313.029 89.0176 314.588V328H85.7656ZM160.93 302.863V328H157.678V302.863H160.93ZM168.77 318.701C168.77 323.143 170.615 325.363 174.307 325.363C177.998 325.363 179.844 323.143 179.844 318.701C179.844 314.354 177.998 312.18 174.307 312.18C170.615 312.18 168.77 314.354 168.77 318.701ZM165.518 318.771C165.518 312.619 168.447 309.543 174.307 309.543C180.166 309.543 183.096 312.619 183.096 318.771C183.096 324.912 180.166 327.982 174.307 327.982C168.471 327.982 165.541 324.912 165.518 318.771ZM187.314 327.121V324.309C189.482 325.012 191.674 325.363 193.889 325.363C196.83 325.363 198.301 324.484 198.301 322.727C198.301 321.086 197.275 320.266 195.225 320.266H192.588C188.604 320.266 186.611 318.449 186.611 314.816C186.611 311.301 189.172 309.543 194.293 309.543C196.496 309.543 198.682 309.836 200.85 310.422V313.234C198.682 312.531 196.496 312.18 194.293 312.18C191.223 312.18 189.688 313.059 189.688 314.816C189.688 316.457 190.654 317.277 192.588 317.277H195.225C199.443 317.277 201.553 319.094 201.553 322.727C201.553 326.242 198.998 328 193.889 328C191.674 328 189.482 327.707 187.314 327.121ZM256.484 328V309.543H258.682L259.227 311.863C260.996 310.316 262.924 309.543 265.01 309.543C267.682 309.543 269.504 310.387 270.477 312.074C272.48 310.387 274.514 309.543 276.576 309.543C280.818 309.543 282.939 311.881 282.939 316.557V328H279.688V316.381C279.688 313.627 278.527 312.25 276.207 312.25C274.473 312.25 272.85 313.047 271.338 314.641V328H268.086V316.434C268.086 313.645 266.938 312.25 264.641 312.25C262.812 312.25 261.178 313.047 259.736 314.641V328H256.484ZM295.842 309.543C301.092 309.543 303.717 312.139 303.717 317.33C303.717 318.068 303.664 318.859 303.559 319.703H290.604C290.604 323.477 292.807 325.363 297.213 325.363C299.311 325.363 301.174 325.129 302.803 324.66V327.297C301.174 327.766 299.193 328 296.861 328C290.521 328 287.352 324.854 287.352 318.561C287.352 312.549 290.182 309.543 295.842 309.543ZM290.604 316.996H300.588C300.518 313.762 298.936 312.145 295.842 312.145C292.561 312.145 290.814 313.762 290.604 316.996ZM311.697 309.543V326.594C311.697 330.32 310.789 333.121 308.973 334.996L306.248 333.15C307.713 331.568 308.445 329.383 308.445 326.594V309.543H311.697ZM311.697 302.863V305.939H308.445V302.863H311.697ZM319.713 318.701C319.713 323.143 321.559 325.363 325.25 325.363C328.941 325.363 330.787 323.143 330.787 318.701C330.787 314.354 328.941 312.18 325.25 312.18C321.559 312.18 319.713 314.354 319.713 318.701ZM316.461 318.771C316.461 312.619 319.391 309.543 325.25 309.543C331.109 309.543 334.039 312.619 334.039 318.771C334.039 324.912 331.109 327.982 325.25 327.982C319.414 327.982 316.484 324.912 316.461 318.771ZM338.434 328V309.543H340.631L341.211 311.898C342.828 310.328 344.773 309.543 347.047 309.543V312.25C344.844 312.25 343.057 313.029 341.686 314.588V328H338.434ZM357.928 309.543C363.178 309.543 365.803 312.139 365.803 317.33C365.803 318.068 365.75 318.859 365.645 319.703H352.689C352.689 323.477 354.893 325.363 359.299 325.363C361.396 325.363 363.26 325.129 364.889 324.66V327.297C363.26 327.766 361.279 328 358.947 328C352.607 328 349.438 324.854 349.438 318.561C349.438 312.549 352.268 309.543 357.928 309.543ZM352.689 316.996H362.674C362.604 313.762 361.021 312.145 357.928 312.145C354.646 312.145 352.9 313.762 352.689 316.996ZM370.004 327.121V324.309C372.172 325.012 374.363 325.363 376.578 325.363C379.52 325.363 380.99 324.484 380.99 322.727C380.99 321.086 379.965 320.266 377.914 320.266H375.277C371.293 320.266 369.301 318.449 369.301 314.816C369.301 311.301 371.861 309.543 376.982 309.543C379.186 309.543 381.371 309.836 383.539 310.422V313.234C381.371 312.531 379.186 312.18 376.982 312.18C373.912 312.18 372.377 313.059 372.377 314.816C372.377 316.457 373.344 317.277 375.277 317.277H377.914C382.133 317.277 384.242 319.094 384.242 322.727C384.242 326.242 381.688 328 376.578 328C374.363 328 372.172 327.707 370.004 327.121ZM49.8887 364.238C51.166 364.871 52.5898 365.188 54.1602 365.188C57.9922 365.188 59.9082 362.885 59.9082 358.279C59.9082 354.26 58.0039 352.25 54.1953 352.25C52.5547 352.25 51.1191 352.391 49.8887 352.672V364.238ZM46.6367 350.299C49.0859 349.795 51.6172 349.543 54.2305 349.543C60.1484 349.543 63.1074 352.467 63.1074 358.314C63.1074 364.771 60.1309 368 54.1777 368C52.7012 368 51.2715 367.707 49.8887 367.121V374.68H46.6367V350.299ZM67.5195 368V349.543H69.7168L70.2969 351.898C71.9141 350.328 73.8594 349.543 76.1328 349.543V352.25C73.9297 352.25 72.1426 353.029 70.7715 354.588V368H67.5195ZM87.0137 349.543C92.2637 349.543 94.8887 352.139 94.8887 357.33C94.8887 358.068 94.8359 358.859 94.7305 359.703H81.7754C81.7754 363.477 83.9785 365.363 88.3848 365.363C90.4824 365.363 92.3457 365.129 93.9746 364.66V367.297C92.3457 367.766 90.3652 368 88.0332 368C81.6934 368 78.5234 364.854 78.5234 358.561C78.5234 352.549 81.3535 349.543 87.0137 349.543ZM81.7754 356.996H91.7598C91.6895 353.762 90.1074 352.145 87.0137 352.145C83.7324 352.145 81.9863 353.762 81.7754 356.996ZM113.152 367.473C111.629 367.824 109.988 368 108.23 368C101.668 368 98.3867 364.807 98.3867 358.42C98.3867 352.502 101.668 349.543 108.23 349.543C109.988 349.543 111.629 349.719 113.152 350.07V352.707C111.629 352.355 109.93 352.18 108.055 352.18C103.777 352.18 101.639 354.26 101.639 358.42C101.639 363.049 103.777 365.363 108.055 365.363C109.93 365.363 111.629 365.188 113.152 364.836V367.473ZM120.904 349.543V368H117.652V349.543H120.904ZM120.904 342.863V345.939H117.652V342.863H120.904ZM128.92 358.701C128.92 363.143 130.766 365.363 134.457 365.363C138.148 365.363 139.994 363.143 139.994 358.701C139.994 354.354 138.148 352.18 134.457 352.18C130.766 352.18 128.92 354.354 128.92 358.701ZM125.668 358.771C125.668 352.619 128.598 349.543 134.457 349.543C140.316 349.543 143.246 352.619 143.246 358.771C143.246 364.912 140.316 367.982 134.457 367.982C128.621 367.982 125.691 364.912 125.668 358.771ZM147.465 367.121V364.309C149.633 365.012 151.824 365.363 154.039 365.363C156.98 365.363 158.451 364.484 158.451 362.727C158.451 361.086 157.426 360.266 155.375 360.266H152.738C148.754 360.266 146.762 358.449 146.762 354.816C146.762 351.301 149.322 349.543 154.443 349.543C156.646 349.543 158.832 349.836 161 350.422V353.234C158.832 352.531 156.646 352.18 154.443 352.18C151.373 352.18 149.838 353.059 149.838 354.816C149.838 356.457 150.805 357.277 152.738 357.277H155.375C159.594 357.277 161.703 359.094 161.703 362.727C161.703 366.242 159.148 368 154.039 368C151.824 368 149.633 367.707 147.465 367.121ZM169.789 364.748L167.152 372.395H163.9L166.537 364.748H169.789ZM191.984 346.555H194.023L194.727 349.543H199.719V352.18H195.236V362.779C195.236 364.502 195.98 365.363 197.469 365.363H199.719V368H196.625C193.531 368 191.984 366.342 191.984 363.025V346.555ZM206.24 358.701C206.24 363.143 208.086 365.363 211.777 365.363C215.469 365.363 217.314 363.143 217.314 358.701C217.314 354.354 215.469 352.18 211.777 352.18C208.086 352.18 206.24 354.354 206.24 358.701ZM202.988 358.771C202.988 352.619 205.918 349.543 211.777 349.543C217.637 349.543 220.566 352.619 220.566 358.771C220.566 364.912 217.637 367.982 211.777 367.982C205.941 367.982 203.012 364.912 202.988 358.771ZM237.354 353.305C236.041 352.672 234.541 352.355 232.854 352.355C229.139 352.355 227.281 354.33 227.281 358.279C227.281 362.955 229.139 365.293 232.854 365.293C234.541 365.293 236.041 365.064 237.354 364.607V353.305ZM240.605 366.893C238.367 367.631 235.607 368 232.326 368C226.83 368 224.082 364.801 224.082 358.402C224.082 352.496 227 349.543 232.836 349.543C234.43 349.543 235.936 349.836 237.354 350.422V342.863H240.605V366.893ZM248.252 358.701C248.252 363.143 250.098 365.363 253.789 365.363C257.48 365.363 259.326 363.143 259.326 358.701C259.326 354.354 257.48 352.18 253.789 352.18C250.098 352.18 248.252 354.354 248.252 358.701ZM245 358.771C245 352.619 247.93 349.543 253.789 349.543C259.648 349.543 262.578 352.619 262.578 358.771C262.578 364.912 259.648 367.982 253.789 367.982C247.953 367.982 245.023 364.912 245 358.771ZM293.686 349.543C298.936 349.543 301.561 352.139 301.561 357.33C301.561 358.068 301.508 358.859 301.402 359.703H288.447C288.447 363.477 290.65 365.363 295.057 365.363C297.154 365.363 299.018 365.129 300.646 364.66V367.297C299.018 367.766 297.037 368 294.705 368C288.365 368 285.195 364.854 285.195 358.561C285.195 352.549 288.025 349.543 293.686 349.543ZM288.447 356.996H298.432C298.361 353.762 296.779 352.145 293.686 352.145C290.404 352.145 288.658 353.762 288.447 356.996ZM305.938 368V349.543H308.135L308.715 351.898C310.602 350.328 312.676 349.543 314.938 349.543C319.543 349.543 321.846 351.834 321.846 356.416V368H318.594V356.363C318.594 353.621 317.229 352.25 314.498 352.25C312.635 352.25 310.865 353.029 309.189 354.588V368H305.938ZM362.146 349.543V368H359.914L359.352 365.645C357.113 367.215 354.863 368 352.602 368C348.359 368 346.238 365.709 346.238 361.127V349.543H349.49V361.18C349.49 363.922 350.85 365.293 353.568 365.293C355.432 365.293 357.207 364.514 358.895 362.955V349.543H362.146ZM367.438 368V349.543H369.635L370.215 351.898C372.102 350.328 374.176 349.543 376.438 349.543C381.043 349.543 383.346 351.834 383.346 356.416V368H380.094V356.363C380.094 353.621 378.729 352.25 375.998 352.25C374.135 352.25 372.365 353.029 370.689 354.588V368H367.438ZM46.4609 407.121V404.309C48.6289 405.012 50.8203 405.363 53.0352 405.363C55.9766 405.363 57.4473 404.484 57.4473 402.727C57.4473 401.086 56.4219 400.266 54.3711 400.266H51.7344C47.75 400.266 45.7578 398.449 45.7578 394.816C45.7578 391.301 48.3184 389.543 53.4395 389.543C55.6426 389.543 57.8281 389.836 59.9961 390.422V393.234C57.8281 392.531 55.6426 392.18 53.4395 392.18C50.3691 392.18 48.834 393.059 48.834 394.816C48.834 396.457 49.8008 397.277 51.7344 397.277H54.3711C58.5898 397.277 60.6992 399.094 60.6992 402.727C60.6992 406.242 58.1445 408 53.0352 408C50.8203 408 48.6289 407.707 46.4609 407.121ZM67.4668 398.701C67.4668 403.143 69.3125 405.363 73.0039 405.363C76.6953 405.363 78.541 403.143 78.541 398.701C78.541 394.354 76.6953 392.18 73.0039 392.18C69.3125 392.18 67.4668 394.354 67.4668 398.701ZM64.2148 398.771C64.2148 392.619 67.1445 389.543 73.0039 389.543C78.8633 389.543 81.793 392.619 81.793 398.771C81.793 404.912 78.8633 407.982 73.0039 407.982C67.168 407.982 64.2383 404.912 64.2148 398.771ZM89.6152 382.863V408H86.3633V382.863H89.6152ZM97.4551 398.701C97.4551 403.143 99.3008 405.363 102.992 405.363C106.684 405.363 108.529 403.143 108.529 398.701C108.529 394.354 106.684 392.18 102.992 392.18C99.3008 392.18 97.4551 394.354 97.4551 398.701ZM94.2031 398.771C94.2031 392.619 97.1328 389.543 102.992 389.543C108.852 389.543 111.781 392.619 111.781 398.771C111.781 404.912 108.852 407.982 102.992 407.982C97.1562 407.982 94.2266 404.912 94.2031 398.771ZM128.393 382.863V408H125.141V382.863H128.393ZM149.768 389.543V408H147.535L146.973 405.645C144.734 407.215 142.484 408 140.223 408C135.98 408 133.859 405.709 133.859 401.127V389.543H137.111V401.18C137.111 403.922 138.471 405.293 141.189 405.293C143.053 405.293 144.828 404.514 146.516 402.955V389.543H149.768ZM167.398 392.672C166.285 392.391 164.908 392.25 163.268 392.25C159.342 392.25 157.379 394.377 157.379 398.631C157.379 403.002 159.236 405.188 162.951 405.188C164.639 405.188 166.121 404.871 167.398 404.238V392.672ZM170.65 408C170.65 412.453 167.82 414.68 162.16 414.68C159.887 414.68 157.871 414.387 156.113 413.801V411.164C157.906 411.75 159.934 412.043 162.195 412.043C165.664 412.043 167.398 410.695 167.398 408V407.121C166.016 407.707 164.527 408 162.934 408C157.098 408 154.18 404.889 154.18 398.666C154.18 392.584 157.256 389.543 163.408 389.543C165.904 389.543 168.318 389.795 170.65 390.299V408ZM175.062 402.428C175.062 398.643 177.559 396.75 182.551 396.75C184.156 396.75 185.762 396.867 187.367 397.102V395.361C187.367 393.24 185.709 392.18 182.393 392.18C180.494 392.18 178.549 392.473 176.557 393.059V390.422C178.549 389.836 180.494 389.543 182.393 389.543C187.877 389.543 190.619 391.453 190.619 395.273V408H188.791L187.666 406.172C185.826 407.391 183.822 408 181.654 408C177.26 408 175.062 406.143 175.062 402.428ZM182.551 399.387C179.727 399.387 178.314 400.383 178.314 402.375C178.314 404.367 179.428 405.363 181.654 405.363C183.904 405.363 185.809 404.766 187.367 403.57V399.738C185.762 399.504 184.156 399.387 182.551 399.387ZM195.91 408V389.543H198.107L198.688 391.898C200.305 390.328 202.25 389.543 204.523 389.543V392.25C202.32 392.25 200.533 393.029 199.162 394.588V408H195.91ZM210.166 404.748V408H206.914V404.748H210.166Z" fill="#1E1E1E"/>
<path d="M631.808 264.599L594.529 247.927L578.946 223.581C577.591 221.52 575.884 219.86 573.95 218.721C572.015 217.583 569.901 216.995 567.76 217H529.208C526.85 216.999 524.528 217.716 522.444 219.088C520.36 220.46 518.577 222.445 517.251 224.871L504.175 248.767C501.452 253.74 499.997 259.619 500 265.637V312.99C500 314.581 500.508 316.107 501.412 317.232C502.316 318.357 503.543 318.989 504.821 318.989H515.149C516.198 324.138 518.596 328.705 521.965 331.967C525.334 335.229 529.481 337 533.75 337C538.019 337 542.166 335.229 545.535 331.967C548.904 328.705 551.302 324.138 552.351 318.989H582.649C583.698 324.138 586.096 328.705 589.465 331.967C592.834 335.229 596.981 337 601.25 337C605.519 337 609.666 335.229 613.035 331.967C616.404 328.705 618.802 324.138 619.851 318.989H630.179C631.457 318.989 632.684 318.357 633.588 317.232C634.492 316.107 635 314.581 635 312.99V270.244C635 269.009 634.693 267.804 634.122 266.793C633.551 265.783 632.743 265.017 631.808 264.599ZM533.75 324.989C531.843 324.989 529.978 324.285 528.393 322.966C526.807 321.648 525.571 319.774 524.841 317.582C524.111 315.389 523.92 312.976 524.292 310.649C524.665 308.321 525.583 306.183 526.931 304.505C528.28 302.827 529.998 301.685 531.869 301.222C533.739 300.759 535.678 300.996 537.44 301.904C539.202 302.813 540.708 304.35 541.768 306.324C542.827 308.297 543.393 310.617 543.393 312.99C543.389 316.171 542.372 319.22 540.564 321.469C538.757 323.718 536.306 324.984 533.75 324.989ZM601.25 324.989C599.343 324.989 597.478 324.285 595.893 322.966C594.307 321.648 593.071 319.774 592.341 317.582C591.611 315.389 591.42 312.976 591.792 310.649C592.165 308.321 593.083 306.183 594.431 304.505C595.78 302.827 597.498 301.685 599.369 301.222C601.239 300.759 603.178 300.996 604.94 301.904C606.702 302.813 608.208 304.35 609.268 306.324C610.327 308.297 610.893 310.617 610.893 312.99C610.889 316.171 609.872 319.22 608.064 321.469C606.257 323.718 603.806 324.984 601.25 324.989ZM625.357 306.99H619.851C618.802 301.842 616.404 297.275 613.035 294.013C609.666 290.751 605.519 288.98 601.25 288.98C596.981 288.98 592.834 290.751 589.465 294.013C586.096 297.275 583.698 301.842 582.649 306.99H552.351C551.302 301.842 548.904 297.275 545.535 294.013C542.166 290.751 538.019 288.98 533.75 288.98C529.481 288.98 525.334 290.751 521.965 294.013C518.596 297.275 516.198 301.842 515.149 306.99H509.643V265.637C509.642 262.025 510.516 258.496 512.15 255.51L525.221 231.626C525.663 230.817 526.257 230.154 526.952 229.696C527.647 229.238 528.422 228.999 529.208 228.999H567.76C568.462 228.996 569.156 229.185 569.793 229.553C570.429 229.922 570.993 230.459 571.444 231.129L587.837 256.734C588.394 257.605 589.135 258.265 589.978 258.642L625.357 274.462V306.99Z" fill="black"/>
<path d="M433 412V396.267H700V412H433ZM470.127 380.533C464.124 380.533 459.113 378.105 455.093 373.249C451.065 368.403 449.051 362.356 449.051 355.108V201.394C449.051 194.156 451.065 188.115 455.093 183.269C459.121 178.423 464.133 176 470.127 176H662.873C668.876 176 673.887 178.423 677.907 183.269C681.935 188.125 683.949 194.172 683.949 201.409V355.124C683.949 362.361 681.939 368.403 677.92 373.249C673.9 378.095 668.885 380.523 662.873 380.533H470.127ZM470.127 364.8H662.873C664.874 364.8 666.714 363.788 668.393 361.763C670.064 359.75 670.899 357.531 670.899 355.108V201.394C670.899 198.981 670.064 196.768 668.393 194.754C666.714 192.74 664.874 191.733 662.873 191.733H470.127C468.126 191.733 466.286 192.74 464.607 194.754C462.936 196.768 462.101 198.986 462.101 201.409V355.124C462.101 357.536 462.936 359.75 464.607 361.763C466.286 363.788 468.126 364.8 470.127 364.8Z" fill="black"/>
</svg>
