<svg width="1372" height="342" viewBox="0 0 1372 342" fill="none" xmlns="http://www.w3.org/2000/svg">
<mask id="path-1-inside-1_316_53" fill="white">
<path d="M0 0H1372V342H0V0Z"/>
</mask>
<path d="M0 0H1372V342H0V0Z" fill="white"/>
<path d="M0 1H1372V-1H0V1ZM1372 341H0V343H1372V341Z" fill="#CCCCCC" mask="url(#path-1-inside-1_316_53)"/>
<path d="M150.867 88.5078C156.661 88.5078 159.559 85.0964 159.559 78.2734C159.559 72.4661 156.661 69.5625 150.867 69.5625H145.105V88.5078H150.867ZM139.93 93V65.0703H150.867C160.112 65.0703 164.734 69.4714 164.734 78.2734C164.734 88.0911 160.112 93 150.867 93H139.93ZM177.312 72.4922C183.536 72.4922 186.648 75.6693 186.648 82.0234C186.648 82.8698 186.59 83.7161 186.473 84.5625H172.859C172.859 87.4531 174.982 88.8984 179.227 88.8984C181.297 88.8984 183.367 88.7031 185.438 88.3125V92.4141C183.628 92.8047 181.427 93 178.836 93C171.401 93 167.684 89.5039 167.684 82.5117C167.684 75.832 170.893 72.4922 177.312 72.4922ZM172.859 80.9688H181.609V80.8125C181.609 77.974 180.177 76.5547 177.312 76.5547C174.578 76.5547 173.094 78.026 172.859 80.9688ZM190.535 92.0234V87.7266C192.814 88.638 195.444 89.0938 198.426 89.0938C200.652 89.0938 201.766 88.3776 201.766 86.9453C201.766 85.5781 201.017 84.8945 199.52 84.8945H195.809C191.642 84.8945 189.559 82.8438 189.559 78.7422C189.559 74.4453 192.599 72.2969 198.68 72.2969C201.258 72.2969 203.686 72.6875 205.965 73.4688V77.7656C203.686 76.8542 201.212 76.3984 198.543 76.3984C195.743 76.3984 194.344 77.1146 194.344 78.5469C194.344 79.9141 195.158 80.5977 196.785 80.5977H200.105C204.663 80.5977 206.941 82.6484 206.941 86.75C206.941 91.0469 204.038 93.1953 198.23 93.1953C195.379 93.1953 192.814 92.8047 190.535 92.0234ZM210.574 93V65.0703H215.75V75.1094C217.365 73.3646 219.428 72.4922 221.941 72.4922C226.798 72.4922 229.227 75.0182 229.227 80.0703V93H224.051V80.0703C224.051 77.8047 222.924 76.6719 220.672 76.6719C218.992 76.6719 217.352 77.3424 215.75 78.6836V93H210.574ZM233.152 86.6133C233.152 82.5378 236.121 80.5 242.059 80.5C243.452 80.5 244.845 80.6302 246.238 80.8906V79.3477C246.238 77.5117 244.917 76.5938 242.273 76.5938C240.034 76.5938 237.547 76.9193 234.812 77.5703V73.4688C237.547 72.8177 240.034 72.4922 242.273 72.4922C248.367 72.4922 251.414 74.7448 251.414 79.25V93H248.406L246.57 91.1641C244.786 92.388 242.82 93 240.672 93C235.659 93 233.152 90.8711 233.152 86.6133ZM246.238 84.4062C244.936 84.1458 243.543 84.0156 242.059 84.0156C239.572 84.0156 238.328 84.862 238.328 86.5547C238.328 88.3776 239.37 89.2891 241.453 89.2891C243.172 89.2891 244.767 88.7552 246.238 87.6875V84.4062ZM256.219 72.4922H272.039V76.5938L261.551 89.0938H271.648V93H255.828V89.0938L266.473 76.5938H256.219V72.4922ZM275.359 69.1719H279.188L279.969 72.4922H285.125V76.5938H280.535V86.0273C280.535 87.9414 281.362 88.8984 283.016 88.8984H285.125V93H280.516C277.078 93 275.359 91.1576 275.359 87.4727V69.1719ZM297.312 72.4922C303.536 72.4922 306.648 75.6693 306.648 82.0234C306.648 82.8698 306.59 83.7161 306.473 84.5625H292.859C292.859 87.4531 294.982 88.8984 299.227 88.8984C301.297 88.8984 303.367 88.7031 305.438 88.3125V92.4141C303.628 92.8047 301.427 93 298.836 93C291.401 93 287.684 89.5039 287.684 82.5117C287.684 75.832 290.893 72.4922 297.312 72.4922ZM292.859 80.9688H301.609V80.8125C301.609 77.974 300.177 76.5547 297.312 76.5547C294.578 76.5547 293.094 78.026 292.859 80.9688ZM332.312 77.8438C331.245 77.1406 329.904 76.7891 328.289 76.7891C325.073 76.7891 323.465 78.5924 323.465 82.1992C323.465 86.4831 325.138 88.625 328.484 88.625C329.839 88.625 331.115 88.4362 332.312 88.0586V77.8438ZM337.488 91.7695C334.35 92.5898 331.284 93 328.289 93C321.661 93 318.348 89.4453 318.348 82.3359C318.348 75.7734 321.59 72.4922 328.074 72.4922C329.454 72.4922 330.867 72.8177 332.312 73.4688V65.0703H337.488V91.7695ZM351.023 72.4922C357.247 72.4922 360.359 75.6693 360.359 82.0234C360.359 82.8698 360.301 83.7161 360.184 84.5625H346.57C346.57 87.4531 348.693 88.8984 352.938 88.8984C355.008 88.8984 357.078 88.7031 359.148 88.3125V92.4141C357.339 92.8047 355.138 93 352.547 93C345.112 93 341.395 89.5039 341.395 82.5117C341.395 75.832 344.604 72.4922 351.023 72.4922ZM346.57 80.9688H355.32V80.8125C355.32 77.974 353.888 76.5547 351.023 76.5547C348.289 76.5547 346.805 78.026 346.57 80.9688ZM372.742 69.1719H376.57L377.352 72.4922H382.508V76.5938H377.918V86.0273C377.918 87.9414 378.745 88.8984 380.398 88.8984H382.508V93H377.898C374.461 93 372.742 91.1576 372.742 87.4727V69.1719ZM404.5 72.4922V93H400.457L399.832 90.3828C397.475 92.1276 394.975 93 392.332 93C388.139 93 386.043 90.5195 386.043 85.5586V72.4922H391.219V85.4219C391.219 87.6875 392.208 88.8203 394.188 88.8203C395.867 88.8203 397.579 88.1497 399.324 86.8086V72.4922H404.5ZM415.75 72.4922H421.219L426.199 86.8281L431.375 72.4922H436.844L428.504 93H423.582L415.75 72.4922ZM447.938 72.4922C454.161 72.4922 457.273 75.6693 457.273 82.0234C457.273 82.8698 457.215 83.7161 457.098 84.5625H443.484C443.484 87.4531 445.607 88.8984 449.852 88.8984C451.922 88.8984 453.992 88.7031 456.062 88.3125V92.4141C454.253 92.8047 452.052 93 449.461 93C442.026 93 438.309 89.5039 438.309 82.5117C438.309 75.832 441.518 72.4922 447.938 72.4922ZM443.484 80.9688H452.234V80.8125C452.234 77.974 450.802 76.5547 447.938 76.5547C445.203 76.5547 443.719 78.026 443.484 80.9688ZM461.16 93V65.0703H466.336V75.1094C467.951 73.3646 470.014 72.4922 472.527 72.4922C477.384 72.4922 479.812 75.0182 479.812 80.0703V93H474.637V80.0703C474.637 77.8047 473.51 76.6719 471.258 76.6719C469.578 76.6719 467.938 77.3424 466.336 78.6836V93H461.16ZM489.891 72.4922V93H484.715V72.4922H489.891ZM487.098 65.0703H493.328L488.66 70.1289H484.285L487.098 65.0703ZM509.93 92.4141C508.237 92.8047 506.479 93 504.656 93C497.365 93 493.719 89.4518 493.719 82.3555C493.719 75.7799 497.365 72.4922 504.656 72.4922C506.479 72.4922 508.237 72.6875 509.93 73.0781V77.1797C508.237 76.7891 506.609 76.5938 505.047 76.5938C500.945 76.5938 498.895 78.5143 498.895 82.3555C498.895 86.7174 500.945 88.8984 505.047 88.8984C506.609 88.8984 508.237 88.7031 509.93 88.3125V92.4141ZM531.805 72.4922V93H527.762L527.137 90.3828C524.78 92.1276 522.28 93 519.637 93C515.444 93 513.348 90.5195 513.348 85.5586V72.4922H518.523V85.4219C518.523 87.6875 519.513 88.8203 521.492 88.8203C523.172 88.8203 524.884 88.1497 526.629 86.8086V72.4922H531.805ZM541.883 65.0703V93H536.707V65.0703H541.883ZM550.984 82.668C550.984 86.9518 552.645 89.0938 555.965 89.0938C559.285 89.0938 560.945 86.9518 560.945 82.668C560.945 78.4883 559.285 76.3984 555.965 76.3984C552.645 76.3984 550.984 78.4883 550.984 82.668ZM545.809 82.7461C545.809 75.8711 549.194 72.4336 555.965 72.4336C562.736 72.4336 566.121 75.8711 566.121 82.7461C566.121 89.6081 562.736 93.0391 555.965 93.0391C549.22 93.0391 545.835 89.6081 545.809 82.7461ZM591.805 77.8438C590.737 77.1406 589.396 76.7891 587.781 76.7891C584.565 76.7891 582.957 78.5924 582.957 82.1992C582.957 86.4831 584.63 88.625 587.977 88.625C589.331 88.625 590.607 88.4362 591.805 88.0586V77.8438ZM596.98 91.7695C593.842 92.5898 590.776 93 587.781 93C581.154 93 577.84 89.4453 577.84 82.3359C577.84 75.7734 581.082 72.4922 587.566 72.4922C588.947 72.4922 590.359 72.8177 591.805 73.4688V65.0703H596.98V91.7695ZM610.516 72.4922C616.74 72.4922 619.852 75.6693 619.852 82.0234C619.852 82.8698 619.793 83.7161 619.676 84.5625H606.062C606.062 87.4531 608.185 88.8984 612.43 88.8984C614.5 88.8984 616.57 88.7031 618.641 88.3125V92.4141C616.831 92.8047 614.63 93 612.039 93C604.604 93 600.887 89.5039 600.887 82.5117C600.887 75.832 604.096 72.4922 610.516 72.4922ZM606.062 80.9688H614.812V80.8125C614.812 77.974 613.38 76.5547 610.516 76.5547C607.781 76.5547 606.297 78.026 606.062 80.9688ZM632.527 93V72.4922C632.527 66.8672 635.6 64.0547 641.746 64.0547C643.426 64.0547 644.949 64.3151 646.316 64.8359V68.9375C645.027 68.4167 643.628 68.1562 642.117 68.1562C639.174 68.1562 637.703 69.6016 637.703 72.4922H643.855V76.5938H637.703V93H632.527ZM651.219 82.668C651.219 86.9518 652.879 89.0938 656.199 89.0938C659.52 89.0938 661.18 86.9518 661.18 82.668C661.18 78.4883 659.52 76.3984 656.199 76.3984C652.879 76.3984 651.219 78.4883 651.219 82.668ZM646.043 82.7461C646.043 75.8711 649.428 72.4336 656.199 72.4336C662.97 72.4336 666.355 75.8711 666.355 82.7461C666.355 89.6081 662.97 93.0391 656.199 93.0391C649.454 93.0391 646.069 89.6081 646.043 82.7461ZM670.262 93V72.4922H674.266L674.91 75.1094C676.707 73.3646 678.608 72.4922 680.613 72.4922V76.6719C678.686 76.6719 676.961 77.4727 675.438 79.0742V93H670.262ZM683.543 93V72.4922H687.547L688.152 75.4609C689.988 73.4818 692.195 72.4922 694.773 72.4922C697.352 72.4922 699.116 73.4297 700.066 75.3047C702.163 73.4297 704.357 72.4922 706.648 72.4922C711.362 72.4922 713.719 75.0898 713.719 80.2852V93H708.543V80.0898C708.543 77.8112 707.514 76.6719 705.457 76.6719C703.921 76.6719 702.443 77.362 701.023 78.7422V93H695.848V80.1484C695.848 77.8307 694.897 76.6719 692.996 76.6719C691.486 76.6719 690.06 77.362 688.719 78.7422V93H683.543ZM717.645 86.6133C717.645 82.5378 720.613 80.5 726.551 80.5C727.944 80.5 729.337 80.6302 730.73 80.8906V79.3477C730.73 77.5117 729.409 76.5938 726.766 76.5938C724.526 76.5938 722.039 76.9193 719.305 77.5703V73.4688C722.039 72.8177 724.526 72.4922 726.766 72.4922C732.859 72.4922 735.906 74.7448 735.906 79.25V93H732.898L731.062 91.1641C729.279 92.388 727.312 93 725.164 93C720.151 93 717.645 90.8711 717.645 86.6133ZM730.73 84.4062C729.428 84.1458 728.035 84.0156 726.551 84.0156C724.064 84.0156 722.82 84.862 722.82 86.5547C722.82 88.3776 723.862 89.2891 725.945 89.2891C727.664 89.2891 729.259 88.7552 730.73 87.6875V84.4062ZM144.617 110.07V114.172H139.441V110.07H144.617ZM144.617 117.492V138H139.441V117.492H144.617ZM149.52 138V117.492H153.523L154.168 120.5C156.134 118.495 158.374 117.492 160.887 117.492C165.743 117.492 168.172 120.018 168.172 125.07V138H162.996V125.07C162.996 122.805 161.87 121.672 159.617 121.672C157.938 121.672 156.297 122.342 154.695 123.684V138H149.52ZM172.781 114.172H176.609L177.391 117.492H182.547V121.594H177.957V131.027C177.957 132.941 178.784 133.898 180.438 133.898H182.547V138H177.938C174.5 138 172.781 136.158 172.781 132.473V114.172ZM194.734 117.492C200.958 117.492 204.07 120.669 204.07 127.023C204.07 127.87 204.012 128.716 203.895 129.562H190.281C190.281 132.453 192.404 133.898 196.648 133.898C198.719 133.898 200.789 133.703 202.859 133.312V137.414C201.049 137.805 198.849 138 196.258 138C188.823 138 185.105 134.504 185.105 127.512C185.105 120.832 188.315 117.492 194.734 117.492ZM190.281 125.969H199.031V125.812C199.031 122.974 197.599 121.555 194.734 121.555C192 121.555 190.516 123.026 190.281 125.969ZM213.133 110.07V138H207.957V110.07H213.133ZM223.211 110.07V114.172H218.035V110.07H223.211ZM223.211 117.492V138H218.035V117.492H223.211ZM241.238 122.141C240.392 121.828 239.188 121.672 237.625 121.672C234.044 121.672 232.254 123.645 232.254 127.59C232.254 131.405 233.797 133.312 236.883 133.312C238.367 133.312 239.819 132.961 241.238 132.258V122.141ZM246.414 136.438C246.414 142.427 242.814 145.422 235.613 145.422C233.087 145.422 230.848 145.096 228.895 144.445V140.344C230.887 140.995 233.139 141.32 235.652 141.32C239.376 141.32 241.238 139.758 241.238 136.633C239.702 137.284 238.048 137.609 236.277 137.609C230.184 137.609 227.137 134.283 227.137 127.629C227.137 120.871 230.685 117.492 237.781 117.492C240.164 117.492 243.042 117.772 246.414 118.332V136.438ZM259.969 117.492C266.193 117.492 269.305 120.669 269.305 127.023C269.305 127.87 269.246 128.716 269.129 129.562H255.516C255.516 132.453 257.638 133.898 261.883 133.898C263.953 133.898 266.023 133.703 268.094 133.312V137.414C266.284 137.805 264.083 138 261.492 138C254.057 138 250.34 134.504 250.34 127.512C250.34 120.832 253.549 117.492 259.969 117.492ZM255.516 125.969H264.266V125.812C264.266 122.974 262.833 121.555 259.969 121.555C257.234 121.555 255.75 123.026 255.516 125.969ZM273.191 138V117.492H277.195L277.84 120.5C279.806 118.495 282.046 117.492 284.559 117.492C289.415 117.492 291.844 120.018 291.844 125.07V138H286.668V125.07C286.668 122.805 285.542 121.672 283.289 121.672C281.609 121.672 279.969 122.342 278.367 123.684V138H273.191ZM296.453 114.172H300.281L301.062 117.492H306.219V121.594H301.629V131.027C301.629 132.941 302.456 133.898 304.109 133.898H306.219V138H301.609C298.172 138 296.453 136.158 296.453 132.473V114.172ZM318.406 117.492C324.63 117.492 327.742 120.669 327.742 127.023C327.742 127.87 327.684 128.716 327.566 129.562H313.953C313.953 132.453 316.076 133.898 320.32 133.898C322.391 133.898 324.461 133.703 326.531 133.312V137.414C324.721 137.805 322.521 138 319.93 138C312.495 138 308.777 134.504 308.777 127.512C308.777 120.832 311.987 117.492 318.406 117.492ZM313.953 125.969H322.703V125.812C322.703 122.974 321.271 121.555 318.406 121.555C315.672 121.555 314.188 123.026 313.953 125.969ZM337.977 117.492H343.465L348.641 132.258L353.699 117.492H359.09L350.574 138.605C349.064 142.329 346.648 144.979 343.328 146.555L340.828 143.02C343.12 142.017 344.786 140.383 345.828 138.117L337.977 117.492ZM370.34 138V117.492H374.344L374.988 120.109C376.785 118.365 378.686 117.492 380.691 117.492V121.672C378.764 121.672 377.039 122.473 375.516 124.074V138H370.34ZM392.273 117.492C398.497 117.492 401.609 120.669 401.609 127.023C401.609 127.87 401.551 128.716 401.434 129.562H387.82C387.82 132.453 389.943 133.898 394.188 133.898C396.258 133.898 398.328 133.703 400.398 133.312V137.414C398.589 137.805 396.388 138 393.797 138C386.362 138 382.645 134.504 382.645 127.512C382.645 120.832 385.854 117.492 392.273 117.492ZM387.82 125.969H396.57V125.812C396.57 122.974 395.138 121.555 392.273 121.555C389.539 121.555 388.055 123.026 387.82 125.969ZM405.496 138V117.492H409.5L410.145 120.5C412.111 118.495 414.35 117.492 416.863 117.492C421.72 117.492 424.148 120.018 424.148 125.07V138H418.973V125.07C418.973 122.805 417.846 121.672 415.594 121.672C413.914 121.672 412.273 122.342 410.672 123.684V138H405.496ZM428.758 114.172H432.586L433.367 117.492H438.523V121.594H433.934V131.027C433.934 132.941 434.76 133.898 436.414 133.898H438.523V138H433.914C430.477 138 428.758 136.158 428.758 132.473V114.172ZM441.082 131.613C441.082 127.538 444.051 125.5 449.988 125.5C451.382 125.5 452.775 125.63 454.168 125.891V124.348C454.168 122.512 452.846 121.594 450.203 121.594C447.964 121.594 445.477 121.919 442.742 122.57V118.469C445.477 117.818 447.964 117.492 450.203 117.492C456.297 117.492 459.344 119.745 459.344 124.25V138H456.336L454.5 136.164C452.716 137.388 450.75 138 448.602 138C443.589 138 441.082 135.871 441.082 131.613ZM454.168 129.406C452.866 129.146 451.473 129.016 449.988 129.016C447.501 129.016 446.258 129.862 446.258 131.555C446.258 133.378 447.299 134.289 449.383 134.289C451.102 134.289 452.697 133.755 454.168 132.688V129.406ZM469.422 133.254C470.607 133.632 471.98 133.82 473.543 133.82C476.668 133.82 478.23 131.613 478.23 127.199C478.23 123.592 476.883 121.789 474.188 121.789C472.443 121.789 470.854 122.141 469.422 122.844V133.254ZM464.246 110.07H469.422V119.055C470.971 118.013 472.697 117.492 474.598 117.492C480.431 117.492 483.348 120.773 483.348 127.336C483.348 134.445 480.008 138 473.328 138C470.516 138 467.488 137.72 464.246 137.16V110.07ZM492.43 110.07V138H487.254V110.07H492.43ZM505.984 117.492C512.208 117.492 515.32 120.669 515.32 127.023C515.32 127.87 515.262 128.716 515.145 129.562H501.531C501.531 132.453 503.654 133.898 507.898 133.898C509.969 133.898 512.039 133.703 514.109 133.312V137.414C512.299 137.805 510.099 138 507.508 138C500.073 138 496.355 134.504 496.355 127.512C496.355 120.832 499.565 117.492 505.984 117.492ZM501.531 125.969H510.281V125.812C510.281 122.974 508.849 121.555 505.984 121.555C503.25 121.555 501.766 123.026 501.531 125.969Z" fill="#1E1E1E"/>
<path d="M153.957 167.242L146.844 184H144.441L137.293 167.242H139.578L145.719 181.75L151.707 167.242H153.957ZM161.082 171.695C164.582 171.695 166.332 173.426 166.332 176.887C166.332 177.379 166.297 177.906 166.227 178.469H157.59C157.59 180.984 159.059 182.242 161.996 182.242C163.395 182.242 164.637 182.086 165.723 181.773V183.531C164.637 183.844 163.316 184 161.762 184C157.535 184 155.422 181.902 155.422 177.707C155.422 173.699 157.309 171.695 161.082 171.695ZM157.59 176.664H164.246C164.199 174.508 163.145 173.43 161.082 173.43C158.895 173.43 157.73 174.508 157.59 176.664ZM169.25 184V171.695H170.715L171.102 173.266C172.359 172.219 173.742 171.695 175.25 171.695C178.32 171.695 179.855 173.223 179.855 176.277V184H177.688V176.242C177.688 174.414 176.777 173.5 174.957 173.5C173.715 173.5 172.535 174.02 171.418 175.059V184H169.25ZM191.645 174.203C190.77 173.781 189.77 173.57 188.645 173.57C186.168 173.57 184.93 174.887 184.93 177.52C184.93 180.637 186.168 182.195 188.645 182.195C189.77 182.195 190.77 182.043 191.645 181.738V174.203ZM193.812 183.262C192.32 183.754 190.48 184 188.293 184C184.629 184 182.797 181.867 182.797 177.602C182.797 173.664 184.742 171.695 188.633 171.695C189.695 171.695 190.699 171.891 191.645 172.281V167.242H193.812V183.262ZM202.402 171.695C205.902 171.695 207.652 173.426 207.652 176.887C207.652 177.379 207.617 177.906 207.547 178.469H198.91C198.91 180.984 200.379 182.242 203.316 182.242C204.715 182.242 205.957 182.086 207.043 181.773V183.531C205.957 183.844 204.637 184 203.082 184C198.855 184 196.742 181.902 196.742 177.707C196.742 173.699 198.629 171.695 202.402 171.695ZM198.91 176.664H205.566C205.52 174.508 204.465 173.43 202.402 173.43C200.215 173.43 199.051 174.508 198.91 176.664ZM229.193 169.703H230.552L231.021 171.695H234.349V173.453H231.361V180.52C231.361 181.668 231.857 182.242 232.849 182.242H234.349V184H232.287C230.224 184 229.193 182.895 229.193 180.684V169.703ZM247.72 171.695V184H246.232L245.857 182.43C244.365 183.477 242.865 184 241.357 184C238.529 184 237.115 182.473 237.115 179.418V171.695H239.283V179.453C239.283 181.281 240.189 182.195 242.002 182.195C243.244 182.195 244.427 181.676 245.552 180.637V171.695H247.72ZM268.113 171.695H270.456L273.984 181.34L277.488 171.695H279.831L274.828 184H272.812L268.113 171.695ZM286.663 171.695C290.163 171.695 291.913 173.426 291.913 176.887C291.913 177.379 291.878 177.906 291.808 178.469H283.171C283.171 180.984 284.64 182.242 287.578 182.242C288.976 182.242 290.218 182.086 291.304 181.773V183.531C290.218 183.844 288.898 184 287.343 184C283.117 184 281.003 181.902 281.003 177.707C281.003 173.699 282.89 171.695 286.663 171.695ZM283.171 176.664H289.828C289.781 174.508 288.726 173.43 286.663 173.43C284.476 173.43 283.312 174.508 283.171 176.664ZM294.831 184V167.242H296.999V173.031C298.046 172.141 299.324 171.695 300.831 171.695C303.902 171.695 305.437 173.223 305.437 176.277V184H303.269V176.242C303.269 174.414 302.359 173.5 300.538 173.5C299.296 173.5 298.117 174.02 296.999 175.059V184H294.831ZM311.367 171.695V184H309.199V171.695H311.367ZM310.628 167.242H313.429L310.628 170.043H308.706L310.628 167.242ZM324.386 183.648C323.371 183.883 322.277 184 321.105 184C316.73 184 314.542 181.871 314.542 177.613C314.542 173.668 316.73 171.695 321.105 171.695C322.277 171.695 323.371 171.812 324.386 172.047V173.805C323.371 173.57 322.238 173.453 320.988 173.453C318.136 173.453 316.71 174.84 316.71 177.613C316.71 180.699 318.136 182.242 320.988 182.242C322.238 182.242 323.371 182.125 324.386 181.891V183.648ZM337.757 171.695V184H336.269L335.894 182.43C334.402 183.477 332.902 184 331.394 184C328.566 184 327.152 182.473 327.152 179.418V171.695H329.32V179.453C329.32 181.281 330.226 182.195 332.038 182.195C333.281 182.195 334.464 181.676 335.589 180.637V171.695H337.757ZM343.57 167.242V184H341.402V167.242H343.57ZM348.796 177.801C348.796 180.762 350.027 182.242 352.488 182.242C354.949 182.242 356.179 180.762 356.179 177.801C356.179 174.902 354.949 173.453 352.488 173.453C350.027 173.453 348.796 174.902 348.796 177.801ZM346.628 177.848C346.628 173.746 348.581 171.695 352.488 171.695C356.394 171.695 358.347 173.746 358.347 177.848C358.347 181.941 356.394 183.988 352.488 183.988C348.597 183.988 346.644 181.941 346.628 177.848ZM379.9 184V171.098C379.9 168.121 381.587 166.633 384.962 166.633C385.892 166.633 386.767 166.789 387.587 167.102V168.859C386.814 168.547 385.935 168.391 384.95 168.391C383.028 168.391 382.068 169.262 382.068 171.004V171.695H385.876V173.453H382.068V184H379.9ZM387.657 180.285C387.657 177.762 389.321 176.5 392.65 176.5C393.72 176.5 394.79 176.578 395.86 176.734V175.574C395.86 174.16 394.755 173.453 392.544 173.453C391.278 173.453 389.982 173.648 388.653 174.039V172.281C389.982 171.891 391.278 171.695 392.544 171.695C396.2 171.695 398.028 172.969 398.028 175.516V184H396.81L396.06 182.781C394.833 183.594 393.497 184 392.052 184C389.122 184 387.657 182.762 387.657 180.285ZM392.65 178.258C390.767 178.258 389.825 178.922 389.825 180.25C389.825 181.578 390.568 182.242 392.052 182.242C393.552 182.242 394.821 181.844 395.86 181.047V178.492C394.79 178.336 393.72 178.258 392.65 178.258ZM393.189 167.242H395.989L393.189 170.043H391.267L393.189 167.242ZM410.814 183.648C409.798 183.883 408.704 184 407.532 184C403.157 184 400.97 181.871 400.97 177.613C400.97 173.668 403.157 171.695 407.532 171.695C408.704 171.695 409.798 171.812 410.814 172.047V173.805C409.798 173.57 408.665 173.453 407.415 173.453C404.564 173.453 403.138 174.84 403.138 177.613C403.138 180.699 404.564 182.242 407.415 182.242C408.665 182.242 409.798 182.125 410.814 181.891V183.648ZM415.982 171.695V184H413.814V171.695H415.982ZM415.982 167.242V169.293H413.814V167.242H415.982ZM422.028 167.242V184H419.861V167.242H422.028ZM425.673 184V171.695H427.138L427.501 173.242C428.681 172.211 429.966 171.695 431.357 171.695C433.138 171.695 434.353 172.258 435.001 173.383C436.337 172.258 437.693 171.695 439.068 171.695C441.896 171.695 443.31 173.254 443.31 176.371V184H441.142V176.254C441.142 174.418 440.368 173.5 438.821 173.5C437.665 173.5 436.583 174.031 435.575 175.094V184H433.407V176.289C433.407 174.43 432.642 173.5 431.111 173.5C429.892 173.5 428.802 174.031 427.841 175.094V184H425.673ZM451.911 171.695C455.411 171.695 457.161 173.426 457.161 176.887C457.161 177.379 457.126 177.906 457.056 178.469H448.419C448.419 180.984 449.888 182.242 452.825 182.242C454.224 182.242 455.466 182.086 456.552 181.773V183.531C455.466 183.844 454.146 184 452.591 184C448.364 184 446.251 181.902 446.251 177.707C446.251 173.699 448.138 171.695 451.911 171.695ZM448.419 176.664H455.075C455.028 174.508 453.974 173.43 451.911 173.43C449.724 173.43 448.56 174.508 448.419 176.664ZM460.079 184V171.695H461.544L461.931 173.266C463.189 172.219 464.571 171.695 466.079 171.695C469.15 171.695 470.685 173.223 470.685 176.277V184H468.517V176.242C468.517 174.414 467.607 173.5 465.786 173.5C464.544 173.5 463.364 174.02 462.247 175.059V184H460.079ZM474.212 169.703H475.571L476.04 171.695H479.368V173.453H476.38V180.52C476.38 181.668 476.876 182.242 477.868 182.242H479.368V184H477.306C475.243 184 474.212 182.895 474.212 180.684V169.703ZM487.208 171.695C490.708 171.695 492.458 173.426 492.458 176.887C492.458 177.379 492.423 177.906 492.353 178.469H483.716C483.716 180.984 485.185 182.242 488.122 182.242C489.521 182.242 490.763 182.086 491.849 181.773V183.531C490.763 183.844 489.443 184 487.888 184C483.661 184 481.548 181.902 481.548 177.707C481.548 173.699 483.435 171.695 487.208 171.695ZM483.716 176.664H490.372C490.325 174.508 489.271 173.43 487.208 173.43C485.021 173.43 483.857 174.508 483.716 176.664ZM513.413 180.285C513.413 177.762 515.077 176.5 518.405 176.5C519.475 176.5 520.546 176.578 521.616 176.734V175.574C521.616 174.16 520.511 173.453 518.3 173.453C517.034 173.453 515.737 173.648 514.409 174.039V172.281C515.737 171.891 517.034 171.695 518.3 171.695C521.956 171.695 523.784 172.969 523.784 175.516V184H522.565L521.815 182.781C520.589 183.594 519.253 184 517.807 184C514.878 184 513.413 182.762 513.413 180.285ZM518.405 178.258C516.522 178.258 515.581 178.922 515.581 180.25C515.581 181.578 516.323 182.242 517.807 182.242C519.307 182.242 520.577 181.844 521.616 181.047V178.492C520.546 178.336 519.475 178.258 518.405 178.258ZM545.934 169.703H547.294L547.762 171.695H551.09V173.453H548.102V180.52C548.102 181.668 548.598 182.242 549.59 182.242H551.09V184H549.028C546.965 184 545.934 182.895 545.934 180.684V169.703ZM553.856 184V171.695H555.321L555.708 173.266C556.786 172.219 558.083 171.695 559.598 171.695V173.5C558.129 173.5 556.938 174.02 556.024 175.059V184H553.856ZM561.192 180.285C561.192 177.762 562.856 176.5 566.184 176.5C567.254 176.5 568.325 176.578 569.395 176.734V175.574C569.395 174.16 568.29 173.453 566.079 173.453C564.813 173.453 563.516 173.648 562.188 174.039V172.281C563.516 171.891 564.813 171.695 566.079 171.695C569.735 171.695 571.563 172.969 571.563 175.516V184H570.344L569.594 182.781C568.368 183.594 567.032 184 565.586 184C562.657 184 561.192 182.762 561.192 180.285ZM566.184 178.258C564.301 178.258 563.36 178.922 563.36 180.25C563.36 181.578 564.102 182.242 565.586 182.242C567.086 182.242 568.356 181.844 569.395 181.047V178.492C568.325 178.336 567.254 178.258 566.184 178.258ZM573.333 171.695H575.676L579.204 181.34L582.708 171.695H585.051L580.047 184H578.032L573.333 171.695ZM591.883 171.695C595.383 171.695 597.133 173.426 597.133 176.887C597.133 177.379 597.098 177.906 597.028 178.469H588.391C588.391 180.984 589.86 182.242 592.797 182.242C594.196 182.242 595.438 182.086 596.524 181.773V183.531C595.438 183.844 594.118 184 592.563 184C588.336 184 586.223 181.902 586.223 177.707C586.223 173.699 588.11 171.695 591.883 171.695ZM588.391 176.664H595.047C595.001 174.508 593.946 173.43 591.883 173.43C589.696 173.43 588.532 174.508 588.391 176.664ZM592.024 167.242H594.825L592.024 170.043H590.102L592.024 167.242ZM599.934 183.414V181.539C601.379 182.008 602.84 182.242 604.317 182.242C606.278 182.242 607.258 181.656 607.258 180.484C607.258 179.391 606.575 178.844 605.208 178.844H603.45C600.794 178.844 599.465 177.633 599.465 175.211C599.465 172.867 601.172 171.695 604.586 171.695C606.055 171.695 607.512 171.891 608.958 172.281V174.156C607.512 173.688 606.055 173.453 604.586 173.453C602.54 173.453 601.516 174.039 601.516 175.211C601.516 176.305 602.161 176.852 603.45 176.852H605.208C608.02 176.852 609.426 178.062 609.426 180.484C609.426 182.828 607.723 184 604.317 184C602.84 184 601.379 183.805 599.934 183.414ZM639.241 174.203C638.366 173.781 637.366 173.57 636.241 173.57C633.764 173.57 632.526 174.887 632.526 177.52C632.526 180.637 633.764 182.195 636.241 182.195C637.366 182.195 638.366 182.043 639.241 181.738V174.203ZM641.408 183.262C639.916 183.754 638.076 184 635.889 184C632.225 184 630.393 181.867 630.393 177.602C630.393 173.664 632.338 171.695 636.229 171.695C637.291 171.695 638.295 171.891 639.241 172.281V167.242H641.408V183.262ZM649.998 171.695C653.498 171.695 655.248 173.426 655.248 176.887C655.248 177.379 655.213 177.906 655.143 178.469H646.506C646.506 180.984 647.975 182.242 650.912 182.242C652.311 182.242 653.553 182.086 654.639 181.773V183.531C653.553 183.844 652.233 184 650.678 184C646.451 184 644.338 181.902 644.338 177.707C644.338 173.699 646.225 171.695 649.998 171.695ZM646.506 176.664H653.162C653.116 174.508 652.061 173.43 649.998 173.43C647.811 173.43 646.647 174.508 646.506 176.664ZM676.789 184V171.695H678.254L678.641 173.266C679.898 172.219 681.281 171.695 682.789 171.695C685.859 171.695 687.395 173.223 687.395 176.277V184H685.227V176.242C685.227 174.414 684.316 173.5 682.496 173.5C681.254 173.5 680.074 174.02 678.957 175.059V184H676.789ZM701.527 171.695V184H700.039L699.664 182.43C698.172 183.477 696.672 184 695.164 184C692.336 184 690.922 182.473 690.922 179.418V171.695H693.09V179.453C693.09 181.281 693.996 182.195 695.809 182.195C697.051 182.195 698.234 181.676 699.359 180.637V171.695H701.527ZM710.129 171.695C713.629 171.695 715.379 173.426 715.379 176.887C715.379 177.379 715.344 177.906 715.273 178.469H706.637C706.637 180.984 708.105 182.242 711.043 182.242C712.441 182.242 713.684 182.086 714.77 181.773V183.531C713.684 183.844 712.363 184 710.809 184C706.582 184 704.469 181.902 704.469 177.707C704.469 173.699 706.355 171.695 710.129 171.695ZM706.637 176.664H713.293C713.246 174.508 712.191 173.43 710.129 173.43C707.941 173.43 706.777 174.508 706.637 176.664ZM718.18 183.414V181.539C719.625 182.008 721.086 182.242 722.562 182.242C724.523 182.242 725.504 181.656 725.504 180.484C725.504 179.391 724.82 178.844 723.453 178.844H721.695C719.039 178.844 717.711 177.633 717.711 175.211C717.711 172.867 719.418 171.695 722.832 171.695C724.301 171.695 725.758 171.891 727.203 172.281V174.156C725.758 173.688 724.301 173.453 722.832 173.453C720.785 173.453 719.762 174.039 719.762 175.211C719.762 176.305 720.406 176.852 721.695 176.852H723.453C726.266 176.852 727.672 178.062 727.672 180.484C727.672 182.828 725.969 184 722.562 184C721.086 184 719.625 183.805 718.18 183.414ZM730.602 169.703H731.961L732.43 171.695H735.758V173.453H732.77V180.52C732.77 181.668 733.266 182.242 734.258 182.242H735.758V184H733.695C731.633 184 730.602 182.895 730.602 180.684V169.703ZM738.523 184V171.695H739.988L740.375 173.266C741.453 172.219 742.75 171.695 744.266 171.695V173.5C742.797 173.5 741.605 174.02 740.691 175.059V184H738.523ZM745.859 180.285C745.859 177.762 747.523 176.5 750.852 176.5C751.922 176.5 752.992 176.578 754.062 176.734V175.574C754.062 174.16 752.957 173.453 750.746 173.453C749.48 173.453 748.184 173.648 746.855 174.039V172.281C748.184 171.891 749.48 171.695 750.746 171.695C754.402 171.695 756.23 172.969 756.23 175.516V184H755.012L754.262 182.781C753.035 183.594 751.699 184 750.254 184C747.324 184 745.859 182.762 745.859 180.285ZM750.852 178.258C748.969 178.258 748.027 178.922 748.027 180.25C748.027 181.578 748.77 182.242 750.254 182.242C751.754 182.242 753.023 181.844 754.062 181.047V178.492C752.992 178.336 751.922 178.258 750.852 178.258ZM140.926 208.492C141.777 208.914 142.727 209.125 143.773 209.125C146.328 209.125 147.605 207.59 147.605 204.52C147.605 201.84 146.336 200.5 143.797 200.5C142.703 200.5 141.746 200.594 140.926 200.781V208.492ZM138.758 199.199C140.391 198.863 142.078 198.695 143.82 198.695C147.766 198.695 149.738 200.645 149.738 204.543C149.738 208.848 147.754 211 143.785 211C142.801 211 141.848 210.805 140.926 210.414V215.453H138.758V199.199ZM154.965 194.242V211H152.797V194.242H154.965ZM158.023 207.285C158.023 204.762 159.688 203.5 163.016 203.5C164.086 203.5 165.156 203.578 166.227 203.734V202.574C166.227 201.16 165.121 200.453 162.91 200.453C161.645 200.453 160.348 200.648 159.02 201.039V199.281C160.348 198.891 161.645 198.695 162.91 198.695C166.566 198.695 168.395 199.969 168.395 202.516V211H167.176L166.426 209.781C165.199 210.594 163.863 211 162.418 211C159.488 211 158.023 209.762 158.023 207.285ZM163.016 205.258C161.133 205.258 160.191 205.922 160.191 207.25C160.191 208.578 160.934 209.242 162.418 209.242C163.918 209.242 165.188 208.844 166.227 208.047V205.492C165.156 205.336 164.086 205.258 163.016 205.258ZM171.922 196.703H173.281L173.75 198.695H177.078V200.453H174.09V207.52C174.09 208.668 174.586 209.242 175.578 209.242H177.078V211H175.016C172.953 211 171.922 209.895 171.922 207.684V196.703ZM179.258 207.285C179.258 204.762 180.922 203.5 184.25 203.5C185.32 203.5 186.391 203.578 187.461 203.734V202.574C187.461 201.16 186.355 200.453 184.145 200.453C182.879 200.453 181.582 200.648 180.254 201.039V199.281C181.582 198.891 182.879 198.695 184.145 198.695C187.801 198.695 189.629 199.969 189.629 202.516V211H188.41L187.66 209.781C186.434 210.594 185.098 211 183.652 211C180.723 211 179.258 209.762 179.258 207.285ZM184.25 205.258C182.367 205.258 181.426 205.922 181.426 207.25C181.426 208.578 182.168 209.242 183.652 209.242C185.152 209.242 186.422 208.844 187.461 208.047V205.492C186.391 205.336 185.32 205.258 184.25 205.258ZM193.156 211V198.098C193.156 195.121 194.844 193.633 198.219 193.633C199.148 193.633 200.023 193.789 200.844 194.102V195.859C200.07 195.547 199.191 195.391 198.207 195.391C196.285 195.391 195.324 196.262 195.324 198.004V198.695H199.133V200.453H195.324V211H193.156ZM203.082 204.801C203.082 207.762 204.312 209.242 206.773 209.242C209.234 209.242 210.465 207.762 210.465 204.801C210.465 201.902 209.234 200.453 206.773 200.453C204.312 200.453 203.082 201.902 203.082 204.801ZM200.914 204.848C200.914 200.746 202.867 198.695 206.773 198.695C210.68 198.695 212.633 200.746 212.633 204.848C212.633 208.941 210.68 210.988 206.773 210.988C202.883 210.988 200.93 208.941 200.914 204.848ZM215.562 211V198.695H217.027L217.414 200.266C218.492 199.219 219.789 198.695 221.305 198.695V200.5C219.836 200.5 218.645 201.02 217.73 202.059V211H215.562ZM223.484 211V198.695H224.949L225.312 200.242C226.492 199.211 227.777 198.695 229.168 198.695C230.949 198.695 232.164 199.258 232.812 200.383C234.148 199.258 235.504 198.695 236.879 198.695C239.707 198.695 241.121 200.254 241.121 203.371V211H238.953V203.254C238.953 201.418 238.18 200.5 236.633 200.5C235.477 200.5 234.395 201.031 233.387 202.094V211H231.219V203.289C231.219 201.43 230.453 200.5 228.922 200.5C227.703 200.5 226.613 201.031 225.652 202.094V211H223.484ZM244.062 207.285C244.062 204.762 245.727 203.5 249.055 203.5C250.125 203.5 251.195 203.578 252.266 203.734V202.574C252.266 201.16 251.16 200.453 248.949 200.453C247.684 200.453 246.387 200.648 245.059 201.039V199.281C246.387 198.891 247.684 198.695 248.949 198.695C252.605 198.695 254.434 199.969 254.434 202.516V211H253.215L252.465 209.781C251.238 210.594 249.902 211 248.457 211C245.527 211 244.062 209.762 244.062 207.285ZM249.055 205.258C247.172 205.258 246.23 205.922 246.23 207.25C246.23 208.578 246.973 209.242 248.457 209.242C249.957 209.242 251.227 208.844 252.266 208.047V205.492C251.195 205.336 250.125 205.258 249.055 205.258ZM260.422 208.832L258.664 213.93H256.496L258.254 208.832H260.422ZM271.981 211V198.695H273.446L273.809 200.242C274.989 199.211 276.274 198.695 277.665 198.695C279.446 198.695 280.661 199.258 281.309 200.383C282.645 199.258 284.001 198.695 285.376 198.695C288.204 198.695 289.618 200.254 289.618 203.371V211H287.45V203.254C287.45 201.418 286.677 200.5 285.13 200.5C283.973 200.5 282.891 201.031 281.884 202.094V211H279.716V203.289C279.716 201.43 278.95 200.5 277.419 200.5C276.2 200.5 275.11 201.031 274.149 202.094V211H271.981ZM292.559 207.285C292.559 204.762 294.223 203.5 297.552 203.5C298.622 203.5 299.692 203.578 300.762 203.734V202.574C300.762 201.16 299.657 200.453 297.446 200.453C296.18 200.453 294.884 200.648 293.555 201.039V199.281C294.884 198.891 296.18 198.695 297.446 198.695C301.102 198.695 302.93 199.969 302.93 202.516V211H301.712L300.962 209.781C299.735 210.594 298.399 211 296.954 211C294.024 211 292.559 209.762 292.559 207.285ZM297.552 205.258C295.669 205.258 294.727 205.922 294.727 207.25C294.727 208.578 295.47 209.242 296.954 209.242C298.454 209.242 299.723 208.844 300.762 208.047V205.492C299.692 205.336 298.622 205.258 297.552 205.258ZM309.598 204.848L304.993 198.695H307.512L310.852 203.16L314.192 198.695H316.712L312.118 204.848L316.712 211H314.192L310.852 206.535L307.512 211H304.993L309.598 204.848ZM321.165 198.695V211H318.997V198.695H321.165ZM321.165 194.242V196.293H318.997V194.242H321.165ZM324.927 211V198.695H326.391L326.755 200.242C327.934 199.211 329.22 198.695 330.61 198.695C332.391 198.695 333.606 199.258 334.255 200.383C335.591 199.258 336.946 198.695 338.321 198.695C341.149 198.695 342.563 200.254 342.563 203.371V211H340.395V203.254C340.395 201.418 339.622 200.5 338.075 200.5C336.919 200.5 335.837 201.031 334.829 202.094V211H332.661V203.289C332.661 201.43 331.895 200.5 330.364 200.5C329.145 200.5 328.055 201.031 327.095 202.094V211H324.927ZM348.493 198.695V211H346.325V198.695H348.493ZM348.493 194.242V196.293H346.325V194.242H348.493ZM351.903 198.695H361.512V200.453L354.165 209.359H361.278V211H351.669V209.359L359.11 200.453H351.903V198.695ZM363.856 207.285C363.856 204.762 365.52 203.5 368.848 203.5C369.919 203.5 370.989 203.578 372.059 203.734V202.574C372.059 201.16 370.954 200.453 368.743 200.453C367.477 200.453 366.18 200.648 364.852 201.039V199.281C366.18 198.891 367.477 198.695 368.743 198.695C372.399 198.695 374.227 199.969 374.227 202.516V211H373.009L372.259 209.781C371.032 210.594 369.696 211 368.251 211C365.321 211 363.856 209.762 363.856 207.285ZM368.848 205.258C366.966 205.258 366.024 205.922 366.024 207.25C366.024 208.578 366.766 209.242 368.251 209.242C369.751 209.242 371.02 208.844 372.059 208.047V205.492C370.989 205.336 369.919 205.258 368.848 205.258ZM377.755 211V198.695H379.22L379.606 200.266C380.864 199.219 382.247 198.695 383.755 198.695C386.825 198.695 388.36 200.223 388.36 203.277V211H386.192V203.242C386.192 201.414 385.282 200.5 383.462 200.5C382.22 200.5 381.04 201.02 379.923 202.059V211H377.755ZM400.149 201.203C399.274 200.781 398.274 200.57 397.149 200.57C394.673 200.57 393.434 201.887 393.434 204.52C393.434 207.637 394.673 209.195 397.149 209.195C398.274 209.195 399.274 209.043 400.149 208.738V201.203ZM402.317 210.262C400.825 210.754 398.985 211 396.798 211C393.134 211 391.302 208.867 391.302 204.602C391.302 200.664 393.247 198.695 397.137 198.695C398.2 198.695 399.204 198.891 400.149 199.281V194.242H402.317V210.262ZM407.415 204.801C407.415 207.762 408.645 209.242 411.106 209.242C413.567 209.242 414.798 207.762 414.798 204.801C414.798 201.902 413.567 200.453 411.106 200.453C408.645 200.453 407.415 201.902 407.415 204.801ZM405.247 204.848C405.247 200.746 407.2 198.695 411.106 198.695C415.013 198.695 416.966 200.746 416.966 204.848C416.966 208.941 415.013 210.988 411.106 210.988C407.216 210.988 405.263 208.941 405.247 204.848ZM429.392 196.703H430.752L431.22 198.695H434.548V200.453H431.56V207.52C431.56 208.668 432.056 209.242 433.048 209.242H434.548V211H432.486C430.423 211 429.392 209.895 429.392 207.684V196.703ZM447.92 198.695V211H446.431L446.056 209.43C444.564 210.477 443.064 211 441.556 211C438.728 211 437.314 209.473 437.314 206.418V198.695H439.482V206.453C439.482 208.281 440.388 209.195 442.201 209.195C443.443 209.195 444.627 208.676 445.752 207.637V198.695H447.92ZM451.33 210.414V208.539C452.775 209.008 454.236 209.242 455.712 209.242C457.673 209.242 458.654 208.656 458.654 207.484C458.654 206.391 457.97 205.844 456.603 205.844H454.845C452.189 205.844 450.861 204.633 450.861 202.211C450.861 199.867 452.568 198.695 455.982 198.695C457.451 198.695 458.908 198.891 460.353 199.281V201.156C458.908 200.688 457.451 200.453 455.982 200.453C453.935 200.453 452.912 201.039 452.912 202.211C452.912 203.305 453.556 203.852 454.845 203.852H456.603C459.416 203.852 460.822 205.062 460.822 207.484C460.822 209.828 459.119 211 455.712 211C454.236 211 452.775 210.805 451.33 210.414ZM481.475 200.781C480.733 200.594 479.815 200.5 478.721 200.5C476.104 200.5 474.795 201.918 474.795 204.754C474.795 207.668 476.034 209.125 478.51 209.125C479.635 209.125 480.623 208.914 481.475 208.492V200.781ZM483.643 211C483.643 213.969 481.756 215.453 477.983 215.453C476.467 215.453 475.123 215.258 473.952 214.867V213.109C475.147 213.5 476.498 213.695 478.006 213.695C480.319 213.695 481.475 212.797 481.475 211V210.414C480.553 210.805 479.561 211 478.498 211C474.608 211 472.663 208.926 472.663 204.777C472.663 200.723 474.713 198.695 478.815 198.695C480.479 198.695 482.088 198.863 483.643 199.199V211ZM486.584 207.285C486.584 204.762 488.248 203.5 491.577 203.5C492.647 203.5 493.717 203.578 494.788 203.734V202.574C494.788 201.16 493.682 200.453 491.471 200.453C490.205 200.453 488.909 200.648 487.58 201.039V199.281C488.909 198.891 490.205 198.695 491.471 198.695C495.127 198.695 496.955 199.969 496.955 202.516V211H495.737L494.987 209.781C493.76 210.594 492.424 211 490.979 211C488.049 211 486.584 209.762 486.584 207.285ZM491.577 205.258C489.694 205.258 488.752 205.922 488.752 207.25C488.752 208.578 489.495 209.242 490.979 209.242C492.479 209.242 493.748 208.844 494.788 208.047V205.492C493.717 205.336 492.647 205.258 491.577 205.258ZM500.483 211V198.695H501.948L502.334 200.266C503.592 199.219 504.975 198.695 506.483 198.695C509.553 198.695 511.088 200.223 511.088 203.277V211H508.92V203.242C508.92 201.414 508.01 200.5 506.19 200.5C504.948 200.5 503.768 201.02 502.651 202.059V211H500.483ZM514.03 207.285C514.03 204.762 515.694 203.5 519.022 203.5C520.092 203.5 521.163 203.578 522.233 203.734V202.574C522.233 201.16 521.127 200.453 518.916 200.453C517.651 200.453 516.354 200.648 515.026 201.039V199.281C516.354 198.891 517.651 198.695 518.916 198.695C522.573 198.695 524.401 199.969 524.401 202.516V211H523.182L522.432 209.781C521.205 210.594 519.87 211 518.424 211C515.495 211 514.03 209.762 514.03 207.285ZM519.022 205.258C517.139 205.258 516.198 205.922 516.198 207.25C516.198 208.578 516.94 209.242 518.424 209.242C519.924 209.242 521.194 208.844 522.233 208.047V205.492C521.163 205.336 520.092 205.258 519.022 205.258ZM527.928 211V198.695H529.393L529.78 200.266C531.038 199.219 532.42 198.695 533.928 198.695C536.998 198.695 538.534 200.223 538.534 203.277V211H536.366V203.242C536.366 201.414 535.455 200.5 533.635 200.5C532.393 200.5 531.213 201.02 530.096 202.059V211H527.928ZM551.319 210.648C550.303 210.883 549.209 211 548.038 211C543.663 211 541.475 208.871 541.475 204.613C541.475 200.668 543.663 198.695 548.038 198.695C549.209 198.695 550.303 198.812 551.319 199.047V200.805C550.303 200.57 549.17 200.453 547.92 200.453C545.069 200.453 543.643 201.84 543.643 204.613C543.643 207.699 545.069 209.242 547.92 209.242C549.17 209.242 550.303 209.125 551.319 208.891V210.648ZM556.487 198.695V211H554.319V198.695H556.487ZM556.487 194.242V196.293H554.319V194.242H556.487ZM559.663 207.285C559.663 204.762 561.327 203.5 564.655 203.5C565.725 203.5 566.795 203.578 567.866 203.734V202.574C567.866 201.16 566.76 200.453 564.549 200.453C563.284 200.453 561.987 200.648 560.659 201.039V199.281C561.987 198.891 563.284 198.695 564.549 198.695C568.205 198.695 570.034 199.969 570.034 202.516V211H568.815L568.065 209.781C566.838 210.594 565.502 211 564.057 211C561.127 211 559.663 209.762 559.663 207.285ZM564.655 205.258C562.772 205.258 561.83 205.922 561.83 207.25C561.83 208.578 562.573 209.242 564.057 209.242C565.557 209.242 566.827 208.844 567.866 208.047V205.492C566.795 205.336 565.725 205.258 564.655 205.258ZM573.444 210.414V208.539C574.889 209.008 576.35 209.242 577.827 209.242C579.788 209.242 580.768 208.656 580.768 207.484C580.768 206.391 580.084 205.844 578.717 205.844H576.959C574.303 205.844 572.975 204.633 572.975 202.211C572.975 199.867 574.682 198.695 578.096 198.695C579.565 198.695 581.022 198.891 582.467 199.281V201.156C581.022 200.688 579.565 200.453 578.096 200.453C576.049 200.453 575.026 201.039 575.026 202.211C575.026 203.305 575.67 203.852 576.959 203.852H578.717C581.53 203.852 582.936 205.062 582.936 207.484C582.936 209.828 581.233 211 577.827 211C576.35 211 574.889 210.805 573.444 210.414ZM593.898 198.695H596.253L599.734 208.305L603.331 198.695H605.628L600.519 211.363C599.612 213.598 598.253 214.992 596.441 215.547L595.609 214.012C596.984 213.41 597.984 212.43 598.609 211.07L593.898 198.695ZM617.164 211V198.695H618.629L618.992 200.242C620.172 199.211 621.457 198.695 622.848 198.695C624.629 198.695 625.844 199.258 626.492 200.383C627.828 199.258 629.184 198.695 630.559 198.695C633.387 198.695 634.801 200.254 634.801 203.371V211H632.633V203.254C632.633 201.418 631.859 200.5 630.312 200.5C629.156 200.5 628.074 201.031 627.066 202.094V211H624.898V203.289C624.898 201.43 624.133 200.5 622.602 200.5C621.383 200.5 620.293 201.031 619.332 202.094V211H617.164ZM640.73 198.695V211H638.562V198.695H640.73ZM640.73 194.242V196.293H638.562V194.242H640.73ZM644.492 211V198.695H645.957L646.344 200.266C647.602 199.219 648.984 198.695 650.492 198.695C653.562 198.695 655.098 200.223 655.098 203.277V211H652.93V203.242C652.93 201.414 652.02 200.5 650.199 200.5C648.957 200.5 647.777 201.02 646.66 202.059V211H644.492ZM661.027 198.695V211H658.859V198.695H661.027ZM661.027 194.242V196.293H658.859V194.242H661.027ZM664.789 211V198.695H666.254L666.617 200.242C667.797 199.211 669.082 198.695 670.473 198.695C672.254 198.695 673.469 199.258 674.117 200.383C675.453 199.258 676.809 198.695 678.184 198.695C681.012 198.695 682.426 200.254 682.426 203.371V211H680.258V203.254C680.258 201.418 679.484 200.5 677.938 200.5C676.781 200.5 675.699 201.031 674.691 202.094V211H672.523V203.289C672.523 201.43 671.758 200.5 670.227 200.5C669.008 200.5 667.918 201.031 666.957 202.094V211H664.789ZM688.355 198.695V211H686.188V198.695H688.355ZM688.355 194.242V196.293H686.188V194.242H688.355ZM691.766 198.695H701.375V200.453L694.027 209.359H701.141V211H691.531V209.359L698.973 200.453H691.766V198.695ZM703.719 207.285C703.719 204.762 705.383 203.5 708.711 203.5C709.781 203.5 710.852 203.578 711.922 203.734V202.574C711.922 201.16 710.816 200.453 708.605 200.453C707.34 200.453 706.043 200.648 704.715 201.039V199.281C706.043 198.891 707.34 198.695 708.605 198.695C712.262 198.695 714.09 199.969 714.09 202.516V211H712.871L712.121 209.781C710.895 210.594 709.559 211 708.113 211C705.184 211 703.719 209.762 703.719 207.285ZM708.711 205.258C706.828 205.258 705.887 205.922 705.887 207.25C705.887 208.578 706.629 209.242 708.113 209.242C709.613 209.242 710.883 208.844 711.922 208.047V205.492C710.852 205.336 709.781 205.258 708.711 205.258ZM717.617 211V198.695H719.082L719.469 200.266C720.727 199.219 722.109 198.695 723.617 198.695C726.688 198.695 728.223 200.223 728.223 203.277V211H726.055V203.242C726.055 201.414 725.145 200.5 723.324 200.5C722.082 200.5 720.902 201.02 719.785 202.059V211H717.617ZM740.012 201.203C739.137 200.781 738.137 200.57 737.012 200.57C734.535 200.57 733.297 201.887 733.297 204.52C733.297 207.637 734.535 209.195 737.012 209.195C738.137 209.195 739.137 209.043 740.012 208.738V201.203ZM742.18 210.262C740.688 210.754 738.848 211 736.66 211C732.996 211 731.164 208.867 731.164 204.602C731.164 200.664 733.109 198.695 737 198.695C738.062 198.695 739.066 198.891 740.012 199.281V194.242H742.18V210.262ZM747.277 204.801C747.277 207.762 748.508 209.242 750.969 209.242C753.43 209.242 754.66 207.762 754.66 204.801C754.66 201.902 753.43 200.453 750.969 200.453C748.508 200.453 747.277 201.902 747.277 204.801ZM745.109 204.848C745.109 200.746 747.062 198.695 750.969 198.695C754.875 198.695 756.828 200.746 756.828 204.848C756.828 208.941 754.875 210.988 750.969 210.988C747.078 210.988 745.125 208.941 745.109 204.848ZM141.043 221.242V238H138.875V221.242H141.043ZM146.27 231.801C146.27 234.762 147.5 236.242 149.961 236.242C152.422 236.242 153.652 234.762 153.652 231.801C153.652 228.902 152.422 227.453 149.961 227.453C147.5 227.453 146.27 228.902 146.27 231.801ZM144.102 231.848C144.102 227.746 146.055 225.695 149.961 225.695C153.867 225.695 155.82 227.746 155.82 231.848C155.82 235.941 153.867 237.988 149.961 237.988C146.07 237.988 144.117 235.941 144.102 231.848ZM158.633 237.414V235.539C160.078 236.008 161.539 236.242 163.016 236.242C164.977 236.242 165.957 235.656 165.957 234.484C165.957 233.391 165.273 232.844 163.906 232.844H162.148C159.492 232.844 158.164 231.633 158.164 229.211C158.164 226.867 159.871 225.695 163.285 225.695C164.754 225.695 166.211 225.891 167.656 226.281V228.156C166.211 227.688 164.754 227.453 163.285 227.453C161.238 227.453 160.215 228.039 160.215 229.211C160.215 230.305 160.859 230.852 162.148 230.852H163.906C166.719 230.852 168.125 232.062 168.125 234.484C168.125 236.828 166.422 238 163.016 238C161.539 238 160.078 237.805 158.633 237.414ZM186.172 237.648C185.156 237.883 184.062 238 182.891 238C178.516 238 176.328 235.871 176.328 231.613C176.328 227.668 178.516 225.695 182.891 225.695C184.062 225.695 185.156 225.812 186.172 226.047V227.805C185.156 227.57 184.023 227.453 182.773 227.453C179.922 227.453 178.496 228.84 178.496 231.613C178.496 234.699 179.922 236.242 182.773 236.242C184.023 236.242 185.156 236.125 186.172 235.891V237.648ZM190.52 231.801C190.52 234.762 191.75 236.242 194.211 236.242C196.672 236.242 197.902 234.762 197.902 231.801C197.902 228.902 196.672 227.453 194.211 227.453C191.75 227.453 190.52 228.902 190.52 231.801ZM188.352 231.848C188.352 227.746 190.305 225.695 194.211 225.695C198.117 225.695 200.07 227.746 200.07 231.848C200.07 235.941 198.117 237.988 194.211 237.988C190.32 237.988 188.367 235.941 188.352 231.848ZM202.883 237.414V235.539C204.328 236.008 205.789 236.242 207.266 236.242C209.227 236.242 210.207 235.656 210.207 234.484C210.207 233.391 209.523 232.844 208.156 232.844H206.398C203.742 232.844 202.414 231.633 202.414 229.211C202.414 226.867 204.121 225.695 207.535 225.695C209.004 225.695 210.461 225.891 211.906 226.281V228.156C210.461 227.688 209.004 227.453 207.535 227.453C205.488 227.453 204.465 228.039 204.465 229.211C204.465 230.305 205.109 230.852 206.398 230.852H208.156C210.969 230.852 212.375 232.062 212.375 234.484C212.375 236.828 210.672 238 207.266 238C205.789 238 204.328 237.805 202.883 237.414ZM215.305 223.703H216.664L217.133 225.695H220.461V227.453H217.473V234.52C217.473 235.668 217.969 236.242 218.961 236.242H220.461V238H218.398C216.336 238 215.305 236.895 215.305 234.684V223.703ZM224.809 231.801C224.809 234.762 226.039 236.242 228.5 236.242C230.961 236.242 232.191 234.762 232.191 231.801C232.191 228.902 230.961 227.453 228.5 227.453C226.039 227.453 224.809 228.902 224.809 231.801ZM222.641 231.848C222.641 227.746 224.594 225.695 228.5 225.695C232.406 225.695 234.359 227.746 234.359 231.848C234.359 235.941 232.406 237.988 228.5 237.988C224.609 237.988 222.656 235.941 222.641 231.848ZM237.172 237.414V235.539C238.617 236.008 240.078 236.242 241.555 236.242C243.516 236.242 244.496 235.656 244.496 234.484C244.496 233.391 243.812 232.844 242.445 232.844H240.688C238.031 232.844 236.703 231.633 236.703 229.211C236.703 226.867 238.41 225.695 241.824 225.695C243.293 225.695 244.75 225.891 246.195 226.281V228.156C244.75 227.688 243.293 227.453 241.824 227.453C239.777 227.453 238.754 228.039 238.754 229.211C238.754 230.305 239.398 230.852 240.688 230.852H242.445C245.258 230.852 246.664 232.062 246.664 234.484C246.664 236.828 244.961 238 241.555 238C240.078 238 238.617 237.805 237.172 237.414ZM254.867 234.285C254.867 231.762 256.531 230.5 259.859 230.5C260.93 230.5 262 230.578 263.07 230.734V229.574C263.07 228.16 261.965 227.453 259.754 227.453C258.488 227.453 257.191 227.648 255.863 228.039V226.281C257.191 225.891 258.488 225.695 259.754 225.695C263.41 225.695 265.238 226.969 265.238 229.516V238H264.02L263.27 236.781C262.043 237.594 260.707 238 259.262 238C256.332 238 254.867 236.762 254.867 234.285ZM259.859 232.258C257.977 232.258 257.035 232.922 257.035 234.25C257.035 235.578 257.777 236.242 259.262 236.242C260.762 236.242 262.031 235.844 263.07 235.047V232.492C262 232.336 260.93 232.258 259.859 232.258ZM268.648 237.414V235.539C270.094 236.008 271.555 236.242 273.031 236.242C274.992 236.242 275.973 235.656 275.973 234.484C275.973 233.391 275.289 232.844 273.922 232.844H272.164C269.508 232.844 268.18 231.633 268.18 229.211C268.18 226.867 269.887 225.695 273.301 225.695C274.77 225.695 276.227 225.891 277.672 226.281V228.156C276.227 227.688 274.77 227.453 273.301 227.453C271.254 227.453 270.23 228.039 270.23 229.211C270.23 230.305 270.875 230.852 272.164 230.852H273.922C276.734 230.852 278.141 232.062 278.141 234.484C278.141 236.828 276.438 238 273.031 238C271.555 238 270.094 237.805 268.648 237.414ZM282.652 231.801C282.652 234.762 283.883 236.242 286.344 236.242C288.805 236.242 290.035 234.762 290.035 231.801C290.035 228.902 288.805 227.453 286.344 227.453C283.883 227.453 282.652 228.902 282.652 231.801ZM280.484 231.848C280.484 227.746 282.438 225.695 286.344 225.695C290.25 225.695 292.203 227.746 292.203 231.848C292.203 235.941 290.25 237.988 286.344 237.988C282.453 237.988 280.5 235.941 280.484 231.848ZM304.391 237.648C303.375 237.883 302.281 238 301.109 238C296.734 238 294.547 235.871 294.547 231.613C294.547 227.668 296.734 225.695 301.109 225.695C302.281 225.695 303.375 225.812 304.391 226.047V227.805C303.375 227.57 302.242 227.453 300.992 227.453C298.141 227.453 296.715 228.84 296.715 231.613C296.715 234.699 298.141 236.242 300.992 236.242C302.242 236.242 303.375 236.125 304.391 235.891V237.648ZM309.559 225.695V238H307.391V225.695H309.559ZM309.559 221.242V223.293H307.391V221.242H309.559ZM312.734 234.285C312.734 231.762 314.398 230.5 317.727 230.5C318.797 230.5 319.867 230.578 320.938 230.734V229.574C320.938 228.16 319.832 227.453 317.621 227.453C316.355 227.453 315.059 227.648 313.73 228.039V226.281C315.059 225.891 316.355 225.695 317.621 225.695C321.277 225.695 323.105 226.969 323.105 229.516V238H321.887L321.137 236.781C319.91 237.594 318.574 238 317.129 238C314.199 238 312.734 236.762 312.734 234.285ZM317.727 232.258C315.844 232.258 314.902 232.922 314.902 234.25C314.902 235.578 315.645 236.242 317.129 236.242C318.629 236.242 319.898 235.844 320.938 235.047V232.492C319.867 232.336 318.797 232.258 317.727 232.258ZM334.895 228.203C334.02 227.781 333.02 227.57 331.895 227.57C329.418 227.57 328.18 228.887 328.18 231.52C328.18 234.637 329.418 236.195 331.895 236.195C333.02 236.195 334.02 236.043 334.895 235.738V228.203ZM337.062 237.262C335.57 237.754 333.73 238 331.543 238C327.879 238 326.047 235.867 326.047 231.602C326.047 227.664 327.992 225.695 331.883 225.695C332.945 225.695 333.949 225.891 334.895 226.281V221.242H337.062V237.262ZM342.16 231.801C342.16 234.762 343.391 236.242 345.852 236.242C348.312 236.242 349.543 234.762 349.543 231.801C349.543 228.902 348.312 227.453 345.852 227.453C343.391 227.453 342.16 228.902 342.16 231.801ZM339.992 231.848C339.992 227.746 341.945 225.695 345.852 225.695C349.758 225.695 351.711 227.746 351.711 231.848C351.711 235.941 349.758 237.988 345.852 237.988C341.961 237.988 340.008 235.941 339.992 231.848ZM354.523 237.414V235.539C355.969 236.008 357.43 236.242 358.906 236.242C360.867 236.242 361.848 235.656 361.848 234.484C361.848 233.391 361.164 232.844 359.797 232.844H358.039C355.383 232.844 354.055 231.633 354.055 229.211C354.055 226.867 355.762 225.695 359.176 225.695C360.645 225.695 362.102 225.891 363.547 226.281V228.156C362.102 227.688 360.645 227.453 359.176 227.453C357.129 227.453 356.105 228.039 356.105 229.211C356.105 230.305 356.75 230.852 358.039 230.852H359.797C362.609 230.852 364.016 232.062 364.016 234.484C364.016 236.828 362.312 238 358.906 238C357.43 238 355.969 237.805 354.523 237.414ZM368.527 235.832V238H366.359V235.832H368.527Z" fill="#1E1E1E"/>
<path d="M1253 139.5C1253 180.093 1220.09 213 1179.5 213C1138.91 213 1106 180.093 1106 139.5C1106 98.9071 1138.91 66 1179.5 66C1220.09 66 1253 98.9071 1253 139.5Z" fill="white"/>
<path d="M1170.5 109.5L1152 91" stroke="black" stroke-width="4" stroke-linecap="round"/>
<path d="M1179.5 104L1170.5 77" stroke="black" stroke-width="4" stroke-linecap="round"/>
<path d="M1189 104L1193 73" stroke="black" stroke-width="4" stroke-linecap="round"/>
<path d="M1164.27 204.391L1139.34 179.46C1136.83 176.69 1137.06 172.645 1139.38 170.263L1150.57 159.077C1151.31 153.429 1150.18 147.761 1150.8 142.216C1151.02 140.263 1150.9 138.458 1150.43 136.803C1148.57 131.07 1142.98 127.823 1142.7 122.044C1145.86 114.145 1155.8 110.834 1162.87 114.168C1168.58 116.948 1171.84 122.166 1173.76 127.741C1180.35 121.127 1187.01 114.578 1193.65 108.01C1199.42 103.036 1206.87 102.816 1212.04 107.917C1217.2 113.108 1216.5 121.343 1211.83 126.194L1204.06 133.962C1205.33 135.746 1206.21 137.634 1206.7 139.626C1210.32 142.379 1212.45 146.501 1212.78 150.68C1230.13 170.141 1195.06 183.376 1185.74 192.148L1173.5 204.382C1170.71 206.918 1166.66 206.717 1164.27 204.391ZM1180.93 187.728C1188.32 180.646 1223.98 166.838 1205.95 153.558C1207.16 149.532 1204.4 144.756 1200.41 143.977C1200.45 139.139 1198.12 135.429 1193.39 135.407C1195.72 133.077 1198.01 130.759 1200.27 128.455C1202.52 126.151 1204.81 123.833 1207.14 121.503C1209.75 118.78 1209.65 114.979 1207.34 112.616C1204.52 109.919 1200.68 110.267 1198.26 112.624C1189.22 121.662 1180.24 130.497 1171.85 138.88C1166.56 132.079 1165.58 116.645 1153.44 119.26C1151.68 119.862 1150.48 120.561 1149.47 122.019C1149.37 122.329 1149.36 122.549 1149.44 122.678C1149.51 122.808 1149.64 123.014 1149.82 123.299C1153.83 128.875 1157.89 134.399 1157.34 141.298C1156.37 148.542 1158.9 155.905 1156.19 162.604L1156 162.798L1180.93 187.728Z" fill="black"/>
<path d="M1081.99 127.515L1023.45 107.37L998.975 77.9524C996.847 75.4616 994.166 73.4557 991.128 72.0801C988.09 70.7046 984.77 69.9941 981.409 70H920.868C917.165 69.9988 913.518 70.8649 910.245 72.5227C906.973 74.1805 904.173 76.5796 902.091 79.511L881.557 108.385C877.28 114.394 874.995 121.498 875 128.77V185.988C875 187.91 875.798 189.754 877.218 191.114C878.638 192.473 880.563 193.237 882.571 193.237H898.789C900.436 199.458 904.203 204.977 909.494 208.918C914.784 212.86 921.296 215 928 215C934.704 215 941.216 212.86 946.506 208.918C951.797 204.977 955.564 199.458 957.211 193.237H1004.79C1006.44 199.458 1010.2 204.977 1015.49 208.918C1020.78 212.86 1027.3 215 1034 215C1040.7 215 1047.22 212.86 1052.51 208.918C1057.8 204.977 1061.56 199.458 1063.21 193.237H1079.43C1081.44 193.237 1083.36 192.473 1084.78 191.114C1086.2 189.754 1087 187.91 1087 185.988V134.337C1087 132.844 1086.52 131.388 1085.62 130.167C1084.72 128.946 1083.46 128.02 1081.99 127.515ZM928 200.486C925.005 200.486 922.077 199.636 919.587 198.043C917.097 196.45 915.156 194.185 914.01 191.536C912.864 188.887 912.564 185.972 913.148 183.159C913.732 180.347 915.175 177.763 917.292 175.736C919.41 173.708 922.108 172.327 925.046 171.768C927.983 171.208 931.028 171.495 933.795 172.593C936.562 173.69 938.927 175.548 940.591 177.933C942.255 180.317 943.143 183.12 943.143 185.988C943.137 189.831 941.54 193.516 938.701 196.233C935.862 198.951 932.014 200.48 928 200.486ZM1034 200.486C1031.01 200.486 1028.08 199.636 1025.59 198.043C1023.1 196.45 1021.16 194.185 1020.01 191.536C1018.86 188.887 1018.56 185.972 1019.15 183.159C1019.73 180.347 1021.17 177.763 1023.29 175.736C1025.41 173.708 1028.11 172.327 1031.05 171.768C1033.98 171.208 1037.03 171.495 1039.79 172.593C1042.56 173.69 1044.93 175.548 1046.59 177.933C1048.25 180.317 1049.14 183.12 1049.14 185.988C1049.14 189.831 1047.54 193.516 1044.7 196.233C1041.86 198.951 1038.01 200.48 1034 200.486ZM1071.86 178.738H1063.21C1061.56 172.517 1057.8 166.999 1052.51 163.057C1047.22 159.115 1040.7 156.975 1034 156.975C1027.3 156.975 1020.78 159.115 1015.49 163.057C1010.2 166.999 1006.44 172.517 1004.79 178.738H957.211C955.564 172.517 951.797 166.999 946.506 163.057C941.216 159.115 934.704 156.975 928 156.975C921.296 156.975 914.784 159.115 909.494 163.057C904.203 166.999 900.436 172.517 898.789 178.738H890.143V128.77C890.142 124.405 891.514 120.141 894.08 116.533L914.606 87.6737C915.3 86.6956 916.234 85.8949 917.325 85.3415C918.416 84.7881 919.633 84.4987 920.868 84.4985H981.409C982.511 84.4952 983.601 84.7241 984.6 85.1688C985.6 85.6135 986.485 86.2632 987.193 87.072L1012.94 118.012C1013.81 119.064 1014.98 119.862 1016.3 120.317L1071.86 139.433V178.738Z" fill="black"/>
</svg>
