<svg width="1428" height="342" viewBox="0 0 1428 342" fill="none" xmlns="http://www.w3.org/2000/svg">
<mask id="path-1-inside-1_323_93" fill="white">
<path d="M0 0H1372V342H0V0Z"/>
</mask>
<path d="M0 0H1372V342H0V0Z" fill="white"/>
<path d="M0 1H1372V-1H0V1ZM1372 341H0V343H1372V341Z" fill="#CCCCCC" mask="url(#path-1-inside-1_323_93)"/>
<path d="M162.195 91.7109C159.943 92.7005 157.124 93.1953 153.738 93.1953C143.882 93.1953 138.953 88.3451 138.953 78.6445C138.953 69.4648 143.966 64.875 153.992 64.875C157.052 64.875 159.786 65.3307 162.195 66.2422V70.9297C159.786 69.888 157.182 69.3672 154.383 69.3672C147.677 69.3672 144.324 72.4596 144.324 78.6445C144.324 85.3503 147.488 88.7031 153.816 88.7031C154.754 88.7031 155.822 88.5469 157.02 88.2344V80.1094H162.195V91.7109ZM175.242 72.4922C181.466 72.4922 184.578 75.6693 184.578 82.0234C184.578 82.8698 184.52 83.7161 184.402 84.5625H170.789C170.789 87.4531 172.911 88.8984 177.156 88.8984C179.227 88.8984 181.297 88.7031 183.367 88.3125V92.4141C181.557 92.8047 179.357 93 176.766 93C169.331 93 165.613 89.5039 165.613 82.5117C165.613 75.832 168.823 72.4922 175.242 72.4922ZM170.789 80.9688H179.539V80.8125C179.539 77.974 178.107 76.5547 175.242 76.5547C172.508 76.5547 171.023 78.026 170.789 80.9688ZM188.465 93V72.4922H192.469L193.113 75.5C195.079 73.4948 197.319 72.4922 199.832 72.4922C204.689 72.4922 207.117 75.0182 207.117 80.0703V93H201.941V80.0703C201.941 77.8047 200.815 76.6719 198.562 76.6719C196.883 76.6719 195.242 77.3424 193.641 78.6836V93H188.465ZM220.672 72.4922C226.896 72.4922 230.008 75.6693 230.008 82.0234C230.008 82.8698 229.949 83.7161 229.832 84.5625H216.219C216.219 87.4531 218.341 88.8984 222.586 88.8984C224.656 88.8984 226.727 88.7031 228.797 88.3125V92.4141C226.987 92.8047 224.786 93 222.195 93C214.76 93 211.043 89.5039 211.043 82.5117C211.043 75.832 214.253 72.4922 220.672 72.4922ZM216.219 80.9688H224.969V80.8125C224.969 77.974 223.536 76.5547 220.672 76.5547C217.938 76.5547 216.453 78.026 216.219 80.9688ZM233.895 93V72.4922H237.898L238.543 75.1094C240.34 73.3646 242.241 72.4922 244.246 72.4922V76.6719C242.319 76.6719 240.594 77.4727 239.07 79.0742V93H233.895ZM246.199 86.6133C246.199 82.5378 249.168 80.5 255.105 80.5C256.499 80.5 257.892 80.6302 259.285 80.8906V79.3477C259.285 77.5117 257.964 76.5938 255.32 76.5938C253.081 76.5938 250.594 76.9193 247.859 77.5703V73.4688C250.594 72.8177 253.081 72.4922 255.32 72.4922C261.414 72.4922 264.461 74.7448 264.461 79.25V93H261.453L259.617 91.1641C257.833 92.388 255.867 93 253.719 93C248.706 93 246.199 90.8711 246.199 86.6133ZM259.285 84.4062C257.983 84.1458 256.59 84.0156 255.105 84.0156C252.618 84.0156 251.375 84.862 251.375 86.5547C251.375 88.3776 252.417 89.2891 254.5 89.2891C256.219 89.2891 257.814 88.7552 259.285 87.6875V84.4062ZM283.328 65.0703V69.1719H278.152V65.0703H283.328ZM283.328 72.4922V93H278.152V72.4922H283.328ZM288.23 93V72.4922H292.234L292.879 75.5C294.845 73.4948 297.085 72.4922 299.598 72.4922C304.454 72.4922 306.883 75.0182 306.883 80.0703V93H301.707V80.0703C301.707 77.8047 300.581 76.6719 298.328 76.6719C296.648 76.6719 295.008 77.3424 293.406 78.6836V93H288.23ZM324.91 77.1406C324.064 76.8281 322.859 76.6719 321.297 76.6719C317.716 76.6719 315.926 78.6445 315.926 82.5898C315.926 86.4049 317.469 88.3125 320.555 88.3125C322.039 88.3125 323.491 87.9609 324.91 87.2578V77.1406ZM330.086 91.4375C330.086 97.4271 326.486 100.422 319.285 100.422C316.759 100.422 314.52 100.096 312.566 99.4453V95.3438C314.559 95.9948 316.811 96.3203 319.324 96.3203C323.048 96.3203 324.91 94.7578 324.91 91.6328C323.374 92.2839 321.72 92.6094 319.949 92.6094C313.855 92.6094 310.809 89.2826 310.809 82.6289C310.809 75.8711 314.357 72.4922 321.453 72.4922C323.836 72.4922 326.714 72.7721 330.086 73.332V91.4375ZM334.988 93V72.4922H338.992L339.637 75.1094C341.434 73.3646 343.335 72.4922 345.34 72.4922V76.6719C343.413 76.6719 341.688 77.4727 340.164 79.0742V93H334.988ZM356.922 72.4922C363.146 72.4922 366.258 75.6693 366.258 82.0234C366.258 82.8698 366.199 83.7161 366.082 84.5625H352.469C352.469 87.4531 354.591 88.8984 358.836 88.8984C360.906 88.8984 362.977 88.7031 365.047 88.3125V92.4141C363.237 92.8047 361.036 93 358.445 93C351.01 93 347.293 89.5039 347.293 82.5117C347.293 75.832 350.503 72.4922 356.922 72.4922ZM352.469 80.9688H361.219V80.8125C361.219 77.974 359.786 76.5547 356.922 76.5547C354.188 76.5547 352.703 78.026 352.469 80.9688ZM370.145 92.0234V87.7266C372.423 88.638 375.053 89.0938 378.035 89.0938C380.262 89.0938 381.375 88.3776 381.375 86.9453C381.375 85.5781 380.626 84.8945 379.129 84.8945H375.418C371.251 84.8945 369.168 82.8438 369.168 78.7422C369.168 74.4453 372.208 72.2969 378.289 72.2969C380.867 72.2969 383.296 72.6875 385.574 73.4688V77.7656C383.296 76.8542 380.822 76.3984 378.152 76.3984C375.353 76.3984 373.953 77.1146 373.953 78.5469C373.953 79.9141 374.767 80.5977 376.395 80.5977H379.715C384.272 80.5977 386.551 82.6484 386.551 86.75C386.551 91.0469 383.647 93.1953 377.84 93.1953C374.988 93.1953 372.423 92.8047 370.145 92.0234ZM394.383 82.668C394.383 86.9518 396.043 89.0938 399.363 89.0938C402.684 89.0938 404.344 86.9518 404.344 82.668C404.344 78.4883 402.684 76.3984 399.363 76.3984C396.043 76.3984 394.383 78.4883 394.383 82.668ZM389.207 82.7461C389.207 75.8711 392.592 72.4336 399.363 72.4336C406.134 72.4336 409.52 75.8711 409.52 82.7461C409.52 89.6081 406.134 93.0391 399.363 93.0391C392.618 93.0391 389.233 89.6081 389.207 82.7461ZM413.426 92.0234V87.7266C415.704 88.638 418.335 89.0938 421.316 89.0938C423.543 89.0938 424.656 88.3776 424.656 86.9453C424.656 85.5781 423.908 84.8945 422.41 84.8945H418.699C414.533 84.8945 412.449 82.8438 412.449 78.7422C412.449 74.4453 415.49 72.2969 421.57 72.2969C424.148 72.2969 426.577 72.6875 428.855 73.4688V77.7656C426.577 76.8542 424.103 76.3984 421.434 76.3984C418.634 76.3984 417.234 77.1146 417.234 78.5469C417.234 79.9141 418.048 80.5977 419.676 80.5977H422.996C427.553 80.5977 429.832 82.6484 429.832 86.75C429.832 91.0469 426.928 93.1953 421.121 93.1953C418.27 93.1953 415.704 92.8047 413.426 92.0234ZM450.906 72.4922C457.13 72.4922 460.242 75.6693 460.242 82.0234C460.242 82.8698 460.184 83.7161 460.066 84.5625H446.453C446.453 87.4531 448.576 88.8984 452.82 88.8984C454.891 88.8984 456.961 88.7031 459.031 88.3125V92.4141C457.221 92.8047 455.021 93 452.43 93C444.995 93 441.277 89.5039 441.277 82.5117C441.277 75.832 444.487 72.4922 450.906 72.4922ZM446.453 80.9688H455.203V80.8125C455.203 77.974 453.771 76.5547 450.906 76.5547C448.172 76.5547 446.688 78.026 446.453 80.9688ZM469.363 82.7461L461.688 72.4922H467.449L472.234 78.8984L477.02 72.4922H482.781L475.125 82.7461L482.781 93H477.02L472.234 86.5938L467.449 93H461.688L469.363 82.7461ZM484.93 69.1719H488.758L489.539 72.4922H494.695V76.5938H490.105V86.0273C490.105 87.9414 490.932 88.8984 492.586 88.8984H494.695V93H490.086C486.648 93 484.93 91.1576 484.93 87.4727V69.1719ZM498.23 93V72.4922H502.234L502.879 75.1094C504.676 73.3646 506.577 72.4922 508.582 72.4922V76.6719C506.655 76.6719 504.93 77.4727 503.406 79.0742V93H498.23ZM510.535 86.6133C510.535 82.5378 513.504 80.5 519.441 80.5C520.835 80.5 522.228 80.6302 523.621 80.8906V79.3477C523.621 77.5117 522.299 76.5938 519.656 76.5938C517.417 76.5938 514.93 76.9193 512.195 77.5703V73.4688C514.93 72.8177 517.417 72.4922 519.656 72.4922C525.75 72.4922 528.797 74.7448 528.797 79.25V93H525.789L523.953 91.1641C522.169 92.388 520.203 93 518.055 93C513.042 93 510.535 90.8711 510.535 86.6133ZM523.621 84.4062C522.319 84.1458 520.926 84.0156 519.441 84.0156C516.954 84.0156 515.711 84.862 515.711 86.5547C515.711 88.3776 516.753 89.2891 518.836 89.2891C520.555 89.2891 522.15 88.7552 523.621 87.6875V84.4062ZM533.699 92.0234V87.7266C535.978 88.638 538.608 89.0938 541.59 89.0938C543.816 89.0938 544.93 88.3776 544.93 86.9453C544.93 85.5781 544.181 84.8945 542.684 84.8945H538.973C534.806 84.8945 532.723 82.8438 532.723 78.7422C532.723 74.4453 535.763 72.2969 541.844 72.2969C544.422 72.2969 546.85 72.6875 549.129 73.4688V77.7656C546.85 76.8542 544.376 76.3984 541.707 76.3984C538.908 76.3984 537.508 77.1146 537.508 78.5469C537.508 79.9141 538.322 80.5977 539.949 80.5977H543.27C547.827 80.5977 550.105 82.6484 550.105 86.75C550.105 91.0469 547.202 93.1953 541.395 93.1953C538.543 93.1953 535.978 92.8047 533.699 92.0234ZM144.617 132.648C145.906 133.352 147.293 133.703 148.777 133.703C151.863 133.703 153.406 131.535 153.406 127.199C153.406 123.514 151.701 121.672 148.289 121.672C146.818 121.672 145.594 121.763 144.617 121.945V132.648ZM139.441 118.332C142.163 117.772 145.04 117.492 148.074 117.492C155.04 117.492 158.523 120.741 158.523 127.238C158.523 134.413 155.281 138 148.797 138C147.417 138 146.023 137.674 144.617 137.023V145.422H139.441V118.332ZM180.906 117.492V138H176.863L176.238 135.383C173.882 137.128 171.382 138 168.738 138C164.546 138 162.449 135.52 162.449 130.559V117.492H167.625V130.422C167.625 132.688 168.615 133.82 170.594 133.82C172.273 133.82 173.986 133.15 175.73 131.809V117.492H180.906ZM190.984 133.254C192.169 133.632 193.543 133.82 195.105 133.82C198.23 133.82 199.793 131.613 199.793 127.199C199.793 123.592 198.445 121.789 195.75 121.789C194.005 121.789 192.417 122.141 190.984 122.844V133.254ZM185.809 110.07H190.984V119.055C192.534 118.013 194.259 117.492 196.16 117.492C201.993 117.492 204.91 120.773 204.91 127.336C204.91 134.445 201.57 138 194.891 138C192.078 138 189.051 137.72 185.809 137.16V110.07ZM213.992 110.07V138H208.816V110.07H213.992ZM224.07 110.07V114.172H218.895V110.07H224.07ZM224.07 117.492V138H218.895V117.492H224.07ZM244.109 137.414C242.417 137.805 240.659 138 238.836 138C231.544 138 227.898 134.452 227.898 127.355C227.898 120.78 231.544 117.492 238.836 117.492C240.659 117.492 242.417 117.688 244.109 118.078V122.18C242.417 121.789 240.789 121.594 239.227 121.594C235.125 121.594 233.074 123.514 233.074 127.355C233.074 131.717 235.125 133.898 239.227 133.898C240.789 133.898 242.417 133.703 244.109 133.312V137.414ZM246.551 131.613C246.551 127.538 249.52 125.5 255.457 125.5C256.85 125.5 258.243 125.63 259.637 125.891V124.348C259.637 122.512 258.315 121.594 255.672 121.594C253.432 121.594 250.945 121.919 248.211 122.57V118.469C250.945 117.818 253.432 117.492 255.672 117.492C261.766 117.492 264.812 119.745 264.812 124.25V138H261.805L259.969 136.164C258.185 137.388 256.219 138 254.07 138C249.057 138 246.551 135.871 246.551 131.613ZM259.637 129.406C258.335 129.146 256.941 129.016 255.457 129.016C252.97 129.016 251.727 129.862 251.727 131.555C251.727 133.378 252.768 134.289 254.852 134.289C256.57 134.289 258.165 133.755 259.637 132.688V129.406ZM269.715 138V117.492H273.719L274.363 120.5C276.329 118.495 278.569 117.492 281.082 117.492C285.939 117.492 288.367 120.018 288.367 125.07V138H283.191V125.07C283.191 122.805 282.065 121.672 279.812 121.672C278.133 121.672 276.492 122.342 274.891 123.684V138H269.715ZM306.258 122.844C305.19 122.141 303.849 121.789 302.234 121.789C299.018 121.789 297.41 123.592 297.41 127.199C297.41 131.483 299.083 133.625 302.43 133.625C303.784 133.625 305.06 133.436 306.258 133.059V122.844ZM311.434 136.77C308.296 137.59 305.229 138 302.234 138C295.607 138 292.293 134.445 292.293 127.336C292.293 120.773 295.535 117.492 302.02 117.492C303.4 117.492 304.812 117.818 306.258 118.469V110.07H311.434V136.77ZM320.516 127.668C320.516 131.952 322.176 134.094 325.496 134.094C328.816 134.094 330.477 131.952 330.477 127.668C330.477 123.488 328.816 121.398 325.496 121.398C322.176 121.398 320.516 123.488 320.516 127.668ZM315.34 127.746C315.34 120.871 318.725 117.434 325.496 117.434C332.267 117.434 335.652 120.871 335.652 127.746C335.652 134.608 332.267 138.039 325.496 138.039C318.751 138.039 315.366 134.608 315.34 127.746ZM348.055 114.172H351.883L352.664 117.492H357.82V121.594H353.23V131.027C353.23 132.941 354.057 133.898 355.711 133.898H357.82V138H353.211C349.773 138 348.055 136.158 348.055 132.473V114.172ZM379.812 117.492V138H375.77L375.145 135.383C372.788 137.128 370.288 138 367.645 138C363.452 138 361.355 135.52 361.355 130.559V117.492H366.531V130.422C366.531 132.688 367.521 133.82 369.5 133.82C371.18 133.82 372.892 133.15 374.637 131.809V117.492H379.812ZM384.715 137.023V132.727C386.993 133.638 389.624 134.094 392.605 134.094C394.832 134.094 395.945 133.378 395.945 131.945C395.945 130.578 395.197 129.895 393.699 129.895H389.988C385.822 129.895 383.738 127.844 383.738 123.742C383.738 119.445 386.779 117.297 392.859 117.297C395.438 117.297 397.866 117.688 400.145 118.469V122.766C397.866 121.854 395.392 121.398 392.723 121.398C389.923 121.398 388.523 122.115 388.523 123.547C388.523 124.914 389.337 125.598 390.965 125.598H394.285C398.842 125.598 401.121 127.648 401.121 131.75C401.121 136.047 398.217 138.195 392.41 138.195C389.559 138.195 386.993 137.805 384.715 137.023ZM413.543 137.023V132.727C415.822 133.638 418.452 134.094 421.434 134.094C423.66 134.094 424.773 133.378 424.773 131.945C424.773 130.578 424.025 129.895 422.527 129.895H418.816C414.65 129.895 412.566 127.844 412.566 123.742C412.566 119.445 415.607 117.297 421.688 117.297C424.266 117.297 426.694 117.688 428.973 118.469V122.766C426.694 121.854 424.22 121.398 421.551 121.398C418.751 121.398 417.352 122.115 417.352 123.547C417.352 124.914 418.165 125.598 419.793 125.598H423.113C427.671 125.598 429.949 127.648 429.949 131.75C429.949 136.047 427.046 138.195 421.238 138.195C418.387 138.195 415.822 137.805 413.543 137.023ZM442.234 117.492C448.458 117.492 451.57 120.669 451.57 127.023C451.57 127.87 451.512 128.716 451.395 129.562H437.781C437.781 132.453 439.904 133.898 444.148 133.898C446.219 133.898 448.289 133.703 450.359 133.312V137.414C448.549 137.805 446.349 138 443.758 138C436.323 138 432.605 134.504 432.605 127.512C432.605 120.832 435.815 117.492 442.234 117.492ZM437.781 125.969H446.531V125.812C446.531 122.974 445.099 121.555 442.234 121.555C439.5 121.555 438.016 123.026 437.781 125.969ZM455.457 138V117.492H459.461L460.105 120.109C461.902 118.365 463.803 117.492 465.809 117.492V121.672C463.882 121.672 462.156 122.473 460.633 124.074V138H455.457ZM466.297 117.492H471.766L476.746 131.828L481.922 117.492H487.391L479.051 138H474.129L466.297 117.492ZM495.008 110.07V114.172H489.832V110.07H495.008ZM495.008 117.492V138H489.832V117.492H495.008ZM515.047 137.414C513.354 137.805 511.596 138 509.773 138C502.482 138 498.836 134.452 498.836 127.355C498.836 120.78 502.482 117.492 509.773 117.492C511.596 117.492 513.354 117.688 515.047 118.078V122.18C513.354 121.789 511.727 121.594 510.164 121.594C506.062 121.594 504.012 123.514 504.012 127.355C504.012 131.717 506.062 133.898 510.164 133.898C511.727 133.898 513.354 133.703 515.047 133.312V137.414ZM523.641 110.07V114.172H518.465V110.07H523.641ZM523.641 117.492V138H518.465V117.492H523.641ZM532.742 127.668C532.742 131.952 534.402 134.094 537.723 134.094C541.043 134.094 542.703 131.952 542.703 127.668C542.703 123.488 541.043 121.398 537.723 121.398C534.402 121.398 532.742 123.488 532.742 127.668ZM527.566 127.746C527.566 120.871 530.952 117.434 537.723 117.434C544.493 117.434 547.879 120.871 547.879 127.746C547.879 134.608 544.493 138.039 537.723 138.039C530.978 138.039 527.592 134.608 527.566 127.746ZM551.785 137.023V132.727C554.064 133.638 556.694 134.094 559.676 134.094C561.902 134.094 563.016 133.378 563.016 131.945C563.016 130.578 562.267 129.895 560.77 129.895H557.059C552.892 129.895 550.809 127.844 550.809 123.742C550.809 119.445 553.849 117.297 559.93 117.297C562.508 117.297 564.936 117.688 567.215 118.469V122.766C564.936 121.854 562.462 121.398 559.793 121.398C556.993 121.398 555.594 122.115 555.594 123.547C555.594 124.914 556.408 125.598 558.035 125.598H561.355C565.913 125.598 568.191 127.648 568.191 131.75C568.191 136.047 565.288 138.195 559.48 138.195C556.629 138.195 554.064 137.805 551.785 137.023Z" fill="#1E1E1E"/>
<path d="M138.992 184V167.242H141.746L147.898 181.223L153.934 167.242H156.57V184H154.637V170.254L148.684 184H146.973L140.926 170.254V184H138.992ZM159.734 180.285C159.734 177.762 161.398 176.5 164.727 176.5C165.797 176.5 166.867 176.578 167.938 176.734V175.574C167.938 174.16 166.832 173.453 164.621 173.453C163.355 173.453 162.059 173.648 160.73 174.039V172.281C162.059 171.891 163.355 171.695 164.621 171.695C168.277 171.695 170.105 172.969 170.105 175.516V184H168.887L168.137 182.781C166.91 183.594 165.574 184 164.129 184C161.199 184 159.734 182.762 159.734 180.285ZM164.727 178.258C162.844 178.258 161.902 178.922 161.902 180.25C161.902 181.578 162.645 182.242 164.129 182.242C165.629 182.242 166.898 181.844 167.938 181.047V178.492C166.867 178.336 165.797 178.258 164.727 178.258ZM176.773 177.848L172.168 171.695H174.688L178.027 176.16L181.367 171.695H183.887L179.293 177.848L183.887 184H181.367L178.027 179.535L174.688 184H172.168L176.773 177.848ZM188.34 171.695V184H186.172V171.695H188.34ZM188.34 167.242V169.293H186.172V167.242H188.34ZM192.102 184V171.695H193.566L193.93 173.242C195.109 172.211 196.395 171.695 197.785 171.695C199.566 171.695 200.781 172.258 201.43 173.383C202.766 172.258 204.121 171.695 205.496 171.695C208.324 171.695 209.738 173.254 209.738 176.371V184H207.57V176.254C207.57 174.418 206.797 173.5 205.25 173.5C204.094 173.5 203.012 174.031 202.004 175.094V184H199.836V176.289C199.836 174.43 199.07 173.5 197.539 173.5C196.32 173.5 195.23 174.031 194.27 175.094V184H192.102ZM215.668 171.695V184H213.5V171.695H215.668ZM215.668 167.242V169.293H213.5V167.242H215.668ZM219.078 171.695H228.688V173.453L221.34 182.359H228.453V184H218.844V182.359L226.285 173.453H219.078V171.695ZM231.031 180.285C231.031 177.762 232.695 176.5 236.023 176.5C237.094 176.5 238.164 176.578 239.234 176.734V175.574C239.234 174.16 238.129 173.453 235.918 173.453C234.652 173.453 233.355 173.648 232.027 174.039V172.281C233.355 171.891 234.652 171.695 235.918 171.695C239.574 171.695 241.402 172.969 241.402 175.516V184H240.184L239.434 182.781C238.207 183.594 236.871 184 235.426 184C232.496 184 231.031 182.762 231.031 180.285ZM236.023 178.258C234.141 178.258 233.199 178.922 233.199 180.25C233.199 181.578 233.941 182.242 235.426 182.242C236.926 182.242 238.195 181.844 239.234 181.047V178.492C238.164 178.336 237.094 178.258 236.023 178.258ZM260.693 169.703H262.052L262.521 171.695H265.849V173.453H262.861V180.52C262.861 181.668 263.357 182.242 264.349 182.242H265.849V184H263.787C261.724 184 260.693 182.895 260.693 180.684V169.703ZM279.22 171.695V184H277.732L277.357 182.43C275.865 183.477 274.365 184 272.857 184C270.029 184 268.615 182.473 268.615 179.418V171.695H270.783V179.453C270.783 181.281 271.689 182.195 273.502 182.195C274.744 182.195 275.927 181.676 277.052 180.637V171.695H279.22ZM282.631 183.414V181.539C284.076 182.008 285.537 182.242 287.013 182.242C288.974 182.242 289.955 181.656 289.955 180.484C289.955 179.391 289.271 178.844 287.904 178.844H286.146C283.49 178.844 282.162 177.633 282.162 175.211C282.162 172.867 283.869 171.695 287.283 171.695C288.752 171.695 290.209 171.891 291.654 172.281V174.156C290.209 173.688 288.752 173.453 287.283 173.453C285.236 173.453 284.213 174.039 284.213 175.211C284.213 176.305 284.857 176.852 286.146 176.852H287.904C290.717 176.852 292.123 178.062 292.123 180.484C292.123 182.828 290.42 184 287.013 184C285.537 184 284.076 183.805 282.631 183.414ZM313.218 171.695V184H311.05V171.695H313.218ZM313.218 167.242V169.293H311.05V167.242H313.218ZM316.98 184V171.695H318.445L318.831 173.266C320.089 172.219 321.472 171.695 322.98 171.695C326.05 171.695 327.585 173.223 327.585 176.277V184H325.417V176.242C325.417 174.414 324.507 173.5 322.687 173.5C321.445 173.5 320.265 174.02 319.148 175.059V184H316.98ZM339.339 173.781C338.597 173.594 337.679 173.5 336.585 173.5C333.968 173.5 332.66 174.918 332.66 177.754C332.66 180.668 333.898 182.125 336.374 182.125C337.499 182.125 338.488 181.914 339.339 181.492V173.781ZM341.507 184C341.507 186.969 339.621 188.453 335.847 188.453C334.331 188.453 332.988 188.258 331.816 187.867V186.109C333.011 186.5 334.363 186.695 335.871 186.695C338.183 186.695 339.339 185.797 339.339 184V183.414C338.417 183.805 337.425 184 336.363 184C332.472 184 330.527 181.926 330.527 177.777C330.527 173.723 332.578 171.695 336.679 171.695C338.343 171.695 339.953 171.863 341.507 172.199V184ZM345.035 184V171.695H346.499L346.886 173.266C347.964 172.219 349.261 171.695 350.777 171.695V173.5C349.308 173.5 348.117 174.02 347.203 175.059V184H345.035ZM358.031 171.695C361.531 171.695 363.281 173.426 363.281 176.887C363.281 177.379 363.246 177.906 363.175 178.469H354.538C354.538 180.984 356.007 182.242 358.945 182.242C360.343 182.242 361.585 182.086 362.671 181.773V183.531C361.585 183.844 360.265 184 358.71 184C354.484 184 352.371 181.902 352.371 177.707C352.371 173.699 354.257 171.695 358.031 171.695ZM354.538 176.664H361.195C361.148 174.508 360.093 173.43 358.031 173.43C355.843 173.43 354.679 174.508 354.538 176.664ZM366.081 183.414V181.539C367.527 182.008 368.988 182.242 370.464 182.242C372.425 182.242 373.406 181.656 373.406 180.484C373.406 179.391 372.722 178.844 371.355 178.844H369.597C366.941 178.844 365.613 177.633 365.613 175.211C365.613 172.867 367.32 171.695 370.734 171.695C372.203 171.695 373.66 171.891 375.105 172.281V174.156C373.66 173.688 372.203 173.453 370.734 173.453C368.687 173.453 367.663 174.039 367.663 175.211C367.663 176.305 368.308 176.852 369.597 176.852H371.355C374.167 176.852 375.574 178.062 375.574 180.484C375.574 182.828 373.871 184 370.464 184C368.988 184 367.527 183.805 366.081 183.414ZM380.085 177.801C380.085 180.762 381.316 182.242 383.777 182.242C386.238 182.242 387.468 180.762 387.468 177.801C387.468 174.902 386.238 173.453 383.777 173.453C381.316 173.453 380.085 174.902 380.085 177.801ZM377.917 177.848C377.917 173.746 379.871 171.695 383.777 171.695C387.683 171.695 389.636 173.746 389.636 177.848C389.636 181.941 387.683 183.988 383.777 183.988C379.886 183.988 377.933 181.941 377.917 177.848ZM392.449 183.414V181.539C393.894 182.008 395.355 182.242 396.831 182.242C398.792 182.242 399.773 181.656 399.773 180.484C399.773 179.391 399.089 178.844 397.722 178.844H395.964C393.308 178.844 391.98 177.633 391.98 175.211C391.98 172.867 393.687 171.695 397.101 171.695C398.57 171.695 400.027 171.891 401.472 172.281V174.156C400.027 173.688 398.57 173.453 397.101 173.453C395.054 173.453 394.031 174.039 394.031 175.211C394.031 176.305 394.675 176.852 395.964 176.852H397.722C400.535 176.852 401.941 178.062 401.941 180.484C401.941 182.828 400.238 184 396.831 184C395.355 184 393.894 183.805 392.449 183.414ZM420.048 180.285C420.048 177.762 421.712 176.5 425.04 176.5C426.111 176.5 427.181 176.578 428.251 176.734V175.574C428.251 174.16 427.146 173.453 424.935 173.453C423.669 173.453 422.372 173.648 421.044 174.039V172.281C422.372 171.891 423.669 171.695 424.935 171.695C428.591 171.695 430.419 172.969 430.419 175.516V184H429.2L428.45 182.781C427.224 183.594 425.888 184 424.443 184C421.513 184 420.048 182.762 420.048 180.285ZM425.04 178.258C423.157 178.258 422.216 178.922 422.216 180.25C422.216 181.578 422.958 182.242 424.443 182.242C425.943 182.242 427.212 181.844 428.251 181.047V178.492C427.181 178.336 426.111 178.258 425.04 178.258ZM436.232 167.242V184H434.064V167.242H436.232ZM457.807 181.492C458.659 181.914 459.608 182.125 460.655 182.125C463.21 182.125 464.487 180.59 464.487 177.52C464.487 174.84 463.218 173.5 460.679 173.5C459.585 173.5 458.628 173.594 457.807 173.781V181.492ZM455.639 172.199C457.272 171.863 458.96 171.695 460.702 171.695C464.647 171.695 466.62 173.645 466.62 177.543C466.62 181.848 464.636 184 460.667 184C459.682 184 458.729 183.805 457.807 183.414V188.453H455.639V172.199ZM480.167 171.695V184H478.679L478.304 182.43C476.811 183.477 475.311 184 473.804 184C470.975 184 469.561 182.473 469.561 179.418V171.695H471.729V179.453C471.729 181.281 472.636 182.195 474.448 182.195C475.69 182.195 476.874 181.676 477.999 180.637V171.695H480.167ZM485.862 181.855C486.573 182.082 487.436 182.195 488.452 182.195C491.186 182.195 492.554 180.637 492.554 177.52C492.554 174.887 491.315 173.57 488.839 173.57C487.714 173.57 486.722 173.781 485.862 174.203V181.855ZM483.694 167.242H485.862V172.281C486.792 171.891 487.788 171.695 488.85 171.695C492.741 171.695 494.686 173.664 494.686 177.602C494.686 181.867 492.643 184 488.557 184C486.792 184 485.171 183.832 483.694 183.496V167.242ZM499.901 167.242V184H497.733V167.242H499.901ZM505.948 171.695V184H503.78V171.695H505.948ZM505.948 167.242V169.293H503.78V167.242H505.948ZM518.968 183.648C517.952 183.883 516.858 184 515.686 184C511.311 184 509.124 181.871 509.124 177.613C509.124 173.668 511.311 171.695 515.686 171.695C516.858 171.695 517.952 171.812 518.968 172.047V173.805C517.952 173.57 516.819 173.453 515.569 173.453C512.718 173.453 511.292 174.84 511.292 177.613C511.292 180.699 512.718 182.242 515.569 182.242C516.819 182.242 517.952 182.125 518.968 181.891V183.648ZM521.147 180.285C521.147 177.762 522.811 176.5 526.139 176.5C527.21 176.5 528.28 176.578 529.35 176.734V175.574C529.35 174.16 528.245 173.453 526.034 173.453C524.768 173.453 523.472 173.648 522.143 174.039V172.281C523.472 171.891 524.768 171.695 526.034 171.695C529.69 171.695 531.518 172.969 531.518 175.516V184H530.3L529.55 182.781C528.323 183.594 526.987 184 525.542 184C522.612 184 521.147 182.762 521.147 180.285ZM526.139 178.258C524.257 178.258 523.315 178.922 523.315 180.25C523.315 181.578 524.057 182.242 525.542 182.242C527.042 182.242 528.311 181.844 529.35 181.047V178.492C528.28 178.336 527.21 178.258 526.139 178.258ZM535.046 184V171.695H536.511L536.897 173.266C537.975 172.219 539.272 171.695 540.788 171.695V173.5C539.319 173.5 538.128 174.02 537.214 175.059V184H535.046ZM561.016 167.242V184H558.848V167.242H561.016ZM566.243 177.801C566.243 180.762 567.473 182.242 569.934 182.242C572.395 182.242 573.626 180.762 573.626 177.801C573.626 174.902 572.395 173.453 569.934 173.453C567.473 173.453 566.243 174.902 566.243 177.801ZM564.075 177.848C564.075 173.746 566.028 171.695 569.934 171.695C573.84 171.695 575.794 173.746 575.794 177.848C575.794 181.941 573.84 183.988 569.934 183.988C566.044 183.988 564.09 181.941 564.075 177.848ZM578.606 183.414V181.539C580.051 182.008 581.512 182.242 582.989 182.242C584.95 182.242 585.93 181.656 585.93 180.484C585.93 179.391 585.247 178.844 583.879 178.844H582.122C579.465 178.844 578.137 177.633 578.137 175.211C578.137 172.867 579.844 171.695 583.258 171.695C584.727 171.695 586.184 171.891 587.629 172.281V174.156C586.184 173.688 584.727 173.453 583.258 173.453C581.211 173.453 580.188 174.039 580.188 175.211C580.188 176.305 580.833 176.852 582.122 176.852H583.879C586.692 176.852 588.098 178.062 588.098 180.484C588.098 182.828 586.395 184 582.989 184C581.512 184 580.051 183.805 578.606 183.414ZM606.674 183.414V181.539C608.119 182.008 609.58 182.242 611.057 182.242C613.018 182.242 613.998 181.656 613.998 180.484C613.998 179.391 613.315 178.844 611.948 178.844H610.19C607.533 178.844 606.205 177.633 606.205 175.211C606.205 172.867 607.912 171.695 611.326 171.695C612.795 171.695 614.252 171.891 615.698 172.281V174.156C614.252 173.688 612.795 173.453 611.326 173.453C609.28 173.453 608.256 174.039 608.256 175.211C608.256 176.305 608.901 176.852 610.19 176.852H611.948C614.76 176.852 616.166 178.062 616.166 180.484C616.166 182.828 614.463 184 611.057 184C609.58 184 608.119 183.805 606.674 183.414ZM624.17 171.695C627.67 171.695 629.42 173.426 629.42 176.887C629.42 177.379 629.385 177.906 629.315 178.469H620.678C620.678 180.984 622.147 182.242 625.084 182.242C626.483 182.242 627.725 182.086 628.811 181.773V183.531C627.725 183.844 626.405 184 624.85 184C620.623 184 618.51 181.902 618.51 177.707C618.51 173.699 620.397 171.695 624.17 171.695ZM620.678 176.664H627.334C627.287 174.508 626.233 173.43 624.17 173.43C621.983 173.43 620.819 174.508 620.678 176.664ZM632.338 184V171.695H633.803L634.19 173.266C635.268 172.219 636.565 171.695 638.08 171.695V173.5C636.612 173.5 635.42 174.02 634.506 175.059V184H632.338ZM638.502 171.695H640.846L644.373 181.34L647.877 171.695H650.221L645.217 184H643.201L638.502 171.695ZM654.381 171.695V184H652.213V171.695H654.381ZM654.381 167.242V169.293H652.213V167.242H654.381ZM667.401 183.648C666.385 183.883 665.291 184 664.119 184C659.744 184 657.557 181.871 657.557 177.613C657.557 173.668 659.744 171.695 664.119 171.695C665.291 171.695 666.385 171.812 667.401 172.047V173.805C666.385 173.57 665.252 173.453 664.002 173.453C661.151 173.453 659.725 174.84 659.725 177.613C659.725 180.699 661.151 182.242 664.002 182.242C665.252 182.242 666.385 182.125 667.401 181.891V183.648ZM672.569 171.695V184H670.401V171.695H672.569ZM672.569 167.242V169.293H670.401V167.242H672.569ZM677.912 177.801C677.912 180.762 679.143 182.242 681.604 182.242C684.065 182.242 685.295 180.762 685.295 177.801C685.295 174.902 684.065 173.453 681.604 173.453C679.143 173.453 677.912 174.902 677.912 177.801ZM675.744 177.848C675.744 173.746 677.698 171.695 681.604 171.695C685.51 171.695 687.463 173.746 687.463 177.848C687.463 181.941 685.51 183.988 681.604 183.988C677.713 183.988 675.76 181.941 675.744 177.848ZM690.276 183.414V181.539C691.721 182.008 693.182 182.242 694.659 182.242C696.619 182.242 697.6 181.656 697.6 180.484C697.6 179.391 696.916 178.844 695.549 178.844H693.791C691.135 178.844 689.807 177.633 689.807 175.211C689.807 172.867 691.514 171.695 694.928 171.695C696.397 171.695 697.854 171.891 699.299 172.281V174.156C697.854 173.688 696.397 173.453 694.928 173.453C692.881 173.453 691.858 174.039 691.858 175.211C691.858 176.305 692.502 176.852 693.791 176.852H695.549C698.362 176.852 699.768 178.062 699.768 180.484C699.768 182.828 698.065 184 694.659 184C693.182 184 691.721 183.805 690.276 183.414ZM726.688 173.781C725.945 173.594 725.027 173.5 723.934 173.5C721.316 173.5 720.008 174.918 720.008 177.754C720.008 180.668 721.246 182.125 723.723 182.125C724.848 182.125 725.836 181.914 726.688 181.492V173.781ZM728.855 188.453H726.688V183.414C725.766 183.805 724.773 184 723.711 184C719.82 184 717.875 181.926 717.875 177.777C717.875 173.723 719.926 171.695 724.027 171.695C725.691 171.695 727.301 171.863 728.855 172.199V188.453ZM742.988 171.695V184H741.5L741.125 182.43C739.633 183.477 738.133 184 736.625 184C733.797 184 732.383 182.473 732.383 179.418V171.695H734.551V179.453C734.551 181.281 735.457 182.195 737.27 182.195C738.512 182.195 739.695 181.676 740.82 180.637V171.695H742.988ZM751.59 171.695C755.09 171.695 756.84 173.426 756.84 176.887C756.84 177.379 756.805 177.906 756.734 178.469H748.098C748.098 180.984 749.566 182.242 752.504 182.242C753.902 182.242 755.145 182.086 756.23 181.773V183.531C755.145 183.844 753.824 184 752.27 184C748.043 184 745.93 181.902 745.93 177.707C745.93 173.699 747.816 171.695 751.59 171.695ZM748.098 176.664H754.754C754.707 174.508 753.652 173.43 751.59 173.43C749.402 173.43 748.238 174.508 748.098 176.664ZM140.34 204.801C140.34 207.762 141.57 209.242 144.031 209.242C146.492 209.242 147.723 207.762 147.723 204.801C147.723 201.902 146.492 200.453 144.031 200.453C141.57 200.453 140.34 201.902 140.34 204.801ZM138.172 204.848C138.172 200.746 140.125 198.695 144.031 198.695C147.938 198.695 149.891 200.746 149.891 204.848C149.891 208.941 147.938 210.988 144.031 210.988C140.141 210.988 138.188 208.941 138.172 204.848ZM152.82 211V198.098C152.82 195.121 154.508 193.633 157.883 193.633C158.812 193.633 159.688 193.789 160.508 194.102V195.859C159.734 195.547 158.855 195.391 157.871 195.391C155.949 195.391 154.988 196.262 154.988 198.004V198.695H158.797V200.453H154.988V211H152.82ZM161.164 211V198.695H162.629L163.016 200.266C164.094 199.219 165.391 198.695 166.906 198.695V200.5C165.438 200.5 164.246 201.02 163.332 202.059V211H161.164ZM174.16 198.695C177.66 198.695 179.41 200.426 179.41 203.887C179.41 204.379 179.375 204.906 179.305 205.469H170.668C170.668 207.984 172.137 209.242 175.074 209.242C176.473 209.242 177.715 209.086 178.801 208.773V210.531C177.715 210.844 176.395 211 174.84 211C170.613 211 168.5 208.902 168.5 204.707C168.5 200.699 170.387 198.695 174.16 198.695ZM170.668 203.664H177.324C177.277 201.508 176.223 200.43 174.16 200.43C171.973 200.43 170.809 201.508 170.668 203.664ZM191.586 210.648C190.57 210.883 189.477 211 188.305 211C183.93 211 181.742 208.871 181.742 204.613C181.742 200.668 183.93 198.695 188.305 198.695C189.477 198.695 190.57 198.812 191.586 199.047V200.805C190.57 200.57 189.438 200.453 188.188 200.453C185.336 200.453 183.91 201.84 183.91 204.613C183.91 207.699 185.336 209.242 188.188 209.242C189.438 209.242 190.57 209.125 191.586 208.891V210.648ZM199.426 198.695C202.926 198.695 204.676 200.426 204.676 203.887C204.676 204.379 204.641 204.906 204.57 205.469H195.934C195.934 207.984 197.402 209.242 200.34 209.242C201.738 209.242 202.98 209.086 204.066 208.773V210.531C202.98 210.844 201.66 211 200.105 211C195.879 211 193.766 208.902 193.766 204.707C193.766 200.699 195.652 198.695 199.426 198.695ZM195.934 203.664H202.59C202.543 201.508 201.488 200.43 199.426 200.43C197.238 200.43 196.074 201.508 195.934 203.664ZM207.477 210.414V208.539C208.922 209.008 210.383 209.242 211.859 209.242C213.82 209.242 214.801 208.656 214.801 207.484C214.801 206.391 214.117 205.844 212.75 205.844H210.992C208.336 205.844 207.008 204.633 207.008 202.211C207.008 199.867 208.715 198.695 212.129 198.695C213.598 198.695 215.055 198.891 216.5 199.281V201.156C215.055 200.688 213.598 200.453 212.129 200.453C210.082 200.453 209.059 201.039 209.059 202.211C209.059 203.305 209.703 203.852 210.992 203.852H212.75C215.562 203.852 216.969 205.062 216.969 207.484C216.969 209.828 215.266 211 211.859 211C210.383 211 208.922 210.805 207.477 210.414ZM241.771 198.695C245.271 198.695 247.021 200.426 247.021 203.887C247.021 204.379 246.985 204.906 246.915 205.469H238.278C238.278 207.984 239.747 209.242 242.685 209.242C244.083 209.242 245.325 209.086 246.411 208.773V210.531C245.325 210.844 244.005 211 242.45 211C238.224 211 236.11 208.902 236.11 204.707C236.11 200.699 237.997 198.695 241.771 198.695ZM238.278 203.664H244.935C244.888 201.508 243.833 200.43 241.771 200.43C239.583 200.43 238.419 201.508 238.278 203.664ZM249.939 211V198.695H251.403L251.79 200.266C253.048 199.219 254.431 198.695 255.939 198.695C259.009 198.695 260.544 200.223 260.544 203.277V211H258.376V203.242C258.376 201.414 257.466 200.5 255.646 200.5C254.403 200.5 253.224 201.02 252.107 202.059V211H249.939ZM280.869 211V198.695H282.334L282.721 200.266C283.979 199.219 285.362 198.695 286.869 198.695C289.94 198.695 291.475 200.223 291.475 203.277V211H289.307V203.242C289.307 201.414 288.397 200.5 286.576 200.5C285.334 200.5 284.155 201.02 283.037 202.059V211H280.869ZM305.608 198.695V211H304.119L303.744 209.43C302.252 210.477 300.752 211 299.244 211C296.416 211 295.002 209.473 295.002 206.418V198.695H297.17V206.453C297.17 208.281 298.076 209.195 299.889 209.195C301.131 209.195 302.315 208.676 303.44 207.637V198.695H305.608ZM314.209 198.695C317.709 198.695 319.459 200.426 319.459 203.887C319.459 204.379 319.424 204.906 319.354 205.469H310.717C310.717 207.984 312.186 209.242 315.123 209.242C316.522 209.242 317.764 209.086 318.85 208.773V210.531C317.764 210.844 316.444 211 314.889 211C310.662 211 308.549 208.902 308.549 204.707C308.549 200.699 310.436 198.695 314.209 198.695ZM310.717 203.664H317.373C317.326 201.508 316.272 200.43 314.209 200.43C312.022 200.43 310.858 201.508 310.717 203.664ZM322.26 210.414V208.539C323.705 209.008 325.166 209.242 326.643 209.242C328.604 209.242 329.584 208.656 329.584 207.484C329.584 206.391 328.901 205.844 327.533 205.844H325.776C323.119 205.844 321.791 204.633 321.791 202.211C321.791 199.867 323.498 198.695 326.912 198.695C328.381 198.695 329.838 198.891 331.283 199.281V201.156C329.838 200.688 328.381 200.453 326.912 200.453C324.866 200.453 323.842 201.039 323.842 202.211C323.842 203.305 324.487 203.852 325.776 203.852H327.533C330.346 203.852 331.752 205.062 331.752 207.484C331.752 209.828 330.049 211 326.643 211C325.166 211 323.705 210.805 322.26 210.414ZM334.682 196.703H336.041L336.51 198.695H339.838V200.453H336.85V207.52C336.85 208.668 337.346 209.242 338.338 209.242H339.838V211H337.776C335.713 211 334.682 209.895 334.682 207.684V196.703ZM342.604 211V198.695H344.069L344.455 200.266C345.533 199.219 346.83 198.695 348.346 198.695V200.5C346.877 200.5 345.686 201.02 344.772 202.059V211H342.604ZM349.94 207.285C349.94 204.762 351.604 203.5 354.932 203.5C356.002 203.5 357.073 203.578 358.143 203.734V202.574C358.143 201.16 357.037 200.453 354.826 200.453C353.561 200.453 352.264 200.648 350.936 201.039V199.281C352.264 198.891 353.561 198.695 354.826 198.695C358.483 198.695 360.311 199.969 360.311 202.516V211H359.092L358.342 209.781C357.116 210.594 355.78 211 354.334 211C351.405 211 349.94 209.762 349.94 207.285ZM354.932 205.258C353.049 205.258 352.108 205.922 352.108 207.25C352.108 208.578 352.85 209.242 354.334 209.242C355.834 209.242 357.104 208.844 358.143 208.047V205.492C357.073 205.336 356.002 205.258 354.932 205.258ZM382.804 208.492C383.656 208.914 384.605 209.125 385.652 209.125C388.206 209.125 389.484 207.59 389.484 204.52C389.484 201.84 388.214 200.5 385.675 200.5C384.581 200.5 383.624 200.594 382.804 200.781V208.492ZM380.636 199.199C382.269 198.863 383.956 198.695 385.699 198.695C389.644 198.695 391.617 200.645 391.617 204.543C391.617 208.848 389.632 211 385.663 211C384.679 211 383.726 210.805 382.804 210.414V215.453H380.636V199.199ZM396.843 194.242V211H394.675V194.242H396.843ZM399.902 207.285C399.902 204.762 401.566 203.5 404.894 203.5C405.964 203.5 407.035 203.578 408.105 203.734V202.574C408.105 201.16 406.999 200.453 404.789 200.453C403.523 200.453 402.226 200.648 400.898 201.039V199.281C402.226 198.891 403.523 198.695 404.789 198.695C408.445 198.695 410.273 199.969 410.273 202.516V211H409.054L408.304 209.781C407.078 210.594 405.742 211 404.296 211C401.367 211 399.902 209.762 399.902 207.285ZM404.894 205.258C403.011 205.258 402.07 205.922 402.07 207.25C402.07 208.578 402.812 209.242 404.296 209.242C405.796 209.242 407.066 208.844 408.105 208.047V205.492C407.035 205.336 405.964 205.258 404.894 205.258ZM413.8 196.703H415.16L415.628 198.695H418.956V200.453H415.968V207.52C415.968 208.668 416.464 209.242 417.456 209.242H418.956V211H416.894C414.831 211 413.8 209.895 413.8 207.684V196.703ZM421.136 207.285C421.136 204.762 422.8 203.5 426.128 203.5C427.199 203.5 428.269 203.578 429.339 203.734V202.574C429.339 201.16 428.234 200.453 426.023 200.453C424.757 200.453 423.46 200.648 422.132 201.039V199.281C423.46 198.891 424.757 198.695 426.023 198.695C429.679 198.695 431.507 199.969 431.507 202.516V211H430.289L429.539 209.781C428.312 210.594 426.976 211 425.531 211C422.601 211 421.136 209.762 421.136 207.285ZM426.128 205.258C424.246 205.258 423.304 205.922 423.304 207.25C423.304 208.578 424.046 209.242 425.531 209.242C427.031 209.242 428.3 208.844 429.339 208.047V205.492C428.269 205.336 427.199 205.258 426.128 205.258ZM435.035 211V198.098C435.035 195.121 436.722 193.633 440.097 193.633C441.027 193.633 441.902 193.789 442.722 194.102V195.859C441.949 195.547 441.07 195.391 440.085 195.391C438.164 195.391 437.203 196.262 437.203 198.004V198.695H441.011V200.453H437.203V211H435.035ZM444.96 204.801C444.96 207.762 446.191 209.242 448.652 209.242C451.113 209.242 452.343 207.762 452.343 204.801C452.343 201.902 451.113 200.453 448.652 200.453C446.191 200.453 444.96 201.902 444.96 204.801ZM442.792 204.848C442.792 200.746 444.746 198.695 448.652 198.695C452.558 198.695 454.511 200.746 454.511 204.848C454.511 208.941 452.558 210.988 448.652 210.988C444.761 210.988 442.808 208.941 442.792 204.848ZM457.441 211V198.695H458.906L459.292 200.266C460.371 199.219 461.667 198.695 463.183 198.695V200.5C461.714 200.5 460.523 201.02 459.609 202.059V211H457.441ZM465.363 211V198.695H466.828L467.191 200.242C468.371 199.211 469.656 198.695 471.046 198.695C472.828 198.695 474.042 199.258 474.691 200.383C476.027 199.258 477.382 198.695 478.757 198.695C481.585 198.695 482.999 200.254 482.999 203.371V211H480.831V203.254C480.831 201.418 480.058 200.5 478.511 200.5C477.355 200.5 476.273 201.031 475.265 202.094V211H473.097V203.289C473.097 201.43 472.331 200.5 470.8 200.5C469.581 200.5 468.492 201.031 467.531 202.094V211H465.363ZM485.941 207.285C485.941 204.762 487.605 203.5 490.933 203.5C492.003 203.5 493.074 203.578 494.144 203.734V202.574C494.144 201.16 493.039 200.453 490.828 200.453C489.562 200.453 488.265 200.648 486.937 201.039V199.281C488.265 198.891 489.562 198.695 490.828 198.695C494.484 198.695 496.312 199.969 496.312 202.516V211H495.093L494.343 209.781C493.117 210.594 491.781 211 490.335 211C487.406 211 485.941 209.762 485.941 207.285ZM490.933 205.258C489.05 205.258 488.109 205.922 488.109 207.25C488.109 208.578 488.851 209.242 490.335 209.242C491.835 209.242 493.105 208.844 494.144 208.047V205.492C493.074 205.336 492.003 205.258 490.933 205.258ZM501.421 208.832V211H499.253V208.832H501.421ZM527.489 209.242C531.59 209.242 533.641 206.883 533.641 202.164C533.641 198.055 531.59 196 527.489 196H523.563V209.242H527.489ZM521.395 211V194.242H527.489C533.036 194.242 535.809 196.883 535.809 202.164C535.809 208.055 533.036 211 527.489 211H521.395ZM543.813 198.695C547.313 198.695 549.063 200.426 549.063 203.887C549.063 204.379 549.028 204.906 548.958 205.469H540.321C540.321 207.984 541.79 209.242 544.727 209.242C546.126 209.242 547.368 209.086 548.454 208.773V210.531C547.368 210.844 546.047 211 544.493 211C540.266 211 538.153 208.902 538.153 204.707C538.153 200.699 540.04 198.695 543.813 198.695ZM540.321 203.664H546.977C546.93 201.508 545.876 200.43 543.813 200.43C541.626 200.43 540.461 201.508 540.321 203.664ZM554.383 198.695V210.062C554.383 212.547 553.778 214.414 552.567 215.664L550.751 214.434C551.727 213.379 552.215 211.922 552.215 210.062V198.695H554.383ZM554.383 194.242V196.293H552.215V194.242H554.383ZM557.559 207.285C557.559 204.762 559.223 203.5 562.551 203.5C563.622 203.5 564.692 203.578 565.762 203.734V202.574C565.762 201.16 564.657 200.453 562.446 200.453C561.18 200.453 559.883 200.648 558.555 201.039V199.281C559.883 198.891 561.18 198.695 562.446 198.695C566.102 198.695 567.93 199.969 567.93 202.516V211H566.711L565.961 209.781C564.735 210.594 563.399 211 561.954 211C559.024 211 557.559 209.762 557.559 207.285ZM562.551 205.258C560.669 205.258 559.727 205.922 559.727 207.25C559.727 208.578 560.469 209.242 561.954 209.242C563.454 209.242 564.723 208.844 565.762 208.047V205.492C564.692 205.336 563.622 205.258 562.551 205.258ZM596.482 200.781C595.74 200.594 594.822 200.5 593.728 200.5C591.111 200.5 589.802 201.918 589.802 204.754C589.802 207.668 591.041 209.125 593.517 209.125C594.642 209.125 595.631 208.914 596.482 208.492V200.781ZM598.65 215.453H596.482V210.414C595.56 210.805 594.568 211 593.506 211C589.615 211 587.67 208.926 587.67 204.777C587.67 200.723 589.72 198.695 593.822 198.695C595.486 198.695 597.095 198.863 598.65 199.199V215.453ZM612.783 198.695V211H611.295L610.92 209.43C609.427 210.477 607.927 211 606.42 211C603.592 211 602.177 209.473 602.177 206.418V198.695H604.345V206.453C604.345 208.281 605.252 209.195 607.064 209.195C608.306 209.195 609.49 208.676 610.615 207.637V198.695H612.783ZM621.384 198.695C624.884 198.695 626.634 200.426 626.634 203.887C626.634 204.379 626.599 204.906 626.529 205.469H617.892C617.892 207.984 619.361 209.242 622.299 209.242C623.697 209.242 624.939 209.086 626.025 208.773V210.531C624.939 210.844 623.619 211 622.064 211C617.838 211 615.724 208.902 615.724 204.707C615.724 200.699 617.611 198.695 621.384 198.695ZM617.892 203.664H624.549C624.502 201.508 623.447 200.43 621.384 200.43C619.197 200.43 618.033 201.508 617.892 203.664ZM651.425 198.695C654.925 198.695 656.675 200.426 656.675 203.887C656.675 204.379 656.639 204.906 656.569 205.469H647.932C647.932 207.984 649.401 209.242 652.339 209.242C653.737 209.242 654.979 209.086 656.065 208.773V210.531C654.979 210.844 653.659 211 652.104 211C647.878 211 645.764 208.902 645.764 204.707C645.764 200.699 647.651 198.695 651.425 198.695ZM647.932 203.664H654.589C654.542 201.508 653.487 200.43 651.425 200.43C649.237 200.43 648.073 201.508 647.932 203.664ZM661.878 194.242V211H659.71V194.242H661.878ZM682.32 211V198.695H683.785L684.148 200.242C685.328 199.211 686.613 198.695 688.004 198.695C689.785 198.695 691 199.258 691.648 200.383C692.984 199.258 694.34 198.695 695.715 198.695C698.543 198.695 699.957 200.254 699.957 203.371V211H697.789V203.254C697.789 201.418 697.016 200.5 695.469 200.5C694.312 200.5 693.23 201.031 692.223 202.094V211H690.055V203.289C690.055 201.43 689.289 200.5 687.758 200.5C686.539 200.5 685.449 201.031 684.488 202.094V211H682.32ZM714.09 198.695V211H712.602L712.227 209.43C710.734 210.477 709.234 211 707.727 211C704.898 211 703.484 209.473 703.484 206.418V198.695H705.652V206.453C705.652 208.281 706.559 209.195 708.371 209.195C709.613 209.195 710.797 208.676 711.922 207.637V198.695H714.09ZM717.617 211V198.695H719.082L719.469 200.266C720.727 199.219 722.109 198.695 723.617 198.695C726.688 198.695 728.223 200.223 728.223 203.277V211H726.055V203.242C726.055 201.414 725.145 200.5 723.324 200.5C722.082 200.5 720.902 201.02 719.785 202.059V211H717.617ZM740.012 201.203C739.137 200.781 738.137 200.57 737.012 200.57C734.535 200.57 733.297 201.887 733.297 204.52C733.297 207.637 734.535 209.195 737.012 209.195C738.137 209.195 739.137 209.043 740.012 208.738V201.203ZM742.18 210.262C740.688 210.754 738.848 211 736.66 211C732.996 211 731.164 208.867 731.164 204.602C731.164 200.664 733.109 198.695 737 198.695C738.062 198.695 739.066 198.891 740.012 199.281V194.242H742.18V210.262ZM747.277 204.801C747.277 207.762 748.508 209.242 750.969 209.242C753.43 209.242 754.66 207.762 754.66 204.801C754.66 201.902 753.43 200.453 750.969 200.453C748.508 200.453 747.277 201.902 747.277 204.801ZM745.109 204.848C745.109 200.746 747.062 198.695 750.969 198.695C754.875 198.695 756.828 200.746 756.828 204.848C756.828 208.941 754.875 210.988 750.969 210.988C747.078 210.988 745.125 208.941 745.109 204.848ZM148.016 237.648C147 237.883 145.906 238 144.734 238C140.359 238 138.172 235.871 138.172 231.613C138.172 227.668 140.359 225.695 144.734 225.695C145.906 225.695 147 225.812 148.016 226.047V227.805C147 227.57 145.867 227.453 144.617 227.453C141.766 227.453 140.34 228.84 140.34 231.613C140.34 234.699 141.766 236.242 144.617 236.242C145.867 236.242 147 236.125 148.016 235.891V237.648ZM152.363 231.801C152.363 234.762 153.594 236.242 156.055 236.242C158.516 236.242 159.746 234.762 159.746 231.801C159.746 228.902 158.516 227.453 156.055 227.453C153.594 227.453 152.363 228.902 152.363 231.801ZM150.195 231.848C150.195 227.746 152.148 225.695 156.055 225.695C159.961 225.695 161.914 227.746 161.914 231.848C161.914 235.941 159.961 237.988 156.055 237.988C152.164 237.988 150.211 235.941 150.195 231.848ZM164.844 238V225.695H166.309L166.695 227.266C167.953 226.219 169.336 225.695 170.844 225.695C173.914 225.695 175.449 227.223 175.449 230.277V238H173.281V230.242C173.281 228.414 172.371 227.5 170.551 227.5C169.309 227.5 168.129 228.02 167.012 229.059V238H164.844ZM180.559 231.801C180.559 234.762 181.789 236.242 184.25 236.242C186.711 236.242 187.941 234.762 187.941 231.801C187.941 228.902 186.711 227.453 184.25 227.453C181.789 227.453 180.559 228.902 180.559 231.801ZM178.391 231.848C178.391 227.746 180.344 225.695 184.25 225.695C188.156 225.695 190.109 227.746 190.109 231.848C190.109 235.941 188.156 237.988 184.25 237.988C180.359 237.988 178.406 235.941 178.391 231.848ZM192.688 225.695H202.297V227.453L194.949 236.359H202.062V238H192.453V236.359L199.895 227.453H192.688V225.695ZM214.484 237.648C213.469 237.883 212.375 238 211.203 238C206.828 238 204.641 235.871 204.641 231.613C204.641 227.668 206.828 225.695 211.203 225.695C212.375 225.695 213.469 225.812 214.484 226.047V227.805C213.469 227.57 212.336 227.453 211.086 227.453C208.234 227.453 206.809 228.84 206.809 231.613C206.809 234.699 208.234 236.242 211.086 236.242C212.336 236.242 213.469 236.125 214.484 235.891V237.648ZM216.664 234.285C216.664 231.762 218.328 230.5 221.656 230.5C222.727 230.5 223.797 230.578 224.867 230.734V229.574C224.867 228.16 223.762 227.453 221.551 227.453C220.285 227.453 218.988 227.648 217.66 228.039V226.281C218.988 225.891 220.285 225.695 221.551 225.695C225.207 225.695 227.035 226.969 227.035 229.516V238H225.816L225.066 236.781C223.84 237.594 222.504 238 221.059 238C218.129 238 216.664 236.762 216.664 234.285ZM221.656 232.258C219.773 232.258 218.832 232.922 218.832 234.25C218.832 235.578 219.574 236.242 221.059 236.242C222.559 236.242 223.828 235.844 224.867 235.047V232.492C223.797 232.336 222.727 232.258 221.656 232.258ZM243.738 223.703H245.097L245.566 225.695H248.894V227.453H245.906V234.52C245.906 235.668 246.402 236.242 247.394 236.242H248.894V238H246.831C244.769 238 243.738 236.895 243.738 234.684V223.703ZM262.265 225.695V238H260.777L260.402 236.43C258.91 237.477 257.41 238 255.902 238C253.074 238 251.66 236.473 251.66 233.418V225.695H253.828V233.453C253.828 235.281 254.734 236.195 256.546 236.195C257.789 236.195 258.972 235.676 260.097 234.637V225.695H262.265ZM265.675 237.414V235.539C267.121 236.008 268.581 236.242 270.058 236.242C272.019 236.242 272.999 235.656 272.999 234.484C272.999 233.391 272.316 232.844 270.949 232.844H269.191C266.535 232.844 265.206 231.633 265.206 229.211C265.206 226.867 266.914 225.695 270.328 225.695C271.796 225.695 273.253 225.891 274.699 226.281V228.156C273.253 227.688 271.796 227.453 270.328 227.453C268.281 227.453 267.257 228.039 267.257 229.211C267.257 230.305 267.902 230.852 269.191 230.852H270.949C273.761 230.852 275.167 232.062 275.167 234.484C275.167 236.828 273.464 238 270.058 238C268.581 238 267.121 237.805 265.675 237.414ZM291.272 238V221.242H293.44V227.031C294.487 226.141 295.765 225.695 297.272 225.695C300.343 225.695 301.878 227.223 301.878 230.277V238H299.71V230.242C299.71 228.414 298.8 227.5 296.979 227.5C295.737 227.5 294.557 228.02 293.44 229.059V238H291.272ZM304.819 234.285C304.819 231.762 306.483 230.5 309.811 230.5C310.882 230.5 311.952 230.578 313.022 230.734V229.574C313.022 228.16 311.917 227.453 309.706 227.453C308.44 227.453 307.143 227.648 305.815 228.039V226.281C307.143 225.891 308.44 225.695 309.706 225.695C313.362 225.695 315.19 226.969 315.19 229.516V238H313.972L313.222 236.781C311.995 237.594 310.659 238 309.214 238C306.284 238 304.819 236.762 304.819 234.285ZM309.811 232.258C307.929 232.258 306.987 232.922 306.987 234.25C306.987 235.578 307.729 236.242 309.214 236.242C310.714 236.242 311.983 235.844 313.022 235.047V232.492C311.952 232.336 310.882 232.258 309.811 232.258ZM320.886 235.855C321.597 236.082 322.46 236.195 323.475 236.195C326.21 236.195 327.577 234.637 327.577 231.52C327.577 228.887 326.339 227.57 323.862 227.57C322.737 227.57 321.745 227.781 320.886 228.203V235.855ZM318.718 221.242H320.886V226.281C321.815 225.891 322.811 225.695 323.874 225.695C327.765 225.695 329.71 227.664 329.71 231.602C329.71 235.867 327.667 238 323.581 238C321.815 238 320.194 237.832 318.718 237.496V221.242ZM335.042 225.695V238H332.874V225.695H335.042ZM335.042 221.242V223.293H332.874V221.242H335.042ZM341.089 221.242V238H338.921V221.242H341.089ZM347.136 225.695V238H344.968V225.695H347.136ZM347.136 221.242V223.293H344.968V221.242H347.136ZM359.159 228.203C358.284 227.781 357.284 227.57 356.159 227.57C353.682 227.57 352.444 228.887 352.444 231.52C352.444 234.637 353.682 236.195 356.159 236.195C357.284 236.195 358.284 236.043 359.159 235.738V228.203ZM361.327 237.262C359.835 237.754 357.995 238 355.807 238C352.143 238 350.311 235.867 350.311 231.602C350.311 227.664 352.257 225.695 356.147 225.695C357.21 225.695 358.214 225.891 359.159 226.281V221.242H361.327V237.262ZM364.257 234.285C364.257 231.762 365.921 230.5 369.249 230.5C370.319 230.5 371.39 230.578 372.46 230.734V229.574C372.46 228.16 371.354 227.453 369.143 227.453C367.878 227.453 366.581 227.648 365.253 228.039V226.281C366.581 225.891 367.878 225.695 369.143 225.695C372.8 225.695 374.628 226.969 374.628 229.516V238H373.409L372.659 236.781C371.432 237.594 370.097 238 368.651 238C365.722 238 364.257 236.762 364.257 234.285ZM369.249 232.258C367.366 232.258 366.425 232.922 366.425 234.25C366.425 235.578 367.167 236.242 368.651 236.242C370.151 236.242 371.421 235.844 372.46 235.047V232.492C371.39 232.336 370.319 232.258 369.249 232.258ZM386.417 228.203C385.542 227.781 384.542 227.57 383.417 227.57C380.94 227.57 379.702 228.887 379.702 231.52C379.702 234.637 380.94 236.195 383.417 236.195C384.542 236.195 385.542 236.043 386.417 235.738V228.203ZM388.585 237.262C387.093 237.754 385.253 238 383.065 238C379.401 238 377.569 235.867 377.569 231.602C377.569 227.664 379.515 225.695 383.405 225.695C384.468 225.695 385.472 225.891 386.417 226.281V221.242H388.585V237.262ZM397.175 225.695C400.675 225.695 402.425 227.426 402.425 230.887C402.425 231.379 402.39 231.906 402.319 232.469H393.682C393.682 234.984 395.151 236.242 398.089 236.242C399.487 236.242 400.729 236.086 401.815 235.773V237.531C400.729 237.844 399.409 238 397.854 238C393.628 238 391.515 235.902 391.515 231.707C391.515 227.699 393.401 225.695 397.175 225.695ZM393.682 230.664H400.339C400.292 228.508 399.237 227.43 397.175 227.43C394.987 227.43 393.823 228.508 393.682 230.664ZM405.225 237.414V235.539C406.671 236.008 408.132 236.242 409.608 236.242C411.569 236.242 412.55 235.656 412.55 234.484C412.55 233.391 411.866 232.844 410.499 232.844H408.741C406.085 232.844 404.757 231.633 404.757 229.211C404.757 226.867 406.464 225.695 409.878 225.695C411.347 225.695 412.804 225.891 414.249 226.281V228.156C412.804 227.688 411.347 227.453 409.878 227.453C407.831 227.453 406.807 228.039 406.807 229.211C406.807 230.305 407.452 230.852 408.741 230.852H410.499C413.311 230.852 414.718 232.062 414.718 234.484C414.718 236.828 413.014 238 409.608 238C408.132 238 406.671 237.805 405.225 237.414ZM429.358 225.695H431.713L435.194 235.305L438.791 225.695H441.088L435.979 238.363C435.073 240.598 433.713 241.992 431.901 242.547L431.069 241.012C432.444 240.41 433.444 239.43 434.069 238.07L429.358 225.695ZM464.529 227.781C463.787 227.594 462.869 227.5 461.775 227.5C459.158 227.5 457.849 228.918 457.849 231.754C457.849 234.668 459.088 236.125 461.564 236.125C462.689 236.125 463.677 235.914 464.529 235.492V227.781ZM466.697 238C466.697 240.969 464.81 242.453 461.037 242.453C459.521 242.453 458.177 242.258 457.006 241.867V240.109C458.201 240.5 459.552 240.695 461.06 240.695C463.373 240.695 464.529 239.797 464.529 238V237.414C463.607 237.805 462.615 238 461.552 238C457.662 238 455.717 235.926 455.717 231.777C455.717 227.723 457.767 225.695 461.869 225.695C463.533 225.695 465.142 225.863 466.697 226.199V238ZM475.299 225.695C478.799 225.695 480.549 227.426 480.549 230.887C480.549 231.379 480.513 231.906 480.443 232.469H471.806C471.806 234.984 473.275 236.242 476.213 236.242C477.611 236.242 478.853 236.086 479.939 235.773V237.531C478.853 237.844 477.533 238 475.978 238C471.752 238 469.638 235.902 469.638 231.707C469.638 227.699 471.525 225.695 475.299 225.695ZM471.806 230.664H478.463C478.416 228.508 477.361 227.43 475.299 227.43C473.111 227.43 471.947 228.508 471.806 230.664ZM483.467 238V225.695H484.931L485.318 227.266C486.576 226.219 487.959 225.695 489.467 225.695C492.537 225.695 494.072 227.223 494.072 230.277V238H491.904V230.242C491.904 228.414 490.994 227.5 489.174 227.5C487.931 227.5 486.752 228.02 485.634 229.059V238H483.467ZM502.674 225.695C506.174 225.695 507.924 227.426 507.924 230.887C507.924 231.379 507.888 231.906 507.818 232.469H499.181C499.181 234.984 500.65 236.242 503.588 236.242C504.986 236.242 506.228 236.086 507.314 235.773V237.531C506.228 237.844 504.908 238 503.353 238C499.127 238 497.013 235.902 497.013 231.707C497.013 227.699 498.9 225.695 502.674 225.695ZM499.181 230.664H505.838C505.791 228.508 504.736 227.43 502.674 227.43C500.486 227.43 499.322 228.508 499.181 230.664ZM510.842 238V225.695H512.306L512.693 227.266C513.771 226.219 515.068 225.695 516.584 225.695V227.5C515.115 227.5 513.924 228.02 513.009 229.059V238H510.842ZM518.177 234.285C518.177 231.762 519.842 230.5 523.17 230.5C524.24 230.5 525.31 230.578 526.381 230.734V229.574C526.381 228.16 525.275 227.453 523.064 227.453C521.799 227.453 520.502 227.648 519.174 228.039V226.281C520.502 225.891 521.799 225.695 523.064 225.695C526.72 225.695 528.549 226.969 528.549 229.516V238H527.33L526.58 236.781C525.353 237.594 524.017 238 522.572 238C519.642 238 518.177 236.762 518.177 234.285ZM523.17 232.258C521.287 232.258 520.345 232.922 520.345 234.25C520.345 235.578 521.088 236.242 522.572 236.242C524.072 236.242 525.342 235.844 526.381 235.047V232.492C525.31 232.336 524.24 232.258 523.17 232.258ZM547.653 225.695V238H545.486V225.695H547.653ZM547.653 221.242V223.293H545.486V221.242H547.653ZM551.415 238V225.695H552.88L553.267 227.266C554.525 226.219 555.907 225.695 557.415 225.695C560.486 225.695 562.021 227.223 562.021 230.277V238H559.853V230.242C559.853 228.414 558.943 227.5 557.122 227.5C555.88 227.5 554.7 228.02 553.583 229.059V238H551.415ZM573.775 227.781C573.032 227.594 572.114 227.5 571.021 227.5C568.403 227.5 567.095 228.918 567.095 231.754C567.095 234.668 568.333 236.125 570.81 236.125C571.935 236.125 572.923 235.914 573.775 235.492V227.781ZM575.943 238C575.943 240.969 574.056 242.453 570.282 242.453C568.767 242.453 567.423 242.258 566.251 241.867V240.109C567.446 240.5 568.798 240.695 570.306 240.695C572.618 240.695 573.775 239.797 573.775 238V237.414C572.853 237.805 571.861 238 570.798 238C566.907 238 564.962 235.926 564.962 231.777C564.962 227.723 567.013 225.695 571.114 225.695C572.778 225.695 574.388 225.863 575.943 226.199V238ZM579.47 238V225.695H580.935L581.321 227.266C582.4 226.219 583.696 225.695 585.212 225.695V227.5C583.743 227.5 582.552 228.02 581.638 229.059V238H579.47ZM592.466 225.695C595.966 225.695 597.716 227.426 597.716 230.887C597.716 231.379 597.681 231.906 597.611 232.469H588.974C588.974 234.984 590.443 236.242 593.38 236.242C594.778 236.242 596.021 236.086 597.107 235.773V237.531C596.021 237.844 594.7 238 593.146 238C588.919 238 586.806 235.902 586.806 231.707C586.806 227.699 588.693 225.695 592.466 225.695ZM588.974 230.664H595.63C595.583 228.508 594.528 227.43 592.466 227.43C590.278 227.43 589.114 228.508 588.974 230.664ZM600.517 237.414V235.539C601.962 236.008 603.423 236.242 604.9 236.242C606.861 236.242 607.841 235.656 607.841 234.484C607.841 233.391 607.157 232.844 605.79 232.844H604.032C601.376 232.844 600.048 231.633 600.048 229.211C600.048 226.867 601.755 225.695 605.169 225.695C606.638 225.695 608.095 225.891 609.54 226.281V228.156C608.095 227.688 606.638 227.453 605.169 227.453C603.122 227.453 602.099 228.039 602.099 229.211C602.099 230.305 602.743 230.852 604.032 230.852H605.79C608.603 230.852 610.009 232.062 610.009 234.484C610.009 236.828 608.306 238 604.9 238C603.423 238 601.962 237.805 600.517 237.414ZM614.521 231.801C614.521 234.762 615.751 236.242 618.212 236.242C620.673 236.242 621.903 234.762 621.903 231.801C621.903 228.902 620.673 227.453 618.212 227.453C615.751 227.453 614.521 228.902 614.521 231.801ZM612.353 231.848C612.353 227.746 614.306 225.695 618.212 225.695C622.118 225.695 624.071 227.746 624.071 231.848C624.071 235.941 622.118 237.988 618.212 237.988C614.321 237.988 612.368 235.941 612.353 231.848ZM626.884 237.414V235.539C628.329 236.008 629.79 236.242 631.267 236.242C633.228 236.242 634.208 235.656 634.208 234.484C634.208 233.391 633.525 232.844 632.157 232.844H630.4C627.743 232.844 626.415 231.633 626.415 229.211C626.415 226.867 628.122 225.695 631.536 225.695C633.005 225.695 634.462 225.891 635.907 226.281V228.156C634.462 227.688 633.005 227.453 631.536 227.453C629.489 227.453 628.466 228.039 628.466 229.211C628.466 230.305 629.111 230.852 630.4 230.852H632.157C634.97 230.852 636.376 232.062 636.376 234.484C636.376 236.828 634.673 238 631.267 238C629.79 238 628.329 237.805 626.884 237.414ZM651.895 234.285C651.895 231.762 653.559 230.5 656.887 230.5C657.958 230.5 659.028 230.578 660.098 230.734V229.574C660.098 228.16 658.993 227.453 656.782 227.453C655.516 227.453 654.219 227.648 652.891 228.039V226.281C654.219 225.891 655.516 225.695 656.782 225.695C660.438 225.695 662.266 226.969 662.266 229.516V238H661.047L660.297 236.781C659.071 237.594 657.735 238 656.29 238C653.36 238 651.895 236.762 651.895 234.285ZM656.887 232.258C655.004 232.258 654.063 232.922 654.063 234.25C654.063 235.578 654.805 236.242 656.29 236.242C657.79 236.242 659.059 235.844 660.098 235.047V232.492C659.028 232.336 657.958 232.258 656.887 232.258ZM668.079 221.242V238H665.911V221.242H668.079ZM684.898 238V225.695H686.363L686.727 227.242C687.906 226.211 689.191 225.695 690.582 225.695C692.363 225.695 693.578 226.258 694.227 227.383C695.562 226.258 696.918 225.695 698.293 225.695C701.121 225.695 702.535 227.254 702.535 230.371V238H700.367V230.254C700.367 228.418 699.594 227.5 698.047 227.5C696.891 227.5 695.809 228.031 694.801 229.094V238H692.633V230.289C692.633 228.43 691.867 227.5 690.336 227.5C689.117 227.5 688.027 228.031 687.066 229.094V238H684.898ZM708.465 225.695V238H706.297V225.695H708.465ZM708.465 221.242V223.293H706.297V221.242H708.465ZM712.109 237.414V235.539C713.555 236.008 715.016 236.242 716.492 236.242C718.453 236.242 719.434 235.656 719.434 234.484C719.434 233.391 718.75 232.844 717.383 232.844H715.625C712.969 232.844 711.641 231.633 711.641 229.211C711.641 226.867 713.348 225.695 716.762 225.695C718.23 225.695 719.688 225.891 721.133 226.281V228.156C719.688 227.688 718.23 227.453 716.762 227.453C714.715 227.453 713.691 228.039 713.691 229.211C713.691 230.305 714.336 230.852 715.625 230.852H717.383C720.195 230.852 721.602 232.062 721.602 234.484C721.602 236.828 719.898 238 716.492 238C715.016 238 713.555 237.805 712.109 237.414ZM724.531 238V225.695H725.996L726.359 227.242C727.539 226.211 728.824 225.695 730.215 225.695C731.996 225.695 733.211 226.258 733.859 227.383C735.195 226.258 736.551 225.695 737.926 225.695C740.754 225.695 742.168 227.254 742.168 230.371V238H740V230.254C740 228.418 739.227 227.5 737.68 227.5C736.523 227.5 735.441 228.031 734.434 229.094V238H732.266V230.289C732.266 228.43 731.5 227.5 729.969 227.5C728.75 227.5 727.66 228.031 726.699 229.094V238H724.531ZM747.277 231.801C747.277 234.762 748.508 236.242 750.969 236.242C753.43 236.242 754.66 234.762 754.66 231.801C754.66 228.902 753.43 227.453 750.969 227.453C748.508 227.453 747.277 228.902 747.277 231.801ZM745.109 231.848C745.109 227.746 747.062 225.695 750.969 225.695C754.875 225.695 756.828 227.746 756.828 231.848C756.828 235.941 754.875 237.988 750.969 237.988C747.078 237.988 745.125 235.941 745.109 231.848ZM138.758 250.703H140.117L140.586 252.695H143.914V254.453H140.926V261.52C140.926 262.668 141.422 263.242 142.414 263.242H143.914V265H141.852C139.789 265 138.758 263.895 138.758 261.684V250.703ZM149.082 252.695V265H146.914V252.695H149.082ZM149.082 248.242V250.293H146.914V248.242H149.082ZM157.918 252.695C161.418 252.695 163.168 254.426 163.168 257.887C163.168 258.379 163.133 258.906 163.062 259.469H154.426C154.426 261.984 155.895 263.242 158.832 263.242C160.23 263.242 161.473 263.086 162.559 262.773V264.531C161.473 264.844 160.152 265 158.598 265C154.371 265 152.258 262.902 152.258 258.707C152.258 254.699 154.145 252.695 157.918 252.695ZM154.426 257.664H161.082C161.035 255.508 159.98 254.43 157.918 254.43C155.73 254.43 154.566 255.508 154.426 257.664ZM166.086 265V252.695H167.551L167.914 254.242C169.094 253.211 170.379 252.695 171.77 252.695C173.551 252.695 174.766 253.258 175.414 254.383C176.75 253.258 178.105 252.695 179.48 252.695C182.309 252.695 183.723 254.254 183.723 257.371V265H181.555V257.254C181.555 255.418 180.781 254.5 179.234 254.5C178.078 254.5 176.996 255.031 175.988 256.094V265H173.82V257.289C173.82 255.43 173.055 254.5 171.523 254.5C170.305 254.5 169.215 255.031 168.254 256.094V265H166.086ZM189.418 262.492C190.27 262.914 191.219 263.125 192.266 263.125C194.82 263.125 196.098 261.59 196.098 258.52C196.098 255.84 194.828 254.5 192.289 254.5C191.195 254.5 190.238 254.594 189.418 254.781V262.492ZM187.25 253.199C188.883 252.863 190.57 252.695 192.312 252.695C196.258 252.695 198.23 254.645 198.23 258.543C198.23 262.848 196.246 265 192.277 265C191.293 265 190.34 264.805 189.418 264.414V269.453H187.25V253.199ZM202.754 258.801C202.754 261.762 203.984 263.242 206.445 263.242C208.906 263.242 210.137 261.762 210.137 258.801C210.137 255.902 208.906 254.453 206.445 254.453C203.984 254.453 202.754 255.902 202.754 258.801ZM200.586 258.848C200.586 254.746 202.539 252.695 206.445 252.695C210.352 252.695 212.305 254.746 212.305 258.848C212.305 262.941 210.352 264.988 206.445 264.988C202.555 264.988 200.602 262.941 200.586 258.848ZM217.402 248.242V260.664H215.234V248.242H217.402ZM217.402 262.832V265H215.234V262.832H217.402Z" fill="#1E1E1E"/>
<path d="M1078.44 225.063L1040.1 183.095C1043.84 172.858 1041.97 159.551 1033.55 151.362C1025.14 142.15 1012.98 140.102 1002.7 145.22L1020.46 164.669L1007.37 179L988.669 158.528C983.993 169.787 985.864 183.095 994.28 193.331C1002.7 202.543 1013.92 204.591 1023.27 200.496L1061.61 242.465C1063.48 244.512 1066.28 244.512 1067.22 242.465L1076.57 232.228C1079.38 229.157 1079.38 226.087 1078.44 225.063ZM985.864 212.78H883V192.307C883 169.787 916.664 151.362 957.81 151.362C962.485 151.362 967.161 151.362 970.902 152.386C968.096 158.528 967.161 164.669 967.161 171.835C967.161 188.213 974.642 203.567 985.864 212.78ZM957.81 49C937.237 49 920.405 67.4252 920.405 89.9449C920.405 112.465 937.237 130.89 957.81 130.89C978.383 130.89 995.215 112.465 995.215 89.9449C995.215 67.4252 978.383 49 957.81 49Z" fill="black"/>
<path d="M1283.64 155.955L1244.43 142.359L1228.04 122.505C1226.61 120.824 1224.82 119.47 1222.78 118.541C1220.75 117.613 1218.53 117.133 1216.27 117.138H1175.72C1173.24 117.137 1170.8 117.721 1168.61 118.84C1166.42 119.959 1164.54 121.578 1163.15 123.557L1149.39 143.044C1146.53 147.099 1145 151.894 1145 156.802V195.419C1145 196.717 1145.53 197.961 1146.49 198.879C1147.44 199.796 1148.73 200.312 1150.07 200.312H1160.93C1162.04 204.511 1164.56 208.235 1168.1 210.895C1171.65 213.556 1176.01 215 1180.5 215C1184.99 215 1189.35 213.556 1192.9 210.895C1196.44 208.235 1198.96 204.511 1200.07 200.312H1231.93C1233.04 204.511 1235.56 208.235 1239.1 210.895C1242.65 213.556 1247.01 215 1251.5 215C1255.99 215 1260.35 213.556 1263.9 210.895C1267.44 208.235 1269.96 204.511 1271.07 200.312H1281.93C1283.27 200.312 1284.56 199.796 1285.51 198.879C1286.47 197.961 1287 196.717 1287 195.419V160.559C1287 159.552 1286.68 158.569 1286.08 157.745C1285.48 156.921 1284.63 156.296 1283.64 155.955ZM1180.5 205.204C1178.49 205.204 1176.53 204.63 1174.86 203.555C1173.2 202.48 1171.9 200.952 1171.13 199.164C1170.36 197.376 1170.16 195.408 1170.55 193.51C1170.94 191.612 1171.91 189.868 1173.33 188.5C1174.75 187.132 1176.55 186.2 1178.52 185.822C1180.49 185.444 1182.53 185.638 1184.38 186.379C1186.23 187.119 1187.82 188.374 1188.93 189.983C1190.05 191.592 1190.64 193.484 1190.64 195.419C1190.64 198.013 1189.57 200.5 1187.67 202.334C1185.77 204.168 1183.19 205.2 1180.5 205.204ZM1251.5 205.204C1249.49 205.204 1247.53 204.63 1245.86 203.555C1244.2 202.48 1242.9 200.952 1242.13 199.164C1241.36 197.376 1241.16 195.408 1241.55 193.51C1241.94 191.612 1242.91 189.868 1244.33 188.5C1245.75 187.132 1247.55 186.2 1249.52 185.822C1251.49 185.444 1253.53 185.638 1255.38 186.379C1257.23 187.119 1258.82 188.374 1259.93 189.983C1261.05 191.592 1261.64 193.484 1261.64 195.419C1261.64 198.013 1260.57 200.5 1258.67 202.334C1256.77 204.168 1254.19 205.2 1251.5 205.204ZM1276.86 190.527H1271.07C1269.96 186.328 1267.44 182.603 1263.9 179.943C1260.35 177.283 1255.99 175.838 1251.5 175.838C1247.01 175.838 1242.65 177.283 1239.1 179.943C1235.56 182.603 1233.04 186.328 1231.93 190.527H1200.07C1198.96 186.328 1196.44 182.603 1192.9 179.943C1189.35 177.283 1184.99 175.838 1180.5 175.838C1176.01 175.838 1171.65 177.283 1168.1 179.943C1164.56 182.603 1162.04 186.328 1160.93 190.527H1155.14V156.802C1155.14 153.856 1156.06 150.978 1157.78 148.543L1171.53 129.066C1171.99 128.406 1172.62 127.865 1173.35 127.492C1174.08 127.118 1174.9 126.923 1175.72 126.923H1216.27C1217.01 126.921 1217.74 127.075 1218.41 127.375C1219.08 127.675 1219.67 128.114 1220.15 128.66L1237.39 149.541C1237.98 150.251 1238.76 150.79 1239.64 151.097L1276.86 163.999V190.527ZM1259.39 97.5671C1259.39 94.9719 1260.45 92.483 1262.36 90.6479C1264.26 88.8128 1266.84 87.7819 1269.53 87.7819H1287C1285 84.4193 1282.01 81.7088 1278.41 79.9981C1274.8 78.2873 1270.75 77.6541 1266.77 78.1798C1262.79 78.7055 1259.06 80.3661 1256.07 82.9486C1253.07 85.5311 1250.95 88.9178 1249.96 92.6745H1216V102.46H1249.96C1250.95 106.216 1253.07 109.603 1256.07 112.186C1259.06 114.768 1262.79 116.429 1266.77 116.954C1270.75 117.48 1274.8 116.847 1278.41 115.136C1282.01 113.425 1285 110.715 1287 107.352H1269.53C1266.84 107.352 1264.26 106.321 1262.36 104.486C1260.45 102.651 1259.39 100.162 1259.39 97.5671Z" fill="black"/>
</svg>
