<svg width="778" height="492" viewBox="0 0 778 492" fill="none" xmlns="http://www.w3.org/2000/svg">
<mask id="path-1-inside-1_358_141" fill="white">
<path d="M0 0H778V492H0V0Z"/>
</mask>
<path d="M0 0H778V492H0V0Z" fill="white"/>
<path d="M0 1H778V-1H0V1ZM778 491H0V493H778V491Z" fill="#CCCCCC" mask="url(#path-1-inside-1_358_141)"/>
<path d="M60.8672 102.508C66.6615 102.508 69.5586 99.0964 69.5586 92.2734C69.5586 86.4661 66.6615 83.5625 60.8672 83.5625H55.1055V102.508H60.8672ZM49.9297 107V79.0703H60.8672C70.112 79.0703 74.7344 83.4714 74.7344 92.2734C74.7344 102.091 70.112 107 60.8672 107H49.9297ZM87.3125 86.4922C93.5365 86.4922 96.6484 89.6693 96.6484 96.0234C96.6484 96.8698 96.5898 97.7161 96.4727 98.5625H82.8594C82.8594 101.453 84.9818 102.898 89.2266 102.898C91.2969 102.898 93.3672 102.703 95.4375 102.312V106.414C93.6276 106.805 91.4271 107 88.8359 107C81.401 107 77.6836 103.504 77.6836 96.5117C77.6836 89.832 80.8932 86.4922 87.3125 86.4922ZM82.8594 94.9688H91.6094V94.8125C91.6094 91.974 90.1771 90.5547 87.3125 90.5547C84.5781 90.5547 83.0938 92.026 82.8594 94.9688ZM100.535 106.023V101.727C102.814 102.638 105.444 103.094 108.426 103.094C110.652 103.094 111.766 102.378 111.766 100.945C111.766 99.5781 111.017 98.8945 109.52 98.8945H105.809C101.642 98.8945 99.5586 96.8438 99.5586 92.7422C99.5586 88.4453 102.599 86.2969 108.68 86.2969C111.258 86.2969 113.686 86.6875 115.965 87.4688V91.7656C113.686 90.8542 111.212 90.3984 108.543 90.3984C105.743 90.3984 104.344 91.1146 104.344 92.5469C104.344 93.9141 105.158 94.5977 106.785 94.5977H110.105C114.663 94.5977 116.941 96.6484 116.941 100.75C116.941 105.047 114.038 107.195 108.23 107.195C105.379 107.195 102.814 106.805 100.535 106.023ZM120.574 107V79.0703H125.75V89.1094C127.365 87.3646 129.428 86.4922 131.941 86.4922C136.798 86.4922 139.227 89.0182 139.227 94.0703V107H134.051V94.0703C134.051 91.8047 132.924 90.6719 130.672 90.6719C128.992 90.6719 127.352 91.3424 125.75 92.6836V107H120.574ZM143.152 100.613C143.152 96.5378 146.121 94.5 152.059 94.5C153.452 94.5 154.845 94.6302 156.238 94.8906V93.3477C156.238 91.5117 154.917 90.5938 152.273 90.5938C150.034 90.5938 147.547 90.9193 144.812 91.5703V87.4688C147.547 86.8177 150.034 86.4922 152.273 86.4922C158.367 86.4922 161.414 88.7448 161.414 93.25V107H158.406L156.57 105.164C154.786 106.388 152.82 107 150.672 107C145.659 107 143.152 104.871 143.152 100.613ZM156.238 98.4062C154.936 98.1458 153.543 98.0156 152.059 98.0156C149.572 98.0156 148.328 98.862 148.328 100.555C148.328 102.378 149.37 103.289 151.453 103.289C153.172 103.289 154.767 102.755 156.238 101.688V98.4062ZM166.219 86.4922H182.039V90.5938L171.551 103.094H181.648V107H165.828V103.094L176.473 90.5938H166.219V86.4922ZM185.359 83.1719H189.188L189.969 86.4922H195.125V90.5938H190.535V100.027C190.535 101.941 191.362 102.898 193.016 102.898H195.125V107H190.516C187.078 107 185.359 105.158 185.359 101.473V83.1719ZM207.312 86.4922C213.536 86.4922 216.648 89.6693 216.648 96.0234C216.648 96.8698 216.59 97.7161 216.473 98.5625H202.859C202.859 101.453 204.982 102.898 209.227 102.898C211.297 102.898 213.367 102.703 215.438 102.312V106.414C213.628 106.805 211.427 107 208.836 107C201.401 107 197.684 103.504 197.684 96.5117C197.684 89.832 200.893 86.4922 207.312 86.4922ZM202.859 94.9688H211.609V94.8125C211.609 91.974 210.177 90.5547 207.312 90.5547C204.578 90.5547 203.094 92.026 202.859 94.9688ZM242.312 91.8438C241.245 91.1406 239.904 90.7891 238.289 90.7891C235.073 90.7891 233.465 92.5924 233.465 96.1992C233.465 100.483 235.138 102.625 238.484 102.625C239.839 102.625 241.115 102.436 242.312 102.059V91.8438ZM247.488 105.77C244.35 106.59 241.284 107 238.289 107C231.661 107 228.348 103.445 228.348 96.3359C228.348 89.7734 231.59 86.4922 238.074 86.4922C239.454 86.4922 240.867 86.8177 242.312 87.4688V79.0703H247.488V105.77ZM261.023 86.4922C267.247 86.4922 270.359 89.6693 270.359 96.0234C270.359 96.8698 270.301 97.7161 270.184 98.5625H256.57C256.57 101.453 258.693 102.898 262.938 102.898C265.008 102.898 267.078 102.703 269.148 102.312V106.414C267.339 106.805 265.138 107 262.547 107C255.112 107 251.395 103.504 251.395 96.5117C251.395 89.832 254.604 86.4922 261.023 86.4922ZM256.57 94.9688H265.32V94.8125C265.32 91.974 263.888 90.5547 261.023 90.5547C258.289 90.5547 256.805 92.026 256.57 94.9688ZM282.742 83.1719H286.57L287.352 86.4922H292.508V90.5938H287.918V100.027C287.918 101.941 288.745 102.898 290.398 102.898H292.508V107H287.898C284.461 107 282.742 105.158 282.742 101.473V83.1719ZM314.5 86.4922V107H310.457L309.832 104.383C307.475 106.128 304.975 107 302.332 107C298.139 107 296.043 104.52 296.043 99.5586V86.4922H301.219V99.4219C301.219 101.688 302.208 102.82 304.188 102.82C305.867 102.82 307.579 102.15 309.324 100.809V86.4922H314.5ZM325.75 86.4922H331.219L336.199 100.828L341.375 86.4922H346.844L338.504 107H333.582L325.75 86.4922ZM357.938 86.4922C364.161 86.4922 367.273 89.6693 367.273 96.0234C367.273 96.8698 367.215 97.7161 367.098 98.5625H353.484C353.484 101.453 355.607 102.898 359.852 102.898C361.922 102.898 363.992 102.703 366.062 102.312V106.414C364.253 106.805 362.052 107 359.461 107C352.026 107 348.309 103.504 348.309 96.5117C348.309 89.832 351.518 86.4922 357.938 86.4922ZM353.484 94.9688H362.234V94.8125C362.234 91.974 360.802 90.5547 357.938 90.5547C355.203 90.5547 353.719 92.026 353.484 94.9688ZM371.16 107V79.0703H376.336V89.1094C377.951 87.3646 380.014 86.4922 382.527 86.4922C387.384 86.4922 389.812 89.0182 389.812 94.0703V107H384.637V94.0703C384.637 91.8047 383.51 90.6719 381.258 90.6719C379.578 90.6719 377.938 91.3424 376.336 92.6836V107H371.16ZM399.891 86.4922V107H394.715V86.4922H399.891ZM397.098 79.0703H403.328L398.66 84.1289H394.285L397.098 79.0703ZM419.93 106.414C418.237 106.805 416.479 107 414.656 107C407.365 107 403.719 103.452 403.719 96.3555C403.719 89.7799 407.365 86.4922 414.656 86.4922C416.479 86.4922 418.237 86.6875 419.93 87.0781V91.1797C418.237 90.7891 416.609 90.5938 415.047 90.5938C410.945 90.5938 408.895 92.5143 408.895 96.3555C408.895 100.717 410.945 102.898 415.047 102.898C416.609 102.898 418.237 102.703 419.93 102.312V106.414ZM441.805 86.4922V107H437.762L437.137 104.383C434.78 106.128 432.28 107 429.637 107C425.444 107 423.348 104.52 423.348 99.5586V86.4922H428.523V99.4219C428.523 101.688 429.513 102.82 431.492 102.82C433.172 102.82 434.884 102.15 436.629 100.809V86.4922H441.805ZM451.883 79.0703V107H446.707V79.0703H451.883ZM460.984 96.668C460.984 100.952 462.645 103.094 465.965 103.094C469.285 103.094 470.945 100.952 470.945 96.668C470.945 92.4883 469.285 90.3984 465.965 90.3984C462.645 90.3984 460.984 92.4883 460.984 96.668ZM455.809 96.7461C455.809 89.8711 459.194 86.4336 465.965 86.4336C472.736 86.4336 476.121 89.8711 476.121 96.7461C476.121 103.608 472.736 107.039 465.965 107.039C459.22 107.039 455.835 103.608 455.809 96.7461ZM501.805 91.8438C500.737 91.1406 499.396 90.7891 497.781 90.7891C494.565 90.7891 492.957 92.5924 492.957 96.1992C492.957 100.483 494.63 102.625 497.977 102.625C499.331 102.625 500.607 102.436 501.805 102.059V91.8438ZM506.98 105.77C503.842 106.59 500.776 107 497.781 107C491.154 107 487.84 103.445 487.84 96.3359C487.84 89.7734 491.082 86.4922 497.566 86.4922C498.947 86.4922 500.359 86.8177 501.805 87.4688V79.0703H506.98V105.77ZM520.516 86.4922C526.74 86.4922 529.852 89.6693 529.852 96.0234C529.852 96.8698 529.793 97.7161 529.676 98.5625H516.062C516.062 101.453 518.185 102.898 522.43 102.898C524.5 102.898 526.57 102.703 528.641 102.312V106.414C526.831 106.805 524.63 107 522.039 107C514.604 107 510.887 103.504 510.887 96.5117C510.887 89.832 514.096 86.4922 520.516 86.4922ZM516.062 94.9688H524.812V94.8125C524.812 91.974 523.38 90.5547 520.516 90.5547C517.781 90.5547 516.297 92.026 516.062 94.9688ZM542.527 107V86.4922C542.527 80.8672 545.6 78.0547 551.746 78.0547C553.426 78.0547 554.949 78.3151 556.316 78.8359V82.9375C555.027 82.4167 553.628 82.1562 552.117 82.1562C549.174 82.1562 547.703 83.6016 547.703 86.4922H553.855V90.5938H547.703V107H542.527ZM561.219 96.668C561.219 100.952 562.879 103.094 566.199 103.094C569.52 103.094 571.18 100.952 571.18 96.668C571.18 92.4883 569.52 90.3984 566.199 90.3984C562.879 90.3984 561.219 92.4883 561.219 96.668ZM556.043 96.7461C556.043 89.8711 559.428 86.4336 566.199 86.4336C572.97 86.4336 576.355 89.8711 576.355 96.7461C576.355 103.608 572.97 107.039 566.199 107.039C559.454 107.039 556.069 103.608 556.043 96.7461ZM580.262 107V86.4922H584.266L584.91 89.1094C586.707 87.3646 588.608 86.4922 590.613 86.4922V90.6719C588.686 90.6719 586.961 91.4727 585.438 93.0742V107H580.262ZM593.543 107V86.4922H597.547L598.152 89.4609C599.988 87.4818 602.195 86.4922 604.773 86.4922C607.352 86.4922 609.116 87.4297 610.066 89.3047C612.163 87.4297 614.357 86.4922 616.648 86.4922C621.362 86.4922 623.719 89.0898 623.719 94.2852V107H618.543V94.0898C618.543 91.8112 617.514 90.6719 615.457 90.6719C613.921 90.6719 612.443 91.362 611.023 92.7422V107H605.848V94.1484C605.848 91.8307 604.897 90.6719 602.996 90.6719C601.486 90.6719 600.06 91.362 598.719 92.7422V107H593.543ZM627.645 100.613C627.645 96.5378 630.613 94.5 636.551 94.5C637.944 94.5 639.337 94.6302 640.73 94.8906V93.3477C640.73 91.5117 639.409 90.5938 636.766 90.5938C634.526 90.5938 632.039 90.9193 629.305 91.5703V87.4688C632.039 86.8177 634.526 86.4922 636.766 86.4922C642.859 86.4922 645.906 88.7448 645.906 93.25V107H642.898L641.062 105.164C639.279 106.388 637.312 107 635.164 107C630.151 107 627.645 104.871 627.645 100.613ZM640.73 98.4062C639.428 98.1458 638.035 98.0156 636.551 98.0156C634.064 98.0156 632.82 98.862 632.82 100.555C632.82 102.378 633.862 103.289 635.945 103.289C637.664 103.289 639.259 102.755 640.73 101.688V98.4062ZM54.6172 124.07V128.172H49.4414V124.07H54.6172ZM54.6172 131.492V152H49.4414V131.492H54.6172ZM59.5195 152V131.492H63.5234L64.168 134.5C66.1341 132.495 68.3737 131.492 70.8867 131.492C75.7435 131.492 78.1719 134.018 78.1719 139.07V152H72.9961V139.07C72.9961 136.805 71.8698 135.672 69.6172 135.672C67.9375 135.672 66.2969 136.342 64.6953 137.684V152H59.5195ZM82.7812 128.172H86.6094L87.3906 131.492H92.5469V135.594H87.957V145.027C87.957 146.941 88.7839 147.898 90.4375 147.898H92.5469V152H87.9375C84.5 152 82.7812 150.158 82.7812 146.473V128.172ZM104.734 131.492C110.958 131.492 114.07 134.669 114.07 141.023C114.07 141.87 114.012 142.716 113.895 143.562H100.281C100.281 146.453 102.404 147.898 106.648 147.898C108.719 147.898 110.789 147.703 112.859 147.312V151.414C111.049 151.805 108.849 152 106.258 152C98.8229 152 95.1055 148.504 95.1055 141.512C95.1055 134.832 98.3151 131.492 104.734 131.492ZM100.281 139.969H109.031V139.812C109.031 136.974 107.599 135.555 104.734 135.555C102 135.555 100.516 137.026 100.281 139.969ZM123.133 124.07V152H117.957V124.07H123.133ZM133.211 124.07V128.172H128.035V124.07H133.211ZM133.211 131.492V152H128.035V131.492H133.211ZM151.238 136.141C150.392 135.828 149.188 135.672 147.625 135.672C144.044 135.672 142.254 137.645 142.254 141.59C142.254 145.405 143.797 147.312 146.883 147.312C148.367 147.312 149.819 146.961 151.238 146.258V136.141ZM156.414 150.438C156.414 156.427 152.814 159.422 145.613 159.422C143.087 159.422 140.848 159.096 138.895 158.445V154.344C140.887 154.995 143.139 155.32 145.652 155.32C149.376 155.32 151.238 153.758 151.238 150.633C149.702 151.284 148.048 151.609 146.277 151.609C140.184 151.609 137.137 148.283 137.137 141.629C137.137 134.871 140.685 131.492 147.781 131.492C150.164 131.492 153.042 131.772 156.414 132.332V150.438ZM169.969 131.492C176.193 131.492 179.305 134.669 179.305 141.023C179.305 141.87 179.246 142.716 179.129 143.562H165.516C165.516 146.453 167.638 147.898 171.883 147.898C173.953 147.898 176.023 147.703 178.094 147.312V151.414C176.284 151.805 174.083 152 171.492 152C164.057 152 160.34 148.504 160.34 141.512C160.34 134.832 163.549 131.492 169.969 131.492ZM165.516 139.969H174.266V139.812C174.266 136.974 172.833 135.555 169.969 135.555C167.234 135.555 165.75 137.026 165.516 139.969ZM183.191 152V131.492H187.195L187.84 134.5C189.806 132.495 192.046 131.492 194.559 131.492C199.415 131.492 201.844 134.018 201.844 139.07V152H196.668V139.07C196.668 136.805 195.542 135.672 193.289 135.672C191.609 135.672 189.969 136.342 188.367 137.684V152H183.191ZM206.453 128.172H210.281L211.062 131.492H216.219V135.594H211.629V145.027C211.629 146.941 212.456 147.898 214.109 147.898H216.219V152H211.609C208.172 152 206.453 150.158 206.453 146.473V128.172ZM228.406 131.492C234.63 131.492 237.742 134.669 237.742 141.023C237.742 141.87 237.684 142.716 237.566 143.562H223.953C223.953 146.453 226.076 147.898 230.32 147.898C232.391 147.898 234.461 147.703 236.531 147.312V151.414C234.721 151.805 232.521 152 229.93 152C222.495 152 218.777 148.504 218.777 141.512C218.777 134.832 221.987 131.492 228.406 131.492ZM223.953 139.969H232.703V139.812C232.703 136.974 231.271 135.555 228.406 135.555C225.672 135.555 224.188 137.026 223.953 139.969ZM247.977 131.492H253.465L258.641 146.258L263.699 131.492H269.09L260.574 152.605C259.064 156.329 256.648 158.979 253.328 160.555L250.828 157.02C253.12 156.017 254.786 154.383 255.828 152.117L247.977 131.492ZM280.34 152V131.492H284.344L284.988 134.109C286.785 132.365 288.686 131.492 290.691 131.492V135.672C288.764 135.672 287.039 136.473 285.516 138.074V152H280.34ZM302.273 131.492C308.497 131.492 311.609 134.669 311.609 141.023C311.609 141.87 311.551 142.716 311.434 143.562H297.82C297.82 146.453 299.943 147.898 304.188 147.898C306.258 147.898 308.328 147.703 310.398 147.312V151.414C308.589 151.805 306.388 152 303.797 152C296.362 152 292.645 148.504 292.645 141.512C292.645 134.832 295.854 131.492 302.273 131.492ZM297.82 139.969H306.57V139.812C306.57 136.974 305.138 135.555 302.273 135.555C299.539 135.555 298.055 137.026 297.82 139.969ZM315.496 152V131.492H319.5L320.145 134.5C322.111 132.495 324.35 131.492 326.863 131.492C331.72 131.492 334.148 134.018 334.148 139.07V152H328.973V139.07C328.973 136.805 327.846 135.672 325.594 135.672C323.914 135.672 322.273 136.342 320.672 137.684V152H315.496ZM338.758 128.172H342.586L343.367 131.492H348.523V135.594H343.934V145.027C343.934 146.941 344.76 147.898 346.414 147.898H348.523V152H343.914C340.477 152 338.758 150.158 338.758 146.473V128.172ZM351.082 145.613C351.082 141.538 354.051 139.5 359.988 139.5C361.382 139.5 362.775 139.63 364.168 139.891V138.348C364.168 136.512 362.846 135.594 360.203 135.594C357.964 135.594 355.477 135.919 352.742 136.57V132.469C355.477 131.818 357.964 131.492 360.203 131.492C366.297 131.492 369.344 133.745 369.344 138.25V152H366.336L364.5 150.164C362.716 151.388 360.75 152 358.602 152C353.589 152 351.082 149.871 351.082 145.613ZM364.168 143.406C362.866 143.146 361.473 143.016 359.988 143.016C357.501 143.016 356.258 143.862 356.258 145.555C356.258 147.378 357.299 148.289 359.383 148.289C361.102 148.289 362.697 147.755 364.168 146.688V143.406ZM379.422 147.254C380.607 147.632 381.98 147.82 383.543 147.82C386.668 147.82 388.23 145.613 388.23 141.199C388.23 137.592 386.883 135.789 384.188 135.789C382.443 135.789 380.854 136.141 379.422 136.844V147.254ZM374.246 124.07H379.422V133.055C380.971 132.013 382.697 131.492 384.598 131.492C390.431 131.492 393.348 134.773 393.348 141.336C393.348 148.445 390.008 152 383.328 152C380.516 152 377.488 151.72 374.246 151.16V124.07ZM402.43 124.07V152H397.254V124.07H402.43ZM415.984 131.492C422.208 131.492 425.32 134.669 425.32 141.023C425.32 141.87 425.262 142.716 425.145 143.562H411.531C411.531 146.453 413.654 147.898 417.898 147.898C419.969 147.898 422.039 147.703 424.109 147.312V151.414C422.299 151.805 420.099 152 417.508 152C410.073 152 406.355 148.504 406.355 141.512C406.355 134.832 409.565 131.492 415.984 131.492ZM411.531 139.969H420.281V139.812C420.281 136.974 418.849 135.555 415.984 135.555C413.25 135.555 411.766 137.026 411.531 139.969Z" fill="#1E1E1E"/>
<path d="M72.4355 182.863L61.7656 208H58.1621L47.4395 182.863H50.8672L60.0781 204.625L69.0605 182.863H72.4355ZM83.123 189.543C88.373 189.543 90.998 192.139 90.998 197.33C90.998 198.068 90.9453 198.859 90.8398 199.703H77.8848C77.8848 203.477 80.0879 205.363 84.4941 205.363C86.5918 205.363 88.4551 205.129 90.084 204.66V207.297C88.4551 207.766 86.4746 208 84.1426 208C77.8027 208 74.6328 204.854 74.6328 198.561C74.6328 192.549 77.4629 189.543 83.123 189.543ZM77.8848 196.996H87.8691C87.7988 193.762 86.2168 192.145 83.123 192.145C79.8418 192.145 78.0957 193.762 77.8848 196.996ZM95.375 208V189.543H97.5723L98.1523 191.898C100.039 190.328 102.113 189.543 104.375 189.543C108.98 189.543 111.283 191.834 111.283 196.416V208H108.031V196.363C108.031 193.621 106.666 192.25 103.936 192.25C102.072 192.25 100.303 193.029 98.627 194.588V208H95.375ZM128.967 193.305C127.654 192.672 126.154 192.355 124.467 192.355C120.752 192.355 118.895 194.33 118.895 198.279C118.895 202.955 120.752 205.293 124.467 205.293C126.154 205.293 127.654 205.064 128.967 204.607V193.305ZM132.219 206.893C129.98 207.631 127.221 208 123.939 208C118.443 208 115.695 204.801 115.695 198.402C115.695 192.496 118.613 189.543 124.449 189.543C126.043 189.543 127.549 189.836 128.967 190.422V182.863H132.219V206.893ZM145.104 189.543C150.354 189.543 152.979 192.139 152.979 197.33C152.979 198.068 152.926 198.859 152.82 199.703H139.865C139.865 203.477 142.068 205.363 146.475 205.363C148.572 205.363 150.436 205.129 152.064 204.66V207.297C150.436 207.766 148.455 208 146.123 208C139.783 208 136.613 204.854 136.613 198.561C136.613 192.549 139.443 189.543 145.104 189.543ZM139.865 196.996H149.85C149.779 193.762 148.197 192.145 145.104 192.145C141.822 192.145 140.076 193.762 139.865 196.996ZM181.109 202.428C181.109 198.643 183.605 196.75 188.598 196.75C190.203 196.75 191.809 196.867 193.414 197.102V195.361C193.414 193.24 191.756 192.18 188.439 192.18C186.541 192.18 184.596 192.473 182.604 193.059V190.422C184.596 189.836 186.541 189.543 188.439 189.543C193.924 189.543 196.666 191.453 196.666 195.273V208H194.838L193.713 206.172C191.873 207.391 189.869 208 187.701 208C183.307 208 181.109 206.143 181.109 202.428ZM188.598 199.387C185.773 199.387 184.361 200.383 184.361 202.375C184.361 204.367 185.475 205.363 187.701 205.363C189.951 205.363 191.855 204.766 193.414 203.57V199.738C191.809 199.504 190.203 199.387 188.598 199.387ZM226.59 186.555H228.629L229.332 189.543H234.324V192.18H229.842V202.779C229.842 204.502 230.586 205.363 232.074 205.363H234.324V208H231.23C228.137 208 226.59 206.342 226.59 203.025V186.555ZM238.473 208V189.543H240.67L241.25 191.898C242.867 190.328 244.812 189.543 247.086 189.543V192.25C244.883 192.25 243.096 193.029 241.725 194.588V208H238.473ZM249.477 202.428C249.477 198.643 251.973 196.75 256.965 196.75C258.57 196.75 260.176 196.867 261.781 197.102V195.361C261.781 193.24 260.123 192.18 256.807 192.18C254.908 192.18 252.963 192.473 250.971 193.059V190.422C252.963 189.836 254.908 189.543 256.807 189.543C262.291 189.543 265.033 191.453 265.033 195.273V208H263.205L262.08 206.172C260.24 207.391 258.236 208 256.068 208C251.674 208 249.477 206.143 249.477 202.428ZM256.965 199.387C254.141 199.387 252.729 200.383 252.729 202.375C252.729 204.367 253.842 205.363 256.068 205.363C258.318 205.363 260.223 204.766 261.781 203.57V199.738C260.176 199.504 258.57 199.387 256.965 199.387ZM267.688 189.543H271.203L276.494 204.01L281.75 189.543H285.266L277.76 208H274.736L267.688 189.543ZM295.514 189.543C300.764 189.543 303.389 192.139 303.389 197.33C303.389 198.068 303.336 198.859 303.23 199.703H290.275C290.275 203.477 292.479 205.363 296.885 205.363C298.982 205.363 300.846 205.129 302.475 204.66V207.297C300.846 207.766 298.865 208 296.533 208C290.193 208 287.023 204.854 287.023 198.561C287.023 192.549 289.854 189.543 295.514 189.543ZM290.275 196.996H300.26C300.189 193.762 298.607 192.145 295.514 192.145C292.232 192.145 290.486 193.762 290.275 196.996ZM295.725 182.863H299.926L295.725 187.064H292.842L295.725 182.863ZM307.59 207.121V204.309C309.758 205.012 311.949 205.363 314.164 205.363C317.105 205.363 318.576 204.484 318.576 202.727C318.576 201.086 317.551 200.266 315.5 200.266H312.863C308.879 200.266 306.887 198.449 306.887 194.816C306.887 191.301 309.447 189.543 314.568 189.543C316.771 189.543 318.957 189.836 321.125 190.422V193.234C318.957 192.531 316.771 192.18 314.568 192.18C311.498 192.18 309.963 193.059 309.963 194.816C309.963 196.457 310.93 197.277 312.863 197.277H315.5C319.719 197.277 321.828 199.094 321.828 202.727C321.828 206.242 319.273 208 314.164 208C311.949 208 309.758 207.707 307.59 207.121ZM363.248 193.305C361.936 192.672 360.436 192.355 358.748 192.355C355.033 192.355 353.176 194.33 353.176 198.279C353.176 202.955 355.033 205.293 358.748 205.293C360.436 205.293 361.936 205.064 363.248 204.607V193.305ZM366.5 206.893C364.262 207.631 361.502 208 358.221 208C352.725 208 349.977 204.801 349.977 198.402C349.977 192.496 352.895 189.543 358.73 189.543C360.324 189.543 361.83 189.836 363.248 190.422V182.863H366.5V206.893ZM379.385 189.543C384.635 189.543 387.26 192.139 387.26 197.33C387.26 198.068 387.207 198.859 387.102 199.703H374.146C374.146 203.477 376.35 205.363 380.756 205.363C382.854 205.363 384.717 205.129 386.346 204.66V207.297C384.717 207.766 382.736 208 380.404 208C374.064 208 370.895 204.854 370.895 198.561C370.895 192.549 373.725 189.543 379.385 189.543ZM374.146 196.996H384.131C384.061 193.762 382.479 192.145 379.385 192.145C376.104 192.145 374.357 193.762 374.146 196.996ZM49.6367 248V229.543H51.834L52.4141 231.898C54.3008 230.328 56.375 229.543 58.6367 229.543C63.2422 229.543 65.5449 231.834 65.5449 236.416V248H62.293V236.363C62.293 233.621 60.9277 232.25 58.1973 232.25C56.334 232.25 54.5645 233.029 52.8887 234.588V248H49.6367ZM86.7441 229.543V248H84.5117L83.9492 245.645C81.7109 247.215 79.4609 248 77.1992 248C72.957 248 70.8359 245.709 70.8359 241.127V229.543H74.0879V241.18C74.0879 243.922 75.4473 245.293 78.166 245.293C80.0293 245.293 81.8047 244.514 83.4922 242.955V229.543H86.7441ZM99.6465 229.543C104.896 229.543 107.521 232.139 107.521 237.33C107.521 238.068 107.469 238.859 107.363 239.703H94.4082C94.4082 243.477 96.6113 245.363 101.018 245.363C103.115 245.363 104.979 245.129 106.607 244.66V247.297C104.979 247.766 102.998 248 100.666 248C94.3262 248 91.1562 244.854 91.1562 238.561C91.1562 232.549 93.9863 229.543 99.6465 229.543ZM94.4082 236.996H104.393C104.322 233.762 102.74 232.145 99.6465 232.145C96.3652 232.145 94.6191 233.762 94.4082 236.996ZM111.723 247.121V244.309C113.891 245.012 116.082 245.363 118.297 245.363C121.238 245.363 122.709 244.484 122.709 242.727C122.709 241.086 121.684 240.266 119.633 240.266H116.996C113.012 240.266 111.02 238.449 111.02 234.816C111.02 231.301 113.58 229.543 118.701 229.543C120.904 229.543 123.09 229.836 125.258 230.422V233.234C123.09 232.531 120.904 232.18 118.701 232.18C115.631 232.18 114.096 233.059 114.096 234.816C114.096 236.457 115.062 237.277 116.996 237.277H119.633C123.852 237.277 125.961 239.094 125.961 242.727C125.961 246.242 123.406 248 118.297 248C116.082 248 113.891 247.707 111.723 247.121ZM130.355 226.555H132.395L133.098 229.543H138.09V232.18H133.607V242.779C133.607 244.502 134.352 245.363 135.84 245.363H138.09V248H134.996C131.902 248 130.355 246.342 130.355 243.025V226.555ZM142.238 248V229.543H144.436L145.016 231.898C146.633 230.328 148.578 229.543 150.852 229.543V232.25C148.648 232.25 146.861 233.029 145.49 234.588V248H142.238ZM153.242 242.428C153.242 238.643 155.738 236.75 160.73 236.75C162.336 236.75 163.941 236.867 165.547 237.102V235.361C165.547 233.24 163.889 232.18 160.572 232.18C158.674 232.18 156.729 232.473 154.736 233.059V230.422C156.729 229.836 158.674 229.543 160.572 229.543C166.057 229.543 168.799 231.453 168.799 235.273V248H166.971L165.846 246.172C164.006 247.391 162.002 248 159.834 248C155.439 248 153.242 246.143 153.242 242.428ZM160.73 239.387C157.906 239.387 156.494 240.383 156.494 242.375C156.494 244.367 157.607 245.363 159.834 245.363C162.084 245.363 163.988 244.766 165.547 243.57V239.738C163.941 239.504 162.336 239.387 160.73 239.387ZM209.299 244.238C210.576 244.871 212 245.188 213.57 245.188C217.402 245.188 219.318 242.885 219.318 238.279C219.318 234.26 217.414 232.25 213.605 232.25C211.965 232.25 210.529 232.391 209.299 232.672V244.238ZM206.047 230.299C208.496 229.795 211.027 229.543 213.641 229.543C219.559 229.543 222.518 232.467 222.518 238.314C222.518 244.771 219.541 248 213.588 248C212.111 248 210.682 247.707 209.299 247.121V254.68H206.047V230.299ZM230.357 222.863V248H227.105V222.863H230.357ZM234.945 242.428C234.945 238.643 237.441 236.75 242.434 236.75C244.039 236.75 245.645 236.867 247.25 237.102V235.361C247.25 233.24 245.592 232.18 242.275 232.18C240.377 232.18 238.432 232.473 236.439 233.059V230.422C238.432 229.836 240.377 229.543 242.275 229.543C247.76 229.543 250.502 231.453 250.502 235.273V248H248.674L247.549 246.172C245.709 247.391 243.705 248 241.537 248C237.143 248 234.945 246.143 234.945 242.428ZM242.434 239.387C239.609 239.387 238.197 240.383 238.197 242.375C238.197 244.367 239.311 245.363 241.537 245.363C243.787 245.363 245.691 244.766 247.25 243.57V239.738C245.645 239.504 244.039 239.387 242.434 239.387ZM255.793 226.555H257.832L258.535 229.543H263.527V232.18H259.045V242.779C259.045 244.502 259.789 245.363 261.277 245.363H263.527V248H260.434C257.34 248 255.793 246.342 255.793 243.025V226.555ZM266.797 242.428C266.797 238.643 269.293 236.75 274.285 236.75C275.891 236.75 277.496 236.867 279.102 237.102V235.361C279.102 233.24 277.443 232.18 274.127 232.18C272.229 232.18 270.283 232.473 268.291 233.059V230.422C270.283 229.836 272.229 229.543 274.127 229.543C279.611 229.543 282.354 231.453 282.354 235.273V248H280.525L279.4 246.172C277.561 247.391 275.557 248 273.389 248C268.994 248 266.797 246.143 266.797 242.428ZM274.285 239.387C271.461 239.387 270.049 240.383 270.049 242.375C270.049 244.367 271.162 245.363 273.389 245.363C275.639 245.363 277.543 244.766 279.102 243.57V239.738C277.496 239.504 275.891 239.387 274.285 239.387ZM287.645 248V228.646C287.645 224.182 290.176 221.949 295.238 221.949C296.633 221.949 297.945 222.184 299.176 222.652V225.289C298.016 224.82 296.697 224.586 295.221 224.586C292.338 224.586 290.896 225.893 290.896 228.506V229.543H296.609V232.18H290.896V248H287.645ZM302.533 238.701C302.533 243.143 304.379 245.363 308.07 245.363C311.762 245.363 313.607 243.143 313.607 238.701C313.607 234.354 311.762 232.18 308.07 232.18C304.379 232.18 302.533 234.354 302.533 238.701ZM299.281 238.771C299.281 232.619 302.211 229.543 308.07 229.543C313.93 229.543 316.859 232.619 316.859 238.771C316.859 244.912 313.93 247.982 308.07 247.982C302.234 247.982 299.305 244.912 299.281 238.771ZM321.254 248V229.543H323.451L324.031 231.898C325.648 230.328 327.594 229.543 329.867 229.543V232.25C327.664 232.25 325.877 233.029 324.506 234.588V248H321.254ZM333.137 248V229.543H335.334L335.879 231.863C337.648 230.316 339.576 229.543 341.662 229.543C344.334 229.543 346.156 230.387 347.129 232.074C349.133 230.387 351.166 229.543 353.229 229.543C357.471 229.543 359.592 231.881 359.592 236.557V248H356.34V236.381C356.34 233.627 355.18 232.25 352.859 232.25C351.125 232.25 349.502 233.047 347.99 234.641V248H344.738V236.434C344.738 233.645 343.59 232.25 341.293 232.25C339.465 232.25 337.83 233.047 336.389 234.641V248H333.137ZM364.004 242.428C364.004 238.643 366.5 236.75 371.492 236.75C373.098 236.75 374.703 236.867 376.309 237.102V235.361C376.309 233.24 374.65 232.18 371.334 232.18C369.436 232.18 367.49 232.473 365.498 233.059V230.422C367.49 229.836 369.436 229.543 371.334 229.543C376.818 229.543 379.561 231.453 379.561 235.273V248H377.732L376.607 246.172C374.768 247.391 372.764 248 370.596 248C366.201 248 364.004 246.143 364.004 242.428ZM371.492 239.387C368.668 239.387 367.256 240.383 367.256 242.375C367.256 244.367 368.369 245.363 370.596 245.363C372.846 245.363 374.75 244.766 376.309 243.57V239.738C374.703 239.504 373.098 239.387 371.492 239.387ZM388.543 244.748L385.906 252.395H382.654L385.291 244.748H388.543ZM49.6367 288V269.543H51.834L52.3789 271.863C54.1484 270.316 56.0762 269.543 58.1621 269.543C60.834 269.543 62.6562 270.387 63.6289 272.074C65.6328 270.387 67.666 269.543 69.7285 269.543C73.9707 269.543 76.0918 271.881 76.0918 276.557V288H72.8398V276.381C72.8398 273.627 71.6797 272.25 69.3594 272.25C67.625 272.25 66.002 273.047 64.4902 274.641V288H61.2383V276.434C61.2383 273.645 60.0898 272.25 57.793 272.25C55.9648 272.25 54.3301 273.047 52.8887 274.641V288H49.6367ZM80.5039 282.428C80.5039 278.643 83 276.75 87.9922 276.75C89.5977 276.75 91.2031 276.867 92.8086 277.102V275.361C92.8086 273.24 91.1504 272.18 87.834 272.18C85.9355 272.18 83.9902 272.473 81.998 273.059V270.422C83.9902 269.836 85.9355 269.543 87.834 269.543C93.3184 269.543 96.0605 271.453 96.0605 275.273V288H94.2324L93.1074 286.172C91.2676 287.391 89.2637 288 87.0957 288C82.7012 288 80.5039 286.143 80.5039 282.428ZM87.9922 279.387C85.168 279.387 83.7559 280.383 83.7559 282.375C83.7559 284.367 84.8691 285.363 87.0957 285.363C89.3457 285.363 91.25 284.766 92.8086 283.57V279.738C91.2031 279.504 89.5977 279.387 87.9922 279.387ZM106.062 278.771L99.1543 269.543H102.934L107.943 276.24L112.953 269.543H116.732L109.842 278.771L116.732 288H112.953L107.943 281.303L102.934 288H99.1543L106.062 278.771ZM123.412 269.543V288H120.16V269.543H123.412ZM123.412 262.863V265.939H120.16V262.863H123.412ZM129.055 288V269.543H131.252L131.797 271.863C133.566 270.316 135.494 269.543 137.58 269.543C140.252 269.543 142.074 270.387 143.047 272.074C145.051 270.387 147.084 269.543 149.146 269.543C153.389 269.543 155.51 271.881 155.51 276.557V288H152.258V276.381C152.258 273.627 151.098 272.25 148.777 272.25C147.043 272.25 145.42 273.047 143.908 274.641V288H140.656V276.434C140.656 273.645 139.508 272.25 137.211 272.25C135.383 272.25 133.748 273.047 132.307 274.641V288H129.055ZM164.404 269.543V288H161.152V269.543H164.404ZM164.404 262.863V265.939H161.152V262.863H164.404ZM169.52 269.543H183.934V272.18L172.912 285.539H183.582V288H169.168V285.539L180.33 272.18H169.52V269.543ZM187.449 282.428C187.449 278.643 189.945 276.75 194.938 276.75C196.543 276.75 198.148 276.867 199.754 277.102V275.361C199.754 273.24 198.096 272.18 194.779 272.18C192.881 272.18 190.936 272.473 188.943 273.059V270.422C190.936 269.836 192.881 269.543 194.779 269.543C200.264 269.543 203.006 271.453 203.006 275.273V288H201.178L200.053 286.172C198.213 287.391 196.209 288 194.041 288C189.646 288 187.449 286.143 187.449 282.428ZM194.938 279.387C192.113 279.387 190.701 280.383 190.701 282.375C190.701 284.367 191.814 285.363 194.041 285.363C196.291 285.363 198.195 284.766 199.754 283.57V279.738C198.148 279.504 196.543 279.387 194.938 279.387ZM208.297 288V269.543H210.494L211.074 271.898C212.961 270.328 215.035 269.543 217.297 269.543C221.902 269.543 224.205 271.834 224.205 276.416V288H220.953V276.363C220.953 273.621 219.588 272.25 216.857 272.25C214.994 272.25 213.225 273.029 211.549 274.588V288H208.297ZM241.889 273.305C240.576 272.672 239.076 272.355 237.389 272.355C233.674 272.355 231.816 274.33 231.816 278.279C231.816 282.955 233.674 285.293 237.389 285.293C239.076 285.293 240.576 285.064 241.889 284.607V273.305ZM245.141 286.893C242.902 287.631 240.143 288 236.861 288C231.365 288 228.617 284.801 228.617 278.402C228.617 272.496 231.535 269.543 237.371 269.543C238.965 269.543 240.471 269.836 241.889 270.422V262.863H245.141V286.893ZM252.787 278.701C252.787 283.143 254.633 285.363 258.324 285.363C262.016 285.363 263.861 283.143 263.861 278.701C263.861 274.354 262.016 272.18 258.324 272.18C254.633 272.18 252.787 274.354 252.787 278.701ZM249.535 278.771C249.535 272.619 252.465 269.543 258.324 269.543C264.184 269.543 267.113 272.619 267.113 278.771C267.113 284.912 264.184 287.982 258.324 287.982C252.488 287.982 249.559 284.912 249.535 278.771ZM340.098 266.555H342.137L342.84 269.543H347.832V272.18H343.35V282.779C343.35 284.502 344.094 285.363 345.582 285.363H347.832V288H344.738C341.645 288 340.098 286.342 340.098 283.025V266.555ZM367.889 269.543V288H365.656L365.094 285.645C362.855 287.215 360.605 288 358.344 288C354.102 288 351.98 285.709 351.98 281.127V269.543H355.232V281.18C355.232 283.922 356.592 285.293 359.311 285.293C361.174 285.293 362.949 284.514 364.637 282.955V269.543H367.889ZM373.004 287.121V284.309C375.172 285.012 377.363 285.363 379.578 285.363C382.52 285.363 383.99 284.484 383.99 282.727C383.99 281.086 382.965 280.266 380.914 280.266H378.277C374.293 280.266 372.301 278.449 372.301 274.816C372.301 271.301 374.861 269.543 379.982 269.543C382.186 269.543 384.371 269.836 386.539 270.422V273.234C384.371 272.531 382.186 272.18 379.982 272.18C376.912 272.18 375.377 273.059 375.377 274.816C375.377 276.457 376.344 277.277 378.277 277.277H380.914C385.133 277.277 387.242 279.094 387.242 282.727C387.242 286.242 384.688 288 379.578 288C377.363 288 375.172 287.707 373.004 287.121ZM61.9766 312.672C60.8633 312.391 59.4863 312.25 57.8457 312.25C53.9199 312.25 51.957 314.377 51.957 318.631C51.957 323.002 53.8145 325.188 57.5293 325.188C59.2168 325.188 60.6992 324.871 61.9766 324.238V312.672ZM65.2285 328C65.2285 332.453 62.3984 334.68 56.7383 334.68C54.4648 334.68 52.4492 334.387 50.6914 333.801V331.164C52.4844 331.75 54.5117 332.043 56.7734 332.043C60.2422 332.043 61.9766 330.695 61.9766 328V327.121C60.5938 327.707 59.1055 328 57.5117 328C51.6758 328 48.7578 324.889 48.7578 318.666C48.7578 312.584 51.834 309.543 57.9863 309.543C60.4824 309.543 62.8965 309.795 65.2285 310.299V328ZM69.6406 322.428C69.6406 318.643 72.1367 316.75 77.1289 316.75C78.7344 316.75 80.3398 316.867 81.9453 317.102V315.361C81.9453 313.24 80.2871 312.18 76.9707 312.18C75.0723 312.18 73.127 312.473 71.1348 313.059V310.422C73.127 309.836 75.0723 309.543 76.9707 309.543C82.4551 309.543 85.1973 311.453 85.1973 315.273V328H83.3691L82.2441 326.172C80.4043 327.391 78.4004 328 76.2324 328C71.8379 328 69.6406 326.143 69.6406 322.428ZM77.1289 319.387C74.3047 319.387 72.8926 320.383 72.8926 322.375C72.8926 324.367 74.0059 325.363 76.2324 325.363C78.4824 325.363 80.3867 324.766 81.9453 323.57V319.738C80.3398 319.504 78.7344 319.387 77.1289 319.387ZM90.4883 328V309.543H92.6855L93.2656 311.898C95.1523 310.328 97.2266 309.543 99.4883 309.543C104.094 309.543 106.396 311.834 106.396 316.416V328H103.145V316.363C103.145 313.621 101.779 312.25 99.0488 312.25C97.1855 312.25 95.416 313.029 93.7402 314.588V328H90.4883ZM110.809 322.428C110.809 318.643 113.305 316.75 118.297 316.75C119.902 316.75 121.508 316.867 123.113 317.102V315.361C123.113 313.24 121.455 312.18 118.139 312.18C116.24 312.18 114.295 312.473 112.303 313.059V310.422C114.295 309.836 116.24 309.543 118.139 309.543C123.623 309.543 126.365 311.453 126.365 315.273V328H124.537L123.412 326.172C121.572 327.391 119.568 328 117.4 328C113.006 328 110.809 326.143 110.809 322.428ZM118.297 319.387C115.473 319.387 114.061 320.383 114.061 322.375C114.061 324.367 115.174 325.363 117.4 325.363C119.65 325.363 121.555 324.766 123.113 323.57V319.738C121.508 319.504 119.902 319.387 118.297 319.387ZM131.656 328V309.543H133.854L134.434 311.898C136.32 310.328 138.395 309.543 140.656 309.543C145.262 309.543 147.564 311.834 147.564 316.416V328H144.312V316.363C144.312 313.621 142.947 312.25 140.217 312.25C138.354 312.25 136.584 313.029 134.908 314.588V328H131.656ZM166.742 327.473C165.219 327.824 163.578 328 161.82 328C155.258 328 151.977 324.807 151.977 318.42C151.977 312.502 155.258 309.543 161.82 309.543C163.578 309.543 165.219 309.719 166.742 310.07V312.707C165.219 312.355 163.52 312.18 161.645 312.18C157.367 312.18 155.229 314.26 155.229 318.42C155.229 323.049 157.367 325.363 161.645 325.363C163.52 325.363 165.219 325.188 166.742 324.836V327.473ZM174.494 309.543V328H171.242V309.543H174.494ZM174.494 302.863V305.939H171.242V302.863H174.494ZM179.258 322.428C179.258 318.643 181.754 316.75 186.746 316.75C188.352 316.75 189.957 316.867 191.562 317.102V315.361C191.562 313.24 189.904 312.18 186.588 312.18C184.689 312.18 182.744 312.473 180.752 313.059V310.422C182.744 309.836 184.689 309.543 186.588 309.543C192.072 309.543 194.814 311.453 194.814 315.273V328H192.986L191.861 326.172C190.021 327.391 188.018 328 185.85 328C181.455 328 179.258 326.143 179.258 322.428ZM186.746 319.387C183.922 319.387 182.51 320.383 182.51 322.375C182.51 324.367 183.623 325.363 185.85 325.363C188.1 325.363 190.004 324.766 191.562 323.57V319.738C189.957 319.504 188.352 319.387 186.746 319.387ZM199.93 327.121V324.309C202.098 325.012 204.289 325.363 206.504 325.363C209.445 325.363 210.916 324.484 210.916 322.727C210.916 321.086 209.891 320.266 207.84 320.266H205.203C201.219 320.266 199.227 318.449 199.227 314.816C199.227 311.301 201.787 309.543 206.908 309.543C209.111 309.543 211.297 309.836 213.465 310.422V313.234C211.297 312.531 209.111 312.18 206.908 312.18C203.838 312.18 202.303 313.059 202.303 314.816C202.303 316.457 203.27 317.277 205.203 317.277H207.84C212.059 317.277 214.168 319.094 214.168 322.727C214.168 326.242 211.613 328 206.504 328C204.289 328 202.098 327.707 199.93 327.121ZM370.982 309.543H374.516L379.736 323.957L385.133 309.543H388.578L380.914 328.545C379.555 331.896 377.516 333.988 374.797 334.82L373.549 332.518C375.611 331.615 377.111 330.145 378.049 328.105L370.982 309.543ZM49.6367 368V349.543H51.834L52.3789 351.863C54.1484 350.316 56.0762 349.543 58.1621 349.543C60.834 349.543 62.6562 350.387 63.6289 352.074C65.6328 350.387 67.666 349.543 69.7285 349.543C73.9707 349.543 76.0918 351.881 76.0918 356.557V368H72.8398V356.381C72.8398 353.627 71.6797 352.25 69.3594 352.25C67.625 352.25 66.002 353.047 64.4902 354.641V368H61.2383V356.434C61.2383 353.645 60.0898 352.25 57.793 352.25C55.9648 352.25 54.3301 353.047 52.8887 354.641V368H49.6367ZM84.9863 349.543V368H81.7344V349.543H84.9863ZM84.9863 342.863V345.939H81.7344V342.863H84.9863ZM90.6289 368V349.543H92.8262L93.4062 351.898C95.293 350.328 97.3672 349.543 99.6289 349.543C104.234 349.543 106.537 351.834 106.537 356.416V368H103.285V356.363C103.285 353.621 101.92 352.25 99.1895 352.25C97.3262 352.25 95.5566 353.029 93.8809 354.588V368H90.6289ZM115.432 349.543V368H112.18V349.543H115.432ZM115.432 342.863V345.939H112.18V342.863H115.432ZM121.074 368V349.543H123.271L123.816 351.863C125.586 350.316 127.514 349.543 129.6 349.543C132.271 349.543 134.094 350.387 135.066 352.074C137.07 350.387 139.104 349.543 141.166 349.543C145.408 349.543 147.529 351.881 147.529 356.557V368H144.277V356.381C144.277 353.627 143.117 352.25 140.797 352.25C139.062 352.25 137.439 353.047 135.928 354.641V368H132.676V356.434C132.676 353.645 131.527 352.25 129.23 352.25C127.402 352.25 125.768 353.047 124.326 354.641V368H121.074ZM156.424 349.543V368H153.172V349.543H156.424ZM156.424 342.863V345.939H153.172V342.863H156.424ZM161.539 349.543H175.953V352.18L164.932 365.539H175.602V368H161.188V365.539L172.35 352.18H161.539V349.543ZM179.469 362.428C179.469 358.643 181.965 356.75 186.957 356.75C188.562 356.75 190.168 356.867 191.773 357.102V355.361C191.773 353.24 190.115 352.18 186.799 352.18C184.9 352.18 182.955 352.473 180.963 353.059V350.422C182.955 349.836 184.9 349.543 186.799 349.543C192.283 349.543 195.025 351.453 195.025 355.273V368H193.197L192.072 366.172C190.232 367.391 188.229 368 186.061 368C181.666 368 179.469 366.143 179.469 362.428ZM186.957 359.387C184.133 359.387 182.721 360.383 182.721 362.375C182.721 364.367 183.834 365.363 186.061 365.363C188.311 365.363 190.215 364.766 191.773 363.57V359.738C190.168 359.504 188.562 359.387 186.957 359.387ZM200.316 368V349.543H202.514L203.094 351.898C204.98 350.328 207.055 349.543 209.316 349.543C213.922 349.543 216.225 351.834 216.225 356.416V368H212.973V356.363C212.973 353.621 211.607 352.25 208.877 352.25C207.014 352.25 205.244 353.029 203.568 354.588V368H200.316ZM233.908 353.305C232.596 352.672 231.096 352.355 229.408 352.355C225.693 352.355 223.836 354.33 223.836 358.279C223.836 362.955 225.693 365.293 229.408 365.293C231.096 365.293 232.596 365.064 233.908 364.607V353.305ZM237.16 366.893C234.922 367.631 232.162 368 228.881 368C223.385 368 220.637 364.801 220.637 358.402C220.637 352.496 223.555 349.543 229.391 349.543C230.984 349.543 232.49 349.836 233.908 350.422V342.863H237.16V366.893ZM244.807 358.701C244.807 363.143 246.652 365.363 250.344 365.363C254.035 365.363 255.881 363.143 255.881 358.701C255.881 354.354 254.035 352.18 250.344 352.18C246.652 352.18 244.807 354.354 244.807 358.701ZM241.555 358.771C241.555 352.619 244.484 349.543 250.344 349.543C256.203 349.543 259.133 352.619 259.133 358.771C259.133 364.912 256.203 367.982 250.344 367.982C244.508 367.982 241.578 364.912 241.555 358.771ZM346.619 342.863V368H343.367V342.863H346.619ZM354.459 358.701C354.459 363.143 356.305 365.363 359.996 365.363C363.688 365.363 365.533 363.143 365.533 358.701C365.533 354.354 363.688 352.18 359.996 352.18C356.305 352.18 354.459 354.354 354.459 358.701ZM351.207 358.771C351.207 352.619 354.137 349.543 359.996 349.543C365.855 349.543 368.785 352.619 368.785 358.771C368.785 364.912 365.855 367.982 359.996 367.982C354.16 367.982 351.23 364.912 351.207 358.771ZM373.004 367.121V364.309C375.172 365.012 377.363 365.363 379.578 365.363C382.52 365.363 383.99 364.484 383.99 362.727C383.99 361.086 382.965 360.266 380.914 360.266H378.277C374.293 360.266 372.301 358.449 372.301 354.816C372.301 351.301 374.861 349.543 379.982 349.543C382.186 349.543 384.371 349.836 386.539 350.422V353.234C384.371 352.531 382.186 352.18 379.982 352.18C376.912 352.18 375.377 353.059 375.377 354.816C375.377 356.457 376.344 357.277 378.277 357.277H380.914C385.133 357.277 387.242 359.094 387.242 362.727C387.242 366.242 384.688 368 379.578 368C377.363 368 375.172 367.707 373.004 367.121ZM63.5234 407.473C62 407.824 60.3594 408 58.6016 408C52.0391 408 48.7578 404.807 48.7578 398.42C48.7578 392.502 52.0391 389.543 58.6016 389.543C60.3594 389.543 62 389.719 63.5234 390.07V392.707C62 392.355 60.3008 392.18 58.4258 392.18C54.1484 392.18 52.0098 394.26 52.0098 398.42C52.0098 403.049 54.1484 405.363 58.4258 405.363C60.3008 405.363 62 405.188 63.5234 404.836V407.473ZM70.0449 398.701C70.0449 403.143 71.8906 405.363 75.582 405.363C79.2734 405.363 81.1191 403.143 81.1191 398.701C81.1191 394.354 79.2734 392.18 75.582 392.18C71.8906 392.18 70.0449 394.354 70.0449 398.701ZM66.793 398.771C66.793 392.619 69.7227 389.543 75.582 389.543C81.4414 389.543 84.3711 392.619 84.3711 398.771C84.3711 404.912 81.4414 407.982 75.582 407.982C69.7461 407.982 66.8164 404.912 66.793 398.771ZM88.5898 407.121V404.309C90.7578 405.012 92.9492 405.363 95.1641 405.363C98.1055 405.363 99.5762 404.484 99.5762 402.727C99.5762 401.086 98.5508 400.266 96.5 400.266H93.8633C89.8789 400.266 87.8867 398.449 87.8867 394.816C87.8867 391.301 90.4473 389.543 95.5684 389.543C97.7715 389.543 99.957 389.836 102.125 390.422V393.234C99.957 392.531 97.7715 392.18 95.5684 392.18C92.498 392.18 90.9629 393.059 90.9629 394.816C90.9629 396.457 91.9297 397.277 93.8633 397.277H96.5C100.719 397.277 102.828 399.094 102.828 402.727C102.828 406.242 100.273 408 95.1641 408C92.9492 408 90.7578 407.707 88.5898 407.121ZM107.223 386.555H109.262L109.965 389.543H114.957V392.18H110.475V402.779C110.475 404.502 111.219 405.363 112.707 405.363H114.957V408H111.863C108.77 408 107.223 406.342 107.223 403.025V386.555ZM121.479 398.701C121.479 403.143 123.324 405.363 127.016 405.363C130.707 405.363 132.553 403.143 132.553 398.701C132.553 394.354 130.707 392.18 127.016 392.18C123.324 392.18 121.479 394.354 121.479 398.701ZM118.227 398.771C118.227 392.619 121.156 389.543 127.016 389.543C132.875 389.543 135.805 392.619 135.805 398.771C135.805 404.912 132.875 407.982 127.016 407.982C121.18 407.982 118.25 404.912 118.227 398.771ZM140.023 407.121V404.309C142.191 405.012 144.383 405.363 146.598 405.363C149.539 405.363 151.01 404.484 151.01 402.727C151.01 401.086 149.984 400.266 147.934 400.266H145.297C141.312 400.266 139.32 398.449 139.32 394.816C139.32 391.301 141.881 389.543 147.002 389.543C149.205 389.543 151.391 389.836 153.559 390.422V393.234C151.391 392.531 149.205 392.18 147.002 392.18C143.932 392.18 142.396 393.059 142.396 394.816C142.396 396.457 143.363 397.277 145.297 397.277H147.934C152.152 397.277 154.262 399.094 154.262 402.727C154.262 406.242 151.707 408 146.598 408C144.383 408 142.191 407.707 140.023 407.121ZM166.566 402.428C166.566 398.643 169.062 396.75 174.055 396.75C175.66 396.75 177.266 396.867 178.871 397.102V395.361C178.871 393.24 177.213 392.18 173.896 392.18C171.998 392.18 170.053 392.473 168.061 393.059V390.422C170.053 389.836 171.998 389.543 173.896 389.543C179.381 389.543 182.123 391.453 182.123 395.273V408H180.295L179.17 406.172C177.33 407.391 175.326 408 173.158 408C168.764 408 166.566 406.143 166.566 402.428ZM174.055 399.387C171.23 399.387 169.818 400.383 169.818 402.375C169.818 404.367 170.932 405.363 173.158 405.363C175.408 405.363 177.312 404.766 178.871 403.57V399.738C177.266 399.504 175.66 399.387 174.055 399.387ZM187.238 407.121V404.309C189.406 405.012 191.598 405.363 193.812 405.363C196.754 405.363 198.225 404.484 198.225 402.727C198.225 401.086 197.199 400.266 195.148 400.266H192.512C188.527 400.266 186.535 398.449 186.535 394.816C186.535 391.301 189.096 389.543 194.217 389.543C196.42 389.543 198.605 389.836 200.773 390.422V393.234C198.605 392.531 196.42 392.18 194.217 392.18C191.146 392.18 189.611 393.059 189.611 394.816C189.611 396.457 190.578 397.277 192.512 397.277H195.148C199.367 397.277 201.477 399.094 201.477 402.727C201.477 406.242 198.922 408 193.812 408C191.598 408 189.406 407.707 187.238 407.121ZM208.244 398.701C208.244 403.143 210.09 405.363 213.781 405.363C217.473 405.363 219.318 403.143 219.318 398.701C219.318 394.354 217.473 392.18 213.781 392.18C210.09 392.18 208.244 394.354 208.244 398.701ZM204.992 398.771C204.992 392.619 207.922 389.543 213.781 389.543C219.641 389.543 222.57 392.619 222.57 398.771C222.57 404.912 219.641 407.982 213.781 407.982C207.945 407.982 205.016 404.912 204.992 398.771ZM240.852 407.473C239.328 407.824 237.688 408 235.93 408C229.367 408 226.086 404.807 226.086 398.42C226.086 392.502 229.367 389.543 235.93 389.543C237.688 389.543 239.328 389.719 240.852 390.07V392.707C239.328 392.355 237.629 392.18 235.754 392.18C231.477 392.18 229.338 394.26 229.338 398.42C229.338 403.049 231.477 405.363 235.754 405.363C237.629 405.363 239.328 405.188 240.852 404.836V407.473ZM248.604 389.543V408H245.352V389.543H248.604ZM248.604 382.863V385.939H245.352V382.863H248.604ZM253.367 402.428C253.367 398.643 255.863 396.75 260.855 396.75C262.461 396.75 264.066 396.867 265.672 397.102V395.361C265.672 393.24 264.014 392.18 260.697 392.18C258.799 392.18 256.854 392.473 254.861 393.059V390.422C256.854 389.836 258.799 389.543 260.697 389.543C266.182 389.543 268.924 391.453 268.924 395.273V408H267.096L265.971 406.172C264.131 407.391 262.127 408 259.959 408C255.564 408 253.367 406.143 253.367 402.428ZM260.855 399.387C258.031 399.387 256.619 400.383 256.619 402.375C256.619 404.367 257.732 405.363 259.959 405.363C262.209 405.363 264.113 404.766 265.672 403.57V399.738C264.066 399.504 262.461 399.387 260.855 399.387ZM286.607 393.305C285.295 392.672 283.795 392.355 282.107 392.355C278.393 392.355 276.535 394.33 276.535 398.279C276.535 402.955 278.393 405.293 282.107 405.293C283.795 405.293 285.295 405.064 286.607 404.607V393.305ZM289.859 406.893C287.621 407.631 284.861 408 281.58 408C276.084 408 273.336 404.801 273.336 398.402C273.336 392.496 276.254 389.543 282.09 389.543C283.684 389.543 285.189 389.836 286.607 390.422V382.863H289.859V406.893ZM297.506 398.701C297.506 403.143 299.352 405.363 303.043 405.363C306.734 405.363 308.58 403.143 308.58 398.701C308.58 394.354 306.734 392.18 303.043 392.18C299.352 392.18 297.506 394.354 297.506 398.701ZM294.254 398.771C294.254 392.619 297.184 389.543 303.043 389.543C308.902 389.543 311.832 392.619 311.832 398.771C311.832 404.912 308.902 407.982 303.043 407.982C297.207 407.982 294.277 404.912 294.254 398.771ZM316.051 407.121V404.309C318.219 405.012 320.41 405.363 322.625 405.363C325.566 405.363 327.037 404.484 327.037 402.727C327.037 401.086 326.012 400.266 323.961 400.266H321.324C317.34 400.266 315.348 398.449 315.348 394.816C315.348 391.301 317.908 389.543 323.029 389.543C325.232 389.543 327.418 389.836 329.586 390.422V393.234C327.418 392.531 325.232 392.18 323.029 392.18C319.959 392.18 318.424 393.059 318.424 394.816C318.424 396.457 319.391 397.277 321.324 397.277H323.961C328.18 397.277 330.289 399.094 330.289 402.727C330.289 406.242 327.734 408 322.625 408C320.41 408 318.219 407.707 316.051 407.121ZM337.057 404.748V408H333.805V404.748H337.057Z" fill="#1E1E1E"/>
<path d="M436 412V396.267H703V412H436ZM473.127 380.533C467.124 380.533 462.113 378.105 458.093 373.249C454.065 368.403 452.051 362.356 452.051 355.108V201.394C452.051 194.156 454.065 188.115 458.093 183.269C462.121 178.423 467.133 176 473.127 176H665.873C671.876 176 676.887 178.423 680.907 183.269C684.935 188.125 686.949 194.172 686.949 201.409V355.124C686.949 362.361 684.939 368.403 680.92 373.249C676.9 378.095 671.885 380.523 665.873 380.533H473.127ZM473.127 364.8H665.873C667.874 364.8 669.714 363.788 671.393 361.763C673.064 359.75 673.899 357.531 673.899 355.108V201.394C673.899 198.981 673.064 196.768 671.393 194.754C669.714 192.74 667.874 191.733 665.873 191.733H473.127C471.126 191.733 469.286 192.74 467.607 194.754C465.936 196.768 465.101 198.986 465.101 201.409V355.124C465.101 357.536 465.936 359.75 467.607 361.763C469.286 363.788 471.126 364.8 473.127 364.8Z" fill="black"/>
<path d="M643 281.5C643 322.093 610.093 355 569.5 355C528.907 355 496 322.093 496 281.5C496 240.907 528.907 208 569.5 208C610.093 208 643 240.907 643 281.5Z" fill="white"/>
<path d="M560.5 251.5L542 233" stroke="black" stroke-width="4" stroke-linecap="round"/>
<path d="M569.5 246L560.5 219" stroke="black" stroke-width="4" stroke-linecap="round"/>
<path d="M579 246L583 215" stroke="black" stroke-width="4" stroke-linecap="round"/>
<path d="M554.266 346.391L529.335 321.46C526.829 318.69 527.063 314.645 529.382 312.263L540.568 301.077C541.314 295.429 540.178 289.761 540.796 284.216C541.018 282.263 540.896 280.458 540.432 278.803C538.571 273.07 532.978 269.823 532.703 264.044C535.864 256.145 545.803 252.834 552.869 256.168C558.583 258.948 561.835 264.166 563.762 269.741C570.354 263.127 577.01 256.578 583.648 250.01C589.424 245.036 596.869 244.816 602.042 249.917C607.204 255.108 606.498 263.343 601.832 268.194L594.064 275.962C595.33 277.746 596.208 279.634 596.698 281.626C600.322 284.379 602.452 288.501 602.781 292.68C620.129 312.141 585.056 325.376 575.736 334.148L563.501 346.382C560.714 348.918 556.656 348.717 554.266 346.391ZM570.928 329.728C578.321 322.646 613.977 308.838 595.948 295.558C597.158 291.532 594.396 286.756 590.408 285.977C590.446 281.139 588.124 277.429 583.391 277.407C585.722 275.077 588.013 272.759 590.266 270.455C592.519 268.151 594.81 265.833 597.141 263.503C599.751 260.78 599.646 256.979 597.342 254.616C594.523 251.919 590.676 252.267 588.262 254.624C579.223 263.662 570.236 272.497 561.851 280.88C556.56 274.079 555.576 258.645 543.435 261.26C541.675 261.862 540.485 262.561 539.475 264.019C539.371 264.329 539.358 264.549 539.435 264.678C539.513 264.808 539.642 265.014 539.823 265.299C543.831 270.875 547.891 276.399 547.336 283.298C546.373 290.542 548.898 297.905 546.192 304.604L545.998 304.798L570.928 329.728Z" fill="black"/>
</svg>
