<svg width="1372" height="342" viewBox="0 0 1372 342" fill="none" xmlns="http://www.w3.org/2000/svg">
<mask id="path-1-inside-1_315_6" fill="white">
<path d="M0 0H1372V342H0V0Z"/>
</mask>
<path d="M0 0H1372V342H0V0Z" fill="white"/>
<path d="M0 1H1372V-1H0V1ZM1372 341H0V343H1372V341Z" fill="#CCCCCC" mask="url(#path-1-inside-1_315_6)"/>
<path d="M159.051 65.0703V69.5234H145.066V76.5547H158.387V81.1836H145.008V88.5078H159.324V93H139.93V65.0703H159.051ZM161.18 72.4922H166.648L171.629 86.8281L176.805 72.4922H182.273L173.934 93H169.012L161.18 72.4922ZM189.891 65.0703V69.1719H184.715V65.0703H189.891ZM189.891 72.4922V93H184.715V72.4922H189.891ZM194.5 69.1719H198.328L199.109 72.4922H204.266V76.5938H199.676V86.0273C199.676 87.9414 200.503 88.8984 202.156 88.8984H204.266V93H199.656C196.219 93 194.5 91.1576 194.5 87.4727V69.1719ZM206.824 86.6133C206.824 82.5378 209.793 80.5 215.73 80.5C217.124 80.5 218.517 80.6302 219.91 80.8906V79.3477C219.91 77.5117 218.589 76.5938 215.945 76.5938C213.706 76.5938 211.219 76.9193 208.484 77.5703V73.4688C211.219 72.8177 213.706 72.4922 215.945 72.4922C222.039 72.4922 225.086 74.7448 225.086 79.25V93H222.078L220.242 91.1641C218.458 92.388 216.492 93 214.344 93C209.331 93 206.824 90.8711 206.824 86.6133ZM219.91 84.4062C218.608 84.1458 217.215 84.0156 215.73 84.0156C213.243 84.0156 212 84.862 212 86.5547C212 88.3776 213.042 89.2891 215.125 89.2891C216.844 89.2891 218.439 88.7552 219.91 87.6875V84.4062ZM251.902 77.1406C251.056 76.8281 249.852 76.6719 248.289 76.6719C244.708 76.6719 242.918 78.6445 242.918 82.5898C242.918 86.4049 244.461 88.3125 247.547 88.3125C249.031 88.3125 250.483 87.9609 251.902 87.2578V77.1406ZM257.078 91.4375C257.078 97.4271 253.478 100.422 246.277 100.422C243.751 100.422 241.512 100.096 239.559 99.4453V95.3438C241.551 95.9948 243.803 96.3203 246.316 96.3203C250.04 96.3203 251.902 94.7578 251.902 91.6328C250.366 92.2839 248.712 92.6094 246.941 92.6094C240.848 92.6094 237.801 89.2826 237.801 82.6289C237.801 75.8711 241.349 72.4922 248.445 72.4922C250.828 72.4922 253.706 72.7721 257.078 73.332V91.4375ZM261.004 86.6133C261.004 82.5378 263.973 80.5 269.91 80.5C271.303 80.5 272.697 80.6302 274.09 80.8906V79.3477C274.09 77.5117 272.768 76.5938 270.125 76.5938C267.885 76.5938 265.398 76.9193 262.664 77.5703V73.4688C265.398 72.8177 267.885 72.4922 270.125 72.4922C276.219 72.4922 279.266 74.7448 279.266 79.25V93H276.258L274.422 91.1641C272.638 92.388 270.672 93 268.523 93C263.51 93 261.004 90.8711 261.004 86.6133ZM274.09 84.4062C272.788 84.1458 271.395 84.0156 269.91 84.0156C267.423 84.0156 266.18 84.862 266.18 86.5547C266.18 88.3776 267.221 89.2891 269.305 89.2891C271.023 89.2891 272.618 88.7552 274.09 87.6875V84.4062ZM284.168 92.0234V87.7266C286.447 88.638 289.077 89.0938 292.059 89.0938C294.285 89.0938 295.398 88.3776 295.398 86.9453C295.398 85.5781 294.65 84.8945 293.152 84.8945H289.441C285.275 84.8945 283.191 82.8438 283.191 78.7422C283.191 74.4453 286.232 72.2969 292.312 72.2969C294.891 72.2969 297.319 72.6875 299.598 73.4688V77.7656C297.319 76.8542 294.845 76.3984 292.176 76.3984C289.376 76.3984 287.977 77.1146 287.977 78.5469C287.977 79.9141 288.79 80.5977 290.418 80.5977H293.738C298.296 80.5977 300.574 82.6484 300.574 86.75C300.574 91.0469 297.671 93.1953 291.863 93.1953C289.012 93.1953 286.447 92.8047 284.168 92.0234ZM303.914 69.1719H307.742L308.523 72.4922H313.68V76.5938H309.09V86.0273C309.09 87.9414 309.917 88.8984 311.57 88.8984H313.68V93H309.07C305.633 93 303.914 91.1576 303.914 87.4727V69.1719ZM321.414 82.668C321.414 86.9518 323.074 89.0938 326.395 89.0938C329.715 89.0938 331.375 86.9518 331.375 82.668C331.375 78.4883 329.715 76.3984 326.395 76.3984C323.074 76.3984 321.414 78.4883 321.414 82.668ZM316.238 82.7461C316.238 75.8711 319.624 72.4336 326.395 72.4336C333.165 72.4336 336.551 75.8711 336.551 82.7461C336.551 89.6081 333.165 93.0391 326.395 93.0391C319.65 93.0391 316.264 89.6081 316.238 82.7461ZM340.457 92.0234V87.7266C342.736 88.638 345.366 89.0938 348.348 89.0938C350.574 89.0938 351.688 88.3776 351.688 86.9453C351.688 85.5781 350.939 84.8945 349.441 84.8945H345.73C341.564 84.8945 339.48 82.8438 339.48 78.7422C339.48 74.4453 342.521 72.2969 348.602 72.2969C351.18 72.2969 353.608 72.6875 355.887 73.4688V77.7656C353.608 76.8542 351.134 76.3984 348.465 76.3984C345.665 76.3984 344.266 77.1146 344.266 78.5469C344.266 79.9141 345.079 80.5977 346.707 80.5977H350.027C354.585 80.5977 356.863 82.6484 356.863 86.75C356.863 91.0469 353.96 93.1953 348.152 93.1953C345.301 93.1953 342.736 92.8047 340.457 92.0234ZM374.461 65.0703V69.1719H369.285V65.0703H374.461ZM374.461 72.4922V93H369.285V72.4922H374.461ZM379.363 93V72.4922H383.367L384.012 75.5C385.978 73.4948 388.217 72.4922 390.73 72.4922C395.587 72.4922 398.016 75.0182 398.016 80.0703V93H392.84V80.0703C392.84 77.8047 391.714 76.6719 389.461 76.6719C387.781 76.6719 386.141 77.3424 384.539 78.6836V93H379.363ZM402.918 93V72.4922H406.922L407.566 75.5C409.533 73.4948 411.772 72.4922 414.285 72.4922C419.142 72.4922 421.57 75.0182 421.57 80.0703V93H416.395V80.0703C416.395 77.8047 415.268 76.6719 413.016 76.6719C411.336 76.6719 409.695 77.3424 408.094 78.6836V93H402.918ZM435.125 72.4922C441.349 72.4922 444.461 75.6693 444.461 82.0234C444.461 82.8698 444.402 83.7161 444.285 84.5625H430.672C430.672 87.4531 432.794 88.8984 437.039 88.8984C439.109 88.8984 441.18 88.7031 443.25 88.3125V92.4141C441.44 92.8047 439.24 93 436.648 93C429.214 93 425.496 89.5039 425.496 82.5117C425.496 75.832 428.706 72.4922 435.125 72.4922ZM430.672 80.9688H439.422V80.8125C439.422 77.974 437.99 76.5547 435.125 76.5547C432.391 76.5547 430.906 78.026 430.672 80.9688ZM463.484 92.4141C461.792 92.8047 460.034 93 458.211 93C450.919 93 447.273 89.4518 447.273 82.3555C447.273 75.7799 450.919 72.4922 458.211 72.4922C460.034 72.4922 461.792 72.6875 463.484 73.0781V77.1797C461.792 76.7891 460.164 76.5938 458.602 76.5938C454.5 76.5938 452.449 78.5143 452.449 82.3555C452.449 86.7174 454.5 88.8984 458.602 88.8984C460.164 88.8984 461.792 88.7031 463.484 88.3125V92.4141ZM475.555 72.4922C481.779 72.4922 484.891 75.6693 484.891 82.0234C484.891 82.8698 484.832 83.7161 484.715 84.5625H471.102C471.102 87.4531 473.224 88.8984 477.469 88.8984C479.539 88.8984 481.609 88.7031 483.68 88.3125V92.4141C481.87 92.8047 479.669 93 477.078 93C469.643 93 465.926 89.5039 465.926 82.5117C465.926 75.832 469.135 72.4922 475.555 72.4922ZM471.102 80.9688H479.852V80.8125C479.852 77.974 478.419 76.5547 475.555 76.5547C472.82 76.5547 471.336 78.026 471.102 80.9688ZM488.777 92.0234V87.7266C491.056 88.638 493.686 89.0938 496.668 89.0938C498.895 89.0938 500.008 88.3776 500.008 86.9453C500.008 85.5781 499.259 84.8945 497.762 84.8945H494.051C489.884 84.8945 487.801 82.8438 487.801 78.7422C487.801 74.4453 490.841 72.2969 496.922 72.2969C499.5 72.2969 501.928 72.6875 504.207 73.4688V77.7656C501.928 76.8542 499.454 76.3984 496.785 76.3984C493.986 76.3984 492.586 77.1146 492.586 78.5469C492.586 79.9141 493.4 80.5977 495.027 80.5977H498.348C502.905 80.5977 505.184 82.6484 505.184 86.75C505.184 91.0469 502.28 93.1953 496.473 93.1953C493.621 93.1953 491.056 92.8047 488.777 92.0234ZM507.84 86.6133C507.84 82.5378 510.809 80.5 516.746 80.5C518.139 80.5 519.533 80.6302 520.926 80.8906V79.3477C520.926 77.5117 519.604 76.5938 516.961 76.5938C514.721 76.5938 512.234 76.9193 509.5 77.5703V73.4688C512.234 72.8177 514.721 72.4922 516.961 72.4922C523.055 72.4922 526.102 74.7448 526.102 79.25V93H523.094L521.258 91.1641C519.474 92.388 517.508 93 515.359 93C510.346 93 507.84 90.8711 507.84 86.6133ZM520.926 84.4062C519.624 84.1458 518.23 84.0156 516.746 84.0156C514.259 84.0156 513.016 84.862 513.016 86.5547C513.016 88.3776 514.057 89.2891 516.141 89.2891C517.859 89.2891 519.454 88.7552 520.926 87.6875V84.4062ZM531.004 93V72.4922H535.008L535.652 75.1094C537.449 73.3646 539.35 72.4922 541.355 72.4922V76.6719C539.428 76.6719 537.703 77.4727 536.18 79.0742V93H531.004ZM549.461 65.0703V69.1719H544.285V65.0703H549.461ZM549.461 72.4922V93H544.285V72.4922H549.461ZM558.562 82.668C558.562 86.9518 560.223 89.0938 563.543 89.0938C566.863 89.0938 568.523 86.9518 568.523 82.668C568.523 78.4883 566.863 76.3984 563.543 76.3984C560.223 76.3984 558.562 78.4883 558.562 82.668ZM553.387 82.7461C553.387 75.8711 556.772 72.4336 563.543 72.4336C570.314 72.4336 573.699 75.8711 573.699 82.7461C573.699 89.6081 570.314 93.0391 563.543 93.0391C556.798 93.0391 553.413 89.6081 553.387 82.7461ZM577.605 92.0234V87.7266C579.884 88.638 582.514 89.0938 585.496 89.0938C587.723 89.0938 588.836 88.3776 588.836 86.9453C588.836 85.5781 588.087 84.8945 586.59 84.8945H582.879C578.712 84.8945 576.629 82.8438 576.629 78.7422C576.629 74.4453 579.669 72.2969 585.75 72.2969C588.328 72.2969 590.757 72.6875 593.035 73.4688V77.7656C590.757 76.8542 588.283 76.3984 585.613 76.3984C582.814 76.3984 581.414 77.1146 581.414 78.5469C581.414 79.9141 582.228 80.5977 583.855 80.5977H587.176C591.733 80.5977 594.012 82.6484 594.012 86.75C594.012 91.0469 591.108 93.1953 585.301 93.1953C582.449 93.1953 579.884 92.8047 577.605 92.0234ZM602.332 88.2148V93H597.156V88.2148H602.332ZM611.434 88.2148V93H606.258V88.2148H611.434ZM620.535 88.2148V93H615.359V88.2148H620.535ZM634.227 100.422V79.7188H639.402V100.422H634.227ZM634.227 77.2773V72.4922H639.402V77.2773H634.227ZM648.152 93H642.84L654.695 65.0703H660.262L672.371 93H666.805L663.621 85.3828H654.344L656.121 80.8906H661.746L657.352 70.4023L648.152 93ZM675.301 93V72.4922H679.305L679.949 75.5C681.915 73.4948 684.155 72.4922 686.668 72.4922C691.525 72.4922 693.953 75.0182 693.953 80.0703V93H688.777V80.0703C688.777 77.8047 687.651 76.6719 685.398 76.6719C683.719 76.6719 682.078 77.3424 680.477 78.6836V93H675.301ZM717.312 72.4922V93H713.27L712.645 90.3828C710.288 92.1276 707.788 93 705.145 93C700.952 93 698.855 90.5195 698.855 85.5586V72.4922H704.031V85.4219C704.031 87.6875 705.021 88.8203 707 88.8203C708.68 88.8203 710.392 88.1497 712.137 86.8086V72.4922H717.312ZM722.215 93V72.4922H726.219L726.863 75.5C728.829 73.4948 731.069 72.4922 733.582 72.4922C738.439 72.4922 740.867 75.0182 740.867 80.0703V93H735.691V80.0703C735.691 77.8047 734.565 76.6719 732.312 76.6719C730.633 76.6719 728.992 77.3424 727.391 78.6836V93H722.215ZM760.906 92.4141C759.214 92.8047 757.456 93 755.633 93C748.341 93 744.695 89.4518 744.695 82.3555C744.695 75.7799 748.341 72.4922 755.633 72.4922C757.456 72.4922 759.214 72.6875 760.906 73.0781V77.1797C759.214 76.7891 757.586 76.5938 756.023 76.5938C751.922 76.5938 749.871 78.5143 749.871 82.3555C749.871 86.7174 751.922 88.8984 756.023 88.8984C757.586 88.8984 759.214 88.7031 760.906 88.3125V92.4141ZM769.5 65.0703V69.1719H764.324V65.0703H769.5ZM769.5 72.4922V93H764.324V72.4922H769.5ZM773.426 86.6133C773.426 82.5378 776.395 80.5 782.332 80.5C783.725 80.5 785.118 80.6302 786.512 80.8906V79.3477C786.512 77.5117 785.19 76.5938 782.547 76.5938C780.307 76.5938 777.82 76.9193 775.086 77.5703V73.4688C777.82 72.8177 780.307 72.4922 782.547 72.4922C788.641 72.4922 791.688 74.7448 791.688 79.25V93H788.68L786.844 91.1641C785.06 92.388 783.094 93 780.945 93C775.932 93 773.426 90.8711 773.426 86.6133ZM786.512 84.4062C785.21 84.1458 783.816 84.0156 782.332 84.0156C779.845 84.0156 778.602 84.862 778.602 86.5547C778.602 88.3776 779.643 89.2891 781.727 89.2891C783.445 89.2891 785.04 88.7552 786.512 87.6875V84.4062ZM805.086 69.1719H808.914L809.695 72.4922H814.852V76.5938H810.262V86.0273C810.262 87.9414 811.089 88.8984 812.742 88.8984H814.852V93H810.242C806.805 93 805.086 91.1576 805.086 87.4727V69.1719ZM836.844 72.4922V93H832.801L832.176 90.3828C829.819 92.1276 827.319 93 824.676 93C820.483 93 818.387 90.5195 818.387 85.5586V72.4922H823.562V85.4219C823.562 87.6875 824.552 88.8203 826.531 88.8203C828.211 88.8203 829.923 88.1497 831.668 86.8086V72.4922H836.844ZM144.617 132.648C145.906 133.352 147.293 133.703 148.777 133.703C151.863 133.703 153.406 131.535 153.406 127.199C153.406 123.514 151.701 121.672 148.289 121.672C146.818 121.672 145.594 121.763 144.617 121.945V132.648ZM139.441 118.332C142.163 117.772 145.04 117.492 148.074 117.492C155.04 117.492 158.523 120.741 158.523 127.238C158.523 134.413 155.281 138 148.797 138C147.417 138 146.023 137.674 144.617 137.023V145.422H139.441V118.332ZM162.449 138V117.492H166.453L167.098 120.109C168.895 118.365 170.796 117.492 172.801 117.492V121.672C170.874 121.672 169.148 122.473 167.625 124.074V138H162.449ZM179.93 127.668C179.93 131.952 181.59 134.094 184.91 134.094C188.23 134.094 189.891 131.952 189.891 127.668C189.891 123.488 188.23 121.398 184.91 121.398C181.59 121.398 179.93 123.488 179.93 127.668ZM174.754 127.746C174.754 120.871 178.139 117.434 184.91 117.434C191.681 117.434 195.066 120.871 195.066 127.746C195.066 134.608 191.681 138.039 184.91 138.039C178.165 138.039 174.78 134.608 174.754 127.746ZM211.961 122.844C210.893 122.141 209.552 121.789 207.938 121.789C204.721 121.789 203.113 123.592 203.113 127.199C203.113 131.483 204.786 133.625 208.133 133.625C209.487 133.625 210.763 133.436 211.961 133.059V122.844ZM217.137 136.77C213.999 137.59 210.932 138 207.938 138C201.31 138 197.996 134.445 197.996 127.336C197.996 120.773 201.238 117.492 207.723 117.492C209.103 117.492 210.516 117.818 211.961 118.469V110.07H217.137V136.77ZM240.477 117.492V138H236.434L235.809 135.383C233.452 137.128 230.952 138 228.309 138C224.116 138 222.02 135.52 222.02 130.559V117.492H227.195V130.422C227.195 132.688 228.185 133.82 230.164 133.82C231.844 133.82 233.556 133.15 235.301 131.809V117.492H240.477ZM260.516 137.414C258.823 137.805 257.065 138 255.242 138C247.951 138 244.305 134.452 244.305 127.355C244.305 120.78 247.951 117.492 255.242 117.492C257.065 117.492 258.823 117.688 260.516 118.078V122.18C258.823 121.789 257.195 121.594 255.633 121.594C251.531 121.594 249.48 123.514 249.48 127.355C249.48 131.717 251.531 133.898 255.633 133.898C257.195 133.898 258.823 133.703 260.516 133.312V137.414ZM263.641 114.172H267.469L268.25 117.492H273.406V121.594H268.816V131.027C268.816 132.941 269.643 133.898 271.297 133.898H273.406V138H268.797C265.359 138 263.641 136.158 263.641 132.473V114.172ZM281.141 127.668C281.141 131.952 282.801 134.094 286.121 134.094C289.441 134.094 291.102 131.952 291.102 127.668C291.102 123.488 289.441 121.398 286.121 121.398C282.801 121.398 281.141 123.488 281.141 127.668ZM275.965 127.746C275.965 120.871 279.35 117.434 286.121 117.434C292.892 117.434 296.277 120.871 296.277 127.746C296.277 134.608 292.892 138.039 286.121 138.039C279.376 138.039 275.991 134.608 275.965 127.746ZM306.336 134.387L303.406 142.883H298.23L301.16 134.387H306.336ZM315.633 117.492H321.102L326.082 131.828L331.258 117.492H336.727L328.387 138H323.465L315.633 117.492ZM347.82 117.492C354.044 117.492 357.156 120.669 357.156 127.023C357.156 127.87 357.098 128.716 356.98 129.562H343.367C343.367 132.453 345.49 133.898 349.734 133.898C351.805 133.898 353.875 133.703 355.945 133.312V137.414C354.135 137.805 351.935 138 349.344 138C341.909 138 338.191 134.504 338.191 127.512C338.191 120.832 341.401 117.492 347.82 117.492ZM343.367 125.969H352.117V125.812C352.117 122.974 350.685 121.555 347.82 121.555C345.086 121.555 343.602 123.026 343.367 125.969ZM361.043 138V110.07H366.219V120.109C367.833 118.365 369.897 117.492 372.41 117.492C377.267 117.492 379.695 120.018 379.695 125.07V138H374.52V125.07C374.52 122.805 373.393 121.672 371.141 121.672C369.461 121.672 367.82 122.342 366.219 123.684V138H361.043ZM389.773 117.492V138H384.598V117.492H389.773ZM386.98 110.07H393.211L388.543 115.129H384.168L386.98 110.07ZM409.812 137.414C408.12 137.805 406.362 138 404.539 138C397.247 138 393.602 134.452 393.602 127.355C393.602 120.78 397.247 117.492 404.539 117.492C406.362 117.492 408.12 117.688 409.812 118.078V122.18C408.12 121.789 406.492 121.594 404.93 121.594C400.828 121.594 398.777 123.514 398.777 127.355C398.777 131.717 400.828 133.898 404.93 133.898C406.492 133.898 408.12 133.703 409.812 133.312V137.414ZM431.688 117.492V138H427.645L427.02 135.383C424.663 137.128 422.163 138 419.52 138C415.327 138 413.23 135.52 413.23 130.559V117.492H418.406V130.422C418.406 132.688 419.396 133.82 421.375 133.82C423.055 133.82 424.767 133.15 426.512 131.809V117.492H431.688ZM441.766 110.07V138H436.59V110.07H441.766ZM450.867 127.668C450.867 131.952 452.527 134.094 455.848 134.094C459.168 134.094 460.828 131.952 460.828 127.668C460.828 123.488 459.168 121.398 455.848 121.398C452.527 121.398 450.867 123.488 450.867 127.668ZM445.691 127.746C445.691 120.871 449.077 117.434 455.848 117.434C462.618 117.434 466.004 120.871 466.004 127.746C466.004 134.608 462.618 138.039 455.848 138.039C449.103 138.039 445.717 134.608 445.691 127.746ZM476.062 134.387L473.133 142.883H467.957L470.887 134.387H476.062ZM492.977 132.648C494.266 133.352 495.652 133.703 497.137 133.703C500.223 133.703 501.766 131.535 501.766 127.199C501.766 123.514 500.06 121.672 496.648 121.672C495.177 121.672 493.953 121.763 492.977 121.945V132.648ZM487.801 118.332C490.522 117.772 493.4 117.492 496.434 117.492C503.4 117.492 506.883 120.741 506.883 127.238C506.883 134.413 503.641 138 497.156 138C495.776 138 494.383 137.674 492.977 137.023V145.422H487.801V118.332ZM510.809 138V117.492H514.812L515.457 120.109C517.254 118.365 519.155 117.492 521.16 117.492V121.672C519.233 121.672 517.508 122.473 515.984 124.074V138H510.809ZM528.289 127.668C528.289 131.952 529.949 134.094 533.27 134.094C536.59 134.094 538.25 131.952 538.25 127.668C538.25 123.488 536.59 121.398 533.27 121.398C529.949 121.398 528.289 123.488 528.289 127.668ZM523.113 127.746C523.113 120.871 526.499 117.434 533.27 117.434C540.04 117.434 543.426 120.871 543.426 127.746C543.426 134.608 540.04 138.039 533.27 138.039C526.525 138.039 523.139 134.608 523.113 127.746ZM552.508 132.648C553.797 133.352 555.184 133.703 556.668 133.703C559.754 133.703 561.297 131.535 561.297 127.199C561.297 123.514 559.591 121.672 556.18 121.672C554.708 121.672 553.484 121.763 552.508 121.945V132.648ZM547.332 118.332C550.053 117.772 552.931 117.492 555.965 117.492C562.931 117.492 566.414 120.741 566.414 127.238C566.414 134.413 563.172 138 556.688 138C555.307 138 553.914 137.674 552.508 137.023V145.422H547.332V118.332ZM575.516 110.07V114.172H570.34V110.07H575.516ZM575.516 117.492V138H570.34V117.492H575.516ZM589.07 117.492C595.294 117.492 598.406 120.669 598.406 127.023C598.406 127.87 598.348 128.716 598.23 129.562H584.617C584.617 132.453 586.74 133.898 590.984 133.898C593.055 133.898 595.125 133.703 597.195 133.312V137.414C595.385 137.805 593.185 138 590.594 138C583.159 138 579.441 134.504 579.441 127.512C579.441 120.832 582.651 117.492 589.07 117.492ZM584.617 125.969H593.367V125.812C593.367 122.974 591.935 121.555 589.07 121.555C586.336 121.555 584.852 123.026 584.617 125.969ZM615.281 122.844C614.214 122.141 612.872 121.789 611.258 121.789C608.042 121.789 606.434 123.592 606.434 127.199C606.434 131.483 608.107 133.625 611.453 133.625C612.807 133.625 614.083 133.436 615.281 133.059V122.844ZM620.457 136.77C617.319 137.59 614.253 138 611.258 138C604.63 138 601.316 134.445 601.316 127.336C601.316 120.773 604.559 117.492 611.043 117.492C612.423 117.492 613.836 117.818 615.281 118.469V110.07H620.457V136.77ZM624.363 131.613C624.363 127.538 627.332 125.5 633.27 125.5C634.663 125.5 636.056 125.63 637.449 125.891V124.348C637.449 122.512 636.128 121.594 633.484 121.594C631.245 121.594 628.758 121.919 626.023 122.57V118.469C628.758 117.818 631.245 117.492 633.484 117.492C639.578 117.492 642.625 119.745 642.625 124.25V138H639.617L637.781 136.164C635.997 137.388 634.031 138 631.883 138C626.87 138 624.363 135.871 624.363 131.613ZM637.449 129.406C636.147 129.146 634.754 129.016 633.27 129.016C630.783 129.016 629.539 129.862 629.539 131.555C629.539 133.378 630.581 134.289 632.664 134.289C634.383 134.289 635.978 133.755 637.449 132.688V129.406ZM660.516 122.844C659.448 122.141 658.107 121.789 656.492 121.789C653.276 121.789 651.668 123.592 651.668 127.199C651.668 131.483 653.341 133.625 656.688 133.625C658.042 133.625 659.318 133.436 660.516 133.059V122.844ZM665.691 136.77C662.553 137.59 659.487 138 656.492 138C649.865 138 646.551 134.445 646.551 127.336C646.551 120.773 649.793 117.492 656.277 117.492C657.658 117.492 659.07 117.818 660.516 118.469V110.07H665.691V136.77ZM683.562 127.668C683.562 131.952 685.223 134.094 688.543 134.094C691.863 134.094 693.523 131.952 693.523 127.668C693.523 123.488 691.863 121.398 688.543 121.398C685.223 121.398 683.562 123.488 683.562 127.668ZM678.387 127.746C678.387 120.871 681.772 117.434 688.543 117.434C695.314 117.434 698.699 120.871 698.699 127.746C698.699 134.608 695.314 138.039 688.543 138.039C681.798 138.039 678.413 134.608 678.387 127.746ZM711.395 137.023V132.727C713.673 133.638 716.303 134.094 719.285 134.094C721.512 134.094 722.625 133.378 722.625 131.945C722.625 130.578 721.876 129.895 720.379 129.895H716.668C712.501 129.895 710.418 127.844 710.418 123.742C710.418 119.445 713.458 117.297 719.539 117.297C722.117 117.297 724.546 117.688 726.824 118.469V122.766C724.546 121.854 722.072 121.398 719.402 121.398C716.603 121.398 715.203 122.115 715.203 123.547C715.203 124.914 716.017 125.598 717.645 125.598H720.965C725.522 125.598 727.801 127.648 727.801 131.75C727.801 136.047 724.897 138.195 719.09 138.195C716.238 138.195 713.673 137.805 711.395 137.023ZM740.086 117.492C746.31 117.492 749.422 120.669 749.422 127.023C749.422 127.87 749.363 128.716 749.246 129.562H735.633C735.633 132.453 737.755 133.898 742 133.898C744.07 133.898 746.141 133.703 748.211 133.312V137.414C746.401 137.805 744.201 138 741.609 138C734.174 138 730.457 134.504 730.457 127.512C730.457 120.832 733.667 117.492 740.086 117.492ZM735.633 125.969H744.383V125.812C744.383 122.974 742.951 121.555 740.086 121.555C737.352 121.555 735.867 123.026 735.633 125.969ZM753.309 138V117.492H757.312L757.957 120.109C759.754 118.365 761.655 117.492 763.66 117.492V121.672C761.733 121.672 760.008 122.473 758.484 124.074V138H753.309ZM764.148 117.492H769.617L774.598 131.828L779.773 117.492H785.242L776.902 138H771.98L764.148 117.492ZM792.859 110.07V114.172H787.684V110.07H792.859ZM792.859 117.492V138H787.684V117.492H792.859ZM812.898 137.414C811.206 137.805 809.448 138 807.625 138C800.333 138 796.688 134.452 796.688 127.355C796.688 120.78 800.333 117.492 807.625 117.492C809.448 117.492 811.206 117.688 812.898 118.078V122.18C811.206 121.789 809.578 121.594 808.016 121.594C803.914 121.594 801.863 123.514 801.863 127.355C801.863 131.717 803.914 133.898 808.016 133.898C809.578 133.898 811.206 133.703 812.898 133.312V137.414ZM821.492 110.07V114.172H816.316V110.07H821.492ZM821.492 117.492V138H816.316V117.492H821.492ZM830.594 127.668C830.594 131.952 832.254 134.094 835.574 134.094C838.895 134.094 840.555 131.952 840.555 127.668C840.555 123.488 838.895 121.398 835.574 121.398C832.254 121.398 830.594 123.488 830.594 127.668ZM825.418 127.746C825.418 120.871 828.803 117.434 835.574 117.434C842.345 117.434 845.73 120.871 845.73 127.746C845.73 134.608 842.345 138.039 835.574 138.039C828.829 138.039 825.444 134.608 825.418 127.746ZM154.578 182.414C152.885 182.805 151.128 183 149.305 183C142.013 183 138.367 179.452 138.367 172.355C138.367 165.78 142.013 162.492 149.305 162.492C151.128 162.492 152.885 162.688 154.578 163.078V167.18C152.885 166.789 151.258 166.594 149.695 166.594C145.594 166.594 143.543 168.514 143.543 172.355C143.543 176.717 145.594 178.898 149.695 178.898C151.258 178.898 152.885 178.703 154.578 178.312V182.414ZM162.195 172.668C162.195 176.952 163.855 179.094 167.176 179.094C170.496 179.094 172.156 176.952 172.156 172.668C172.156 168.488 170.496 166.398 167.176 166.398C163.855 166.398 162.195 168.488 162.195 172.668ZM157.02 172.746C157.02 165.871 160.405 162.434 167.176 162.434C173.947 162.434 177.332 165.871 177.332 172.746C177.332 179.608 173.947 183.039 167.176 183.039C160.431 183.039 157.046 179.608 157.02 172.746ZM181.238 183V162.492H185.242L185.887 165.5C187.853 163.495 190.092 162.492 192.605 162.492C197.462 162.492 199.891 165.018 199.891 170.07V183H194.715V170.07C194.715 167.805 193.589 166.672 191.336 166.672C189.656 166.672 188.016 167.342 186.414 168.684V183H181.238ZM213.582 183V162.492H217.586L218.23 165.5C220.197 163.495 222.436 162.492 224.949 162.492C229.806 162.492 232.234 165.018 232.234 170.07V183H227.059V170.07C227.059 167.805 225.932 166.672 223.68 166.672C222 166.672 220.359 167.342 218.758 168.684V183H213.582ZM241.336 172.668C241.336 176.952 242.996 179.094 246.316 179.094C249.637 179.094 251.297 176.952 251.297 172.668C251.297 168.488 249.637 166.398 246.316 166.398C242.996 166.398 241.336 168.488 241.336 172.668ZM236.16 172.746C236.16 165.871 239.546 162.434 246.316 162.434C253.087 162.434 256.473 165.871 256.473 172.746C256.473 179.608 253.087 183.039 246.316 183.039C239.572 183.039 236.186 179.608 236.16 172.746ZM260.379 182.023V177.727C262.658 178.638 265.288 179.094 268.27 179.094C270.496 179.094 271.609 178.378 271.609 176.945C271.609 175.578 270.861 174.895 269.363 174.895H265.652C261.486 174.895 259.402 172.844 259.402 168.742C259.402 164.445 262.443 162.297 268.523 162.297C271.102 162.297 273.53 162.688 275.809 163.469V167.766C273.53 166.854 271.056 166.398 268.387 166.398C265.587 166.398 264.188 167.115 264.188 168.547C264.188 169.914 265.001 170.598 266.629 170.598H269.949C274.507 170.598 276.785 172.648 276.785 176.75C276.785 181.047 273.882 183.195 268.074 183.195C265.223 183.195 262.658 182.805 260.379 182.023ZM284.617 172.668C284.617 176.952 286.277 179.094 289.598 179.094C292.918 179.094 294.578 176.952 294.578 172.668C294.578 168.488 292.918 166.398 289.598 166.398C286.277 166.398 284.617 168.488 284.617 172.668ZM279.441 172.746C279.441 165.871 282.827 162.434 289.598 162.434C296.368 162.434 299.754 165.871 299.754 172.746C299.754 179.608 296.368 183.039 289.598 183.039C282.853 183.039 279.467 179.608 279.441 172.746ZM303.367 159.172H307.195L307.977 162.492H313.133V166.594H308.543V176.027C308.543 177.941 309.37 178.898 311.023 178.898H313.133V183H308.523C305.086 183 303.367 181.158 303.367 177.473V159.172ZM316.668 183V162.492H320.672L321.316 165.109C323.113 163.365 325.014 162.492 327.02 162.492V166.672C325.092 166.672 323.367 167.473 321.844 169.074V183H316.668ZM334.148 172.668C334.148 176.952 335.809 179.094 339.129 179.094C342.449 179.094 344.109 176.952 344.109 172.668C344.109 168.488 342.449 166.398 339.129 166.398C335.809 166.398 334.148 168.488 334.148 172.668ZM328.973 172.746C328.973 165.871 332.358 162.434 339.129 162.434C345.9 162.434 349.285 165.871 349.285 172.746C349.285 179.608 345.9 183.039 339.129 183.039C332.384 183.039 328.999 179.608 328.973 172.746ZM353.191 182.023V177.727C355.47 178.638 358.1 179.094 361.082 179.094C363.309 179.094 364.422 178.378 364.422 176.945C364.422 175.578 363.673 174.895 362.176 174.895H358.465C354.298 174.895 352.215 172.844 352.215 168.742C352.215 164.445 355.255 162.297 361.336 162.297C363.914 162.297 366.342 162.688 368.621 163.469V167.766C366.342 166.854 363.868 166.398 361.199 166.398C358.4 166.398 357 167.115 357 168.547C357 169.914 357.814 170.598 359.441 170.598H362.762C367.319 170.598 369.598 172.648 369.598 176.75C369.598 181.047 366.694 183.195 360.887 183.195C358.035 183.195 355.47 182.805 353.191 182.023ZM379.578 162.492H385.066L390.242 177.258L395.301 162.492H400.691L392.176 183.605C390.665 187.329 388.25 189.979 384.93 191.555L382.43 188.02C384.721 187.017 386.388 185.383 387.43 183.117L379.578 162.492ZM410.965 176.613C410.965 172.538 413.934 170.5 419.871 170.5C421.264 170.5 422.658 170.63 424.051 170.891V169.348C424.051 167.512 422.729 166.594 420.086 166.594C417.846 166.594 415.359 166.919 412.625 167.57V163.469C415.359 162.818 417.846 162.492 420.086 162.492C426.18 162.492 429.227 164.745 429.227 169.25V183H426.219L424.383 181.164C422.599 182.388 420.633 183 418.484 183C413.471 183 410.965 180.871 410.965 176.613ZM424.051 174.406C422.749 174.146 421.355 174.016 419.871 174.016C417.384 174.016 416.141 174.862 416.141 176.555C416.141 178.378 417.182 179.289 419.266 179.289C420.984 179.289 422.579 178.755 424.051 177.688V174.406ZM434.129 183V155.07H439.305V165.109C440.919 163.365 442.983 162.492 445.496 162.492C450.353 162.492 452.781 165.018 452.781 170.07V183H447.605V170.07C447.605 167.805 446.479 166.672 444.227 166.672C442.547 166.672 440.906 167.342 439.305 168.684V183H434.129ZM461.883 172.668C461.883 176.952 463.543 179.094 466.863 179.094C470.184 179.094 471.844 176.952 471.844 172.668C471.844 168.488 470.184 166.398 466.863 166.398C463.543 166.398 461.883 168.488 461.883 172.668ZM456.707 172.746C456.707 165.871 460.092 162.434 466.863 162.434C473.634 162.434 477.02 165.871 477.02 172.746C477.02 179.608 473.634 183.039 466.863 183.039C460.118 183.039 456.733 179.608 456.707 172.746ZM480.926 183V162.492H484.93L485.574 165.109C487.371 163.365 489.272 162.492 491.277 162.492V166.672C489.35 166.672 487.625 167.473 486.102 169.074V183H480.926ZM494.207 183V162.492H498.211L498.855 165.109C500.652 163.365 502.553 162.492 504.559 162.492V166.672C502.632 166.672 500.906 167.473 499.383 169.074V183H494.207ZM506.512 176.613C506.512 172.538 509.48 170.5 515.418 170.5C516.811 170.5 518.204 170.63 519.598 170.891V169.348C519.598 167.512 518.276 166.594 515.633 166.594C513.393 166.594 510.906 166.919 508.172 167.57V163.469C510.906 162.818 513.393 162.492 515.633 162.492C521.727 162.492 524.773 164.745 524.773 169.25V183H521.766L519.93 181.164C518.146 182.388 516.18 183 514.031 183C509.018 183 506.512 180.871 506.512 176.613ZM519.598 174.406C518.296 174.146 516.902 174.016 515.418 174.016C512.931 174.016 511.688 174.862 511.688 176.555C511.688 178.378 512.729 179.289 514.812 179.289C516.531 179.289 518.126 178.755 519.598 177.688V174.406ZM535.34 155.07V175.773H530.164V155.07H535.34ZM535.34 178.215V183H530.164V178.215H535.34Z" fill="#1E1E1E"/>
<path d="M138.992 229V212.242H145.789C149.211 212.242 150.922 213.738 150.922 216.73C150.922 219.988 148.582 221.977 143.902 222.695L143.457 220.867C146.895 220.359 148.613 219.012 148.613 216.824C148.613 214.965 147.605 214.035 145.59 214.035H141.16V229H138.992ZM164.176 216.695V229H162.688L162.312 227.43C160.82 228.477 159.32 229 157.812 229C154.984 229 153.57 227.473 153.57 224.418V216.695H155.738V224.453C155.738 226.281 156.645 227.195 158.457 227.195C159.699 227.195 160.883 226.676 162.008 225.637V216.695H164.176ZM172.777 216.695C176.277 216.695 178.027 218.426 178.027 221.887C178.027 222.379 177.992 222.906 177.922 223.469H169.285C169.285 225.984 170.754 227.242 173.691 227.242C175.09 227.242 176.332 227.086 177.418 226.773V228.531C176.332 228.844 175.012 229 173.457 229C169.23 229 167.117 226.902 167.117 222.707C167.117 218.699 169.004 216.695 172.777 216.695ZM169.285 221.664H175.941C175.895 219.508 174.84 218.43 172.777 218.43C170.59 218.43 169.426 219.508 169.285 221.664ZM189.207 219.203C188.332 218.781 187.332 218.57 186.207 218.57C183.73 218.57 182.492 219.887 182.492 222.52C182.492 225.637 183.73 227.195 186.207 227.195C187.332 227.195 188.332 227.043 189.207 226.738V219.203ZM191.375 228.262C189.883 228.754 188.043 229 185.855 229C182.191 229 180.359 226.867 180.359 222.602C180.359 218.664 182.305 216.695 186.195 216.695C187.258 216.695 188.262 216.891 189.207 217.281V212.242H191.375V228.262ZM199.965 216.695C203.465 216.695 205.215 218.426 205.215 221.887C205.215 222.379 205.18 222.906 205.109 223.469H196.473C196.473 225.984 197.941 227.242 200.879 227.242C202.277 227.242 203.52 227.086 204.605 226.773V228.531C203.52 228.844 202.199 229 200.645 229C196.418 229 194.305 226.902 194.305 222.707C194.305 218.699 196.191 216.695 199.965 216.695ZM196.473 221.664H203.129C203.082 219.508 202.027 218.43 199.965 218.43C197.777 218.43 196.613 219.508 196.473 221.664ZM208.016 228.414V226.539C209.461 227.008 210.922 227.242 212.398 227.242C214.359 227.242 215.34 226.656 215.34 225.484C215.34 224.391 214.656 223.844 213.289 223.844H211.531C208.875 223.844 207.547 222.633 207.547 220.211C207.547 217.867 209.254 216.695 212.668 216.695C214.137 216.695 215.594 216.891 217.039 217.281V219.156C215.594 218.688 214.137 218.453 212.668 218.453C210.621 218.453 209.598 219.039 209.598 220.211C209.598 221.305 210.242 221.852 211.531 221.852H213.289C216.102 221.852 217.508 223.062 217.508 225.484C217.508 227.828 215.805 229 212.398 229C210.922 229 209.461 228.805 208.016 228.414ZM228.465 226.492C229.316 226.914 230.266 227.125 231.312 227.125C233.867 227.125 235.145 225.59 235.145 222.52C235.145 219.84 233.875 218.5 231.336 218.5C230.242 218.5 229.285 218.594 228.465 218.781V226.492ZM226.297 217.199C227.93 216.863 229.617 216.695 231.359 216.695C235.305 216.695 237.277 218.645 237.277 222.543C237.277 226.848 235.293 229 231.324 229C230.34 229 229.387 228.805 228.465 228.414V233.453H226.297V217.199ZM250.824 216.695V229H249.336L248.961 227.43C247.469 228.477 245.969 229 244.461 229C241.633 229 240.219 227.473 240.219 224.418V216.695H242.387V224.453C242.387 226.281 243.293 227.195 245.105 227.195C246.348 227.195 247.531 226.676 248.656 225.637V216.695H250.824ZM256.52 226.855C257.23 227.082 258.094 227.195 259.109 227.195C261.844 227.195 263.211 225.637 263.211 222.52C263.211 219.887 261.973 218.57 259.496 218.57C258.371 218.57 257.379 218.781 256.52 219.203V226.855ZM254.352 212.242H256.52V217.281C257.449 216.891 258.445 216.695 259.508 216.695C263.398 216.695 265.344 218.664 265.344 222.602C265.344 226.867 263.301 229 259.215 229C257.449 229 255.828 228.832 254.352 228.496V212.242ZM270.559 212.242V229H268.391V212.242H270.559ZM276.605 216.695V229H274.438V216.695H276.605ZM276.605 212.242V214.293H274.438V212.242H276.605ZM289.625 228.648C288.609 228.883 287.516 229 286.344 229C281.969 229 279.781 226.871 279.781 222.613C279.781 218.668 281.969 216.695 286.344 216.695C287.516 216.695 288.609 216.812 289.625 217.047V218.805C288.609 218.57 287.477 218.453 286.227 218.453C283.375 218.453 281.949 219.84 281.949 222.613C281.949 225.699 283.375 227.242 286.227 227.242C287.477 227.242 288.609 227.125 289.625 226.891V228.648ZM291.805 225.285C291.805 222.762 293.469 221.5 296.797 221.5C297.867 221.5 298.938 221.578 300.008 221.734V220.574C300.008 219.16 298.902 218.453 296.691 218.453C295.426 218.453 294.129 218.648 292.801 219.039V217.281C294.129 216.891 295.426 216.695 296.691 216.695C300.348 216.695 302.176 217.969 302.176 220.516V229H300.957L300.207 227.781C298.98 228.594 297.645 229 296.199 229C293.27 229 291.805 227.762 291.805 225.285ZM296.797 223.258C294.914 223.258 293.973 223.922 293.973 225.25C293.973 226.578 294.715 227.242 296.199 227.242C297.699 227.242 298.969 226.844 300.008 226.047V223.492C298.938 223.336 297.867 223.258 296.797 223.258ZM305.703 229V216.695H307.168L307.555 218.266C308.633 217.219 309.93 216.695 311.445 216.695V218.5C309.977 218.5 308.785 219.02 307.871 220.059V229H305.703ZM321.77 212.242V229H319.602V212.242H321.77ZM326.996 222.801C326.996 225.762 328.227 227.242 330.688 227.242C333.148 227.242 334.379 225.762 334.379 222.801C334.379 219.902 333.148 218.453 330.688 218.453C328.227 218.453 326.996 219.902 326.996 222.801ZM324.828 222.848C324.828 218.746 326.781 216.695 330.688 216.695C334.594 216.695 336.547 218.746 336.547 222.848C336.547 226.941 334.594 228.988 330.688 228.988C326.797 228.988 324.844 226.941 324.828 222.848ZM353.562 218.781C352.82 218.594 351.902 218.5 350.809 218.5C348.191 218.5 346.883 219.918 346.883 222.754C346.883 225.668 348.121 227.125 350.598 227.125C351.723 227.125 352.711 226.914 353.562 226.492V218.781ZM355.73 233.453H353.562V228.414C352.641 228.805 351.648 229 350.586 229C346.695 229 344.75 226.926 344.75 222.777C344.75 218.723 346.801 216.695 350.902 216.695C352.566 216.695 354.176 216.863 355.73 217.199V233.453ZM369.863 216.695V229H368.375L368 227.43C366.508 228.477 365.008 229 363.5 229C360.672 229 359.258 227.473 359.258 224.418V216.695H361.426V224.453C361.426 226.281 362.332 227.195 364.145 227.195C365.387 227.195 366.57 226.676 367.695 225.637V216.695H369.863ZM378.465 216.695C381.965 216.695 383.715 218.426 383.715 221.887C383.715 222.379 383.68 222.906 383.609 223.469H374.973C374.973 225.984 376.441 227.242 379.379 227.242C380.777 227.242 382.02 227.086 383.105 226.773V228.531C382.02 228.844 380.699 229 379.145 229C374.918 229 372.805 226.902 372.805 222.707C372.805 218.699 374.691 216.695 378.465 216.695ZM374.973 221.664H381.629C381.582 219.508 380.527 218.43 378.465 218.43C376.277 218.43 375.113 219.508 374.973 221.664ZM400.719 218.781C399.977 218.594 399.059 218.5 397.965 218.5C395.348 218.5 394.039 219.918 394.039 222.754C394.039 225.668 395.277 227.125 397.754 227.125C398.879 227.125 399.867 226.914 400.719 226.492V218.781ZM402.887 233.453H400.719V228.414C399.797 228.805 398.805 229 397.742 229C393.852 229 391.906 226.926 391.906 222.777C391.906 218.723 393.957 216.695 398.059 216.695C399.723 216.695 401.332 216.863 402.887 217.199V233.453ZM417.02 216.695V229H415.531L415.156 227.43C413.664 228.477 412.164 229 410.656 229C407.828 229 406.414 227.473 406.414 224.418V216.695H408.582V224.453C408.582 226.281 409.488 227.195 411.301 227.195C412.543 227.195 413.727 226.676 414.852 225.637V216.695H417.02ZM422.949 216.695V229H420.781V216.695H422.949ZM422.949 212.242V214.293H420.781V212.242H422.949ZM431.785 216.695C435.285 216.695 437.035 218.426 437.035 221.887C437.035 222.379 437 222.906 436.93 223.469H428.293C428.293 225.984 429.762 227.242 432.699 227.242C434.098 227.242 435.34 227.086 436.426 226.773V228.531C435.34 228.844 434.02 229 432.465 229C428.238 229 426.125 226.902 426.125 222.707C426.125 218.699 428.012 216.695 431.785 216.695ZM428.293 221.664H434.949C434.902 219.508 433.848 218.43 431.785 218.43C429.598 218.43 428.434 219.508 428.293 221.664ZM439.953 229V216.695H441.418L441.805 218.266C442.883 217.219 444.18 216.695 445.695 216.695V218.5C444.227 218.5 443.035 219.02 442.121 220.059V229H439.953ZM447.289 225.285C447.289 222.762 448.953 221.5 452.281 221.5C453.352 221.5 454.422 221.578 455.492 221.734V220.574C455.492 219.16 454.387 218.453 452.176 218.453C450.91 218.453 449.613 218.648 448.285 219.039V217.281C449.613 216.891 450.91 216.695 452.176 216.695C455.832 216.695 457.66 217.969 457.66 220.516V229H456.441L455.691 227.781C454.465 228.594 453.129 229 451.684 229C448.754 229 447.289 227.762 447.289 225.285ZM452.281 223.258C450.398 223.258 449.457 223.922 449.457 225.25C449.457 226.578 450.199 227.242 451.684 227.242C453.184 227.242 454.453 226.844 455.492 226.047V223.492C454.422 223.336 453.352 223.258 452.281 223.258ZM461.07 228.414V226.539C462.516 227.008 463.977 227.242 465.453 227.242C467.414 227.242 468.395 226.656 468.395 225.484C468.395 224.391 467.711 223.844 466.344 223.844H464.586C461.93 223.844 460.602 222.633 460.602 220.211C460.602 217.867 462.309 216.695 465.723 216.695C467.191 216.695 468.648 216.891 470.094 217.281V219.156C468.648 218.688 467.191 218.453 465.723 218.453C463.676 218.453 462.652 219.039 462.652 220.211C462.652 221.305 463.297 221.852 464.586 221.852H466.344C469.156 221.852 470.562 223.062 470.562 225.484C470.562 227.828 468.859 229 465.453 229C463.977 229 462.516 228.805 461.07 228.414ZM477.594 216.695H479.938L483.465 226.34L486.969 216.695H489.312L484.309 229H482.293L477.594 216.695ZM496.145 216.695C499.645 216.695 501.395 218.426 501.395 221.887C501.395 222.379 501.359 222.906 501.289 223.469H492.652C492.652 225.984 494.121 227.242 497.059 227.242C498.457 227.242 499.699 227.086 500.785 226.773V228.531C499.699 228.844 498.379 229 496.824 229C492.598 229 490.484 226.902 490.484 222.707C490.484 218.699 492.371 216.695 496.145 216.695ZM492.652 221.664H499.309C499.262 219.508 498.207 218.43 496.145 218.43C493.957 218.43 492.793 219.508 492.652 221.664ZM504.312 229V216.695H505.777L506.164 218.266C507.422 217.219 508.805 216.695 510.312 216.695C513.383 216.695 514.918 218.223 514.918 221.277V229H512.75V221.242C512.75 219.414 511.84 218.5 510.02 218.5C508.777 218.5 507.598 219.02 506.48 220.059V229H504.312ZM526.707 219.203C525.832 218.781 524.832 218.57 523.707 218.57C521.23 218.57 519.992 219.887 519.992 222.52C519.992 225.637 521.23 227.195 523.707 227.195C524.832 227.195 525.832 227.043 526.707 226.738V219.203ZM528.875 228.262C527.383 228.754 525.543 229 523.355 229C519.691 229 517.859 226.867 517.859 222.602C517.859 218.664 519.805 216.695 523.695 216.695C524.758 216.695 525.762 216.891 526.707 217.281V212.242H528.875V228.262ZM537.465 216.695C540.965 216.695 542.715 218.426 542.715 221.887C542.715 222.379 542.68 222.906 542.609 223.469H533.973C533.973 225.984 535.441 227.242 538.379 227.242C539.777 227.242 541.02 227.086 542.105 226.773V228.531C541.02 228.844 539.699 229 538.145 229C533.918 229 531.805 226.902 531.805 222.707C531.805 218.699 533.691 216.695 537.465 216.695ZM533.973 221.664H540.629C540.582 219.508 539.527 218.43 537.465 218.43C535.277 218.43 534.113 219.508 533.973 221.664ZM545.633 229V216.695H547.098L547.484 218.266C548.562 217.219 549.859 216.695 551.375 216.695V218.5C549.906 218.5 548.715 219.02 547.801 220.059V229H545.633ZM564.488 216.695C567.988 216.695 569.738 218.426 569.738 221.887C569.738 222.379 569.703 222.906 569.633 223.469H560.996C560.996 225.984 562.465 227.242 565.402 227.242C566.801 227.242 568.043 227.086 569.129 226.773V228.531C568.043 228.844 566.723 229 565.168 229C560.941 229 558.828 226.902 558.828 222.707C558.828 218.699 560.715 216.695 564.488 216.695ZM560.996 221.664H567.652C567.605 219.508 566.551 218.43 564.488 218.43C562.301 218.43 561.137 219.508 560.996 221.664ZM572.656 229V216.695H574.121L574.508 218.266C575.766 217.219 577.148 216.695 578.656 216.695C581.727 216.695 583.262 218.223 583.262 221.277V229H581.094V221.242C581.094 219.414 580.184 218.5 578.363 218.5C577.121 218.5 575.941 219.02 574.824 220.059V229H572.656ZM592.648 229V216.695H594.113L594.5 218.266C595.758 217.219 597.141 216.695 598.648 216.695C601.719 216.695 603.254 218.223 603.254 221.277V229H601.086V221.242C601.086 219.414 600.176 218.5 598.355 218.5C597.113 218.5 595.934 219.02 594.816 220.059V229H592.648ZM617.387 216.695V229H615.898L615.523 227.43C614.031 228.477 612.531 229 611.023 229C608.195 229 606.781 227.473 606.781 224.418V216.695H608.949V224.453C608.949 226.281 609.855 227.195 611.668 227.195C612.91 227.195 614.094 226.676 615.219 225.637V216.695H617.387ZM625.988 216.695C629.488 216.695 631.238 218.426 631.238 221.887C631.238 222.379 631.203 222.906 631.133 223.469H622.496C622.496 225.984 623.965 227.242 626.902 227.242C628.301 227.242 629.543 227.086 630.629 226.773V228.531C629.543 228.844 628.223 229 626.668 229C622.441 229 620.328 226.902 620.328 222.707C620.328 218.699 622.215 216.695 625.988 216.695ZM622.496 221.664H629.152C629.105 219.508 628.051 218.43 625.988 218.43C623.801 218.43 622.637 219.508 622.496 221.664ZM634.039 228.414V226.539C635.484 227.008 636.945 227.242 638.422 227.242C640.383 227.242 641.363 226.656 641.363 225.484C641.363 224.391 640.68 223.844 639.312 223.844H637.555C634.898 223.844 633.57 222.633 633.57 220.211C633.57 217.867 635.277 216.695 638.691 216.695C640.16 216.695 641.617 216.891 643.062 217.281V219.156C641.617 218.688 640.16 218.453 638.691 218.453C636.645 218.453 635.621 219.039 635.621 220.211C635.621 221.305 636.266 221.852 637.555 221.852H639.312C642.125 221.852 643.531 223.062 643.531 225.484C643.531 227.828 641.828 229 638.422 229C636.945 229 635.484 228.805 634.039 228.414ZM646.461 214.703H647.82L648.289 216.695H651.617V218.453H648.629V225.52C648.629 226.668 649.125 227.242 650.117 227.242H651.617V229H649.555C647.492 229 646.461 227.895 646.461 225.684V214.703ZM654.383 229V216.695H655.848L656.234 218.266C657.312 217.219 658.609 216.695 660.125 216.695V218.5C658.656 218.5 657.465 219.02 656.551 220.059V229H654.383ZM661.719 225.285C661.719 222.762 663.383 221.5 666.711 221.5C667.781 221.5 668.852 221.578 669.922 221.734V220.574C669.922 219.16 668.816 218.453 666.605 218.453C665.34 218.453 664.043 218.648 662.715 219.039V217.281C664.043 216.891 665.34 216.695 666.605 216.695C670.262 216.695 672.09 217.969 672.09 220.516V229H670.871L670.121 227.781C668.895 228.594 667.559 229 666.113 229C663.184 229 661.719 227.762 661.719 225.285ZM666.711 223.258C664.828 223.258 663.887 223.922 663.887 225.25C663.887 226.578 664.629 227.242 666.113 227.242C667.613 227.242 668.883 226.844 669.922 226.047V223.492C668.852 223.336 667.781 223.258 666.711 223.258ZM140.926 253.492C141.777 253.914 142.727 254.125 143.773 254.125C146.328 254.125 147.605 252.59 147.605 249.52C147.605 246.84 146.336 245.5 143.797 245.5C142.703 245.5 141.746 245.594 140.926 245.781V253.492ZM138.758 244.199C140.391 243.863 142.078 243.695 143.82 243.695C147.766 243.695 149.738 245.645 149.738 249.543C149.738 253.848 147.754 256 143.785 256C142.801 256 141.848 255.805 140.926 255.414V260.453H138.758V244.199ZM152.094 252.285C152.094 249.762 153.758 248.5 157.086 248.5C158.156 248.5 159.227 248.578 160.297 248.734V247.574C160.297 246.16 159.191 245.453 156.98 245.453C155.715 245.453 154.418 245.648 153.09 246.039V244.281C154.418 243.891 155.715 243.695 156.98 243.695C160.637 243.695 162.465 244.969 162.465 247.516V256H161.246L160.496 254.781C159.27 255.594 157.934 256 156.488 256C153.559 256 152.094 254.762 152.094 252.285ZM157.086 250.258C155.203 250.258 154.262 250.922 154.262 252.25C154.262 253.578 155.004 254.242 156.488 254.242C157.988 254.242 159.258 253.844 160.297 253.047V250.492C159.227 250.336 158.156 250.258 157.086 250.258ZM157.625 239.242H160.426L157.625 242.043H155.703L157.625 239.242ZM174.219 245.781C173.477 245.594 172.559 245.5 171.465 245.5C168.848 245.5 167.539 246.918 167.539 249.754C167.539 252.668 168.777 254.125 171.254 254.125C172.379 254.125 173.367 253.914 174.219 253.492V245.781ZM176.387 256C176.387 258.969 174.5 260.453 170.727 260.453C169.211 260.453 167.867 260.258 166.695 259.867V258.109C167.891 258.5 169.242 258.695 170.75 258.695C173.062 258.695 174.219 257.797 174.219 256V255.414C173.297 255.805 172.305 256 171.242 256C167.352 256 165.406 253.926 165.406 249.777C165.406 245.723 167.457 243.695 171.559 243.695C173.223 243.695 174.832 243.863 176.387 244.199V256ZM182.316 243.695V256H180.148V243.695H182.316ZM182.316 239.242V241.293H180.148V239.242H182.316ZM186.078 256V243.695H187.543L187.93 245.266C189.188 244.219 190.57 243.695 192.078 243.695C195.148 243.695 196.684 245.223 196.684 248.277V256H194.516V248.242C194.516 246.414 193.605 245.5 191.785 245.5C190.543 245.5 189.363 246.02 188.246 247.059V256H186.078ZM199.625 252.285C199.625 249.762 201.289 248.5 204.617 248.5C205.688 248.5 206.758 248.578 207.828 248.734V247.574C207.828 246.16 206.723 245.453 204.512 245.453C203.246 245.453 201.949 245.648 200.621 246.039V244.281C201.949 243.891 203.246 243.695 204.512 243.695C208.168 243.695 209.996 244.969 209.996 247.516V256H208.777L208.027 254.781C206.801 255.594 205.465 256 204.02 256C201.09 256 199.625 254.762 199.625 252.285ZM204.617 250.258C202.734 250.258 201.793 250.922 201.793 252.25C201.793 253.578 202.535 254.242 204.02 254.242C205.52 254.242 206.789 253.844 207.828 253.047V250.492C206.758 250.336 205.688 250.258 204.617 250.258ZM215.105 253.832V256H212.938V253.832H215.105Z" fill="#1E1E1E"/>
<path d="M927.629 151V141.225H932.004C934 141.225 934.998 142.143 934.998 143.979C934.998 145.971 933.633 147.176 930.903 147.596L930.644 145.982C932.284 145.686 933.104 145.037 933.104 144.034C933.104 143.223 932.699 142.817 931.888 142.817H929.44V151H927.629ZM936.03 151V143.822H937.432L937.657 144.738C938.286 144.128 938.951 143.822 939.653 143.822V145.285C938.979 145.285 938.375 145.565 937.842 146.126V151H936.03ZM942.148 147.384C942.148 148.883 942.729 149.633 943.892 149.633C945.054 149.633 945.635 148.883 945.635 147.384C945.635 145.921 945.054 145.189 943.892 145.189C942.729 145.189 942.148 145.921 942.148 147.384ZM940.337 147.411C940.337 145.005 941.522 143.802 943.892 143.802C946.261 143.802 947.446 145.005 947.446 147.411C947.446 149.813 946.261 151.014 943.892 151.014C941.531 151.014 940.346 149.813 940.337 147.411ZM953.359 145.695C952.986 145.449 952.516 145.326 951.951 145.326C950.826 145.326 950.263 145.957 950.263 147.22C950.263 148.719 950.848 149.469 952.02 149.469C952.493 149.469 952.94 149.403 953.359 149.271V145.695ZM955.171 150.569C954.073 150.856 952.999 151 951.951 151C949.632 151 948.472 149.756 948.472 147.268C948.472 144.971 949.606 143.822 951.876 143.822C952.359 143.822 952.854 143.936 953.359 144.164V141.225H955.171V150.569ZM963.34 143.822V151H961.925L961.706 150.084C960.881 150.695 960.006 151 959.081 151C957.614 151 956.88 150.132 956.88 148.396V143.822H958.691V148.348C958.691 149.141 959.038 149.537 959.73 149.537C960.318 149.537 960.918 149.302 961.528 148.833V143.822H963.34ZM970.354 150.795C969.761 150.932 969.146 151 968.508 151C965.956 151 964.68 149.758 964.68 147.274C964.68 144.973 965.956 143.822 968.508 143.822C969.146 143.822 969.761 143.891 970.354 144.027V145.463C969.761 145.326 969.191 145.258 968.645 145.258C967.209 145.258 966.491 145.93 966.491 147.274C966.491 148.801 967.209 149.564 968.645 149.564C969.191 149.564 969.761 149.496 970.354 149.359V150.795ZM971.447 142.66H972.787L973.061 143.822H974.865V145.258H973.259V148.56C973.259 149.229 973.548 149.564 974.127 149.564H974.865V151H973.252C972.049 151 971.447 150.355 971.447 149.065V142.66ZM977.572 147.384C977.572 148.883 978.153 149.633 979.315 149.633C980.478 149.633 981.059 148.883 981.059 147.384C981.059 145.921 980.478 145.189 979.315 145.189C978.153 145.189 977.572 145.921 977.572 147.384ZM975.761 147.411C975.761 145.005 976.946 143.802 979.315 143.802C981.685 143.802 982.87 145.005 982.87 147.411C982.87 149.813 981.685 151.014 979.315 151.014C976.955 151.014 975.77 149.813 975.761 147.411ZM984.237 150.658V149.154C985.035 149.473 985.955 149.633 986.999 149.633C987.778 149.633 988.168 149.382 988.168 148.881C988.168 148.402 987.906 148.163 987.382 148.163H986.083C984.625 148.163 983.896 147.445 983.896 146.01C983.896 144.506 984.96 143.754 987.088 143.754C987.99 143.754 988.84 143.891 989.638 144.164V145.668C988.84 145.349 987.974 145.189 987.04 145.189C986.06 145.189 985.57 145.44 985.57 145.941C985.57 146.42 985.855 146.659 986.425 146.659H987.587C989.182 146.659 989.979 147.377 989.979 148.812C989.979 150.316 988.963 151.068 986.931 151.068C985.933 151.068 985.035 150.932 984.237 150.658Z" fill="#1E1E1E"/>
<path d="M1096.12 150.59C1095.28 150.909 1094.32 151.068 1093.25 151.068C1089.74 151.068 1087.99 149.371 1087.99 145.976C1087.99 142.763 1089.74 141.156 1093.25 141.156C1094.32 141.156 1095.28 141.316 1096.12 141.635V143.275C1095.28 142.911 1094.37 142.729 1093.39 142.729C1091.04 142.729 1089.87 143.811 1089.87 145.976C1089.87 148.323 1091.04 149.496 1093.39 149.496C1094.37 149.496 1095.28 149.314 1096.12 148.949V150.59ZM1097.32 148.765C1097.32 147.338 1098.36 146.625 1100.43 146.625C1100.92 146.625 1101.41 146.671 1101.9 146.762V146.222C1101.9 145.579 1101.43 145.258 1100.51 145.258C1099.73 145.258 1098.86 145.372 1097.9 145.6V144.164C1098.86 143.936 1099.73 143.822 1100.51 143.822C1102.64 143.822 1103.71 144.611 1103.71 146.188V151H1102.66L1102.01 150.357C1101.39 150.786 1100.7 151 1099.95 151C1098.19 151 1097.32 150.255 1097.32 148.765ZM1101.9 147.992C1101.44 147.901 1100.95 147.855 1100.43 147.855C1099.56 147.855 1099.13 148.152 1099.13 148.744C1099.13 149.382 1099.49 149.701 1100.22 149.701C1100.82 149.701 1101.38 149.514 1101.9 149.141V147.992ZM1105.42 150.658V149.154C1106.22 149.473 1107.14 149.633 1108.19 149.633C1108.97 149.633 1109.36 149.382 1109.36 148.881C1109.36 148.402 1109.09 148.163 1108.57 148.163H1107.27C1105.81 148.163 1105.08 147.445 1105.08 146.01C1105.08 144.506 1106.15 143.754 1108.28 143.754C1109.18 143.754 1110.03 143.891 1110.83 144.164V145.668C1110.03 145.349 1109.16 145.189 1108.23 145.189C1107.25 145.189 1106.76 145.44 1106.76 145.941C1106.76 146.42 1107.04 146.659 1107.61 146.659H1108.77C1110.37 146.659 1111.17 147.377 1111.17 148.812C1111.17 150.316 1110.15 151.068 1108.12 151.068C1107.12 151.068 1106.22 150.932 1105.42 150.658ZM1112.1 148.765C1112.1 147.338 1113.14 146.625 1115.21 146.625C1115.7 146.625 1116.19 146.671 1116.68 146.762V146.222C1116.68 145.579 1116.21 145.258 1115.29 145.258C1114.51 145.258 1113.63 145.372 1112.68 145.6V144.164C1113.63 143.936 1114.51 143.822 1115.29 143.822C1117.42 143.822 1118.49 144.611 1118.49 146.188V151H1117.44L1116.79 150.357C1116.17 150.786 1115.48 151 1114.73 151C1112.97 151 1112.1 150.255 1112.1 148.765ZM1116.68 147.992C1116.22 147.901 1115.73 147.855 1115.21 147.855C1114.34 147.855 1113.91 148.152 1113.91 148.744C1113.91 149.382 1114.27 149.701 1115 149.701C1115.6 149.701 1116.16 149.514 1116.68 149.141V147.992ZM1124.54 151H1122.6L1127.55 141.225H1129.5L1124.54 151ZM1133.26 148.765C1133.26 147.338 1134.3 146.625 1136.38 146.625C1136.87 146.625 1137.35 146.671 1137.84 146.762V146.222C1137.84 145.579 1137.38 145.258 1136.45 145.258C1135.67 145.258 1134.8 145.372 1133.84 145.6V144.164C1134.8 143.936 1135.67 143.822 1136.45 143.822C1138.59 143.822 1139.65 144.611 1139.65 146.188V151H1138.6L1137.96 150.357C1137.33 150.786 1136.64 151 1135.89 151C1134.14 151 1133.26 150.255 1133.26 148.765ZM1137.84 147.992C1137.39 147.901 1136.9 147.855 1136.38 147.855C1135.51 147.855 1135.07 148.152 1135.07 148.744C1135.07 149.382 1135.44 149.701 1136.17 149.701C1136.77 149.701 1137.33 149.514 1137.84 149.141V147.992ZM1143.18 141.225V151H1141.37V141.225H1143.18ZM1149.49 145.449C1149.06 145.34 1148.66 145.285 1148.29 145.285C1146.99 145.285 1146.34 145.976 1146.34 147.356C1146.34 148.783 1146.91 149.496 1148.03 149.496C1148.6 149.496 1149.08 149.373 1149.49 149.127V145.449ZM1151.3 153.598H1149.49V150.658C1149 150.886 1148.44 151 1147.82 151C1145.64 151 1144.55 149.79 1144.55 147.37C1144.55 145.005 1145.8 143.822 1148.28 143.822C1149.2 143.822 1150.21 143.92 1151.3 144.116V153.598ZM1159.48 143.822V151H1158.06L1157.84 150.084C1157.02 150.695 1156.14 151 1155.22 151C1153.75 151 1153.02 150.132 1153.02 148.396V143.822H1154.83V148.348C1154.83 149.141 1155.17 149.537 1155.87 149.537C1156.46 149.537 1157.05 149.302 1157.67 148.833V143.822H1159.48ZM1163 141.225V142.66H1161.19V141.225H1163ZM1163 143.822V151H1161.19V143.822H1163ZM1166.53 141.225V151H1164.72V141.225H1166.53ZM1171.28 143.822C1173.45 143.822 1174.54 144.934 1174.54 147.158C1174.54 147.454 1174.52 147.751 1174.48 148.047H1169.72C1169.72 149.059 1170.46 149.564 1171.95 149.564C1172.67 149.564 1173.39 149.496 1174.12 149.359V150.795C1173.49 150.932 1172.72 151 1171.81 151C1169.21 151 1167.91 149.776 1167.91 147.329C1167.91 144.991 1169.03 143.822 1171.28 143.822ZM1169.72 146.789H1172.78V146.734C1172.78 145.741 1172.28 145.244 1171.28 145.244C1170.32 145.244 1169.8 145.759 1169.72 146.789ZM1175.9 151V143.822H1177.3L1177.53 144.738C1178.16 144.128 1178.82 143.822 1179.53 143.822V145.285C1178.85 145.285 1178.25 145.565 1177.71 146.126V151H1175.9Z" fill="#1E1E1E"/>
<path d="M1082.32 304.225V305.797H1079.52V314H1077.71V305.797H1074.9V304.225H1082.32ZM1086.21 306.822C1088.39 306.822 1089.48 307.934 1089.48 310.158C1089.48 310.454 1089.46 310.751 1089.42 311.047H1084.65C1084.65 312.059 1085.4 312.564 1086.88 312.564C1087.61 312.564 1088.33 312.496 1089.05 312.359V313.795C1088.42 313.932 1087.65 314 1086.74 314C1084.14 314 1082.84 312.776 1082.84 310.329C1082.84 307.991 1083.96 306.822 1086.21 306.822ZM1084.65 309.789H1087.71V309.734C1087.71 308.741 1087.21 308.244 1086.21 308.244C1085.25 308.244 1084.73 308.759 1084.65 309.789ZM1096.14 313.795C1095.54 313.932 1094.93 314 1094.29 314C1091.74 314 1090.46 312.758 1090.46 310.274C1090.46 307.973 1091.74 306.822 1094.29 306.822C1094.93 306.822 1095.54 306.891 1096.14 307.027V308.463C1095.54 308.326 1094.97 308.258 1094.43 308.258C1092.99 308.258 1092.27 308.93 1092.27 310.274C1092.27 311.801 1092.99 312.564 1094.43 312.564C1094.97 312.564 1095.54 312.496 1096.14 312.359V313.795ZM1097.33 314V306.822H1098.73L1098.96 307.875C1099.65 307.173 1100.43 306.822 1101.31 306.822C1103.01 306.822 1103.86 307.706 1103.86 309.475V314H1102.05V309.475C1102.05 308.682 1101.66 308.285 1100.87 308.285C1100.28 308.285 1099.71 308.52 1099.14 308.989V314H1097.33ZM1107.05 310.384C1107.05 311.883 1107.63 312.633 1108.79 312.633C1109.95 312.633 1110.53 311.883 1110.53 310.384C1110.53 308.921 1109.95 308.189 1108.79 308.189C1107.63 308.189 1107.05 308.921 1107.05 310.384ZM1105.24 310.411C1105.24 308.005 1106.42 306.802 1108.79 306.802C1111.16 306.802 1112.34 308.005 1112.34 310.411C1112.34 312.813 1111.16 314.014 1108.79 314.014C1106.43 314.014 1105.24 312.813 1105.24 310.411ZM1115.52 304.225V314H1113.71V304.225H1115.52ZM1118.71 310.384C1118.71 311.883 1119.29 312.633 1120.45 312.633C1121.61 312.633 1122.2 311.883 1122.2 310.384C1122.2 308.921 1121.61 308.189 1120.45 308.189C1119.29 308.189 1118.71 308.921 1118.71 310.384ZM1116.9 310.411C1116.9 308.005 1118.08 306.802 1120.45 306.802C1122.82 306.802 1124.01 308.005 1124.01 310.411C1124.01 312.813 1122.82 314.014 1120.45 314.014C1118.09 314.014 1116.91 312.813 1116.9 310.411ZM1129.97 308.449C1129.67 308.34 1129.25 308.285 1128.7 308.285C1127.45 308.285 1126.82 308.976 1126.82 310.356C1126.82 311.692 1127.36 312.359 1128.44 312.359C1128.96 312.359 1129.47 312.236 1129.97 311.99V308.449ZM1131.78 313.453C1131.78 315.549 1130.52 316.598 1128 316.598C1127.11 316.598 1126.33 316.484 1125.65 316.256V314.82C1126.34 315.048 1127.13 315.162 1128.01 315.162C1129.32 315.162 1129.97 314.615 1129.97 313.521C1129.43 313.749 1128.85 313.863 1128.23 313.863C1126.1 313.863 1125.03 312.699 1125.03 310.37C1125.03 308.005 1126.27 306.822 1128.76 306.822C1129.59 306.822 1130.6 306.92 1131.78 307.116V313.453ZM1135.31 306.822V314H1133.5V306.822H1135.31ZM1134.33 304.225H1136.51L1134.88 305.995H1133.34L1134.33 304.225ZM1136.68 311.765C1136.68 310.338 1137.72 309.625 1139.8 309.625C1140.29 309.625 1140.77 309.671 1141.26 309.762V309.222C1141.26 308.579 1140.8 308.258 1139.87 308.258C1139.09 308.258 1138.22 308.372 1137.26 308.6V307.164C1138.22 306.936 1139.09 306.822 1139.87 306.822C1142.01 306.822 1143.07 307.611 1143.07 309.188V314H1142.02L1141.38 313.357C1140.75 313.786 1140.06 314 1139.31 314C1137.56 314 1136.68 313.255 1136.68 311.765ZM1141.26 310.992C1140.81 310.901 1140.32 310.855 1139.8 310.855C1138.93 310.855 1138.49 311.152 1138.49 311.744C1138.49 312.382 1138.86 312.701 1139.59 312.701C1140.19 312.701 1140.75 312.514 1141.26 312.141V310.992ZM1147.01 306.822H1148.93L1150.74 311.99L1152.51 306.822H1154.4L1151.42 314.212C1150.89 315.515 1150.04 316.443 1148.88 316.994L1148.01 315.757C1148.81 315.406 1149.39 314.834 1149.76 314.041L1147.01 306.822ZM1158.34 314V306.822H1159.74L1159.95 307.861C1160.59 307.169 1161.37 306.822 1162.27 306.822C1163.17 306.822 1163.79 307.15 1164.12 307.807C1164.85 307.15 1165.62 306.822 1166.42 306.822C1168.07 306.822 1168.9 307.731 1168.9 309.55V314H1167.09V309.481C1167.09 308.684 1166.73 308.285 1166.01 308.285C1165.47 308.285 1164.95 308.527 1164.46 309.01V314H1162.64V309.502C1162.64 308.691 1162.31 308.285 1161.65 308.285C1161.12 308.285 1160.62 308.527 1160.15 309.01V314H1158.34ZM1170.27 311.765C1170.27 310.338 1171.31 309.625 1173.39 309.625C1173.88 309.625 1174.36 309.671 1174.85 309.762V309.222C1174.85 308.579 1174.39 308.258 1173.46 308.258C1172.68 308.258 1171.81 308.372 1170.85 308.6V307.164C1171.81 306.936 1172.68 306.822 1173.46 306.822C1175.6 306.822 1176.66 307.611 1176.66 309.188V314H1175.61L1174.97 313.357C1174.34 313.786 1173.66 314 1172.9 314C1171.15 314 1170.27 313.255 1170.27 311.765ZM1174.85 310.992C1174.4 310.901 1173.91 310.855 1173.39 310.855C1172.52 310.855 1172.08 311.152 1172.08 311.744C1172.08 312.382 1172.45 312.701 1173.18 312.701C1173.78 312.701 1174.34 312.514 1174.85 312.141V310.992ZM1173.46 304.225H1175.65L1174.01 305.995H1172.48L1173.46 304.225ZM1178.38 313.658V312.154C1179.18 312.473 1180.1 312.633 1181.14 312.633C1181.92 312.633 1182.31 312.382 1182.31 311.881C1182.31 311.402 1182.05 311.163 1181.52 311.163H1180.23C1178.77 311.163 1178.04 310.445 1178.04 309.01C1178.04 307.506 1179.1 306.754 1181.23 306.754C1182.13 306.754 1182.98 306.891 1183.78 307.164V308.668C1182.98 308.349 1182.12 308.189 1181.18 308.189C1180.2 308.189 1179.71 308.44 1179.71 308.941C1179.71 309.42 1180 309.659 1180.57 309.659H1181.73C1183.32 309.659 1184.12 310.377 1184.12 311.812C1184.12 313.316 1183.11 314.068 1181.07 314.068C1180.08 314.068 1179.18 313.932 1178.38 313.658ZM1187.03 312.325V314H1185.22V312.325H1187.03ZM1190.22 312.325V314H1188.41V312.325H1190.22ZM1193.41 312.325V314H1191.59V312.325H1193.41Z" fill="#1E1E1E"/>
<path d="M935.281 304.225L930.995 314H929.047L924.945 304.225H927.099L930.127 311.71L933.148 304.225H935.281ZM939.164 306.822C941.342 306.822 942.432 307.934 942.432 310.158C942.432 310.454 942.411 310.751 942.37 311.047H937.605C937.605 312.059 938.348 312.564 939.834 312.564C940.559 312.564 941.283 312.496 942.008 312.359V313.795C941.374 313.932 940.604 314 939.697 314C937.095 314 935.794 312.776 935.794 310.329C935.794 307.991 936.917 306.822 939.164 306.822ZM937.605 309.789H940.668V309.734C940.668 308.741 940.167 308.244 939.164 308.244C938.207 308.244 937.688 308.759 937.605 309.789ZM943.792 314V304.225H945.604V307.738C946.169 307.128 946.891 306.822 947.771 306.822C949.47 306.822 950.32 307.706 950.32 309.475V314H948.509V309.475C948.509 308.682 948.115 308.285 947.326 308.285C946.738 308.285 946.164 308.52 945.604 308.989V314H943.792ZM953.848 306.822V314H952.036V306.822H953.848ZM952.87 304.225H955.051L953.417 305.995H951.886L952.87 304.225ZM960.861 313.795C960.269 313.932 959.654 314 959.016 314C956.464 314 955.188 312.758 955.188 310.274C955.188 307.973 956.464 306.822 959.016 306.822C959.654 306.822 960.269 306.891 960.861 307.027V308.463C960.269 308.326 959.699 308.258 959.152 308.258C957.717 308.258 956.999 308.93 956.999 310.274C956.999 311.801 957.717 312.564 959.152 312.564C959.699 312.564 960.269 312.496 960.861 312.359V313.795ZM968.518 306.822V314H967.103L966.884 313.084C966.059 313.695 965.184 314 964.259 314C962.791 314 962.058 313.132 962.058 311.396V306.822H963.869V311.348C963.869 312.141 964.215 312.537 964.908 312.537C965.496 312.537 966.095 312.302 966.706 311.833V306.822H968.518ZM972.045 304.225V314H970.233V304.225H972.045ZM975.23 310.384C975.23 311.883 975.812 312.633 976.974 312.633C978.136 312.633 978.717 311.883 978.717 310.384C978.717 308.921 978.136 308.189 976.974 308.189C975.812 308.189 975.23 308.921 975.23 310.384ZM973.419 310.411C973.419 308.005 974.604 306.802 976.974 306.802C979.343 306.802 980.528 308.005 980.528 310.411C980.528 312.813 979.343 314.014 976.974 314.014C974.613 314.014 973.428 312.813 973.419 310.411ZM981.896 313.658V312.154C982.693 312.473 983.614 312.633 984.657 312.633C985.437 312.633 985.826 312.382 985.826 311.881C985.826 311.402 985.564 311.163 985.04 311.163H983.741C982.283 311.163 981.554 310.445 981.554 309.01C981.554 307.506 982.618 306.754 984.746 306.754C985.648 306.754 986.498 306.891 987.296 307.164V308.668C986.498 308.349 985.632 308.189 984.698 308.189C983.718 308.189 983.229 308.44 983.229 308.941C983.229 309.42 983.513 309.659 984.083 309.659H985.245C986.84 309.659 987.638 310.377 987.638 311.812C987.638 313.316 986.621 314.068 984.589 314.068C983.591 314.068 982.693 313.932 981.896 313.658Z" fill="#1E1E1E"/>
<rect x="1075" y="18" width="115.238" height="120" fill="#EDEDED"/>
<rect x="899" y="18" width="115.238" height="120" fill="#EDEDED"/>
<rect x="1075" y="181" width="115.238" height="120" fill="#EDEDED"/>
<rect x="899" y="181" width="115.238" height="120" fill="#EDEDED"/>
<path d="M979.825 63.325V103.825M979.825 103.825V118H927.175V103.825M979.825 103.825H994V63.325C994 57.25 989.95 50.1625 983.875 45.1C977.8 40.0375 965.65 37 965.65 37H941.35C941.35 37 929.2 40.0375 923.125 45.1C917.05 50.1625 913 57.25 913 63.325V103.825H927.175M927.175 103.825V63.325" stroke="black" stroke-width="4" stroke-linecap="round" stroke-linejoin="round"/>
<path d="M965.65 37C965.65 40.2224 964.37 43.3128 962.091 45.5913C959.813 47.8699 956.722 49.15 953.5 49.15C950.278 49.15 947.187 47.8699 944.909 45.5913C942.63 43.3128 941.35 40.2224 941.35 37" stroke="black" stroke-width="4" stroke-linecap="round" stroke-linejoin="round"/>
<path d="M1170.17 107.32H1164.5V74.497C1164.5 73.7108 1164.34 72.9331 1164.02 72.2132C1163.71 71.4933 1163.25 70.8469 1162.67 70.3147L1134.34 43.517C1134.32 43.5049 1134.31 43.4919 1134.3 43.478C1133.25 42.527 1131.89 42 1130.48 42C1129.07 42 1127.71 42.527 1126.67 43.478L1126.63 43.517L1098.33 70.3147C1097.75 70.8469 1097.29 71.4933 1096.98 72.2132C1096.66 72.9331 1096.5 73.7108 1096.5 74.497V107.32H1090.83C1090.08 107.32 1089.36 107.619 1088.83 108.151C1088.3 108.684 1088 109.406 1088 110.16C1088 110.913 1088.3 111.635 1088.83 112.168C1089.36 112.701 1090.08 113 1090.83 113H1170.17C1170.92 113 1171.64 112.701 1172.17 112.168C1172.7 111.635 1173 110.913 1173 110.16C1173 109.406 1172.7 108.684 1172.17 108.151C1171.64 107.619 1170.92 107.32 1170.17 107.32ZM1102.17 74.497L1102.21 74.4615L1130.5 47.6744L1158.8 74.4544L1158.84 74.4899V107.32H1141.83V90.2781C1141.83 88.7715 1141.24 87.3267 1140.17 86.2614C1139.11 85.1961 1137.67 84.5976 1136.17 84.5976H1124.83C1123.33 84.5976 1121.89 85.1961 1120.83 86.2614C1119.76 87.3267 1119.17 88.7715 1119.17 90.2781V107.32H1102.17V74.497ZM1136.17 107.32H1124.83V90.2781H1136.17V107.32Z" fill="black"/>
<path d="M1002.75 235.973L976.52 226.525L965.555 212.729C964.601 211.561 963.4 210.621 962.039 209.976C960.677 209.33 959.189 208.997 957.683 209H930.554C928.895 208.999 927.261 209.406 925.794 210.183C924.327 210.96 923.073 212.086 922.14 213.46L912.938 227.001C911.022 229.819 909.998 233.151 910 236.561V263.394C910 264.296 910.357 265.161 910.994 265.798C911.63 266.436 912.493 266.794 913.393 266.794H920.66C921.398 269.712 923.086 272.299 925.457 274.148C927.828 275.996 930.746 277 933.75 277C936.754 277 939.672 275.996 942.043 274.148C944.414 272.299 946.102 269.712 946.84 266.794H968.16C968.898 269.712 970.586 272.299 972.957 274.148C975.328 275.996 978.246 277 981.25 277C984.254 277 987.172 275.996 989.543 274.148C991.914 272.299 993.602 269.712 994.34 266.794H1001.61C1002.51 266.794 1003.37 266.436 1004.01 265.798C1004.64 265.161 1005 264.296 1005 263.394V239.172C1005 238.472 1004.78 237.789 1004.38 237.216C1003.98 236.644 1003.41 236.209 1002.75 235.973ZM933.75 270.193C932.408 270.193 931.096 269.795 929.98 269.048C928.864 268.3 927.994 267.239 927.481 265.996C926.967 264.754 926.833 263.387 927.095 262.068C927.357 260.749 928.003 259.537 928.952 258.586C929.901 257.636 931.11 256.988 932.426 256.726C933.742 256.463 935.107 256.598 936.347 257.113C937.587 257.627 938.646 258.499 939.392 259.617C940.138 260.735 940.536 262.049 940.536 263.394C940.533 265.197 939.817 266.925 938.545 268.199C937.273 269.474 935.549 270.191 933.75 270.193ZM981.25 270.193C979.908 270.193 978.596 269.795 977.48 269.048C976.364 268.3 975.494 267.239 974.981 265.996C974.467 264.754 974.333 263.387 974.595 262.068C974.856 260.749 975.503 259.537 976.452 258.586C977.401 257.636 978.61 256.988 979.926 256.726C981.242 256.463 982.607 256.598 983.847 257.113C985.087 257.627 986.146 258.499 986.892 259.617C987.638 260.735 988.036 262.049 988.036 263.394C988.033 265.197 987.317 266.925 986.045 268.199C984.773 269.474 983.049 270.191 981.25 270.193ZM998.214 259.995H994.34C993.602 257.077 991.914 254.489 989.543 252.641C987.172 250.792 984.254 249.788 981.25 249.788C978.246 249.788 975.328 250.792 972.957 252.641C970.586 254.489 968.898 257.077 968.16 259.995H946.84C946.102 257.077 944.414 254.489 942.043 252.641C939.672 250.792 936.754 249.788 933.75 249.788C930.746 249.788 927.828 250.792 925.457 252.641C923.086 254.489 921.398 257.077 920.66 259.995H916.786V236.561C916.785 234.514 917.4 232.514 918.55 230.822L927.748 217.288C928.059 216.83 928.477 216.454 928.966 216.195C929.455 215.935 930 215.799 930.554 215.799H957.683C958.177 215.798 958.665 215.905 959.113 216.114C959.561 216.322 959.958 216.627 960.275 217.006L971.811 231.516C972.203 232.009 972.725 232.384 973.318 232.597L998.214 241.562V259.995Z" fill="black"/>
<path d="M1150 202.5C1151.46 202.5 1152.86 203.079 1153.89 204.111C1154.92 205.142 1155.5 206.541 1155.5 208V274C1155.5 275.459 1154.92 276.858 1153.89 277.889C1152.86 278.921 1151.46 279.5 1150 279.5H1117C1115.54 279.5 1114.14 278.921 1113.11 277.889C1112.08 276.858 1111.5 275.459 1111.5 274V208C1111.5 206.541 1112.08 205.142 1113.11 204.111C1114.14 203.079 1115.54 202.5 1117 202.5H1150ZM1117 197C1114.08 197 1111.28 198.159 1109.22 200.222C1107.16 202.285 1106 205.083 1106 208V274C1106 276.917 1107.16 279.715 1109.22 281.778C1111.28 283.841 1114.08 285 1117 285H1150C1152.92 285 1155.72 283.841 1157.78 281.778C1159.84 279.715 1161 276.917 1161 274V208C1161 205.083 1159.84 202.285 1157.78 200.222C1155.72 198.159 1152.92 197 1150 197H1117Z" fill="black"/>
<path d="M1133.5 274C1134.96 274 1136.36 273.421 1137.39 272.389C1138.42 271.358 1139 269.959 1139 268.5C1139 267.041 1138.42 265.642 1137.39 264.611C1136.36 263.579 1134.96 263 1133.5 263C1132.04 263 1130.64 263.579 1129.61 264.611C1128.58 265.642 1128 267.041 1128 268.5C1128 269.959 1128.58 271.358 1129.61 272.389C1130.64 273.421 1132.04 274 1133.5 274Z" fill="black"/>
</svg>
