<svg width="1372" height="342" viewBox="0 0 1372 342" fill="none" xmlns="http://www.w3.org/2000/svg">
<mask id="path-1-inside-1_320_56" fill="white">
<path d="M0 0H1372V342H0V0Z"/>
</mask>
<path d="M0 0H1372V342H0V0Z" fill="white"/>
<path d="M0 1H1372V-1H0V1ZM1372 341H0V343H1372V341Z" fill="#CCCCCC" mask="url(#path-1-inside-1_320_56)"/>
<path d="M159.051 65.0703V69.5234H145.066V76.5547H158.387V81.1836H145.008V88.5078H159.324V93H139.93V65.0703H159.051ZM163.621 93V72.4922H167.625L168.27 75.5C170.236 73.4948 172.475 72.4922 174.988 72.4922C179.845 72.4922 182.273 75.0182 182.273 80.0703V93H177.098V80.0703C177.098 77.8047 175.971 76.6719 173.719 76.6719C172.039 76.6719 170.398 77.3424 168.797 78.6836V93H163.621ZM202.312 92.4141C200.62 92.8047 198.862 93 197.039 93C189.747 93 186.102 89.4518 186.102 82.3555C186.102 75.7799 189.747 72.4922 197.039 72.4922C198.862 72.4922 200.62 72.6875 202.312 73.0781V77.1797C200.62 76.7891 198.992 76.5938 197.43 76.5938C193.328 76.5938 191.277 78.5143 191.277 82.3555C191.277 86.7174 193.328 88.8984 197.43 88.8984C198.992 88.8984 200.62 88.7031 202.312 88.3125V92.4141ZM224.188 72.4922V93H220.145L219.52 90.3828C217.163 92.1276 214.663 93 212.02 93C207.827 93 205.73 90.5195 205.73 85.5586V72.4922H210.906V85.4219C210.906 87.6875 211.896 88.8203 213.875 88.8203C215.555 88.8203 217.267 88.1497 219.012 86.8086V72.4922H224.188ZM237.742 72.4922C243.966 72.4922 247.078 75.6693 247.078 82.0234C247.078 82.8698 247.02 83.7161 246.902 84.5625H233.289C233.289 87.4531 235.411 88.8984 239.656 88.8984C241.727 88.8984 243.797 88.7031 245.867 88.3125V92.4141C244.057 92.8047 241.857 93 239.266 93C231.831 93 228.113 89.5039 228.113 82.5117C228.113 75.832 231.323 72.4922 237.742 72.4922ZM233.289 80.9688H242.039V80.8125C242.039 77.974 240.607 76.5547 237.742 76.5547C235.008 76.5547 233.523 78.026 233.289 80.9688ZM250.965 93V72.4922H254.969L255.613 75.5C257.579 73.4948 259.819 72.4922 262.332 72.4922C267.189 72.4922 269.617 75.0182 269.617 80.0703V93H264.441V80.0703C264.441 77.8047 263.315 76.6719 261.062 76.6719C259.383 76.6719 257.742 77.3424 256.141 78.6836V93H250.965ZM274.227 69.1719H278.055L278.836 72.4922H283.992V76.5938H279.402V86.0273C279.402 87.9414 280.229 88.8984 281.883 88.8984H283.992V93H279.383C275.945 93 274.227 91.1576 274.227 87.4727V69.1719ZM287.527 93V72.4922H291.531L292.176 75.1094C293.973 73.3646 295.874 72.4922 297.879 72.4922V76.6719C295.952 76.6719 294.227 77.4727 292.703 79.0742V93H287.527ZM299.832 86.6133C299.832 82.5378 302.801 80.5 308.738 80.5C310.132 80.5 311.525 80.6302 312.918 80.8906V79.3477C312.918 77.5117 311.596 76.5938 308.953 76.5938C306.714 76.5938 304.227 76.9193 301.492 77.5703V73.4688C304.227 72.8177 306.714 72.4922 308.953 72.4922C315.047 72.4922 318.094 74.7448 318.094 79.25V93H315.086L313.25 91.1641C311.466 92.388 309.5 93 307.352 93C302.339 93 299.832 90.8711 299.832 86.6133ZM312.918 84.4062C311.616 84.1458 310.223 84.0156 308.738 84.0156C306.251 84.0156 305.008 84.862 305.008 86.5547C305.008 88.3776 306.049 89.2891 308.133 89.2891C309.852 89.2891 311.447 88.7552 312.918 87.6875V84.4062ZM331.492 69.1719H335.32L336.102 72.4922H341.258V76.5938H336.668V86.0273C336.668 87.9414 337.495 88.8984 339.148 88.8984H341.258V93H336.648C333.211 93 331.492 91.1576 331.492 87.4727V69.1719ZM363.25 72.4922V93H359.207L358.582 90.3828C356.225 92.1276 353.725 93 351.082 93C346.889 93 344.793 90.5195 344.793 85.5586V72.4922H349.969V85.4219C349.969 87.6875 350.958 88.8203 352.938 88.8203C354.617 88.8203 356.329 88.1497 358.074 86.8086V72.4922H363.25ZM376.941 93V65.0703H382.117V75.1094C383.732 73.3646 385.796 72.4922 388.309 72.4922C393.165 72.4922 395.594 75.0182 395.594 80.0703V93H390.418V80.0703C390.418 77.8047 389.292 76.6719 387.039 76.6719C385.359 76.6719 383.719 77.3424 382.117 78.6836V93H376.941ZM404.695 82.668C404.695 86.9518 406.355 89.0938 409.676 89.0938C412.996 89.0938 414.656 86.9518 414.656 82.668C414.656 78.4883 412.996 76.3984 409.676 76.3984C406.355 76.3984 404.695 78.4883 404.695 82.668ZM399.52 82.7461C399.52 75.8711 402.905 72.4336 409.676 72.4336C416.447 72.4336 419.832 75.8711 419.832 82.7461C419.832 89.6081 416.447 93.0391 409.676 93.0391C402.931 93.0391 399.546 89.6081 399.52 82.7461ZM436.863 77.1406C436.017 76.8281 434.812 76.6719 433.25 76.6719C429.669 76.6719 427.879 78.6445 427.879 82.5898C427.879 86.4049 429.422 88.3125 432.508 88.3125C433.992 88.3125 435.444 87.9609 436.863 87.2578V77.1406ZM442.039 91.4375C442.039 97.4271 438.439 100.422 431.238 100.422C428.712 100.422 426.473 100.096 424.52 99.4453V95.3438C426.512 95.9948 428.764 96.3203 431.277 96.3203C435.001 96.3203 436.863 94.7578 436.863 91.6328C435.327 92.2839 433.673 92.6094 431.902 92.6094C425.809 92.6094 422.762 89.2826 422.762 82.6289C422.762 75.8711 426.31 72.4922 433.406 72.4922C435.789 72.4922 438.667 72.7721 442.039 73.332V91.4375ZM445.965 86.6133C445.965 82.5378 448.934 80.5 454.871 80.5C456.264 80.5 457.658 80.6302 459.051 80.8906V79.3477C459.051 77.5117 457.729 76.5938 455.086 76.5938C452.846 76.5938 450.359 76.9193 447.625 77.5703V73.4688C450.359 72.8177 452.846 72.4922 455.086 72.4922C461.18 72.4922 464.227 74.7448 464.227 79.25V93H461.219L459.383 91.1641C457.599 92.388 455.633 93 453.484 93C448.471 93 445.965 90.8711 445.965 86.6133ZM459.051 84.4062C457.749 84.1458 456.355 84.0156 454.871 84.0156C452.384 84.0156 451.141 84.862 451.141 86.5547C451.141 88.3776 452.182 89.2891 454.266 89.2891C455.984 89.2891 457.579 88.7552 459.051 87.6875V84.4062ZM469.129 93V72.4922H473.133L473.777 75.1094C475.574 73.3646 477.475 72.4922 479.48 72.4922V76.6719C477.553 76.6719 475.828 77.4727 474.305 79.0742V93H469.129ZM496.375 87.6484C497.664 88.3516 499.051 88.7031 500.535 88.7031C503.621 88.7031 505.164 86.5352 505.164 82.1992C505.164 78.5143 503.458 76.6719 500.047 76.6719C498.576 76.6719 497.352 76.763 496.375 76.9453V87.6484ZM491.199 73.332C493.921 72.7721 496.798 72.4922 499.832 72.4922C506.798 72.4922 510.281 75.7409 510.281 82.2383C510.281 89.4128 507.039 93 500.555 93C499.174 93 497.781 92.6745 496.375 92.0234V100.422H491.199V73.332ZM522.859 72.4922C529.083 72.4922 532.195 75.6693 532.195 82.0234C532.195 82.8698 532.137 83.7161 532.02 84.5625H518.406C518.406 87.4531 520.529 88.8984 524.773 88.8984C526.844 88.8984 528.914 88.7031 530.984 88.3125V92.4141C529.174 92.8047 526.974 93 524.383 93C516.948 93 513.23 89.5039 513.23 82.5117C513.23 75.832 516.44 72.4922 522.859 72.4922ZM518.406 80.9688H527.156V80.8125C527.156 77.974 525.724 76.5547 522.859 76.5547C520.125 76.5547 518.641 78.026 518.406 80.9688ZM536.082 93V72.4922H540.086L540.73 75.1094C542.527 73.3646 544.428 72.4922 546.434 72.4922V76.6719C544.507 76.6719 542.781 77.4727 541.258 79.0742V93H536.082ZM549.363 93V72.4922C549.363 66.8672 552.436 64.0547 558.582 64.0547C560.262 64.0547 561.785 64.3151 563.152 64.8359V68.9375C561.863 68.4167 560.464 68.1562 558.953 68.1562C556.01 68.1562 554.539 69.6016 554.539 72.4922H560.691V76.5938H554.539V93H549.363ZM572.508 72.4922C578.732 72.4922 581.844 75.6693 581.844 82.0234C581.844 82.8698 581.785 83.7161 581.668 84.5625H568.055C568.055 87.4531 570.177 88.8984 574.422 88.8984C576.492 88.8984 578.562 88.7031 580.633 88.3125V92.4141C578.823 92.8047 576.622 93 574.031 93C566.596 93 562.879 89.5039 562.879 82.5117C562.879 75.832 566.089 72.4922 572.508 72.4922ZM568.055 80.9688H576.805V80.8125C576.805 77.974 575.372 76.5547 572.508 76.5547C569.773 76.5547 568.289 78.026 568.055 80.9688ZM600.867 92.4141C599.174 92.8047 597.417 93 595.594 93C588.302 93 584.656 89.4518 584.656 82.3555C584.656 75.7799 588.302 72.4922 595.594 72.4922C597.417 72.4922 599.174 72.6875 600.867 73.0781V77.1797C599.174 76.7891 597.547 76.5938 595.984 76.5938C591.883 76.5938 589.832 78.5143 589.832 82.3555C589.832 86.7174 591.883 88.8984 595.984 88.8984C597.547 88.8984 599.174 88.7031 600.867 88.3125V92.4141ZM603.992 69.1719H607.82L608.602 72.4922H613.758V76.5938H609.168V86.0273C609.168 87.9414 609.995 88.8984 611.648 88.8984H613.758V93H609.148C605.711 93 603.992 91.1576 603.992 87.4727V69.1719ZM621.492 82.668C621.492 86.9518 623.152 89.0938 626.473 89.0938C629.793 89.0938 631.453 86.9518 631.453 82.668C631.453 78.4883 629.793 76.3984 626.473 76.3984C623.152 76.3984 621.492 78.4883 621.492 82.668ZM616.316 82.7461C616.316 75.8711 619.702 72.4336 626.473 72.4336C633.243 72.4336 636.629 75.8711 636.629 82.7461C636.629 89.6081 633.243 93.0391 626.473 93.0391C619.728 93.0391 616.342 89.6081 616.316 82.7461ZM654.5 87.6484C655.789 88.3516 657.176 88.7031 658.66 88.7031C661.746 88.7031 663.289 86.5352 663.289 82.1992C663.289 78.5143 661.583 76.6719 658.172 76.6719C656.701 76.6719 655.477 76.763 654.5 76.9453V87.6484ZM649.324 73.332C652.046 72.7721 654.923 72.4922 657.957 72.4922C664.923 72.4922 668.406 75.7409 668.406 82.2383C668.406 89.4128 665.164 93 658.68 93C657.299 93 655.906 92.6745 654.5 92.0234V100.422H649.324V73.332ZM671.355 86.6133C671.355 82.5378 674.324 80.5 680.262 80.5C681.655 80.5 683.048 80.6302 684.441 80.8906V79.3477C684.441 77.5117 683.12 76.5938 680.477 76.5938C678.237 76.5938 675.75 76.9193 673.016 77.5703V73.4688C675.75 72.8177 678.237 72.4922 680.477 72.4922C686.57 72.4922 689.617 74.7448 689.617 79.25V93H686.609L684.773 91.1641C682.99 92.388 681.023 93 678.875 93C673.862 93 671.355 90.8711 671.355 86.6133ZM684.441 84.4062C683.139 84.1458 681.746 84.0156 680.262 84.0156C677.775 84.0156 676.531 84.862 676.531 86.5547C676.531 88.3776 677.573 89.2891 679.656 89.2891C681.375 89.2891 682.97 88.7552 684.441 87.6875V84.4062ZM694.52 93V72.4922H698.523L699.168 75.1094C700.965 73.3646 702.866 72.4922 704.871 72.4922V76.6719C702.944 76.6719 701.219 77.4727 699.695 79.0742V93H694.52ZM706.824 86.6133C706.824 82.5378 709.793 80.5 715.73 80.5C717.124 80.5 718.517 80.6302 719.91 80.8906V79.3477C719.91 77.5117 718.589 76.5938 715.945 76.5938C713.706 76.5938 711.219 76.9193 708.484 77.5703V73.4688C711.219 72.8177 713.706 72.4922 715.945 72.4922C722.039 72.4922 725.086 74.7448 725.086 79.25V93H722.078L720.242 91.1641C718.458 92.388 716.492 93 714.344 93C709.331 93 706.824 90.8711 706.824 86.6133ZM719.91 84.4062C718.608 84.1458 717.215 84.0156 715.73 84.0156C713.243 84.0156 712 84.862 712 86.5547C712 88.3776 713.042 89.2891 715.125 89.2891C716.844 89.2891 718.439 88.7552 719.91 87.6875V84.4062ZM137 117.492H142.469L147.449 131.828L152.625 117.492H158.094L149.754 138H144.832L137 117.492ZM165.711 110.07V114.172H160.535V110.07H165.711ZM165.711 117.492V138H160.535V117.492H165.711ZM168.172 117.492H173.641L178.621 131.828L183.797 117.492H189.266L180.926 138H176.004L168.172 117.492ZM196.883 110.07V114.172H191.707V110.07H196.883ZM196.883 117.492V138H191.707V117.492H196.883ZM201.785 138V117.492H205.789L206.434 120.109C208.23 118.365 210.132 117.492 212.137 117.492V121.672C210.21 121.672 208.484 122.473 206.961 124.074V138H201.785Z" fill="#1E1E1E"/>
<path d="M149.949 167.242V169H141.16V174.625H149.539V176.383H141.16V182.242H150.125V184H138.992V167.242H149.949ZM153.172 184V171.695H154.637L155.023 173.266C156.281 172.219 157.664 171.695 159.172 171.695C162.242 171.695 163.777 173.223 163.777 176.277V184H161.609V176.242C161.609 174.414 160.699 173.5 158.879 173.5C157.637 173.5 156.457 174.02 155.34 175.059V184H153.172ZM176.562 183.648C175.547 183.883 174.453 184 173.281 184C168.906 184 166.719 181.871 166.719 177.613C166.719 173.668 168.906 171.695 173.281 171.695C174.453 171.695 175.547 171.812 176.562 172.047V173.805C175.547 173.57 174.414 173.453 173.164 173.453C170.312 173.453 168.887 174.84 168.887 177.613C168.887 180.699 170.312 182.242 173.164 182.242C174.414 182.242 175.547 182.125 176.562 181.891V183.648ZM189.934 171.695V184H188.445L188.07 182.43C186.578 183.477 185.078 184 183.57 184C180.742 184 179.328 182.473 179.328 179.418V171.695H181.496V179.453C181.496 181.281 182.402 182.195 184.215 182.195C185.457 182.195 186.641 181.676 187.766 180.637V171.695H189.934ZM198.535 171.695C202.035 171.695 203.785 173.426 203.785 176.887C203.785 177.379 203.75 177.906 203.68 178.469H195.043C195.043 180.984 196.512 182.242 199.449 182.242C200.848 182.242 202.09 182.086 203.176 181.773V183.531C202.09 183.844 200.77 184 199.215 184C194.988 184 192.875 181.902 192.875 177.707C192.875 173.699 194.762 171.695 198.535 171.695ZM195.043 176.664H201.699C201.652 174.508 200.598 173.43 198.535 173.43C196.348 173.43 195.184 174.508 195.043 176.664ZM206.703 184V171.695H208.168L208.555 173.266C209.812 172.219 211.195 171.695 212.703 171.695C215.773 171.695 217.309 173.223 217.309 176.277V184H215.141V176.242C215.141 174.414 214.23 173.5 212.41 173.5C211.168 173.5 209.988 174.02 208.871 175.059V184H206.703ZM220.836 169.703H222.195L222.664 171.695H225.992V173.453H223.004V180.52C223.004 181.668 223.5 182.242 224.492 182.242H225.992V184H223.93C221.867 184 220.836 182.895 220.836 180.684V169.703ZM228.758 184V171.695H230.223L230.609 173.266C231.688 172.219 232.984 171.695 234.5 171.695V173.5C233.031 173.5 231.84 174.02 230.926 175.059V184H228.758ZM236.094 180.285C236.094 177.762 237.758 176.5 241.086 176.5C242.156 176.5 243.227 176.578 244.297 176.734V175.574C244.297 174.16 243.191 173.453 240.98 173.453C239.715 173.453 238.418 173.648 237.09 174.039V172.281C238.418 171.891 239.715 171.695 240.98 171.695C244.637 171.695 246.465 172.969 246.465 175.516V184H245.246L244.496 182.781C243.27 183.594 241.934 184 240.488 184C237.559 184 236.094 182.762 236.094 180.285ZM241.086 178.258C239.203 178.258 238.262 178.922 238.262 180.25C238.262 181.578 239.004 182.242 240.488 182.242C241.988 182.242 243.258 181.844 244.297 181.047V178.492C243.227 178.336 242.156 178.258 241.086 178.258ZM266.697 171.695C270.197 171.695 271.947 173.426 271.947 176.887C271.947 177.379 271.912 177.906 271.842 178.469H263.205C263.205 180.984 264.674 182.242 267.611 182.242C269.01 182.242 270.252 182.086 271.338 181.773V183.531C270.252 183.844 268.932 184 267.377 184C263.15 184 261.037 181.902 261.037 177.707C261.037 173.699 262.924 171.695 266.697 171.695ZM263.205 176.664H269.861C269.814 174.508 268.76 173.43 266.697 173.43C264.51 173.43 263.346 174.508 263.205 176.664ZM277.15 167.242V184H274.982V167.242H277.15ZM294.711 167.242V184H292.543V167.242H294.711ZM308.961 171.695V184H307.473L307.098 182.43C305.605 183.477 304.105 184 302.598 184C299.77 184 298.355 182.473 298.355 179.418V171.695H300.523V179.453C300.523 181.281 301.43 182.195 303.242 182.195C304.484 182.195 305.668 181.676 306.793 180.637V171.695H308.961ZM320.715 173.781C319.973 173.594 319.055 173.5 317.961 173.5C315.344 173.5 314.035 174.918 314.035 177.754C314.035 180.668 315.273 182.125 317.75 182.125C318.875 182.125 319.863 181.914 320.715 181.492V173.781ZM322.883 184C322.883 186.969 320.996 188.453 317.223 188.453C315.707 188.453 314.363 188.258 313.191 187.867V186.109C314.387 186.5 315.738 186.695 317.246 186.695C319.559 186.695 320.715 185.797 320.715 184V183.414C319.793 183.805 318.801 184 317.738 184C313.848 184 311.902 181.926 311.902 177.777C311.902 173.723 313.953 171.695 318.055 171.695C319.719 171.695 321.328 171.863 322.883 172.199V184ZM325.824 180.285C325.824 177.762 327.488 176.5 330.816 176.5C331.887 176.5 332.957 176.578 334.027 176.734V175.574C334.027 174.16 332.922 173.453 330.711 173.453C329.445 173.453 328.148 173.648 326.82 174.039V172.281C328.148 171.891 329.445 171.695 330.711 171.695C334.367 171.695 336.195 172.969 336.195 175.516V184H334.977L334.227 182.781C333 183.594 331.664 184 330.219 184C327.289 184 325.824 182.762 325.824 180.285ZM330.816 178.258C328.934 178.258 327.992 178.922 327.992 180.25C327.992 181.578 328.734 182.242 330.219 182.242C331.719 182.242 332.988 181.844 334.027 181.047V178.492C332.957 178.336 331.887 178.258 330.816 178.258ZM339.723 184V171.695H341.188L341.574 173.266C342.652 172.219 343.949 171.695 345.465 171.695V173.5C343.996 173.5 342.805 174.02 341.891 175.059V184H339.723ZM361.678 171.695V184H359.51V171.695H361.678ZM361.678 167.242V169.293H359.51V167.242H361.678ZM373.701 174.203C372.826 173.781 371.826 173.57 370.701 173.57C368.225 173.57 366.986 174.887 366.986 177.52C366.986 180.637 368.225 182.195 370.701 182.195C371.826 182.195 372.826 182.043 373.701 181.738V174.203ZM375.869 183.262C374.377 183.754 372.537 184 370.35 184C366.686 184 364.854 181.867 364.854 177.602C364.854 173.664 366.799 171.695 370.689 171.695C371.752 171.695 372.756 171.891 373.701 172.281V167.242H375.869V183.262ZM384.459 171.695C387.959 171.695 389.709 173.426 389.709 176.887C389.709 177.379 389.674 177.906 389.604 178.469H380.967C380.967 180.984 382.436 182.242 385.373 182.242C386.771 182.242 388.014 182.086 389.1 181.773V183.531C388.014 183.844 386.693 184 385.139 184C380.912 184 378.799 181.902 378.799 177.707C378.799 173.699 380.686 171.695 384.459 171.695ZM380.967 176.664H387.623C387.576 174.508 386.521 173.43 384.459 173.43C382.271 173.43 381.107 174.508 380.967 176.664ZM392.041 180.285C392.041 177.762 393.705 176.5 397.033 176.5C398.104 176.5 399.174 176.578 400.244 176.734V175.574C400.244 174.16 399.139 173.453 396.928 173.453C395.662 173.453 394.365 173.648 393.037 174.039V172.281C394.365 171.891 395.662 171.695 396.928 171.695C400.584 171.695 402.412 172.969 402.412 175.516V184H401.193L400.443 182.781C399.217 183.594 397.881 184 396.436 184C393.506 184 392.041 182.762 392.041 180.285ZM397.033 178.258C395.15 178.258 394.209 178.922 394.209 180.25C394.209 181.578 394.951 182.242 396.436 182.242C397.936 182.242 399.205 181.844 400.244 181.047V178.492C399.174 178.336 398.104 178.258 397.033 178.258ZM408.225 167.242V184H406.057V167.242H408.225ZM425.668 181.492C426.52 181.914 427.469 182.125 428.516 182.125C431.07 182.125 432.348 180.59 432.348 177.52C432.348 174.84 431.078 173.5 428.539 173.5C427.445 173.5 426.488 173.594 425.668 173.781V181.492ZM423.5 172.199C425.133 171.863 426.82 171.695 428.562 171.695C432.508 171.695 434.48 173.645 434.48 177.543C434.48 181.848 432.496 184 428.527 184C427.543 184 426.59 183.805 425.668 183.414V188.453H423.5V172.199ZM436.836 180.285C436.836 177.762 438.5 176.5 441.828 176.5C442.898 176.5 443.969 176.578 445.039 176.734V175.574C445.039 174.16 443.934 173.453 441.723 173.453C440.457 173.453 439.16 173.648 437.832 174.039V172.281C439.16 171.891 440.457 171.695 441.723 171.695C445.379 171.695 447.207 172.969 447.207 175.516V184H445.988L445.238 182.781C444.012 183.594 442.676 184 441.23 184C438.301 184 436.836 182.762 436.836 180.285ZM441.828 178.258C439.945 178.258 439.004 178.922 439.004 180.25C439.004 181.578 439.746 182.242 441.23 182.242C442.73 182.242 444 181.844 445.039 181.047V178.492C443.969 178.336 442.898 178.258 441.828 178.258ZM450.734 184V171.695H452.199L452.586 173.266C453.664 172.219 454.961 171.695 456.477 171.695V173.5C455.008 173.5 453.816 174.02 452.902 175.059V184H450.734ZM458.07 180.285C458.07 177.762 459.734 176.5 463.062 176.5C464.133 176.5 465.203 176.578 466.273 176.734V175.574C466.273 174.16 465.168 173.453 462.957 173.453C461.691 173.453 460.395 173.648 459.066 174.039V172.281C460.395 171.891 461.691 171.695 462.957 171.695C466.613 171.695 468.441 172.969 468.441 175.516V184H467.223L466.473 182.781C465.246 183.594 463.91 184 462.465 184C459.535 184 458.07 182.762 458.07 180.285ZM463.062 178.258C461.18 178.258 460.238 178.922 460.238 180.25C460.238 181.578 460.98 182.242 462.465 182.242C463.965 182.242 465.234 181.844 466.273 181.047V178.492C465.203 178.336 464.133 178.258 463.062 178.258ZM485.885 167.242V184H483.717V167.242H485.885ZM491.814 167.242V184H489.646V167.242H491.814ZM494.873 180.285C494.873 177.762 496.537 176.5 499.865 176.5C500.936 176.5 502.006 176.578 503.076 176.734V175.574C503.076 174.16 501.971 173.453 499.76 173.453C498.494 173.453 497.197 173.648 495.869 174.039V172.281C497.197 171.891 498.494 171.695 499.76 171.695C503.416 171.695 505.244 172.969 505.244 175.516V184H504.025L503.275 182.781C502.049 183.594 500.713 184 499.268 184C496.338 184 494.873 182.762 494.873 180.285ZM499.865 178.258C497.982 178.258 497.041 178.922 497.041 180.25C497.041 181.578 497.783 182.242 499.268 182.242C500.768 182.242 502.037 181.844 503.076 181.047V178.492C502.006 178.336 500.936 178.258 499.865 178.258ZM508.771 184V171.695H510.236L510.6 173.242C511.779 172.211 513.064 171.695 514.455 171.695C516.236 171.695 517.451 172.258 518.1 173.383C519.436 172.258 520.791 171.695 522.166 171.695C524.994 171.695 526.408 173.254 526.408 176.371V184H524.24V176.254C524.24 174.418 523.467 173.5 521.92 173.5C520.764 173.5 519.682 174.031 518.674 175.094V184H516.506V176.289C516.506 174.43 515.74 173.5 514.209 173.5C512.99 173.5 511.9 174.031 510.939 175.094V184H508.771ZM529.35 180.285C529.35 177.762 531.014 176.5 534.342 176.5C535.412 176.5 536.482 176.578 537.553 176.734V175.574C537.553 174.16 536.447 173.453 534.236 173.453C532.971 173.453 531.674 173.648 530.346 174.039V172.281C531.674 171.891 532.971 171.695 534.236 171.695C537.893 171.695 539.721 172.969 539.721 175.516V184H538.502L537.752 182.781C536.525 183.594 535.189 184 533.744 184C530.814 184 529.35 182.762 529.35 180.285ZM534.342 178.258C532.459 178.258 531.518 178.922 531.518 180.25C531.518 181.578 532.26 182.242 533.744 182.242C535.244 182.242 536.514 181.844 537.553 181.047V178.492C536.482 178.336 535.412 178.258 534.342 178.258ZM543.248 184V171.695H544.713L545.1 173.266C546.178 172.219 547.475 171.695 548.99 171.695V173.5C547.521 173.5 546.33 174.02 545.416 175.059V184H543.248ZM562.801 184V167.242H564.969V173.031C566.016 172.141 567.293 171.695 568.801 171.695C571.871 171.695 573.406 173.223 573.406 176.277V184H571.238V176.242C571.238 174.414 570.328 173.5 568.508 173.5C567.266 173.5 566.086 174.02 564.969 175.059V184H562.801ZM578.516 177.801C578.516 180.762 579.746 182.242 582.207 182.242C584.668 182.242 585.898 180.762 585.898 177.801C585.898 174.902 584.668 173.453 582.207 173.453C579.746 173.453 578.516 174.902 578.516 177.801ZM576.348 177.848C576.348 173.746 578.301 171.695 582.207 171.695C586.113 171.695 588.066 173.746 588.066 177.848C588.066 181.941 586.113 183.988 582.207 183.988C578.316 183.988 576.363 181.941 576.348 177.848ZM599.223 173.781C598.48 173.594 597.562 173.5 596.469 173.5C593.852 173.5 592.543 174.918 592.543 177.754C592.543 180.668 593.781 182.125 596.258 182.125C597.383 182.125 598.371 181.914 599.223 181.492V173.781ZM601.391 184C601.391 186.969 599.504 188.453 595.73 188.453C594.215 188.453 592.871 188.258 591.699 187.867V186.109C592.895 186.5 594.246 186.695 595.754 186.695C598.066 186.695 599.223 185.797 599.223 184V183.414C598.301 183.805 597.309 184 596.246 184C592.355 184 590.41 181.926 590.41 177.777C590.41 173.723 592.461 171.695 596.562 171.695C598.227 171.695 599.836 171.863 601.391 172.199V184ZM604.332 180.285C604.332 177.762 605.996 176.5 609.324 176.5C610.395 176.5 611.465 176.578 612.535 176.734V175.574C612.535 174.16 611.43 173.453 609.219 173.453C607.953 173.453 606.656 173.648 605.328 174.039V172.281C606.656 171.891 607.953 171.695 609.219 171.695C612.875 171.695 614.703 172.969 614.703 175.516V184H613.484L612.734 182.781C611.508 183.594 610.172 184 608.727 184C605.797 184 604.332 182.762 604.332 180.285ZM609.324 178.258C607.441 178.258 606.5 178.922 606.5 180.25C606.5 181.578 607.242 182.242 608.727 182.242C610.227 182.242 611.496 181.844 612.535 181.047V178.492C611.465 178.336 610.395 178.258 609.324 178.258ZM618.23 184V171.695H619.695L620.082 173.266C621.16 172.219 622.457 171.695 623.973 171.695V173.5C622.504 173.5 621.312 174.02 620.398 175.059V184H618.23ZM642.857 171.695C646.357 171.695 648.107 173.426 648.107 176.887C648.107 177.379 648.072 177.906 648.002 178.469H639.365C639.365 180.984 640.834 182.242 643.771 182.242C645.17 182.242 646.412 182.086 647.498 181.773V183.531C646.412 183.844 645.092 184 643.537 184C639.311 184 637.197 181.902 637.197 177.707C637.197 173.699 639.084 171.695 642.857 171.695ZM639.365 176.664H646.021C645.975 174.508 644.92 173.43 642.857 173.43C640.67 173.43 639.506 174.508 639.365 176.664ZM651.025 184V171.695H652.49L652.877 173.266C654.135 172.219 655.518 171.695 657.025 171.695C660.096 171.695 661.631 173.223 661.631 176.277V184H659.463V176.242C659.463 174.414 658.553 173.5 656.732 173.5C655.49 173.5 654.311 174.02 653.193 175.059V184H651.025ZM676.789 184V171.695H678.254L678.641 173.266C679.898 172.219 681.281 171.695 682.789 171.695C685.859 171.695 687.395 173.223 687.395 176.277V184H685.227V176.242C685.227 174.414 684.316 173.5 682.496 173.5C681.254 173.5 680.074 174.02 678.957 175.059V184H676.789ZM701.527 171.695V184H700.039L699.664 182.43C698.172 183.477 696.672 184 695.164 184C692.336 184 690.922 182.473 690.922 179.418V171.695H693.09V179.453C693.09 181.281 693.996 182.195 695.809 182.195C697.051 182.195 698.234 181.676 699.359 180.637V171.695H701.527ZM710.129 171.695C713.629 171.695 715.379 173.426 715.379 176.887C715.379 177.379 715.344 177.906 715.273 178.469H706.637C706.637 180.984 708.105 182.242 711.043 182.242C712.441 182.242 713.684 182.086 714.77 181.773V183.531C713.684 183.844 712.363 184 710.809 184C706.582 184 704.469 181.902 704.469 177.707C704.469 173.699 706.355 171.695 710.129 171.695ZM706.637 176.664H713.293C713.246 174.508 712.191 173.43 710.129 173.43C707.941 173.43 706.777 174.508 706.637 176.664ZM718.18 183.414V181.539C719.625 182.008 721.086 182.242 722.562 182.242C724.523 182.242 725.504 181.656 725.504 180.484C725.504 179.391 724.82 178.844 723.453 178.844H721.695C719.039 178.844 717.711 177.633 717.711 175.211C717.711 172.867 719.418 171.695 722.832 171.695C724.301 171.695 725.758 171.891 727.203 172.281V174.156C725.758 173.688 724.301 173.453 722.832 173.453C720.785 173.453 719.762 174.039 719.762 175.211C719.762 176.305 720.406 176.852 721.695 176.852H723.453C726.266 176.852 727.672 178.062 727.672 180.484C727.672 182.828 725.969 184 722.562 184C721.086 184 719.625 183.805 718.18 183.414ZM730.602 169.703H731.961L732.43 171.695H735.758V173.453H732.77V180.52C732.77 181.668 733.266 182.242 734.258 182.242H735.758V184H733.695C731.633 184 730.602 182.895 730.602 180.684V169.703ZM738.523 184V171.695H739.988L740.375 173.266C741.453 172.219 742.75 171.695 744.266 171.695V173.5C742.797 173.5 741.605 174.02 740.691 175.059V184H738.523ZM745.859 180.285C745.859 177.762 747.523 176.5 750.852 176.5C751.922 176.5 752.992 176.578 754.062 176.734V175.574C754.062 174.16 752.957 173.453 750.746 173.453C749.48 173.453 748.184 173.648 746.855 174.039V172.281C748.184 171.891 749.48 171.695 750.746 171.695C754.402 171.695 756.23 172.969 756.23 175.516V184H755.012L754.262 182.781C753.035 183.594 751.699 184 750.254 184C747.324 184 745.859 182.762 745.859 180.285ZM750.852 178.258C748.969 178.258 748.027 178.922 748.027 180.25C748.027 181.578 748.77 182.242 750.254 182.242C751.754 182.242 753.023 181.844 754.062 181.047V178.492C752.992 178.336 751.922 178.258 750.852 178.258ZM138.172 207.285C138.172 204.762 139.836 203.5 143.164 203.5C144.234 203.5 145.305 203.578 146.375 203.734V202.574C146.375 201.16 145.27 200.453 143.059 200.453C141.793 200.453 140.496 200.648 139.168 201.039V199.281C140.496 198.891 141.793 198.695 143.059 198.695C146.715 198.695 148.543 199.969 148.543 202.516V211H147.324L146.574 209.781C145.348 210.594 144.012 211 142.566 211C139.637 211 138.172 209.762 138.172 207.285ZM143.164 205.258C141.281 205.258 140.34 205.922 140.34 207.25C140.34 208.578 141.082 209.242 142.566 209.242C144.066 209.242 145.336 208.844 146.375 208.047V205.492C145.305 205.336 144.234 205.258 143.164 205.258ZM152.07 211V198.695H153.535L153.898 200.242C155.078 199.211 156.363 198.695 157.754 198.695C159.535 198.695 160.75 199.258 161.398 200.383C162.734 199.258 164.09 198.695 165.465 198.695C168.293 198.695 169.707 200.254 169.707 203.371V211H167.539V203.254C167.539 201.418 166.766 200.5 165.219 200.5C164.062 200.5 162.98 201.031 161.973 202.094V211H159.805V203.289C159.805 201.43 159.039 200.5 157.508 200.5C156.289 200.5 155.199 201.031 154.238 202.094V211H152.07ZM175.402 208.492C176.254 208.914 177.203 209.125 178.25 209.125C180.805 209.125 182.082 207.59 182.082 204.52C182.082 201.84 180.812 200.5 178.273 200.5C177.18 200.5 176.223 200.594 175.402 200.781V208.492ZM173.234 199.199C174.867 198.863 176.555 198.695 178.297 198.695C182.242 198.695 184.215 200.645 184.215 204.543C184.215 208.848 182.23 211 178.262 211C177.277 211 176.324 210.805 175.402 210.414V215.453H173.234V199.199ZM189.441 194.242V211H187.273V194.242H189.441ZM195.488 198.695V211H193.32V198.695H195.488ZM195.488 194.242V196.293H193.32V194.242H195.488ZM198.664 207.285C198.664 204.762 200.328 203.5 203.656 203.5C204.727 203.5 205.797 203.578 206.867 203.734V202.574C206.867 201.16 205.762 200.453 203.551 200.453C202.285 200.453 200.988 200.648 199.66 201.039V199.281C200.988 198.891 202.285 198.695 203.551 198.695C207.207 198.695 209.035 199.969 209.035 202.516V211H207.816L207.066 209.781C205.84 210.594 204.504 211 203.059 211C200.129 211 198.664 209.762 198.664 207.285ZM203.656 205.258C201.773 205.258 200.832 205.922 200.832 207.25C200.832 208.578 201.574 209.242 203.059 209.242C204.559 209.242 205.828 208.844 206.867 208.047V205.492C205.797 205.336 204.727 205.258 203.656 205.258ZM222.895 210.414V208.539C224.34 209.008 225.801 209.242 227.277 209.242C229.238 209.242 230.219 208.656 230.219 207.484C230.219 206.391 229.535 205.844 228.168 205.844H226.41C223.754 205.844 222.426 204.633 222.426 202.211C222.426 199.867 224.133 198.695 227.547 198.695C229.016 198.695 230.473 198.891 231.918 199.281V201.156C230.473 200.688 229.016 200.453 227.547 200.453C225.5 200.453 224.477 201.039 224.477 202.211C224.477 203.305 225.121 203.852 226.41 203.852H228.168C230.98 203.852 232.387 205.062 232.387 207.484C232.387 209.828 230.684 211 227.277 211C225.801 211 224.34 210.805 222.895 210.414ZM240.391 198.695C243.891 198.695 245.641 200.426 245.641 203.887C245.641 204.379 245.605 204.906 245.535 205.469H236.898C236.898 207.984 238.367 209.242 241.305 209.242C242.703 209.242 243.945 209.086 245.031 208.773V210.531C243.945 210.844 242.625 211 241.07 211C236.844 211 234.73 208.902 234.73 204.707C234.73 200.699 236.617 198.695 240.391 198.695ZM236.898 203.664H243.555C243.508 201.508 242.453 200.43 240.391 200.43C238.203 200.43 237.039 201.508 236.898 203.664ZM250.844 194.242V211H248.676V194.242H250.844ZM259.562 198.695C263.062 198.695 264.812 200.426 264.812 203.887C264.812 204.379 264.777 204.906 264.707 205.469H256.07C256.07 207.984 257.539 209.242 260.477 209.242C261.875 209.242 263.117 209.086 264.203 208.773V210.531C263.117 210.844 261.797 211 260.242 211C256.016 211 253.902 208.902 253.902 204.707C253.902 200.699 255.789 198.695 259.562 198.695ZM256.07 203.664H262.727C262.68 201.508 261.625 200.43 259.562 200.43C257.375 200.43 256.211 201.508 256.07 203.664ZM276.988 210.648C275.973 210.883 274.879 211 273.707 211C269.332 211 267.145 208.871 267.145 204.613C267.145 200.668 269.332 198.695 273.707 198.695C274.879 198.695 275.973 198.812 276.988 199.047V200.805C275.973 200.57 274.84 200.453 273.59 200.453C270.738 200.453 269.312 201.84 269.312 204.613C269.312 207.699 270.738 209.242 273.59 209.242C274.84 209.242 275.973 209.125 276.988 208.891V210.648ZM289.012 210.648C287.996 210.883 286.902 211 285.73 211C281.355 211 279.168 208.871 279.168 204.613C279.168 200.668 281.355 198.695 285.73 198.695C286.902 198.695 287.996 198.812 289.012 199.047V200.805C287.996 200.57 286.863 200.453 285.613 200.453C282.762 200.453 281.336 201.84 281.336 204.613C281.336 207.699 282.762 209.242 285.613 209.242C286.863 209.242 287.996 209.125 289.012 208.891V210.648ZM294.18 198.695V211H292.012V198.695H294.18ZM294.18 194.242V196.293H292.012V194.242H294.18ZM299.523 204.801C299.523 207.762 300.754 209.242 303.215 209.242C305.676 209.242 306.906 207.762 306.906 204.801C306.906 201.902 305.676 200.453 303.215 200.453C300.754 200.453 299.523 201.902 299.523 204.801ZM297.355 204.848C297.355 200.746 299.309 198.695 303.215 198.695C307.121 198.695 309.074 200.746 309.074 204.848C309.074 208.941 307.121 210.988 303.215 210.988C299.324 210.988 297.371 208.941 297.355 204.848ZM303.566 194.242H306.367L303.566 197.043H301.645L303.566 194.242ZM312.004 211V198.695H313.469L313.855 200.266C315.113 199.219 316.496 198.695 318.004 198.695C321.074 198.695 322.609 200.223 322.609 203.277V211H320.441V203.242C320.441 201.414 319.531 200.5 317.711 200.5C316.469 200.5 315.289 201.02 314.172 202.059V211H312.004ZM344.848 201.203C343.973 200.781 342.973 200.57 341.848 200.57C339.371 200.57 338.133 201.887 338.133 204.52C338.133 207.637 339.371 209.195 341.848 209.195C342.973 209.195 343.973 209.043 344.848 208.738V201.203ZM347.016 210.262C345.523 210.754 343.684 211 341.496 211C337.832 211 336 208.867 336 204.602C336 200.664 337.945 198.695 341.836 198.695C342.898 198.695 343.902 198.891 344.848 199.281V194.242H347.016V210.262ZM355.605 198.695C359.105 198.695 360.855 200.426 360.855 203.887C360.855 204.379 360.82 204.906 360.75 205.469H352.113C352.113 207.984 353.582 209.242 356.52 209.242C357.918 209.242 359.16 209.086 360.246 208.773V210.531C359.16 210.844 357.84 211 356.285 211C352.059 211 349.945 208.902 349.945 204.707C349.945 200.699 351.832 198.695 355.605 198.695ZM352.113 203.664H358.77C358.723 201.508 357.668 200.43 355.605 200.43C353.418 200.43 352.254 201.508 352.113 203.664ZM383.48 210.648C382.465 210.883 381.371 211 380.199 211C375.824 211 373.637 208.871 373.637 204.613C373.637 200.668 375.824 198.695 380.199 198.695C381.371 198.695 382.465 198.812 383.48 199.047V200.805C382.465 200.57 381.332 200.453 380.082 200.453C377.23 200.453 375.805 201.84 375.805 204.613C375.805 207.699 377.23 209.242 380.082 209.242C381.332 209.242 382.465 209.125 383.48 208.891V210.648ZM385.66 207.285C385.66 204.762 387.324 203.5 390.652 203.5C391.723 203.5 392.793 203.578 393.863 203.734V202.574C393.863 201.16 392.758 200.453 390.547 200.453C389.281 200.453 387.984 200.648 386.656 201.039V199.281C387.984 198.891 389.281 198.695 390.547 198.695C394.203 198.695 396.031 199.969 396.031 202.516V211H394.812L394.062 209.781C392.836 210.594 391.5 211 390.055 211C387.125 211 385.66 209.762 385.66 207.285ZM390.652 205.258C388.77 205.258 387.828 205.922 387.828 207.25C387.828 208.578 388.57 209.242 390.055 209.242C391.555 209.242 392.824 208.844 393.863 208.047V205.492C392.793 205.336 391.723 205.258 390.652 205.258ZM399.441 210.414V208.539C400.887 209.008 402.348 209.242 403.824 209.242C405.785 209.242 406.766 208.656 406.766 207.484C406.766 206.391 406.082 205.844 404.715 205.844H402.957C400.301 205.844 398.973 204.633 398.973 202.211C398.973 199.867 400.68 198.695 404.094 198.695C405.562 198.695 407.02 198.891 408.465 199.281V201.156C407.02 200.688 405.562 200.453 404.094 200.453C402.047 200.453 401.023 201.039 401.023 202.211C401.023 203.305 401.668 203.852 402.957 203.852H404.715C407.527 203.852 408.934 205.062 408.934 207.484C408.934 209.828 407.23 211 403.824 211C402.348 211 400.887 210.805 399.441 210.414ZM411.277 207.285C411.277 204.762 412.941 203.5 416.27 203.5C417.34 203.5 418.41 203.578 419.48 203.734V202.574C419.48 201.16 418.375 200.453 416.164 200.453C414.898 200.453 413.602 200.648 412.273 201.039V199.281C413.602 198.891 414.898 198.695 416.164 198.695C419.82 198.695 421.648 199.969 421.648 202.516V211H420.43L419.68 209.781C418.453 210.594 417.117 211 415.672 211C412.742 211 411.277 209.762 411.277 207.285ZM416.27 205.258C414.387 205.258 413.445 205.922 413.445 207.25C413.445 208.578 414.188 209.242 415.672 209.242C417.172 209.242 418.441 208.844 419.48 208.047V205.492C418.41 205.336 417.34 205.258 416.27 205.258ZM425.059 210.414V208.539C426.504 209.008 427.965 209.242 429.441 209.242C431.402 209.242 432.383 208.656 432.383 207.484C432.383 206.391 431.699 205.844 430.332 205.844H428.574C425.918 205.844 424.59 204.633 424.59 202.211C424.59 199.867 426.297 198.695 429.711 198.695C431.18 198.695 432.637 198.891 434.082 199.281V201.156C432.637 200.688 431.18 200.453 429.711 200.453C427.664 200.453 426.641 201.039 426.641 202.211C426.641 203.305 427.285 203.852 428.574 203.852H430.332C433.145 203.852 434.551 205.062 434.551 207.484C434.551 209.828 432.848 211 429.441 211C427.965 211 426.504 210.805 425.059 210.414ZM446.465 198.695H448.82L452.301 208.305L455.898 198.695H458.195L453.086 211.363C452.18 213.598 450.82 214.992 449.008 215.547L448.176 214.012C449.551 213.41 450.551 212.43 451.176 211.07L446.465 198.695ZM470.098 207.285C470.098 204.762 471.762 203.5 475.09 203.5C476.16 203.5 477.23 203.578 478.301 203.734V202.574C478.301 201.16 477.195 200.453 474.984 200.453C473.719 200.453 472.422 200.648 471.094 201.039V199.281C472.422 198.891 473.719 198.695 474.984 198.695C478.641 198.695 480.469 199.969 480.469 202.516V211H479.25L478.5 209.781C477.273 210.594 475.938 211 474.492 211C471.562 211 470.098 209.762 470.098 207.285ZM475.09 205.258C473.207 205.258 472.266 205.922 472.266 207.25C472.266 208.578 473.008 209.242 474.492 209.242C475.992 209.242 477.262 208.844 478.301 208.047V205.492C477.23 205.336 476.16 205.258 475.09 205.258ZM486.164 208.492C487.016 208.914 487.965 209.125 489.012 209.125C491.566 209.125 492.844 207.59 492.844 204.52C492.844 201.84 491.574 200.5 489.035 200.5C487.941 200.5 486.984 200.594 486.164 200.781V208.492ZM483.996 199.199C485.629 198.863 487.316 198.695 489.059 198.695C493.004 198.695 494.977 200.645 494.977 204.543C494.977 208.848 492.992 211 489.023 211C488.039 211 487.086 210.805 486.164 210.414V215.453H483.996V199.199ZM497.332 207.285C497.332 204.762 498.996 203.5 502.324 203.5C503.395 203.5 504.465 203.578 505.535 203.734V202.574C505.535 201.16 504.43 200.453 502.219 200.453C500.953 200.453 499.656 200.648 498.328 201.039V199.281C499.656 198.891 500.953 198.695 502.219 198.695C505.875 198.695 507.703 199.969 507.703 202.516V211H506.484L505.734 209.781C504.508 210.594 503.172 211 501.727 211C498.797 211 497.332 209.762 497.332 207.285ZM502.324 205.258C500.441 205.258 499.5 205.922 499.5 207.25C499.5 208.578 500.242 209.242 501.727 209.242C503.227 209.242 504.496 208.844 505.535 208.047V205.492C504.465 205.336 503.395 205.258 502.324 205.258ZM511.23 211V198.695H512.695L513.082 200.266C514.16 199.219 515.457 198.695 516.973 198.695V200.5C515.504 200.5 514.312 201.02 513.398 202.059V211H511.23ZM519.152 196.703H520.512L520.98 198.695H524.309V200.453H521.32V207.52C521.32 208.668 521.816 209.242 522.809 209.242H524.309V211H522.246C520.184 211 519.152 209.895 519.152 207.684V196.703ZM526.488 207.285C526.488 204.762 528.152 203.5 531.48 203.5C532.551 203.5 533.621 203.578 534.691 203.734V202.574C534.691 201.16 533.586 200.453 531.375 200.453C530.109 200.453 528.812 200.648 527.484 201.039V199.281C528.812 198.891 530.109 198.695 531.375 198.695C535.031 198.695 536.859 199.969 536.859 202.516V211H535.641L534.891 209.781C533.664 210.594 532.328 211 530.883 211C527.953 211 526.488 209.762 526.488 207.285ZM531.48 205.258C529.598 205.258 528.656 205.922 528.656 207.25C528.656 208.578 529.398 209.242 530.883 209.242C532.383 209.242 533.652 208.844 534.691 208.047V205.492C533.621 205.336 532.551 205.258 531.48 205.258ZM540.387 211V198.695H541.852L542.215 200.242C543.395 199.211 544.68 198.695 546.07 198.695C547.852 198.695 549.066 199.258 549.715 200.383C551.051 199.258 552.406 198.695 553.781 198.695C556.609 198.695 558.023 200.254 558.023 203.371V211H555.855V203.254C555.855 201.418 555.082 200.5 553.535 200.5C552.379 200.5 551.297 201.031 550.289 202.094V211H548.121V203.289C548.121 201.43 547.355 200.5 545.824 200.5C544.605 200.5 543.516 201.031 542.555 202.094V211H540.387ZM566.625 198.695C570.125 198.695 571.875 200.426 571.875 203.887C571.875 204.379 571.84 204.906 571.77 205.469H563.133C563.133 207.984 564.602 209.242 567.539 209.242C568.938 209.242 570.18 209.086 571.266 208.773V210.531C570.18 210.844 568.859 211 567.305 211C563.078 211 560.965 208.902 560.965 204.707C560.965 200.699 562.852 198.695 566.625 198.695ZM563.133 203.664H569.789C569.742 201.508 568.688 200.43 566.625 200.43C564.438 200.43 563.273 201.508 563.133 203.664ZM574.793 211V198.695H576.258L576.645 200.266C577.902 199.219 579.285 198.695 580.793 198.695C583.863 198.695 585.398 200.223 585.398 203.277V211H583.23V203.242C583.23 201.414 582.32 200.5 580.5 200.5C579.258 200.5 578.078 201.02 576.961 202.059V211H574.793ZM588.926 196.703H590.285L590.754 198.695H594.082V200.453H591.094V207.52C591.094 208.668 591.59 209.242 592.582 209.242H594.082V211H592.02C589.957 211 588.926 209.895 588.926 207.684V196.703ZM598.43 204.801C598.43 207.762 599.66 209.242 602.121 209.242C604.582 209.242 605.812 207.762 605.812 204.801C605.812 201.902 604.582 200.453 602.121 200.453C599.66 200.453 598.43 201.902 598.43 204.801ZM596.262 204.848C596.262 200.746 598.215 198.695 602.121 198.695C606.027 198.695 607.98 200.746 607.98 204.848C607.98 208.941 606.027 210.988 602.121 210.988C598.23 210.988 596.277 208.941 596.262 204.848ZM610.793 210.414V208.539C612.238 209.008 613.699 209.242 615.176 209.242C617.137 209.242 618.117 208.656 618.117 207.484C618.117 206.391 617.434 205.844 616.066 205.844H614.309C611.652 205.844 610.324 204.633 610.324 202.211C610.324 199.867 612.031 198.695 615.445 198.695C616.914 198.695 618.371 198.891 619.816 199.281V201.156C618.371 200.688 616.914 200.453 615.445 200.453C613.398 200.453 612.375 201.039 612.375 202.211C612.375 203.305 613.02 203.852 614.309 203.852H616.066C618.879 203.852 620.285 205.062 620.285 207.484C620.285 209.828 618.582 211 615.176 211C613.699 211 612.238 210.805 610.793 210.414ZM641.926 201.203C641.051 200.781 640.051 200.57 638.926 200.57C636.449 200.57 635.211 201.887 635.211 204.52C635.211 207.637 636.449 209.195 638.926 209.195C640.051 209.195 641.051 209.043 641.926 208.738V201.203ZM644.094 210.262C642.602 210.754 640.762 211 638.574 211C634.91 211 633.078 208.867 633.078 204.602C633.078 200.664 635.023 198.695 638.914 198.695C639.977 198.695 640.98 198.891 641.926 199.281V194.242H644.094V210.262ZM650.012 198.695V211H647.844V198.695H650.012ZM650.012 194.242V196.293H647.844V194.242H650.012ZM653.656 210.414V208.539C655.102 209.008 656.562 209.242 658.039 209.242C660 209.242 660.98 208.656 660.98 207.484C660.98 206.391 660.297 205.844 658.93 205.844H657.172C654.516 205.844 653.188 204.633 653.188 202.211C653.188 199.867 654.895 198.695 658.309 198.695C659.777 198.695 661.234 198.891 662.68 199.281V201.156C661.234 200.688 659.777 200.453 658.309 200.453C656.262 200.453 655.238 201.039 655.238 202.211C655.238 203.305 655.883 203.852 657.172 203.852H658.93C661.742 203.852 663.148 205.062 663.148 207.484C663.148 209.828 661.445 211 658.039 211C656.562 211 655.102 210.805 653.656 210.414ZM668.246 208.492C669.098 208.914 670.047 209.125 671.094 209.125C673.648 209.125 674.926 207.59 674.926 204.52C674.926 201.84 673.656 200.5 671.117 200.5C670.023 200.5 669.066 200.594 668.246 200.781V208.492ZM666.078 199.199C667.711 198.863 669.398 198.695 671.141 198.695C675.086 198.695 677.059 200.645 677.059 204.543C677.059 208.848 675.074 211 671.105 211C670.121 211 669.168 210.805 668.246 210.414V215.453H666.078V199.199ZM681.582 204.801C681.582 207.762 682.812 209.242 685.273 209.242C687.734 209.242 688.965 207.762 688.965 204.801C688.965 201.902 687.734 200.453 685.273 200.453C682.812 200.453 681.582 201.902 681.582 204.801ZM679.414 204.848C679.414 200.746 681.367 198.695 685.273 198.695C689.18 198.695 691.133 200.746 691.133 204.848C691.133 208.941 689.18 210.988 685.273 210.988C681.383 210.988 679.43 208.941 679.414 204.848ZM694.062 211V198.695H695.527L695.914 200.266C697.172 199.219 698.555 198.695 700.062 198.695C703.133 198.695 704.668 200.223 704.668 203.277V211H702.5V203.242C702.5 201.414 701.59 200.5 699.77 200.5C698.527 200.5 697.348 201.02 696.23 202.059V211H694.062ZM710.598 198.695V211H708.43V198.695H710.598ZM710.598 194.242V196.293H708.43V194.242H710.598ZM716.527 208.855C717.238 209.082 718.102 209.195 719.117 209.195C721.852 209.195 723.219 207.637 723.219 204.52C723.219 201.887 721.98 200.57 719.504 200.57C718.379 200.57 717.387 200.781 716.527 201.203V208.855ZM714.359 194.242H716.527V199.281C717.457 198.891 718.453 198.695 719.516 198.695C723.406 198.695 725.352 200.664 725.352 204.602C725.352 208.867 723.309 211 719.223 211C717.457 211 715.836 210.832 714.359 210.496V194.242ZM730.566 194.242V211H728.398V194.242H730.566ZM739.285 198.695C742.785 198.695 744.535 200.426 744.535 203.887C744.535 204.379 744.5 204.906 744.43 205.469H735.793C735.793 207.984 737.262 209.242 740.199 209.242C741.598 209.242 742.84 209.086 743.926 208.773V210.531C742.84 210.844 741.52 211 739.965 211C735.738 211 733.625 208.902 733.625 204.707C733.625 200.699 735.512 198.695 739.285 198.695ZM735.793 203.664H742.449C742.402 201.508 741.348 200.43 739.285 200.43C737.098 200.43 735.934 201.508 735.793 203.664ZM747.336 210.414V208.539C748.781 209.008 750.242 209.242 751.719 209.242C753.68 209.242 754.66 208.656 754.66 207.484C754.66 206.391 753.977 205.844 752.609 205.844H750.852C748.195 205.844 746.867 204.633 746.867 202.211C746.867 199.867 748.574 198.695 751.988 198.695C753.457 198.695 754.914 198.891 756.359 199.281V201.156C754.914 200.688 753.457 200.453 751.988 200.453C749.941 200.453 748.918 201.039 748.918 202.211C748.918 203.305 749.562 203.852 750.852 203.852H752.609C755.422 203.852 756.828 205.062 756.828 207.484C756.828 209.828 755.125 211 751.719 211C750.242 211 748.781 210.805 747.336 210.414ZM140.926 235.492C141.777 235.914 142.727 236.125 143.773 236.125C146.328 236.125 147.605 234.59 147.605 231.52C147.605 228.84 146.336 227.5 143.797 227.5C142.703 227.5 141.746 227.594 140.926 227.781V235.492ZM138.758 226.199C140.391 225.863 142.078 225.695 143.82 225.695C147.766 225.695 149.738 227.645 149.738 231.543C149.738 235.848 147.754 238 143.785 238C142.801 238 141.848 237.805 140.926 237.414V242.453H138.758V226.199ZM152.094 234.285C152.094 231.762 153.758 230.5 157.086 230.5C158.156 230.5 159.227 230.578 160.297 230.734V229.574C160.297 228.16 159.191 227.453 156.98 227.453C155.715 227.453 154.418 227.648 153.09 228.039V226.281C154.418 225.891 155.715 225.695 156.98 225.695C160.637 225.695 162.465 226.969 162.465 229.516V238H161.246L160.496 236.781C159.27 237.594 157.934 238 156.488 238C153.559 238 152.094 236.762 152.094 234.285ZM157.086 232.258C155.203 232.258 154.262 232.922 154.262 234.25C154.262 235.578 155.004 236.242 156.488 236.242C157.988 236.242 159.258 235.844 160.297 235.047V232.492C159.227 232.336 158.156 232.258 157.086 232.258ZM165.992 238V225.695H167.457L167.844 227.266C168.922 226.219 170.219 225.695 171.734 225.695V227.5C170.266 227.5 169.074 228.02 168.16 229.059V238H165.992ZM173.328 234.285C173.328 231.762 174.992 230.5 178.32 230.5C179.391 230.5 180.461 230.578 181.531 230.734V229.574C181.531 228.16 180.426 227.453 178.215 227.453C176.949 227.453 175.652 227.648 174.324 228.039V226.281C175.652 225.891 176.949 225.695 178.215 225.695C181.871 225.695 183.699 226.969 183.699 229.516V238H182.48L181.73 236.781C180.504 237.594 179.168 238 177.723 238C174.793 238 173.328 236.762 173.328 234.285ZM178.32 232.258C176.438 232.258 175.496 232.922 175.496 234.25C175.496 235.578 176.238 236.242 177.723 236.242C179.223 236.242 180.492 235.844 181.531 235.047V232.492C180.461 232.336 179.391 232.258 178.32 232.258ZM205.316 234.285C205.316 231.762 206.98 230.5 210.309 230.5C211.379 230.5 212.449 230.578 213.52 230.734V229.574C213.52 228.16 212.414 227.453 210.203 227.453C208.938 227.453 207.641 227.648 206.312 228.039V226.281C207.641 225.891 208.938 225.695 210.203 225.695C213.859 225.695 215.688 226.969 215.688 229.516V238H214.469L213.719 236.781C212.492 237.594 211.156 238 209.711 238C206.781 238 205.316 236.762 205.316 234.285ZM210.309 232.258C208.426 232.258 207.484 232.922 207.484 234.25C207.484 235.578 208.227 236.242 209.711 236.242C211.211 236.242 212.48 235.844 213.52 235.047V232.492C212.449 232.336 211.379 232.258 210.309 232.258ZM221.5 221.242V238H219.332V221.242H221.5ZM233.371 227.781C232.629 227.594 231.711 227.5 230.617 227.5C228 227.5 226.691 228.918 226.691 231.754C226.691 234.668 227.93 236.125 230.406 236.125C231.531 236.125 232.52 235.914 233.371 235.492V227.781ZM235.539 242.453H233.371V237.414C232.449 237.805 231.457 238 230.395 238C226.504 238 224.559 235.926 224.559 231.777C224.559 227.723 226.609 225.695 230.711 225.695C232.375 225.695 233.984 225.863 235.539 226.199V242.453ZM249.672 225.695V238H248.184L247.809 236.43C246.316 237.477 244.816 238 243.309 238C240.48 238 239.066 236.473 239.066 233.418V225.695H241.234V233.453C241.234 235.281 242.141 236.195 243.953 236.195C245.195 236.195 246.379 235.676 247.504 234.637V225.695H249.672ZM255.602 225.695V238H253.434V225.695H255.602ZM255.602 221.242V223.293H253.434V221.242H255.602ZM261.648 221.242V238H259.48V221.242H261.648ZM264.707 234.285C264.707 231.762 266.371 230.5 269.699 230.5C270.77 230.5 271.84 230.578 272.91 230.734V229.574C272.91 228.16 271.805 227.453 269.594 227.453C268.328 227.453 267.031 227.648 265.703 228.039V226.281C267.031 225.891 268.328 225.695 269.594 225.695C273.25 225.695 275.078 226.969 275.078 229.516V238H273.859L273.109 236.781C271.883 237.594 270.547 238 269.102 238C266.172 238 264.707 236.762 264.707 234.285ZM269.699 232.258C267.816 232.258 266.875 232.922 266.875 234.25C266.875 235.578 267.617 236.242 269.102 236.242C270.602 236.242 271.871 235.844 272.91 235.047V232.492C271.84 232.336 270.77 232.258 269.699 232.258ZM278.605 238V225.695H280.07L280.457 227.266C281.535 226.219 282.832 225.695 284.348 225.695V227.5C282.879 227.5 281.688 228.02 280.773 229.059V238H278.605ZM288.109 235.832V238H285.941V235.832H288.109ZM309.727 237.414V235.422C311.484 236.047 313.383 236.359 315.422 236.359C318.305 236.359 319.746 235.305 319.746 233.195C319.746 231.398 318.684 230.5 316.559 230.5H314.402C310.895 230.5 309.141 228.977 309.141 225.93C309.141 222.727 311.387 221.125 315.879 221.125C317.832 221.125 319.648 221.359 321.328 221.828V223.82C319.648 223.195 317.832 222.883 315.879 222.883C312.832 222.883 311.309 223.898 311.309 225.93C311.309 227.727 312.34 228.625 314.402 228.625H316.559C320.129 228.625 321.914 230.148 321.914 233.195C321.914 236.477 319.75 238.117 315.422 238.117C313.383 238.117 311.484 237.883 309.727 237.414ZM327.246 225.695V238H325.078V225.695H327.246ZM327.246 221.242V223.293H325.078V221.242H327.246ZM331.008 238V225.695H332.473L332.836 227.242C334.016 226.211 335.301 225.695 336.691 225.695C338.473 225.695 339.688 226.258 340.336 227.383C341.672 226.258 343.027 225.695 344.402 225.695C347.23 225.695 348.645 227.254 348.645 230.371V238H346.477V230.254C346.477 228.418 345.703 227.5 344.156 227.5C343 227.5 341.918 228.031 340.91 229.094V238H338.742V230.289C338.742 228.43 337.977 227.5 336.445 227.5C335.227 227.5 334.137 228.031 333.176 229.094V238H331.008ZM354.34 235.492C355.191 235.914 356.141 236.125 357.188 236.125C359.742 236.125 361.02 234.59 361.02 231.52C361.02 228.84 359.75 227.5 357.211 227.5C356.117 227.5 355.16 227.594 354.34 227.781V235.492ZM352.172 226.199C353.805 225.863 355.492 225.695 357.234 225.695C361.18 225.695 363.152 227.645 363.152 231.543C363.152 235.848 361.168 238 357.199 238C356.215 238 355.262 237.805 354.34 237.414V242.453H352.172V226.199ZM368.379 221.242V238H366.211V221.242H368.379ZM374.426 225.695V238H372.258V225.695H374.426ZM374.426 221.242V223.293H372.258V221.242H374.426ZM380.355 227.453V238H378.188V225.098C378.188 221.965 379.914 220.398 383.367 220.398C384.453 220.398 385.602 220.633 386.812 221.102V222.859C385.648 222.391 384.496 222.156 383.355 222.156C381.355 222.156 380.355 223.066 380.355 224.887V225.695H387.691V238H385.523V227.453H380.355ZM400.711 237.648C399.695 237.883 398.602 238 397.43 238C393.055 238 390.867 235.871 390.867 231.613C390.867 227.668 393.055 225.695 397.43 225.695C398.602 225.695 399.695 225.812 400.711 226.047V227.805C399.695 227.57 398.562 227.453 397.312 227.453C394.461 227.453 393.035 228.84 393.035 231.613C393.035 234.699 394.461 236.242 397.312 236.242C398.562 236.242 399.695 236.125 400.711 235.891V237.648ZM402.891 234.285C402.891 231.762 404.555 230.5 407.883 230.5C408.953 230.5 410.023 230.578 411.094 230.734V229.574C411.094 228.16 409.988 227.453 407.777 227.453C406.512 227.453 405.215 227.648 403.887 228.039V226.281C405.215 225.891 406.512 225.695 407.777 225.695C411.434 225.695 413.262 226.969 413.262 229.516V238H412.043L411.293 236.781C410.066 237.594 408.73 238 407.285 238C404.355 238 402.891 236.762 402.891 234.285ZM407.883 232.258C406 232.258 405.059 232.922 405.059 234.25C405.059 235.578 405.801 236.242 407.285 236.242C408.785 236.242 410.055 235.844 411.094 235.047V232.492C410.023 232.336 408.953 232.258 407.883 232.258ZM416.789 238V225.695H418.254L418.617 227.242C419.797 226.211 421.082 225.695 422.473 225.695C424.254 225.695 425.469 226.258 426.117 227.383C427.453 226.258 428.809 225.695 430.184 225.695C433.012 225.695 434.426 227.254 434.426 230.371V238H432.258V230.254C432.258 228.418 431.484 227.5 429.938 227.5C428.781 227.5 427.699 228.031 426.691 229.094V238H424.523V230.289C424.523 228.43 423.758 227.5 422.227 227.5C421.008 227.5 419.918 228.031 418.957 229.094V238H416.789ZM439.535 231.801C439.535 234.762 440.766 236.242 443.227 236.242C445.688 236.242 446.918 234.762 446.918 231.801C446.918 228.902 445.688 227.453 443.227 227.453C440.766 227.453 439.535 228.902 439.535 231.801ZM437.367 231.848C437.367 227.746 439.32 225.695 443.227 225.695C447.133 225.695 449.086 227.746 449.086 231.848C449.086 235.941 447.133 237.988 443.227 237.988C439.336 237.988 437.383 235.941 437.367 231.848ZM451.898 237.414V235.539C453.344 236.008 454.805 236.242 456.281 236.242C458.242 236.242 459.223 235.656 459.223 234.484C459.223 233.391 458.539 232.844 457.172 232.844H455.414C452.758 232.844 451.43 231.633 451.43 229.211C451.43 226.867 453.137 225.695 456.551 225.695C458.02 225.695 459.477 225.891 460.922 226.281V228.156C459.477 227.688 458.02 227.453 456.551 227.453C454.504 227.453 453.48 228.039 453.48 229.211C453.48 230.305 454.125 230.852 455.414 230.852H457.172C459.984 230.852 461.391 232.062 461.391 234.484C461.391 236.828 459.688 238 456.281 238C454.805 238 453.344 237.805 451.898 237.414ZM482.996 223.703H484.355L484.824 225.695H488.152V227.453H485.164V234.52C485.164 235.668 485.66 236.242 486.652 236.242H488.152V238H486.09C484.027 238 482.996 236.895 482.996 234.684V223.703ZM501.523 225.695V238H500.035L499.66 236.43C498.168 237.477 496.668 238 495.16 238C492.332 238 490.918 236.473 490.918 233.418V225.695H493.086V233.453C493.086 235.281 493.992 236.195 495.805 236.195C497.047 236.195 498.23 235.676 499.355 234.637V225.695H501.523ZM525.895 235.855C526.605 236.082 527.469 236.195 528.484 236.195C531.219 236.195 532.586 234.637 532.586 231.52C532.586 228.887 531.348 227.57 528.871 227.57C527.746 227.57 526.754 227.781 525.895 228.203V235.855ZM523.727 221.242H525.895V226.281C526.824 225.891 527.82 225.695 528.883 225.695C532.773 225.695 534.719 227.664 534.719 231.602C534.719 235.867 532.676 238 528.59 238C526.824 238 525.203 237.832 523.727 237.496V221.242ZM548.254 225.695V238H546.766L546.391 236.43C544.898 237.477 543.398 238 541.891 238C539.062 238 537.648 236.473 537.648 233.418V225.695H539.816V233.453C539.816 235.281 540.723 236.195 542.535 236.195C543.777 236.195 544.961 235.676 546.086 234.637V225.695H548.254ZM543.297 221.242H546.098L543.297 224.043H541.375L543.297 221.242ZM551.664 237.414V235.539C553.109 236.008 554.57 236.242 556.047 236.242C558.008 236.242 558.988 235.656 558.988 234.484C558.988 233.391 558.305 232.844 556.938 232.844H555.18C552.523 232.844 551.195 231.633 551.195 229.211C551.195 226.867 552.902 225.695 556.316 225.695C557.785 225.695 559.242 225.891 560.688 226.281V228.156C559.242 227.688 557.785 227.453 556.316 227.453C554.27 227.453 553.246 228.039 553.246 229.211C553.246 230.305 553.891 230.852 555.18 230.852H556.938C559.75 230.852 561.156 232.062 561.156 234.484C561.156 236.828 559.453 238 556.047 238C554.57 238 553.109 237.805 551.664 237.414ZM572.312 227.781C571.57 227.594 570.652 227.5 569.559 227.5C566.941 227.5 565.633 228.918 565.633 231.754C565.633 234.668 566.871 236.125 569.348 236.125C570.473 236.125 571.461 235.914 572.312 235.492V227.781ZM574.48 242.453H572.312V237.414C571.391 237.805 570.398 238 569.336 238C565.445 238 563.5 235.926 563.5 231.777C563.5 227.723 565.551 225.695 569.652 225.695C571.316 225.695 572.926 225.863 574.48 226.199V242.453ZM588.613 225.695V238H587.125L586.75 236.43C585.258 237.477 583.758 238 582.25 238C579.422 238 578.008 236.473 578.008 233.418V225.695H580.176V233.453C580.176 235.281 581.082 236.195 582.895 236.195C584.137 236.195 585.32 235.676 586.445 234.637V225.695H588.613ZM597.215 225.695C600.715 225.695 602.465 227.426 602.465 230.887C602.465 231.379 602.43 231.906 602.359 232.469H593.723C593.723 234.984 595.191 236.242 598.129 236.242C599.527 236.242 600.77 236.086 601.855 235.773V237.531C600.77 237.844 599.449 238 597.895 238C593.668 238 591.555 235.902 591.555 231.707C591.555 227.699 593.441 225.695 597.215 225.695ZM593.723 230.664H600.379C600.332 228.508 599.277 227.43 597.215 227.43C595.027 227.43 593.863 228.508 593.723 230.664ZM613.645 228.203C612.77 227.781 611.77 227.57 610.645 227.57C608.168 227.57 606.93 228.887 606.93 231.52C606.93 234.637 608.168 236.195 610.645 236.195C611.77 236.195 612.77 236.043 613.645 235.738V228.203ZM615.812 237.262C614.32 237.754 612.48 238 610.293 238C606.629 238 604.797 235.867 604.797 231.602C604.797 227.664 606.742 225.695 610.633 225.695C611.695 225.695 612.699 225.891 613.645 226.281V221.242H615.812V237.262ZM618.742 234.285C618.742 231.762 620.406 230.5 623.734 230.5C624.805 230.5 625.875 230.578 626.945 230.734V229.574C626.945 228.16 625.84 227.453 623.629 227.453C622.363 227.453 621.066 227.648 619.738 228.039V226.281C621.066 225.891 622.363 225.695 623.629 225.695C627.285 225.695 629.113 226.969 629.113 229.516V238H627.895L627.145 236.781C625.918 237.594 624.582 238 623.137 238C620.207 238 618.742 236.762 618.742 234.285ZM623.734 232.258C621.852 232.258 620.91 232.922 620.91 234.25C620.91 235.578 621.652 236.242 623.137 236.242C624.637 236.242 625.906 235.844 626.945 235.047V232.492C625.875 232.336 624.805 232.258 623.734 232.258ZM653.484 235.492C654.336 235.914 655.285 236.125 656.332 236.125C658.887 236.125 660.164 234.59 660.164 231.52C660.164 228.84 658.895 227.5 656.355 227.5C655.262 227.5 654.305 227.594 653.484 227.781V235.492ZM651.316 226.199C652.949 225.863 654.637 225.695 656.379 225.695C660.324 225.695 662.297 227.645 662.297 231.543C662.297 235.848 660.312 238 656.344 238C655.359 238 654.406 237.805 653.484 237.414V242.453H651.316V226.199ZM664.652 234.285C664.652 231.762 666.316 230.5 669.645 230.5C670.715 230.5 671.785 230.578 672.855 230.734V229.574C672.855 228.16 671.75 227.453 669.539 227.453C668.273 227.453 666.977 227.648 665.648 228.039V226.281C666.977 225.891 668.273 225.695 669.539 225.695C673.195 225.695 675.023 226.969 675.023 229.516V238H673.805L673.055 236.781C671.828 237.594 670.492 238 669.047 238C666.117 238 664.652 236.762 664.652 234.285ZM669.645 232.258C667.762 232.258 666.82 232.922 666.82 234.25C666.82 235.578 667.562 236.242 669.047 236.242C670.547 236.242 671.816 235.844 672.855 235.047V232.492C671.785 232.336 670.715 232.258 669.645 232.258ZM678.551 238V225.695H680.016L680.402 227.266C681.48 226.219 682.777 225.695 684.293 225.695V227.5C682.824 227.5 681.633 228.02 680.719 229.059V238H678.551ZM685.887 234.285C685.887 231.762 687.551 230.5 690.879 230.5C691.949 230.5 693.02 230.578 694.09 230.734V229.574C694.09 228.16 692.984 227.453 690.773 227.453C689.508 227.453 688.211 227.648 686.883 228.039V226.281C688.211 225.891 689.508 225.695 690.773 225.695C694.43 225.695 696.258 226.969 696.258 229.516V238H695.039L694.289 236.781C693.062 237.594 691.727 238 690.281 238C687.352 238 685.887 236.762 685.887 234.285ZM690.879 232.258C688.996 232.258 688.055 232.922 688.055 234.25C688.055 235.578 688.797 236.242 690.281 236.242C691.781 236.242 693.051 235.844 694.09 235.047V232.492C693.02 232.336 691.949 232.258 690.879 232.258ZM726.688 227.781C725.945 227.594 725.027 227.5 723.934 227.5C721.316 227.5 720.008 228.918 720.008 231.754C720.008 234.668 721.246 236.125 723.723 236.125C724.848 236.125 725.836 235.914 726.688 235.492V227.781ZM728.855 242.453H726.688V237.414C725.766 237.805 724.773 238 723.711 238C719.82 238 717.875 235.926 717.875 231.777C717.875 227.723 719.926 225.695 724.027 225.695C725.691 225.695 727.301 225.863 728.855 226.199V242.453ZM742.988 225.695V238H741.5L741.125 236.43C739.633 237.477 738.133 238 736.625 238C733.797 238 732.383 236.473 732.383 233.418V225.695H734.551V233.453C734.551 235.281 735.457 236.195 737.27 236.195C738.512 236.195 739.695 235.676 740.82 234.637V225.695H742.988ZM751.59 225.695C755.09 225.695 756.84 227.426 756.84 230.887C756.84 231.379 756.805 231.906 756.734 232.469H748.098C748.098 234.984 749.566 236.242 752.504 236.242C753.902 236.242 755.145 236.086 756.23 235.773V237.531C755.145 237.844 753.824 238 752.27 238C748.043 238 745.93 235.902 745.93 231.707C745.93 227.699 747.816 225.695 751.59 225.695ZM748.098 230.664H754.754C754.707 228.508 753.652 227.43 751.59 227.43C749.402 227.43 748.238 228.508 748.098 230.664ZM140.926 262.492C141.777 262.914 142.727 263.125 143.773 263.125C146.328 263.125 147.605 261.59 147.605 258.52C147.605 255.84 146.336 254.5 143.797 254.5C142.703 254.5 141.746 254.594 140.926 254.781V262.492ZM138.758 253.199C140.391 252.863 142.078 252.695 143.82 252.695C147.766 252.695 149.738 254.645 149.738 258.543C149.738 262.848 147.754 265 143.785 265C142.801 265 141.848 264.805 140.926 264.414V269.453H138.758V253.199ZM163.285 252.695V265H161.797L161.422 263.43C159.93 264.477 158.43 265 156.922 265C154.094 265 152.68 263.473 152.68 260.418V252.695H154.848V260.453C154.848 262.281 155.754 263.195 157.566 263.195C158.809 263.195 159.992 262.676 161.117 261.637V252.695H163.285ZM171.887 252.695C175.387 252.695 177.137 254.426 177.137 257.887C177.137 258.379 177.102 258.906 177.031 259.469H168.395C168.395 261.984 169.863 263.242 172.801 263.242C174.199 263.242 175.441 263.086 176.527 262.773V264.531C175.441 264.844 174.121 265 172.566 265C168.34 265 166.227 262.902 166.227 258.707C166.227 254.699 168.113 252.695 171.887 252.695ZM168.395 257.664H175.051C175.004 255.508 173.949 254.43 171.887 254.43C169.699 254.43 168.535 255.508 168.395 257.664ZM188.316 255.203C187.441 254.781 186.441 254.57 185.316 254.57C182.84 254.57 181.602 255.887 181.602 258.52C181.602 261.637 182.84 263.195 185.316 263.195C186.441 263.195 187.441 263.043 188.316 262.738V255.203ZM190.484 264.262C188.992 264.754 187.152 265 184.965 265C181.301 265 179.469 262.867 179.469 258.602C179.469 254.664 181.414 252.695 185.305 252.695C186.367 252.695 187.371 252.891 188.316 253.281V248.242H190.484V264.262ZM193.414 261.285C193.414 258.762 195.078 257.5 198.406 257.5C199.477 257.5 200.547 257.578 201.617 257.734V256.574C201.617 255.16 200.512 254.453 198.301 254.453C197.035 254.453 195.738 254.648 194.41 255.039V253.281C195.738 252.891 197.035 252.695 198.301 252.695C201.957 252.695 203.785 253.969 203.785 256.516V265H202.566L201.816 263.781C200.59 264.594 199.254 265 197.809 265C194.879 265 193.414 263.762 193.414 261.285ZM198.406 259.258C196.523 259.258 195.582 259.922 195.582 261.25C195.582 262.578 196.324 263.242 197.809 263.242C199.309 263.242 200.578 262.844 201.617 262.047V259.492C200.547 259.336 199.477 259.258 198.406 259.258ZM207.195 264.414V262.539C208.641 263.008 210.102 263.242 211.578 263.242C213.539 263.242 214.52 262.656 214.52 261.484C214.52 260.391 213.836 259.844 212.469 259.844H210.711C208.055 259.844 206.727 258.633 206.727 256.211C206.727 253.867 208.434 252.695 211.848 252.695C213.316 252.695 214.773 252.891 216.219 253.281V255.156C214.773 254.688 213.316 254.453 211.848 254.453C209.801 254.453 208.777 255.039 208.777 256.211C208.777 257.305 209.422 257.852 210.711 257.852H212.469C215.281 257.852 216.688 259.062 216.688 261.484C216.688 263.828 214.984 265 211.578 265C210.102 265 208.641 264.805 207.195 264.414ZM232.188 252.695C235.688 252.695 237.438 254.426 237.438 257.887C237.438 258.379 237.403 258.906 237.333 259.469H228.696C228.696 261.984 230.165 263.242 233.103 263.242C234.501 263.242 235.743 263.086 236.829 262.773V264.531C235.743 264.844 234.423 265 232.868 265C228.642 265 226.528 262.902 226.528 258.707C226.528 254.699 228.415 252.695 232.188 252.695ZM228.696 257.664H235.353C235.306 255.508 234.251 254.43 232.188 254.43C230.001 254.43 228.837 255.508 228.696 257.664ZM240.356 265V252.695H241.821L242.208 254.266C243.466 253.219 244.849 252.695 246.356 252.695C249.427 252.695 250.962 254.223 250.962 257.277V265H248.794V257.242C248.794 255.414 247.884 254.5 246.063 254.5C244.821 254.5 243.642 255.02 242.524 256.059V265H240.356ZM263.747 264.648C262.731 264.883 261.638 265 260.466 265C256.091 265 253.903 262.871 253.903 258.613C253.903 254.668 256.091 252.695 260.466 252.695C261.638 252.695 262.731 252.812 263.747 253.047V254.805C262.731 254.57 261.599 254.453 260.349 254.453C257.497 254.453 256.071 255.84 256.071 258.613C256.071 261.699 257.497 263.242 260.349 263.242C261.599 263.242 262.731 263.125 263.747 262.891V264.648ZM268.095 258.801C268.095 261.762 269.325 263.242 271.786 263.242C274.247 263.242 275.478 261.762 275.478 258.801C275.478 255.902 274.247 254.453 271.786 254.453C269.325 254.453 268.095 255.902 268.095 258.801ZM265.927 258.848C265.927 254.746 267.88 252.695 271.786 252.695C275.692 252.695 277.646 254.746 277.646 258.848C277.646 262.941 275.692 264.988 271.786 264.988C267.896 264.988 265.942 262.941 265.927 258.848ZM280.575 265V252.695H282.04L282.427 254.266C283.685 253.219 285.067 252.695 286.575 252.695C289.646 252.695 291.181 254.223 291.181 257.277V265H289.013V257.242C289.013 255.414 288.103 254.5 286.282 254.5C285.04 254.5 283.86 255.02 282.743 256.059V265H280.575ZM294.708 250.703H296.067L296.536 252.695H299.864V254.453H296.876V261.52C296.876 262.668 297.372 263.242 298.364 263.242H299.864V265H297.802C295.739 265 294.708 263.895 294.708 261.684V250.703ZM302.63 265V252.695H304.095L304.481 254.266C305.56 253.219 306.856 252.695 308.372 252.695V254.5C306.903 254.5 305.712 255.02 304.798 256.059V265H302.63ZM309.966 261.285C309.966 258.762 311.63 257.5 314.958 257.5C316.028 257.5 317.099 257.578 318.169 257.734V256.574C318.169 255.16 317.063 254.453 314.853 254.453C313.587 254.453 312.29 254.648 310.962 255.039V253.281C312.29 252.891 313.587 252.695 314.853 252.695C318.509 252.695 320.337 253.969 320.337 256.516V265H319.118L318.368 263.781C317.142 264.594 315.806 265 314.36 265C311.431 265 309.966 263.762 309.966 261.285ZM314.958 259.258C313.075 259.258 312.134 259.922 312.134 261.25C312.134 262.578 312.876 263.242 314.36 263.242C315.86 263.242 317.13 262.844 318.169 262.047V259.492C317.099 259.336 316.028 259.258 314.958 259.258ZM323.864 265V252.695H325.329L325.716 254.266C326.794 253.219 328.091 252.695 329.606 252.695V254.5C328.138 254.5 326.946 255.02 326.032 256.059V265H323.864ZM339.283 265V252.098C339.283 249.121 340.971 247.633 344.346 247.633C345.275 247.633 346.15 247.789 346.971 248.102V249.859C346.197 249.547 345.318 249.391 344.334 249.391C342.412 249.391 341.451 250.262 341.451 252.004V252.695H345.26V254.453H341.451V265H339.283ZM347.041 261.285C347.041 258.762 348.705 257.5 352.033 257.5C353.104 257.5 354.174 257.578 355.244 257.734V256.574C355.244 255.16 354.139 254.453 351.928 254.453C350.662 254.453 349.365 254.648 348.037 255.039V253.281C349.365 252.891 350.662 252.695 351.928 252.695C355.584 252.695 357.412 253.969 357.412 256.516V265H356.193L355.443 263.781C354.217 264.594 352.881 265 351.436 265C348.506 265 347.041 263.762 347.041 261.285ZM352.033 259.258C350.15 259.258 349.209 259.922 349.209 261.25C349.209 262.578 349.951 263.242 351.436 263.242C352.936 263.242 354.205 262.844 355.244 262.047V259.492C354.174 259.336 353.104 259.258 352.033 259.258ZM352.572 248.242H355.373L352.572 251.043H350.65L352.572 248.242ZM370.197 264.648C369.182 264.883 368.088 265 366.916 265C362.541 265 360.354 262.871 360.354 258.613C360.354 254.668 362.541 252.695 366.916 252.695C368.088 252.695 369.182 252.812 370.197 253.047V254.805C369.182 254.57 368.049 254.453 366.799 254.453C363.947 254.453 362.521 255.84 362.521 258.613C362.521 261.699 363.947 263.242 366.799 263.242C368.049 263.242 369.182 263.125 370.197 262.891V264.648ZM375.365 252.695V265H373.197V252.695H375.365ZM375.365 248.242V250.293H373.197V248.242H375.365ZM381.412 248.242V265H379.244V248.242H381.412ZM385.057 265V252.695H386.521L386.885 254.242C388.064 253.211 389.35 252.695 390.74 252.695C392.521 252.695 393.736 253.258 394.385 254.383C395.721 253.258 397.076 252.695 398.451 252.695C401.279 252.695 402.693 254.254 402.693 257.371V265H400.525V257.254C400.525 255.418 399.752 254.5 398.205 254.5C397.049 254.5 395.967 255.031 394.959 256.094V265H392.791V257.289C392.791 255.43 392.025 254.5 390.494 254.5C389.275 254.5 388.186 255.031 387.225 256.094V265H385.057ZM411.295 252.695C414.795 252.695 416.545 254.426 416.545 257.887C416.545 258.379 416.51 258.906 416.439 259.469H407.803C407.803 261.984 409.271 263.242 412.209 263.242C413.607 263.242 414.85 263.086 415.936 262.773V264.531C414.85 264.844 413.529 265 411.975 265C407.748 265 405.635 262.902 405.635 258.707C405.635 254.699 407.521 252.695 411.295 252.695ZM407.803 257.664H414.459C414.412 255.508 413.357 254.43 411.295 254.43C409.107 254.43 407.943 255.508 407.803 257.664ZM419.463 265V252.695H420.928L421.314 254.266C422.572 253.219 423.955 252.695 425.463 252.695C428.533 252.695 430.068 254.223 430.068 257.277V265H427.9V257.242C427.9 255.414 426.99 254.5 425.17 254.5C423.928 254.5 422.748 255.02 421.631 256.059V265H419.463ZM433.596 250.703H434.955L435.424 252.695H438.752V254.453H435.764V261.52C435.764 262.668 436.26 263.242 437.252 263.242H438.752V265H436.689C434.627 265 433.596 263.895 433.596 261.684V250.703ZM446.592 252.695C450.092 252.695 451.842 254.426 451.842 257.887C451.842 258.379 451.807 258.906 451.736 259.469H443.1C443.1 261.984 444.568 263.242 447.506 263.242C448.904 263.242 450.146 263.086 451.232 262.773V264.531C450.146 264.844 448.826 265 447.271 265C443.045 265 440.932 262.902 440.932 258.707C440.932 254.699 442.818 252.695 446.592 252.695ZM443.1 257.664H449.756C449.709 255.508 448.654 254.43 446.592 254.43C444.404 254.43 443.24 255.508 443.1 257.664ZM467.331 252.695C470.831 252.695 472.581 254.426 472.581 257.887C472.581 258.379 472.546 258.906 472.476 259.469H463.839C463.839 261.984 465.308 263.242 468.245 263.242C469.644 263.242 470.886 263.086 471.972 262.773V264.531C470.886 264.844 469.565 265 468.011 265C463.784 265 461.671 262.902 461.671 258.707C461.671 254.699 463.558 252.695 467.331 252.695ZM463.839 257.664H470.495C470.448 255.508 469.394 254.43 467.331 254.43C465.144 254.43 463.979 255.508 463.839 257.664ZM477.784 248.242V265H475.616V248.242H477.784ZM494 252.695C497.5 252.695 499.25 254.426 499.25 257.887C499.25 258.379 499.215 258.906 499.145 259.469H490.508C490.508 261.984 491.977 263.242 494.914 263.242C496.312 263.242 497.555 263.086 498.641 262.773V264.531C497.555 264.844 496.234 265 494.68 265C490.453 265 488.34 262.902 488.34 258.707C488.34 254.699 490.227 252.695 494 252.695ZM490.508 257.664H497.164C497.117 255.508 496.062 254.43 494 254.43C491.812 254.43 490.648 255.508 490.508 257.664ZM502.051 264.414V262.539C503.496 263.008 504.957 263.242 506.434 263.242C508.395 263.242 509.375 262.656 509.375 261.484C509.375 260.391 508.691 259.844 507.324 259.844H505.566C502.91 259.844 501.582 258.633 501.582 256.211C501.582 253.867 503.289 252.695 506.703 252.695C508.172 252.695 509.629 252.891 511.074 253.281V255.156C509.629 254.688 508.172 254.453 506.703 254.453C504.656 254.453 503.633 255.039 503.633 256.211C503.633 257.305 504.277 257.852 505.566 257.852H507.324C510.137 257.852 511.543 259.062 511.543 261.484C511.543 263.828 509.84 265 506.434 265C504.957 265 503.496 264.805 502.051 264.414ZM516.641 262.492C517.492 262.914 518.441 263.125 519.488 263.125C522.043 263.125 523.32 261.59 523.32 258.52C523.32 255.84 522.051 254.5 519.512 254.5C518.418 254.5 517.461 254.594 516.641 254.781V262.492ZM514.473 253.199C516.105 252.863 517.793 252.695 519.535 252.695C523.48 252.695 525.453 254.645 525.453 258.543C525.453 262.848 523.469 265 519.5 265C518.516 265 517.562 264.805 516.641 264.414V269.453H514.473V253.199ZM527.809 261.285C527.809 258.762 529.473 257.5 532.801 257.5C533.871 257.5 534.941 257.578 536.012 257.734V256.574C536.012 255.16 534.906 254.453 532.695 254.453C531.43 254.453 530.133 254.648 528.805 255.039V253.281C530.133 252.891 531.43 252.695 532.695 252.695C536.352 252.695 538.18 253.969 538.18 256.516V265H536.961L536.211 263.781C534.984 264.594 533.648 265 532.203 265C529.273 265 527.809 263.762 527.809 261.285ZM532.801 259.258C530.918 259.258 529.977 259.922 529.977 261.25C529.977 262.578 530.719 263.242 532.203 263.242C533.703 263.242 534.973 262.844 536.012 262.047V259.492C534.941 259.336 533.871 259.258 532.801 259.258ZM550.965 264.648C549.949 264.883 548.855 265 547.684 265C543.309 265 541.121 262.871 541.121 258.613C541.121 254.668 543.309 252.695 547.684 252.695C548.855 252.695 549.949 252.812 550.965 253.047V254.805C549.949 254.57 548.816 254.453 547.566 254.453C544.715 254.453 543.289 255.84 543.289 258.613C543.289 261.699 544.715 263.242 547.566 263.242C548.816 263.242 549.949 263.125 550.965 262.891V264.648ZM556.133 252.695V265H553.965V252.695H556.133ZM556.133 248.242V250.293H553.965V248.242H556.133ZM561.477 258.801C561.477 261.762 562.707 263.242 565.168 263.242C567.629 263.242 568.859 261.762 568.859 258.801C568.859 255.902 567.629 254.453 565.168 254.453C562.707 254.453 561.477 255.902 561.477 258.801ZM559.309 258.848C559.309 254.746 561.262 252.695 565.168 252.695C569.074 252.695 571.027 254.746 571.027 258.848C571.027 262.941 569.074 264.988 565.168 264.988C561.277 264.988 559.324 262.941 559.309 258.848ZM589.681 254.781C588.938 254.594 588.021 254.5 586.927 254.5C584.31 254.5 583.001 255.918 583.001 258.754C583.001 261.668 584.239 263.125 586.716 263.125C587.841 263.125 588.829 262.914 589.681 262.492V254.781ZM591.849 269.453H589.681V264.414C588.759 264.805 587.767 265 586.704 265C582.813 265 580.868 262.926 580.868 258.777C580.868 254.723 582.919 252.695 587.021 252.695C588.685 252.695 590.294 252.863 591.849 253.199V269.453ZM605.981 252.695V265H604.493L604.118 263.43C602.626 264.477 601.126 265 599.618 265C596.79 265 595.376 263.473 595.376 260.418V252.695H597.544V260.453C597.544 262.281 598.45 263.195 600.263 263.195C601.505 263.195 602.688 262.676 603.813 261.637V252.695H605.981ZM614.583 252.695C618.083 252.695 619.833 254.426 619.833 257.887C619.833 258.379 619.798 258.906 619.728 259.469H611.091C611.091 261.984 612.56 263.242 615.497 263.242C616.896 263.242 618.138 263.086 619.224 262.773V264.531C618.138 264.844 616.817 265 615.263 265C611.036 265 608.923 262.902 608.923 258.707C608.923 254.699 610.81 252.695 614.583 252.695ZM611.091 257.664H617.747C617.7 255.508 616.646 254.43 614.583 254.43C612.396 254.43 611.231 255.508 611.091 257.664ZM630.131 264.414V262.539C631.576 263.008 633.037 263.242 634.514 263.242C636.475 263.242 637.455 262.656 637.455 261.484C637.455 260.391 636.771 259.844 635.404 259.844H633.646C630.99 259.844 629.662 258.633 629.662 256.211C629.662 253.867 631.369 252.695 634.783 252.695C636.252 252.695 637.709 252.891 639.154 253.281V255.156C637.709 254.688 636.252 254.453 634.783 254.453C632.736 254.453 631.713 255.039 631.713 256.211C631.713 257.305 632.357 257.852 633.646 257.852H635.404C638.217 257.852 639.623 259.062 639.623 261.484C639.623 263.828 637.92 265 634.514 265C633.037 265 631.576 264.805 630.131 264.414ZM647.627 252.695C651.127 252.695 652.877 254.426 652.877 257.887C652.877 258.379 652.842 258.906 652.771 259.469H644.135C644.135 261.984 645.604 263.242 648.541 263.242C649.939 263.242 651.182 263.086 652.268 262.773V264.531C651.182 264.844 649.861 265 648.307 265C644.08 265 641.967 262.902 641.967 258.707C641.967 254.699 643.854 252.695 647.627 252.695ZM644.135 257.664H650.791C650.744 255.508 649.689 254.43 647.627 254.43C645.439 254.43 644.275 255.508 644.135 257.664ZM662.706 261.285C662.706 258.762 664.37 257.5 667.698 257.5C668.769 257.5 669.839 257.578 670.909 257.734V256.574C670.909 255.16 669.804 254.453 667.593 254.453C666.327 254.453 665.03 254.648 663.702 255.039V253.281C665.03 252.891 666.327 252.695 667.593 252.695C671.249 252.695 673.077 253.969 673.077 256.516V265H671.858L671.108 263.781C669.882 264.594 668.546 265 667.101 265C664.171 265 662.706 263.762 662.706 261.285ZM667.698 259.258C665.815 259.258 664.874 259.922 664.874 261.25C664.874 262.578 665.616 263.242 667.101 263.242C668.601 263.242 669.87 262.844 670.909 262.047V259.492C669.839 259.336 668.769 259.258 667.698 259.258ZM684.866 255.203C683.991 254.781 682.991 254.57 681.866 254.57C679.39 254.57 678.151 255.887 678.151 258.52C678.151 261.637 679.39 263.195 681.866 263.195C682.991 263.195 683.991 263.043 684.866 262.738V255.203ZM687.034 264.262C685.542 264.754 683.702 265 681.515 265C677.851 265 676.019 262.867 676.019 258.602C676.019 254.664 677.964 252.695 681.854 252.695C682.917 252.695 683.921 252.891 684.866 253.281V248.242H687.034V264.262ZM689.964 261.285C689.964 258.762 691.628 257.5 694.956 257.5C696.026 257.5 697.097 257.578 698.167 257.734V256.574C698.167 255.16 697.062 254.453 694.851 254.453C693.585 254.453 692.288 254.648 690.96 255.039V253.281C692.288 252.891 693.585 252.695 694.851 252.695C698.507 252.695 700.335 253.969 700.335 256.516V265H699.116L698.366 263.781C697.14 264.594 695.804 265 694.358 265C691.429 265 689.964 263.762 689.964 261.285ZM694.956 259.258C693.073 259.258 692.132 259.922 692.132 261.25C692.132 262.578 692.874 263.242 694.358 263.242C695.858 263.242 697.128 262.844 698.167 262.047V259.492C697.097 259.336 696.026 259.258 694.956 259.258ZM706.03 262.492C706.882 262.914 707.831 263.125 708.878 263.125C711.433 263.125 712.71 261.59 712.71 258.52C712.71 255.84 711.44 254.5 708.901 254.5C707.808 254.5 706.851 254.594 706.03 254.781V262.492ZM703.862 253.199C705.495 252.863 707.183 252.695 708.925 252.695C712.87 252.695 714.843 254.645 714.843 258.543C714.843 262.848 712.858 265 708.89 265C707.905 265 706.952 264.805 706.03 264.414V269.453H703.862V253.199ZM717.784 250.703H719.144L719.612 252.695H722.94V254.453H719.952V261.52C719.952 262.668 720.448 263.242 721.44 263.242H722.94V265H720.878C718.815 265 717.784 263.895 717.784 261.684V250.703ZM730.78 252.695C734.28 252.695 736.03 254.426 736.03 257.887C736.03 258.379 735.995 258.906 735.925 259.469H727.288C727.288 261.984 728.757 263.242 731.694 263.242C733.093 263.242 734.335 263.086 735.421 262.773V264.531C734.335 264.844 733.015 265 731.46 265C727.233 265 725.12 262.902 725.12 258.707C725.12 254.699 727.007 252.695 730.78 252.695ZM727.288 257.664H733.944C733.897 255.508 732.843 254.43 730.78 254.43C728.593 254.43 727.429 255.508 727.288 257.664ZM745.859 261.285C745.859 258.762 747.523 257.5 750.852 257.5C751.922 257.5 752.992 257.578 754.062 257.734V256.574C754.062 255.16 752.957 254.453 750.746 254.453C749.48 254.453 748.184 254.648 746.855 255.039V253.281C748.184 252.891 749.48 252.695 750.746 252.695C754.402 252.695 756.23 253.969 756.23 256.516V265H755.012L754.262 263.781C753.035 264.594 751.699 265 750.254 265C747.324 265 745.859 263.762 745.859 261.285ZM750.852 259.258C748.969 259.258 748.027 259.922 748.027 261.25C748.027 262.578 748.77 263.242 750.254 263.242C751.754 263.242 753.023 262.844 754.062 262.047V259.492C752.992 259.336 751.922 259.258 750.852 259.258ZM138.758 277.703H140.117L140.586 279.695H143.914V281.453H140.926V288.52C140.926 289.668 141.422 290.242 142.414 290.242H143.914V292H141.852C139.789 292 138.758 290.895 138.758 288.684V277.703ZM157.285 279.695V292H155.797L155.422 290.43C153.93 291.477 152.43 292 150.922 292C148.094 292 146.68 290.473 146.68 287.418V279.695H148.848V287.453C148.848 289.281 149.754 290.195 151.566 290.195C152.809 290.195 153.992 289.676 155.117 288.637V279.695H157.285ZM171.746 279.695C175.246 279.695 176.996 281.426 176.996 284.887C176.996 285.379 176.961 285.906 176.891 286.469H168.254C168.254 288.984 169.723 290.242 172.66 290.242C174.059 290.242 175.301 290.086 176.387 289.773V291.531C175.301 291.844 173.98 292 172.426 292C168.199 292 166.086 289.902 166.086 285.707C166.086 281.699 167.973 279.695 171.746 279.695ZM168.254 284.664H174.91C174.863 282.508 173.809 281.43 171.746 281.43C169.559 281.43 168.395 282.508 168.254 284.664ZM179.797 291.414V289.539C181.242 290.008 182.703 290.242 184.18 290.242C186.141 290.242 187.121 289.656 187.121 288.484C187.121 287.391 186.438 286.844 185.07 286.844H183.312C180.656 286.844 179.328 285.633 179.328 283.211C179.328 280.867 181.035 279.695 184.449 279.695C185.918 279.695 187.375 279.891 188.82 280.281V282.156C187.375 281.688 185.918 281.453 184.449 281.453C182.402 281.453 181.379 282.039 181.379 283.211C181.379 284.305 182.023 284.852 183.312 284.852H185.07C187.883 284.852 189.289 286.062 189.289 288.484C189.289 290.828 187.586 292 184.18 292C182.703 292 181.242 291.805 179.797 291.414ZM192.219 277.703H193.578L194.047 279.695H197.375V281.453H194.387V288.52C194.387 289.668 194.883 290.242 195.875 290.242H197.375V292H195.312C193.25 292 192.219 290.895 192.219 288.684V277.703ZM202.543 279.695V292H200.375V279.695H202.543ZM202.543 275.242V277.293H200.375V275.242H202.543ZM208.59 275.242V292H206.422V275.242H208.59ZM213.816 285.801C213.816 288.762 215.047 290.242 217.508 290.242C219.969 290.242 221.199 288.762 221.199 285.801C221.199 282.902 219.969 281.453 217.508 281.453C215.047 281.453 213.816 282.902 213.816 285.801ZM211.648 285.848C211.648 281.746 213.602 279.695 217.508 279.695C221.414 279.695 223.367 281.746 223.367 285.848C223.367 289.941 221.414 291.988 217.508 291.988C213.617 291.988 211.664 289.941 211.648 285.848ZM240.418 282.203C239.543 281.781 238.543 281.57 237.418 281.57C234.941 281.57 233.703 282.887 233.703 285.52C233.703 288.637 234.941 290.195 237.418 290.195C238.543 290.195 239.543 290.043 240.418 289.738V282.203ZM242.586 291.262C241.094 291.754 239.254 292 237.066 292C233.402 292 231.57 289.867 231.57 285.602C231.57 281.664 233.516 279.695 237.406 279.695C238.469 279.695 239.473 279.891 240.418 280.281V275.242H242.586V291.262ZM251.176 279.695C254.676 279.695 256.426 281.426 256.426 284.887C256.426 285.379 256.391 285.906 256.32 286.469H247.684C247.684 288.984 249.152 290.242 252.09 290.242C253.488 290.242 254.73 290.086 255.816 289.773V291.531C254.73 291.844 253.41 292 251.855 292C247.629 292 245.516 289.902 245.516 285.707C245.516 281.699 247.402 279.695 251.176 279.695ZM247.684 284.664H254.34C254.293 282.508 253.238 281.43 251.176 281.43C248.988 281.43 247.824 282.508 247.684 284.664ZM263.445 279.695H265.789L269.316 289.34L272.82 279.695H275.164L270.16 292H268.145L263.445 279.695ZM279.324 279.695V292H277.156V279.695H279.324ZM279.324 275.242V277.293H277.156V275.242H279.324ZM291.348 282.203C290.473 281.781 289.473 281.57 288.348 281.57C285.871 281.57 284.633 282.887 284.633 285.52C284.633 288.637 285.871 290.195 288.348 290.195C289.473 290.195 290.473 290.043 291.348 289.738V282.203ZM293.516 291.262C292.023 291.754 290.184 292 287.996 292C284.332 292 282.5 289.867 282.5 285.602C282.5 281.664 284.445 279.695 288.336 279.695C289.398 279.695 290.402 279.891 291.348 280.281V275.242H293.516V291.262ZM296.445 288.285C296.445 285.762 298.109 284.5 301.438 284.5C302.508 284.5 303.578 284.578 304.648 284.734V283.574C304.648 282.16 303.543 281.453 301.332 281.453C300.066 281.453 298.77 281.648 297.441 282.039V280.281C298.77 279.891 300.066 279.695 301.332 279.695C304.988 279.695 306.816 280.969 306.816 283.516V292H305.598L304.848 290.781C303.621 291.594 302.285 292 300.84 292C297.91 292 296.445 290.762 296.445 288.285ZM301.438 286.258C299.555 286.258 298.613 286.922 298.613 288.25C298.613 289.578 299.355 290.242 300.84 290.242C302.34 290.242 303.609 289.844 304.648 289.047V286.492C303.578 286.336 302.508 286.258 301.438 286.258ZM314.738 279.695H317.094L320.574 289.305L324.172 279.695H326.469L321.359 292.363C320.453 294.598 319.094 295.992 317.281 296.547L316.449 295.012C317.824 294.41 318.824 293.43 319.449 292.07L314.738 279.695ZM334.367 292V279.695H335.832L336.219 281.266C337.477 280.219 338.859 279.695 340.367 279.695C343.438 279.695 344.973 281.223 344.973 284.277V292H342.805V284.242C342.805 282.414 341.895 281.5 340.074 281.5C338.832 281.5 337.652 282.02 336.535 283.059V292H334.367ZM353.574 279.695C357.074 279.695 358.824 281.426 358.824 284.887C358.824 285.379 358.789 285.906 358.719 286.469H350.082C350.082 288.984 351.551 290.242 354.488 290.242C355.887 290.242 357.129 290.086 358.215 289.773V291.531C357.129 291.844 355.809 292 354.254 292C350.027 292 347.914 289.902 347.914 285.707C347.914 281.699 349.801 279.695 353.574 279.695ZM350.082 284.664H356.738C356.691 282.508 355.637 281.43 353.574 281.43C351.387 281.43 350.223 282.508 350.082 284.664ZM371 291.648C369.984 291.883 368.891 292 367.719 292C363.344 292 361.156 289.871 361.156 285.613C361.156 281.668 363.344 279.695 367.719 279.695C368.891 279.695 369.984 279.812 371 280.047V281.805C369.984 281.57 368.852 281.453 367.602 281.453C364.75 281.453 363.324 282.84 363.324 285.613C363.324 288.699 364.75 290.242 367.602 290.242C368.852 290.242 369.984 290.125 371 289.891V291.648ZM378.84 279.695C382.34 279.695 384.09 281.426 384.09 284.887C384.09 285.379 384.055 285.906 383.984 286.469H375.348C375.348 288.984 376.816 290.242 379.754 290.242C381.152 290.242 382.395 290.086 383.48 289.773V291.531C382.395 291.844 381.074 292 379.52 292C375.293 292 373.18 289.902 373.18 285.707C373.18 281.699 375.066 279.695 378.84 279.695ZM375.348 284.664H382.004C381.957 282.508 380.902 281.43 378.84 281.43C376.652 281.43 375.488 282.508 375.348 284.664ZM386.891 291.414V289.539C388.336 290.008 389.797 290.242 391.273 290.242C393.234 290.242 394.215 289.656 394.215 288.484C394.215 287.391 393.531 286.844 392.164 286.844H390.406C387.75 286.844 386.422 285.633 386.422 283.211C386.422 280.867 388.129 279.695 391.543 279.695C393.012 279.695 394.469 279.891 395.914 280.281V282.156C394.469 281.688 393.012 281.453 391.543 281.453C389.496 281.453 388.473 282.039 388.473 283.211C388.473 284.305 389.117 284.852 390.406 284.852H392.164C394.977 284.852 396.383 286.062 396.383 288.484C396.383 290.828 394.68 292 391.273 292C389.797 292 388.336 291.805 386.891 291.414ZM401.715 279.695V292H399.547V279.695H401.715ZM401.715 275.242V277.293H399.547V275.242H401.715ZM413.738 282.203C412.863 281.781 411.863 281.57 410.738 281.57C408.262 281.57 407.023 282.887 407.023 285.52C407.023 288.637 408.262 290.195 410.738 290.195C411.863 290.195 412.863 290.043 413.738 289.738V282.203ZM415.906 291.262C414.414 291.754 412.574 292 410.387 292C406.723 292 404.891 289.867 404.891 285.602C404.891 281.664 406.836 279.695 410.727 279.695C411.789 279.695 412.793 279.891 413.738 280.281V275.242H415.906V291.262ZM418.836 288.285C418.836 285.762 420.5 284.5 423.828 284.5C424.898 284.5 425.969 284.578 427.039 284.734V283.574C427.039 282.16 425.934 281.453 423.723 281.453C422.457 281.453 421.16 281.648 419.832 282.039V280.281C421.16 279.891 422.457 279.695 423.723 279.695C427.379 279.695 429.207 280.969 429.207 283.516V292H427.988L427.238 290.781C426.012 291.594 424.676 292 423.23 292C420.301 292 418.836 290.762 418.836 288.285ZM423.828 286.258C421.945 286.258 421.004 286.922 421.004 288.25C421.004 289.578 421.746 290.242 423.23 290.242C424.73 290.242 426 289.844 427.039 289.047V286.492C425.969 286.336 424.898 286.258 423.828 286.258ZM440.996 282.203C440.121 281.781 439.121 281.57 437.996 281.57C435.52 281.57 434.281 282.887 434.281 285.52C434.281 288.637 435.52 290.195 437.996 290.195C439.121 290.195 440.121 290.043 440.996 289.738V282.203ZM443.164 291.262C441.672 291.754 439.832 292 437.645 292C433.98 292 432.148 289.867 432.148 285.602C432.148 281.664 434.094 279.695 437.984 279.695C439.047 279.695 440.051 279.891 440.996 280.281V275.242H443.164V291.262ZM451.754 279.695C455.254 279.695 457.004 281.426 457.004 284.887C457.004 285.379 456.969 285.906 456.898 286.469H448.262C448.262 288.984 449.73 290.242 452.668 290.242C454.066 290.242 455.309 290.086 456.395 289.773V291.531C455.309 291.844 453.988 292 452.434 292C448.207 292 446.094 289.902 446.094 285.707C446.094 281.699 447.98 279.695 451.754 279.695ZM448.262 284.664H454.918C454.871 282.508 453.816 281.43 451.754 281.43C449.566 281.43 448.402 282.508 448.262 284.664ZM459.805 291.414V289.539C461.25 290.008 462.711 290.242 464.188 290.242C466.148 290.242 467.129 289.656 467.129 288.484C467.129 287.391 466.445 286.844 465.078 286.844H463.32C460.664 286.844 459.336 285.633 459.336 283.211C459.336 280.867 461.043 279.695 464.457 279.695C465.926 279.695 467.383 279.891 468.828 280.281V282.156C467.383 281.688 465.926 281.453 464.457 281.453C462.41 281.453 461.387 282.039 461.387 283.211C461.387 284.305 462.031 284.852 463.32 284.852H465.078C467.891 284.852 469.297 286.062 469.297 288.484C469.297 290.828 467.594 292 464.188 292C462.711 292 461.25 291.805 459.805 291.414Z" fill="#1E1E1E"/>
<path d="M875 234V223.733H1084V234H875ZM904.062 213.467C899.363 213.467 895.44 211.882 892.294 208.713C889.141 205.551 887.565 201.605 887.565 196.876V96.5704C887.565 91.8477 889.141 87.9053 892.294 84.7432C895.447 81.5811 899.37 80 904.062 80H1054.94C1059.64 80 1063.56 81.5811 1066.71 84.7432C1069.86 87.9122 1071.44 91.858 1071.44 96.5807V196.886C1071.44 201.609 1069.86 205.551 1066.72 208.713C1063.57 211.875 1059.64 213.46 1054.94 213.467H904.062ZM904.062 203.2H1054.94C1056.5 203.2 1057.94 202.539 1059.26 201.219C1060.57 199.904 1061.22 198.457 1061.22 196.876V96.5704C1061.22 94.9962 1060.57 93.552 1059.26 92.2379C1057.94 90.9237 1056.5 90.2667 1054.94 90.2667H904.062C902.496 90.2667 901.055 90.9237 899.741 92.2379C898.433 93.552 897.78 94.9996 897.78 96.5807V196.886C897.78 198.46 898.433 199.904 899.741 201.219C901.055 202.539 902.496 203.2 904.062 203.2Z" fill="black"/>
<path d="M1233.75 90.25C1236.47 90.25 1239.08 91.3299 1241 93.2522C1242.92 95.1744 1244 97.7815 1244 100.5V223.5C1244 226.218 1242.92 228.826 1241 230.748C1239.08 232.67 1236.47 233.75 1233.75 233.75H1172.25C1169.53 233.75 1166.92 232.67 1165 230.748C1163.08 228.826 1162 226.218 1162 223.5V100.5C1162 97.7815 1163.08 95.1744 1165 93.2522C1166.92 91.3299 1169.53 90.25 1172.25 90.25H1233.75ZM1172.25 80C1166.81 80 1161.6 82.1598 1157.75 86.0043C1153.91 89.8488 1151.75 95.0631 1151.75 100.5V223.5C1151.75 228.937 1153.91 234.151 1157.75 237.996C1161.6 241.84 1166.81 244 1172.25 244H1233.75C1239.19 244 1244.4 241.84 1248.25 237.996C1252.09 234.151 1254.25 228.937 1254.25 223.5V100.5C1254.25 95.0631 1252.09 89.8488 1248.25 86.0043C1244.4 82.1598 1239.19 80 1233.75 80H1172.25Z" fill="black"/>
<path d="M1203 223.5C1205.72 223.5 1208.33 222.42 1210.25 220.498C1212.17 218.576 1213.25 215.968 1213.25 213.25C1213.25 210.532 1212.17 207.924 1210.25 206.002C1208.33 204.08 1205.72 203 1203 203C1200.28 203 1197.67 204.08 1195.75 206.002C1193.83 207.924 1192.75 210.532 1192.75 213.25C1192.75 215.968 1193.83 218.576 1195.75 220.498C1197.67 222.42 1200.28 223.5 1203 223.5Z" fill="black"/>
<path d="M1029.4 182.799H1022.2V141.193C1022.2 140.197 1021.99 139.211 1021.59 138.298C1021.19 137.386 1020.61 136.566 1019.87 135.892L983.873 101.923C983.856 101.908 983.839 101.891 983.824 101.874C982.499 100.668 980.771 100 978.98 100C977.188 100 975.461 100.668 974.135 101.874L974.086 101.923L938.126 135.892C937.393 136.566 936.807 137.386 936.407 138.298C936.007 139.211 935.8 140.197 935.8 141.193V182.799H928.6C927.645 182.799 926.73 183.179 926.054 183.854C925.379 184.529 925 185.445 925 186.4C925 187.355 925.379 188.27 926.054 188.945C926.73 189.621 927.645 190 928.6 190H1029.4C1030.35 190 1031.27 189.621 1031.95 188.945C1032.62 188.27 1033 187.355 1033 186.4C1033 185.445 1032.62 184.529 1031.95 183.854C1031.27 183.179 1030.35 182.799 1029.4 182.799ZM943 141.193L943.049 141.148L979 107.193L1014.95 141.139L1015 141.184V182.799H993.4V161.198C993.4 159.288 992.641 157.456 991.291 156.106C989.941 154.756 988.11 153.997 986.2 153.997H971.8C969.89 153.997 968.059 154.756 966.709 156.106C965.359 157.456 964.6 159.288 964.6 161.198V182.799H943V141.193ZM986.2 182.799H971.8V161.198H986.2V182.799Z" fill="black"/>
<path d="M1238.5 170.12H1233.5V141.92C1233.5 141.244 1233.36 140.576 1233.08 139.958C1232.8 139.339 1232.39 138.784 1231.88 138.327L1206.88 115.303C1206.87 115.293 1206.86 115.282 1206.85 115.27C1205.93 114.453 1204.73 114 1203.49 114C1202.24 114 1201.04 114.453 1200.12 115.27L1200.09 115.303L1175.12 138.327C1174.61 138.784 1174.2 139.339 1173.92 139.958C1173.64 140.576 1173.5 141.244 1173.5 141.92V170.12H1168.5C1167.84 170.12 1167.2 170.377 1166.73 170.834C1166.26 171.292 1166 171.913 1166 172.56C1166 173.207 1166.26 173.828 1166.73 174.285C1167.2 174.743 1167.84 175 1168.5 175H1238.5C1239.16 175 1239.8 174.743 1240.27 174.285C1240.74 173.828 1241 173.207 1241 172.56C1241 171.913 1240.74 171.292 1240.27 170.834C1239.8 170.377 1239.16 170.12 1238.5 170.12ZM1178.5 141.92L1178.53 141.889L1203.5 118.875L1228.47 141.883L1228.5 141.914V170.12H1213.5V155.478C1213.5 154.184 1212.97 152.943 1212.04 152.027C1211.1 151.112 1209.83 150.598 1208.5 150.598H1198.5C1197.17 150.598 1195.9 151.112 1194.96 152.027C1194.03 152.943 1193.5 154.184 1193.5 155.478V170.12H1178.5V141.92ZM1208.5 170.12H1198.5V155.478H1208.5V170.12Z" fill="black"/>
</svg>
