<svg width="1372" height="342" viewBox="0 0 1372 342" fill="none" xmlns="http://www.w3.org/2000/svg">
<mask id="path-1-inside-1_323_94" fill="white">
<path d="M0 0H1372V342H0V0Z"/>
</mask>
<path d="M0 0H1372V342H0V0Z" fill="white"/>
<path d="M0 1H1372V-1H0V1ZM1372 341H0V343H1372V341Z" fill="#CCCCCC" mask="url(#path-1-inside-1_323_94)"/>
<path d="M150.867 88.5078C156.661 88.5078 159.559 85.0964 159.559 78.2734C159.559 72.4661 156.661 69.5625 150.867 69.5625H145.105V88.5078H150.867ZM139.93 93V65.0703H150.867C160.112 65.0703 164.734 69.4714 164.734 78.2734C164.734 88.0911 160.112 93 150.867 93H139.93ZM177.312 72.4922C183.536 72.4922 186.648 75.6693 186.648 82.0234C186.648 82.8698 186.59 83.7161 186.473 84.5625H172.859C172.859 87.4531 174.982 88.8984 179.227 88.8984C181.297 88.8984 183.367 88.7031 185.438 88.3125V92.4141C183.628 92.8047 181.427 93 178.836 93C171.401 93 167.684 89.5039 167.684 82.5117C167.684 75.832 170.893 72.4922 177.312 72.4922ZM172.859 80.9688H181.609V80.8125C181.609 77.974 180.177 76.5547 177.312 76.5547C174.578 76.5547 173.094 78.026 172.859 80.9688ZM190.535 92.0234V87.7266C192.814 88.638 195.444 89.0938 198.426 89.0938C200.652 89.0938 201.766 88.3776 201.766 86.9453C201.766 85.5781 201.017 84.8945 199.52 84.8945H195.809C191.642 84.8945 189.559 82.8438 189.559 78.7422C189.559 74.4453 192.599 72.2969 198.68 72.2969C201.258 72.2969 203.686 72.6875 205.965 73.4688V77.7656C203.686 76.8542 201.212 76.3984 198.543 76.3984C195.743 76.3984 194.344 77.1146 194.344 78.5469C194.344 79.9141 195.158 80.5977 196.785 80.5977H200.105C204.663 80.5977 206.941 82.6484 206.941 86.75C206.941 91.0469 204.038 93.1953 198.23 93.1953C195.379 93.1953 192.814 92.8047 190.535 92.0234ZM225.711 92.4141C224.018 92.8047 222.26 93 220.438 93C213.146 93 209.5 89.4518 209.5 82.3555C209.5 75.7799 213.146 72.4922 220.438 72.4922C222.26 72.4922 224.018 72.6875 225.711 73.0781V77.1797C224.018 76.7891 222.391 76.5938 220.828 76.5938C216.727 76.5938 214.676 78.5143 214.676 82.3555C214.676 86.7174 216.727 88.8984 220.828 88.8984C222.391 88.8984 224.018 88.7031 225.711 88.3125V92.4141ZM247.586 72.4922V93H243.543L242.918 90.3828C240.561 92.1276 238.061 93 235.418 93C231.225 93 229.129 90.5195 229.129 85.5586V72.4922H234.305V85.4219C234.305 87.6875 235.294 88.8203 237.273 88.8203C238.953 88.8203 240.665 88.1497 242.41 86.8086V72.4922H247.586ZM257.664 88.2539C258.849 88.6315 260.223 88.8203 261.785 88.8203C264.91 88.8203 266.473 86.6133 266.473 82.1992C266.473 78.5924 265.125 76.7891 262.43 76.7891C260.685 76.7891 259.096 77.1406 257.664 77.8438V88.2539ZM252.488 65.0703H257.664V74.0547C259.214 73.013 260.939 72.4922 262.84 72.4922C268.673 72.4922 271.59 75.7734 271.59 82.3359C271.59 89.4453 268.25 93 261.57 93C258.758 93 255.73 92.7201 252.488 92.1602V65.0703ZM275.496 93V72.4922H279.5L280.145 75.1094C281.941 73.3646 283.842 72.4922 285.848 72.4922V76.6719C283.921 76.6719 282.195 77.4727 280.672 79.0742V93H275.496ZM297.43 72.4922C303.654 72.4922 306.766 75.6693 306.766 82.0234C306.766 82.8698 306.707 83.7161 306.59 84.5625H292.977C292.977 87.4531 295.099 88.8984 299.344 88.8984C301.414 88.8984 303.484 88.7031 305.555 88.3125V92.4141C303.745 92.8047 301.544 93 298.953 93C291.518 93 287.801 89.5039 287.801 82.5117C287.801 75.832 291.01 72.4922 297.43 72.4922ZM292.977 80.9688H301.727V80.8125C301.727 77.974 300.294 76.5547 297.43 76.5547C294.695 76.5547 293.211 78.026 292.977 80.9688ZM337.898 72.4922V93H333.855L333.23 90.3828C330.874 92.1276 328.374 93 325.73 93C321.538 93 319.441 90.5195 319.441 85.5586V72.4922H324.617V85.4219C324.617 87.6875 325.607 88.8203 327.586 88.8203C329.266 88.8203 330.978 88.1497 332.723 86.8086V72.4922H337.898ZM342.801 93V72.4922H346.805L347.449 75.5C349.415 73.4948 351.655 72.4922 354.168 72.4922C359.025 72.4922 361.453 75.0182 361.453 80.0703V93H356.277V80.0703C356.277 77.8047 355.151 76.6719 352.898 76.6719C351.219 76.6719 349.578 77.3424 347.977 78.6836V93H342.801ZM365.379 86.6133C365.379 82.5378 368.348 80.5 374.285 80.5C375.678 80.5 377.072 80.6302 378.465 80.8906V79.3477C378.465 77.5117 377.143 76.5938 374.5 76.5938C372.26 76.5938 369.773 76.9193 367.039 77.5703V73.4688C369.773 72.8177 372.26 72.4922 374.5 72.4922C380.594 72.4922 383.641 74.7448 383.641 79.25V93H380.633L378.797 91.1641C377.013 92.388 375.047 93 372.898 93C367.885 93 365.379 90.8711 365.379 86.6133ZM378.465 84.4062C377.163 84.1458 375.77 84.0156 374.285 84.0156C371.798 84.0156 370.555 84.862 370.555 86.5547C370.555 88.3776 371.596 89.2891 373.68 89.2891C375.398 89.2891 376.993 88.7552 378.465 87.6875V84.4062ZM410.457 77.1406C409.611 76.8281 408.406 76.6719 406.844 76.6719C403.263 76.6719 401.473 78.6445 401.473 82.5898C401.473 86.4049 403.016 88.3125 406.102 88.3125C407.586 88.3125 409.038 87.9609 410.457 87.2578V77.1406ZM415.633 91.4375C415.633 97.4271 412.033 100.422 404.832 100.422C402.306 100.422 400.066 100.096 398.113 99.4453V95.3438C400.105 95.9948 402.358 96.3203 404.871 96.3203C408.595 96.3203 410.457 94.7578 410.457 91.6328C408.921 92.2839 407.267 92.6094 405.496 92.6094C399.402 92.6094 396.355 89.2826 396.355 82.6289C396.355 75.8711 399.904 72.4922 407 72.4922C409.383 72.4922 412.26 72.7721 415.633 73.332V91.4375ZM419.559 86.6133C419.559 82.5378 422.527 80.5 428.465 80.5C429.858 80.5 431.251 80.6302 432.645 80.8906V79.3477C432.645 77.5117 431.323 76.5938 428.68 76.5938C426.44 76.5938 423.953 76.9193 421.219 77.5703V73.4688C423.953 72.8177 426.44 72.4922 428.68 72.4922C434.773 72.4922 437.82 74.7448 437.82 79.25V93H434.812L432.977 91.1641C431.193 92.388 429.227 93 427.078 93C422.065 93 419.559 90.8711 419.559 86.6133ZM432.645 84.4062C431.342 84.1458 429.949 84.0156 428.465 84.0156C425.978 84.0156 424.734 84.862 424.734 86.5547C424.734 88.3776 425.776 89.2891 427.859 89.2891C429.578 89.2891 431.173 88.7552 432.645 87.6875V84.4062ZM442.723 93V72.4922H446.727L447.332 75.4609C449.168 73.4818 451.375 72.4922 453.953 72.4922C456.531 72.4922 458.296 73.4297 459.246 75.3047C461.342 73.4297 463.536 72.4922 465.828 72.4922C470.542 72.4922 472.898 75.0898 472.898 80.2852V93H467.723V80.0898C467.723 77.8112 466.694 76.6719 464.637 76.6719C463.1 76.6719 461.622 77.362 460.203 78.7422V93H455.027V80.1484C455.027 77.8307 454.077 76.6719 452.176 76.6719C450.665 76.6719 449.24 77.362 447.898 78.7422V93H442.723ZM476.824 86.6133C476.824 82.5378 479.793 80.5 485.73 80.5C487.124 80.5 488.517 80.6302 489.91 80.8906V79.3477C489.91 77.5117 488.589 76.5938 485.945 76.5938C483.706 76.5938 481.219 76.9193 478.484 77.5703V73.4688C481.219 72.8177 483.706 72.4922 485.945 72.4922C492.039 72.4922 495.086 74.7448 495.086 79.25V93H492.078L490.242 91.1641C488.458 92.388 486.492 93 484.344 93C479.331 93 476.824 90.8711 476.824 86.6133ZM489.91 84.4062C488.608 84.1458 487.215 84.0156 485.73 84.0156C483.243 84.0156 482 84.862 482 86.5547C482 88.3776 483.042 89.2891 485.125 89.2891C486.844 89.2891 488.439 88.7552 489.91 87.6875V84.4062ZM523.914 92.4141C522.221 92.8047 520.464 93 518.641 93C511.349 93 507.703 89.4518 507.703 82.3555C507.703 75.7799 511.349 72.4922 518.641 72.4922C520.464 72.4922 522.221 72.6875 523.914 73.0781V77.1797C522.221 76.7891 520.594 76.5938 519.031 76.5938C514.93 76.5938 512.879 78.5143 512.879 82.3555C512.879 86.7174 514.93 88.8984 519.031 88.8984C520.594 88.8984 522.221 88.7031 523.914 88.3125V92.4141ZM531.531 82.668C531.531 86.9518 533.191 89.0938 536.512 89.0938C539.832 89.0938 541.492 86.9518 541.492 82.668C541.492 78.4883 539.832 76.3984 536.512 76.3984C533.191 76.3984 531.531 78.4883 531.531 82.668ZM526.355 82.7461C526.355 75.8711 529.741 72.4336 536.512 72.4336C543.283 72.4336 546.668 75.8711 546.668 82.7461C546.668 89.6081 543.283 93.0391 536.512 93.0391C529.767 93.0391 526.382 89.6081 526.355 82.7461ZM550.574 93V72.4922H554.578L555.184 75.4609C557.02 73.4818 559.227 72.4922 561.805 72.4922C564.383 72.4922 566.147 73.4297 567.098 75.3047C569.194 73.4297 571.388 72.4922 573.68 72.4922C578.393 72.4922 580.75 75.0898 580.75 80.2852V93H575.574V80.0898C575.574 77.8112 574.546 76.6719 572.488 76.6719C570.952 76.6719 569.474 77.362 568.055 78.7422V93H562.879V80.1484C562.879 77.8307 561.928 76.6719 560.027 76.6719C558.517 76.6719 557.091 77.362 555.75 78.7422V93H550.574ZM590.828 87.6484C592.117 88.3516 593.504 88.7031 594.988 88.7031C598.074 88.7031 599.617 86.5352 599.617 82.1992C599.617 78.5143 597.911 76.6719 594.5 76.6719C593.029 76.6719 591.805 76.763 590.828 76.9453V87.6484ZM585.652 73.332C588.374 72.7721 591.251 72.4922 594.285 72.4922C601.251 72.4922 604.734 75.7409 604.734 82.2383C604.734 89.4128 601.492 93 595.008 93C593.628 93 592.234 92.6745 590.828 92.0234V100.422H585.652V73.332ZM613.836 65.0703V93H608.66V65.0703H613.836ZM627.391 72.4922C633.615 72.4922 636.727 75.6693 636.727 82.0234C636.727 82.8698 636.668 83.7161 636.551 84.5625H622.938C622.938 87.4531 625.06 88.8984 629.305 88.8984C631.375 88.8984 633.445 88.7031 635.516 88.3125V92.4141C633.706 92.8047 631.505 93 628.914 93C621.479 93 617.762 89.5039 617.762 82.5117C617.762 75.832 620.971 72.4922 627.391 72.4922ZM622.938 80.9688H631.688V80.8125C631.688 77.974 630.255 76.5547 627.391 76.5547C624.656 76.5547 623.172 78.026 622.938 80.9688ZM640.32 69.1719H644.148L644.93 72.4922H650.086V76.5938H645.496V86.0273C645.496 87.9414 646.323 88.8984 647.977 88.8984H650.086V93H645.477C642.039 93 640.32 91.1576 640.32 87.4727V69.1719ZM652.645 86.6133C652.645 82.5378 655.613 80.5 661.551 80.5C662.944 80.5 664.337 80.6302 665.73 80.8906V79.3477C665.73 77.5117 664.409 76.5938 661.766 76.5938C659.526 76.5938 657.039 76.9193 654.305 77.5703V73.4688C657.039 72.8177 659.526 72.4922 661.766 72.4922C667.859 72.4922 670.906 74.7448 670.906 79.25V93H667.898L666.062 91.1641C664.279 92.388 662.312 93 660.164 93C655.151 93 652.645 90.8711 652.645 86.6133ZM665.73 84.4062C664.428 84.1458 663.035 84.0156 661.551 84.0156C659.064 84.0156 657.82 84.862 657.82 86.5547C657.82 88.3776 658.862 89.2891 660.945 89.2891C662.664 89.2891 664.259 88.7552 665.73 87.6875V84.4062ZM697.586 77.8438C696.518 77.1406 695.177 76.7891 693.562 76.7891C690.346 76.7891 688.738 78.5924 688.738 82.1992C688.738 86.4831 690.411 88.625 693.758 88.625C695.112 88.625 696.388 88.4362 697.586 88.0586V77.8438ZM702.762 91.7695C699.624 92.5898 696.557 93 693.562 93C686.935 93 683.621 89.4453 683.621 82.3359C683.621 75.7734 686.863 72.4922 693.348 72.4922C694.728 72.4922 696.141 72.8177 697.586 73.4688V65.0703H702.762V91.7695ZM716.297 72.4922C722.521 72.4922 725.633 75.6693 725.633 82.0234C725.633 82.8698 725.574 83.7161 725.457 84.5625H711.844C711.844 87.4531 713.966 88.8984 718.211 88.8984C720.281 88.8984 722.352 88.7031 724.422 88.3125V92.4141C722.612 92.8047 720.411 93 717.82 93C710.385 93 706.668 89.5039 706.668 82.5117C706.668 75.832 709.878 72.4922 716.297 72.4922ZM711.844 80.9688H720.594V80.8125C720.594 77.974 719.161 76.5547 716.297 76.5547C713.562 76.5547 712.078 78.026 711.844 80.9688ZM139.441 137.023V132.727C141.72 133.638 144.35 134.094 147.332 134.094C149.559 134.094 150.672 133.378 150.672 131.945C150.672 130.578 149.923 129.895 148.426 129.895H144.715C140.548 129.895 138.465 127.844 138.465 123.742C138.465 119.445 141.505 117.297 147.586 117.297C150.164 117.297 152.592 117.688 154.871 118.469V122.766C152.592 121.854 150.118 121.398 147.449 121.398C144.65 121.398 143.25 122.115 143.25 123.547C143.25 124.914 144.064 125.598 145.691 125.598H149.012C153.569 125.598 155.848 127.648 155.848 131.75C155.848 136.047 152.944 138.195 147.137 138.195C144.285 138.195 141.72 137.805 139.441 137.023ZM168.133 117.492C174.357 117.492 177.469 120.669 177.469 127.023C177.469 127.87 177.41 128.716 177.293 129.562H163.68C163.68 132.453 165.802 133.898 170.047 133.898C172.117 133.898 174.188 133.703 176.258 133.312V137.414C174.448 137.805 172.247 138 169.656 138C162.221 138 158.504 134.504 158.504 127.512C158.504 120.832 161.714 117.492 168.133 117.492ZM163.68 125.969H172.43V125.812C172.43 122.974 170.997 121.555 168.133 121.555C165.398 121.555 163.914 123.026 163.68 125.969ZM181.355 138V117.492H185.359L186.004 120.109C187.801 118.365 189.702 117.492 191.707 117.492V121.672C189.78 121.672 188.055 122.473 186.531 124.074V138H181.355ZM192.195 117.492H197.664L202.645 131.828L207.82 117.492H213.289L204.949 138H200.027L192.195 117.492ZM220.906 110.07V114.172H215.73V110.07H220.906ZM220.906 117.492V138H215.73V117.492H220.906ZM240.945 137.414C239.253 137.805 237.495 138 235.672 138C228.38 138 224.734 134.452 224.734 127.355C224.734 120.78 228.38 117.492 235.672 117.492C237.495 117.492 239.253 117.688 240.945 118.078V122.18C239.253 121.789 237.625 121.594 236.062 121.594C231.961 121.594 229.91 123.514 229.91 127.355C229.91 131.717 231.961 133.898 236.062 133.898C237.625 133.898 239.253 133.703 240.945 133.312V137.414ZM249.539 110.07V114.172H244.363V110.07H249.539ZM249.539 117.492V138H244.363V117.492H249.539ZM258.641 127.668C258.641 131.952 260.301 134.094 263.621 134.094C266.941 134.094 268.602 131.952 268.602 127.668C268.602 123.488 266.941 121.398 263.621 121.398C260.301 121.398 258.641 123.488 258.641 127.668ZM253.465 127.746C253.465 120.871 256.85 117.434 263.621 117.434C270.392 117.434 273.777 120.871 273.777 127.746C273.777 134.608 270.392 138.039 263.621 138.039C256.876 138.039 253.491 134.608 253.465 127.746ZM277.684 137.023V132.727C279.962 133.638 282.592 134.094 285.574 134.094C287.801 134.094 288.914 133.378 288.914 131.945C288.914 130.578 288.165 129.895 286.668 129.895H282.957C278.79 129.895 276.707 127.844 276.707 123.742C276.707 119.445 279.747 117.297 285.828 117.297C288.406 117.297 290.835 117.688 293.113 118.469V122.766C290.835 121.854 288.361 121.398 285.691 121.398C282.892 121.398 281.492 122.115 281.492 123.547C281.492 124.914 282.306 125.598 283.934 125.598H287.254C291.811 125.598 294.09 127.648 294.09 131.75C294.09 136.047 291.186 138.195 285.379 138.195C282.527 138.195 279.962 137.805 277.684 137.023ZM311.688 132.648C312.977 133.352 314.363 133.703 315.848 133.703C318.934 133.703 320.477 131.535 320.477 127.199C320.477 123.514 318.771 121.672 315.359 121.672C313.888 121.672 312.664 121.763 311.688 121.945V132.648ZM306.512 118.332C309.233 117.772 312.111 117.492 315.145 117.492C322.111 117.492 325.594 120.741 325.594 127.238C325.594 134.413 322.352 138 315.867 138C314.487 138 313.094 137.674 311.688 137.023V145.422H306.512V118.332ZM328.543 131.613C328.543 127.538 331.512 125.5 337.449 125.5C338.842 125.5 340.236 125.63 341.629 125.891V124.348C341.629 122.512 340.307 121.594 337.664 121.594C335.424 121.594 332.938 121.919 330.203 122.57V118.469C332.938 117.818 335.424 117.492 337.664 117.492C343.758 117.492 346.805 119.745 346.805 124.25V138H343.797L341.961 136.164C340.177 137.388 338.211 138 336.062 138C331.049 138 328.543 135.871 328.543 131.613ZM341.629 129.406C340.327 129.146 338.934 129.016 337.449 129.016C334.962 129.016 333.719 129.862 333.719 131.555C333.719 133.378 334.76 134.289 336.844 134.289C338.562 134.289 340.158 133.755 341.629 132.688V129.406ZM351.707 138V117.492H355.711L356.355 120.109C358.152 118.365 360.053 117.492 362.059 117.492V121.672C360.132 121.672 358.406 122.473 356.883 124.074V138H351.707ZM364.012 131.613C364.012 127.538 366.98 125.5 372.918 125.5C374.311 125.5 375.704 125.63 377.098 125.891V124.348C377.098 122.512 375.776 121.594 373.133 121.594C370.893 121.594 368.406 121.919 365.672 122.57V118.469C368.406 117.818 370.893 117.492 373.133 117.492C379.227 117.492 382.273 119.745 382.273 124.25V138H379.266L377.43 136.164C375.646 137.388 373.68 138 371.531 138C366.518 138 364.012 135.871 364.012 131.613ZM377.098 129.406C375.796 129.146 374.402 129.016 372.918 129.016C370.431 129.016 369.188 129.862 369.188 131.555C369.188 133.378 370.229 134.289 372.312 134.289C374.031 134.289 375.626 133.755 377.098 132.688V129.406ZM395.672 114.172H399.5L400.281 117.492H405.438V121.594H400.848V131.027C400.848 132.941 401.674 133.898 403.328 133.898H405.438V138H400.828C397.391 138 395.672 136.158 395.672 132.473V114.172ZM427.43 117.492V138H423.387L422.762 135.383C420.405 137.128 417.905 138 415.262 138C411.069 138 408.973 135.52 408.973 130.559V117.492H414.148V130.422C414.148 132.688 415.138 133.82 417.117 133.82C418.797 133.82 420.509 133.15 422.254 131.809V117.492H427.43ZM456.258 137.414C454.565 137.805 452.807 138 450.984 138C443.693 138 440.047 134.452 440.047 127.355C440.047 120.78 443.693 117.492 450.984 117.492C452.807 117.492 454.565 117.688 456.258 118.078V122.18C454.565 121.789 452.938 121.594 451.375 121.594C447.273 121.594 445.223 123.514 445.223 127.355C445.223 131.717 447.273 133.898 451.375 133.898C452.938 133.898 454.565 133.703 456.258 133.312V137.414ZM463.875 127.668C463.875 131.952 465.535 134.094 468.855 134.094C472.176 134.094 473.836 131.952 473.836 127.668C473.836 123.488 472.176 121.398 468.855 121.398C465.535 121.398 463.875 123.488 463.875 127.668ZM458.699 127.746C458.699 120.871 462.085 117.434 468.855 117.434C475.626 117.434 479.012 120.871 479.012 127.746C479.012 134.608 475.626 138.039 468.855 138.039C462.111 138.039 458.725 134.608 458.699 127.746ZM482.918 138V117.492H486.922L487.527 120.461C489.363 118.482 491.57 117.492 494.148 117.492C496.727 117.492 498.491 118.43 499.441 120.305C501.538 118.43 503.732 117.492 506.023 117.492C510.737 117.492 513.094 120.09 513.094 125.285V138H507.918V125.09C507.918 122.811 506.889 121.672 504.832 121.672C503.296 121.672 501.818 122.362 500.398 123.742V138H495.223V125.148C495.223 122.831 494.272 121.672 492.371 121.672C490.861 121.672 489.435 122.362 488.094 123.742V138H482.918ZM522.195 127.668C522.195 131.952 523.855 134.094 527.176 134.094C530.496 134.094 532.156 131.952 532.156 127.668C532.156 123.488 530.496 121.398 527.176 121.398C523.855 121.398 522.195 123.488 522.195 127.668ZM517.02 127.746C517.02 120.871 520.405 117.434 527.176 117.434C533.947 117.434 537.332 120.871 537.332 127.746C537.332 134.608 533.947 138.039 527.176 138.039C520.431 138.039 517.046 134.608 517.02 127.746ZM554.227 122.844C553.159 122.141 551.818 121.789 550.203 121.789C546.987 121.789 545.379 123.592 545.379 127.199C545.379 131.483 547.052 133.625 550.398 133.625C551.753 133.625 553.029 133.436 554.227 133.059V122.844ZM559.402 136.77C556.264 137.59 553.198 138 550.203 138C543.576 138 540.262 134.445 540.262 127.336C540.262 120.773 543.504 117.492 549.988 117.492C551.368 117.492 552.781 117.818 554.227 118.469V110.07H559.402V136.77ZM569.461 110.07V114.172H564.285V110.07H569.461ZM569.461 117.492V138H564.285V117.492H569.461ZM587.352 122.844C586.284 122.141 584.943 121.789 583.328 121.789C580.112 121.789 578.504 123.592 578.504 127.199C578.504 131.483 580.177 133.625 583.523 133.625C584.878 133.625 586.154 133.436 587.352 133.059V122.844ZM592.527 136.77C589.389 137.59 586.323 138 583.328 138C576.701 138 573.387 134.445 573.387 127.336C573.387 120.773 576.629 117.492 583.113 117.492C584.493 117.492 585.906 117.818 587.352 118.469V110.07H592.527V136.77ZM596.434 131.613C596.434 127.538 599.402 125.5 605.34 125.5C606.733 125.5 608.126 125.63 609.52 125.891V124.348C609.52 122.512 608.198 121.594 605.555 121.594C603.315 121.594 600.828 121.919 598.094 122.57V118.469C600.828 117.818 603.315 117.492 605.555 117.492C611.648 117.492 614.695 119.745 614.695 124.25V138H611.688L609.852 136.164C608.068 137.388 606.102 138 603.953 138C598.94 138 596.434 135.871 596.434 131.613ZM609.52 129.406C608.217 129.146 606.824 129.016 605.34 129.016C602.853 129.016 601.609 129.862 601.609 131.555C601.609 133.378 602.651 134.289 604.734 134.289C606.453 134.289 608.048 133.755 609.52 132.688V129.406ZM632.586 122.844C631.518 122.141 630.177 121.789 628.562 121.789C625.346 121.789 623.738 123.592 623.738 127.199C623.738 131.483 625.411 133.625 628.758 133.625C630.112 133.625 631.388 133.436 632.586 133.059V122.844ZM637.762 136.77C634.624 137.59 631.557 138 628.562 138C621.935 138 618.621 134.445 618.621 127.336C618.621 120.773 621.863 117.492 628.348 117.492C629.728 117.492 631.141 117.818 632.586 118.469V110.07H637.762V136.77Z" fill="#1E1E1E"/>
<path d="M149.949 167.242V169H141.16V174.625H149.539V176.383H141.16V182.242H150.125V184H138.992V167.242H149.949ZM156.312 177.848L151.707 171.695H154.227L157.566 176.16L160.906 171.695H163.426L158.832 177.848L163.426 184H160.906L157.566 179.535L154.227 184H151.707L156.312 177.848ZM167.645 181.492C168.496 181.914 169.445 182.125 170.492 182.125C173.047 182.125 174.324 180.59 174.324 177.52C174.324 174.84 173.055 173.5 170.516 173.5C169.422 173.5 168.465 173.594 167.645 173.781V181.492ZM165.477 172.199C167.109 171.863 168.797 171.695 170.539 171.695C174.484 171.695 176.457 173.645 176.457 177.543C176.457 181.848 174.473 184 170.504 184C169.52 184 168.566 183.805 167.645 183.414V188.453H165.477V172.199ZM181.684 167.242V184H179.516V167.242H181.684ZM186.91 177.801C186.91 180.762 188.141 182.242 190.602 182.242C193.062 182.242 194.293 180.762 194.293 177.801C194.293 174.902 193.062 173.453 190.602 173.453C188.141 173.453 186.91 174.902 186.91 177.801ZM184.742 177.848C184.742 173.746 186.695 171.695 190.602 171.695C194.508 171.695 196.461 173.746 196.461 177.848C196.461 181.941 194.508 183.988 190.602 183.988C186.711 183.988 184.758 181.941 184.742 177.848ZM199.391 184V171.695H200.855L201.242 173.266C202.32 172.219 203.617 171.695 205.133 171.695V173.5C203.664 173.5 202.473 174.02 201.559 175.059V184H199.391ZM206.727 180.285C206.727 177.762 208.391 176.5 211.719 176.5C212.789 176.5 213.859 176.578 214.93 176.734V175.574C214.93 174.16 213.824 173.453 211.613 173.453C210.348 173.453 209.051 173.648 207.723 174.039V172.281C209.051 171.891 210.348 171.695 211.613 171.695C215.27 171.695 217.098 172.969 217.098 175.516V184H215.879L215.129 182.781C213.902 183.594 212.566 184 211.121 184C208.191 184 206.727 182.762 206.727 180.285ZM211.719 178.258C209.836 178.258 208.895 178.922 208.895 180.25C208.895 181.578 209.637 182.242 211.121 182.242C212.621 182.242 213.891 181.844 214.93 181.047V178.492C213.859 178.336 212.789 178.258 211.719 178.258ZM243.686 171.695V184H242.198L241.823 182.43C240.33 183.477 238.83 184 237.323 184C234.494 184 233.08 182.473 233.08 179.418V171.695H235.248V179.453C235.248 181.281 236.155 182.195 237.967 182.195C239.209 182.195 240.393 181.676 241.518 180.637V171.695H243.686ZM247.213 184V171.695H248.678L249.065 173.266C250.323 172.219 251.705 171.695 253.213 171.695C256.283 171.695 257.819 173.223 257.819 176.277V184H255.651V176.242C255.651 174.414 254.741 173.5 252.92 173.5C251.678 173.5 250.498 174.02 249.381 175.059V184H247.213ZM260.76 180.285C260.76 177.762 262.424 176.5 265.752 176.5C266.823 176.5 267.893 176.578 268.963 176.734V175.574C268.963 174.16 267.858 173.453 265.647 173.453C264.381 173.453 263.084 173.648 261.756 174.039V172.281C263.084 171.891 264.381 171.695 265.647 171.695C269.303 171.695 271.131 172.969 271.131 175.516V184H269.912L269.162 182.781C267.936 183.594 266.6 184 265.155 184C262.225 184 260.76 182.762 260.76 180.285ZM265.752 178.258C263.869 178.258 262.928 178.922 262.928 180.25C262.928 181.578 263.67 182.242 265.155 182.242C266.655 182.242 267.924 181.844 268.963 181.047V178.492C267.893 178.336 266.823 178.258 265.752 178.258ZM286.528 180.285C286.528 177.762 288.192 176.5 291.52 176.5C292.59 176.5 293.661 176.578 294.731 176.734V175.574C294.731 174.16 293.626 173.453 291.415 173.453C290.149 173.453 288.852 173.648 287.524 174.039V172.281C288.852 171.891 290.149 171.695 291.415 171.695C295.071 171.695 296.899 172.969 296.899 175.516V184H295.68L294.93 182.781C293.704 183.594 292.368 184 290.922 184C287.993 184 286.528 182.762 286.528 180.285ZM291.52 178.258C289.637 178.258 288.696 178.922 288.696 180.25C288.696 181.578 289.438 182.242 290.922 182.242C292.422 182.242 293.692 181.844 294.731 181.047V178.492C293.661 178.336 292.59 178.258 291.52 178.258ZM300.426 184V171.695H301.891L302.254 173.242C303.434 172.211 304.719 171.695 306.11 171.695C307.891 171.695 309.106 172.258 309.754 173.383C311.09 172.258 312.446 171.695 313.821 171.695C316.649 171.695 318.063 173.254 318.063 176.371V184H315.895V176.254C315.895 174.418 315.122 173.5 313.575 173.5C312.419 173.5 311.337 174.031 310.329 175.094V184H308.161V176.289C308.161 174.43 307.395 173.5 305.864 173.5C304.645 173.5 303.555 174.031 302.594 175.094V184H300.426ZM323.758 181.492C324.61 181.914 325.559 182.125 326.606 182.125C329.161 182.125 330.438 180.59 330.438 177.52C330.438 174.84 329.169 173.5 326.629 173.5C325.536 173.5 324.579 173.594 323.758 173.781V181.492ZM321.59 172.199C323.223 171.863 324.911 171.695 326.653 171.695C330.598 171.695 332.571 173.645 332.571 177.543C332.571 181.848 330.587 184 326.618 184C325.633 184 324.68 183.805 323.758 183.414V188.453H321.59V172.199ZM337.797 167.242V184H335.629V167.242H337.797ZM343.844 171.695V184H341.676V171.695H343.844ZM343.844 167.242V169.293H341.676V167.242H343.844ZM347.02 180.285C347.02 177.762 348.684 176.5 352.012 176.5C353.083 176.5 354.153 176.578 355.223 176.734V175.574C355.223 174.16 354.118 173.453 351.907 173.453C350.641 173.453 349.344 173.648 348.016 174.039V172.281C349.344 171.891 350.641 171.695 351.907 171.695C355.563 171.695 357.391 172.969 357.391 175.516V184H356.172L355.422 182.781C354.196 183.594 352.86 184 351.415 184C348.485 184 347.02 182.762 347.02 180.285ZM352.012 178.258C350.129 178.258 349.188 178.922 349.188 180.25C349.188 181.578 349.93 182.242 351.415 182.242C352.915 182.242 354.184 181.844 355.223 181.047V178.492C354.153 178.336 353.083 178.258 352.012 178.258ZM373.257 183.414V181.539C374.702 182.008 376.163 182.242 377.64 182.242C379.6 182.242 380.581 181.656 380.581 180.484C380.581 179.391 379.897 178.844 378.53 178.844H376.772C374.116 178.844 372.788 177.633 372.788 175.211C372.788 172.867 374.495 171.695 377.909 171.695C379.378 171.695 380.835 171.891 382.28 172.281V174.156C380.835 173.688 379.378 173.453 377.909 173.453C375.862 173.453 374.839 174.039 374.839 175.211C374.839 176.305 375.483 176.852 376.772 176.852H378.53C381.343 176.852 382.749 178.062 382.749 180.484C382.749 182.828 381.046 184 377.64 184C376.163 184 374.702 183.805 373.257 183.414ZM390.753 171.695C394.253 171.695 396.003 173.426 396.003 176.887C396.003 177.379 395.968 177.906 395.897 178.469H387.261C387.261 180.984 388.729 182.242 391.667 182.242C393.065 182.242 394.307 182.086 395.393 181.773V183.531C394.307 183.844 392.987 184 391.432 184C387.206 184 385.093 181.902 385.093 177.707C385.093 173.699 386.979 171.695 390.753 171.695ZM387.261 176.664H393.917C393.87 174.508 392.815 173.43 390.753 173.43C388.565 173.43 387.401 174.508 387.261 176.664ZM401.206 167.242V184H399.038V167.242H401.206ZM409.925 171.695C413.425 171.695 415.175 173.426 415.175 176.887C415.175 177.379 415.139 177.906 415.069 178.469H406.432C406.432 180.984 407.901 182.242 410.839 182.242C412.237 182.242 413.479 182.086 414.565 181.773V183.531C413.479 183.844 412.159 184 410.604 184C406.378 184 404.264 181.902 404.264 177.707C404.264 173.699 406.151 171.695 409.925 171.695ZM406.432 176.664H413.089C413.042 174.508 411.987 173.43 409.925 173.43C407.737 173.43 406.573 174.508 406.432 176.664ZM427.35 183.648C426.335 183.883 425.241 184 424.069 184C419.694 184 417.507 181.871 417.507 177.613C417.507 173.668 419.694 171.695 424.069 171.695C425.241 171.695 426.335 171.812 427.35 172.047V173.805C426.335 173.57 425.202 173.453 423.952 173.453C421.1 173.453 419.675 174.84 419.675 177.613C419.675 180.699 421.1 182.242 423.952 182.242C425.202 182.242 426.335 182.125 427.35 181.891V183.648ZM439.374 183.648C438.358 183.883 437.264 184 436.093 184C431.718 184 429.53 181.871 429.53 177.613C429.53 173.668 431.718 171.695 436.093 171.695C437.264 171.695 438.358 171.812 439.374 172.047V173.805C438.358 173.57 437.225 173.453 435.975 173.453C433.124 173.453 431.698 174.84 431.698 177.613C431.698 180.699 433.124 182.242 435.975 182.242C437.225 182.242 438.358 182.125 439.374 181.891V183.648ZM444.542 171.695V184H442.374V171.695H444.542ZM444.542 167.242V169.293H442.374V167.242H444.542ZM449.886 177.801C449.886 180.762 451.116 182.242 453.577 182.242C456.038 182.242 457.268 180.762 457.268 177.801C457.268 174.902 456.038 173.453 453.577 173.453C451.116 173.453 449.886 174.902 449.886 177.801ZM447.718 177.848C447.718 173.746 449.671 171.695 453.577 171.695C457.483 171.695 459.436 173.746 459.436 177.848C459.436 181.941 457.483 183.988 453.577 183.988C449.686 183.988 447.733 181.941 447.718 177.848ZM453.929 167.242H456.729L453.929 170.043H452.007L453.929 167.242ZM462.366 184V171.695H463.831L464.218 173.266C465.475 172.219 466.858 171.695 468.366 171.695C471.436 171.695 472.972 173.223 472.972 176.277V184H470.804V176.242C470.804 174.414 469.893 173.5 468.073 173.5C466.831 173.5 465.651 174.02 464.534 175.059V184H462.366ZM497.216 174.203C496.341 173.781 495.341 173.57 494.216 173.57C491.739 173.57 490.501 174.887 490.501 177.52C490.501 180.637 491.739 182.195 494.216 182.195C495.341 182.195 496.341 182.043 497.216 181.738V174.203ZM499.384 183.262C497.892 183.754 496.052 184 493.864 184C490.2 184 488.368 181.867 488.368 177.602C488.368 173.664 490.314 171.695 494.204 171.695C495.267 171.695 496.271 171.891 497.216 172.281V167.242H499.384V183.262ZM507.974 171.695C511.474 171.695 513.224 173.426 513.224 176.887C513.224 177.379 513.189 177.906 513.118 178.469H504.482C504.482 180.984 505.95 182.242 508.888 182.242C510.286 182.242 511.528 182.086 512.614 181.773V183.531C511.528 183.844 510.208 184 508.653 184C504.427 184 502.314 181.902 502.314 177.707C502.314 173.699 504.2 171.695 507.974 171.695ZM504.482 176.664H511.138C511.091 174.508 510.036 173.43 507.974 173.43C505.786 173.43 504.622 174.508 504.482 176.664ZM528.48 183.414V181.539C529.925 182.008 531.386 182.242 532.863 182.242C534.824 182.242 535.804 181.656 535.804 180.484C535.804 179.391 535.121 178.844 533.753 178.844H531.996C529.339 178.844 528.011 177.633 528.011 175.211C528.011 172.867 529.718 171.695 533.132 171.695C534.601 171.695 536.058 171.891 537.503 172.281V174.156C536.058 173.688 534.601 173.453 533.132 173.453C531.085 173.453 530.062 174.039 530.062 175.211C530.062 176.305 530.706 176.852 531.996 176.852H533.753C536.566 176.852 537.972 178.062 537.972 180.484C537.972 182.828 536.269 184 532.863 184C531.386 184 529.925 183.805 528.48 183.414ZM545.976 171.695C549.476 171.695 551.226 173.426 551.226 176.887C551.226 177.379 551.191 177.906 551.121 178.469H542.484C542.484 180.984 543.953 182.242 546.89 182.242C548.289 182.242 549.531 182.086 550.617 181.773V183.531C549.531 183.844 548.21 184 546.656 184C542.429 184 540.316 181.902 540.316 177.707C540.316 173.699 542.203 171.695 545.976 171.695ZM542.484 176.664H549.14C549.093 174.508 548.039 173.43 545.976 173.43C543.789 173.43 542.624 174.508 542.484 176.664ZM554.144 184V171.695H555.609L555.996 173.266C557.074 172.219 558.371 171.695 559.886 171.695V173.5C558.417 173.5 557.226 174.02 556.312 175.059V184H554.144ZM560.308 171.695H562.652L566.179 181.34L569.683 171.695H572.027L567.023 184H565.007L560.308 171.695ZM576.187 171.695V184H574.019V171.695H576.187ZM576.187 167.242V169.293H574.019V167.242H576.187ZM589.206 183.648C588.191 183.883 587.097 184 585.925 184C581.55 184 579.363 181.871 579.363 177.613C579.363 173.668 581.55 171.695 585.925 171.695C587.097 171.695 588.191 171.812 589.206 172.047V173.805C588.191 173.57 587.058 173.453 585.808 173.453C582.956 173.453 581.531 174.84 581.531 177.613C581.531 180.699 582.956 182.242 585.808 182.242C587.058 182.242 588.191 182.125 589.206 181.891V183.648ZM594.374 171.695V184H592.206V171.695H594.374ZM594.374 167.242V169.293H592.206V167.242H594.374ZM599.718 177.801C599.718 180.762 600.949 182.242 603.41 182.242C605.871 182.242 607.101 180.762 607.101 177.801C607.101 174.902 605.871 173.453 603.41 173.453C600.949 173.453 599.718 174.902 599.718 177.801ZM597.55 177.848C597.55 173.746 599.503 171.695 603.41 171.695C607.316 171.695 609.269 173.746 609.269 177.848C609.269 181.941 607.316 183.988 603.41 183.988C599.519 183.988 597.566 181.941 597.55 177.848ZM612.081 183.414V181.539C613.527 182.008 614.988 182.242 616.464 182.242C618.425 182.242 619.406 181.656 619.406 180.484C619.406 179.391 618.722 178.844 617.355 178.844H615.597C612.941 178.844 611.613 177.633 611.613 175.211C611.613 172.867 613.32 171.695 616.734 171.695C618.203 171.695 619.66 171.891 621.105 172.281V174.156C619.66 173.688 618.203 173.453 616.734 173.453C614.687 173.453 613.664 174.039 613.664 175.211C613.664 176.305 614.308 176.852 615.597 176.852H617.355C620.167 176.852 621.574 178.062 621.574 180.484C621.574 182.828 619.871 184 616.464 184C614.988 184 613.527 183.805 612.081 183.414ZM642.033 171.695C645.533 171.695 647.283 173.426 647.283 176.887C647.283 177.379 647.248 177.906 647.177 178.469H638.541C638.541 180.984 640.009 182.242 642.947 182.242C644.345 182.242 645.588 182.086 646.674 181.773V183.531C645.588 183.844 644.267 184 642.713 184C638.486 184 636.373 181.902 636.373 177.707C636.373 173.699 638.259 171.695 642.033 171.695ZM638.541 176.664H645.197C645.15 174.508 644.095 173.43 642.033 173.43C639.845 173.43 638.681 174.508 638.541 176.664ZM650.201 184V171.695H651.666L652.052 173.266C653.31 172.219 654.693 171.695 656.201 171.695C659.271 171.695 660.806 173.223 660.806 176.277V184H658.638V176.242C658.638 174.414 657.728 173.5 655.908 173.5C654.666 173.5 653.486 174.02 652.369 175.059V184H650.201ZM676.789 184V171.695H678.254L678.641 173.266C679.898 172.219 681.281 171.695 682.789 171.695C685.859 171.695 687.395 173.223 687.395 176.277V184H685.227V176.242C685.227 174.414 684.316 173.5 682.496 173.5C681.254 173.5 680.074 174.02 678.957 175.059V184H676.789ZM701.527 171.695V184H700.039L699.664 182.43C698.172 183.477 696.672 184 695.164 184C692.336 184 690.922 182.473 690.922 179.418V171.695H693.09V179.453C693.09 181.281 693.996 182.195 695.809 182.195C697.051 182.195 698.234 181.676 699.359 180.637V171.695H701.527ZM710.129 171.695C713.629 171.695 715.379 173.426 715.379 176.887C715.379 177.379 715.344 177.906 715.273 178.469H706.637C706.637 180.984 708.105 182.242 711.043 182.242C712.441 182.242 713.684 182.086 714.77 181.773V183.531C713.684 183.844 712.363 184 710.809 184C706.582 184 704.469 181.902 704.469 177.707C704.469 173.699 706.355 171.695 710.129 171.695ZM706.637 176.664H713.293C713.246 174.508 712.191 173.43 710.129 173.43C707.941 173.43 706.777 174.508 706.637 176.664ZM718.18 183.414V181.539C719.625 182.008 721.086 182.242 722.562 182.242C724.523 182.242 725.504 181.656 725.504 180.484C725.504 179.391 724.82 178.844 723.453 178.844H721.695C719.039 178.844 717.711 177.633 717.711 175.211C717.711 172.867 719.418 171.695 722.832 171.695C724.301 171.695 725.758 171.891 727.203 172.281V174.156C725.758 173.688 724.301 173.453 722.832 173.453C720.785 173.453 719.762 174.039 719.762 175.211C719.762 176.305 720.406 176.852 721.695 176.852H723.453C726.266 176.852 727.672 178.062 727.672 180.484C727.672 182.828 725.969 184 722.562 184C721.086 184 719.625 183.805 718.18 183.414ZM730.602 169.703H731.961L732.43 171.695H735.758V173.453H732.77V180.52C732.77 181.668 733.266 182.242 734.258 182.242H735.758V184H733.695C731.633 184 730.602 182.895 730.602 180.684V169.703ZM738.523 184V171.695H739.988L740.375 173.266C741.453 172.219 742.75 171.695 744.266 171.695V173.5C742.797 173.5 741.605 174.02 740.691 175.059V184H738.523ZM745.859 180.285C745.859 177.762 747.523 176.5 750.852 176.5C751.922 176.5 752.992 176.578 754.062 176.734V175.574C754.062 174.16 752.957 173.453 750.746 173.453C749.48 173.453 748.184 173.648 746.855 174.039V172.281C748.184 171.891 749.48 171.695 750.746 171.695C754.402 171.695 756.23 172.969 756.23 175.516V184H755.012L754.262 182.781C753.035 183.594 751.699 184 750.254 184C747.324 184 745.859 182.762 745.859 180.285ZM750.852 178.258C748.969 178.258 748.027 178.922 748.027 180.25C748.027 181.578 748.77 182.242 750.254 182.242C751.754 182.242 753.023 181.844 754.062 181.047V178.492C752.992 178.336 751.922 178.258 750.852 178.258ZM140.926 208.492C141.777 208.914 142.727 209.125 143.773 209.125C146.328 209.125 147.605 207.59 147.605 204.52C147.605 201.84 146.336 200.5 143.797 200.5C142.703 200.5 141.746 200.594 140.926 200.781V208.492ZM138.758 199.199C140.391 198.863 142.078 198.695 143.82 198.695C147.766 198.695 149.738 200.645 149.738 204.543C149.738 208.848 147.754 211 143.785 211C142.801 211 141.848 210.805 140.926 210.414V215.453H138.758V199.199ZM154.965 194.242V211H152.797V194.242H154.965ZM158.023 207.285C158.023 204.762 159.688 203.5 163.016 203.5C164.086 203.5 165.156 203.578 166.227 203.734V202.574C166.227 201.16 165.121 200.453 162.91 200.453C161.645 200.453 160.348 200.648 159.02 201.039V199.281C160.348 198.891 161.645 198.695 162.91 198.695C166.566 198.695 168.395 199.969 168.395 202.516V211H167.176L166.426 209.781C165.199 210.594 163.863 211 162.418 211C159.488 211 158.023 209.762 158.023 207.285ZM163.016 205.258C161.133 205.258 160.191 205.922 160.191 207.25C160.191 208.578 160.934 209.242 162.418 209.242C163.918 209.242 165.188 208.844 166.227 208.047V205.492C165.156 205.336 164.086 205.258 163.016 205.258ZM171.922 196.703H173.281L173.75 198.695H177.078V200.453H174.09V207.52C174.09 208.668 174.586 209.242 175.578 209.242H177.078V211H175.016C172.953 211 171.922 209.895 171.922 207.684V196.703ZM179.258 207.285C179.258 204.762 180.922 203.5 184.25 203.5C185.32 203.5 186.391 203.578 187.461 203.734V202.574C187.461 201.16 186.355 200.453 184.145 200.453C182.879 200.453 181.582 200.648 180.254 201.039V199.281C181.582 198.891 182.879 198.695 184.145 198.695C187.801 198.695 189.629 199.969 189.629 202.516V211H188.41L187.66 209.781C186.434 210.594 185.098 211 183.652 211C180.723 211 179.258 209.762 179.258 207.285ZM184.25 205.258C182.367 205.258 181.426 205.922 181.426 207.25C181.426 208.578 182.168 209.242 183.652 209.242C185.152 209.242 186.422 208.844 187.461 208.047V205.492C186.391 205.336 185.32 205.258 184.25 205.258ZM193.156 211V198.098C193.156 195.121 194.844 193.633 198.219 193.633C199.148 193.633 200.023 193.789 200.844 194.102V195.859C200.07 195.547 199.191 195.391 198.207 195.391C196.285 195.391 195.324 196.262 195.324 198.004V198.695H199.133V200.453H195.324V211H193.156ZM203.082 204.801C203.082 207.762 204.312 209.242 206.773 209.242C209.234 209.242 210.465 207.762 210.465 204.801C210.465 201.902 209.234 200.453 206.773 200.453C204.312 200.453 203.082 201.902 203.082 204.801ZM200.914 204.848C200.914 200.746 202.867 198.695 206.773 198.695C210.68 198.695 212.633 200.746 212.633 204.848C212.633 208.941 210.68 210.988 206.773 210.988C202.883 210.988 200.93 208.941 200.914 204.848ZM215.562 211V198.695H217.027L217.414 200.266C218.492 199.219 219.789 198.695 221.305 198.695V200.5C219.836 200.5 218.645 201.02 217.73 202.059V211H215.562ZM223.484 211V198.695H224.949L225.312 200.242C226.492 199.211 227.777 198.695 229.168 198.695C230.949 198.695 232.164 199.258 232.812 200.383C234.148 199.258 235.504 198.695 236.879 198.695C239.707 198.695 241.121 200.254 241.121 203.371V211H238.953V203.254C238.953 201.418 238.18 200.5 236.633 200.5C235.477 200.5 234.395 201.031 233.387 202.094V211H231.219V203.289C231.219 201.43 230.453 200.5 228.922 200.5C227.703 200.5 226.613 201.031 225.652 202.094V211H223.484ZM244.062 207.285C244.062 204.762 245.727 203.5 249.055 203.5C250.125 203.5 251.195 203.578 252.266 203.734V202.574C252.266 201.16 251.16 200.453 248.949 200.453C247.684 200.453 246.387 200.648 245.059 201.039V199.281C246.387 198.891 247.684 198.695 248.949 198.695C252.605 198.695 254.434 199.969 254.434 202.516V211H253.215L252.465 209.781C251.238 210.594 249.902 211 248.457 211C245.527 211 244.062 209.762 244.062 207.285ZM249.055 205.258C247.172 205.258 246.23 205.922 246.23 207.25C246.23 208.578 246.973 209.242 248.457 209.242C249.957 209.242 251.227 208.844 252.266 208.047V205.492C251.195 205.336 250.125 205.258 249.055 205.258ZM259.543 208.832V211H257.375V208.832H259.543ZM288.357 194.242V196H279.568V201.625H287.947V203.383H279.568V209.242H288.533V211H277.4V194.242H288.357ZM291.58 211V198.695H293.045L293.431 200.266C294.689 199.219 296.072 198.695 297.58 198.695C300.65 198.695 302.185 200.223 302.185 203.277V211H300.017V203.242C300.017 201.414 299.107 200.5 297.287 200.5C296.045 200.5 294.865 201.02 293.748 202.059V211H291.58ZM314.97 210.648C313.955 210.883 312.861 211 311.689 211C307.314 211 305.127 208.871 305.127 204.613C305.127 200.668 307.314 198.695 311.689 198.695C312.861 198.695 313.955 198.812 314.97 199.047V200.805C313.955 200.57 312.822 200.453 311.572 200.453C308.72 200.453 307.295 201.84 307.295 204.613C307.295 207.699 308.72 209.242 311.572 209.242C312.822 209.242 313.955 209.125 314.97 208.891V210.648ZM328.341 198.695V211H326.853L326.478 209.43C324.986 210.477 323.486 211 321.978 211C319.15 211 317.736 209.473 317.736 206.418V198.695H319.904V206.453C319.904 208.281 320.81 209.195 322.623 209.195C323.865 209.195 325.048 208.676 326.173 207.637V198.695H328.341ZM336.943 198.695C340.443 198.695 342.193 200.426 342.193 203.887C342.193 204.379 342.158 204.906 342.087 205.469H333.451C333.451 207.984 334.92 209.242 337.857 209.242C339.255 209.242 340.498 209.086 341.584 208.773V210.531C340.498 210.844 339.177 211 337.623 211C333.396 211 331.283 208.902 331.283 204.707C331.283 200.699 333.17 198.695 336.943 198.695ZM333.451 203.664H340.107C340.06 201.508 339.005 200.43 336.943 200.43C334.755 200.43 333.591 201.508 333.451 203.664ZM345.111 211V198.695H346.576L346.962 200.266C348.22 199.219 349.603 198.695 351.111 198.695C354.181 198.695 355.716 200.223 355.716 203.277V211H353.548V203.242C353.548 201.414 352.638 200.5 350.818 200.5C349.576 200.5 348.396 201.02 347.279 202.059V211H345.111ZM359.244 196.703H360.603L361.072 198.695H364.4V200.453H361.412V207.52C361.412 208.668 361.908 209.242 362.9 209.242H364.4V211H362.337C360.275 211 359.244 209.895 359.244 207.684V196.703ZM367.166 211V198.695H368.63L369.017 200.266C370.095 199.219 371.392 198.695 372.908 198.695V200.5C371.439 200.5 370.248 201.02 369.334 202.059V211H367.166ZM374.502 207.285C374.502 204.762 376.166 203.5 379.494 203.5C380.564 203.5 381.634 203.578 382.705 203.734V202.574C382.705 201.16 381.599 200.453 379.388 200.453C378.123 200.453 376.826 200.648 375.498 201.039V199.281C376.826 198.891 378.123 198.695 379.388 198.695C383.045 198.695 384.873 199.969 384.873 202.516V211H383.654L382.904 209.781C381.677 210.594 380.341 211 378.896 211C375.966 211 374.502 209.762 374.502 207.285ZM379.494 205.258C377.611 205.258 376.67 205.922 376.67 207.25C376.67 208.578 377.412 209.242 378.896 209.242C380.396 209.242 381.666 208.844 382.705 208.047V205.492C381.634 205.336 380.564 205.258 379.494 205.258ZM411.343 201.203C410.468 200.781 409.468 200.57 408.343 200.57C405.866 200.57 404.628 201.887 404.628 204.52C404.628 207.637 405.866 209.195 408.343 209.195C409.468 209.195 410.468 209.043 411.343 208.738V201.203ZM413.511 210.262C412.019 210.754 410.179 211 407.991 211C404.327 211 402.495 208.867 402.495 204.602C402.495 200.664 404.441 198.695 408.331 198.695C409.394 198.695 410.398 198.891 411.343 199.281V194.242H413.511V210.262ZM422.101 198.695C425.601 198.695 427.351 200.426 427.351 203.887C427.351 204.379 427.316 204.906 427.245 205.469H418.609C418.609 207.984 420.077 209.242 423.015 209.242C424.413 209.242 425.655 209.086 426.741 208.773V210.531C425.655 210.844 424.335 211 422.78 211C418.554 211 416.441 208.902 416.441 204.707C416.441 200.699 418.327 198.695 422.101 198.695ZM418.609 203.664H425.265C425.218 201.508 424.163 200.43 422.101 200.43C419.913 200.43 418.749 201.508 418.609 203.664ZM430.152 210.414V208.539C431.597 209.008 433.058 209.242 434.534 209.242C436.495 209.242 437.476 208.656 437.476 207.484C437.476 206.391 436.792 205.844 435.425 205.844H433.667C431.011 205.844 429.683 204.633 429.683 202.211C429.683 199.867 431.39 198.695 434.804 198.695C436.273 198.695 437.73 198.891 439.175 199.281V201.156C437.73 200.688 436.273 200.453 434.804 200.453C432.757 200.453 431.734 201.039 431.734 202.211C431.734 203.305 432.378 203.852 433.667 203.852H435.425C438.237 203.852 439.644 205.062 439.644 207.484C439.644 209.828 437.941 211 434.534 211C433.058 211 431.597 210.805 430.152 210.414ZM450.835 201.203C449.96 200.781 448.96 200.57 447.835 200.57C445.359 200.57 444.12 201.887 444.12 204.52C444.12 207.637 445.359 209.195 447.835 209.195C448.96 209.195 449.96 209.043 450.835 208.738V201.203ZM453.003 210.262C451.511 210.754 449.671 211 447.484 211C443.82 211 441.987 208.867 441.987 204.602C441.987 200.664 443.933 198.695 447.823 198.695C448.886 198.695 449.89 198.891 450.835 199.281V194.242H453.003V210.262ZM461.593 198.695C465.093 198.695 466.843 200.426 466.843 203.887C466.843 204.379 466.808 204.906 466.737 205.469H458.101C458.101 207.984 459.57 209.242 462.507 209.242C463.905 209.242 465.148 209.086 466.234 208.773V210.531C465.148 210.844 463.827 211 462.273 211C458.046 211 455.933 208.902 455.933 204.707C455.933 200.699 457.82 198.695 461.593 198.695ZM458.101 203.664H464.757C464.71 201.508 463.655 200.43 461.593 200.43C459.405 200.43 458.241 201.508 458.101 203.664ZM486.727 194.242V211H484.559V194.242H486.727ZM492.774 198.695V211H490.606V198.695H492.774ZM492.774 194.242V196.293H490.606V194.242H492.774ZM496.536 211V198.695H498.001L498.364 200.242C499.544 199.211 500.829 198.695 502.22 198.695C504.001 198.695 505.216 199.258 505.864 200.383C507.2 199.258 508.555 198.695 509.93 198.695C512.759 198.695 514.173 200.254 514.173 203.371V211H512.005V203.254C512.005 201.418 511.231 200.5 509.684 200.5C508.528 200.5 507.446 201.031 506.438 202.094V211H504.27V203.289C504.27 201.43 503.505 200.5 501.973 200.5C500.755 200.5 499.665 201.031 498.704 202.094V211H496.536ZM519.868 208.492C520.72 208.914 521.669 209.125 522.716 209.125C525.27 209.125 526.548 207.59 526.548 204.52C526.548 201.84 525.278 200.5 522.739 200.5C521.645 200.5 520.688 200.594 519.868 200.781V208.492ZM517.7 199.199C519.333 198.863 521.02 198.695 522.763 198.695C526.708 198.695 528.68 200.645 528.68 204.543C528.68 208.848 526.696 211 522.727 211C521.743 211 520.79 210.805 519.868 210.414V215.453H517.7V199.199ZM534.024 198.695V211H531.856V198.695H534.024ZM534.024 194.242V196.293H531.856V194.242H534.024ZM542.86 198.695C546.36 198.695 548.11 200.426 548.11 203.887C548.11 204.379 548.075 204.906 548.005 205.469H539.368C539.368 207.984 540.837 209.242 543.774 209.242C545.173 209.242 546.415 209.086 547.501 208.773V210.531C546.415 210.844 545.095 211 543.54 211C539.313 211 537.2 208.902 537.2 204.707C537.2 200.699 539.087 198.695 542.86 198.695ZM539.368 203.664H546.024C545.977 201.508 544.923 200.43 542.86 200.43C540.673 200.43 539.509 201.508 539.368 203.664ZM550.677 198.695H560.286V200.453L552.938 209.359H560.052V211H550.442V209.359L557.884 200.453H550.677V198.695ZM562.63 207.285C562.63 204.762 564.294 203.5 567.622 203.5C568.692 203.5 569.763 203.578 570.833 203.734V202.574C570.833 201.16 569.727 200.453 567.516 200.453C566.251 200.453 564.954 200.648 563.626 201.039V199.281C564.954 198.891 566.251 198.695 567.516 198.695C571.173 198.695 573.001 199.969 573.001 202.516V211H571.782L571.032 209.781C569.805 210.594 568.47 211 567.024 211C564.095 211 562.63 209.762 562.63 207.285ZM567.622 205.258C565.739 205.258 564.798 205.922 564.798 207.25C564.798 208.578 565.54 209.242 567.024 209.242C568.524 209.242 569.794 208.844 570.833 208.047V205.492C569.763 205.336 568.692 205.258 567.622 205.258ZM589.745 198.695H592.1L595.58 208.305L599.178 198.695H601.475L596.366 211.363C595.459 213.598 594.1 214.992 592.288 215.547L591.455 214.012C592.83 213.41 593.83 212.43 594.455 211.07L589.745 198.695ZM618.195 211V198.695H619.66L620.047 200.266C621.125 199.219 622.422 198.695 623.938 198.695V200.5C622.469 200.5 621.277 201.02 620.363 202.059V211H618.195ZM631.191 198.695C634.691 198.695 636.441 200.426 636.441 203.887C636.441 204.379 636.406 204.906 636.336 205.469H627.699C627.699 207.984 629.168 209.242 632.105 209.242C633.504 209.242 634.746 209.086 635.832 208.773V210.531C634.746 210.844 633.426 211 631.871 211C627.645 211 625.531 208.902 625.531 204.707C625.531 200.699 627.418 198.695 631.191 198.695ZM627.699 203.664H634.355C634.309 201.508 633.254 200.43 631.191 200.43C629.004 200.43 627.84 201.508 627.699 203.664ZM641.527 208.492C642.379 208.914 643.328 209.125 644.375 209.125C646.93 209.125 648.207 207.59 648.207 204.52C648.207 201.84 646.938 200.5 644.398 200.5C643.305 200.5 642.348 200.594 641.527 200.781V208.492ZM639.359 199.199C640.992 198.863 642.68 198.695 644.422 198.695C648.367 198.695 650.34 200.645 650.34 204.543C650.34 208.848 648.355 211 644.387 211C643.402 211 642.449 210.805 641.527 210.414V215.453H639.359V199.199ZM652.695 207.285C652.695 204.762 654.359 203.5 657.688 203.5C658.758 203.5 659.828 203.578 660.898 203.734V202.574C660.898 201.16 659.793 200.453 657.582 200.453C656.316 200.453 655.02 200.648 653.691 201.039V199.281C655.02 198.891 656.316 198.695 657.582 198.695C661.238 198.695 663.066 199.969 663.066 202.516V211H661.848L661.098 209.781C659.871 210.594 658.535 211 657.09 211C654.16 211 652.695 209.762 652.695 207.285ZM657.688 205.258C655.805 205.258 654.863 205.922 654.863 207.25C654.863 208.578 655.605 209.242 657.09 209.242C658.59 209.242 659.859 208.844 660.898 208.047V205.492C659.828 205.336 658.758 205.258 657.688 205.258ZM666.594 211V198.695H668.059L668.445 200.266C669.523 199.219 670.82 198.695 672.336 198.695V200.5C670.867 200.5 669.676 201.02 668.762 202.059V211H666.594ZM673.93 207.285C673.93 204.762 675.594 203.5 678.922 203.5C679.992 203.5 681.062 203.578 682.133 203.734V202.574C682.133 201.16 681.027 200.453 678.816 200.453C677.551 200.453 676.254 200.648 674.926 201.039V199.281C676.254 198.891 677.551 198.695 678.816 198.695C682.473 198.695 684.301 199.969 684.301 202.516V211H683.082L682.332 209.781C681.105 210.594 679.77 211 678.324 211C675.395 211 673.93 209.762 673.93 207.285ZM678.922 205.258C677.039 205.258 676.098 205.922 676.098 207.25C676.098 208.578 676.84 209.242 678.324 209.242C679.824 209.242 681.094 208.844 682.133 208.047V205.492C681.062 205.336 679.992 205.258 678.922 205.258ZM697.086 210.648C696.07 210.883 694.977 211 693.805 211C689.43 211 687.242 208.871 687.242 204.613C687.242 200.668 689.43 198.695 693.805 198.695C694.977 198.695 696.07 198.812 697.086 199.047V200.805C696.07 200.57 694.938 200.453 693.688 200.453C690.836 200.453 689.41 201.84 689.41 204.613C689.41 207.699 690.836 209.242 693.688 209.242C694.938 209.242 696.07 209.125 697.086 208.891V210.648ZM702.254 198.695V211H700.086V198.695H702.254ZM702.254 194.242V196.293H700.086V194.242H702.254ZM707.598 204.801C707.598 207.762 708.828 209.242 711.289 209.242C713.75 209.242 714.98 207.762 714.98 204.801C714.98 201.902 713.75 200.453 711.289 200.453C708.828 200.453 707.598 201.902 707.598 204.801ZM705.43 204.848C705.43 200.746 707.383 198.695 711.289 198.695C715.195 198.695 717.148 200.746 717.148 204.848C717.148 208.941 715.195 210.988 711.289 210.988C707.398 210.988 705.445 208.941 705.43 204.848ZM720.078 211V198.695H721.543L721.93 200.266C723.188 199.219 724.57 198.695 726.078 198.695C729.148 198.695 730.684 200.223 730.684 203.277V211H728.516V203.242C728.516 201.414 727.605 200.5 725.785 200.5C724.543 200.5 723.363 201.02 722.246 202.059V211H720.078ZM739.285 198.695C742.785 198.695 744.535 200.426 744.535 203.887C744.535 204.379 744.5 204.906 744.43 205.469H735.793C735.793 207.984 737.262 209.242 740.199 209.242C741.598 209.242 742.84 209.086 743.926 208.773V210.531C742.84 210.844 741.52 211 739.965 211C735.738 211 733.625 208.902 733.625 204.707C733.625 200.699 735.512 198.695 739.285 198.695ZM735.793 203.664H742.449C742.402 201.508 741.348 200.43 739.285 200.43C737.098 200.43 735.934 201.508 735.793 203.664ZM747.336 210.414V208.539C748.781 209.008 750.242 209.242 751.719 209.242C753.68 209.242 754.66 208.656 754.66 207.484C754.66 206.391 753.977 205.844 752.609 205.844H750.852C748.195 205.844 746.867 204.633 746.867 202.211C746.867 199.867 748.574 198.695 751.988 198.695C753.457 198.695 754.914 198.891 756.359 199.281V201.156C754.914 200.688 753.457 200.453 751.988 200.453C749.941 200.453 748.918 201.039 748.918 202.211C748.918 203.305 749.562 203.852 750.852 203.852H752.609C755.422 203.852 756.828 205.062 756.828 207.484C756.828 209.828 755.125 211 751.719 211C750.242 211 748.781 210.805 747.336 210.414ZM138.758 238V221.242H140.926V227.031C141.973 226.141 143.25 225.695 144.758 225.695C147.828 225.695 149.363 227.223 149.363 230.277V238H147.195V230.242C147.195 228.414 146.285 227.5 144.465 227.5C143.223 227.5 142.043 228.02 140.926 229.059V238H138.758ZM152.305 234.285C152.305 231.762 153.969 230.5 157.297 230.5C158.367 230.5 159.438 230.578 160.508 230.734V229.574C160.508 228.16 159.402 227.453 157.191 227.453C155.926 227.453 154.629 227.648 153.301 228.039V226.281C154.629 225.891 155.926 225.695 157.191 225.695C160.848 225.695 162.676 226.969 162.676 229.516V238H161.457L160.707 236.781C159.48 237.594 158.145 238 156.699 238C153.77 238 152.305 236.762 152.305 234.285ZM157.297 232.258C155.414 232.258 154.473 232.922 154.473 234.25C154.473 235.578 155.215 236.242 156.699 236.242C158.199 236.242 159.469 235.844 160.508 235.047V232.492C159.438 232.336 158.367 232.258 157.297 232.258ZM166.086 237.414V235.539C167.531 236.008 168.992 236.242 170.469 236.242C172.43 236.242 173.41 235.656 173.41 234.484C173.41 233.391 172.727 232.844 171.359 232.844H169.602C166.945 232.844 165.617 231.633 165.617 229.211C165.617 226.867 167.324 225.695 170.738 225.695C172.207 225.695 173.664 225.891 175.109 226.281V228.156C173.664 227.688 172.207 227.453 170.738 227.453C168.691 227.453 167.668 228.039 167.668 229.211C167.668 230.305 168.312 230.852 169.602 230.852H171.359C174.172 230.852 175.578 232.062 175.578 234.484C175.578 236.828 173.875 238 170.469 238C168.992 238 167.531 237.805 166.086 237.414ZM178.508 223.703H179.867L180.336 225.695H183.664V227.453H180.676V234.52C180.676 235.668 181.172 236.242 182.164 236.242H183.664V238H181.602C179.539 238 178.508 236.895 178.508 234.684V223.703ZM185.844 234.285C185.844 231.762 187.508 230.5 190.836 230.5C191.906 230.5 192.977 230.578 194.047 230.734V229.574C194.047 228.16 192.941 227.453 190.73 227.453C189.465 227.453 188.168 227.648 186.84 228.039V226.281C188.168 225.891 189.465 225.695 190.73 225.695C194.387 225.695 196.215 226.969 196.215 229.516V238H194.996L194.246 236.781C193.02 237.594 191.684 238 190.238 238C187.309 238 185.844 236.762 185.844 234.285ZM190.836 232.258C188.953 232.258 188.012 232.922 188.012 234.25C188.012 235.578 188.754 236.242 190.238 236.242C191.738 236.242 193.008 235.844 194.047 235.047V232.492C192.977 232.336 191.906 232.258 190.836 232.258ZM221.056 237.414V235.539C222.502 236.008 223.963 236.242 225.439 236.242C227.4 236.242 228.38 235.656 228.38 234.484C228.38 233.391 227.697 232.844 226.33 232.844H224.572C221.916 232.844 220.588 231.633 220.588 229.211C220.588 226.867 222.295 225.695 225.709 225.695C227.177 225.695 228.634 225.891 230.08 226.281V228.156C228.634 227.688 227.177 227.453 225.709 227.453C223.662 227.453 222.638 228.039 222.638 229.211C222.638 230.305 223.283 230.852 224.572 230.852H226.33C229.142 230.852 230.548 232.062 230.548 234.484C230.548 236.828 228.845 238 225.439 238C223.963 238 222.502 237.805 221.056 237.414ZM238.552 225.695C242.052 225.695 243.802 227.426 243.802 230.887C243.802 231.379 243.767 231.906 243.697 232.469H235.06C235.06 234.984 236.529 236.242 239.466 236.242C240.865 236.242 242.107 236.086 243.193 235.773V237.531C242.107 237.844 240.787 238 239.232 238C235.005 238 232.892 235.902 232.892 231.707C232.892 227.699 234.779 225.695 238.552 225.695ZM235.06 230.664H241.716C241.67 228.508 240.615 227.43 238.552 227.43C236.365 227.43 235.201 228.508 235.06 230.664ZM246.72 238V225.695H248.185L248.572 227.266C249.65 226.219 250.947 225.695 252.463 225.695V227.5C250.994 227.5 249.802 228.02 248.888 229.059V238H246.72ZM252.884 225.695H255.228L258.755 235.34L262.259 225.695H264.603L259.599 238H257.584L252.884 225.695ZM268.763 225.695V238H266.595V225.695H268.763ZM268.763 221.242V223.293H266.595V221.242H268.763ZM281.783 237.648C280.767 237.883 279.673 238 278.502 238C274.127 238 271.939 235.871 271.939 231.613C271.939 227.668 274.127 225.695 278.502 225.695C279.673 225.695 280.767 225.812 281.783 226.047V227.805C280.767 227.57 279.634 227.453 278.384 227.453C275.533 227.453 274.107 228.84 274.107 231.613C274.107 234.699 275.533 236.242 278.384 236.242C279.634 236.242 280.767 236.125 281.783 235.891V237.648ZM286.951 225.695V238H284.783V225.695H286.951ZM286.951 221.242V223.293H284.783V221.242H286.951ZM292.295 231.801C292.295 234.762 293.525 236.242 295.986 236.242C298.447 236.242 299.677 234.762 299.677 231.801C299.677 228.902 298.447 227.453 295.986 227.453C293.525 227.453 292.295 228.902 292.295 231.801ZM290.127 231.848C290.127 227.746 292.08 225.695 295.986 225.695C299.892 225.695 301.845 227.746 301.845 231.848C301.845 235.941 299.892 237.988 295.986 237.988C292.095 237.988 290.142 235.941 290.127 231.848ZM304.658 237.414V235.539C306.103 236.008 307.564 236.242 309.041 236.242C311.002 236.242 311.982 235.656 311.982 234.484C311.982 233.391 311.298 232.844 309.931 232.844H308.173C305.517 232.844 304.189 231.633 304.189 229.211C304.189 226.867 305.896 225.695 309.31 225.695C310.779 225.695 312.236 225.891 313.681 226.281V228.156C312.236 227.688 310.779 227.453 309.31 227.453C307.263 227.453 306.24 228.039 306.24 229.211C306.24 230.305 306.884 230.852 308.173 230.852H309.931C312.744 230.852 314.15 232.062 314.15 234.484C314.15 236.828 312.447 238 309.041 238C307.564 238 306.103 237.805 304.658 237.414ZM343.585 225.695C347.085 225.695 348.835 227.426 348.835 230.887C348.835 231.379 348.8 231.906 348.73 232.469H340.093C340.093 234.984 341.562 236.242 344.499 236.242C345.898 236.242 347.14 236.086 348.226 235.773V237.531C347.14 237.844 345.82 238 344.265 238C340.038 238 337.925 235.902 337.925 231.707C337.925 227.699 339.812 225.695 343.585 225.695ZM340.093 230.664H346.749C346.702 228.508 345.648 227.43 343.585 227.43C341.398 227.43 340.234 228.508 340.093 230.664ZM351.636 237.414V235.539C353.081 236.008 354.542 236.242 356.019 236.242C357.98 236.242 358.96 235.656 358.96 234.484C358.96 233.391 358.277 232.844 356.909 232.844H355.152C352.495 232.844 351.167 231.633 351.167 229.211C351.167 226.867 352.874 225.695 356.288 225.695C357.757 225.695 359.214 225.891 360.659 226.281V228.156C359.214 227.688 357.757 227.453 356.288 227.453C354.241 227.453 353.218 228.039 353.218 229.211C353.218 230.305 353.863 230.852 355.152 230.852H356.909C359.722 230.852 361.128 232.062 361.128 234.484C361.128 236.828 359.425 238 356.019 238C354.542 238 353.081 237.805 351.636 237.414ZM366.226 235.492C367.077 235.914 368.027 236.125 369.073 236.125C371.628 236.125 372.905 234.59 372.905 231.52C372.905 228.84 371.636 227.5 369.097 227.5C368.003 227.5 367.046 227.594 366.226 227.781V235.492ZM364.058 226.199C365.691 225.863 367.378 225.695 369.12 225.695C373.066 225.695 375.038 227.645 375.038 231.543C375.038 235.848 373.054 238 369.085 238C368.101 238 367.148 237.805 366.226 237.414V242.453H364.058V226.199ZM383.054 225.695C386.554 225.695 388.304 227.426 388.304 230.887C388.304 231.379 388.269 231.906 388.198 232.469H379.562C379.562 234.984 381.03 236.242 383.968 236.242C385.366 236.242 386.609 236.086 387.695 235.773V237.531C386.609 237.844 385.288 238 383.734 238C379.507 238 377.394 235.902 377.394 231.707C377.394 227.699 379.28 225.695 383.054 225.695ZM379.562 230.664H386.218C386.171 228.508 385.116 227.43 383.054 227.43C380.866 227.43 379.702 228.508 379.562 230.664ZM400.48 237.648C399.464 237.883 398.37 238 397.198 238C392.823 238 390.636 235.871 390.636 231.613C390.636 227.668 392.823 225.695 397.198 225.695C398.37 225.695 399.464 225.812 400.48 226.047V227.805C399.464 227.57 398.331 227.453 397.081 227.453C394.23 227.453 392.804 228.84 392.804 231.613C392.804 234.699 394.23 236.242 397.081 236.242C398.331 236.242 399.464 236.125 400.48 235.891V237.648ZM405.648 225.695V238H403.48V225.695H405.648ZM405.648 221.242V223.293H403.48V221.242H405.648ZM408.823 234.285C408.823 231.762 410.487 230.5 413.816 230.5C414.886 230.5 415.956 230.578 417.027 230.734V229.574C417.027 228.16 415.921 227.453 413.71 227.453C412.445 227.453 411.148 227.648 409.82 228.039V226.281C411.148 225.891 412.445 225.695 413.71 225.695C417.366 225.695 419.195 226.969 419.195 229.516V238H417.976L417.226 236.781C415.999 237.594 414.663 238 413.218 238C410.288 238 408.823 236.762 408.823 234.285ZM413.816 232.258C411.933 232.258 410.991 232.922 410.991 234.25C410.991 235.578 411.734 236.242 413.218 236.242C414.718 236.242 415.987 235.844 417.027 235.047V232.492C415.956 232.336 414.886 232.258 413.816 232.258ZM425.007 221.242V238H422.839V221.242H425.007ZM431.054 225.695V238H428.886V225.695H431.054ZM431.054 221.242V223.293H428.886V221.242H431.054ZM434.464 225.695H444.073V227.453L436.726 236.359H443.839V238H434.23V236.359L441.671 227.453H434.464V225.695ZM446.417 234.285C446.417 231.762 448.081 230.5 451.409 230.5C452.48 230.5 453.55 230.578 454.62 230.734V229.574C454.62 228.16 453.515 227.453 451.304 227.453C450.038 227.453 448.741 227.648 447.413 228.039V226.281C448.741 225.891 450.038 225.695 451.304 225.695C454.96 225.695 456.788 226.969 456.788 229.516V238H455.57L454.82 236.781C453.593 237.594 452.257 238 450.812 238C447.882 238 446.417 236.762 446.417 234.285ZM451.409 232.258C449.527 232.258 448.585 232.922 448.585 234.25C448.585 235.578 449.327 236.242 450.812 236.242C452.312 236.242 453.581 235.844 454.62 235.047V232.492C453.55 232.336 452.48 232.258 451.409 232.258ZM468.577 228.203C467.702 227.781 466.702 227.57 465.577 227.57C463.101 227.57 461.862 228.887 461.862 231.52C461.862 234.637 463.101 236.195 465.577 236.195C466.702 236.195 467.702 236.043 468.577 235.738V228.203ZM470.745 237.262C469.253 237.754 467.413 238 465.226 238C461.562 238 459.73 235.867 459.73 231.602C459.73 227.664 461.675 225.695 465.566 225.695C466.628 225.695 467.632 225.891 468.577 226.281V221.242H470.745V237.262ZM475.843 231.801C475.843 234.762 477.073 236.242 479.534 236.242C481.995 236.242 483.226 234.762 483.226 231.801C483.226 228.902 481.995 227.453 479.534 227.453C477.073 227.453 475.843 228.902 475.843 231.801ZM473.675 231.848C473.675 227.746 475.628 225.695 479.534 225.695C483.441 225.695 485.394 227.746 485.394 231.848C485.394 235.941 483.441 237.988 479.534 237.988C475.644 237.988 473.691 235.941 473.675 231.848ZM488.206 237.414V235.539C489.652 236.008 491.112 236.242 492.589 236.242C494.55 236.242 495.53 235.656 495.53 234.484C495.53 233.391 494.847 232.844 493.48 232.844H491.722C489.066 232.844 487.737 231.633 487.737 229.211C487.737 226.867 489.445 225.695 492.859 225.695C494.327 225.695 495.784 225.891 497.23 226.281V228.156C495.784 227.688 494.327 227.453 492.859 227.453C490.812 227.453 489.788 228.039 489.788 229.211C489.788 230.305 490.433 230.852 491.722 230.852H493.48C496.292 230.852 497.698 232.062 497.698 234.484C497.698 236.828 495.995 238 492.589 238C491.112 238 489.652 237.805 488.206 237.414ZM503.089 235.832L501.331 240.93H499.163L500.921 235.832H503.089ZM531.657 225.695C535.157 225.695 536.907 227.426 536.907 230.887C536.907 231.379 536.872 231.906 536.802 232.469H528.165C528.165 234.984 529.634 236.242 532.571 236.242C533.97 236.242 535.212 236.086 536.298 235.773V237.531C535.212 237.844 533.891 238 532.337 238C528.11 238 525.997 235.902 525.997 231.707C525.997 227.699 527.884 225.695 531.657 225.695ZM528.165 230.664H534.821C534.774 228.508 533.72 227.43 531.657 227.43C529.47 227.43 528.305 228.508 528.165 230.664ZM539.708 237.414V235.539C541.153 236.008 542.614 236.242 544.091 236.242C546.052 236.242 547.032 235.656 547.032 234.484C547.032 233.391 546.348 232.844 544.981 232.844H543.223C540.567 232.844 539.239 231.633 539.239 229.211C539.239 226.867 540.946 225.695 544.36 225.695C545.829 225.695 547.286 225.891 548.731 226.281V228.156C547.286 227.688 545.829 227.453 544.36 227.453C542.313 227.453 541.29 228.039 541.29 229.211C541.29 230.305 541.934 230.852 543.223 230.852H544.981C547.794 230.852 549.2 232.062 549.2 234.484C549.2 236.828 547.497 238 544.091 238C542.614 238 541.153 237.805 539.708 237.414ZM552.13 223.703H553.489L553.958 225.695H557.286V227.453H554.298V234.52C554.298 235.668 554.794 236.242 555.786 236.242H557.286V238H555.223C553.161 238 552.13 236.895 552.13 234.684V223.703ZM559.466 234.285C559.466 231.762 561.13 230.5 564.458 230.5C565.528 230.5 566.598 230.578 567.669 230.734V229.574C567.669 228.16 566.563 227.453 564.352 227.453C563.087 227.453 561.79 227.648 560.462 228.039V226.281C561.79 225.891 563.087 225.695 564.352 225.695C568.009 225.695 569.837 226.969 569.837 229.516V238H568.618L567.868 236.781C566.641 237.594 565.305 238 563.86 238C560.93 238 559.466 236.762 559.466 234.285ZM564.458 232.258C562.575 232.258 561.634 232.922 561.634 234.25C561.634 235.578 562.376 236.242 563.86 236.242C565.36 236.242 566.63 235.844 567.669 235.047V232.492C566.598 232.336 565.528 232.258 564.458 232.258ZM573.364 238V225.695H574.829L575.192 227.242C576.372 226.211 577.657 225.695 579.048 225.695C580.829 225.695 582.044 226.258 582.692 227.383C584.028 226.258 585.384 225.695 586.759 225.695C589.587 225.695 591.001 227.254 591.001 230.371V238H588.833V230.254C588.833 228.418 588.059 227.5 586.513 227.5C585.356 227.5 584.274 228.031 583.266 229.094V238H581.098V230.289C581.098 228.43 580.333 227.5 578.802 227.5C577.583 227.5 576.493 228.031 575.532 229.094V238H573.364ZM596.11 231.801C596.11 234.762 597.341 236.242 599.802 236.242C602.263 236.242 603.493 234.762 603.493 231.801C603.493 228.902 602.263 227.453 599.802 227.453C597.341 227.453 596.11 228.902 596.11 231.801ZM593.942 231.848C593.942 227.746 595.895 225.695 599.802 225.695C603.708 225.695 605.661 227.746 605.661 231.848C605.661 235.941 603.708 237.988 599.802 237.988C595.911 237.988 593.958 235.941 593.942 231.848ZM608.473 237.414V235.539C609.919 236.008 611.38 236.242 612.856 236.242C614.817 236.242 615.798 235.656 615.798 234.484C615.798 233.391 615.114 232.844 613.747 232.844H611.989C609.333 232.844 608.005 231.633 608.005 229.211C608.005 226.867 609.712 225.695 613.126 225.695C614.595 225.695 616.052 225.891 617.497 226.281V228.156C616.052 227.688 614.595 227.453 613.126 227.453C611.079 227.453 610.055 228.039 610.055 229.211C610.055 230.305 610.7 230.852 611.989 230.852H613.747C616.559 230.852 617.966 232.062 617.966 234.484C617.966 236.828 616.263 238 612.856 238C611.38 238 609.919 237.805 608.473 237.414ZM641.741 234.285C641.741 231.762 643.405 230.5 646.733 230.5C647.803 230.5 648.873 230.578 649.944 230.734V229.574C649.944 228.16 648.838 227.453 646.627 227.453C645.362 227.453 644.065 227.648 642.737 228.039V226.281C644.065 225.891 645.362 225.695 646.627 225.695C650.284 225.695 652.112 226.969 652.112 229.516V238H650.893L650.143 236.781C648.916 237.594 647.58 238 646.135 238C643.205 238 641.741 236.762 641.741 234.285ZM646.733 232.258C644.85 232.258 643.909 232.922 643.909 234.25C643.909 235.578 644.651 236.242 646.135 236.242C647.635 236.242 648.905 235.844 649.944 235.047V232.492C648.873 232.336 647.803 232.258 646.733 232.258ZM663.866 227.781C663.123 227.594 662.205 227.5 661.112 227.5C658.495 227.5 657.186 228.918 657.186 231.754C657.186 234.668 658.424 236.125 660.901 236.125C662.026 236.125 663.014 235.914 663.866 235.492V227.781ZM666.034 242.453H663.866V237.414C662.944 237.805 661.952 238 660.889 238C656.998 238 655.053 235.926 655.053 231.777C655.053 227.723 657.104 225.695 661.205 225.695C662.87 225.695 664.479 225.863 666.034 226.199V242.453ZM680.166 225.695V238H678.678L678.303 236.43C676.811 237.477 675.311 238 673.803 238C670.975 238 669.561 236.473 669.561 233.418V225.695H671.729V233.453C671.729 235.281 672.635 236.195 674.448 236.195C675.69 236.195 676.873 235.676 677.998 234.637V225.695H680.166ZM686.096 225.695V238H683.928V225.695H686.096ZM685.358 221.242H688.159L685.358 224.043H683.436L685.358 221.242ZM713.457 235.492C714.309 235.914 715.258 236.125 716.305 236.125C718.859 236.125 720.137 234.59 720.137 231.52C720.137 228.84 718.867 227.5 716.328 227.5C715.234 227.5 714.277 227.594 713.457 227.781V235.492ZM711.289 226.199C712.922 225.863 714.609 225.695 716.352 225.695C720.297 225.695 722.27 227.645 722.27 231.543C722.27 235.848 720.285 238 716.316 238C715.332 238 714.379 237.805 713.457 237.414V242.453H711.289V226.199ZM724.625 234.285C724.625 231.762 726.289 230.5 729.617 230.5C730.688 230.5 731.758 230.578 732.828 230.734V229.574C732.828 228.16 731.723 227.453 729.512 227.453C728.246 227.453 726.949 227.648 725.621 228.039V226.281C726.949 225.891 728.246 225.695 729.512 225.695C733.168 225.695 734.996 226.969 734.996 229.516V238H733.777L733.027 236.781C731.801 237.594 730.465 238 729.02 238C726.09 238 724.625 236.762 724.625 234.285ZM729.617 232.258C727.734 232.258 726.793 232.922 726.793 234.25C726.793 235.578 727.535 236.242 729.02 236.242C730.52 236.242 731.789 235.844 732.828 235.047V232.492C731.758 232.336 730.688 232.258 729.617 232.258ZM738.523 238V225.695H739.988L740.375 227.266C741.453 226.219 742.75 225.695 744.266 225.695V227.5C742.797 227.5 741.605 228.02 740.691 229.059V238H738.523ZM745.859 234.285C745.859 231.762 747.523 230.5 750.852 230.5C751.922 230.5 752.992 230.578 754.062 230.734V229.574C754.062 228.16 752.957 227.453 750.746 227.453C749.48 227.453 748.184 227.648 746.855 228.039V226.281C748.184 225.891 749.48 225.695 750.746 225.695C754.402 225.695 756.23 226.969 756.23 229.516V238H755.012L754.262 236.781C753.035 237.594 751.699 238 750.254 238C747.324 238 745.859 236.762 745.859 234.285ZM750.852 232.258C748.969 232.258 748.027 232.922 748.027 234.25C748.027 235.578 748.77 236.242 750.254 236.242C751.754 236.242 753.023 235.844 754.062 235.047V232.492C752.992 232.336 751.922 232.258 750.852 232.258ZM138.172 261.285C138.172 258.762 139.836 257.5 143.164 257.5C144.234 257.5 145.305 257.578 146.375 257.734V256.574C146.375 255.16 145.27 254.453 143.059 254.453C141.793 254.453 140.496 254.648 139.168 255.039V253.281C140.496 252.891 141.793 252.695 143.059 252.695C146.715 252.695 148.543 253.969 148.543 256.516V265H147.324L146.574 263.781C145.348 264.594 144.012 265 142.566 265C139.637 265 138.172 263.762 138.172 261.285ZM143.164 259.258C141.281 259.258 140.34 259.922 140.34 261.25C140.34 262.578 141.082 263.242 142.566 263.242C144.066 263.242 145.336 262.844 146.375 262.047V259.492C145.305 259.336 144.234 259.258 143.164 259.258ZM150.605 252.695H152.961L156.441 262.305L160.039 252.695H162.336L157.227 265.363C156.32 267.598 154.961 268.992 153.148 269.547L152.316 268.012C153.691 267.41 154.691 266.43 155.316 265.07L150.605 252.695ZM174.98 252.695V265H173.492L173.117 263.43C171.625 264.477 170.125 265 168.617 265C165.789 265 164.375 263.473 164.375 260.418V252.695H166.543V260.453C166.543 262.281 167.449 263.195 169.262 263.195C170.504 263.195 171.688 262.676 172.812 261.637V252.695H174.98ZM186.77 255.203C185.895 254.781 184.895 254.57 183.77 254.57C181.293 254.57 180.055 255.887 180.055 258.52C180.055 261.637 181.293 263.195 183.77 263.195C184.895 263.195 185.895 263.043 186.77 262.738V255.203ZM188.938 264.262C187.445 264.754 185.605 265 183.418 265C179.754 265 177.922 262.867 177.922 258.602C177.922 254.664 179.867 252.695 183.758 252.695C184.82 252.695 185.824 252.891 186.77 253.281V248.242H188.938V264.262ZM191.867 261.285C191.867 258.762 193.531 257.5 196.859 257.5C197.93 257.5 199 257.578 200.07 257.734V256.574C200.07 255.16 198.965 254.453 196.754 254.453C195.488 254.453 194.191 254.648 192.863 255.039V253.281C194.191 252.891 195.488 252.695 196.754 252.695C200.41 252.695 202.238 253.969 202.238 256.516V265H201.02L200.27 263.781C199.043 264.594 197.707 265 196.262 265C193.332 265 191.867 263.762 191.867 261.285ZM196.859 259.258C194.977 259.258 194.035 259.922 194.035 261.25C194.035 262.578 194.777 263.242 196.262 263.242C197.762 263.242 199.031 262.844 200.07 262.047V259.492C199 259.336 197.93 259.258 196.859 259.258ZM205.766 265V252.695H207.23L207.617 254.266C208.695 253.219 209.992 252.695 211.508 252.695V254.5C210.039 254.5 208.848 255.02 207.934 256.059V265H205.766ZM213.688 250.703H215.047L215.516 252.695H218.844V254.453H215.855V261.52C215.855 262.668 216.352 263.242 217.344 263.242H218.844V265H216.781C214.719 265 213.688 263.895 213.688 261.684V250.703ZM226.684 252.695C230.184 252.695 231.934 254.426 231.934 257.887C231.934 258.379 231.898 258.906 231.828 259.469H223.191C223.191 261.984 224.66 263.242 227.598 263.242C228.996 263.242 230.238 263.086 231.324 262.773V264.531C230.238 264.844 228.918 265 227.363 265C223.137 265 221.023 262.902 221.023 258.707C221.023 254.699 222.91 252.695 226.684 252.695ZM223.191 257.664H229.848C229.801 255.508 228.746 254.43 226.684 254.43C224.496 254.43 223.332 255.508 223.191 257.664ZM245.615 261.285C245.615 258.762 247.279 257.5 250.607 257.5C251.677 257.5 252.747 257.578 253.818 257.734V256.574C253.818 255.16 252.712 254.453 250.501 254.453C249.236 254.453 247.939 254.648 246.611 255.039V253.281C247.939 252.891 249.236 252.695 250.501 252.695C254.158 252.695 255.986 253.969 255.986 256.516V265H254.767L254.017 263.781C252.79 264.594 251.454 265 250.009 265C247.079 265 245.615 263.762 245.615 261.285ZM250.607 259.258C248.724 259.258 247.783 259.922 247.783 261.25C247.783 262.578 248.525 263.242 250.009 263.242C251.509 263.242 252.779 262.844 253.818 262.047V259.492C252.747 259.336 251.677 259.258 250.607 259.258ZM270.745 264.414V262.539C272.19 263.008 273.651 263.242 275.128 263.242C277.089 263.242 278.069 262.656 278.069 261.484C278.069 260.391 277.385 259.844 276.018 259.844H274.26C271.604 259.844 270.276 258.633 270.276 256.211C270.276 253.867 271.983 252.695 275.397 252.695C276.866 252.695 278.323 252.891 279.768 253.281V255.156C278.323 254.688 276.866 254.453 275.397 254.453C273.35 254.453 272.327 255.039 272.327 256.211C272.327 257.305 272.971 257.852 274.26 257.852H276.018C278.831 257.852 280.237 259.062 280.237 261.484C280.237 263.828 278.534 265 275.128 265C273.651 265 272.19 264.805 270.745 264.414ZM285.569 252.695V265H283.401V252.695H285.569ZM285.569 248.242V250.293H283.401V248.242H285.569ZM289.331 265V252.695H290.796L291.159 254.242C292.339 253.211 293.624 252.695 295.014 252.695C296.796 252.695 298.01 253.258 298.659 254.383C299.995 253.258 301.35 252.695 302.725 252.695C305.553 252.695 306.967 254.254 306.967 257.371V265H304.799V257.254C304.799 255.418 304.026 254.5 302.479 254.5C301.323 254.5 300.241 255.031 299.233 256.094V265H297.065V257.289C297.065 255.43 296.299 254.5 294.768 254.5C293.549 254.5 292.46 255.031 291.499 256.094V265H289.331ZM312.663 262.492C313.514 262.914 314.464 263.125 315.51 263.125C318.065 263.125 319.342 261.59 319.342 258.52C319.342 255.84 318.073 254.5 315.534 254.5C314.44 254.5 313.483 254.594 312.663 254.781V262.492ZM310.495 253.199C312.128 252.863 313.815 252.695 315.557 252.695C319.503 252.695 321.475 254.645 321.475 258.543C321.475 262.848 319.491 265 315.522 265C314.538 265 313.585 264.805 312.663 264.414V269.453H310.495V253.199ZM326.702 248.242V265H324.534V248.242H326.702ZM332.749 252.695V265H330.581V252.695H332.749ZM332.749 248.242V250.293H330.581V248.242H332.749ZM338.678 254.453V265H336.51V252.098C336.51 248.965 338.237 247.398 341.69 247.398C342.776 247.398 343.924 247.633 345.135 248.102V249.859C343.971 249.391 342.819 249.156 341.678 249.156C339.678 249.156 338.678 250.066 338.678 251.887V252.695H346.014V265H343.846V254.453H338.678ZM359.034 264.648C358.018 264.883 356.924 265 355.753 265C351.378 265 349.19 262.871 349.19 258.613C349.19 254.668 351.378 252.695 355.753 252.695C356.924 252.695 358.018 252.812 359.034 253.047V254.805C358.018 254.57 356.885 254.453 355.635 254.453C352.784 254.453 351.358 255.84 351.358 258.613C351.358 261.699 352.784 263.242 355.635 263.242C356.885 263.242 358.018 263.125 359.034 262.891V264.648ZM361.214 261.285C361.214 258.762 362.878 257.5 366.206 257.5C367.276 257.5 368.346 257.578 369.417 257.734V256.574C369.417 255.16 368.311 254.453 366.1 254.453C364.835 254.453 363.538 254.648 362.21 255.039V253.281C363.538 252.891 364.835 252.695 366.1 252.695C369.757 252.695 371.585 253.969 371.585 256.516V265H370.366L369.616 263.781C368.389 264.594 367.053 265 365.608 265C362.678 265 361.214 263.762 361.214 261.285ZM366.206 259.258C364.323 259.258 363.382 259.922 363.382 261.25C363.382 262.578 364.124 263.242 365.608 263.242C367.108 263.242 368.378 262.844 369.417 262.047V259.492C368.346 259.336 367.276 259.258 366.206 259.258ZM375.112 265V252.695H376.577L376.964 254.266C378.042 253.219 379.339 252.695 380.854 252.695V254.5C379.385 254.5 378.194 255.02 377.28 256.059V265H375.112ZM394.383 250.703H395.742L396.211 252.695H399.539V254.453H396.551V261.52C396.551 262.668 397.047 263.242 398.039 263.242H399.539V265H397.477C395.414 265 394.383 263.895 394.383 261.684V250.703ZM412.91 252.695V265H411.422L411.047 263.43C409.555 264.477 408.055 265 406.547 265C403.719 265 402.305 263.473 402.305 260.418V252.695H404.473V260.453C404.473 262.281 405.379 263.195 407.191 263.195C408.434 263.195 409.617 262.676 410.742 261.637V252.695H412.91ZM426.029 252.695H428.372L431.9 262.34L435.404 252.695H437.747L432.743 265H430.728L426.029 252.695ZM441.908 252.695V265H439.74V252.695H441.908ZM441.908 248.242V250.293H439.74V248.242H441.908ZM453.931 255.203C453.056 254.781 452.056 254.57 450.931 254.57C448.454 254.57 447.216 255.887 447.216 258.52C447.216 261.637 448.454 263.195 450.931 263.195C452.056 263.195 453.056 263.043 453.931 262.738V255.203ZM456.099 264.262C454.607 264.754 452.767 265 450.579 265C446.915 265 445.083 262.867 445.083 258.602C445.083 254.664 447.029 252.695 450.919 252.695C451.982 252.695 452.986 252.891 453.931 253.281V248.242H456.099V264.262ZM459.029 261.285C459.029 258.762 460.693 257.5 464.021 257.5C465.091 257.5 466.161 257.578 467.232 257.734V256.574C467.232 255.16 466.126 254.453 463.915 254.453C462.65 254.453 461.353 254.648 460.025 255.039V253.281C461.353 252.891 462.65 252.695 463.915 252.695C467.572 252.695 469.4 253.969 469.4 256.516V265H468.181L467.431 263.781C466.204 264.594 464.868 265 463.423 265C460.493 265 459.029 263.762 459.029 261.285ZM464.021 259.258C462.138 259.258 461.197 259.922 461.197 261.25C461.197 262.578 461.939 263.242 463.423 263.242C464.923 263.242 466.193 262.844 467.232 262.047V259.492C466.161 259.336 465.091 259.258 464.021 259.258ZM493.534 264.648C492.518 264.883 491.424 265 490.253 265C485.878 265 483.69 262.871 483.69 258.613C483.69 254.668 485.878 252.695 490.253 252.695C491.424 252.695 492.518 252.812 493.534 253.047V254.805C492.518 254.57 491.385 254.453 490.135 254.453C487.284 254.453 485.858 255.84 485.858 258.613C485.858 261.699 487.284 263.242 490.135 263.242C491.385 263.242 492.518 263.125 493.534 262.891V264.648ZM497.882 258.801C497.882 261.762 499.112 263.242 501.573 263.242C504.034 263.242 505.264 261.762 505.264 258.801C505.264 255.902 504.034 254.453 501.573 254.453C499.112 254.453 497.882 255.902 497.882 258.801ZM495.714 258.848C495.714 254.746 497.667 252.695 501.573 252.695C505.479 252.695 507.432 254.746 507.432 258.848C507.432 262.941 505.479 264.988 501.573 264.988C497.682 264.988 495.729 262.941 495.714 258.848ZM510.362 250.703H511.721L512.19 252.695H515.518V254.453H512.53V261.52C512.53 262.668 513.026 263.242 514.018 263.242H515.518V265H513.456C511.393 265 510.362 263.895 510.362 261.684V250.703ZM520.686 252.695V265H518.518V252.695H520.686ZM520.686 248.242V250.293H518.518V248.242H520.686ZM532.71 255.203C531.835 254.781 530.835 254.57 529.71 254.57C527.233 254.57 525.995 255.887 525.995 258.52C525.995 261.637 527.233 263.195 529.71 263.195C530.835 263.195 531.835 263.043 532.71 262.738V255.203ZM534.878 264.262C533.385 264.754 531.546 265 529.358 265C525.694 265 523.862 262.867 523.862 258.602C523.862 254.664 525.807 252.695 529.698 252.695C530.76 252.695 531.764 252.891 532.71 253.281V248.242H534.878V264.262ZM540.796 252.695V265H538.628V252.695H540.796ZM540.796 248.242V250.293H538.628V248.242H540.796ZM543.971 261.285C543.971 258.762 545.635 257.5 548.964 257.5C550.034 257.5 551.104 257.578 552.174 257.734V256.574C552.174 255.16 551.069 254.453 548.858 254.453C547.592 254.453 546.296 254.648 544.967 255.039V253.281C546.296 252.891 547.592 252.695 548.858 252.695C552.514 252.695 554.342 253.969 554.342 256.516V265H553.124L552.374 263.781C551.147 264.594 549.811 265 548.366 265C545.436 265 543.971 263.762 543.971 261.285ZM548.964 259.258C547.081 259.258 546.139 259.922 546.139 261.25C546.139 262.578 546.882 263.242 548.366 263.242C549.866 263.242 551.135 262.844 552.174 262.047V259.492C551.104 259.336 550.034 259.258 548.964 259.258ZM557.87 265V252.695H559.335L559.721 254.266C560.979 253.219 562.362 252.695 563.87 252.695C566.94 252.695 568.475 254.223 568.475 257.277V265H566.307V257.242C566.307 255.414 565.397 254.5 563.577 254.5C562.335 254.5 561.155 255.02 560.038 256.059V265H557.87ZM571.417 261.285C571.417 258.762 573.081 257.5 576.409 257.5C577.479 257.5 578.549 257.578 579.62 257.734V256.574C579.62 255.16 578.514 254.453 576.303 254.453C575.038 254.453 573.741 254.648 572.413 255.039V253.281C573.741 252.891 575.038 252.695 576.303 252.695C579.96 252.695 581.788 253.969 581.788 256.516V265H580.569L579.819 263.781C578.592 264.594 577.257 265 575.811 265C572.882 265 571.417 263.762 571.417 261.285ZM576.409 259.258C574.526 259.258 573.585 259.922 573.585 261.25C573.585 262.578 574.327 263.242 575.811 263.242C577.311 263.242 578.581 262.844 579.62 262.047V259.492C578.549 259.336 577.479 259.258 576.409 259.258ZM595.199 252.695H597.555L601.035 262.305L604.633 252.695H606.93L601.82 265.363C600.914 267.598 599.555 268.992 597.742 269.547L596.91 268.012C598.285 267.41 599.285 266.43 599.91 265.07L595.199 252.695ZM629.576 264.648C628.56 264.883 627.466 265 626.294 265C621.919 265 619.732 262.871 619.732 258.613C619.732 254.668 621.919 252.695 626.294 252.695C627.466 252.695 628.56 252.812 629.576 253.047V254.805C628.56 254.57 627.427 254.453 626.177 254.453C623.326 254.453 621.9 255.84 621.9 258.613C621.9 261.699 623.326 263.242 626.177 263.242C627.427 263.242 628.56 263.125 629.576 262.891V264.648ZM642.947 252.695V265H641.458L641.083 263.43C639.591 264.477 638.091 265 636.583 265C633.755 265 632.341 263.473 632.341 260.418V252.695H634.509V260.453C634.509 262.281 635.415 263.195 637.228 263.195C638.47 263.195 639.654 262.676 640.779 261.637V252.695H642.947ZM648.876 252.695V265H646.708V252.695H648.876ZM648.876 248.242V250.293H646.708V248.242H648.876ZM660.9 255.203C660.025 254.781 659.025 254.57 657.9 254.57C655.423 254.57 654.185 255.887 654.185 258.52C654.185 261.637 655.423 263.195 657.9 263.195C659.025 263.195 660.025 263.043 660.9 262.738V255.203ZM663.068 264.262C661.576 264.754 659.736 265 657.548 265C653.884 265 652.052 262.867 652.052 258.602C652.052 254.664 653.997 252.695 657.888 252.695C658.951 252.695 659.954 252.891 660.9 253.281V248.242H663.068V264.262ZM665.997 261.285C665.997 258.762 667.661 257.5 670.99 257.5C672.06 257.5 673.13 257.578 674.201 257.734V256.574C674.201 255.16 673.095 254.453 670.884 254.453C669.618 254.453 668.322 254.648 666.993 255.039V253.281C668.322 252.891 669.618 252.695 670.884 252.695C674.54 252.695 676.368 253.969 676.368 256.516V265H675.15L674.4 263.781C673.173 264.594 671.837 265 670.392 265C667.462 265 665.997 263.762 665.997 261.285ZM670.99 259.258C669.107 259.258 668.165 259.922 668.165 261.25C668.165 262.578 668.908 263.242 670.392 263.242C671.892 263.242 673.161 262.844 674.201 262.047V259.492C673.13 259.336 672.06 259.258 670.99 259.258ZM679.896 265V252.695H681.361L681.747 254.266C682.826 253.219 684.122 252.695 685.638 252.695V254.5C684.169 254.5 682.978 255.02 682.064 256.059V265H679.896ZM707.428 255.203C706.553 254.781 705.553 254.57 704.428 254.57C701.952 254.57 700.714 255.887 700.714 258.52C700.714 261.637 701.952 263.195 704.428 263.195C705.553 263.195 706.553 263.043 707.428 262.738V255.203ZM709.596 264.262C708.104 264.754 706.264 265 704.077 265C700.413 265 698.581 262.867 698.581 258.602C698.581 254.664 700.526 252.695 704.417 252.695C705.479 252.695 706.483 252.891 707.428 253.281V248.242H709.596V264.262ZM718.186 252.695C721.686 252.695 723.436 254.426 723.436 257.887C723.436 258.379 723.401 258.906 723.331 259.469H714.694C714.694 261.984 716.163 263.242 719.1 263.242C720.499 263.242 721.741 263.086 722.827 262.773V264.531C721.741 264.844 720.421 265 718.866 265C714.639 265 712.526 262.902 712.526 258.707C712.526 254.699 714.413 252.695 718.186 252.695ZM714.694 257.664H721.35C721.303 255.508 720.249 254.43 718.186 254.43C715.999 254.43 714.835 255.508 714.694 257.664ZM737.703 250.703H739.062L739.531 252.695H742.859V254.453H739.871V261.52C739.871 262.668 740.367 263.242 741.359 263.242H742.859V265H740.797C738.734 265 737.703 263.895 737.703 261.684V250.703ZM756.23 252.695V265H754.742L754.367 263.43C752.875 264.477 751.375 265 749.867 265C747.039 265 745.625 263.473 745.625 260.418V252.695H747.793V260.453C747.793 262.281 748.699 263.195 750.512 263.195C751.754 263.195 752.938 262.676 754.062 261.637V252.695H756.23ZM138.758 292V275.242H140.926V281.031C141.973 280.141 143.25 279.695 144.758 279.695C147.828 279.695 149.363 281.223 149.363 284.277V292H147.195V284.242C147.195 282.414 146.285 281.5 144.465 281.5C143.223 281.5 142.043 282.02 140.926 283.059V292H138.758ZM154.473 285.801C154.473 288.762 155.703 290.242 158.164 290.242C160.625 290.242 161.855 288.762 161.855 285.801C161.855 282.902 160.625 281.453 158.164 281.453C155.703 281.453 154.473 282.902 154.473 285.801ZM152.305 285.848C152.305 281.746 154.258 279.695 158.164 279.695C162.07 279.695 164.023 281.746 164.023 285.848C164.023 289.941 162.07 291.988 158.164 291.988C154.273 291.988 152.32 289.941 152.305 285.848ZM175.18 281.781C174.438 281.594 173.52 281.5 172.426 281.5C169.809 281.5 168.5 282.918 168.5 285.754C168.5 288.668 169.738 290.125 172.215 290.125C173.34 290.125 174.328 289.914 175.18 289.492V281.781ZM177.348 292C177.348 294.969 175.461 296.453 171.688 296.453C170.172 296.453 168.828 296.258 167.656 295.867V294.109C168.852 294.5 170.203 294.695 171.711 294.695C174.023 294.695 175.18 293.797 175.18 292V291.414C174.258 291.805 173.266 292 172.203 292C168.312 292 166.367 289.926 166.367 285.777C166.367 281.723 168.418 279.695 172.52 279.695C174.184 279.695 175.793 279.863 177.348 280.199V292ZM180.289 288.285C180.289 285.762 181.953 284.5 185.281 284.5C186.352 284.5 187.422 284.578 188.492 284.734V283.574C188.492 282.16 187.387 281.453 185.176 281.453C183.91 281.453 182.613 281.648 181.285 282.039V280.281C182.613 279.891 183.91 279.695 185.176 279.695C188.832 279.695 190.66 280.969 190.66 283.516V292H189.441L188.691 290.781C187.465 291.594 186.129 292 184.684 292C181.754 292 180.289 290.762 180.289 288.285ZM185.281 286.258C183.398 286.258 182.457 286.922 182.457 288.25C182.457 289.578 183.199 290.242 184.684 290.242C186.184 290.242 187.453 289.844 188.492 289.047V286.492C187.422 286.336 186.352 286.258 185.281 286.258ZM194.188 292V279.695H195.652L196.039 281.266C197.117 280.219 198.414 279.695 199.93 279.695V281.5C198.461 281.5 197.27 282.02 196.355 283.059V292H194.188ZM203.691 289.832V292H201.523V289.832H203.691Z" fill="#1E1E1E"/>
<path d="M875 234V223.733H1084V234H875ZM904.062 213.467C899.363 213.467 895.44 211.882 892.294 208.713C889.141 205.551 887.565 201.605 887.565 196.876V96.5704C887.565 91.8477 889.141 87.9053 892.294 84.7432C895.447 81.5811 899.37 80 904.062 80H1054.94C1059.64 80 1063.56 81.5811 1066.71 84.7432C1069.86 87.9122 1071.44 91.858 1071.44 96.5807V196.886C1071.44 201.609 1069.86 205.551 1066.72 208.713C1063.57 211.875 1059.64 213.46 1054.94 213.467H904.062ZM904.062 203.2H1054.94C1056.5 203.2 1057.94 202.539 1059.26 201.219C1060.57 199.904 1061.22 198.457 1061.22 196.876V96.5704C1061.22 94.9962 1060.57 93.552 1059.26 92.2379C1057.94 90.9237 1056.5 90.2667 1054.94 90.2667H904.062C902.496 90.2667 901.055 90.9237 899.741 92.2379C898.433 93.552 897.78 94.9996 897.78 96.5807V196.886C897.78 198.46 898.433 199.904 899.741 201.219C901.055 202.539 902.496 203.2 904.062 203.2Z" fill="black"/>
<path d="M1233.75 90.25C1236.47 90.25 1239.08 91.3299 1241 93.2522C1242.92 95.1744 1244 97.7815 1244 100.5V223.5C1244 226.218 1242.92 228.826 1241 230.748C1239.08 232.67 1236.47 233.75 1233.75 233.75H1172.25C1169.53 233.75 1166.92 232.67 1165 230.748C1163.08 228.826 1162 226.218 1162 223.5V100.5C1162 97.7815 1163.08 95.1744 1165 93.2522C1166.92 91.3299 1169.53 90.25 1172.25 90.25H1233.75ZM1172.25 80C1166.81 80 1161.6 82.1598 1157.75 86.0043C1153.91 89.8488 1151.75 95.0631 1151.75 100.5V223.5C1151.75 228.937 1153.91 234.151 1157.75 237.996C1161.6 241.84 1166.81 244 1172.25 244H1233.75C1239.19 244 1244.4 241.84 1248.25 237.996C1252.09 234.151 1254.25 228.937 1254.25 223.5V100.5C1254.25 95.0631 1252.09 89.8488 1248.25 86.0043C1244.4 82.1598 1239.19 80 1233.75 80H1172.25Z" fill="black"/>
<path d="M1203 223.5C1205.72 223.5 1208.33 222.42 1210.25 220.498C1212.17 218.576 1213.25 215.968 1213.25 213.25C1213.25 210.532 1212.17 207.924 1210.25 206.002C1208.33 204.08 1205.72 203 1203 203C1200.28 203 1197.67 204.08 1195.75 206.002C1193.83 207.924 1192.75 210.532 1192.75 213.25C1192.75 215.968 1193.83 218.576 1195.75 220.498C1197.67 222.42 1200.28 223.5 1203 223.5Z" fill="black"/>
<path d="M1025.75 181.231L1008.53 164.013C1010.21 159.814 1009.37 154.354 1005.6 150.995C1001.82 147.215 996.359 146.375 991.741 148.475L999.718 156.454L993.84 162.333L985.443 153.934C983.344 158.554 984.184 164.013 987.962 168.213C991.741 171.992 996.779 172.832 1000.98 171.152L1018.19 188.37C1019.03 189.21 1020.29 189.21 1020.71 188.37L1024.91 184.171C1026.17 182.911 1026.17 181.651 1025.75 181.231ZM984.184 176.192H938V167.793C938 158.554 953.115 150.995 971.588 150.995C973.687 150.995 975.787 150.995 977.466 151.415C976.206 153.934 975.787 156.454 975.787 159.394C975.787 166.113 979.145 172.412 984.184 176.192ZM971.588 109C962.351 109 954.794 116.559 954.794 125.798C954.794 135.037 962.351 142.596 971.588 142.596C980.825 142.596 988.382 135.037 988.382 125.798C988.382 116.559 980.825 109 971.588 109Z" fill="black"/>
<path d="M1232.83 178.756L1221.09 167.134C1222.24 164.299 1221.66 160.614 1219.09 158.346C1216.51 155.795 1212.79 155.228 1209.64 156.646L1215.08 162.031L1211.07 166L1205.35 160.331C1203.92 163.449 1204.49 167.134 1207.07 169.969C1209.64 172.52 1213.08 173.087 1215.94 171.953L1227.68 183.575C1228.25 184.142 1229.11 184.142 1229.39 183.575L1232.26 180.74C1233.12 179.89 1233.12 179.039 1232.83 178.756ZM1204.49 175.354H1173V169.685C1173 163.449 1183.31 158.346 1195.9 158.346C1197.33 158.346 1198.76 158.346 1199.91 158.63C1199.05 160.331 1198.76 162.031 1198.76 164.016C1198.76 168.551 1201.05 172.803 1204.49 175.354ZM1195.9 130C1189.6 130 1184.45 135.102 1184.45 141.339C1184.45 147.575 1189.6 152.677 1195.9 152.677C1202.2 152.677 1207.35 147.575 1207.35 141.339C1207.35 135.102 1202.2 130 1195.9 130Z" fill="black"/>
</svg>
