<svg width="64" height="24" viewBox="0 0 64 24" fill="none" xmlns="http://www.w3.org/2000/svg">
<rect y="5.5" width="17" height="17" rx="8.5" fill="#40A826"/>
<path d="M52.2353 7.38235L49.4902 4.24509" stroke="#40A826" stroke-width="2" stroke-linecap="round"/>
<path d="M53.4118 6.59804L52.2354 2.28432" stroke="#40A826" stroke-width="2" stroke-linecap="round"/>
<path d="M55.3725 6.59804L55.7646 1.5" stroke="#40A826" stroke-width="2" stroke-linecap="round"/>
<path d="M51.9337 22.2046L48.183 18.3275C47.8058 17.8967 47.8411 17.2678 48.19 16.8973L49.8729 15.1577C49.9851 14.2793 49.8142 13.3978 49.9072 12.5355C49.9405 12.2317 49.9223 11.9511 49.8524 11.6937C49.5725 10.8021 48.731 10.2971 48.6896 9.39844C49.1652 8.17002 50.6605 7.65513 51.7236 8.17364C52.5832 8.60597 53.0725 9.41746 53.3624 10.2844C54.3541 9.25585 55.3555 8.23733 56.3542 7.21597C57.2232 6.44233 58.3433 6.40813 59.1215 7.20141C59.8981 8.00871 59.7919 9.28939 59.0899 10.0439L57.9213 11.2519C58.1117 11.5293 58.2438 11.8229 58.3175 12.1327C58.8627 12.5609 59.1832 13.2019 59.2327 13.8518C61.8428 16.8783 56.5661 18.9365 55.1638 20.3007L53.3232 22.2034C52.9039 22.5977 52.2933 22.5665 51.9337 22.2046ZM54.4405 19.6134C55.5528 18.5119 60.9172 16.3646 58.2048 14.2993C58.3867 13.6733 57.9712 12.9305 57.3712 12.8094C57.3769 12.0569 57.0277 11.48 56.3156 11.4766C56.6662 11.1142 57.0109 10.7538 57.3499 10.3955C57.6888 10.0371 58.0336 9.67669 58.3841 9.31429C58.7769 8.89084 58.7612 8.29965 58.4145 7.93227C57.9903 7.51275 57.4115 7.56687 57.0483 7.9335C55.6884 9.3391 54.3364 10.713 53.0749 12.0167C52.2789 10.9591 52.1308 8.55878 50.3043 8.96549C50.0395 9.05912 49.8604 9.16778 49.7084 9.39449C49.6928 9.44278 49.6909 9.47699 49.7025 9.49709C49.7142 9.5172 49.7336 9.54935 49.7608 9.59359C50.3638 10.4608 50.9746 11.3198 50.8911 12.3928C50.7463 13.5192 51.1262 14.6644 50.719 15.7061L50.6898 15.7363L54.4405 19.6134Z" fill="#40A826"/>
<path d="M11.135 9.92V10.882H8.301V13.612H10.745V14.574H8.301V17.538H11.317L11.226 18.5H6.78V9.92H11.135Z" fill="white"/>
<path d="M26.4395 9.12109V9.64844H21.5527V12.9883H26.2402V13.5156H21.5527V17.5H20.9375V9.12109H26.4395ZM27.4648 15.7598C27.4648 14.5371 28.2773 13.9258 29.9023 13.9258C30.4766 13.9258 31.0898 13.9648 31.7422 14.043V13.2871C31.7422 12.3457 31.1504 11.875 29.9668 11.875C29.334 11.875 28.6855 11.9727 28.0215 12.168V11.6406C28.6855 11.4453 29.334 11.3477 29.9668 11.3477C31.5605 11.3477 32.3574 11.9844 32.3574 13.2578V17.5H31.9824L31.8418 16.8906C31.0723 17.2969 30.3262 17.5 29.6035 17.5C28.1777 17.5 27.4648 16.9199 27.4648 15.7598ZM29.9023 14.4531C28.6875 14.4531 28.0801 14.8828 28.0801 15.7422C28.0801 16.5625 28.5879 16.9727 29.6035 16.9727C30.3535 16.9727 31.0664 16.7734 31.7422 16.375V14.5703C31.0898 14.4922 30.4766 14.4531 29.9023 14.4531ZM30.4766 9.12109H31.4082L30.0078 10.5215H29.5156L30.4766 9.12109ZM38.6914 17.3242C38.1836 17.4414 37.6367 17.5 37.0508 17.5C34.9805 17.5 33.9453 16.4355 33.9453 14.3066C33.9453 12.334 34.9805 11.3477 37.0508 11.3477C37.6367 11.3477 38.1836 11.4062 38.6914 11.5234V12.0508C38.1445 11.9336 37.6172 11.875 37.1094 11.875C35.4492 11.875 34.6191 12.6855 34.6191 14.3066C34.6191 16.084 35.4492 16.9727 37.1094 16.9727C37.6172 16.9727 38.1445 16.9141 38.6914 16.7969V17.3242ZM40.9238 9.12109V9.82422H40.1914V9.12109H40.9238ZM40.8652 11.3477V17.5H40.25V11.3477H40.8652ZM43.5957 9.12109V17.5H42.9805V9.12109H43.5957Z" fill="black"/>
</svg>
