<svg width="119" height="119" viewBox="0 0 119 119" fill="none" xmlns="http://www.w3.org/2000/svg">
<path d="M95.2 95.2C98.3561 95.2 101.383 96.4537 103.615 98.6854C105.846 100.917 107.1 103.944 107.1 107.1C107.1 110.256 105.846 113.283 103.615 115.515C101.383 117.746 98.3561 119 95.2 119C92.0439 119 89.0171 117.746 86.7854 115.515C84.5537 113.283 83.3 110.256 83.3 107.1C83.3 100.495 88.5955 95.2 95.2 95.2ZM0 0H19.4565L25.0495 11.9H113.05C114.628 11.9 116.141 12.5269 117.257 13.6427C118.373 14.7586 119 16.272 119 17.85C119 18.8615 118.702 19.873 118.286 20.825L96.985 59.3215C94.962 62.951 91.035 65.45 86.5725 65.45H42.245L36.89 75.1485L36.7115 75.8625C36.7115 76.257 36.8682 76.6354 37.1472 76.9143C37.4261 77.1933 37.8045 77.35 38.199 77.35H107.1V89.25H35.7C32.5439 89.25 29.5171 87.9962 27.2854 85.7646C25.0537 83.5329 23.8 80.5061 23.8 77.35C23.8 75.2675 24.3355 73.304 25.228 71.638L33.32 57.0605L11.9 11.9H0V0ZM35.7 95.2C38.8561 95.2 41.8829 96.4537 44.1146 98.6854C46.3462 100.917 47.6 103.944 47.6 107.1C47.6 110.256 46.3462 113.283 44.1146 115.515C41.8829 117.746 38.8561 119 35.7 119C32.5439 119 29.5171 117.746 27.2854 115.515C25.0537 113.283 23.8 110.256 23.8 107.1C23.8 100.495 29.0955 95.2 35.7 95.2ZM89.25 53.55L105.791 23.8H30.583L44.625 53.55H89.25Z" fill="#989898"/>
</svg>
