<svg width="126" height="126" viewBox="0 0 126 126" fill="none" xmlns="http://www.w3.org/2000/svg">
<path d="M120.416 19.8629C120.337 19.7209 120.227 19.5789 120.1 19.4685C119.312 18.6796 118.034 18.6796 117.245 19.4685L90.0651 46.6519L79.3539 35.9394L106.55 8.74022C106.676 8.61401 106.771 8.48779 106.865 8.3458C107.433 7.38342 107.118 6.15282 106.155 5.58486C90.6645 -3.56569 70.3781 -1.46738 57.0483 11.8483C46.4792 22.4187 42.9772 37.4067 46.5581 50.8801L0.337793 97.1061C-0.135452 97.5794 -0.103903 98.3525 0.385117 98.8416L27.155 125.615C27.644 126.104 28.4328 126.135 28.8902 125.662L75.0947 79.4519C88.5822 83.049 103.568 79.5623 114.153 68.9761C127.467 55.6447 129.565 35.3557 120.416 19.8629ZM106.124 60.9299C96.9587 70.0962 83.203 71.8632 72.271 66.2309L70.8829 67.6193L70.8671 67.6035L27.644 110.848L15.1504 98.3525L51.4483 62.0501C51.4483 62.0501 51.4483 62.0658 51.464 62.0658L59.7931 53.7357C54.1615 42.8024 55.9283 29.045 65.0935 19.8786C68.0494 16.9197 71.6092 14.6337 75.5296 13.177C79.45 11.7203 83.6386 11.1271 87.8093 11.4381L66.8445 32.3897C65.8976 33.3378 65.3657 34.623 65.3657 35.9631C65.3657 37.3032 65.8976 38.5885 66.8445 39.5366L86.4842 59.1787C87.4322 60.1257 88.7173 60.6577 90.0572 60.6577C91.3971 60.6577 92.6822 60.1257 93.6302 59.1787L114.579 38.2271C115.163 46.3995 112.308 54.7612 106.124 60.9299Z" fill="#989898"/>
</svg>
