<svg width="21" height="23" viewBox="0 0 21 23" fill="none" xmlns="http://www.w3.org/2000/svg">
<path d="M14.9699 12.3724C16.6928 13.1868 18.1619 14.4543 19.2198 16.0394C20.2778 17.6245 20.8848 19.4674 20.9759 21.3709C20.9879 21.5453 20.965 21.7203 20.9084 21.8857C20.8519 22.0511 20.7628 22.2036 20.6466 22.3341C20.5303 22.4646 20.3892 22.5706 20.2314 22.6458C20.0736 22.7211 19.9024 22.764 19.7278 22.7722C19.5532 22.7803 19.3787 22.7535 19.2146 22.6933C19.0505 22.6331 18.9 22.5408 18.7721 22.4217C18.6442 22.3026 18.5413 22.1591 18.4696 21.9997C18.3979 21.8403 18.3587 21.6682 18.3544 21.4934C18.259 19.4713 17.3886 17.5636 15.9238 16.1664C14.4591 14.7691 12.5125 13.9895 10.4881 13.9895C8.46382 13.9895 6.51724 14.7691 5.05248 16.1664C3.58772 17.5636 2.7173 19.4713 2.6219 21.4934C2.59832 21.8357 2.44167 22.1551 2.18548 22.3833C1.92929 22.6115 1.59394 22.7303 1.25124 22.7143C0.908529 22.6983 0.585717 22.5487 0.351926 22.2976C0.118135 22.0465 -0.00804838 21.7139 0.000398297 21.3709C0.0911548 19.4675 0.697828 17.6247 1.75548 16.0396C2.81312 14.4545 4.28193 13.1869 6.00465 12.3724C4.90042 11.4514 4.10671 10.2125 3.73149 8.82441C3.35627 7.4363 3.41775 5.9663 3.90756 4.61437C4.39738 3.26243 5.29176 2.0942 6.46903 1.26857C7.64631 0.44294 9.04934 0 10.4873 0C11.9252 0 13.3282 0.44294 14.5055 1.26857C15.6828 2.0942 16.5772 3.26243 17.067 4.61437C17.5568 5.9663 17.6183 7.4363 17.2431 8.82441C16.8678 10.2125 16.0741 11.4514 14.9699 12.3724ZM14.8631 6.99466C14.8631 5.83434 14.4022 4.72154 13.5817 3.90107C12.7613 3.08059 11.6485 2.61966 10.4881 2.61966C9.32783 2.61966 8.21503 3.08059 7.39456 3.90107C6.57408 4.72154 6.11315 5.83434 6.11315 6.99466C6.11315 8.15498 6.57408 9.26778 7.39456 10.0883C8.21503 10.9087 9.32783 11.3697 10.4881 11.3697C11.6485 11.3697 12.7613 10.9087 13.5817 10.0883C14.4022 9.26778 14.8631 8.15498 14.8631 6.99466Z" fill="black"/>
</svg>
